<svg width="1680" height="1298" viewBox="0 0 1680 1298" fill="none" xmlns="http://www.w3.org/2000/svg">
<mask id="mask0_3223_32" style="mask-type:alpha" maskUnits="userSpaceOnUse" x="-6" y="0" width="2163" height="1298">
<path d="M1386.03 1016.2C1380.35 1009.64 1374.67 1015.66 1370.34 1005.17C1367.56 998.472 1366.87 990.938 1369.08 983.999C1373.03 971.45 1377.76 961.801 1378.31 947.565C1378.95 930.857 1381.66 921.612 1396.37 912.818C1407.52 906.14 1415.56 899.699 1423.64 888.886C1427.23 884.085 1430.73 874.388 1436.62 874.008C1439.12 880.9 1440.12 892.403 1441.12 899.248C1441.81 903.977 1441.43 927.268 1434.37 915.48C1433.65 927.244 1436.48 938.533 1433.13 950.131C1430.37 959.662 1425.78 969.216 1421.1 977.891C1417.01 985.472 1399.75 1031.89 1386.03 1017.06V1016.2Z" fill="#1D3C51"/>
<path d="M2156 101.292C2144.3 98.7018 2132.94 96.1826 2119.74 97.1807C2125.95 108.802 2102.55 101.982 2096.4 101.102C2084.87 99.4386 2073.76 96.5391 2062.02 95.3745C2048.23 94.0198 2035.77 94.2337 2023.5 88.3634C2016.73 85.1312 2010.64 85.1787 2001.54 85.1787C1993.9 85.1787 1986.18 84.8222 1978.57 85.1787C1970.99 85.5352 1964.28 86.7235 1957.08 84.3231C1949.16 81.7088 1944.62 77.1932 1936.44 76.6941C1922.63 75.8861 1906.08 77.7161 1891.86 78.5479C1888.92 91.4768 1876.58 86.985 1865.92 88.5535C1855.7 90.0508 1848 90.9064 1838.44 86.676C1831.74 83.7052 1826.53 80.568 1819.28 79.4273C1812.1 78.3102 1805.68 74.4363 1798.83 73.248C1786.37 71.0853 1773.16 77.9062 1760.13 75.8623C1746.36 73.6996 1734.66 70.7763 1719.71 70.7763C1707.42 70.7763 1688.85 75.0543 1677.72 70.6337C1676.63 65.5002 1680.24 63.5038 1683.55 60.4379C1690.13 54.3062 1693.49 52.5237 1683.62 48.7449C1677.8 46.5109 1670.16 46.0831 1663.82 44.5145C1651.1 41.3535 1635.05 32.0134 1621.69 36.933C1616.03 39.0244 1613.06 44.3719 1607.04 46.2257C1601.46 47.9606 1593.13 47.6279 1587.26 47.9131C1572.33 48.6261 1561.51 52.4287 1547.84 55.6609C1548.94 58.2039 1549.63 61.2935 1548.58 64.0029L1534.81 65.6903C1531.56 65.6903 1528.59 66.0468 1525.49 66.6647C1523.78 73.7709 1532.6 75.8385 1531.41 80.9721C1530.65 84.2043 1521.9 85.2738 1518.51 85.1787C1508.83 84.8935 1501.22 75.4821 1491.14 79.4035C1490.31 89.5993 1498.75 95.6122 1503.67 104.025C1506.93 109.587 1508.57 114.388 1507.33 121.613C1506.21 128.125 1501.6 136.514 1494.61 128.172C1489.38 121.969 1495.16 115.861 1495.35 109.753C1495.56 102.956 1491.31 96.6104 1487.57 91.1203C1481.01 81.4949 1475.16 69.3979 1461.8 68.2333C1449.25 67.1401 1441.4 87.2226 1446.52 97.0619C1449.15 102.195 1458.62 106.996 1447.16 107.424C1439.6 107.709 1435.84 99.7237 1429.94 96.4202C1417.87 89.5993 1400.75 99.2246 1387.82 100.484C1371.36 102.077 1358.91 99.1296 1344.59 108.969C1338.36 113.247 1332.71 120.139 1326.1 114.031C1320.91 109.254 1321.82 99.2247 1311.28 104.715C1303.39 108.826 1308.05 115.196 1304.44 121.636C1300.92 127.887 1293.79 127.982 1288.25 132.022C1281.59 136.894 1281.57 139.437 1272.65 138.558C1266.61 137.964 1255.98 136.894 1260.76 128.6C1264.54 122.017 1296.28 130.24 1290.65 113.176C1287.8 104.501 1264.73 98.7731 1257.1 97.252C1250.02 95.8498 1242.69 95.8736 1235.61 94.5427C1228.29 93.188 1225.89 91.0253 1220.13 87.7217C1208.86 81.2573 1192.98 84.537 1180.57 86.9374C1168.8 89.1952 1154.23 92.1185 1142.91 96.4202C1130.76 101.031 1121.52 114.649 1112.43 123.324C1102.99 132.331 1092.37 139.152 1082.31 147.684C1075.73 153.269 1071.4 154.981 1063.58 158.712C1057.51 161.611 1052.47 164.226 1052.43 171.617C1052.38 177.416 1057.13 185.306 1059.94 190.297C1064.84 199.02 1067.31 198.188 1075.84 194.718C1089.75 189.085 1099.31 190.345 1106.61 205.484C1109.39 211.212 1105.66 222.239 1111.15 226.517C1115.14 229.631 1123.87 225.614 1127.27 221.812C1132.07 216.44 1129.1 212.257 1131.31 206.173C1133.55 199.97 1140.75 193.767 1144.67 188.539C1150.57 180.648 1147.5 181.551 1146.12 173.376C1145.19 167.814 1147.24 159.71 1151.11 155.527C1155.63 150.584 1161.31 148.849 1165.76 143.692C1168.9 140.055 1178.41 131.285 1184.68 137.94C1190.72 144.333 1167.12 161.825 1165.93 169.977C1163.22 188.182 1184.26 186.328 1196.03 183.571C1201.9 182.193 1211.34 176.204 1217.57 178.39C1225.51 181.195 1223.75 187.303 1216.66 188.586C1210.74 189.679 1201.28 185.782 1195.17 188.776C1186.8 192.864 1194.6 197.76 1193.31 204.557C1186.44 205.413 1181.88 198.734 1175.39 200.422C1167.02 202.585 1169.4 211.64 1169.37 218.247C1169.23 240.112 1151.97 225.21 1137.56 228.419C1129.15 230.296 1127.27 235.24 1118.64 234.336C1112.93 233.742 1106.04 235.026 1100.57 232.91C1090.61 229.037 1093.96 224.402 1095.41 217.415C1096.86 210.309 1093.89 205.959 1092.68 198.901C1083.1 197.308 1075.42 213.137 1076.44 220.79C1078.2 233.814 1083.29 237.117 1066.17 237.735C1050.9 238.282 1046.15 250.545 1034.4 258.911C1024.16 266.207 1013.58 275.619 1001.9 281.132C996.294 283.794 962.985 277.758 975.681 294.513C983.812 305.255 998.338 306.871 997.411 324.126C996.436 342.046 977.845 333.276 964.721 332.61C958.254 332.278 949.267 332.325 944.085 335.985C936.905 341 939.282 346.324 938.117 353.786C936.168 366.335 928.726 377.362 932.911 390.22C938.189 406.405 955.758 387.178 960.418 406.334L964.721 402.935C967.74 407.237 980.507 403.577 985.381 402.127C999.551 397.849 1003.5 385.657 1012.2 375.176C1016.95 369.472 1023.18 368.26 1028.39 363.103C1035.09 356.472 1030.84 351.243 1034.31 344.446C1038.09 337.078 1045.15 342.402 1051.55 342.806C1061.84 343.448 1060.6 339.027 1067.26 334.559C1075.84 328.832 1093.67 339.265 1101.28 345.563C1110.6 353.287 1124.18 359.561 1131.79 368.854C1135.42 373.275 1136.42 380.809 1130.74 385.134C1126.27 388.533 1114.38 381.45 1112.58 388.556C1111.58 392.454 1122.42 399.323 1125.32 399.798C1131.76 400.867 1134.95 396.138 1139.92 391.741C1145.55 386.75 1146.81 384.231 1146.19 376.673C1145.41 366.977 1144.36 367.856 1155.51 367.238C1154.68 361.059 1146.24 360.465 1141.65 358.254C1135.57 355.331 1134.83 352.336 1130.48 348.106C1123.44 341.285 1106.28 334.25 1104.83 323.341C1102.26 304.114 1127.98 323.722 1133.05 327.762C1143.03 335.748 1158.1 342.331 1164.4 353.786C1168.04 360.393 1166.64 367.903 1170.02 374.32C1172.65 379.287 1177.84 382.448 1179.91 387.653C1182.24 393.5 1181.17 403.149 1190.01 403.814C1200.66 404.622 1195.55 395.045 1194.43 389.507C1204.08 391.004 1200.14 385.253 1198.4 381.117C1195.88 375.105 1191.41 371.302 1196.9 364.766C1205.04 355.07 1218.28 362.366 1227.86 363.126C1254.34 365.218 1227.34 347.179 1231.52 336.175C1234.8 327.572 1248.04 310.08 1257.15 310.555C1258.98 310.65 1265.38 312.528 1266.8 313.764C1269.18 315.808 1267.47 318.897 1269.8 320.965C1276.19 326.693 1281.64 319.872 1288.94 318.398C1300.8 315.998 1314.3 327.192 1323.98 332.848C1334.63 339.099 1355.7 346.086 1339.67 358.278C1327.21 367.785 1314.35 358.159 1299.25 358.896C1292.19 359.252 1285.82 361.296 1278.62 360.583C1271.37 359.87 1264.52 357.779 1257.1 359.704C1251.02 361.296 1246.62 366.359 1240.82 368.212C1232.4 370.922 1226.77 366.24 1228.12 375.841C1230.07 389.626 1234.21 401.248 1250.23 401.248C1264.02 401.248 1277.67 398.396 1291.5 397.849C1302.27 397.421 1303.37 398.918 1302.01 408.211C1301.04 414.771 1300.18 421.378 1300.11 428.365C1299.97 441.841 1299.83 456.861 1282.92 458.025C1268.99 458.976 1253.68 456.338 1239.06 456.338C1231.88 456.338 1224.82 456.695 1218.23 454.841C1211.79 453.011 1205.53 449.826 1198.64 448.899C1194.05 448.305 1180.88 446.927 1177.1 449.517C1173.44 452.036 1176.32 455.34 1173.7 458.073C1171.01 460.877 1169.59 459.642 1165.95 460.568C1149 464.965 1146.95 454.936 1134.19 447.663C1127.79 444.003 1120.45 442.411 1114.36 438.323C1108.42 434.307 1108.68 429.268 1104.25 423.944C1101.88 421.069 1097.74 420.047 1096.24 416.529C1095.03 413.677 1097.46 409.281 1096.31 406.357C1093.08 398.158 1086.21 402.436 1078.22 401.319C1064.74 399.418 1052.02 399.56 1037.85 400.226C1023.97 400.891 1013.93 406.928 1001.69 412.893C995.937 415.698 990.255 420.118 983.669 419.904C977.583 419.69 973.779 414.889 967.336 414.818C953.238 414.652 946.819 428.365 938.307 437.705C934.694 441.698 928.084 444.954 925.184 449.351C921.118 455.506 924.447 462.446 921.974 469.053C917.481 481.079 902.764 482.386 895.965 491.916L892.517 496.147C887.025 503.039 879.227 503.467 874.258 510.502C868.552 518.63 867.055 529.895 862.585 538.498C860.826 541.873 855.452 548.1 854.834 551.166C853.788 556.204 857.616 559.603 858.995 563.928C862.204 573.863 862.371 583.488 858.329 592.923C855.31 599.958 856.213 607.326 853.194 613.909C849.723 621.514 846.537 623.796 847.797 633.397C849.937 649.63 868.576 657.639 879.394 668.334C890.829 679.623 906.592 684.091 912.274 699.634C916.72 711.803 914.485 716.39 928.631 715.558C936.643 715.082 944.679 712.183 952.715 712.135C960.085 712.088 966.005 714.726 973.351 714.726C983.741 714.702 993.845 711.755 1003.4 707.762C1017.31 701.963 1032.93 694.216 1044.77 707.097C1051.24 714.156 1054.04 719.36 1063.67 721.309C1072.09 722.997 1075.32 722.212 1080.24 729.77C1089.73 744.481 1076.91 758.551 1080.84 773.999C1084.07 786.738 1099.14 797.789 1106.04 808.722C1110.56 815.899 1108.01 821.984 1109.46 829.922C1110.89 837.717 1116.17 844.158 1118.52 851.478C1123.7 867.663 1112.03 879.498 1109.46 894.328C1107.92 903.288 1104.92 913.009 1104.97 922.088C1105.02 929.598 1107.99 936.846 1109.46 944.285C1110.98 951.986 1112.08 960.066 1116.38 966.958C1120.21 973.138 1127.27 977.677 1129.08 984.926C1132.5 998.591 1128.6 1013.8 1133.52 1027.09C1135.97 1033.69 1141.01 1036.5 1144.77 1041.66C1148.4 1046.62 1150.26 1053.11 1152.97 1058.65C1158.44 1069.84 1151.97 1086.86 1165.19 1091.66L1169.49 1100.98C1176.82 1100.98 1181.71 1098.91 1187.78 1096.13C1195.69 1092.52 1198.64 1094.68 1207.37 1094.23C1221.23 1093.49 1232.97 1082.94 1243.46 1075.38C1255.53 1066.68 1265.4 1059.29 1273.79 1046.96C1277.24 1041.89 1279.62 1034.1 1279.62 1028.13C1279.62 1022.05 1275.39 1015.89 1279.62 1010.38C1279.47 1009.83 1279.5 1009.31 1279.74 1008.81C1289.77 1003.32 1308.34 1000.11 1306.29 983.262C1305.41 976.013 1298.52 972.496 1299.37 964.629C1300.06 957.808 1306.34 951.035 1310.55 945.806C1316.06 938.938 1321.13 931.38 1328.4 926.294C1334.89 921.779 1341.93 920.424 1346.42 913.793C1355.6 900.246 1350.63 885.559 1352.89 870.586C1354.51 859.867 1352.89 860.58 1347.71 851.05C1344.62 845.417 1342.57 838.858 1344.74 833.106C1345.97 829.779 1349.25 830.682 1349.28 825.691C1349.28 822.198 1345.54 821.128 1344.95 818.086C1343.52 810.837 1347.97 805.751 1350.32 799.619C1352.94 792.822 1353.82 787.594 1358.53 781.628C1363.33 775.52 1369.32 770.767 1375.07 765.538C1387.25 754.535 1396.4 741.297 1409.5 731.434C1430.66 715.51 1439.19 682.665 1444.07 658.138C1445.4 651.365 1450.08 644.758 1443 641.858C1437.12 639.434 1428.71 642.643 1423.86 645.043C1411.99 650.89 1399.18 658.756 1385.37 657.948C1370.27 657.069 1363.16 644.948 1360.28 631.829C1354.36 628.62 1353.44 623.13 1349.25 618.306C1345.21 613.624 1339.01 611.437 1335.49 606.28C1332.04 601.218 1331.9 594.23 1328.4 589.335C1323.34 582.276 1319.7 582.11 1318.27 573.221C1317.13 566.162 1318.2 560.054 1314.21 553.733C1310.05 547.149 1304.25 547.387 1299.14 542.919C1286.3 531.701 1288.32 517.94 1283.66 503.752C1281.38 496.86 1271.51 472.784 1279.36 467.461C1285.09 474.044 1287.13 477.585 1294.43 475.113C1302.32 472.452 1302.65 468.744 1307.96 478.322C1313.9 489.088 1316.02 496.883 1324.96 506.485C1333.94 516.158 1341.84 527.471 1346.85 539.306C1349.9 546.555 1349.89 553.233 1351.82 560.506C1353.75 567.802 1357.57 568.705 1363.21 573.839C1372.1 581.919 1383.01 592.804 1384.51 604.545C1386.01 616.595 1379.04 635.418 1398.28 635.037C1410.85 634.8 1425.62 625.055 1437.79 621.443C1454.98 616.309 1461.02 605.662 1473.76 593.327C1485.03 582.419 1496.8 574.79 1500.6 559.627C1501.6 555.705 1500.86 553.946 1503.15 550.286C1505.5 546.484 1510.8 545.937 1510.07 540.162C1509.47 535.432 1501.86 530.679 1498.25 527.233C1493.9 523.098 1490.43 518.226 1486.88 514.684C1480.18 508.03 1479.18 511.642 1474.83 518.131C1468.22 527.899 1446.42 532.842 1438.08 522.123C1432.68 515.184 1436.58 509.076 1426.66 503.942C1419.7 500.33 1413.42 500.639 1411.14 491.869C1408.24 480.77 1407.57 454.936 1425.86 466.249C1431.28 469.623 1432.44 475.541 1435.91 480.199C1440 485.737 1446.3 492.51 1451.82 496.741C1462.78 505.13 1477.28 498.88 1487.1 508.577C1492.57 513.948 1492.66 515.279 1500.63 517.275C1506.38 518.725 1513.01 521.006 1518.91 522.171C1534.22 525.189 1547.94 514.328 1563.42 515.588C1575.23 516.538 1585.31 524.239 1591.83 532.485C1596.32 538.166 1593.99 544.25 1599.34 549.692C1603.14 553.614 1611.99 559.698 1617.43 558.652C1618.79 553.519 1621.02 547.743 1627.04 549.407C1637.07 552.164 1634.93 566.257 1635.64 573.173C1637.14 588.503 1650.34 605.353 1656.52 619.756C1662.87 634.514 1663.27 651.103 1667.03 666.789C1669.76 678.126 1687.76 684.281 1688.95 678.649C1690.44 671.661 1699.55 668.762 1701.88 662.179C1705.83 651.103 1701.78 632.471 1700.98 620.611C1700.17 608.799 1711.41 595.609 1721.83 588.645C1727.37 584.938 1733.48 581.587 1737.33 575.907C1740.66 571.011 1740.89 564.974 1744.86 560.458C1749.17 555.563 1755.28 555.206 1761.2 553.685C1767.43 552.069 1770.07 549.74 1776.06 547.149C1784.5 543.466 1794.81 549.787 1799.05 558.747C1803.87 568.991 1807.46 579.163 1812.81 589.263C1816.93 597.011 1825.7 612.982 1825.7 612.982C1829.95 614.812 1831.21 610.487 1834.07 607.682C1838.85 602.953 1840.37 598.104 1845.5 603.642C1847.29 605.567 1847.17 610.273 1848.93 612.816C1850.69 615.359 1853.94 617.07 1855.58 619.756C1863.57 632.827 1860.96 643.902 1860.96 658.732C1860.96 667.17 1861.22 674.49 1863.57 682.499C1865.4 688.749 1868.61 691.483 1872.75 697.044C1880.64 707.644 1882.8 716.223 1891.46 727.346L1893.17 734.119C1895.17 737.019 1912.1 754.036 1916.68 750.922C1921.27 747.833 1914.5 741.178 1913.17 735.997C1911.81 730.745 1912.76 724.137 1911.03 718.861C1909.34 713.704 1905.06 710.662 1901.33 707.002C1896.9 702.653 1895.41 699.611 1892.05 694.263C1886.68 685.707 1877.31 678.506 1874.03 668.809C1870.8 659.279 1873.82 644.734 1876.53 635.109C1883.35 634.752 1886.51 644.306 1891.82 647.919C1897.66 651.888 1904.49 654.288 1909.74 660.634C1915.92 668.073 1910.6 697.044 1924.32 677.983C1928.38 672.351 1931.54 666.195 1936.58 661.252C1941.48 656.427 1948.95 653.29 1951.85 646.849C1957.7 633.849 1949.26 616.523 1940.67 607.041C1933.68 599.34 1916.14 586.768 1915.95 576.548L1916.8 573.15C1916.73 572.342 1918.28 567.279 1920.04 564.665C1930.16 549.407 1944.05 566.614 1956.39 558.581C1962.76 554.446 1962.88 549.265 1971.89 546.888C1978.02 545.272 1983.56 546.222 1989.93 545.2C2002.01 543.299 2010.45 530.56 2018.08 521.41C2027.45 510.216 2033.61 494.293 2033.77 479.962C2033.96 463.872 2028.9 455.744 2022.81 441.864C2017.87 430.528 1998.33 420.451 2005.17 407.736C2008.05 402.365 2015.97 400.083 2007.81 393.714C2001.56 388.842 1994.5 395.068 1989.05 395.068C1976.12 395.068 1973.15 368.236 1985.49 369.115C1985.23 384.326 1990.31 380.286 2001.08 378.289C2003.82 377.766 2013.35 377.077 2015.73 378.432C2019.65 380.666 2018.63 386.75 2021.93 389.364C2029.04 395.045 2037.53 389.816 2044.95 397.968C2051.63 405.312 2051.61 413.464 2054.41 422.352L2057.86 424.04C2060.05 420.071 2070.13 421.259 2072.48 414.747C2074.93 407.95 2068.91 400.487 2064.94 395.9C2060.4 390.648 2034.06 367.737 2054.27 364.6C2055.67 354.594 2046.95 338.837 2064.54 342.069C2070.24 343.115 2074.41 346.846 2078.71 341.238C2080.68 338.671 2081.63 330.281 2082.8 326.621C2086.05 316.283 2087.62 304.851 2089.72 294.465C2092.26 281.869 2085.32 277.52 2079.99 267.348C2077.09 261.787 2076.59 255.655 2073.12 250.569C2069.77 245.673 2062.45 241.823 2057.62 238.733C2052.53 235.453 2048.47 231.722 2042.38 230.89C2034.34 229.773 2030.14 233.623 2023.43 226.612C2015.35 218.152 2023.5 203.369 2032.06 196.999C2038.46 192.222 2042.48 193.482 2049.47 191.272C2056.98 188.919 2058.57 186.804 2067.32 187.707C2074.5 188.42 2079.23 188.586 2085.6 191.723C2091.62 194.718 2096.78 199.471 2104.36 197.879C2125.76 193.435 2095.16 172.306 2112.92 169.835C2115.18 169.526 2120.39 172.235 2123.24 172.425C2126.66 172.639 2130.39 172.591 2133.56 171.593C2140.52 169.43 2147.44 162.61 2146.47 174.968C2145.97 181.29 2144.02 187.636 2143.04 194.456C2142.04 201.444 2137 205.722 2137.81 213.089C2138.83 222.596 2148.44 231.912 2156.19 239.209V101.269L2156 101.292Z" fill="#1D3C51"/>
<path d="M945.939 265.613C952.572 260.242 964.911 257.485 967.217 247.812C967.859 245.174 967.526 242.726 968.668 240.183C969.88 237.497 972.139 237.973 972.376 234.479C972.804 227.943 965.791 227.088 961.25 229.227C957.232 231.128 954.95 235.572 951.597 238.115C946.652 241.847 940.185 240.278 935.454 243.843C932.506 246.077 930.414 252.351 932.53 256.724C934.765 261.359 942.206 260.099 942.064 264.971V265.613H945.939Z" fill="#1D3C51"/>
<path d="M898.865 151.249C905.498 145.878 929.344 146.923 931.674 137.274C932.316 134.636 930.557 130.311 931.698 127.744C932.911 125.058 925.065 123.609 925.303 120.115C925.754 113.579 918.717 112.724 914.176 114.863C910.158 116.764 907.876 121.208 904.524 123.751C899.578 127.483 893.112 125.914 888.381 129.479C885.432 131.713 869.147 138.629 871.263 143.002C873.498 147.636 880.939 146.377 880.796 151.249C880.796 151.463 894.99 151.035 894.99 151.249H898.865Z" fill="#1D3C51"/>
<path d="M971.093 271.982C971.806 264.448 975.087 264.686 978.677 259.125C981.268 255.132 979.152 249.143 979.984 244.651C980.745 240.397 984.169 236.547 983.36 231.936C982.505 227.135 977.868 225.971 975.443 221.954C970.427 213.683 973.755 198.877 980.769 192.531C983.812 189.774 990.897 185.877 994.772 188.848C999.741 192.65 995.961 197.57 992.3 199.495C995.224 204.771 1003.35 200.826 1004.64 207.148C1005.3 210.475 1002.52 210.998 1001.9 213.493C1001.12 216.63 1001.45 215.632 1002.05 219.221C1002.59 222.525 1003.81 221.574 1002.86 225.115C1002.12 227.92 998.909 227.563 999.598 231.817C1000.22 235.739 1005.57 238.686 1007.99 240.682C1010.3 242.583 1011.3 241.039 1012.37 244.651C1013.22 247.503 1010.46 249.428 1011.06 251.638C1012.03 255.251 1021.4 259.125 1016.1 263.569C1013.65 265.637 1004.28 263.284 1000.91 264.496C996.222 266.183 993.369 270.699 988.638 272.101C984.977 273.194 976.822 271.816 974.944 274.502L971.069 271.959L971.093 271.982Z" fill="#1D3C51"/>
<path d="M695.687 181.765C702.367 197.095 719.366 185.544 726.047 177.82C729.922 173.352 732.038 168.432 736.817 164.487C741.572 160.542 747.61 157.904 752.461 154.006C757.501 149.918 759.807 145.308 763.563 140.626C767.605 135.611 772.836 134.922 778.898 133.638C790.524 131.19 802.292 132.212 811.826 124.583C823.19 115.505 832.89 112.581 847.75 111.868C855.548 111.512 877.943 111.441 881.629 102.504C883.483 98.0126 877.896 93.7584 884.648 90.9064C889.783 88.7199 895.727 94.8041 898.176 88.9813C900.601 83.1823 891.447 81.1147 893.492 75.6722C895.56 70.1822 904.595 73.0103 909.16 72.4875C919.953 71.2754 920.357 63.4325 920.857 54.1636C926.61 51.8108 928.417 48.9826 929.154 43.2549C930.081 35.9824 930.319 33.2492 937.523 29.2565C946.7 24.1705 957.398 22.9584 966.076 17.8486C968.549 16.3751 976.276 11.812 974.992 8.29454C973.732 4.89595 963.39 6.29816 960.109 6.39323C945.535 6.86855 931.246 12.8577 916.268 12.1209C889.189 10.79 863.869 0.0713738 836.457 0.0476074C819.196 0.0476074 800.89 1.71125 784.556 7.03492C768.39 12.3111 752.033 13.2855 735.2 15.3294C727.022 16.3038 720.27 18.4665 711.687 18.4665C703.057 18.4665 695.948 20.2728 687.96 22.7445C676.786 26.2144 665.54 32.7026 654.414 34.3425C646.425 35.5308 625.361 36.5765 640.41 48.1745C648.327 54.2587 658.479 52.7852 667.965 53.9973C674.48 54.8528 681.35 58.299 686.676 62.2917C694.997 68.5185 689.125 69.3741 688.602 76.8843C687.96 85.5352 695.782 82.1366 700.228 85.2976C707.883 90.7638 696.756 91.0728 692.572 92.2373C692.287 97.6561 693.38 100.484 689.244 103.74C685.535 106.664 682.064 106.877 678.925 111.203C672.839 119.592 671.674 128.909 671.175 139.152C670.771 147.518 678.307 189.537 691.169 183.001L695.687 181.741V181.765Z" fill="#1D3C51"/>
<path d="M520.253 42.6132C524.509 40.5455 530.999 45.7979 535.707 46.4633C541.08 47.2238 546.025 45.4176 551.208 45.1562C560.599 44.7046 574.792 50.7175 583.494 47.105C586.965 45.6553 591.553 39.1433 595.714 36.9092C600.683 34.2236 606.246 33.273 611.833 31.7757C618.894 29.8982 625.432 28.5672 633.159 27.9969C640.125 27.474 642.455 24.4794 648.613 21.7701C658.86 17.2782 671.389 18.0863 682.135 15.4482C693.143 12.7388 703.39 8.27077 714.278 5.65647C717.654 -2.94695 691.027 0.879432 686.533 0.689301C672.031 0.0476091 658.289 1.23593 643.953 2.56684C621.7 4.63452 597.877 -0.499017 576.385 2.61438C570.846 3.42243 549.805 5.32374 559.576 13.4043C563.88 16.9455 585.8 14.759 579.737 25.0261C576.433 30.6587 559.172 32.4174 553.133 33.7483C543.552 35.8635 534.851 38.0025 525.412 40.7356L520.253 42.6369V42.6132Z" fill="#1D3C51"/>
<path d="M567.993 22.6017C563.856 19.322 558.221 17.8485 553.799 14.9014C549.116 11.7643 543.077 11.1463 537.418 12.7625C533.876 13.7606 531.07 15.757 527.433 16.6601C524.556 17.3731 521.798 18.1574 518.969 18.5615C516.52 18.9179 503.801 17.2543 503.492 20.0825C503.159 22.7919 513.049 29.3751 515.427 29.9455C520.087 31.0863 527.1 31.4904 531.879 30.5635C537.418 29.494 542.268 27.664 547.998 27.0936C550.661 26.8321 553.276 26.3093 556.058 26.4281C558.459 26.547 561.455 27.4976 563.784 27.0936C564.926 26.8797 566.067 26.0479 567.018 25.4775L567.993 22.6255V22.6017Z" fill="#1D3C51"/>
<path d="M525.079 132.83C521.893 131.499 517.566 130.596 514.119 130.287C509.84 129.931 508.247 131.808 505.013 134.113C495.979 140.53 506.535 143.953 513.739 143.953C522.607 143.953 528.764 142.978 535.397 149.371C541.199 154.957 546.12 160.684 553.775 163.964C556.557 165.152 564.141 168.812 566.994 166.84C571.369 163.821 565.805 159.377 565.615 156.644C565.377 153.388 569.585 153.958 572.153 154.339C576.67 155.004 579.452 155.266 582.495 151.011C588.011 143.264 584.635 138.938 581.592 130.953C580.237 127.411 582.59 123.466 586.989 123.941C591.411 124.417 592.171 130.335 595.999 132.212C605.913 137.061 623.934 122.207 609.17 116.93C602.87 114.696 594.858 114.886 591.506 108.446C588.7 103.075 590.864 101.72 594.169 97.5846C601.063 88.9812 579.095 80.5916 572.557 78.5715C568.159 77.2168 563.57 76.2899 558.863 76.2899C552.729 76.2899 547.713 74.7451 541.84 76.9078C538.559 78.1199 532.972 81.4234 530.619 78.1199C528.336 74.9115 529.834 71.1088 524.675 70.2295C519.492 69.3501 516.092 74.1509 512.479 76.8365C509.126 79.3558 505.394 81.1145 501.495 81.9701C499.878 78.7854 500.235 75.5056 502.469 72.7487C504.966 69.6829 505.917 67.9717 500.472 67.3775C494.196 66.6645 486.16 73.5805 482.095 77.5495C479.313 80.2589 476.864 84.6557 479.622 88.2682C482.618 92.1896 488.966 92.9739 493.435 93.3542C502.517 94.1384 511.932 94.8277 520.776 92.8075C523.843 92.1183 527.623 90.621 530.88 91.5004C532.093 91.8331 532.117 92.9501 533.757 93.0927C535.564 93.2591 536.182 92.1183 537.632 91.5955C544.812 88.9812 547.57 98.4164 551.184 102.956C556.652 109.824 558.245 118.071 550.613 123.918C547.546 126.271 544.693 127.887 542.459 130.929C540.081 134.161 538.678 134.684 534.399 134.731C533.543 134.731 532.687 134.731 531.831 134.731L525.055 132.83H525.079Z" fill="#1D3C51"/>
<path d="M556.058 72.1547C553.49 71.917 549.068 71.1565 547.737 68.5897C546.405 65.9754 548.212 63.0759 550.899 62.3154C555.796 60.9369 561.455 64.0266 566.067 64.8584C568.064 65.2149 571.297 64.5257 573.152 65.5476C576.052 67.1162 575.553 69.8493 573.152 70.8713C571.155 71.7269 567.945 71.0852 565.734 71.513C562.905 72.0596 560.29 74.9829 557.674 75.0066L556.058 72.1547Z" fill="#1D3C51"/>
<path d="M488.656 62.9334C482.665 62.2679 476.246 63.2423 470.516 62.054C469.28 61.8163 464.81 60.3428 464.05 60.628C462.908 61.0558 463.051 62.8383 462.267 63.5751C461.268 64.5495 460.103 64.8109 458.89 65.3813C456.038 66.736 448.572 71.8933 452.614 75.2443C456.156 78.1914 462.79 73.5807 466.403 73.0816C471.23 72.4161 473.916 73.7471 478.41 71.5606C481.572 70.0395 486.113 68.4947 487.373 64.8109L488.656 62.9096V62.9334Z" fill="#1D3C51"/>
<path d="M542.506 63.884C543.885 60.4379 553.419 60.5805 556.628 58.394C558.578 57.0631 561.383 53.1654 560.266 50.5511C559.172 47.8892 554.607 47.9843 552.182 48.0794C548.545 48.2457 545.145 49.6004 541.531 50.3134C536.396 51.3354 531.903 51.1215 526.767 50.147C520.514 48.9587 512.574 48.4596 507.082 45.3938C503.563 43.4449 500.686 42.0189 497.643 46.0592C494.862 49.7668 494.386 52.4049 490.273 55.0429C494.695 61.3648 507.771 59.7487 515.07 59.7487C519.278 59.7487 524.176 59.0357 528.289 59.82C532.307 60.5567 535.92 63.48 539.891 63.5513L542.482 63.8602L542.506 63.884Z" fill="#1D3C51"/>
<path d="M418.997 84.2279C425.012 85.9391 432.334 82.897 436.851 78.8092C439.158 76.694 440.109 74.3174 441.82 71.8457C443.152 69.9206 446.361 67.3063 445.458 64.5256C444.483 61.6024 439.443 62.6005 436.756 63.1709C432.31 64.0741 428.364 65.3099 423.87 64.4543C419.757 63.67 418.688 63.3611 416.453 67.6865C414.527 71.4179 413.647 72.5111 409.368 73.4142C404.732 74.3887 405.374 76.2424 408.393 80.0213C411.032 83.3248 415.264 85.6064 419.686 85.1548L419.044 84.2042L418.997 84.2279Z" fill="#1D3C51"/>
<path d="M443.175 49.2913C442.486 51.2639 448.715 52.9513 450.664 53.0939C453.256 53.2841 455.158 52.4998 457.298 51.1926C459.77 49.6716 461.458 48.7922 464.454 48.3407C467.045 47.9366 470.16 47.7465 468.591 43.9677C466.451 38.8341 457.916 39.4045 453.827 41.2821C451.782 42.2089 450.237 43.7538 448.358 44.7995C446.124 46.0116 443.508 46.3681 441.583 48.0317L443.199 49.2913H443.175Z" fill="#1D3C51"/>
<path d="M442.534 148.088C442.652 144.404 448.382 142.361 450.926 140.554C454.064 138.32 454.183 136.205 456.085 133.234C459.77 127.483 466.427 129.408 469.209 134.185C471.277 137.702 473.464 138.724 476.08 141.671C477.72 143.525 480.811 149.063 478.005 150.726C475.248 152.366 471.562 148.16 469.28 147.161C466.403 145.902 463.907 145.735 461.22 147.779C457.678 150.489 455.419 151.867 450.641 151.915C447.075 151.962 441.773 152.841 442.51 147.779V148.088H442.534Z" fill="#1D3C51"/>
<path d="M401.237 58.18C403.448 57.7522 418.141 55.6607 412.53 51.5016C411.484 50.7173 409.724 51.3353 408.655 50.7886C406.42 49.6716 407.68 49.7905 406.729 48.008C405.326 45.4174 404.161 44.2291 400.31 44.5143C396.791 44.7995 394.889 47.5564 391.584 48.5784C388.089 49.6716 385.141 49.0299 382.241 47.3188C376.44 43.8964 371.162 43.3735 364.743 45.7977C359.75 47.6753 347.934 46.9147 347.72 53.4267C347.53 59.6535 355.066 58.4414 359.726 58.2037C366.906 57.871 373.587 57.6334 380.624 58.5127C387.115 59.3445 397.076 60.7705 403.186 58.5127L401.261 58.2037L401.237 58.18Z" fill="#1D3C51"/>
<path d="M373.848 105.499C378.389 104.168 384.856 101.15 388.303 97.7984C393.938 92.2847 383.786 89.2426 385.474 82.9445C386.235 80.045 389.04 78.619 389.278 75.3155C389.54 71.8456 387.186 69.4214 383.548 69.5878C378.009 69.873 370.14 84.0615 364.576 78.0961C362.365 75.7433 363.34 73.6518 359.013 74.0558C356.469 74.2935 353.212 76.6226 350.621 76.2899C347.72 75.9334 347.268 72.9151 343.845 72.4635C341.515 72.1545 338.614 74.0321 336.76 73.4142C334.05 72.511 334.953 69.4214 334.525 67.4013C333.717 63.5274 331.22 63.4561 327.488 63.2422C324.183 63.052 320.997 62.8381 317.74 62.2915C314.911 61.8162 312.605 60.7229 309.68 60.414C302.762 59.6534 296.058 62.648 289.353 63.5511C280.604 64.7157 274.47 72.4397 266.458 74.9114C264.247 75.6007 258.47 77.4069 260.134 81.0432C260.633 82.1364 264.461 83.1108 265.555 83.2534C268.883 83.6812 270.951 81.7799 273.876 80.6867C278.298 79.023 283.362 79.8786 287.998 78.8804C291.089 78.215 297.46 75.7433 300.575 76.884C303.261 77.8822 301.882 78.5715 300.361 80.6867C301.407 81.3046 302.548 82.4454 303.547 82.9207C304.521 83.3723 307.517 83.3485 308.088 84.1566C310.417 87.5314 303.38 88.1968 301.383 88.3157C298.102 88.5296 296.153 89.195 298.078 92.6887C299.671 95.5882 301.811 96.0873 297.722 98.7966C299.457 100.817 302.619 100.056 304.926 101.245C307.683 102.647 306.828 104.857 309.419 105.784C312.367 106.853 316.86 104.168 319.618 103.312C323.446 102.1 327.084 101.862 330.983 101.102C338.638 99.6285 345.39 96.9666 353.164 98.7016C357.396 99.6522 364.267 98.8204 367.096 102.908L373.872 105.451L373.848 105.499Z" fill="#1D3C51"/>
<path d="M594.002 279.183C585.158 281.56 582.4 272.434 587.631 266.587C589.39 264.615 594.335 262.547 593.17 258.863C591.482 253.516 586.394 258.792 584.54 260.978C577.74 268.964 574.127 279.849 564.331 284.816C560.171 286.931 556.082 287.668 553.157 291.471C550.352 295.131 549.472 298.41 554.013 299.908C556.842 300.858 562.358 301.001 565.187 299.86C568.658 298.482 571.06 295.202 575.173 294.822C578.121 294.56 582.638 296.105 585.396 296.984C588.819 298.078 591.197 300.953 594.406 302.07C604.939 305.73 601.848 296.438 603.013 290.639C603.583 287.763 603.893 283.319 604.82 280.538C605.818 277.662 610.169 274.549 603.892 274.501C601.349 274.501 599.518 276.426 597.426 277.044L593.978 279.16L594.002 279.183Z" fill="#1D3C51"/>
<path d="M382.859 341.451C376.63 342.402 371.899 344.707 365.313 344.351C362.817 340.073 363.649 334.606 367.073 330.97C371.423 326.359 375.513 326.478 381.504 326.122C384.072 318.445 384.024 313.431 375.132 310.626C370.639 309.224 360.083 306.657 358.014 301.951C356.398 298.268 358.419 293.681 356.303 289.854C354.52 286.646 350.668 285.434 347.506 283.937C340.374 280.585 333.004 285.434 326.632 289.427C323.185 291.589 319.975 294.655 316.219 296.2C312.581 297.697 308.777 297.246 305.044 298.339C302.738 299.004 296.295 300.169 296.961 303.306C297.722 306.942 304.331 306.657 306.756 306.277C314.031 305.112 320.974 302.95 328.677 303.71C332.219 304.067 335.429 305.445 338.995 305.825C342.442 306.182 345.747 305.873 348.98 306.586C350.288 306.871 351.381 307.251 352.689 307.608C353.901 311.886 347.268 310.507 344.582 310.507C340.802 310.507 337.735 310.935 334.287 311.791C325.301 314.025 325.301 317.756 320.165 324.506C315.386 330.78 312.129 334.583 310.18 342.283C308.777 347.773 308.92 358.706 317.479 352.859C320.522 350.768 323.185 345.872 325.586 343.139C328.415 339.883 330.888 336.27 333.099 332.515C336.879 326.122 341.634 320.394 348.909 317.804C351.904 316.734 355.447 315.712 355.78 319.824C356.017 322.89 351.904 325.765 350.074 328.213C346.603 332.8 348.766 331.35 351.167 334.963C353.378 338.29 352.285 341.095 349.884 344.089C346.864 347.868 341.063 351.172 344.938 355.949C348.029 359.751 354.781 360.25 359.227 359.252C364.101 358.135 369.189 355.64 373.42 352.978C377.534 350.411 379.935 346.846 383.311 343.994L382.883 341.451H382.859Z" fill="#1D3C51"/>
<path d="M694.617 830.658C694.64 820.89 692.429 820.486 686.224 813.737C676.453 803.089 668.869 797.005 654.2 793.44C639.697 789.899 627.168 789.115 615.495 779.014C603.678 768.818 589.913 774.974 577.717 767.82C573.366 765.277 565.14 759.193 563.048 754.487C560.551 748.902 560.123 743.269 556.819 737.565C550.471 726.609 546.809 713.015 533.805 708.071C522.583 703.793 504.134 708.832 497.905 698.565C494.315 692.647 493.863 688.844 488.252 683.948C483.878 680.146 478.219 677.793 474.249 674.014C469.494 669.499 468.068 663.89 462.243 660.61C456.466 657.354 449.761 657.853 443.556 658.756C437.374 659.659 429.481 662.226 422.824 660.491C417.546 659.113 411.508 654.169 406.562 651.745C399.359 648.18 395.055 645.637 389.136 651.745C384.975 656.071 387.043 666.813 379.982 665.387C380.434 660.776 381.813 654.811 376.559 652.648C375.394 645.09 383.002 644.781 382.265 638.483C372.541 643.736 360.939 645.708 350.644 650.01C344.344 652.648 340.659 655.904 338.567 662.107C337.045 666.599 337.449 669.594 334.478 673.349C332.385 675.987 329.271 677.032 327.416 679.884L322.257 673.967C317.74 659.612 300.48 673.848 291.255 670.782C280.723 667.288 274.637 654.454 275.16 644.306C275.659 634.491 279.962 615.359 271.475 609.583C263.106 603.903 245.536 609.108 235.551 606.019C233.982 596.56 244.324 589.382 248.532 582.466C250.886 578.616 251.646 573.72 253.453 569.727C254.904 566.566 259.064 561.338 259.706 558.106C262.511 544.274 248.009 549.241 239.688 550.239C225.708 551.926 226.588 559.508 223.355 571.415V573.102C215.39 580.684 190.498 586.792 181.178 579.067C176.138 574.908 177.351 563.667 176.257 557.844C174.83 550.381 172.667 543.608 172.619 535.836C172.572 528.421 175.092 521.529 177.588 514.661C179.823 508.458 181.464 499.284 184.649 493.485C188.953 485.618 207.949 473.854 217.268 471.216C230.202 467.556 240.306 479.986 251.956 470.788C258.945 465.298 260.277 464.181 269.763 462.351C277.085 460.925 283.433 458.548 291.255 459.594C310.608 462.185 304.379 479.344 305.877 493.485C308.088 514.114 328.082 513.948 331.886 493.675C333.455 485.309 329.889 478.155 330.816 469.742C331.957 459.451 337.449 455.696 344.368 448.614C352.903 439.844 358.775 432.144 368.452 424.848C376.749 418.573 384.666 410.421 389.326 401.129C398.075 383.708 414.812 370.803 431.692 359.799C439.799 354.499 446.979 351.124 454.017 344.351C460.222 338.386 465.69 333.395 472.799 328.903C479.598 324.625 486.041 321.369 493.245 319.04C490.416 333.014 497.501 333.989 509.507 330.59C519.682 327.691 538.488 327.762 524.342 316.616C519.231 312.575 515.641 313.502 517.471 304.542C518.327 300.264 524.675 293.705 522.702 289.284C519.207 281.489 497.334 286.076 490.083 285.767C486.517 269.724 518.613 274.597 526.934 274.882C534.185 275.143 541.413 276.427 548.426 274.882C555.392 273.337 561.645 268.726 568.207 265.351C579.809 259.362 596.38 261.074 594.882 245.221C593.503 230.771 574.911 227.801 572.51 213.042C570.132 198.307 575.601 176.299 553.585 188.301C548.45 191.105 538.964 194.908 533.781 190.178C529.073 185.877 530.833 178.699 526.125 174.065C519.468 167.505 502.018 157.904 492.484 162.182C488.015 164.178 482.689 176.608 479.408 180.838C475.818 185.449 466.689 190.487 464.977 195.241C463.764 198.616 466.665 202.014 465.857 205.436C464.906 209.477 461.173 212.685 458.13 215.608C452.115 221.336 443.865 223.95 438.967 230.819C433.666 238.282 432.453 243.296 424.512 248.858C419.163 252.589 413.148 256.843 407.537 260.408C405.017 255.132 406.182 245.863 407.585 240.183C410.057 230.225 412.934 230.367 403.258 224.735C392.488 218.437 379.435 211.259 366.954 210.546C359.227 210.095 352.38 211.806 351.476 202.917C351.072 198.972 354.234 196.999 354.068 193.601C353.854 189.513 350.93 187.683 350.597 184.308C349.242 171.284 373.492 166.27 383.477 161.611C391.204 157.999 399.501 156.525 407.371 153.84C414.931 151.249 420.494 146.401 427.151 141.79C438.563 133.852 451.283 125.605 464.192 120.781C475.366 116.598 490.321 123.775 496.169 108.28C503.421 89.1001 473.987 114.459 469.304 116.55C462.29 119.664 455.301 118.594 458.843 109.088C456.941 108.707 455.419 107.02 453.09 107.091C454.468 100.223 448.335 99.0107 442.795 99.4385C440.346 95.3269 442.652 91.2154 446.028 88.7436C428.34 81.5424 427.128 102.599 416.809 109.943C404.47 118.713 393.415 111.94 379.008 115.481C372.089 117.192 364.957 120.187 357.468 119.093C350.43 118.071 343.964 113.009 336.189 112.249C319.452 110.585 302.477 114.815 285.264 113.984C274.328 113.437 271.379 109.111 262.916 103.835C254.904 98.8443 244.11 99.1296 234.481 99.5811C224.924 100.009 215.628 101.459 206.142 102.314C197.131 103.122 190.118 100.864 181.44 99.5811C164.56 97.0856 147.418 98.6067 131.323 94.5426C123.025 92.4512 116.487 95.5408 108.309 96.1825C98.7751 96.9193 89.9785 94.4238 80.3497 95.3269C65.5143 96.7291 48.0399 97.6085 33.2758 96.1588C21.0318 94.9467 6.81456 94.1624 -6 95.5884V176.418C-2.50512 175.111 1.08486 174.16 4.91259 174.112C16.3958 173.97 31.7067 180.292 39.9565 188.681C49.0622 197.926 51.2019 213.303 54.15 224.925C57.4071 237.83 51.2495 253.397 56.7414 263.902C60.5216 271.15 84.6529 288.856 70.293 296.129C61.7104 300.478 58.4057 292.588 52.8899 303.52C49.2524 310.674 47.7784 318.588 44.3073 325.742C40.7648 333.062 35.1065 334.844 29.2579 339.503C22.3632 345.016 21.4122 350.483 16.9901 357.969C10.143 369.615 -0.0325494 383.589 3.24836 396.898C6.74324 411.063 9.59621 419.096 19.5816 429.292C32.4912 442.482 20.3424 454.08 27.3084 468.079C28.5922 470.693 32.5626 471.976 34.0128 474.828C35.368 477.49 34.7498 481.126 35.0589 484.168C35.8435 492.415 39.4572 494.911 42.5955 501.969C45.924 509.408 44.7352 513.853 50.7264 520.436C54.15 524.215 60.8069 533.769 65.8709 534.886C67.8918 527.708 64.7535 521.814 63.2557 514.661C61.2586 505.297 60.5929 495.79 56.3848 486.925C53.5794 481.007 46.1379 472.761 49.0384 465.536C53.413 454.603 59.1427 464.228 61.0684 470.622C65.5143 485.357 72.7418 498.452 77.0213 512.308C81.4671 526.734 99.6786 532.889 101.295 547.696C102.841 561.932 97.3011 571.367 111.851 581.373C117.605 585.342 124.666 587.148 131.394 589.216C139.882 591.806 141.879 595.514 148.559 600.433C161.326 609.845 175.472 613.695 190.712 612.911C204.359 612.222 210.706 625.198 223.355 629.927C236.621 634.895 244.562 637.628 252.407 650.39C256.116 656.427 255.26 662.25 259.326 668.025C263.058 673.349 270.238 677.532 275.683 680.93C280.723 684.067 287.309 688.417 293.086 689.985C301.145 692.172 301.597 688.321 307.85 685.137C324.754 676.557 324.873 700.941 324.873 711.208C324.873 719.622 323.494 723.092 319.713 729.841L311.963 745.099C313.342 745.955 314.531 745.717 313.556 748.355C301.787 751.801 304.07 756.745 300.099 767.154C296.224 777.303 299.267 781.486 299.101 791.681C298.982 799.928 292.515 799.786 290.637 806.274C289.139 811.455 295.772 819.417 298.174 823.932C301.145 829.47 304.117 838.192 308.658 843.159C314.935 850.004 320.213 852.381 324.635 860.96C330.84 873.01 332.528 890.312 341.824 900.341C350.026 909.206 363.388 913.864 372.993 920.448C385.213 928.861 398.479 948.563 399.668 962.799C401.38 983.714 399.787 1003.58 398.859 1024.59C397.79 1048.55 405.017 1069.56 403.971 1093.28C403.068 1114.17 405.849 1131.8 410.889 1151.53C415.026 1167.69 428.887 1174.39 434.284 1191.36C439.776 1208.61 445.173 1226.42 452.994 1243C459.105 1255.98 465.476 1277.49 482.047 1277.09C492.484 1276.85 490.368 1275.56 496.193 1285.38C500.9 1293.29 506.773 1291.92 512.336 1296.57H510.624C515.902 1296.57 528.907 1299.71 532.996 1296.57C540.485 1290.8 529.287 1286.35 524.39 1283.67C512.193 1277.04 503.159 1268.05 496.621 1256.15C489.013 1242.27 510.838 1234.04 504.704 1222C501.328 1215.32 471.634 1215.34 481.191 1202.34C483.711 1198.89 489.893 1198.85 492.579 1194.93L490.012 1189.84C494.695 1178.81 489.679 1179.1 485.043 1170.18C483.759 1167.71 481.786 1161.44 483.093 1158.52C485.447 1153.29 489.37 1156.11 493.507 1154.33C500.615 1151.24 500.972 1144.02 507.177 1139.69C513.715 1135.13 526.125 1137.1 530.452 1129.76C538.655 1115.83 502.065 1098.74 526.125 1097.53C533.9 1097.13 541.127 1098.98 548.474 1099.24C558.197 1099.6 558.697 1096.13 562.239 1088.21C565.354 1081.27 568.088 1075.21 569.99 1067.89C571.321 1062.81 571.416 1061.17 574.959 1056.89C577.098 1054.3 580.498 1053.42 582.709 1050.76C586.204 1046.55 590.864 1036.93 591.506 1031.46C592.29 1024.76 587.749 1018.1 589.723 1011.14C592.837 1000.11 607.744 988.063 619.013 986.542C626.027 985.591 634.039 988.443 639.673 983.191C644.357 978.841 645.403 971.236 650.206 966.435C656.102 960.541 660.666 958.688 662.022 950.132C663.163 942.93 661.451 935.23 661.166 928.1C660.524 911.868 663.686 901.743 669.796 887.46C672.815 880.401 673.005 873.889 677.737 867.306C681.755 861.745 688.198 857.609 691.978 851.858C695.996 845.726 694.688 837.978 694.712 830.658H694.617Z" fill="#1D3C51"/>
<path d="M282.363 546.436C273.305 543.157 280.366 535.837 285.977 534.197C291.35 532.628 298.34 533.65 304.022 533.65C310.18 533.65 316.48 532.105 322.067 534.529C327.63 536.954 331.886 542.254 337.212 545.034C342.395 547.72 370.116 558.248 361.961 567.256C359.037 570.488 348.576 568.254 344.439 568.492C335.642 569.014 334.145 571.914 332.171 562.811C329.889 552.259 323.517 550.976 313.413 547.34C310.441 546.27 305.235 542.444 302.619 542.182C296.937 541.612 294.465 546.959 288.878 545.771L282.387 546.484L282.363 546.436Z" fill="#1D3C51"/>
<path d="M384.88 604.592C384.88 604.592 384.88 604.592 384.856 604.592C384.856 604.64 384.809 604.687 384.785 604.735C384.571 605.139 384.238 605.757 384.404 606.161C384.476 606.303 384.595 606.422 384.785 606.47C385.046 606.47 385.26 606.232 385.474 606.042C385.664 605.852 385.878 605.638 386.116 605.614C385.593 605.091 385.165 604.759 384.856 604.616L384.88 604.592Z" fill="#1D3C51"/>
<path d="M456.37 577.451C455.8 577.071 455.253 576.714 454.92 576.405C454.088 575.883 453.303 575.027 452.471 574.148C451.306 572.912 450.118 571.628 448.739 571.201C448.477 571.106 448.144 571.058 447.811 571.01C447.384 570.963 446.956 570.892 446.623 570.725C446.528 570.583 446.504 570.535 446.504 570.488C446.504 570.393 446.456 570.369 446.076 570.179C444.792 569.751 444.673 569.798 444.007 570.107C443.841 570.179 443.651 570.274 443.413 570.369C443.508 570.416 443.532 570.488 443.532 570.535C443.532 570.654 443.247 570.773 443.033 570.868C442.914 570.915 442.819 570.963 442.747 571.01C442.605 571.129 442.533 571.201 442.486 571.201C442.462 571.201 442.438 571.153 442.391 571.106C442.343 571.01 442.248 570.892 442.01 570.844C441.535 570.82 441.297 570.44 441.036 570.06C440.869 569.822 440.703 569.584 440.489 569.418C440.441 569.418 440.418 569.418 440.37 569.442C440.251 569.466 440.132 569.489 440.061 569.584C440.037 569.632 440.037 569.703 440.061 569.775C440.37 569.941 440.418 570.06 440.418 570.131C440.418 570.179 440.394 570.202 440.322 570.25C440.013 570.393 439.062 570.345 438.801 570.155C438.801 570.155 438.801 570.202 438.801 570.226C438.444 569.917 437.755 569.798 437.018 569.68C436.257 569.537 435.449 569.418 435.068 569.062C434.949 568.705 434.64 567.897 433.951 567.921C433.951 567.921 433.903 567.921 433.856 567.921C433.024 567.945 432.691 567.992 432.667 568.087C432.667 568.135 432.691 568.158 432.952 568.23C433.142 568.277 433.356 568.396 433.475 568.515C433.047 568.658 432.191 568.301 431.835 568.135C431.573 568.254 431.145 568.349 430.86 568.135C430.789 568.135 430.67 568.159 430.527 568.182C430.099 568.254 429.41 568.396 429.291 568.135C429.291 568.23 429.291 568.349 429.291 568.467C429.243 568.182 429.148 567.897 429.006 567.588C429.101 567.279 429.125 566.828 429.172 566.424C429.22 565.948 429.243 565.449 429.386 565.093C430.29 564.926 432.857 565.307 433.547 565.806C433.784 565.996 434.854 565.901 435.544 565.829C435.758 565.829 435.948 565.782 436.043 565.782C436.114 565.782 436.257 565.829 436.423 565.853C437.065 565.972 438.111 566.21 438.397 565.996C438.872 565.758 439.015 565.378 439.157 564.998C439.276 564.665 439.419 564.308 439.799 564.047C440.132 563.714 440.108 563.477 439.966 563.049C439.157 563.429 438.658 563.548 438.444 563.381C438.23 563.215 438.325 562.811 438.397 562.455C438.468 562.122 438.516 561.837 438.373 561.742C438.23 561.647 437.85 561.694 436.233 562.859C436.233 562.859 436.043 563.263 435.972 563.381C435.758 563.168 435.068 562.882 434.593 562.692C434.426 562.621 434.307 562.573 434.236 562.55H434.189C434.07 562.668 433.903 562.764 433.832 562.716C433.784 562.692 433.761 562.621 433.737 562.502C433.452 562.336 433.19 562.383 432.928 562.455C432.596 562.526 432.263 562.621 431.764 562.264C431.407 562.146 431.074 562.36 430.717 562.597C430.385 562.811 430.028 563.025 429.6 563.025C429.552 563.025 429.505 563.025 429.434 563.025C429.053 563.025 428.34 563.072 428.078 563.144C427.341 563.477 426.557 563.762 425.844 563.144L425.796 563.358C425.796 563.358 425.772 563.453 425.749 563.524C425.653 562.835 425.107 562.169 424.584 561.528C424.108 560.934 423.633 560.339 423.466 559.745C423.395 559.531 423.419 559.246 423.419 558.937C423.419 558.319 423.466 557.606 422.777 557.464C422.777 557.392 422.824 557.297 422.848 557.202C423.062 556.489 423.371 555.491 422.919 554.897C422.444 554.184 421.564 553.732 420.613 553.732C419.662 553.732 418.806 554.16 418.331 554.873C417.808 555.539 416.476 555.087 415.573 554.778C415.359 554.707 415.193 554.659 415.05 554.612C413.742 554.612 412.744 554.089 411.864 552.948C410.2 550.88 409.605 551.118 408.702 551.498C407.965 551.807 407.038 552.187 405.088 551.332C404.589 551.142 404.256 550.88 403.923 550.619C403.448 550.215 403.02 549.882 402.164 549.977C402.259 549.787 402.14 549.502 402.021 549.288C401.689 548.718 400.952 548.028 400.595 548.076C400.024 548.314 399.073 548.242 398.455 548.076C398.455 548.123 398.479 548.195 398.526 548.266C398.574 548.385 398.645 548.528 398.598 548.575C398.598 548.599 398.526 548.575 398.479 548.575C398.099 548.504 398.099 548.314 398.099 548.123C398.099 547.862 398.099 547.553 397.219 547.387C395.65 547.719 395.364 548.195 395.15 548.575C394.96 548.932 394.794 549.193 393.748 549.24C393.724 549.24 393.653 549.193 393.581 549.169C393.462 549.122 393.415 549.074 393.391 549.122C393.391 549.122 393.391 549.169 393.439 549.288C393.439 549.383 393.534 549.407 393.581 549.431C393.629 549.431 393.653 549.431 393.653 549.478C393.653 549.478 393.653 549.549 393.605 549.597C393.462 549.811 393.344 549.93 393.272 549.906C393.201 549.906 393.13 549.763 393.082 549.597C393.011 549.407 392.939 549.193 392.773 549.074C392.464 549.074 392.416 549.336 392.369 549.549C392.321 549.74 392.297 549.93 392.06 549.953C392.06 549.953 392.06 549.977 392.06 550.001C392.06 550.001 392.06 550.001 392.06 549.977C391.085 550.049 390.776 549.811 390.538 549.645C390.324 549.478 390.182 549.383 389.587 549.668C389.088 549.645 388.327 549.24 387.59 548.836C387.02 548.527 386.496 548.242 386.116 548.147C385.308 548.076 383.168 548.005 382.764 548.575C382.574 548.504 382.051 548.314 381.813 548.527C381.718 548.623 381.67 548.765 381.718 548.979C381.813 549.098 381.837 549.193 381.813 549.264C381.789 549.407 381.575 549.502 381.409 549.597C381.076 549.621 380.743 549.858 380.505 550.215C380.434 550.262 380.315 550.262 380.196 550.262C380.125 550.262 380.03 550.262 379.982 550.262C379.958 550.286 379.911 550.334 379.887 550.358C379.602 550.619 379.15 551.047 379.34 551.427C379.737 551.427 379.943 551.506 379.958 551.665C379.958 551.855 379.982 552.211 380.339 552.853C380.386 553.019 380.434 553.233 380.386 553.281C380.363 553.281 380.267 553.281 380.172 553.209C380.03 553.138 379.816 553.019 379.554 553.019V553.067C379.697 553.495 379.887 554.089 379.816 554.517C379.626 555.206 380.101 556.299 380.41 557.012C380.458 557.107 380.505 557.202 380.529 557.297C381.337 560.316 380.363 561.314 379.697 561.955C379.198 562.455 378.865 562.787 379.721 563.667C380.101 564.285 381.385 564.95 382.003 565.188C382.122 565.093 382.217 564.998 382.312 564.926C382.146 565.188 382.169 565.52 382.193 565.877C382.241 566.614 382.312 567.541 380.624 568.539C379.554 570.488 378.389 570.868 377.7 571.082C377.224 571.248 376.915 571.343 377.058 571.866C377.224 571.819 377.367 571.795 377.486 571.771C378.603 571.486 378.627 571.486 379.34 572.745C380.125 573.411 380.553 574.861 380.339 576.215C380.172 577.261 379.649 578.022 378.865 578.307C379.031 578.307 379.221 578.354 379.412 578.378C379.174 578.378 378.936 578.378 378.698 578.378C377.533 580.374 376.773 580.232 375.893 580.065C375.275 579.947 374.562 579.804 373.611 580.398C373.611 580.707 374.157 581.182 374.728 581.705C375.394 582.323 376.155 583.036 376.083 583.488C376.083 583.607 375.988 583.725 375.845 583.797C375.75 583.963 375.75 584.153 375.845 584.343C375.917 584.534 376.083 584.7 376.273 584.747C377.201 584.914 377.296 585.033 377.7 585.603C377.771 585.698 377.842 585.793 377.914 585.888C378.27 586.221 378.817 586.459 379.364 586.696C379.744 586.863 380.101 587.005 380.363 587.195C380.481 587.267 380.553 587.338 380.577 587.409C380.6 587.504 380.529 587.623 380.458 587.742C380.41 587.79 380.386 587.861 380.339 587.932C380.339 587.932 380.339 587.932 380.339 587.956C380.386 587.98 380.434 588.003 380.481 588.051C380.458 588.051 380.434 588.051 380.41 588.051C380.172 588.122 379.982 588.455 379.554 589.239C379.483 589.382 379.388 589.548 379.293 589.715C379.007 590.356 379.126 591.069 379.269 591.759C379.412 592.567 379.578 593.398 379.055 594.159C379.744 594.349 380.981 594.848 381.504 595.799C381.765 596.298 381.813 596.845 381.646 597.462C382.597 598.96 382.788 599.839 381.314 600.813C381.765 601.099 382.954 600.909 383.667 600.813C383.786 600.813 383.905 600.79 383.976 600.766C384.88 600.909 385.45 601.931 386.021 602.929C386.449 603.713 386.877 604.474 387.424 604.759C388.208 603.927 388.708 602.667 389.183 601.455C389.468 600.742 389.73 600.053 390.039 599.483C390.253 599.483 390.419 599.316 390.491 599.174C390.562 599.055 390.586 598.983 390.562 598.96C390.562 598.936 390.491 598.936 390.467 598.96C390.467 598.96 390.467 598.96 390.514 598.912C390.562 598.793 390.586 598.675 390.61 598.532C390.61 598.603 390.61 598.674 390.657 598.746C390.705 598.793 390.752 598.841 390.8 598.841C390.919 598.841 391.014 598.627 391.085 598.413C391.18 598.199 391.251 597.985 391.394 597.938C391.537 597.795 391.751 597.676 391.965 597.557C392.107 597.486 392.25 597.391 392.369 597.32C392.511 596.773 393.106 595.894 393.748 594.991C394.413 593.993 395.127 592.971 395.246 592.353C395.246 592.305 395.293 592.258 395.341 592.21C395.507 591.949 395.792 591.568 395.697 591.354C395.578 591.236 395.246 590 395.198 589.81C395.15 589.715 395.079 589.62 394.984 589.524C394.841 589.334 394.699 589.144 394.699 588.907C394.746 588.811 394.77 588.693 394.818 588.574C394.936 588.146 395.079 587.671 395.507 587.576C396.22 587.576 397.48 587.718 397.885 588.74C397.885 588.74 397.885 588.716 397.908 588.693C397.908 588.693 397.908 588.716 397.908 588.74C397.932 588.788 398.003 588.811 398.122 588.811C398.241 588.811 398.408 588.811 398.622 588.764C398.859 588.621 399.073 588.407 399.264 588.217C399.501 587.98 399.739 587.718 400.072 587.576C400.191 586.981 400.5 586.91 400.833 586.839C401.047 586.791 401.261 586.744 401.475 586.577C401.689 586.482 401.902 586.554 402.14 586.601C402.449 586.673 402.782 586.768 403.067 586.482C403.852 585.841 403.828 585.674 403.781 585.413C403.781 585.247 403.733 585.056 403.947 584.652C404.827 584.32 405.897 584.652 406.539 585.413C407.109 586.102 407.204 586.934 406.776 587.647C406.562 587.718 406.443 587.861 406.443 588.051C406.443 588.265 406.586 588.455 406.848 588.55C406.848 588.574 406.871 588.598 406.967 588.645C407.038 588.764 407.133 588.859 407.252 588.93C407.394 589.073 407.537 589.192 407.537 589.334C407.537 589.429 407.418 589.548 407.228 589.643C407.085 589.786 407.038 589.905 407.085 590C407.157 590.19 407.608 590.214 408.06 590.214C408.25 590.214 408.441 590.214 408.607 590.214C408.845 590.214 409.035 590.214 409.106 590.214C409.463 590.214 409.843 589.976 410.224 589.786C410.533 589.62 410.842 589.453 411.127 589.406C411.84 589.334 412.768 589.406 413.647 589.453C414.622 589.524 415.525 589.572 416.191 589.477C416.262 589.501 416.31 589.524 416.358 589.524C416.476 589.524 416.524 589.453 416.595 589.382C416.643 589.334 416.667 589.311 416.714 589.263C417.023 588.883 417.713 588.17 418.069 587.885C418.117 587.481 418.64 587.243 418.806 587.172V587.077C419.092 586.292 419.424 585.342 420.28 585.009C420.28 585.009 420.28 585.009 420.28 584.985C420.375 584.985 420.518 584.938 420.803 584.819C420.803 584.795 420.803 584.747 420.803 584.724C420.803 584.724 420.803 584.724 420.827 584.747C420.851 584.747 420.899 584.771 420.922 584.771C421.112 584.771 421.422 584.557 421.778 584.343C422.254 584.034 422.777 583.678 423.133 583.725C423.466 583.63 426.2 583.963 427.104 584.058C427.223 584.058 427.318 584.082 427.365 584.082C427.603 584.129 427.746 584.343 427.888 584.605C428.055 584.89 428.221 585.175 428.554 585.151C428.792 585.175 428.934 585.151 429.053 585.056C429.196 584.914 429.196 584.7 429.172 584.486C429.172 584.296 429.172 584.129 429.243 584.082C429.434 583.987 430.076 584.32 431.312 585.223C431.312 585.247 431.312 585.27 431.336 585.294C431.645 585.365 432.334 585.104 432.667 584.961H432.715C432.833 584.914 433.119 584.89 433.475 584.89C434.498 584.843 436.043 584.771 436.233 584.272C436.637 584.652 437.137 584.51 437.612 584.367C437.779 584.32 437.921 584.272 438.064 584.248C438.397 584.248 438.92 584.629 439.229 584.961C439.538 585.033 439.871 585.128 440.227 585.247C440.679 585.389 441.155 585.532 441.559 585.603C441.678 585.603 441.796 585.627 441.915 585.627C442.391 585.627 442.89 585.508 443.389 585.389C444.269 585.175 445.077 584.961 445.862 585.413C447.407 585.983 448.406 587.766 449.095 589.263C449.095 589.358 449.095 589.477 449.095 589.596C449.095 589.928 449.095 590.285 449.547 590.333C449.595 590.333 449.809 590.333 450.046 590.285C450.926 590.237 451.734 590.166 451.782 590.071C451.853 589.881 451.924 589.667 451.996 589.429C452.257 588.621 452.543 587.694 452.947 587.077C452.947 586.981 452.899 586.91 452.875 586.815C452.757 586.459 452.685 586.15 453.113 585.96C453.803 586.411 454.73 586.815 455.443 586.815C455.705 586.815 455.919 586.768 456.109 586.649C456.513 586.387 456.656 585.841 456.513 585.033C456.584 584.89 457.107 584.106 457.678 583.274C458.32 582.347 458.986 581.373 459.081 581.159C459.604 579.709 457.702 578.473 456.18 577.475L456.37 577.451Z" fill="#1D3C51"/>
<path d="M453.208 591.402C452.852 591.117 452.329 591.045 451.568 591.14C450.546 591.045 450.332 590.974 449.476 590.451C449.095 590.332 448.858 590.356 448.786 590.523C448.596 590.927 449.499 592.044 449.88 592.305C450.664 592.543 451.116 592.448 451.544 592.353C452.091 592.234 452.614 592.115 453.731 592.685C453.708 592.091 453.517 591.663 453.208 591.402Z" fill="#1D3C51"/>
</mask>
<g mask="url(#mask0_3223_32)">
<rect x="-6" y="253" width="1701" height="562" fill="#D9D9D9"/>
</g>
<path d="M408.677 581.747C408.368 581.747 408.059 581.629 407.821 581.391C407.369 580.916 407.369 580.179 407.821 579.703C498.736 490.318 664.54 460.42 787.622 451.08C920.856 440.979 1034.12 452.102 1035.24 452.221C1035.88 452.292 1036.35 452.862 1036.31 453.528C1036.23 454.193 1035.66 454.645 1035 454.597C1033.88 454.478 920.784 443.38 787.765 453.48C665.087 462.797 499.901 492.552 409.485 581.415C409.248 581.652 408.962 581.747 408.653 581.747H408.677Z" fill="#FF0000"/>
<path d="M404.849 581.747C404.303 581.747 403.803 581.367 403.684 580.82C391.654 527.013 417.711 442.571 441.676 381.183C467.306 315.54 497.737 258.121 501.161 257.051C501.803 256.861 502.445 257.218 502.658 257.836C502.825 258.406 502.563 259 502.064 259.238C498.902 262.042 469.279 316.681 443.174 383.94C419.709 444.354 394.222 527.465 406.038 580.274C406.181 580.915 405.777 581.557 405.135 581.7C405.04 581.7 404.968 581.723 404.873 581.723L404.849 581.747Z" fill="#FF0000"/>
<path d="M955.495 624.527C955.495 624.527 955.281 624.527 955.162 624.479C952.761 623.766 711.71 553.608 406.419 584.124C405.777 584.219 405.182 583.72 405.111 583.054C405.04 582.413 405.515 581.818 406.181 581.747C711.947 551.184 953.427 621.485 955.828 622.198C956.446 622.388 956.827 623.053 956.636 623.671C956.494 624.194 956.018 624.527 955.495 624.527Z" fill="#FF0000"/>
<path d="M449.356 735.444C448.999 735.444 448.666 735.302 448.428 734.993C447.715 734.113 377.295 645.869 400.736 584.504C400.974 583.886 401.664 583.577 402.282 583.815C402.9 584.053 403.209 584.742 402.971 585.36C380.005 645.441 449.593 732.616 450.307 733.496C450.711 733.995 450.64 734.755 450.116 735.159C449.903 735.349 449.641 735.421 449.379 735.421L449.356 735.444Z" fill="#FF0000"/>
<path d="M392.605 576.376C392.368 576.376 392.154 576.305 391.94 576.162C300.502 514.227 233.719 310.763 233.053 308.719C232.863 308.101 233.196 307.436 233.814 307.222C234.456 307.032 235.098 307.364 235.312 307.982C235.978 310.026 302.499 512.706 393.271 574.189C393.818 574.57 393.961 575.306 393.58 575.829C393.342 576.162 392.986 576.352 392.605 576.352V576.376Z" fill="#FF0000"/>
<path d="M862.476 399.033L883.678 385.884C884.113 385.609 884.636 385.522 885.143 385.624L912.741 391.263C913.481 391.408 914.075 391.973 914.278 392.698C914.481 393.438 914.249 394.206 913.684 394.713L897.166 409.573L862.476 399.019V399.033Z" fill="#65A6C6"/>
<path d="M1046.25 423.375C1046.25 423.375 789.051 377.462 779.015 380.68C768.979 383.899 751.055 394.554 745.761 394.569C740.468 394.598 721.977 397.845 726.792 411.037C731.607 424.23 944.893 464.518 969.706 455.95C994.52 447.382 1057.37 431.247 1057.37 431.247C1057.37 431.247 1063.14 422.229 1046.24 423.36L1046.25 423.375Z" fill="#00457E"/>
<path d="M971.809 411.037L1008.79 390.437C1011.11 389.146 1013.02 387.233 1014.3 384.913L1029.24 357.876C1030.43 355.73 1032.86 354.614 1035.26 355.121C1042.93 356.73 1058.84 360.297 1058.92 362.094C1059.03 364.472 1051.31 424.186 1051.31 424.186L971.809 411.037Z" fill="#00457E"/>
<path d="M1043.86 431.942L1046.95 444.526C1047.47 446.657 1046.99 448.817 1045.64 450.542C1044.29 452.268 1042.23 453.195 1040.04 453.21L1026.98 453.268C1024.92 453.268 1022.94 452.47 1021.58 450.934L998.218 424.404L1043.86 431.957V431.942Z" fill="#65A6C6"/>
<path d="M909.203 474.158C909.203 474.158 901.313 483.9 888.421 483.958C875.528 484.016 859.648 480.522 856.661 475.97C853.673 471.418 847.176 437.77 873.367 442.511C899.558 447.237 930.173 462.372 909.203 474.158Z" fill="#00457E"/>
<path d="M923.719 439.307L862.592 428.768L914.104 494.484C914.829 495.411 915.903 495.977 917.063 496.078L953.667 499.021C955.247 499.152 956.77 498.369 957.597 497.006C958.423 495.643 958.394 493.933 957.553 492.599L923.719 439.307Z" fill="#65A6C6"/>
<path d="M861.693 475.724C865.159 471.926 871.235 457.196 869.785 450.818C868.857 446.744 865.985 446.091 863.723 446.251C860.982 446.454 858.56 448.02 857.27 450.441C852.875 458.632 854.543 469.389 857.124 474.405C857.922 475.97 858.749 476.811 859.561 476.913C859.706 476.927 859.865 476.913 860.025 476.898C860.533 476.797 861.084 476.405 861.693 475.738V475.724ZM863.81 447.353C866.493 447.164 868.088 448.368 868.697 451.064C869.974 456.703 864.463 471.027 860.866 474.97C860.097 475.825 859.749 475.811 859.706 475.796C859.401 475.753 858.807 475.231 858.111 473.883C855.703 469.215 854.093 458.704 858.241 450.963C859.198 449.179 860.924 447.904 862.882 447.483C863.186 447.425 863.491 447.367 863.81 447.353Z" fill="#65A6C6"/>
<path d="M1057.5 376.258L1051.15 376.287L1045.38 416.807L1052.06 418.344L1057.5 376.258Z" fill="url(#paint0_linear_3223_32)"/>
<path d="M949.604 421.689L949.372 421.69C947.281 421.698 945.594 423.4 945.602 425.489L945.613 427.939C945.621 430.029 947.323 431.716 949.414 431.707L949.646 431.706C951.736 431.698 953.423 429.996 953.415 427.907L953.404 425.457C953.396 423.367 951.694 421.68 949.604 421.689Z" fill="#D5DBDF"/>
<path d="M934.902 420.571L935.148 420.569C937.236 420.56 938.941 422.248 938.951 424.335L938.963 426.8C938.972 428.887 937.284 430.592 935.195 430.601L934.949 430.603C932.861 430.612 931.156 428.924 931.146 426.837L931.134 424.372C931.124 422.285 932.813 420.58 934.902 420.571Z" fill="#D5DBDF"/>
<path d="M920.631 417.318L920.399 417.319C918.308 417.329 916.622 419.031 916.631 421.121L916.643 423.571C916.653 425.66 918.355 427.346 920.446 427.337L920.678 427.335C922.768 427.326 924.455 425.624 924.445 423.534L924.434 421.084C924.424 418.994 922.721 417.308 920.631 417.318Z" fill="#D5DBDF"/>
<path d="M907.249 415.134L907.017 415.135C904.927 415.145 903.24 416.847 903.25 418.937L903.262 421.387C903.271 423.476 904.974 425.162 907.064 425.152L907.297 425.151C909.387 425.142 911.074 423.44 911.064 421.35L911.052 418.9C911.042 416.81 909.34 415.124 907.249 415.134Z" fill="#D5DBDF"/>
<path d="M891.388 413.034L891.635 413.033C893.723 413.023 895.428 414.711 895.438 416.799L895.449 419.263C895.459 421.351 893.771 423.055 891.682 423.065L891.436 423.066C889.347 423.076 887.643 421.388 887.633 419.3L887.621 416.835C887.611 414.748 889.3 413.044 891.388 413.034Z" fill="#D5DBDF"/>
<path d="M876.902 410.831L877.149 410.83C879.237 410.821 880.941 412.51 880.95 414.598L880.96 417.062C880.969 419.15 879.279 420.853 877.191 420.862L876.944 420.863C874.856 420.872 873.152 419.183 873.143 417.095L873.133 414.63C873.124 412.543 874.814 410.84 876.902 410.831Z" fill="#D5DBDF"/>
<path d="M862.401 407.557L862.647 407.556C864.736 407.547 866.439 409.236 866.448 411.324L866.459 413.788C866.467 415.876 864.778 417.579 862.689 417.588L862.443 417.589C860.354 417.598 858.651 415.909 858.642 413.821L858.632 411.357C858.623 409.269 860.312 407.566 862.401 407.557Z" fill="#D5DBDF"/>
<path d="M849.257 406.539L849.025 406.54C846.935 406.549 845.247 408.25 845.256 410.34L845.266 412.79C845.275 414.88 846.977 416.567 849.067 416.558L849.299 416.557C851.39 416.548 853.077 414.847 853.069 412.757L853.058 410.307C853.05 408.218 851.348 406.531 849.257 406.539Z" fill="#D5DBDF"/>
<path d="M834.789 404.313L834.557 404.314C832.467 404.324 830.78 406.026 830.79 408.115L830.801 410.565C830.811 412.655 832.514 414.341 834.604 414.331L834.836 414.33C836.927 414.32 838.613 412.618 838.604 410.529L838.592 408.079C838.582 405.989 836.88 404.303 834.789 404.313Z" fill="#D5DBDF"/>
<path d="M820.273 401.049L820.041 401.05C817.95 401.059 816.263 402.76 816.272 404.85L816.283 407.3C816.292 409.39 817.994 411.077 820.085 411.067L820.317 411.066C822.407 411.057 824.094 409.356 824.085 407.266L824.075 404.816C824.065 402.726 822.363 401.04 820.273 401.049Z" fill="#D5DBDF"/>
<path d="M806.898 400.019L806.666 400.02C804.576 400.029 802.888 401.73 802.897 403.819L802.907 406.269C802.916 408.359 804.618 410.046 806.708 410.037L806.94 410.036C809.031 410.028 810.718 408.326 810.709 406.237L810.699 403.787C810.69 401.697 808.989 400.01 806.898 400.019Z" fill="#D5DBDF"/>
<path d="M761.119 388.711L786.571 395.655C788.485 396.177 789.747 397.99 789.587 399.961C789.384 402.31 789.051 404.963 788.529 404.731C787.6 404.339 747.719 394.394 747.719 394.394L761.134 388.697L761.119 388.711Z" fill="#D5DBDF"/>
<defs>
<linearGradient id="paint0_linear_3223_32" x1="979.106" y1="376.763" x2="1014.06" y2="386.339" gradientUnits="userSpaceOnUse">
<stop stop-color="#2D357D"/>
<stop offset="1" stop-color="#140E3F"/>
</linearGradient>
</defs>
</svg>
