<svg width="61" height="61" viewBox="0 0 61 61" fill="none" xmlns="http://www.w3.org/2000/svg">
<path d="M14.6502 48.6348C14.8332 50.8956 16.8272 52.6888 19.2786 52.6888H41.7215C44.173 52.6888 46.1669 50.8956 46.3499 48.6348C49.9235 48.3285 52.7397 45.3268 52.7397 41.6757V38.9218C52.7397 35.2822 49.9426 32.2868 46.3855 31.964V26.0013C46.3855 24.8347 46.2457 23.7112 45.9737 22.6768C45.3256 19.9686 43.8553 17.4816 41.7215 15.4839C39.3603 13.2917 36.4082 11.8861 33.1688 11.3803V10.98C33.1688 9.5084 31.9717 8.31128 30.5001 8.31128C29.0285 8.31128 27.8313 9.5084 27.8313 10.98V11.3803C21.561 12.3779 16.451 16.85 15.0302 22.6628C14.7545 23.7112 14.6147 24.8347 14.6147 26.0013V31.964C11.0576 32.2868 8.2605 35.2822 8.2605 38.9218V41.6757C8.2605 45.3268 11.0767 48.3285 14.6502 48.6348ZM45.1147 48.3044C45.1147 50.0213 43.5922 51.4179 41.7215 51.4179H19.2786C17.408 51.4179 15.8855 50.0213 15.8855 48.3044V48.0299V32.5664V31.0846H45.1147V32.5677V48.0299V48.3044ZM51.4688 38.9206V41.6745C51.4688 44.6139 49.2411 47.0412 46.3855 47.3576V33.2374C49.2411 33.5551 51.4688 35.9824 51.4688 38.9206ZM29.1022 10.98C29.1022 10.2099 29.73 9.58211 30.5001 9.58211C31.2702 9.58211 31.898 10.2099 31.898 10.98V11.2126C31.8548 11.2088 31.8065 11.2101 31.762 11.2075C30.9436 11.1478 30.0807 11.1465 29.2496 11.2075C29.2013 11.2113 29.1492 11.2101 29.1022 11.2139V10.98ZM16.2617 22.9754C17.6024 17.488 22.5396 13.2993 28.5494 12.5508C29.1708 12.4694 29.8431 12.4288 30.5102 12.43C30.7174 12.43 30.9156 12.4415 31.1164 12.4478C31.5777 12.4656 32.0302 12.4949 32.4483 12.5508C32.4495 12.5508 32.4534 12.5508 32.4546 12.5508C35.6533 12.9447 38.5584 14.2804 40.8536 16.4128C42.8043 18.2378 44.1463 20.5062 44.7398 22.9856C44.9876 23.9285 45.1121 24.9439 45.1121 26.0013V29.8138H15.883V26.0013C15.8855 24.9427 16.0113 23.9285 16.2617 22.9754ZM9.53133 38.9206C9.53133 35.9811 11.7591 33.5538 14.6147 33.2374V47.3576C11.7591 47.0399 9.53133 44.6126 9.53133 41.6745V38.9206Z" fill="#23B53E"/>
<path d="M42.2552 39.2649H18.7448C18.394 39.2649 18.1094 39.5496 18.1094 39.9003V44.441C18.1094 46.7704 20.0042 48.664 22.3324 48.664H38.6676C40.9958 48.664 42.8906 46.7692 42.8906 44.441V39.9003C42.8906 39.5496 42.606 39.2649 42.2552 39.2649ZM41.6198 44.441C41.6198 46.0689 40.2956 47.3931 38.6676 47.3931H22.3324C20.7044 47.3931 19.3802 46.0689 19.3802 44.441V40.5357H41.6198V44.441Z" fill="#23B53E"/>
<path d="M18.7448 28.0078H42.2552C42.606 28.0078 42.8906 27.7231 42.8906 27.3724V26.2998C42.8906 19.4678 37.332 13.9092 30.5 13.9092C23.668 13.9092 18.1094 19.4678 18.1094 26.2998V27.3724C18.1094 27.7231 18.394 28.0078 18.7448 28.0078ZM19.3802 26.2998C19.3802 20.168 24.3682 15.18 30.5 15.18C36.6318 15.18 41.6198 20.168 41.6198 26.2998V26.737H19.3802V26.2998Z" fill="#23B53E"/>
<path d="M42.2552 34.1549H23.3198C23.0656 33.5131 22.4416 33.0569 21.7109 33.0569H19.9495C19.5988 33.0569 19.3141 33.3416 19.3141 33.6923V34.1549H18.7448C18.394 34.1549 18.1094 34.4396 18.1094 34.7903C18.1094 35.1411 18.394 35.4257 18.7448 35.4257H19.3141V35.8896C19.3141 36.2403 19.5988 36.525 19.9495 36.525H21.7109C22.4429 36.525 23.0656 36.0688 23.3198 35.4257H42.2552C42.606 35.4257 42.8906 35.1411 42.8906 34.7903C42.8906 34.4396 42.606 34.1549 42.2552 34.1549ZM21.7096 35.2542H20.5837V34.3277H21.7096C21.9651 34.3277 22.1722 34.5361 22.1722 34.7903C22.1735 35.047 21.9651 35.2542 21.7096 35.2542Z" fill="#23B53E"/>
</svg>
