<svg width="35" height="35" viewBox="0 0 35 35" fill="none" xmlns="http://www.w3.org/2000/svg">
<g clip-path="url(#clip0_2102_34)">
<path d="M35 32.1759H2.82338V0H1.55162V32.1759H0V33.4491H1.55162V35H2.82338V33.4491H35V32.1759Z" fill="#FF0000"/>
<path d="M13.8549 16.1343C13.5031 16.1343 13.2183 16.4184 13.2183 16.7702V29.8952C13.2183 30.2469 13.5031 30.5318 13.8549 30.5318H16.7701C17.1219 30.5318 17.4067 30.2469 17.4067 29.8952V16.7702C17.4067 16.4184 17.1219 16.1343 16.7701 16.1343H13.8549Z" fill="#FF0000"/>
<path d="M6.5625 21.9668C6.21073 21.9668 5.92662 22.2523 5.92662 22.6034V29.8951C5.92662 30.2468 6.21073 30.5317 6.5625 30.5317H9.47987C9.83021 30.5317 10.1158 30.2468 10.1158 29.8951V22.6034C10.1158 22.2523 9.83021 21.9668 9.47987 21.9668H6.5625Z" fill="#FF0000"/>
<path d="M21.1459 21.9668C20.7948 21.9668 20.5099 22.2523 20.5099 22.6034V29.8951C20.5099 30.2468 20.7948 30.5317 21.1459 30.5317H24.0625C24.4143 30.5317 24.6991 30.2468 24.6991 29.8951V22.6034C24.6991 22.2523 24.4143 21.9668 24.0625 21.9668H21.1459Z" fill="#FF0000"/>
<path d="M28.4375 14.6758C28.0858 14.6758 27.8009 14.9606 27.8009 15.3124V29.895C27.8009 30.2468 28.0858 30.5316 28.4375 30.5316H31.3541C31.7052 30.5316 31.9901 30.2468 31.9901 29.895V15.3124C31.9901 14.9606 31.7052 14.6758 31.3541 14.6758H28.4375Z" fill="#FF0000"/>
<path d="M6.00494 20.7376C6.15021 20.7376 6.29547 20.6885 6.4151 20.5874L16.1748 12.3373L21.536 17.7113C21.655 17.8317 21.828 17.8836 21.9868 17.8979C22.1563 17.8971 22.3186 17.8302 22.4383 17.7099L31.3107 8.7605C31.5585 8.51127 31.5557 8.10753 31.3065 7.86044C31.0572 7.61264 30.6535 7.61335 30.4071 7.86399L21.9846 16.3591L16.6619 11.0242C16.4283 10.7892 16.0545 10.7735 15.801 10.9872L5.59337 19.6154C5.32419 19.8425 5.29144 20.2441 5.5186 20.5126C5.64393 20.6614 5.82408 20.7376 6.00494 20.7376Z" fill="#FF0000"/>
</g>
<defs>
<clipPath id="clip0_2102_34">
<rect width="35" height="35" fill="white"/>
</clipPath>
</defs>
</svg>
