<svg width="45" height="45" viewBox="0 0 45 45" fill="none" xmlns="http://www.w3.org/2000/svg">
<g clip-path="url(#clip0_3118_1310)">
<path d="M24.375 22.5H30L20.625 35.625V26.25H15L24.375 13.125V22.5ZM20.625 11.25H13.125V37.5H31.875V11.25H24.375V7.5H20.625V11.25ZM16.875 7.5V5.625C16.875 5.12772 17.0725 4.65081 17.4242 4.29917C17.7758 3.94754 18.2527 3.75 18.75 3.75H26.25C26.7473 3.75 27.2242 3.94754 27.5758 4.29917C27.9275 4.65081 28.125 5.12772 28.125 5.625V7.5H33.75C34.2473 7.5 34.7242 7.69754 35.0758 8.04918C35.4275 8.40081 35.625 8.87772 35.625 9.375V39.375C35.625 39.8723 35.4275 40.3492 35.0758 40.7008C34.7242 41.0525 34.2473 41.25 33.75 41.25H11.25C10.7527 41.25 10.2758 41.0525 9.92418 40.7008C9.57254 40.3492 9.375 39.8723 9.375 39.375V9.375C9.375 8.87772 9.57254 8.40081 9.92418 8.04918C10.2758 7.69754 10.7527 7.5 11.25 7.5H16.875Z" fill="#144C84"/>
</g>
<defs>
<clipPath id="clip0_3118_1310">
<rect width="45" height="45" fill="white"/>
</clipPath>
</defs>
</svg>
