<svg width="44" height="44" viewBox="0 0 44 44" fill="none" xmlns="http://www.w3.org/2000/svg">
<path d="M26.2273 13.2146C26.2792 13.0784 26.2973 12.9316 26.28 12.7869C26.2626 12.6422 26.2103 12.5039 26.1276 12.3839C26.0449 12.2639 25.9342 12.1658 25.8052 12.0981C25.6761 12.0303 25.5325 11.995 25.3868 11.9951H19.543C19.337 11.9953 19.1372 12.0661 18.9771 12.1958C18.817 12.3254 18.7061 12.506 18.663 12.7075L16.1391 24.591C16.1112 24.7218 16.1129 24.8571 16.1439 24.9872C16.175 25.1173 16.2347 25.2388 16.3187 25.3428C16.4027 25.4469 16.5088 25.5309 16.6294 25.5888C16.7499 25.6466 16.8819 25.6768 17.0156 25.6772H20.8313C20.9638 25.6772 21.0948 25.7065 21.2147 25.7631C21.3346 25.8196 21.4406 25.9019 21.525 26.0041C21.6094 26.1063 21.6702 26.226 21.703 26.3544C21.7358 26.4829 21.7398 26.617 21.7147 26.7471L20.7694 31.6456C20.5975 32.5402 21.8084 32.9896 22.2613 32.1999L28.2734 21.7241C28.3519 21.5873 28.3931 21.4323 28.3927 21.2745C28.3924 21.1168 28.3507 20.962 28.2716 20.8255C28.1926 20.689 28.0791 20.5757 27.9424 20.4969C27.8058 20.4181 27.6508 20.3766 27.4931 20.3766H24.8102C24.6644 20.3766 24.5208 20.3413 24.3918 20.2736C24.2627 20.2058 24.152 20.1078 24.0693 19.9878C23.9865 19.8678 23.9341 19.7296 23.9166 19.5849C23.8991 19.4402 23.917 19.2934 23.9688 19.1571L26.2273 13.2146Z" fill="#FF0000"/>
<path d="M34.7316 34.7344C37.1667 32.2465 38.8334 29.1096 39.5321 25.6992C40.2309 22.2888 39.9323 18.7493 38.6719 15.5041C35.0539 6.20571 24.5446 1.58399 15.2453 5.20282L15.8065 6.64485C24.3143 3.3354 33.9212 7.56095 37.2307 16.0653C38.3834 19.034 38.656 22.272 38.0159 25.3916C37.3757 28.5112 35.85 31.3802 33.6213 33.655L32.5213 32.5834C32.4055 32.4704 32.2588 32.3944 32.0998 32.3648C31.9408 32.3353 31.7766 32.3536 31.6279 32.4175C31.4793 32.4814 31.353 32.5879 31.265 32.7236C31.177 32.8593 31.1312 33.018 31.1334 33.1798L31.1747 36.0922C31.1778 36.3085 31.2666 36.5147 31.4216 36.6657C31.5766 36.8166 31.7851 36.9 32.0014 36.8974L34.9138 36.8631C35.0755 36.8611 35.2329 36.8112 35.3662 36.7197C35.4995 36.6282 35.6027 36.4992 35.6627 36.3491C35.7227 36.1989 35.7368 36.0344 35.7032 35.8762C35.6696 35.718 35.5899 35.5734 35.4741 35.4606L34.7316 34.7344Z" fill="#FF0000"/>
<path d="M15.6277 37.0392C13.1763 35.9632 11.0228 34.308 9.35213 32.216C7.68151 30.124 6.54374 27.6577 6.03659 25.0289C5.52944 22.4002 5.66806 19.6876 6.44055 17.1243C7.21303 14.561 8.59629 12.2235 10.4715 10.3127L11.446 11.258C11.5618 11.3709 11.7085 11.447 11.8675 11.4765C12.0265 11.5061 12.1908 11.4877 12.3394 11.4239C12.488 11.36 12.6143 11.2535 12.7023 11.1178C12.7904 10.9821 12.8361 10.8233 12.8339 10.6616L12.7926 7.74916C12.7913 7.64198 12.7688 7.53613 12.7265 7.43764C12.6843 7.33915 12.623 7.24996 12.5462 7.17517C12.4694 7.10039 12.3786 7.04147 12.2791 7.00179C12.1795 6.96211 12.0731 6.94245 11.9659 6.94393L9.0535 6.9783C8.89053 6.97874 8.73141 7.0279 8.59659 7.11946C8.46176 7.21102 8.35739 7.34079 8.29688 7.49212C8.23637 7.64344 8.22249 7.8094 8.25701 7.96867C8.29153 8.12795 8.37288 8.27326 8.49061 8.38596L9.36116 9.23416C6.46116 12.188 4.66174 16.0469 4.26313 20.1671C3.86451 24.2873 4.8908 28.4196 7.17077 31.8745C9.45074 35.3294 12.8465 37.8981 16.7915 39.1519C20.7365 40.4057 24.9921 40.2688 28.8483 38.764L28.288 37.3228C26.2638 38.1149 24.1026 38.4977 21.9295 38.449C19.7563 38.4004 17.6144 37.9212 15.6277 37.0392Z" fill="#FF0000"/>
</svg>
