<svg width="30" height="31" viewBox="0 0 30 31" fill="none" xmlns="http://www.w3.org/2000/svg">
<path d="M18.7328 8.44022C18.7746 8.33063 18.7892 8.21251 18.7752 8.09604C18.7612 7.97957 18.7191 7.86824 18.6526 7.77166C18.586 7.67507 18.497 7.59612 18.3931 7.54161C18.2892 7.48709 18.1737 7.45865 18.0563 7.45874H13.353C13.1872 7.45888 13.0264 7.51587 12.8975 7.62022C12.7686 7.72457 12.6794 7.86996 12.6447 8.03213L10.6133 17.5965C10.5909 17.7018 10.5922 17.8107 10.6172 17.9154C10.6422 18.0201 10.6903 18.1179 10.7579 18.2017C10.8255 18.2854 10.9109 18.353 11.0079 18.3996C11.105 18.4462 11.2112 18.4705 11.3188 18.4708H14.3898C14.4965 18.4708 14.6019 18.4944 14.6984 18.5399C14.7949 18.5854 14.8802 18.6516 14.9482 18.7339C15.0161 18.8162 15.065 18.9124 15.0914 19.0158C15.1178 19.1192 15.121 19.2271 15.1008 19.3319L14.34 23.2744C14.2017 23.9945 15.1762 24.3562 15.5407 23.7206L20.3797 15.2891C20.4428 15.179 20.4759 15.0542 20.4757 14.9273C20.4754 14.8004 20.4418 14.6757 20.3782 14.5659C20.3146 14.456 20.2232 14.3648 20.1132 14.3014C20.0033 14.238 19.8786 14.2046 19.7516 14.2046H17.5922C17.4749 14.2046 17.3594 14.1762 17.2555 14.1216C17.1516 14.0671 17.0626 13.9882 16.9959 13.8917C16.9293 13.7951 16.8872 13.6838 16.8731 13.5674C16.859 13.4509 16.8734 13.3328 16.9151 13.2231L18.7328 8.44022Z" fill="white"/>
<path d="M9.85767 1.89844C17.3936 -1.03402 25.9101 2.71183 28.842 10.2471C29.8634 12.8768 30.1056 15.7452 29.5393 18.5088C28.9797 21.2397 27.6523 23.7524 25.717 25.7568L26.2454 26.2734H26.2444C26.3517 26.3781 26.4262 26.5125 26.4573 26.6592C26.4883 26.8057 26.4748 26.9586 26.4192 27.0977C26.3636 27.2366 26.2681 27.3557 26.1448 27.4404C26.0212 27.5253 25.8748 27.5724 25.7249 27.5742L23.3811 27.6016C23.1807 27.6039 22.9876 27.5265 22.844 27.3867C22.7003 27.2468 22.6174 27.0551 22.6145 26.8545L22.5813 24.5107C22.5792 24.3608 22.6218 24.2137 22.7034 24.0879C22.785 23.9621 22.9025 23.8629 23.0403 23.8037C23.178 23.7446 23.3305 23.7275 23.4778 23.7549C23.6251 23.7823 23.7611 23.8533 23.8684 23.958L24.6799 24.749C26.4226 22.9434 27.6176 20.6802 28.1223 18.2207C28.6336 15.7289 28.416 13.1428 27.4954 10.7715L27.3684 10.4551C24.6129 3.8737 17.0719 0.64396 10.3821 3.24609L10.2883 3.28223L10.2522 3.18848L9.80103 2.02832L9.76392 1.93555L9.85767 1.89844Z" fill="white" stroke="white" stroke-width="0.2"/>
<path d="M7.25391 3.2937C7.35308 3.29242 7.45181 3.31069 7.54395 3.34741C7.636 3.38415 7.71997 3.43846 7.79102 3.50757C7.86223 3.57693 7.91976 3.66036 7.95898 3.75171C7.99802 3.84279 8.01823 3.94071 8.01953 4.03979L8.05273 6.38452C8.05475 6.53434 8.01318 6.68167 7.93164 6.80737C7.85005 6.93314 7.73244 7.03135 7.59473 7.09058C7.45694 7.14979 7.30468 7.16678 7.15723 7.1394C7.04661 7.11887 6.94203 7.07484 6.85156 7.00952L6.7666 6.93726L6.05371 6.24585C4.59103 7.75892 3.51082 9.60008 2.90332 11.616C2.28626 13.6636 2.17496 15.8306 2.58008 17.9304C2.98521 20.0302 3.89502 22.0006 5.22949 23.6716C6.56394 25.3425 8.28416 26.6647 10.2422 27.5242L10.541 27.6521C12.0431 28.2749 13.6489 28.6137 15.2764 28.6501C17.0121 28.689 18.7387 28.3834 20.3555 27.7507L20.4482 27.7146L20.4844 27.8074L20.9355 28.9675L20.9717 29.0603L20.8789 29.0974C17.7539 30.3168 14.3053 30.4269 11.1084 29.4109C7.91147 28.3948 5.15916 26.3132 3.31152 23.5134C1.46407 20.7137 0.632063 17.3649 0.955078 14.0261C1.27492 10.7208 2.70883 7.62414 5.01758 5.23999L4.3877 4.62573V4.62476C4.27911 4.52041 4.20378 4.38621 4.17188 4.23901C4.13994 4.09143 4.15293 3.93782 4.20898 3.79761C4.26506 3.65737 4.36141 3.53679 4.48633 3.4519C4.61104 3.36721 4.75845 3.32265 4.90918 3.32202L7.25293 3.29468L7.25391 3.2937Z" fill="white" stroke="white" stroke-width="0.2"/>
</svg>
