<svg width="56" height="54" viewBox="0 0 56 54" fill="none" xmlns="http://www.w3.org/2000/svg">
<path d="M48.5712 35.8735C49.0702 33.7433 49.8617 31.6642 50.8768 29.7214C51.3069 29.6362 51.1693 29.7725 51.2897 29.96C51.6338 30.4883 52.821 33.3002 53.3544 33.198C53.5092 33.1639 53.7329 32.8742 53.7845 32.7037C54.163 29.7384 55.2641 26.6197 55.591 23.6715C55.6426 23.2114 55.6427 22.8364 55.505 22.3933H48.0034L47.0744 23.8589L46.0593 26.2448V21.5583C46.0593 21.4219 46.9883 20.0927 47.1776 19.9052C47.883 19.1894 48.9326 18.8997 49.5864 18.0647C50.2918 17.1615 50.8595 14.9119 50.4982 13.8724C50.3606 13.4804 49.7928 13.6849 49.7756 13.4804C49.7584 13.2248 49.9649 12.7646 49.9821 12.3897C50.0165 11.6058 50.3434 9.1006 49.053 9.90157C49.0358 9.86749 48.7261 10.0549 48.6745 9.64594C48.5368 8.62342 48.9153 3.71533 48.6745 3.32337C48.6056 3.22112 48.0379 3.01661 47.8659 3.28928C47.5562 3.7835 47.9519 5.60699 47.7799 6.28867C47.7454 6.44205 45.5948 7.58386 45.7324 8.43596L44.6312 7.05556C44.4764 6.81697 43.5129 6.49318 43.5129 6.32276V3.39154C43.5129 3.0507 42.5838 3.0507 42.5838 3.39154V10.0038C40.8461 9.04947 40.9837 10.6685 41.1213 11.9977C41.1729 12.4408 41.5171 13.1055 41.4826 13.4804C41.4654 13.6849 40.8977 13.4804 40.76 13.8724C40.502 14.6052 40.8116 16.5479 41.1557 17.2978C41.2418 17.5023 41.4482 17.5534 41.4826 17.6045C41.7235 17.9965 41.6891 18.1328 42.1192 18.5248C43.0999 19.428 44.7516 20.1438 45.0957 21.6264C45.4398 23.058 45.3022 28.4944 45.1646 30.1645C45.027 32.005 44.4763 34.1353 44.2355 36.044C44.029 37.7141 43.9774 39.4183 43.857 41.0884L40.8977 40.9009V23.6544C39.246 15.3039 28.6819 11.5887 21.9202 16.8717C21.3696 17.3148 20.9567 17.9624 20.3373 18.3373C20.0965 16.7184 20.234 15.0994 20.148 13.4804C20.0792 12.2193 20.0448 10.907 19.9588 9.6289C19.9416 9.21989 19.7352 7.15781 19.4943 7.15781H15.3305L14.4015 32.2947C13.7305 32.1584 12.1475 32.6697 11.9927 31.8346C12.0959 30.8973 11.8379 30.0111 11.8035 29.0738C11.6142 23.7737 11.8378 18.2692 11.4593 12.918C11.4249 12.3386 11.3218 11.4183 10.9949 10.9923H6.83109L5.90204 32.2777H1.17058C1.01573 32.2777 0.843704 32.7208 0.878114 32.9082C1.10178 39.316 0.620035 45.8942 0.878114 52.285C0.878114 52.6088 0.878089 52.9155 1.06735 53.2052H54.7995C55.0404 52.8985 54.9545 52.6599 54.8684 52.3361C54.1974 50.0354 50.1197 44.8206 48.2271 43.2868C48.0206 43.1164 47.5733 43.1675 47.5733 43.0141C47.5733 42.6903 47.883 41.9746 47.9346 41.5315C48.1411 39.6228 48.1928 37.7311 48.6229 35.8735H48.5712ZM54.5759 23.2966L52.993 31.187L49.0014 23.2966H54.5759ZM43.4613 7.5157C44.5452 7.75428 44.7516 9.04947 45.1129 9.81636C45.9732 11.6058 46.4722 7.32823 47.711 7.5157C47.6938 8.40188 47.7798 9.78228 47.3841 10.5833C47.1432 11.0604 45.7668 11.8444 45.5775 12.6453C44.6656 11.3161 43.685 10.9582 43.4613 9.23693C43.3925 8.67455 43.4613 8.07808 43.4441 7.5157H43.4613ZM41.9816 10.8218C43.0827 11.0604 43.9258 11.8955 44.5452 12.7817C44.8033 13.1395 44.9237 13.6849 45.1646 14.0087C45.9044 14.9801 46.1109 13.5486 46.4033 13.0884C47.0916 11.9807 47.797 11.3331 49.0358 10.8218C49.0702 11.299 49.1218 12.0148 49.0358 12.5431C48.6229 14.5199 46.5411 14.7926 45.6292 16.4968C45.2335 16.1219 45.0097 15.6788 44.614 15.3039C44.2355 14.946 43.3925 14.537 43.1344 14.2984C42.2053 13.4463 41.9816 12.0148 42.016 10.8048L41.9816 10.8218ZM44.5452 19.1894C43.8054 18.4737 42.4462 17.9624 41.9644 17.0592C41.6203 16.4116 41.5515 15.4061 41.6031 14.6733C42.0332 14.6222 42.3602 14.8608 42.7215 15.0312C43.2548 15.3039 44.029 15.9344 44.3903 16.4116C44.6484 16.7524 45.199 18.0988 45.4055 18.1499C45.8356 18.2521 46.4205 16.8717 46.713 16.5139C47.4356 15.6447 48.3992 14.7585 49.5692 14.6563C50.0853 17.9454 46.7475 18.1328 45.6807 20.5187C45.5603 20.6039 44.7345 19.3428 44.5452 19.1554V19.1894ZM23.4687 16.974C29.525 13.327 39.1083 16.582 39.9341 23.8419C39.9857 24.3532 40.089 26.6027 39.6244 26.7561C36.5103 26.8072 33.3961 26.7902 30.2992 26.7902C27.3571 26.7902 24.415 26.722 21.5073 26.7902C20.5438 26.8072 19.5803 26.7561 18.634 26.7902V23.0239C18.634 21.3367 22.0063 17.8602 23.4687 16.991V16.974ZM27.5291 30.8121C27.5291 30.6928 27.5291 30.5735 27.5291 30.4372C27.4775 29.5339 27.5636 28.5966 27.5291 27.6764C28.441 27.7104 29.3873 27.6252 30.3164 27.6764C30.5573 27.6764 30.8153 27.6764 31.0562 27.6764V30.795H27.5291V30.8121ZM31.0562 31.7323V35.5838H27.5291V31.7323H31.0562ZM16.036 8.06104H18.8233L19.3738 19.1724C19.2534 20.1438 17.7049 22.0525 17.7049 22.8364V32.2947H15.2962L16.036 8.07808V8.06104ZM7.51935 11.9125H10.3066L11.0464 32.2777H6.77953L7.51935 11.9125ZM1.77272 52.285V33.198H17.7049C17.7049 36.078 17.7049 38.9581 17.7049 41.8212C17.7049 45.2978 17.7049 48.7914 17.7049 52.285C12.3884 52.285 7.07196 52.285 1.77272 52.285ZM18.634 52.285C18.634 48.7402 18.634 45.1785 18.634 41.6337C18.634 36.9813 18.634 32.3288 18.634 27.6934H26.6C26.6 28.6137 26.6 29.5339 26.6 30.4542C26.6344 35.1067 26.5656 39.7591 26.6 44.3945C26.8409 44.4627 27.5291 44.3604 27.5291 44.1219V36.5041H31.0562V44.1219C31.0562 44.4627 31.9853 44.4627 31.9853 44.1219V27.6934H39.9513V40.9009C33.8262 41.327 29.7314 47.2576 27.357 52.285H18.634ZM28.4582 52.285C31.3315 46.1499 36.2694 40.1681 43.9602 42.162C48.4164 43.3209 51.8059 48.3824 53.664 52.285H28.4582ZM46.7991 42.3836L44.7517 41.344C44.9582 37.2199 45.4055 33.0616 46.369 29.0227C46.455 28.6648 47.797 23.5011 48.2788 23.8589C48.4336 24.9496 50.5842 27.8468 50.4982 28.7159C50.481 28.9375 49.225 30.8973 48.9841 31.4426C47.5217 34.834 47.2293 38.7536 46.7991 42.4006V42.3836Z" fill="#B8912F"/>
<path d="M13.9025 9.16858C14.9004 8.96408 14.0056 5.02738 14.453 4.37979C14.8831 3.74924 17.8597 5.07851 18.3759 2.93122C18.6511 1.78941 17.894 1.02252 19.2877 0.903225C22.6771 0.579427 26.5656 1.12477 30.0067 0.920267C30.454 1.07364 30.1959 2.52221 31.1422 3.10164C32.1057 3.69811 33.0692 3.27206 33.8951 3.45952C34.1704 3.52769 34.2564 4.29458 34.1188 4.56725C33.6198 5.57273 29.0431 4.17528 28.114 5.58977C27.8559 5.99878 27.9248 6.93608 27.4086 7.1065C26.1871 7.51551 22.8321 6.85087 21.318 7.14059C20.7674 7.24284 20.8362 7.56664 20.8534 8.06085H27.6151C28.5098 8.06085 28.8366 6.11807 29.1807 5.94765C30.626 5.23189 35.8909 7.25988 35.0306 3.64698C34.566 1.67011 32.2433 2.7608 31.5723 2.30067C31.297 2.11321 31.211 0.221546 30.2819 0H18.4274C16.9822 0.460133 17.5672 2.64151 17.2919 3.10164C17.0682 3.45952 15.0208 3.22093 14.4874 3.35727C14.2294 3.4084 13.4379 3.98782 13.4379 4.1412V8.91295C13.4379 8.91295 13.7477 9.25379 13.9025 9.18563V9.16858Z" fill="#B8912F"/>
<path d="M5.85047 14.2984C6.16016 13.0884 4.81818 13.6167 4.59451 12.8839C4.47407 12.4578 4.4741 9.86747 4.73218 9.61184C5.29996 9.04945 6.98608 9.56071 7.84634 9.20283C9.17115 8.64044 8.31088 6.64653 8.80984 6.30569C9.29159 5.96485 12.3713 6.5102 12.681 6.01598C12.7499 5.89669 12.7499 5.43655 12.681 5.3343C12.4402 4.94233 9.17114 5.09571 8.58616 5.35134C7.27855 5.93077 7.96674 7.36229 7.48499 8.40186C6.34944 8.52115 4.30205 8.06102 3.76869 9.39029C3.54502 9.95267 3.52778 12.4238 3.63102 13.0884C3.80307 14.2132 4.85256 14.4006 5.85047 14.2984Z" fill="#B8912F"/>
<path d="M46.0593 6.13479V2.09584C46.0593 1.755 45.1301 1.755 45.1301 2.09584V6.40746C45.371 6.47563 46.0593 6.37338 46.0593 6.13479Z" fill="#B8912F"/>
<path d="M11.7861 40.9178C11.5625 40.6962 12.6809 36.7766 12.7153 36.0438C12.7325 35.6348 12.8013 35.0724 12.2507 35.0383C11.4937 35.9756 6.12562 42.7072 6.22885 43.2014C6.33208 43.6786 8.01817 43.4229 8.4483 43.4741C8.24184 44.1728 7.10635 48.9445 7.33002 49.1661C7.38163 49.2172 7.91499 49.1661 8.06983 49.0638L13.782 41.5142C14.0401 40.594 12.3883 40.9689 11.7689 40.9007L11.7861 40.9178ZM8.82687 46.4223C8.74085 45.5191 9.61831 43.6445 9.36023 42.8776C9.17097 42.2982 8.12141 42.7413 7.70848 42.4856L11.1323 37.9866C11.4764 38.6853 10.3925 41.1734 10.685 41.6335L12.3367 41.9233L8.82687 46.4223Z" fill="#B8912F"/>
<path d="M40.5018 48.6207C40.6738 48.723 43.9085 48.6207 44.4934 48.6207C44.8375 48.6207 44.8375 47.7005 44.4934 47.7005H40.605C40.2437 47.7005 40.4158 48.5526 40.519 48.6207H40.5018Z" fill="#B8912F"/>
<path d="M41.7064 45.3148H37.7148C37.6459 45.5534 37.7492 46.2351 37.9901 46.2351H41.6892C42.0333 46.2351 42.0333 45.3148 41.6892 45.3148H41.7064Z" fill="#B8912F"/>
</svg>
