<svg width="57" height="52" viewBox="0 0 57 52" fill="none" xmlns="http://www.w3.org/2000/svg">
<path fill-rule="evenodd" clip-rule="evenodd" d="M24.59 0L49.2014 13V28.8772H43.0541V18.7754L27.6747 27.1131V43.7254L30.7591 42.1082L31.4109 43.3263L32.2581 44.9645L33.8438 47.1276L24.6117 52L0 39V13.021L24.6117 0.0210221L24.59 0ZM6.12588 18.9434V35.6187L21.5053 43.7463V27.3021L6.12588 18.9644V18.9434ZM24.59 6.63652L9.9708 14.3441L24.4595 22.1987L39.079 14.2811L24.59 6.63652ZM48.8541 30.3053V38.1809H57V43.4313H48.8541V51.3069H43.4235V43.4313H35.2775V38.1809H43.4235V30.3053H48.8541Z" fill="white"/>
</svg>
