<svg width="54" height="52" viewBox="0 0 54 52" fill="none" xmlns="http://www.w3.org/2000/svg">
<path fill-rule="evenodd" clip-rule="evenodd" d="M35.0913 28.5905V31.2H37.7981V36.4H35.0913V52H32.3848V36.4H29.678V31.2H32.3848V28.5905H35.0913ZM43.1923 28.5905V41.6H45.899V46.8H43.1923V52H40.4857V46.8H37.779V41.6H40.4857V28.5905H43.1923ZM51.2932 28.5905V33.7905H54V38.9905H51.2932V52H48.5867V38.9905H45.88V33.7905H48.5867V28.5905H51.2932ZM21.5771 0L43.1732 11.7047V26H37.779V16.9047L24.2838 24.4116V39.3687L26.9903 37.9127V39.0095H29.6971V42.4131L21.5961 46.8L0 35.0953V11.7047L21.5961 0H21.5771ZM5.37513 17.056V32.0698L18.8703 39.3876V24.5818L5.37513 17.0749V17.056ZM21.5771 5.97528L8.74898 12.9149L21.4628 19.9869L34.2909 12.8582L21.5771 5.97528Z" fill="white"/>
</svg>
