<svg width="35" height="34" viewBox="0 0 35 34" fill="none" xmlns="http://www.w3.org/2000/svg">
<path fill-rule="evenodd" clip-rule="evenodd" d="M22.4865 18.346V20.0204H24.221V23.3572H22.4865V33.3674H20.7522V23.3572H19.0177V20.0204H20.7522V18.346H22.4865ZM27.6776 18.346V26.6939H29.4121V30.0306H27.6776V33.3674H25.9433V30.0306H24.2088V26.6939H25.9433V18.346H27.6776ZM32.8687 18.346V21.6827H34.6032V25.0195H32.8687V33.3674H31.1344V25.0195H29.3999V21.6827H31.1344V18.346H32.8687ZM13.8266 0L27.6654 7.5107V16.6837H24.2088V10.8474L15.5611 15.6645V25.2621L17.2954 24.3278V25.0316H19.0299V27.2156L13.8388 30.0306L0 22.5199V7.5107L13.8388 0H13.8266ZM3.44438 10.9445V20.5786L12.0921 25.2743V15.7737L3.44438 10.9566V10.9445ZM13.8266 3.83422L5.60635 8.28723L13.7534 12.8252L21.9736 8.25083L13.8266 3.83422Z" fill="white"/>
</svg>
