<svg width="56" height="56" viewBox="0 0 56 56" fill="none" xmlns="http://www.w3.org/2000/svg">
<g clip-path="url(#clip0_3390_162)">
<path d="M54.25 52.4998H50.75V47.2498C50.75 46.7857 50.5656 46.3406 50.2374 46.0124C49.9092 45.6842 49.4641 45.4998 49 45.4998V34.9998C49.4641 34.9998 49.9092 34.8155 50.2374 34.4873C50.5656 34.1591 50.75 33.714 50.75 33.2498V27.9998H54.25C54.7141 27.9998 55.1592 27.8155 55.4874 27.4873C55.8156 27.1591 56 26.714 56 26.2498C56 25.7857 55.8156 25.3406 55.4874 25.0124C55.1592 24.6842 54.7141 24.4998 54.25 24.4998H53.2175L29.2425 0.507332C29.0798 0.343307 28.8863 0.213117 28.673 0.124272C28.4598 0.035427 28.231 -0.0103149 28 -0.0103149C27.769 -0.0103149 27.5402 0.035427 27.327 0.124272C27.1137 0.213117 26.9202 0.343307 26.7575 0.507332L2.7825 24.4998H1.75C1.28587 24.4998 0.840752 24.6842 0.512563 25.0124C0.184374 25.3406 0 25.7857 0 26.2498C0 26.714 0.184374 27.1591 0.512563 27.4873C0.840752 27.8155 1.28587 27.9998 1.75 27.9998H5.25V33.2498C5.25 33.714 5.43437 34.1591 5.76256 34.4873C6.09075 34.8155 6.53587 34.9998 7 34.9998V45.4998C6.53587 45.4998 6.09075 45.6842 5.76256 46.0124C5.43437 46.3406 5.25 46.7857 5.25 47.2498V52.4998H1.75C1.28587 52.4998 0.840752 52.6842 0.512563 53.0124C0.184374 53.3406 0 53.7857 0 54.2498C0 54.714 0.184374 55.1591 0.512563 55.4873C0.840752 55.8155 1.28587 55.9998 1.75 55.9998H54.25C54.7141 55.9998 55.1592 55.8155 55.4874 55.4873C55.8156 55.1591 56 54.714 56 54.2498C56 53.7857 55.8156 53.3406 55.4874 53.0124C55.1592 52.6842 54.7141 52.4998 54.25 52.4998ZM45.5 45.4998H38.5V34.9998H45.5V45.4998ZM33.25 47.2498V52.4998H22.75V47.2498C22.75 46.7857 22.5656 46.3406 22.2374 46.0124C21.9092 45.6842 21.4641 45.4998 21 45.4998V34.9998C21.4641 34.9998 21.9092 34.8155 22.2374 34.4873C22.5656 34.1591 22.75 33.714 22.75 33.2498V27.9998H33.25V33.2498C33.25 33.714 33.4344 34.1591 33.7626 34.4873C34.0908 34.8155 34.5359 34.9998 35 34.9998V45.4998C34.5359 45.4998 34.0908 45.6842 33.7626 46.0124C33.4344 46.3406 33.25 46.7857 33.25 47.2498ZM47.25 31.4998H36.75V27.9998H47.25V31.4998ZM28 4.21733L48.2825 24.4998H7.7175L28 4.21733ZM19.25 27.9998V31.4998H8.75V27.9998H19.25ZM10.5 34.9998H17.5V45.4998H10.5V34.9998ZM8.75 52.4998V48.9998H19.25V52.4998H8.75ZM36.75 52.4998V48.9998H47.25V52.4998H36.75Z" fill="#FF0000"/>
<path d="M28 21C29.0384 21 30.0534 20.6921 30.9167 20.1152C31.7801 19.5383 32.453 18.7184 32.8504 17.7591C33.2477 16.7998 33.3517 15.7442 33.1491 14.7258C32.9466 13.7074 32.4465 12.7719 31.7123 12.0377C30.9781 11.3035 30.0426 10.8035 29.0242 10.6009C28.0058 10.3983 26.9502 10.5023 25.9909 10.8996C25.0316 11.297 24.2117 11.9699 23.6348 12.8333C23.0579 13.6966 22.75 14.7117 22.75 15.75C22.75 17.1424 23.3031 18.4777 24.2877 19.4623C25.2723 20.4469 26.6076 21 28 21ZM28 14C28.3461 14 28.6845 14.1026 28.9722 14.2949C29.26 14.4872 29.4843 14.7605 29.6168 15.0803C29.7492 15.4001 29.7839 15.7519 29.7164 16.0914C29.6489 16.4309 29.4822 16.7427 29.2374 16.9874C28.9927 17.2322 28.6809 17.3989 28.3414 17.4664C28.0019 17.5339 27.6501 17.4992 27.3303 17.3668C27.0105 17.2343 26.7372 17.01 26.5449 16.7223C26.3526 16.4345 26.25 16.0961 26.25 15.75C26.25 15.2859 26.4344 14.8408 26.7626 14.5126C27.0908 14.1844 27.5359 14 28 14Z" fill="#FF0000"/>
</g>
<defs>
<clipPath id="clip0_3390_162">
<rect width="56" height="56" fill="white"/>
</clipPath>
</defs>
</svg>
