<svg xmlns="http://www.w3.org/2000/svg" width="1039" height="209" viewBox="0 0 1039 209" fill="none">
<path d="M488.522 4.26838C529.163 3.14459 569.804 2.35973 610.47 1.78892C651.11 1.20027 691.776 0.754321 732.417 0.486753C752.75 0.308375 773.058 0.219185 793.391 0.165672C813.724 0.129996 834.032 -0.0305376 854.365 0.00513805C895.006 0.00513805 935.672 0.308375 976.313 0.932699L980.042 0.98621L981.352 3.28729L1009.87 53.3224L1024.11 78.3489C1028.82 86.697 1033.73 94.9915 1038.55 103.304L1039 104.071L1038.55 104.785C1033.38 113.008 1028.34 121.249 1023.33 129.508C1018.31 137.767 1013.2 146.008 1008.31 154.284L993.471 179.133L978.832 204.034L978.152 205.194H976.313L854.365 206.603C813.724 207.138 773.058 207.673 732.417 207.923L610.47 208.583C569.829 208.779 529.188 209.047 488.522 208.993C407.215 209.047 325.933 208.529 244.626 207.727C203.985 207.37 163.319 206.728 122.678 206.139L92.1915 205.693L61.7046 205.104C41.3715 204.712 21.0637 204.337 0.730676 203.802C0.302347 203.802 0 203.535 0 203.249C0 202.964 0.327543 202.75 0.730676 202.732C21.0637 202.197 41.3715 201.822 61.7046 201.43L92.1915 200.841L122.678 200.395C163.319 199.824 203.985 199.164 244.626 198.808C325.908 198.023 407.215 197.488 488.522 197.541C529.163 197.488 569.804 197.773 610.47 197.951L732.417 198.611C773.058 198.843 813.724 199.396 854.365 199.931L976.313 201.323L973.793 202.5L989.037 177.777L1004.08 153C1009.14 144.759 1013.98 136.447 1018.94 128.17C1023.88 119.893 1028.82 111.599 1033.61 103.286V104.767C1028.47 96.5434 1023.43 88.2845 1018.16 80.1148L1002.52 55.5164L971.274 6.30189L976.313 8.65648C935.672 9.2808 895.006 9.60188 854.365 9.58404C834.032 9.63755 813.724 9.47702 793.391 9.42351C773.058 9.36999 752.75 9.2808 732.417 9.10242C691.776 8.83486 651.11 8.40674 610.47 7.80026C569.829 7.22945 529.163 6.44458 488.522 5.3208C488.093 5.3208 487.791 5.05324 487.791 4.76783C487.791 4.48243 488.119 4.26837 488.522 4.25053V4.26838Z" fill="#23B53E"/>
</svg>