<svg width="1044" height="209" viewBox="0 0 1044 209" fill="none" xmlns="http://www.w3.org/2000/svg">
<path d="M1043.27 204.168C962.021 206.781 880.797 207.747 799.548 208.248C758.936 208.427 718.299 208.642 677.687 208.159C637.075 207.658 596.464 206.888 555.826 206.226C515.215 205.439 474.577 205.224 433.966 205.296C413.647 205.296 393.354 205.457 373.035 205.636L312.105 206.441C271.493 207.014 230.856 207.765 190.244 208.159C149.632 208.553 108.995 208.714 68.3831 208.964L63.4986 209L46.2517 180.922C41.191 172.654 36.0547 164.405 31.1198 156.101L16.1642 131.227C11.1538 122.941 6.21893 114.638 1.33443 106.298L0 104.026L1.33443 101.86C11.4811 85.3251 21.4767 68.7361 31.7493 52.2545C42.0219 35.7549 52.1937 19.2196 62.5922 2.77378L64.3546 0L119.519 0.73371L170.656 1.59269C187.701 1.89691 204.746 2.25482 221.792 2.66641C238.837 3.06011 255.883 3.43591 272.928 3.97277C273.356 3.97277 273.658 4.2412 273.658 4.52753C273.658 4.81385 273.331 5.0286 272.928 5.04649C255.883 5.58335 238.837 5.95916 221.792 6.35286C204.746 6.78234 187.701 7.14025 170.656 7.42658L119.519 8.28555L68.3831 8.96558L74.1488 6.24548C64.6567 22.9777 54.9129 39.6382 45.2698 56.3167C35.6518 73.0131 25.7318 89.62 15.9628 106.263V101.825C21.0487 110.092 26.0591 118.378 30.9939 126.681L45.8992 151.574C50.9096 159.859 55.7186 168.199 60.6283 176.52L75.2818 201.502L68.3831 198.263C108.995 198.513 149.632 198.692 190.244 199.068C230.856 199.462 271.493 200.213 312.105 200.786L373.035 201.591C393.354 201.77 413.647 201.913 433.966 201.931C474.577 202.003 515.215 201.788 555.826 201.001C596.438 200.339 637.05 199.569 677.687 199.068C718.299 198.567 758.936 198.8 799.548 198.979C880.797 199.462 962.021 200.428 1043.27 203.059C1043.7 203.059 1044 203.327 1044 203.613C1044 203.9 1043.67 204.115 1043.27 204.132V204.168Z" fill="#23B53E"/>
</svg>
