<svg width="28" height="28" viewBox="0 0 28 28" fill="none" xmlns="http://www.w3.org/2000/svg">
<g clip-path="url(#clip0_3390_120)">
<path d="M5.59961 0V1.4H23.7996V22.4H25.1996V0H5.59961Z" fill="#23B53E"/>
<path d="M16.8004 7H8.40039V8.4H16.8004V7Z" fill="#23B53E"/>
<path d="M19.5996 9.80005H5.59961V11.2H19.5996V9.80005Z" fill="#23B53E"/>
<path d="M15.3996 12.6H5.59961V14H15.3996V12.6Z" fill="#23B53E"/>
<path d="M20.9998 2.80005H4.1998H2.7998V4.20005V23.8001V25.2H4.1998H12.5998V26.6C12.5998 27.0854 12.8509 27.5357 13.2639 27.791C13.4883 27.93 13.7441 28 13.9998 28C14.2135 28 14.4282 27.951 14.6256 27.8521L15.3998 27.4653L16.1735 27.8521C16.3714 27.951 16.5856 28 16.7998 28C17.056 28 17.3113 27.93 17.5357 27.791C17.9487 27.5357 18.1998 27.0854 18.1998 26.6V25.2H20.9998H22.3998V23.8001V4.20005V2.80005H20.9998ZM16.7998 26.6L15.3998 25.9L13.9998 26.6V24.942C14.4399 25.0988 14.9065 25.2 15.3998 25.2C15.8931 25.2 16.3597 25.0988 16.7998 24.942V26.6ZM15.3998 23.8001C13.8533 23.8001 12.5998 22.5466 12.5998 21C12.5998 19.4535 13.8533 18.2 15.3998 18.2C16.9463 18.2 18.1998 19.4535 18.1998 21C18.1998 22.5466 16.9463 23.8001 15.3998 23.8001ZM20.9998 23.8001H18.5073C19.1788 23.0553 19.5998 22.0795 19.5998 21C19.5998 18.684 17.7159 16.8 15.3998 16.8C13.0837 16.8 11.1998 18.684 11.1998 21C11.1998 22.0795 11.6207 23.0553 12.2923 23.8001H4.1998V4.20005H20.9998V23.8001Z" fill="#23B53E"/>
</g>
<defs>
<clipPath id="clip0_3390_120">
<rect width="28" height="28" fill="white"/>
</clipPath>
</defs>
</svg>
