<svg width="29" height="30" viewBox="0 0 29 30" fill="none" xmlns="http://www.w3.org/2000/svg">
<path d="M4.12787 3.25696C3.83972 3.19426 3.7575 2.77405 3.92416 2.52402C4.14268 2.19786 4.53898 2.34191 4.88342 2.31877C5.31453 2.28892 6.8412 2.15382 7.14638 2.32623C7.34787 2.43968 7.37009 2.66135 7.3575 2.87481C7.32713 3.37562 6.99972 4.59295 6.85231 5.12286C6.7649 5.43634 6.70638 5.80355 6.28416 5.77593C5.44712 5.71995 6.0775 4.37276 6.13453 3.90255C3.4849 5.96401 1.62935 9.14725 1.14194 12.4992C-0.219541 21.863 7.69083 29.4677 16.9071 27.9153C17.2419 27.8586 17.8116 27.6511 18.096 27.6436C18.5086 27.6332 18.7501 28.1526 18.4945 28.4594C18.2256 28.7818 15.9182 29.0819 15.416 29.1087C5.50046 29.6424 -2.07139 20.4875 0.509347 10.7475C1.28861 7.80529 3.02786 5.21018 5.3212 3.25769C4.97675 3.20694 4.44638 3.32636 4.12861 3.25769L4.12787 3.25696Z" fill="white"/>
<path d="M23.5858 25.8808H24.7784C24.9177 25.8808 25.1051 26.2294 25.0977 26.3742C25.0673 26.9496 24.3969 26.7936 24.0229 26.819C23.5918 26.8489 22.0651 26.984 21.7599 26.8115C21.5584 26.6981 21.5362 26.4772 21.5488 26.263C21.5769 25.7935 21.9481 24.3209 22.1006 23.8276C22.1851 23.5544 22.2903 23.3507 22.6206 23.3633C23.4725 23.3969 22.8066 24.7098 22.8295 25.1763C25.4184 23.176 27.2547 20.0084 27.7562 16.7483C29.2014 7.35758 21.2547 -0.349365 11.9984 1.22248C11.5384 1.30084 10.6466 1.72552 10.3881 1.2262C9.98658 0.452224 11.4414 0.31266 11.9392 0.224589C21.6421 -1.48682 30.1095 6.83363 28.7532 16.6386C28.2532 20.2518 26.3429 23.5589 23.5858 25.8801V25.8808Z" fill="white"/>
<path d="M20.4881 8.01802C20.7969 7.96204 21.954 7.96279 22.2636 8.01802C22.5251 8.06504 22.6147 8.19043 22.6503 8.44868L22.6577 19.8165C22.6577 20.024 22.5651 20.3256 22.334 20.3696C22.0695 20.4196 20.6999 20.4121 20.4199 20.3674C20.2288 20.3375 20.1295 20.236 20.0999 20.0449L20.0947 8.44196C20.1081 8.19267 20.2525 8.05982 20.4881 8.01727V8.01802Z" fill="white"/>
<path d="M15.716 10.4198C15.8716 10.375 17.5449 10.3728 17.7382 10.4086C17.8619 10.4318 17.9768 10.5467 17.9997 10.6721L18.0042 20.0516C18.0123 20.2114 17.8708 20.327 17.7271 20.3584C17.4738 20.4144 16.099 20.4114 15.8234 20.3674C15.6619 20.342 15.5501 20.2599 15.5123 20.0949L15.4968 10.7266C15.4916 10.6049 15.6034 10.4519 15.716 10.4198Z" fill="white"/>
<path d="M6.12051 21.4423L22.6279 21.4251C23.3605 21.4005 23.7457 22.1655 23.105 22.6134C17.4116 22.7178 11.6909 22.6268 5.98718 22.6589C5.22866 22.5096 5.35755 21.4871 6.11977 21.4423H6.12051Z" fill="white"/>
<path d="M20.5604 5.30813C19.3663 6.27094 18.1797 7.24121 16.9145 8.11072C14.0641 10.0707 10.593 11.9037 7.3278 13.0457C7.07595 13.1337 6.63743 13.3368 6.39595 13.342C5.84928 13.3547 5.70336 12.7225 6.13891 12.4337C11.1397 10.6782 15.8671 8.08012 19.8626 4.57445C19.6915 4.55728 19.5671 4.62894 19.3819 4.59088C18.8997 4.49236 18.8426 3.89078 19.2374 3.65195L21.1722 3.48999C21.4885 3.5094 21.7345 3.71165 21.7263 4.04379C21.7182 4.37592 21.5634 5.45068 21.4767 5.79028C21.2448 6.70383 20.1671 6.17167 20.5597 5.30664L20.5604 5.30813Z" fill="white"/>
<path d="M10.9769 13.1173C11.151 12.9434 12.608 12.9516 12.9117 12.9867C13.1088 13.0091 13.3036 13.0703 13.394 13.2628L13.4073 19.992C13.4036 20.1473 13.3303 20.2958 13.1769 20.3458C12.9755 20.4115 11.551 20.4048 11.2814 20.3727C11.1288 20.3548 10.9843 20.3048 10.9162 20.1548C11.0095 19.3405 10.7288 13.3651 10.9769 13.1173Z" fill="white"/>
<path d="M6.64244 15.5207C6.94615 15.4662 8.12318 15.461 8.42837 15.5102C8.58244 15.5348 8.72614 15.6431 8.798 15.7826L8.81133 19.9914C8.80763 20.1466 8.73429 20.2952 8.58096 20.3452C8.39281 20.4064 6.87429 20.4056 6.63207 20.3676C6.32466 20.3198 6.27355 20.0892 6.24837 19.8167C6.16392 18.9062 6.1617 16.9709 6.25133 16.064C6.28096 15.7632 6.31948 15.5781 6.64244 15.5207Z" fill="white"/>
</svg>
