<svg width="34" height="35" viewBox="0 0 34 35" fill="none" xmlns="http://www.w3.org/2000/svg">
<path d="M4.85685 3.83226C4.51782 3.7585 4.42108 3.26408 4.61718 2.96989C4.87429 2.58613 5.34057 2.75562 5.74584 2.72839C6.25309 2.69327 8.04937 2.53432 8.40845 2.73717C8.64551 2.87066 8.67166 3.13147 8.65684 3.38263C8.62111 3.97188 8.23588 5.40419 8.06244 6.02769C7.9596 6.39653 7.89074 6.82859 7.39395 6.79609C6.4091 6.73023 7.15079 5.14512 7.2179 4.59187C4.10034 7.01739 1.91709 10.7628 1.34361 14.7067C-0.258313 25.7242 9.04905 34.6719 19.893 32.8453C20.2869 32.7786 20.9571 32.5345 21.2918 32.5257C21.7773 32.5134 22.0614 33.1246 21.7607 33.4855C21.4443 33.8649 18.7294 34.2179 18.1385 34.2495C6.47185 34.8774 -2.43721 24.1057 0.599299 12.6456C1.51618 9.18384 3.56259 6.13043 6.26093 3.83313C5.85566 3.77341 5.23162 3.91392 4.85773 3.83313L4.85685 3.83226Z" fill="#144C84"/>
<path d="M27.7511 30.4514H29.1543C29.3181 30.4514 29.5386 30.8615 29.5299 31.0319C29.4942 31.709 28.7054 31.5254 28.2653 31.5553C27.758 31.5904 25.9618 31.7494 25.6027 31.5465C25.3656 31.413 25.3395 31.1531 25.3543 30.9011C25.3874 30.3487 25.8241 28.616 26.0036 28.0356C26.103 27.7142 26.2267 27.4744 26.6154 27.4893C27.6177 27.5289 26.8342 29.0736 26.8612 29.6224C29.9073 27.2689 32.0679 23.542 32.6579 19.7061C34.3583 8.65694 25.0083 -0.411064 14.1173 1.43837C13.5761 1.53058 12.5267 2.03025 12.2225 1.44275C11.7502 0.532087 13.4619 0.367876 14.0476 0.264251C25.4641 -1.7494 35.4269 8.04046 33.8311 19.577C33.2428 23.8282 30.995 27.7194 27.7511 30.4506V30.4514Z" fill="#144C84"/>
<path d="M24.1064 9.43408C24.4698 9.36822 25.8312 9.36909 26.1955 9.43408C26.5031 9.4894 26.6086 9.63694 26.6504 9.94079L26.6591 23.3162C26.6591 23.5604 26.5502 23.9151 26.2783 23.967C25.9671 24.0258 24.3556 24.017 24.0262 23.9643C23.8013 23.9292 23.6845 23.8098 23.6497 23.585L23.6436 9.93288C23.6592 9.63958 23.8292 9.48326 24.1064 9.4332V9.43408Z" fill="#144C84"/>
<path d="M18.4916 12.2602C18.6746 12.2075 20.6435 12.2048 20.8709 12.247C21.0165 12.2742 21.1516 12.4095 21.1786 12.557L21.1838 23.593C21.1934 23.7809 21.0269 23.917 20.8579 23.9539C20.5598 24.0198 18.9422 24.0163 18.618 23.9645C18.428 23.9346 18.2964 23.838 18.2519 23.6439L18.2336 12.6211C18.2275 12.478 18.3591 12.2979 18.4916 12.2602Z" fill="#144C84"/>
<path d="M7.20109 25.2291L26.6237 25.2089C27.4857 25.18 27.9389 26.0801 27.185 26.607C20.4862 26.7299 13.7552 26.6228 7.04421 26.6606C6.15174 26.4849 6.30339 25.2818 7.20022 25.2291H7.20109Z" fill="#144C84"/>
<path d="M24.1914 6.24567C22.7864 7.37852 21.3902 8.52013 19.9016 9.5432C16.5478 11.8493 12.4637 14.0061 8.62188 15.3497C8.32555 15.4533 7.80959 15.6922 7.52546 15.6983C6.88225 15.7133 6.71056 14.9694 7.22303 14.6296C13.1069 12.5641 18.6692 9.5072 23.3704 5.38242C23.169 5.36222 23.0226 5.44654 22.8047 5.40175C22.2373 5.28583 22.1702 4.57802 22.6348 4.297L24.9113 4.10645C25.2834 4.12928 25.5728 4.36726 25.5632 4.75804C25.5536 5.14883 25.3715 6.4134 25.2695 6.81297C24.9967 7.88785 23.7286 7.26172 24.1905 6.24391L24.1914 6.24567Z" fill="#144C84"/>
<path d="M12.9155 15.434C13.1203 15.2294 14.8346 15.239 15.192 15.2803C15.4238 15.3067 15.653 15.3787 15.7593 15.6052L15.775 23.5228C15.7707 23.7055 15.6844 23.8803 15.504 23.9391C15.2669 24.0164 13.5909 24.0085 13.2737 23.9707C13.0941 23.9496 12.9242 23.8908 12.844 23.7143C12.9538 22.7562 12.6235 15.7256 12.9155 15.434Z" fill="#144C84"/>
<path d="M7.81559 18.2617C8.17293 18.1975 9.55783 18.1914 9.91691 18.2494C10.0982 18.2783 10.2673 18.4057 10.3518 18.5699L10.3675 23.5219C10.3631 23.7046 10.2769 23.8793 10.0965 23.9382C9.87508 24.0102 8.08838 24.0093 7.80339 23.9645C7.44169 23.9083 7.38155 23.637 7.35192 23.3164C7.25256 22.2451 7.24995 19.9679 7.3554 18.901C7.39027 18.5471 7.43559 18.3293 7.81559 18.2617Z" fill="#144C84"/>
</svg>
