<svg width="34" height="35" viewBox="0 0 34 35" fill="none" xmlns="http://www.w3.org/2000/svg">
<path d="M7.88379 3.14478C7.986 3.15068 8.06613 3.15893 8.12402 3.16919C8.13423 3.171 8.14311 3.17349 8.15039 3.17505C8.15293 3.18718 8.15764 3.20437 8.15918 3.22778C8.16141 3.26203 8.16015 3.30308 8.15723 3.35278C8.14235 3.59677 8.04866 4.05993 7.9248 4.57544C7.80437 5.07671 7.66714 5.58433 7.58105 5.8938C7.54929 6.00774 7.53284 6.07512 7.50684 6.15845C7.48456 6.2298 7.4663 6.27181 7.45215 6.29614C7.44573 6.29634 7.43744 6.29684 7.42676 6.29614C7.41498 6.29534 7.40579 6.29345 7.39844 6.29224C7.3863 6.2424 7.37857 6.13588 7.40625 5.95044C7.4364 5.74853 7.49639 5.52466 7.56055 5.29517C7.61751 5.09142 7.69122 4.83835 7.71387 4.65161L7.85938 3.45923L6.91113 4.19751C3.69144 6.70249 1.44065 10.5637 0.848633 14.635C-0.802293 25.9909 8.80067 35.2202 19.9756 33.3381H19.9766C20.2052 33.2994 20.5077 33.2107 20.7461 33.1458C20.9532 33.0893 21.111 33.0511 21.2168 33.0344L21.3047 33.0256C21.3155 33.0254 21.3224 33.0276 21.3311 33.0334C21.3425 33.0412 21.3583 33.0568 21.3701 33.0813C21.3819 33.1058 21.3848 33.1289 21.3838 33.1438L21.3828 33.1448C21.372 33.1503 21.3581 33.1589 21.3389 33.1672C21.2623 33.2006 21.152 33.2391 21.0088 33.2795C20.7239 33.3599 20.3549 33.4365 19.9658 33.5051C19.1847 33.6428 18.3793 33.7359 18.1113 33.7502C6.78124 34.3598 -1.86591 23.9033 1.08301 12.7737C1.97136 9.41967 3.95675 6.45177 6.58496 4.21411L7.4248 3.49927L6.33398 3.33813C6.06501 3.2985 5.74277 3.32609 5.5127 3.34204C5.28364 3.35791 5.12641 3.36213 5.02051 3.35083C5.0176 3.33306 5.01556 3.31266 5.01855 3.29224C5.02232 3.2669 5.03003 3.2521 5.0332 3.24731L5.03223 3.24634C5.04291 3.23064 5.04807 3.23087 5.04883 3.23071C5.05686 3.22713 5.08347 3.21803 5.14844 3.21509C5.21682 3.212 5.2926 3.21638 5.40527 3.2229C5.50677 3.22878 5.64229 3.23601 5.7793 3.22681H5.78027C6.04399 3.20854 6.60388 3.1612 7.14941 3.14282C7.42208 3.13364 7.67917 3.13298 7.88379 3.14478Z" fill="#17447A" stroke="#17447A"/>
<path d="M14.1343 0.756836C25.2082 -1.19639 34.886 8.29969 33.3354 19.5088C32.7649 23.6309 30.5836 27.4126 27.4292 30.0684L27.2515 30.2178V30.9512H28.9858C29.0011 30.9783 29.0143 31.0053 29.0229 31.0283C29.0104 31.0322 28.9926 31.0388 28.9673 31.043C28.8877 31.0561 28.7865 31.059 28.6528 31.0566C28.5391 31.0546 28.3702 31.0473 28.2319 31.0566H28.231C27.9673 31.0749 27.4073 31.1222 26.8618 31.1406C26.5892 31.1498 26.3321 31.1514 26.1274 31.1396C26.0252 31.1337 25.9451 31.1245 25.8872 31.1143C25.8765 31.1124 25.8674 31.109 25.8599 31.1074C25.8575 31.0955 25.8535 31.079 25.8521 31.0566L25.853 30.9307C25.8666 30.7055 25.9728 30.1782 26.1108 29.5938C26.2453 29.0246 26.3959 28.4587 26.481 28.1836C26.503 28.1123 26.5223 28.0622 26.5396 28.0254C26.5472 28.009 26.5535 27.9976 26.5581 27.9902L26.5962 27.9893C26.6039 27.9896 26.6107 27.9907 26.6167 27.9912C26.6245 28.0381 26.6325 28.1316 26.6089 28.293C26.5796 28.4933 26.5237 28.7087 26.4663 28.9453C26.4177 29.1459 26.3508 29.423 26.3618 29.6475L26.4087 30.6035L27.1665 30.0186C30.3168 27.5846 32.5428 23.7414 33.1519 19.7822C34.8772 8.57115 25.5567 -0.668209 14.5581 0.864258L14.0337 0.945312C13.8653 0.973996 13.6656 1.03217 13.4995 1.0791C13.3184 1.13025 13.151 1.17571 12.9966 1.20215C12.8373 1.22941 12.7376 1.2282 12.6831 1.21582C12.6744 1.21383 12.6682 1.21135 12.6646 1.20996C12.6549 1.19116 12.6504 1.17629 12.647 1.16602C12.6767 1.13698 12.7528 1.08038 12.9155 1.01855C13.2991 0.872915 13.793 0.817195 14.1343 0.756836Z" fill="#17447A" stroke="#17447A"/>
<path d="M25.1504 9.88501C25.4792 9.88509 25.779 9.89553 25.9639 9.9104L26.1074 9.92603C26.12 9.9283 26.1302 9.93175 26.1387 9.93384C26.1419 9.94665 26.1468 9.96327 26.1504 9.9856L26.1592 23.3167C26.1591 23.342 26.1558 23.3754 26.1484 23.4104C26.1424 23.439 26.133 23.4627 26.125 23.4817C26.1091 23.4832 26.0909 23.4861 26.0703 23.4875C26.0043 23.4922 25.9214 23.4961 25.8252 23.4993C25.6329 23.5056 25.3975 23.5078 25.1602 23.5071C24.7128 23.5058 24.3093 23.4904 24.1484 23.4739L24.1436 9.95239C24.144 9.94703 24.145 9.94255 24.1455 9.93872C24.1543 9.93549 24.1671 9.93075 24.1855 9.927L24.1953 9.92603C24.3253 9.90248 24.7111 9.8849 25.1504 9.88501Z" fill="#17447A" stroke="#17447A"/>
<path d="M20.418 12.7236C20.5217 12.7259 20.6103 12.7281 20.6787 12.7314L20.6826 23.4736C20.672 23.4747 20.6601 23.4765 20.6475 23.4775C20.5836 23.4828 20.5023 23.4873 20.4072 23.4912C20.2171 23.499 19.9838 23.5025 19.7471 23.5029C19.311 23.5037 18.9165 23.4899 18.751 23.4746L18.7334 12.7383C18.787 12.7353 18.8513 12.7319 18.9248 12.7295C19.1321 12.7227 19.3973 12.7188 19.666 12.7178C19.9347 12.7168 20.2039 12.7189 20.418 12.7236Z" fill="#17447A" stroke="#17447A"/>
<path d="M26.6406 25.7083C26.8947 25.6997 27.0188 25.8248 27.0527 25.9016C27.0693 25.9393 27.0711 25.9746 27.0596 26.011C27.0525 26.0334 27.0352 26.0671 26.998 26.1086C20.3805 26.2261 13.7522 26.1229 7.10449 26.1594C7.02313 26.1366 6.98909 26.1029 6.97461 26.0823C6.95461 26.0536 6.94194 26.0102 6.94824 25.9563C6.95469 25.9021 6.97951 25.8488 7.02051 25.8088C7.05711 25.7732 7.11837 25.7353 7.22266 25.7278L26.624 25.7092H26.6328L26.6406 25.7083Z" fill="#17447A" stroke="#17447A"/>
<path d="M23.7822 5.93262C22.405 7.04367 21.0545 8.14369 19.6182 9.13086C16.296 11.4152 12.2515 13.5509 8.45703 14.8779C8.37236 14.9075 8.27474 14.9453 8.18262 14.9814C8.08695 15.019 7.99137 15.0566 7.89746 15.0908C7.68836 15.167 7.56245 15.1972 7.51465 15.1982H7.51367C7.45591 15.1996 7.43512 15.1854 7.43262 15.1836C7.4303 15.1819 7.42702 15.179 7.4248 15.1709C7.42233 15.1614 7.42172 15.1444 7.42969 15.124C7.435 15.1106 7.44668 15.0924 7.46973 15.0713C13.3751 12.9881 18.9662 9.91139 23.7002 5.75781L23.9688 5.52148L23.7822 5.93262ZM24.9043 4.6084C24.9798 4.61716 25.0208 4.64192 25.0371 4.65723C25.0455 4.66513 25.0508 4.67332 25.0547 4.68262C25.0586 4.69215 25.0643 4.71221 25.0635 4.74609C25.0595 4.90793 25.0159 5.29347 24.9561 5.71094C24.8964 6.12689 24.8287 6.51885 24.7852 6.68945V6.69043C24.7522 6.82025 24.7083 6.86174 24.6953 6.87207C24.6923 6.8713 24.6878 6.87033 24.6816 6.86719C24.6578 6.85503 24.6215 6.82386 24.6025 6.76367C24.5893 6.72153 24.5808 6.65072 24.6094 6.5498L24.8174 6.38281L24.6387 6.02344V6.02148L24.2617 5.26465L24.5645 5L23.4199 4.88477C23.2444 4.86722 23.0874 4.89665 23.0215 4.90625C22.9841 4.91168 22.9604 4.91449 22.9434 4.91504L22.9053 4.91211L22.8604 4.89648C22.8509 4.89118 22.8459 4.88611 22.8438 4.88379C22.8377 4.87696 22.8306 4.8653 22.8281 4.84668C22.8255 4.82623 22.829 4.80315 22.8398 4.78125L24.9043 4.6084Z" fill="#17447A" stroke="#17447A"/>
<path d="M14.0142 15.7642C14.5052 15.7464 14.9932 15.7606 15.1343 15.7769H15.1353C15.1906 15.7831 15.2308 15.7929 15.2593 15.8013L15.2739 23.4683C15.221 23.473 15.1544 23.4791 15.0757 23.4829C14.8901 23.492 14.6558 23.4971 14.4155 23.4985C13.9507 23.5013 13.5116 23.4884 13.3589 23.4751C13.3706 23.1348 13.3687 22.6254 13.3608 22.0503C13.3499 21.2519 13.3271 20.2678 13.311 19.3159C13.2949 18.359 13.2847 17.43 13.2964 16.7241C13.3022 16.3701 13.3139 16.0819 13.3315 15.8774C13.3333 15.857 13.3366 15.8377 13.3384 15.8198C13.3505 15.818 13.3631 15.8149 13.3765 15.813C13.5471 15.7892 13.7722 15.7729 14.0142 15.7642Z" fill="#17447A" stroke="#17447A"/>
<path d="M8.86865 18.7095C9.31193 18.7071 9.70583 18.7214 9.8374 18.7427H9.83838C9.8422 18.7433 9.84648 18.7468 9.85205 18.7495L9.8667 23.4653C9.81185 23.4699 9.74278 23.4753 9.66162 23.479C9.46753 23.4879 9.22134 23.494 8.97021 23.4956C8.7196 23.4972 8.46803 23.4948 8.26318 23.4897C8.16056 23.4872 8.07143 23.4838 8.00146 23.48C7.96689 23.4781 7.9386 23.476 7.9165 23.4741L7.88135 23.4702C7.87891 23.4619 7.87528 23.4516 7.87256 23.439C7.86354 23.3972 7.85689 23.3434 7.8501 23.27C7.75352 22.2283 7.7509 19.983 7.85303 18.9497C7.86155 18.8632 7.86857 18.8071 7.87744 18.7651C7.87785 18.7632 7.87803 18.761 7.87842 18.7593C7.88529 18.7577 7.89339 18.7561 7.90283 18.7544L7.90381 18.7534C8.03241 18.7303 8.42399 18.7118 8.86865 18.7095Z" fill="#17447A" stroke="#17447A"/>
</svg>
