<svg width="55" height="55" viewBox="0 0 55 55" fill="none" xmlns="http://www.w3.org/2000/svg">
<path d="M46.9389 7.448H8.02067C7.70442 7.448 7.44775 7.70466 7.44775 8.02091V26.2992C7.44775 26.6155 7.70442 26.8722 8.02067 26.8722H14.3136C12.6349 27.9069 11.504 29.7471 11.504 31.86V32.3584C11.504 32.6747 11.7607 32.9313 12.0769 32.9313H22.6782C22.9944 32.9313 23.2511 32.6747 23.2511 32.3584V31.86C23.2511 29.7471 22.1202 27.9069 20.4415 26.8722H46.9378C47.254 26.8722 47.5107 26.6155 47.5107 26.2992V8.02091C47.5118 7.70466 47.2551 7.448 46.9389 7.448ZM17.3787 25.9853C15.5832 25.9853 14.1211 24.5244 14.1211 22.7277C14.1211 20.931 15.582 19.4701 17.3787 19.4701C19.1754 19.4701 20.6363 20.931 20.6363 22.7277C20.6363 24.5244 19.1742 25.9853 17.3787 25.9853ZM22.1053 31.7855H12.651C12.6911 29.212 14.796 27.1311 17.3775 27.1311C19.9603 27.1311 22.0663 29.212 22.1053 31.7855ZM46.366 25.7263H20.5847C21.3215 24.9391 21.781 23.8896 21.781 22.7288C21.781 20.3008 19.8056 18.3254 17.3775 18.3254C14.9495 18.3254 12.9741 20.3008 12.9741 22.7288C12.9741 23.8896 13.4347 24.9391 14.1704 25.7263H8.59359V8.59383H46.366V25.7263Z" fill="#FF9100"/>
<path d="M11.605 46.6194V46.9792C11.605 47.2954 11.8616 47.5521 12.1779 47.5521H19.8389H27.5H35.161H42.8221C43.1383 47.5521 43.395 47.2954 43.395 46.9792V46.6194C43.395 44.9041 42.3992 43.4305 40.9635 42.7041C41.7897 42.0956 42.3328 41.124 42.3328 40.0217C42.3328 38.1803 40.834 36.6804 38.9915 36.6804C37.149 36.6804 35.6503 38.1792 35.6503 40.0217C35.6503 41.124 36.1934 42.0956 37.0196 42.7041C36.2335 43.1017 35.5896 43.7239 35.161 44.4904C34.7325 43.7227 34.0885 43.1017 33.3025 42.7041C34.1286 42.0956 34.6718 41.124 34.6718 40.0217C34.6718 38.1803 33.173 36.6804 31.3305 36.6804C29.488 36.6804 27.9893 38.1792 27.9893 40.0217C27.9893 41.124 28.5324 42.0956 29.3585 42.7041C28.5725 43.1017 27.9285 43.7239 27.5 44.4904C27.0714 43.7227 26.4275 43.1017 25.6414 42.7041C26.4676 42.0956 27.0107 41.124 27.0107 40.0217C27.0107 38.1803 25.512 36.6804 23.6695 36.6804C21.827 36.6804 20.3282 38.1792 20.3282 40.0217C20.3282 41.124 20.8713 42.0956 21.6975 42.7041C20.9114 43.1017 20.2675 43.7239 19.8389 44.4904C19.4104 43.7227 18.7664 43.1017 17.9804 42.7041C18.8065 42.0956 19.3497 41.124 19.3497 40.0217C19.3497 38.1803 17.8509 36.6804 16.0084 36.6804C14.1659 36.6804 12.6672 38.1792 12.6672 40.0217C12.6672 41.124 13.2103 42.0956 14.0364 42.7041C12.6019 43.4294 11.605 44.9029 11.605 46.6194ZM36.7961 40.0205C36.7961 38.8105 37.7804 37.8251 38.9915 37.8251C40.2027 37.8251 41.187 38.8094 41.187 40.0205C41.187 41.2317 40.2027 42.2159 38.9915 42.2159C37.7804 42.2159 36.7961 41.2305 36.7961 40.0205ZM38.9915 43.3618C40.716 43.3618 42.1323 44.7093 42.2423 46.4063H35.7408C35.8508 44.7093 37.2659 43.3618 38.9915 43.3618ZM29.1351 40.0205C29.1351 38.8105 30.1194 37.8251 31.3305 37.8251C32.5416 37.8251 33.5259 38.8094 33.5259 40.0205C33.5259 41.2317 32.5416 42.2159 31.3305 42.2159C30.1194 42.2159 29.1351 41.2305 29.1351 40.0205ZM31.3305 43.3618C33.055 43.3618 34.4712 44.7093 34.5812 46.4063H28.0798C28.1898 44.7093 29.6049 43.3618 31.3305 43.3618ZM21.4752 40.0205C21.4752 38.8105 22.4595 37.8251 23.6706 37.8251C24.8818 37.8251 25.866 38.8094 25.866 40.0205C25.866 41.2317 24.8818 42.2159 23.6706 42.2159C22.4595 42.2159 21.4752 41.2305 21.4752 40.0205ZM23.6695 43.3618C25.3939 43.3618 26.8102 44.7093 26.9202 46.4063H20.4187C20.5287 44.7093 21.945 43.3618 23.6695 43.3618ZM13.8141 40.0205C13.8141 38.8105 14.7984 37.8251 16.0096 37.8251C17.2207 37.8251 18.205 38.8094 18.205 40.0205C18.205 41.2317 17.2207 42.2159 16.0096 42.2159C14.7984 42.2159 13.8141 41.2305 13.8141 40.0205ZM16.0084 43.3618C17.7329 43.3618 19.1491 44.7093 19.2591 46.4063H12.7577C12.8677 44.7093 14.2839 43.3618 16.0084 43.3618Z" fill="#FF9100"/>
<path d="M13.758 13.2528H41.258C41.5742 13.2528 41.8309 12.9961 41.8309 12.6799C41.8309 12.3636 41.5742 12.1069 41.258 12.1069H13.758C13.4417 12.1069 13.1851 12.3636 13.1851 12.6799C13.1851 12.9961 13.4406 13.2528 13.758 13.2528Z" fill="#FF9100"/>
<path d="M41.2582 16.594H26.446C26.1297 16.594 25.873 16.8507 25.873 17.1669C25.873 17.4832 26.1297 17.7398 26.446 17.7398H41.2582C41.5744 17.7398 41.8311 17.4832 41.8311 17.1669C41.8311 16.8507 41.5744 16.594 41.2582 16.594Z" fill="#FF9100"/>
<path d="M41.2582 21.0823H26.446C26.1297 21.0823 25.873 21.3389 25.873 21.6552C25.873 21.9714 26.1297 22.2281 26.446 22.2281H41.2582C41.5744 22.2281 41.8311 21.9714 41.8311 21.6552C41.8311 21.3389 41.5744 21.0823 41.2582 21.0823Z" fill="#FF9100"/>
</svg>
