<svg width="45" height="45" viewBox="0 0 45 45" fill="none" xmlns="http://www.w3.org/2000/svg">
<path d="M44.3571 24.997H42.8233C42.5147 20.0389 38.6846 16.0255 33.8014 15.4274C36.2186 13.9707 37.8437 11.3305 37.8437 8.31308C37.8437 3.72978 34.1087 0 29.5161 0C24.9236 0 21.1873 3.72978 21.1873 8.31308C21.1873 11.3318 22.8124 13.9707 25.2309 15.4274C20.3464 16.0255 16.5176 20.0389 16.209 24.997H4.21329V21.3609C4.21329 16.4182 8.09614 12.374 12.9767 12.0839C13.2544 13.1864 14.2483 14.0079 15.4376 14.0079H17.0177C18.4217 14.0079 19.5621 12.8681 19.5621 11.4679C19.5621 10.0676 18.4204 8.92787 17.0177 8.92787H15.4376C14.2663 8.92787 13.2891 9.72491 12.9934 10.8005C7.398 11.0854 2.92886 15.7059 2.92886 21.3622V24.9983H0.642857C0.288 24.9983 0 25.2858 0 25.64V32.2718C0 32.626 0.288 32.9135 0.642857 32.9135H4.28529V44.3583C4.28529 44.7125 4.57329 45 4.92814 45H40.0706C40.4254 45 40.7134 44.7125 40.7134 44.3583V32.9122H44.3571C44.712 32.9122 45 32.6247 45 32.2705V25.6387C45 25.2845 44.712 24.997 44.3571 24.997ZM15.4363 10.2113H17.0164C17.7107 10.2113 18.2751 10.7748 18.2751 11.4679C18.2751 12.1609 17.7107 12.7244 17.0164 12.7244H15.4363C14.742 12.7244 14.1776 12.1609 14.1776 11.4679C14.1776 10.7748 14.742 10.2113 15.4363 10.2113ZM22.4743 8.3118C22.4743 4.4357 25.6333 1.28219 29.5174 1.28219C33.4003 1.28219 36.5593 4.4357 36.5593 8.3118C36.5593 12.1879 33.4003 15.3414 29.5174 15.3414C25.6333 15.3427 22.4743 12.1892 22.4743 8.3118ZM26.4921 16.6262H32.5401C37.3037 16.6262 41.2174 20.3264 41.5479 24.997H17.4857C17.8161 20.3251 21.7299 16.6262 26.4921 16.6262ZM39.4277 43.7152H5.571V32.9122H39.4277V43.7152ZM43.7143 31.6287H40.0706H4.92814H1.28571V26.2805H16.821H42.2139H43.7143V31.6287Z" fill="#6A99D0"/>
</svg>
