<svg width="65" height="65" viewBox="0 0 65 65" fill="none" xmlns="http://www.w3.org/2000/svg">
<g clip-path="url(#clip0_3390_141)">
<path d="M34.5313 24.4766V22.3438H40.625C43.3186 22.3438 45.9019 21.2737 47.8066 19.3691C49.7112 17.4644 50.7813 14.8811 50.7813 12.1875V8.125C50.7813 7.58628 50.5673 7.06962 50.1863 6.68869C49.8054 6.30776 49.2887 6.09375 48.75 6.09375H40.625C38.4256 6.08182 36.2837 6.7958 34.5313 8.125V2.03125C34.5313 1.49253 34.3173 0.975873 33.9363 0.594939C33.5554 0.214006 33.0387 0 32.5 0C31.9613 0 31.4446 0.214006 31.0637 0.594939C30.6828 0.975873 30.4688 1.49253 30.4688 2.03125V4.0625C28.7164 2.7333 26.5745 2.01932 24.375 2.03125H16.25C15.7113 2.03125 15.1946 2.24526 14.8137 2.62619C14.4328 3.00712 14.2188 3.52378 14.2188 4.0625V8.125C14.2188 10.8186 15.2888 13.4019 17.1935 15.3066C19.0981 17.2112 21.6814 18.2813 24.375 18.2813H30.4688V24.4766C25.2837 24.9977 20.4973 27.4917 17.0994 31.4427C13.7015 35.3937 11.9521 40.4995 12.213 45.7042C12.4739 50.9088 14.7251 55.8141 18.5011 59.4055C22.277 62.9969 27.2889 64.9997 32.5 64.9997C37.7112 64.9997 42.723 62.9969 46.499 59.4055C50.2749 55.8141 52.5262 50.9088 52.7871 45.7042C53.0479 40.4995 51.2985 35.3937 47.9006 31.4427C44.5028 27.4917 39.7163 24.9977 34.5313 24.4766ZM40.625 10.2578H46.7188V12.1875C46.7188 13.8037 46.0768 15.3536 44.934 16.4964C43.7912 17.6392 42.2412 18.2813 40.625 18.2813H34.5313V16.25C34.5313 14.6338 35.1733 13.0839 36.3161 11.9411C37.4589 10.7983 39.0089 10.1563 40.625 10.1563V10.2578ZM18.2813 8.125V6.09375H24.375C25.9912 6.09375 27.5412 6.73577 28.684 7.87857C29.8268 9.02137 30.4688 10.5713 30.4688 12.1875V14.2188H24.375C22.7589 14.2188 21.2089 13.5767 20.0661 12.4339C18.9233 11.2911 18.2813 9.74116 18.2813 8.125ZM32.5 60.9375C29.2861 60.9375 26.1443 59.9845 23.472 58.1989C20.7997 56.4133 18.7169 53.8754 17.487 50.9061C16.2571 47.9368 15.9353 44.6695 16.5623 41.5173C17.1893 38.3651 18.7369 35.4696 21.0095 33.197C23.2821 30.9244 26.1776 29.3768 29.3298 28.7497C32.482 28.1227 35.7493 28.4445 38.7186 29.6745C41.6879 30.9044 44.2258 32.9872 46.0114 35.6595C47.797 38.3318 48.75 41.4736 48.75 44.6875C48.75 48.9973 47.038 53.1305 43.9905 56.178C40.943 59.2255 36.8098 60.9375 32.5 60.9375Z" fill="#FF0000"/>
<path d="M32.5 38.5938H36.5625C37.1012 38.5938 37.6179 38.3797 37.9988 37.9988C38.3797 37.6179 38.5938 37.1012 38.5938 36.5625C38.5938 36.0238 38.3797 35.5071 37.9988 35.1262C37.6179 34.7453 37.1012 34.5312 36.5625 34.5312H34.5312C34.5312 33.9925 34.3172 33.4759 33.9363 33.0949C33.5554 32.714 33.0387 32.5 32.5 32.5C31.9613 32.5 31.4446 32.714 31.0637 33.0949C30.6828 33.4759 30.4688 33.9925 30.4688 34.5312V34.8969C29.1253 35.3843 27.996 36.3284 27.2781 37.5642C26.5602 38.7999 26.2995 40.2486 26.5415 41.6571C26.7835 43.0656 27.5129 44.3442 28.602 45.2694C29.6912 46.1947 31.0709 46.7077 32.5 46.7188C33.0387 46.7188 33.5554 46.9328 33.9363 47.3137C34.3172 47.6946 34.5312 48.2113 34.5312 48.75C34.5312 49.2887 34.3172 49.8054 33.9363 50.1863C33.5554 50.5672 33.0387 50.7812 32.5 50.7812H28.4375C27.8988 50.7812 27.3821 50.9953 27.0012 51.3762C26.6203 51.7571 26.4062 52.2738 26.4062 52.8125C26.4062 53.3512 26.6203 53.8679 27.0012 54.2488C27.3821 54.6297 27.8988 54.8438 28.4375 54.8438H30.4688C30.4688 55.3825 30.6828 55.8991 31.0637 56.2801C31.4446 56.661 31.9613 56.875 32.5 56.875C33.0387 56.875 33.5554 56.661 33.9363 56.2801C34.3172 55.8991 34.5312 55.3825 34.5312 54.8438V54.4781C35.8747 53.9907 37.004 53.0466 37.7219 51.8108C38.4398 50.5751 38.7005 49.1264 38.4585 47.7179C38.2165 46.3094 37.4871 45.0308 36.398 44.1056C35.3088 43.1803 33.9291 42.6673 32.5 42.6562C31.9613 42.6562 31.4446 42.4422 31.0637 42.0613C30.6828 41.6804 30.4688 41.1637 30.4688 40.625C30.4688 40.0863 30.6828 39.5696 31.0637 39.1887C31.4446 38.8078 31.9613 38.5938 32.5 38.5938Z" fill="#FF0000"/>
<path d="M11.5984 14.8078L7.53595 10.7453C7.34712 10.5549 7.12246 10.4038 6.87493 10.3007C6.6274 10.1976 6.36191 10.1445 6.09376 10.1445C5.82561 10.1445 5.56011 10.1976 5.31259 10.3007C5.06506 10.4038 4.8404 10.5549 4.65157 10.7453L0.589073 14.8078C0.206581 15.1903 -0.00830079 15.7091 -0.00830078 16.25C-0.00830078 16.7909 0.206581 17.3097 0.589073 17.6922C0.971565 18.0747 1.49033 18.2896 2.03126 18.2896C2.57219 18.2896 3.09096 18.0747 3.47345 17.6922L4.06251 17.0828V22.3438C4.06251 22.8825 4.27652 23.3991 4.65745 23.7801C5.03838 24.161 5.55504 24.375 6.09376 24.375C6.63248 24.375 7.14914 24.161 7.53007 23.7801C7.911 23.3991 8.12501 22.8825 8.12501 22.3438V17.0828L8.71407 17.6922C8.9029 17.8826 9.12756 18.0337 9.37509 18.1368C9.62261 18.2399 9.88811 18.293 10.1563 18.293C10.4244 18.293 10.6899 18.2399 10.9374 18.1368C11.185 18.0337 11.4096 17.8826 11.5984 17.6922C11.7888 17.5034 11.9399 17.2787 12.0431 17.0312C12.1462 16.7836 12.1993 16.5181 12.1993 16.25C12.1993 15.9818 12.1462 15.7164 12.0431 15.4688C11.9399 15.2213 11.7888 14.9966 11.5984 14.8078Z" fill="#FF0000"/>
<path d="M64.4109 26.9953L60.3484 22.9328C60.1596 22.7424 59.935 22.5913 59.6874 22.4882C59.4399 22.3851 59.1744 22.332 58.9063 22.332C58.6381 22.332 58.3726 22.3851 58.1251 22.4882C57.8776 22.5913 57.6529 22.7424 57.4641 22.9328L53.4016 26.9953C53.2122 27.1847 53.0619 27.4095 52.9595 27.657C52.857 27.9044 52.8042 28.1697 52.8042 28.4375C52.8042 28.9784 53.0191 29.4972 53.4016 29.8797C53.7841 30.2622 54.3028 30.4771 54.8438 30.4771C55.1116 30.4771 55.3768 30.4243 55.6243 30.3218C55.8717 30.2193 56.0966 30.0691 56.2859 29.8797L56.875 29.2703V34.5312C56.875 35.07 57.089 35.5866 57.4699 35.9676C57.8509 36.3485 58.3675 36.5625 58.9063 36.5625C59.445 36.5625 59.9616 36.3485 60.3426 35.9676C60.7235 35.5866 60.9375 35.07 60.9375 34.5312V29.2703L61.5266 29.8797C61.7154 30.0701 61.9401 30.2212 62.1876 30.3243C62.4351 30.4274 62.7006 30.4805 62.9688 30.4805C63.2369 30.4805 63.5024 30.4274 63.7499 30.3243C63.9975 30.2212 64.2221 30.0701 64.4109 29.8797C64.6013 29.6909 64.7524 29.4662 64.8556 29.2187C64.9587 28.9711 65.0118 28.7056 65.0118 28.4375C65.0118 28.1693 64.9587 27.9039 64.8556 27.6563C64.7524 27.4088 64.6013 27.1841 64.4109 26.9953Z" fill="#FF0000"/>
</g>
<defs>
<clipPath id="clip0_3390_141">
<rect width="65" height="65" fill="white"/>
</clipPath>
</defs>
</svg>
