<svg width="55" height="55" viewBox="0 0 55 55" fill="none" xmlns="http://www.w3.org/2000/svg">
<path d="M52.5078 30.9375V24.0625L45.9766 23.375C45.4609 21.2266 44.6875 19.25 43.5703 17.4453L47.6953 12.375L42.7969 7.47656L37.7266 11.6016C35.9219 10.4844 33.9453 9.625 31.7969 9.10937L30.9375 2.49219H24.0625L23.375 8.9375C21.2266 9.45312 19.25 10.2266 17.4453 11.4297L12.375 7.30469L7.47656 12.2031L11.6016 17.2734C10.4844 19.0781 9.625 21.0547 9.19531 23.2031L2.49219 24.0625V30.9375L9.02344 31.625C9.53906 33.7734 10.3125 35.75 11.5156 37.5547L7.39062 42.7109L12.2891 47.6094L17.4453 43.4844C19.25 44.6016 21.2266 45.4609 23.2891 45.8906L23.9766 52.5078H30.9375L31.625 45.8906C33.7734 45.375 35.75 44.6016 37.4687 43.4844L42.625 47.6094L47.5234 42.7109L43.3984 37.5547C44.5156 35.75 45.375 33.7734 45.8906 31.625L52.5078 30.9375ZM50.7891 25.6094V29.4766L46.3203 29.9922C46.4062 29.2187 46.4922 28.3594 46.4922 27.5C46.4922 26.7266 46.4062 25.9531 46.3203 25.1797L50.7891 25.6094ZM42.625 9.71094L45.375 12.4609L42.5391 15.9844C41.5937 14.6953 40.3906 13.5781 39.1875 12.5469L42.625 9.71094ZM25.6094 4.21094H29.4766L29.9922 8.67969C29.1328 8.59375 28.2734 8.50781 27.5 8.50781C26.7266 8.50781 25.8672 8.59375 25.0937 8.67969L25.6094 4.21094ZM9.71094 12.375L12.4609 9.625L15.9844 12.4609C14.6953 13.4922 13.5781 14.6094 12.5469 15.8984L9.71094 12.375ZM4.21094 29.3906V25.5234L8.67969 25.0078C8.67969 25.8672 8.59375 26.6406 8.59375 27.4141C8.59375 28.2734 8.67969 29.0469 8.76562 29.9062L4.21094 29.3906ZM12.4609 45.2891L9.71094 42.5391L12.5469 39.0156C13.5781 40.3047 14.6953 41.4219 15.9844 42.4531L12.4609 45.2891ZM29.3906 50.7891H25.5234L25.0078 46.2344C25.7812 46.3203 26.6406 46.4062 27.4141 46.4062C28.2734 46.4062 29.0469 46.3203 29.8203 46.2344L29.3906 50.7891ZM45.2891 42.625L42.5391 45.375L39.0156 42.5391C40.3047 41.5937 41.4219 40.3906 42.4531 39.1016L45.2891 42.625ZM39.6172 39.6172C36.5234 42.7109 32.2266 44.6875 27.5 44.6875C22.7734 44.6875 18.4766 42.7969 15.3828 39.6172C12.2891 36.5234 10.3125 32.2266 10.3125 27.5C10.3125 22.7734 12.2031 18.4766 15.3828 15.3828C18.4766 12.2891 22.7734 10.3125 27.5 10.3125C32.2266 10.3125 36.5234 12.2031 39.6172 15.3828C42.7109 18.4766 44.6875 22.7734 44.6875 27.5C44.6875 32.2266 42.7969 36.5234 39.6172 39.6172Z" fill="#FF0000" stroke="#FF0000" stroke-width="0.5"/>
<path d="M27.5 11.9453C18.9922 11.9453 12.0312 18.9063 12.0312 27.4141C12.0312 35.9219 18.9922 42.8828 27.5 42.8828C36.0078 42.8828 42.9688 35.9219 42.9688 27.4141C42.9688 18.9063 36.0078 11.9453 27.5 11.9453ZM22.1719 40.1328C21.7422 39.9609 21.3125 39.7031 20.8828 39.5312V31.625H22.1719V40.1328ZM26.8984 41.1641V28.4453H28.1875V41.1641C28.0156 41.1641 27.7578 41.1641 27.5859 41.1641C27.2422 41.1641 27.0703 41.1641 26.8984 41.1641ZM34.2031 39.4453C33.7734 39.7031 33.3438 39.875 32.9141 40.0469V25.2656H34.2031V39.4453ZM37.2109 37.2109C36.7812 37.6406 36.3516 37.9844 35.8359 38.4141V23.5469H31.1094V40.6484C30.6797 40.7344 30.25 40.8203 29.8203 40.9062V26.7266H25.0938V40.9922C24.6641 40.9063 24.2344 40.8203 23.8047 40.7344V29.9062H19.0781V38.3281C18.6484 37.9844 18.1328 37.5547 17.7031 37.125C15.2109 34.6328 13.6641 31.1953 13.6641 27.4141C13.6641 23.6328 15.2109 20.1953 17.7031 17.7031C20.1953 15.2109 23.6328 13.6641 27.4141 13.6641C31.1953 13.6641 34.6328 15.2109 37.125 17.7031C39.6172 20.1953 41.1641 23.6328 41.1641 27.4141C41.25 31.2812 39.7031 34.7188 37.2109 37.2109Z" fill="#FF0000" stroke="#FF0000" stroke-width="0.5"/>
<path d="M32.8602 17.6989L17.8271 26.7188L18.7114 28.1926L33.7445 19.1727L32.8602 17.6989Z" fill="#FF0000" stroke="#FF0000" stroke-width="0.5"/>
</svg>
