<svg width="82" height="82" viewBox="0 0 82 82" fill="none" xmlns="http://www.w3.org/2000/svg">
<g clip-path="url(#clip0_3118_616)">
<path d="M65.1179 17.9033V20.2923C69.6125 24.3321 75.329 27.6559 81.5255 27.8253C82.251 28.2135 81.9837 29.1428 81.1928 29.1975C80.1455 29.2631 78.2855 28.9187 77.2273 28.6727C72.4708 27.5684 68.058 24.6656 64.3652 21.5715C62.9306 21.4075 61.2833 21.7136 59.876 21.5551C59.6414 21.5277 59.0523 21.3528 59.0523 21.0795V17.0396H50.5539L64.7743 31.2475C68.9525 34.9484 74.5054 38.0753 80.1619 38.6767C80.7346 38.7368 81.8419 38.4853 81.9346 39.2507C81.9946 39.7099 81.7383 40.016 81.2855 40.0707C80.3146 40.1855 78.5855 39.8848 77.5982 39.6825C74.4672 39.032 71.3035 37.5123 68.5925 35.8504C67.5343 35.1999 66.4161 34.2323 65.4015 33.6583C65.3034 33.6036 65.2434 33.5271 65.1124 33.5544V35.9433C69.1107 39.5623 74.2817 42.7056 79.7255 43.3725C80.1237 43.4217 81.3183 43.3835 81.5855 43.5037C82.1474 43.7552 82.0601 44.7228 81.2801 44.8431C80.7837 44.9196 79.5128 44.7392 78.9564 44.6627C73.5235 43.9192 68.3525 40.6337 64.2724 37.1351C62.7997 36.9656 61.0378 37.2936 59.6032 37.1187C59.4287 37.0968 59.0414 36.9109 59.0414 36.7251V32.7289L58.9105 32.5977H49.763L58.3541 76.0413L81.4383 76.0687C81.7001 76.1397 81.891 76.3475 81.9292 76.6208C81.8092 78.1296 82.1092 79.9227 81.9346 81.3987C81.9019 81.6993 81.7819 81.8961 81.5037 82.0109H0.518294C0.240106 81.8961 0.120104 81.6993 0.0873758 81.3987C-0.0271722 80.4147 -0.0271722 77.6868 0.0873758 76.7028C0.125558 76.3803 0.26738 76.1671 0.58375 76.0741L23.6679 76.0468C24.2461 73.39 24.7261 70.7113 25.2661 68.0436C25.5388 66.6769 25.8389 65.3212 26.1116 63.9545C26.1334 63.8343 26.1607 63.7031 26.1934 63.5117C28.2335 53.2727 30.2135 43.0117 32.3135 32.7836L32.2154 32.6032H23.1115L22.9806 32.7344V36.7305C22.9806 36.9219 22.5988 37.1023 22.4188 37.1241C20.9842 37.2991 19.2223 36.9711 17.7496 37.1405C13.5168 40.754 8.1221 44.1597 2.46016 44.7611C2.0456 44.8048 1.11285 44.9087 0.741936 44.854C-0.0435362 44.7283 -0.125356 43.7661 0.436474 43.5147C0.703753 43.3944 1.89832 43.4327 2.29652 43.3835C7.71845 42.7275 12.9331 39.5568 16.9096 35.9543V33.5653C16.7787 33.538 16.7187 33.6145 16.6205 33.6692C15.6059 34.2432 14.4931 35.2108 13.4295 35.8613C11.4658 37.064 9.19121 38.2503 7.00389 38.9773C5.46568 39.4912 2.47652 40.2347 0.905576 40.0871C0.234652 40.0215 -0.272632 39.442 0.25647 38.9063C0.311017 38.8516 0.960122 38.6985 1.08558 38.6876C1.23286 38.6767 1.39104 38.7423 1.5165 38.7313C7.17844 38.2448 12.5131 35.1889 16.9641 31.6247L31.4735 17.056H22.9752V21.0959C22.9752 21.3747 22.3861 21.5496 22.1515 21.5715C20.7442 21.73 19.0969 21.4239 17.6623 21.5879C14.1441 24.5344 10.0367 27.2513 5.56386 28.4977C4.30929 28.8476 2.10015 29.2959 0.82921 29.2139C0.0110105 29.1592 -0.185357 28.126 0.43102 27.8691C0.905576 27.6723 2.25833 27.7215 2.88562 27.6395C7.98028 26.9616 13.1404 23.6652 16.9041 20.3087V17.9197C16.7623 17.8869 16.7023 17.9471 16.5986 18.0072C16.0805 18.2805 15.2568 19.0295 14.695 19.4012C11.2203 21.7027 6.82389 23.8893 2.64016 24.3485C2.10015 24.4087 1.34195 24.4907 0.812846 24.4415C-0.14172 24.3485 -0.14172 23.1732 0.649206 23.0529C1.1674 22.9709 1.89287 23.0311 2.46561 22.96C7.87664 22.2985 12.8786 19.188 17.0787 15.8807L32.6026 0.306133L33.0336 0.0437333L48.6939 0L49.2285 0.158533L64.9052 15.8205C69.1053 19.1497 74.129 22.2767 79.5619 22.9436C80.1291 23.0147 80.8601 22.9545 81.3783 23.0365C82.0601 23.1459 82.1528 24.1135 81.5801 24.354C81.0073 24.5945 78.4327 24.2009 77.68 24.0479C74.0745 23.3153 70.4471 21.4184 67.387 19.4176C66.6343 18.9256 65.9306 18.286 65.1234 17.9033H65.1179ZM47.0848 1.394H34.9427L41.0465 7.47293L47.0848 1.394ZM33.9063 14.5195L39.9719 8.55533L33.9063 2.43813V14.5195ZM48.1266 14.5195V2.43813L42.061 8.55533L48.1266 14.5195ZM32.5154 2.5256L19.3369 15.6456H32.5154V2.5256ZM49.5121 2.5256V15.6456H62.6906L49.5121 2.5256ZM34.8609 15.6456H47.1721L40.9756 9.55573L34.8609 15.6456ZM21.5897 17.0396H18.2951V20.1665H21.5897V17.0396ZM46.9975 17.0396H35.03L40.9865 22.9327L46.9975 17.0396ZM63.7324 17.0396H60.4378V20.0791L63.7324 20.1665V17.0396ZM33.9063 17.9908V30.0721L39.9719 23.9549L33.9063 17.9908ZM48.1266 30.0721V17.9908L42.0501 24.1135L48.1266 30.0721ZM32.5154 31.2037V18.0837L19.3369 31.2037H32.5154ZM49.5121 18.4719C49.4303 22.714 49.5721 26.9616 49.5121 31.2037H62.6906L49.6376 18.0837C49.4139 17.9689 49.5066 18.4391 49.5066 18.4719H49.5121ZM47.0848 31.1163L40.981 25.0373L34.9427 31.1163H47.0848ZM21.5897 32.5923H18.2951V35.7192H21.5897V32.5923ZM46.3048 32.5923H35.7282L40.9865 36.3205L46.3048 32.5923ZM63.7324 32.5923H60.4378V35.7192H63.7324V32.5923ZM39.7155 37.2827C39.7482 37.1187 39.6337 37.0749 39.5355 36.9875C37.9428 35.588 35.5209 34.522 33.8845 33.0952L33.6499 33.0296L31.7408 42.6783L39.7155 37.2881V37.2827ZM48.383 33.0296L42.3174 37.1569L50.2921 42.6728L48.383 33.0296ZM49.8612 44.2363L40.9701 38.0699L32.1717 44.1925L40.9865 48.6479L49.8612 44.2363ZM39.3664 49.364L31.2172 45.2804L29.3953 54.4917L39.3664 49.364ZM52.6322 54.4917L50.8103 45.2804L42.661 49.364L52.6322 54.4917ZM40.9865 50.2551L29.8317 55.9295L41.0628 63.878L52.2013 55.9295C48.4812 54.0052 44.7611 52.0645 40.9865 50.2551ZM39.8028 64.7472L28.8771 57.0119L25.3207 75.0847L39.8028 64.7472ZM53.1558 57.0993L42.2301 64.7909L56.7068 75.0901L53.1504 57.0993H53.1558ZM55.4959 76.0413L40.9865 65.7148L26.5371 76.0413H55.4959ZM80.5546 77.4353H1.47286V80.6497H80.5546V77.4353Z" fill="#133C6D"/>
</g>
<defs>
<clipPath id="clip0_3118_616">
<rect width="82" height="82" fill="white"/>
</clipPath>
</defs>
</svg>
