<svg width="61" height="61" viewBox="0 0 61 61" fill="none" xmlns="http://www.w3.org/2000/svg">
<path d="M6.72063 7.26891H11.7006V2.14775C11.7006 1.32352 12.3692 0.65564 13.1934 0.65564H43.0234C50.0379 0.65564 55.7715 6.3892 55.7715 13.4038V52.239C55.7715 53.0632 55.1036 53.7311 54.2794 53.7311H49.2994V58.8523C49.2994 59.6765 48.6308 60.3444 47.8066 60.3444H6.72063C5.8964 60.3444 5.22852 59.6765 5.22852 58.8523V8.76102C5.22852 7.93679 5.8964 7.26891 6.72063 7.26891ZM17.414 20.1021C15.4514 20.1021 15.4514 17.1178 17.414 17.1178H37.1133C39.0759 17.1178 39.0759 20.1021 37.1133 20.1021H17.414ZM17.414 35.7206C15.4514 35.7206 15.4514 32.7364 17.414 32.7364H37.1133C39.0759 32.7364 39.0759 35.7206 37.1133 35.7206H17.414ZM17.414 27.9113C15.4514 27.9113 15.4514 24.9271 17.414 24.9271H37.1133C39.0759 24.9271 39.0759 27.9113 37.1133 27.9113H17.414ZM14.6855 7.26891H36.5506C43.5652 7.26891 49.2994 13.0025 49.2994 20.017V50.7469H52.7873V13.4038C52.7873 8.03694 48.3902 3.63986 43.0234 3.63986H14.6855V7.26891ZM15.5148 41.7416H39.0132C39.8367 41.7416 40.5053 42.4102 40.5053 43.2337V50.8319C40.5053 51.6561 39.8367 52.3247 39.0132 52.3247H15.5148C14.6906 52.3247 14.0227 51.6561 14.0227 50.8319V43.2337C14.0227 42.4102 14.6906 41.7416 15.5148 41.7416ZM37.5203 44.7258H17.0069V49.3398H37.5203V44.7258ZM36.5506 10.2531H8.21274V57.3601H46.3145V20.017C46.3145 14.6502 41.9181 10.2531 36.5506 10.2531Z" fill="white"/>
</svg>
