<svg width="27" height="35" viewBox="0 0 27 35" fill="none" xmlns="http://www.w3.org/2000/svg">
<path d="M11.7046 23.8965L11.7056 23.9033H20.3999L20.4009 23.8965H21.3833V26.0615H10.9409V23.8965H11.7046ZM20.5063 23.248C20.5551 22.9515 20.9122 21.2695 23.0425 18.2822L24.0386 16.9844C25.1765 15.499 25.8773 13.7252 26.063 11.8633C26.2486 10.0012 25.9108 8.12331 25.0884 6.44238C24.266 4.7618 22.9915 3.34381 21.4077 2.34766C19.8236 1.35139 17.9929 0.815932 16.1216 0.802734C14.2505 0.789545 12.4128 1.29881 10.8149 2.27246C9.21706 3.24623 7.92172 4.64639 7.07568 6.31543C6.22965 7.98459 5.86557 9.85715 6.0249 11.7217C6.18425 13.5862 6.86109 15.3697 7.97803 16.8711L7.979 16.873C8.01907 16.9265 8.24364 17.2138 8.45459 17.4844C8.56286 17.6232 8.67096 17.7619 8.75635 17.8721C8.7991 17.9273 8.83595 17.9744 8.86377 18.0107C8.87763 18.0288 8.88859 18.0436 8.89697 18.0547C8.90348 18.0633 8.9067 18.068 8.90771 18.0693L8.91064 18.0732C11.1775 21.1988 11.5493 22.9511 11.5981 23.249L11.6011 23.2725L11.5005 22.9062C11.3058 22.2052 10.6996 20.5606 8.896 18.0752L8.89502 18.0732L8.42236 17.4648L7.9624 16.873C6.84823 15.3742 6.17234 13.5949 6.01025 11.7344C5.84822 9.87339 6.20669 8.00411 7.04541 6.33496C7.88433 4.66558 9.17094 3.26187 10.7612 2.28125C12.3512 1.30083 14.1823 0.781391 16.0503 0.78125C18.7224 0.784504 21.2839 1.84785 23.1733 3.7373C25.0627 5.62676 26.1262 8.18829 26.1294 10.8604V10.8613C26.1365 13.075 25.4071 15.2289 24.0562 16.9824C24.0227 17.0251 23.2722 17.9865 23.1597 18.1426C21.3944 20.5897 20.7967 22.2108 20.603 22.9053L20.5063 23.248Z" fill="white" stroke="white" stroke-width="1.5625"/>
<path d="M18.5889 28.8828V29.3965C18.5889 29.4859 18.5535 29.5725 18.4902 29.6357C18.4271 29.6988 18.3412 29.7343 18.252 29.7344H14.0771C14.0328 29.7345 13.9883 29.7259 13.9473 29.709C13.9063 29.6921 13.8692 29.667 13.8379 29.6357C13.8066 29.6045 13.7816 29.5672 13.7646 29.5264C13.748 29.4862 13.7396 29.4429 13.7393 29.3994L13.7402 28.8828H18.5889ZM6.2168 22.082C6.46941 22.0975 6.70724 22.2084 6.88086 22.3926C7.03281 22.5538 7.12619 22.7608 7.14746 22.9795L7.15137 23.0742V25.7842C7.1509 26.0478 7.04672 26.3008 6.86035 26.4873C6.67381 26.6739 6.4201 26.7789 6.15625 26.7793H1.77637L1.67871 26.7744C1.45085 26.7517 1.23661 26.6506 1.07324 26.4873C0.909934 26.324 0.808964 26.1096 0.786133 25.8818L0.78125 25.7832V23.0732C0.781673 22.8093 0.886573 22.5558 1.07324 22.3691C1.23657 22.2059 1.45092 22.105 1.67871 22.082L1.77734 22.0771H5.55371V22.041L6.2168 22.082ZM1.77637 22.0947C1.51731 22.0947 1.26819 22.1977 1.08496 22.3809C0.901734 22.5641 0.798828 22.8131 0.798828 23.0723V25.7842C0.79883 26.0431 0.901947 26.2914 1.08496 26.4746C1.2682 26.6578 1.51726 26.7607 1.77637 26.7607H6.15918C6.41813 26.7606 6.66647 26.6578 6.84961 26.4746C7.03271 26.2914 7.13574 26.0432 7.13574 25.7842V23.0723C7.13574 22.8131 7.03284 22.5641 6.84961 22.3809C6.66649 22.1979 6.41802 22.0948 6.15918 22.0947H1.77637Z" fill="white" stroke="white" stroke-width="1.5625"/>
<path d="M17.7705 6.59961L16.3682 10.2881C16.3012 10.4641 16.2774 10.6538 16.2998 10.8408C16.3222 11.028 16.3903 11.207 16.4971 11.3623C16.6038 11.5175 16.7465 11.6444 16.9131 11.7324C17.0798 11.8204 17.2656 11.8666 17.4541 11.8672H19.0889L15.6162 17.9219L16.1055 15.3848V15.3838C16.1296 15.2574 16.1332 15.1278 16.1152 15.001L16.0898 14.876L16.0518 14.7529C16.0216 14.673 15.9824 14.5968 15.9355 14.5254L15.8594 14.4229L15.7725 14.3281C15.7114 14.2688 15.6438 14.2165 15.5713 14.1719L15.459 14.1104L15.3398 14.0625C15.2188 14.0208 15.0915 13.9993 14.9629 13.999H12.6084L14.1777 6.59961H17.7705Z" fill="white" stroke="white" stroke-width="1.2"/>
</svg>
