<svg width="27" height="35" viewBox="0 0 27 35" fill="none" xmlns="http://www.w3.org/2000/svg">
<path d="M16.0512 5.62992e-10C14.038 -2.04943e-05 12.0645 0.559522 10.3509 1.61615C8.63738 2.67278 7.25125 4.18491 6.3473 5.98369C5.44336 7.78248 5.05718 9.79711 5.2319 11.8027C5.40662 13.8082 6.13535 15.7257 7.33672 17.3411C7.41749 17.4491 8.19974 18.4464 8.26383 18.5342C10.0197 20.9538 10.5807 22.5148 10.7475 23.1153H10.6079C10.5491 23.1152 10.4907 23.1267 10.4363 23.1491C10.3819 23.1716 10.3324 23.2046 10.2908 23.2461C10.2491 23.2877 10.216 23.3371 10.1935 23.3915C10.1709 23.4459 10.1593 23.5042 10.1593 23.5631V26.3944C10.1593 26.5134 10.2066 26.6275 10.2907 26.7117C10.3748 26.7958 10.4889 26.843 10.6079 26.843H21.7165C21.7754 26.843 21.8337 26.8314 21.8881 26.8089C21.9424 26.7863 21.9918 26.7533 22.0334 26.7116C22.075 26.6699 22.108 26.6205 22.1304 26.566C22.1529 26.5116 22.1644 26.4533 22.1643 26.3944V23.5631C22.1643 23.5043 22.1527 23.446 22.1302 23.3917C22.1077 23.3374 22.0747 23.288 22.0331 23.2465C21.9915 23.2049 21.9422 23.1719 21.8879 23.1494C21.8335 23.1269 21.7753 23.1153 21.7165 23.1153H21.3557C21.5216 22.5201 22.0747 20.9819 23.7928 18.6001C23.8894 18.4657 24.6295 17.5167 24.6708 17.464C26.1301 15.5722 26.918 13.2485 26.9104 10.8593C26.9069 7.98027 25.7617 5.2202 23.726 3.18445C21.6902 1.1487 18.9301 0.00348503 16.0512 5.62992e-10ZM23.418 16.5053C23.3785 16.5571 22.6182 17.5325 22.5128 17.6791C20.2302 20.8397 19.8079 22.6834 19.7359 23.1223H12.3691C12.2971 22.6834 11.8678 20.8195 9.54299 17.6141C9.46748 17.5088 8.67295 16.4956 8.60447 16.4043C7.57423 15.0195 6.9506 13.3748 6.80364 11.655C6.65668 9.93525 6.99223 8.20858 7.77257 6.66901C8.55291 5.12945 9.74712 3.838 11.221 2.93979C12.6949 2.04157 14.3901 1.57218 16.1161 1.58435C17.8421 1.59652 19.5305 2.08978 20.9916 3.0087C22.4527 3.92761 23.6286 5.23577 24.3871 6.78619C25.1456 8.33661 25.4568 10.0678 25.2856 11.7854C25.1144 13.5029 24.4676 15.1386 23.418 16.5088V16.5053Z" fill="#144C84"/>
<path d="M12.9575 29.3969C12.9575 29.544 12.9865 29.6897 13.0429 29.8255C13.0993 29.9614 13.1819 30.0848 13.2861 30.1887C13.3902 30.2926 13.5138 30.375 13.6498 30.431C13.7858 30.4871 13.9316 30.5157 14.0787 30.5154H15.4193V31.7515C15.4193 32.2172 15.2343 32.6638 14.905 32.9931C14.5757 33.3224 14.1291 33.5074 13.6634 33.5074H6.46867C6.00298 33.5074 5.55637 33.3224 5.22707 32.9931C4.89778 32.6638 4.71279 32.2172 4.71279 31.7515V27.5602H6.15788C6.62863 27.5595 7.07988 27.3722 7.41267 27.0392C7.74546 26.7063 7.93261 26.2549 7.93308 25.7842V23.0722C7.93214 22.6204 7.75914 22.1859 7.44927 21.8572C7.13941 21.5284 6.71593 21.33 6.26499 21.3023V19.5596H4.77249V21.2961H3.3353V19.5596H1.8428V21.2961H1.77607C1.30524 21.2968 0.853898 21.4842 0.52097 21.8171C0.188042 22.15 0.000696668 22.6014 0 23.0722V25.7842C0.000464859 26.2551 0.187736 26.7066 0.520714 27.0395C0.853691 27.3725 1.30517 27.5598 1.77607 27.5602H3.22117V31.7515C3.22117 32.6131 3.56341 33.4393 4.1726 34.0485C4.78178 34.6577 5.60802 34.9999 6.46955 34.9999H13.6625C14.524 34.9999 15.3503 34.6577 15.9595 34.0485C16.5687 33.4393 16.9109 32.6131 16.9109 31.7515V30.5154H18.2515C18.5482 30.5154 18.8327 30.3976 19.0424 30.1878C19.2522 29.978 19.37 29.6935 19.37 29.3969V28.1019H12.961L12.9575 29.3969ZM1.58029 25.7842V23.0722C1.58029 23.0203 1.60092 22.9705 1.63764 22.9338C1.67435 22.8971 1.72415 22.8764 1.77607 22.8764H6.15876C6.21068 22.8764 6.26048 22.8971 6.29719 22.9338C6.33391 22.9705 6.35454 23.0203 6.35454 23.0722V25.7842C6.35454 25.8361 6.33391 25.8859 6.29719 25.9226C6.26048 25.9593 6.21068 25.98 6.15876 25.98H1.77607C1.72415 25.98 1.67435 25.9593 1.63764 25.9226C1.60092 25.8859 1.58029 25.8361 1.58029 25.7842Z" fill="#144C84"/>
<path d="M17.7705 6.59961L16.3682 10.2881C16.3012 10.4641 16.2774 10.6538 16.2998 10.8408C16.3222 11.028 16.3903 11.207 16.4971 11.3623C16.6038 11.5175 16.7465 11.6444 16.9131 11.7324C17.0798 11.8204 17.2656 11.8666 17.4541 11.8672H19.0889L15.6162 17.9219L16.1055 15.3848V15.3838C16.1296 15.2574 16.1332 15.1278 16.1152 15.001L16.0898 14.876L16.0518 14.7529C16.0216 14.673 15.9824 14.5968 15.9355 14.5254L15.8594 14.4229L15.7725 14.3281C15.7114 14.2688 15.6438 14.2165 15.5713 14.1719L15.459 14.1104L15.3398 14.0625C15.2188 14.0208 15.0915 13.9993 14.9629 13.999H12.6084L14.1777 6.59961H17.7705Z" stroke="#144C84" stroke-width="1.2"/>
</svg>
