<svg width="23" height="29" viewBox="0 0 23 29" fill="none" xmlns="http://www.w3.org/2000/svg">
<path d="M13.2995 4.66479e-10C11.6315 -1.6981e-05 9.99628 0.463604 8.57647 1.3391C7.15667 2.21459 6.00816 3.4675 5.25917 4.95792C4.51019 6.44834 4.19022 8.11761 4.33498 9.77935C4.47975 11.4411 5.08355 13.0299 6.07898 14.3683C6.1459 14.4578 6.79405 15.2842 6.84715 15.3569C8.30202 17.3617 8.76686 18.6551 8.90507 19.1527H8.78941C8.74063 19.1526 8.69231 19.1621 8.64721 19.1807C8.60212 19.1993 8.56113 19.2266 8.5266 19.2611C8.49208 19.2955 8.46469 19.3365 8.446 19.3815C8.42731 19.4266 8.41769 19.4749 8.41769 19.5237V21.8697C8.41769 21.9682 8.45685 22.0628 8.52656 22.1325C8.59627 22.2022 8.69082 22.2414 8.78941 22.2414H17.9937C18.0424 22.2414 18.0908 22.2318 18.1358 22.2131C18.1809 22.1944 18.2218 22.167 18.2563 22.1325C18.2907 22.0979 18.318 22.057 18.3366 22.0119C18.3552 21.9668 18.3648 21.9184 18.3647 21.8697V19.5237C18.3647 19.475 18.3551 19.4267 18.3364 19.3817C18.3178 19.3367 18.2904 19.2958 18.256 19.2613C18.2215 19.2269 18.1807 19.1996 18.1356 19.1809C18.0906 19.1623 18.0424 19.1527 17.9937 19.1527H17.6947C17.8322 18.6595 18.2905 17.385 19.7141 15.4115C19.7941 15.3002 20.4073 14.5138 20.4415 14.4702C21.6506 12.9027 22.3035 10.9773 22.2972 8.99767C22.2943 6.61222 21.3454 4.32531 19.6586 2.63855C17.9719 0.951781 15.685 0.0028876 13.2995 4.66479e-10ZM19.4034 13.6758C19.3707 13.7187 18.7407 14.5269 18.6535 14.6484C16.7621 17.2672 16.4122 18.7948 16.3526 19.1585H10.2486C10.189 18.7948 9.83328 17.2504 7.90703 14.5946C7.84447 14.5073 7.18614 13.6678 7.1294 13.5922C6.27577 12.4447 5.75904 11.082 5.63728 9.65701C5.51552 8.23206 5.79354 6.80139 6.44011 5.52575C7.08667 4.25012 8.07617 3.18006 9.2974 2.43583C10.5186 1.69159 11.9232 1.30266 13.3533 1.31275C14.7834 1.32283 16.1824 1.73153 17.393 2.49292C18.6036 3.25431 19.5779 4.33821 20.2064 5.62284C20.8349 6.90747 21.0928 8.34192 20.9509 9.76501C20.8091 11.1881 20.2732 12.5434 19.4034 13.6787V13.6758Z" fill="white"/>
<path d="M10.7362 24.3577C10.7362 24.4796 10.7603 24.6003 10.807 24.7129C10.8537 24.8255 10.9222 24.9277 11.0085 25.0138C11.0947 25.0999 11.1972 25.1681 11.3099 25.2146C11.4225 25.261 11.5433 25.2848 11.6652 25.2845H12.776V26.3087C12.776 26.6946 12.6227 27.0646 12.3499 27.3375C12.077 27.6103 11.707 27.7636 11.3211 27.7636H5.35976C4.9739 27.7636 4.60385 27.6103 4.331 27.3375C4.05816 27.0646 3.90488 26.6946 3.90488 26.3087V22.8359H5.10224C5.49229 22.8353 5.86619 22.6801 6.14193 22.4042C6.41767 22.1283 6.57274 21.7544 6.57312 21.3643V19.1173C6.57234 18.7429 6.429 18.3829 6.17226 18.1105C5.91551 17.8381 5.56463 17.6737 5.19099 17.6507V16.2068H3.95435V17.6457H2.76353V16.2068H1.52689V17.6457H1.47161C1.08149 17.6462 0.707515 17.8015 0.431661 18.0773C0.155807 18.3532 0.000577239 18.7271 0 19.1173V21.3643C0.000385169 21.7545 0.155552 22.1286 0.431448 22.4045C0.707344 22.6804 1.08143 22.8355 1.47161 22.8359H2.66897V26.3087C2.66897 27.0225 2.95254 27.7071 3.45729 28.2119C3.96205 28.7166 4.64665 29.0002 5.36048 29.0002H11.3204C12.0342 29.0002 12.7188 28.7166 13.2236 28.2119C13.7283 27.7071 14.0119 27.0225 14.0119 26.3087V25.2845H15.1227C15.3685 25.2845 15.6042 25.1868 15.778 25.013C15.9518 24.8392 16.0494 24.6035 16.0494 24.3577V23.2847H10.7392L10.7362 24.3577ZM1.30939 21.3643V19.1173C1.30939 19.0742 1.32648 19.033 1.3569 19.0026C1.38732 18.9721 1.42858 18.955 1.47161 18.955H5.10297C5.14599 18.955 5.18725 18.9721 5.21768 19.0026C5.2481 19.033 5.26519 19.0742 5.26519 19.1173V21.3643C5.26519 21.4073 5.2481 21.4486 5.21768 21.479C5.18725 21.5094 5.14599 21.5265 5.10297 21.5265H1.47161C1.42858 21.5265 1.38732 21.5094 1.3569 21.479C1.32648 21.4486 1.30939 21.4073 1.30939 21.3643Z" fill="white"/>
<path d="M16.1192 9.61877H14.7203C14.6445 9.61855 14.57 9.59995 14.503 9.56457C14.436 9.52919 14.3785 9.47809 14.3356 9.41565C14.2927 9.35321 14.2656 9.28129 14.2566 9.20606C14.2475 9.13083 14.2569 9.05454 14.2839 8.98372L15.4601 5.8892C15.4871 5.81839 15.4964 5.74209 15.4874 5.66686C15.4784 5.59164 15.4513 5.51972 15.4083 5.45727C15.3654 5.39483 15.308 5.34373 15.241 5.30835C15.174 5.27297 15.0994 5.25438 15.0237 5.25415H11.9808C11.8734 5.254 11.7693 5.29079 11.6858 5.35834C11.6024 5.4259 11.5447 5.5201 11.5225 5.62514L10.2102 11.8127C10.1957 11.881 10.1966 11.9516 10.2129 12.0195C10.2292 12.0874 10.2604 12.1508 10.3043 12.205C10.3483 12.2593 10.4038 12.303 10.4668 12.333C10.5298 12.3631 10.5987 12.3787 10.6685 12.3787H12.6537C12.7226 12.3788 12.7907 12.3942 12.8531 12.4237C12.9155 12.4532 12.9706 12.4961 13.0145 12.5493C13.0584 12.6025 13.09 12.6647 13.1071 12.7315C13.1242 12.7984 13.1263 12.8681 13.1134 12.9359L12.6224 15.4885C12.5329 15.9547 13.1636 16.1883 13.3993 15.7794L16.5273 10.3237C16.5693 10.2523 16.5916 10.171 16.5919 10.0881C16.5921 10.0053 16.5704 9.92383 16.5289 9.85213C16.4874 9.78043 16.4276 9.72105 16.3556 9.68004C16.2836 9.63904 16.202 9.6179 16.1192 9.61877Z" fill="white"/>
</svg>
