<svg width="84" height="84" viewBox="0 0 84 84" fill="none" xmlns="http://www.w3.org/2000/svg">
<path d="M52.7292 49.9828L53.353 49.1448C54.3864 47.7562 56.3507 47.4678 57.7393 48.5012L61.0923 50.9963C62.4809 52.0297 62.7693 53.994 61.7359 55.3826L61.1121 56.2206C60.0788 57.6092 58.1144 57.8976 56.7258 56.8642L53.3729 54.3691C51.9842 53.3347 51.6959 51.3714 52.7292 49.9828Z" stroke="white" stroke-width="3" stroke-miterlimit="10" stroke-linecap="round" stroke-linejoin="round"/>
<path d="M58.7728 45.3624L56.7949 48.0205" stroke="white" stroke-width="3" stroke-miterlimit="10" stroke-linecap="round" stroke-linejoin="round"/>
<path d="M63.8012 49.1051L61.8232 51.7632" stroke="white" stroke-width="3" stroke-miterlimit="10" stroke-linecap="round" stroke-linejoin="round"/>
<path d="M45.5044 48.3549C55.4953 35.0769 68.2321 21.1866 62.8783 16.0009C57.4534 10.4757 37.8665 18.0645 26.1328 28.8098C13.909 39.0609 21.736 50.4697 23.9887 52.7507C26.5507 55.2792 36.0976 61.866 45.5044 48.3549Z" stroke="white" stroke-width="3" stroke-miterlimit="10" stroke-linecap="round"/>
<path d="M51.7837 23.9617C41.4532 32.1304 32.1352 41.742 24.3186 52.3055C21.2634 56.4337 21.7587 62.1961 25.3896 65.8281C27.7018 68.1403 30.8375 69.4391 34.1068 69.4391H34.1089C38.9581 69.4391 43.6087 67.5124 47.038 64.0831C49.555 61.5661 51.9875 58.9644 54.33 56.2833L54.9663 55.555" stroke="white" stroke-width="3" stroke-miterlimit="10" stroke-linecap="round" stroke-linejoin="round"/>
<path d="M40.4346 26.0441C41.0092 28.092 41.5912 30.1535 42.1868 32.2369C44.3256 32.8733 46.4634 33.5033 48.6106 34.1365" stroke="white" stroke-width="3" stroke-miterlimit="10" stroke-linecap="round"/>
<path d="M32.2754 31.2736C33.5574 33.5555 34.8583 35.8626 36.1832 38.1989C38.4808 39.5133 40.7607 40.8058 43.0301 42.0805" stroke="white" stroke-width="3" stroke-miterlimit="10" stroke-linecap="round"/>
<path d="M26.7676 39.1602C27.7633 41.1715 28.7873 43.2142 29.8457 45.2914C31.808 46.2903 33.7441 47.2588 35.6593 48.2034" stroke="white" stroke-width="3" stroke-miterlimit="10" stroke-linecap="round"/>
</svg>
