<svg width="526" height="174" viewBox="0 0 526 174" fill="none" xmlns="http://www.w3.org/2000/svg">
<path d="M307.575 9.22327V19.0094H319.591V81.8864H282.491V19.0094H294.507V9.22327H307.575Z" stroke="#23B53E" stroke-width="2"/>
<path d="M300.974 45.9316L300.715 46.8916L301.673 47.1562L309.369 49.2861L299.217 64.3809L301.129 53.1064L301.279 52.2168L300.409 51.9756L292.765 49.8584L304.152 34.1611L300.974 45.9316Z" stroke="#23B53E" stroke-width="2"/>
<g clip-path="url(#clip0_3118_1155)">
<path d="M141.157 171.551H57.8461V169.057H90.9981V157.697H67.8047C67.1096 157.697 66.5473 157.139 66.5473 156.45V114.886C66.5473 114.197 67.1096 113.639 67.8047 113.639H130.678C131.373 113.639 131.936 114.197 131.936 114.886V156.45C131.936 157.139 131.373 157.697 130.678 157.697H107.485V169.054H141.157V171.551ZM100.499 169.057H104.966V157.697H100.499V169.057ZM93.513 169.057H97.9805V157.697H93.513V169.057ZM110.978 155.203H129.417V136.915H110.978V155.203ZM90.02 155.203H108.463V136.915H90.02V155.203ZM69.0622 155.203H87.5051V136.915H69.0622V155.203ZM110.978 134.421H129.417V116.133H110.978V134.421ZM90.02 134.421H108.463V116.133H90.02V134.421ZM69.0622 134.421H87.5051V116.133H69.0622V134.421Z" fill="#17447A"/>
</g>
<g clip-path="url(#clip1_3118_1155)">
<path d="M52.8444 114.505L68.2803 97.4159C68.9694 96.7267 68.9694 95.4863 68.1425 94.6594L65.1104 91.6275C64.4212 90.9383 63.1809 90.9383 62.3539 91.6275L45.5401 106.925C44.4449 108.021 43.7584 109.252 43.7493 110.754C42.965 110.506 42.1315 110.371 41.2678 110.371C40.4518 110.371 39.6633 110.493 38.9173 110.715C38.7691 109.227 38.219 107.875 37.1332 106.925L20.1812 91.6275C19.4921 90.9383 18.2517 90.9383 17.4248 91.7652L14.3928 94.7974C13.7037 95.4865 13.7037 96.7269 14.3928 97.5538L29.6908 114.368C30.7249 115.402 31.8803 116.072 33.3843 116.151C33.1343 116.938 32.9984 117.774 32.9984 118.64C32.9984 119.586 33.1617 120.496 33.4579 121.345C32.1983 121.567 31.0684 122.106 30.2422 123.05L15.2199 139.588C14.393 140.553 14.393 142.207 15.3577 143.172L17.5627 145.377C17.9762 145.928 18.6653 146.204 19.3543 146.204C20.0433 146.204 20.5947 146.066 21.1459 145.515L36.1398 131.895L33.1199 162.742H27.4857C26.6588 162.742 26.1076 163.293 26.1076 164.12V172.389C26.1076 173.216 26.6588 173.768 27.4857 173.768H55.0496C55.8765 173.768 56.4278 173.216 56.4278 172.389V164.12C56.4278 163.293 55.8765 162.742 55.0496 162.742H49.4155L46.382 131.758L61.5272 145.515C62.0784 145.928 62.6298 146.204 63.3188 146.204C63.87 146.204 64.5592 146.066 65.1104 145.377L67.3154 143.172C68.2801 142.207 68.418 140.553 67.4532 139.589L52.431 123.05C51.4584 122.078 50.3784 121.428 49.0968 121.288C49.3804 120.455 49.5368 119.565 49.5368 118.64C49.5368 117.819 49.4138 117.025 49.1882 116.275C50.624 116.108 51.923 115.559 52.8444 114.505ZM46.7805 118.64C46.7805 119.927 46.3325 121.113 45.5863 122.054C45.2809 122.258 44.9884 122.499 44.7132 122.775C44.5719 122.916 44.4406 123.067 44.3173 123.225C44.2337 123.281 44.1482 123.334 44.0617 123.386C43.9573 123.403 43.8528 123.429 43.7485 123.464C42.0947 124.29 40.4408 124.29 38.787 123.464C38.6651 123.382 38.5433 123.328 38.4214 123.295C38.28 123.116 38.1273 122.942 37.9601 122.774C37.6401 122.454 37.2739 122.181 36.873 121.957C36.1722 121.033 35.7549 119.883 35.7549 118.64C35.7549 115.608 38.2356 113.127 41.2676 113.127C44.2996 113.127 46.7805 115.608 46.7805 118.64ZM31.7581 112.576L16.8736 96.1755L18.9409 94.1082L35.3414 108.993C35.8926 109.406 36.1683 110.095 36.1683 110.784C36.3061 111.611 36.0306 112.162 35.4792 112.714C34.928 113.127 34.2388 113.403 33.5497 113.403C32.8605 113.403 32.1715 113.127 31.7581 112.576ZM35.7549 128.563L19.3543 143.447L17.287 141.38L32.1715 124.98C32.585 124.428 33.2741 124.153 33.9631 124.153C34.4562 124.054 34.949 124.168 35.3915 124.442C35.588 124.641 35.7938 124.831 36.0094 125.009C36.3565 125.53 36.5818 126.15 36.5818 126.771C36.5818 127.461 36.3061 128.15 35.7549 128.563ZM53.6713 171.011H28.8639V165.499H34.3766H48.1585H53.6712V171.011H53.6713ZM35.8926 162.742L39.3839 127.561C39.4385 127.287 39.4694 127.004 39.4739 126.71C40.0521 126.839 40.6519 126.909 41.2678 126.909C41.9333 126.909 42.5803 126.827 43.2013 126.677L46.6427 162.742H35.8926ZM65.3861 141.38L63.3188 143.447L46.9182 128.563C46.367 128.15 46.0913 127.46 46.0913 126.771C45.9536 125.944 46.2291 125.393 46.7805 124.842C47.1939 124.428 47.8831 124.153 48.5721 124.153C49.2611 124.153 49.9502 124.428 50.5016 124.98L65.3861 141.38ZM49.1233 113.403C48.2964 113.541 47.7452 113.265 47.1938 112.714C46.6424 112.162 46.3669 111.611 46.3669 110.784C46.3669 110.095 46.6425 109.406 47.1938 108.993L63.5943 94.1082L65.6616 96.1755L50.9151 112.576C50.5016 113.127 49.8124 113.403 49.1233 113.403Z" fill="#144C84"/>
</g>
<g clip-path="url(#clip2_3118_1155)">
<path d="M513.318 105.415C513.484 104.227 512.132 103.703 511.678 103.53L491.25 95.7346C490.215 95.3408 488.691 94.2398 487.995 93.3791L487.122 92.3043C486.494 91.5348 485.649 91.1107 484.743 91.1107C483.792 91.1107 482.898 91.5914 482.286 92.4231L481.822 93.0544C481.176 93.9345 479.718 95.0493 478.699 95.4417L457.664 103.525C457.213 103.7 455.866 104.225 456.028 105.409C456.027 105.444 456.007 105.473 456.007 105.509V113.372C456.007 114.037 456.545 114.573 457.209 114.573C457.874 114.573 458.41 114.035 458.41 113.372V106.709H477.039L465.418 172.359C465.302 173.012 465.739 173.635 466.393 173.748C467.043 173.869 467.667 173.429 467.783 172.777L470.55 157.15H498.922L502.052 172.804C502.168 173.373 502.668 173.768 503.229 173.768C503.307 173.768 503.386 173.761 503.465 173.743C504.116 173.613 504.538 172.982 504.41 172.332L491.301 106.709H510.933V113.372C510.933 114.037 511.472 114.573 512.134 114.573C512.8 114.573 513.337 114.035 513.337 113.372V105.509C513.338 105.474 513.321 105.447 513.318 105.415ZM475.933 126.755H481.788L474.283 136.061L475.933 126.755ZM474.799 139.252L484.318 127.443L494.239 139.252H474.799ZM491.592 141.653L484.394 145.865L476.883 141.653H491.592ZM473.174 142.327L481.992 147.27L471.182 153.595L473.174 142.327ZM473.977 154.744L484.419 148.633L495.317 154.744H473.977ZM498.221 153.62L486.822 147.228L495.886 141.924L498.221 153.62ZM494.721 136.093L486.876 126.756H492.855L494.721 136.093ZM492.375 124.353H476.357L479.319 107.62H489.034L492.375 124.353ZM462.325 104.308L479.559 97.6825C481 97.1299 482.846 95.7194 483.759 94.476L484.222 93.846C484.533 93.4205 484.929 93.4192 485.258 93.8212L486.131 94.8946C487.095 96.0813 488.97 97.4366 490.394 97.9795L506.981 104.308H462.325Z" fill="#144C84"/>
</g>
<path d="M262.393 41.3733L259.666 46.462L256.622 41.5556L262.393 41.3733ZM169.008 99.296L168.744 98.8711L258.305 43.3204L258.569 43.7453L258.832 44.1702L169.271 99.7209L169.008 99.296Z" fill="#144C84"/>
<path d="M436.161 99.296L433.433 94.2073L430.39 99.1137L436.161 99.296ZM342.775 41.3733L345.503 46.462L348.546 41.5556L342.775 41.3733ZM432.337 96.924L432.6 96.4991L346.863 43.3204L346.6 43.7453L346.336 44.1702L432.073 97.3489L432.337 96.924Z" fill="#144C84"/>
<path d="M435.828 132.439L430.828 129.552V135.326L435.828 132.439ZM168.132 132.439V132.939H431.328V132.439V131.939H168.132V132.439Z" fill="#144C84"/>
<defs>
<clipPath id="clip0_3118_1155">
<rect width="111.775" height="110.836" fill="white" transform="translate(32.875 62.9321)"/>
</clipPath>
<clipPath id="clip1_3118_1155">
<rect width="82.6571" height="82.6571" fill="white" transform="translate(0 91.1107)"/>
</clipPath>
<clipPath id="clip2_3118_1155">
<rect width="82.6571" height="82.6571" fill="white" transform="translate(443.343 91.1107)"/>
</clipPath>
</defs>
</svg>
