<svg width="48" height="49" viewBox="0 0 48 49" fill="none" xmlns="http://www.w3.org/2000/svg">
<path d="M25.3189 0.0205791C25.8838 0.164636 26.5294 0.144057 27.1144 0.246955C31.109 0.843763 36.1525 3.18984 38.8761 6.27677C39.905 7.42923 38.9568 9.13734 37.484 8.70516C36.9192 8.54053 36.6973 8.08778 36.2938 7.71735C33.5904 5.41243 30.6449 3.70433 27.0942 3.16926C27.3968 4.19824 27.6591 5.22722 27.8205 6.29735C28.4056 9.91936 28.3249 13.8295 27.7196 17.4515C27.6591 17.8425 27.3364 18.6657 27.3767 19.0155C27.3767 19.1596 27.8407 19.921 28.0021 20.0034C32.5413 21.4851 38.0489 24.3251 41.1558 28.0911C43.718 31.1781 42.2452 33.0097 40.026 35.6438C37.4437 38.7102 33.893 41.0563 30.0801 42.2087L30.7458 46.1189H46.8248C48.4791 46.5099 48.3581 48.8148 46.6432 49H1.35171C0.625434 48.9177 0.322791 48.5678 0 47.9504V47.189C0.302616 46.6128 0.585068 46.2423 1.271 46.1394H17.2693L20.2753 28.7291L16.2404 31.1781C14.001 32.3305 8.13031 35.1088 6.07252 32.845C4.84188 31.4868 3.55067 27.2474 3.24805 25.3952C2.82439 22.8022 2.74371 18.4393 3.71209 15.9698C4.21645 14.6938 5.95142 14.735 6.33474 15.9286C6.57683 16.69 5.93127 18.7274 5.85057 19.6741C5.64883 21.6703 5.76988 23.7077 6.17337 25.6422C6.23389 25.9303 6.75842 28.0294 6.91981 28.0294C10.5109 24.181 15.2115 21.5262 20.1341 19.9005C20.2148 19.8181 20.6385 19.0773 20.6385 18.995C20.6788 18.6657 20.356 17.8425 20.2955 17.4309C19.6499 13.6443 19.5894 9.40487 20.2955 5.61823C20.6788 3.58085 21.4252 0.596808 23.6444 0H25.3391L25.3189 0.0205791ZM24.1085 3.27215C23.9471 3.1281 23.7251 3.74548 23.6847 3.84838C22.555 6.54431 22.4541 11.4011 22.6962 14.3234C22.7164 14.6732 23.0594 17.4103 23.2208 17.4309C23.7857 17.2663 24.2698 17.328 24.8347 17.4309C25.682 12.8211 25.7627 7.69677 24.0883 3.27215H24.1085ZM25.0163 20.6207C23.7049 19.2831 21.7077 21.341 23.019 22.6581C24.3304 23.9752 26.3276 21.9378 25.0163 20.6207ZM8.45309 30.8076C10.0872 30.7253 11.6406 30.1285 13.1134 29.4905C15.8974 28.2764 18.4596 26.5682 20.7998 24.5926C20.8603 24.5309 20.82 24.4691 20.7998 24.4074C20.7191 24.1193 20.0735 23.3578 19.9525 22.9874C16.8456 24.1604 13.8397 25.7451 11.2372 27.8648C10.1881 28.7085 9.15921 29.6552 8.47328 30.8282L8.45309 30.8076ZM39.5822 30.8076C38.9164 29.614 37.8472 28.6879 36.8183 27.8442C34.2158 25.7245 31.2098 24.1399 28.103 22.9668L27.2153 24.572C28.0021 25.1483 28.7284 25.8068 29.5152 26.383C31.1291 27.5355 33.1062 28.6879 34.9219 29.47C36.3946 30.1079 37.9682 30.7047 39.5822 30.7871V30.8076ZM20.0736 46.1189H27.9416L24.3707 25.9509H23.6847L20.0736 46.1189ZM38.0893 33.5036C35.4666 33.0508 33.0457 31.816 30.7055 30.5607L27.76 28.7291L29.6967 39.3482C32.965 38.3192 35.9508 36.2407 38.0893 33.5242V33.5036Z" fill="#B1CF95"/>
</svg>
