<svg width="34" height="35" viewBox="0 0 34 35" fill="none" xmlns="http://www.w3.org/2000/svg">
<mask id="path-1-inside-1_3605_15" fill="white">
<path d="M9.42533 0.000846647C12.1292 2.33616 10.917 6.16011 11.2377 9.30064C12.7269 10.3106 14.4578 11.0709 15.9462 12.0622C16.7462 12.5951 17.4404 13.2997 17.8761 14.17C18.5333 15.4861 18.5594 16.1484 16.9107 16.277C14.5518 16.4605 13.0677 15.1512 11.1403 14.0829V23.7802L12.4104 19.2483C12.6413 18.8457 12.988 18.4854 13.4438 18.3628L29.3043 18.3306C29.7954 18.3162 30.1841 18.6503 30.4837 19.0022C31.5725 22.322 32.3574 25.7603 33.2841 29.1377C33.3975 29.712 32.6227 30.8209 32.0695 30.8209H24.0603V32.6808H33.3228C33.3975 32.6808 33.6636 32.9371 33.7013 33.0301C33.8457 33.3871 33.7442 33.7745 33.405 33.9589C22.4913 34.0781 11.5475 33.9715 0.62287 34.0121C0.31731 34.035 0.16789 33.821 0 33.6104V33.0792C0.0797476 32.987 0.32067 32.6808 0.428119 32.6808H7.11936V26.0056C7.11936 25.7392 7.54832 25.4406 7.81191 25.4406C8.0755 25.4406 8.50445 25.7392 8.50445 26.0056V32.6808H9.75691V13.3183C9.75691 13.2413 9.23729 12.958 9.13068 12.958C8.98378 12.958 8.53216 13.2362 8.50361 13.3843L8.50697 20.0958C8.5204 20.6989 7.87571 21.0905 7.38043 20.6947C7.29817 20.6287 7.1202 20.38 7.1202 20.2929V14.0821C5.19115 15.1799 3.66587 16.4842 1.29443 16.2651C0.813424 16.2211 0.263588 16.1256 0.000840268 15.6756V15.1444C0.510386 13.5221 1.46736 12.6078 2.85748 11.7451C4.21907 10.9009 5.65453 10.1507 7.04381 9.35476C7.30656 6.21254 6.15568 2.35392 8.83436 0H9.42785L9.42533 0.000846647ZM9.82071 8.30426V3.48901C9.82071 3.29278 9.60749 2.67532 9.52271 2.46048C9.42113 2.2042 9.26919 1.96145 9.12816 1.72801C9.08703 1.72801 8.77224 2.36067 8.73363 2.46048C8.66059 2.6491 8.43562 3.33253 8.43562 3.48901V8.30426C8.87969 8.20023 9.37412 8.20023 9.81987 8.30426H9.82071ZM9.07948 9.58229C8.01254 9.64065 7.92775 11.2638 8.93509 11.4211C10.3647 11.6444 10.3571 9.51208 9.07948 9.58229ZM1.58068 14.8797H2.53681C2.81383 14.8797 3.60963 14.5227 3.88916 14.3832C5.09797 13.7792 6.269 12.9097 7.48117 12.2898L7.57854 12.19C7.20751 11.8922 7.00856 11.4812 6.88684 11.027C5.71413 11.7383 4.42474 12.3617 3.27469 13.1001C2.53178 13.5771 1.97774 14.0651 1.58068 14.8805V14.8797ZM16.6773 14.8797C16.3844 14.2292 15.8857 13.7091 15.3141 13.298L11.372 11.0261C11.3032 11.2223 11.2511 11.4169 11.1521 11.6038C11.0287 11.8373 10.8297 11.9954 10.7097 12.2238C12.3626 13.1102 13.9097 14.3544 15.7212 14.8797H16.6773ZM16.5455 19.6619H13.8761C13.798 19.6619 13.678 19.8057 13.6394 19.8886C13.3682 20.4672 13.3128 21.4339 13.0526 22.0539H16.2165L16.5464 19.6628L16.5455 19.6619ZM20.8301 19.6619H17.9298L17.5999 22.0531H20.8301V19.6619ZM25.1155 19.6619H22.2152V22.0531H25.3791L25.1155 19.6619ZM29.9935 22.0531C29.6938 21.4534 29.667 20.4012 29.3857 19.8429C29.353 19.7787 29.2212 19.6619 29.17 19.6619H26.5006L26.7641 22.0531H29.9943H29.9935ZM16.0175 23.3819H12.7546L12.062 25.773H15.7539L16.0175 23.3819ZM20.8301 23.3819H17.4018L17.1382 25.773H20.8301V23.3819ZM25.5763 23.3819H22.2143V25.773H25.9062L25.5763 23.3819ZM30.9824 25.773L30.2898 23.3819H26.9606L27.2905 25.773H30.9824ZM15.5567 27.1018H11.6675L11.142 29.1351C11.095 29.4447 11.3216 29.4743 11.5659 29.4955C12.7202 29.5978 14.0188 29.4092 15.1898 29.4955L15.5575 27.1001L15.5567 27.1018ZM20.8301 27.1018H16.9409L16.611 29.4929H20.8301V27.1018ZM26.1035 27.1018H22.2143V29.4929H26.4334L26.1035 27.1018ZM27.4886 27.1018L27.8135 29.4642C28.9811 29.4371 30.3242 29.5986 31.4793 29.4963C31.7404 29.4735 31.9251 29.4599 31.8915 29.147C31.8672 28.9245 31.4726 27.4477 31.3828 27.2625C31.3542 27.2033 31.3383 27.1407 31.2787 27.1018H27.4877H27.4886ZM18.9841 30.8209H11.1395V32.6808H18.9841V30.8209ZM22.676 30.8209H20.3684V32.6808H22.676V30.8209Z"/>
</mask>
<path d="M9.42533 0.000846647C12.1292 2.33616 10.917 6.16011 11.2377 9.30064C12.7269 10.3106 14.4578 11.0709 15.9462 12.0622C16.7462 12.5951 17.4404 13.2997 17.8761 14.17C18.5333 15.4861 18.5594 16.1484 16.9107 16.277C14.5518 16.4605 13.0677 15.1512 11.1403 14.0829V23.7802L12.4104 19.2483C12.6413 18.8457 12.988 18.4854 13.4438 18.3628L29.3043 18.3306C29.7954 18.3162 30.1841 18.6503 30.4837 19.0022C31.5725 22.322 32.3574 25.7603 33.2841 29.1377C33.3975 29.712 32.6227 30.8209 32.0695 30.8209H24.0603V32.6808H33.3228C33.3975 32.6808 33.6636 32.9371 33.7013 33.0301C33.8457 33.3871 33.7442 33.7745 33.405 33.9589C22.4913 34.0781 11.5475 33.9715 0.62287 34.0121C0.31731 34.035 0.16789 33.821 0 33.6104V33.0792C0.0797476 32.987 0.32067 32.6808 0.428119 32.6808H7.11936V26.0056C7.11936 25.7392 7.54832 25.4406 7.81191 25.4406C8.0755 25.4406 8.50445 25.7392 8.50445 26.0056V32.6808H9.75691V13.3183C9.75691 13.2413 9.23729 12.958 9.13068 12.958C8.98378 12.958 8.53216 13.2362 8.50361 13.3843L8.50697 20.0958C8.5204 20.6989 7.87571 21.0905 7.38043 20.6947C7.29817 20.6287 7.1202 20.38 7.1202 20.2929V14.0821C5.19115 15.1799 3.66587 16.4842 1.29443 16.2651C0.813424 16.2211 0.263588 16.1256 0.000840268 15.6756V15.1444C0.510386 13.5221 1.46736 12.6078 2.85748 11.7451C4.21907 10.9009 5.65453 10.1507 7.04381 9.35476C7.30656 6.21254 6.15568 2.35392 8.83436 0H9.42785L9.42533 0.000846647ZM9.82071 8.30426V3.48901C9.82071 3.29278 9.60749 2.67532 9.52271 2.46048C9.42113 2.2042 9.26919 1.96145 9.12816 1.72801C9.08703 1.72801 8.77224 2.36067 8.73363 2.46048C8.66059 2.6491 8.43562 3.33253 8.43562 3.48901V8.30426C8.87969 8.20023 9.37412 8.20023 9.81987 8.30426H9.82071ZM9.07948 9.58229C8.01254 9.64065 7.92775 11.2638 8.93509 11.4211C10.3647 11.6444 10.3571 9.51208 9.07948 9.58229ZM1.58068 14.8797H2.53681C2.81383 14.8797 3.60963 14.5227 3.88916 14.3832C5.09797 13.7792 6.269 12.9097 7.48117 12.2898L7.57854 12.19C7.20751 11.8922 7.00856 11.4812 6.88684 11.027C5.71413 11.7383 4.42474 12.3617 3.27469 13.1001C2.53178 13.5771 1.97774 14.0651 1.58068 14.8805V14.8797ZM16.6773 14.8797C16.3844 14.2292 15.8857 13.7091 15.3141 13.298L11.372 11.0261C11.3032 11.2223 11.2511 11.4169 11.1521 11.6038C11.0287 11.8373 10.8297 11.9954 10.7097 12.2238C12.3626 13.1102 13.9097 14.3544 15.7212 14.8797H16.6773ZM16.5455 19.6619H13.8761C13.798 19.6619 13.678 19.8057 13.6394 19.8886C13.3682 20.4672 13.3128 21.4339 13.0526 22.0539H16.2165L16.5464 19.6628L16.5455 19.6619ZM20.8301 19.6619H17.9298L17.5999 22.0531H20.8301V19.6619ZM25.1155 19.6619H22.2152V22.0531H25.3791L25.1155 19.6619ZM29.9935 22.0531C29.6938 21.4534 29.667 20.4012 29.3857 19.8429C29.353 19.7787 29.2212 19.6619 29.17 19.6619H26.5006L26.7641 22.0531H29.9943H29.9935ZM16.0175 23.3819H12.7546L12.062 25.773H15.7539L16.0175 23.3819ZM20.8301 23.3819H17.4018L17.1382 25.773H20.8301V23.3819ZM25.5763 23.3819H22.2143V25.773H25.9062L25.5763 23.3819ZM30.9824 25.773L30.2898 23.3819H26.9606L27.2905 25.773H30.9824ZM15.5567 27.1018H11.6675L11.142 29.1351C11.095 29.4447 11.3216 29.4743 11.5659 29.4955C12.7202 29.5978 14.0188 29.4092 15.1898 29.4955L15.5575 27.1001L15.5567 27.1018ZM20.8301 27.1018H16.9409L16.611 29.4929H20.8301V27.1018ZM26.1035 27.1018H22.2143V29.4929H26.4334L26.1035 27.1018ZM27.4886 27.1018L27.8135 29.4642C28.9811 29.4371 30.3242 29.5986 31.4793 29.4963C31.7404 29.4735 31.9251 29.4599 31.8915 29.147C31.8672 28.9245 31.4726 27.4477 31.3828 27.2625C31.3542 27.2033 31.3383 27.1407 31.2787 27.1018H27.4877H27.4886ZM18.9841 30.8209H11.1395V32.6808H18.9841V30.8209ZM22.676 30.8209H20.3684V32.6808H22.676V30.8209Z" fill="white" stroke="white" stroke-width="2" mask="url(#path-1-inside-1_3605_15)"/>
<path d="M25.6597 0.501709C25.6916 0.52846 25.7109 0.545424 25.7241 0.559326C25.7337 0.569453 25.7371 0.574763 25.7378 0.575928C25.7362 0.573042 25.7366 0.572561 25.7378 0.579834C25.7567 0.702239 25.771 1.07457 25.771 1.49487C25.771 1.91562 25.7567 2.28824 25.7378 2.40991C25.7343 2.43215 25.7271 2.44333 25.7114 2.45581C25.6901 2.47283 25.6496 2.49212 25.5933 2.4978C25.537 2.50345 25.4894 2.49324 25.4604 2.47925C25.4475 2.47293 25.4428 2.46502 25.439 2.46069C25.4381 2.45462 25.4371 2.4475 25.436 2.43921C25.4297 2.38774 25.423 2.31635 25.4175 2.22729C25.4065 2.05012 25.3993 1.8245 25.396 1.59253C25.3927 1.36112 25.3938 1.12776 25.3979 0.937256C25.4 0.842053 25.4023 0.759365 25.4058 0.694092C25.4075 0.661522 25.4098 0.634795 25.4116 0.614014C25.4125 0.60374 25.4129 0.595633 25.4136 0.5896L25.4146 0.580811C25.4158 0.572687 25.4169 0.572315 25.4155 0.574951C25.4165 0.573442 25.4204 0.568645 25.4292 0.559326C25.4423 0.545584 25.4613 0.528611 25.4937 0.501709H25.6597Z" fill="white" stroke="white"/>
<path d="M25.397 4.771C28.1327 4.59698 29.9508 7.70321 28.4751 10.0952C27.1929 12.1739 24.0957 12.2324 22.7476 10.2017C21.2439 7.93577 22.7265 4.94084 25.397 4.771ZM27.644 5.92236C27.063 5.36612 26.2433 5.05974 25.2437 5.16943C24.2856 5.27462 23.5684 5.72746 23.1147 6.36377C22.6684 6.98988 22.4966 7.76469 22.561 8.50244C22.6256 9.24032 22.9294 9.97426 23.4761 10.5142C24.0315 11.0627 24.8139 11.3869 25.772 11.3267C26.7682 11.264 27.5199 10.8201 27.9976 10.1743C28.4665 9.54018 28.6497 8.74211 28.5874 7.98389C28.5251 7.22572 28.2142 6.46842 27.644 5.92236Z" fill="white" stroke="white"/>
<path d="M29.625 12.2593C29.7309 12.235 29.7916 12.2481 29.8428 12.2769C29.8495 12.2827 29.8602 12.2917 29.875 12.3052C29.9135 12.3403 29.9652 12.3897 30.0273 12.4497C30.1511 12.5692 30.3082 12.7241 30.4639 12.8813C30.6194 13.0384 30.7714 13.1956 30.8877 13.3188C30.9461 13.3807 30.9934 13.432 31.0264 13.4692C31.0337 13.4775 31.0399 13.4849 31.0449 13.4907C31.0719 13.5475 31.0749 13.5912 31.0703 13.6226C31.0647 13.661 31.0467 13.6976 31.0186 13.7261C30.9903 13.7546 30.9551 13.7726 30.9199 13.7778C30.892 13.782 30.8516 13.7785 30.7969 13.7524C30.7914 13.7475 30.7846 13.7424 30.7773 13.7358C30.739 13.7007 30.6859 13.6503 30.6221 13.5884C30.495 13.4653 30.3326 13.3038 30.1709 13.1401C30.0091 12.9765 29.8501 12.8125 29.7295 12.6851C29.6691 12.6212 29.6207 12.5686 29.5869 12.5308C29.5839 12.5274 29.5807 12.524 29.5781 12.521C29.56 12.4659 29.5566 12.3927 29.5771 12.3286C29.5881 12.2945 29.6019 12.2757 29.6094 12.2681C29.6144 12.2629 29.6182 12.2609 29.625 12.2593Z" fill="white" stroke="white"/>
<path d="M21.3428 12.2563C21.4787 12.2313 21.5421 12.2774 21.5645 12.3032C21.5839 12.3257 21.6164 12.3849 21.582 12.5015C21.5511 12.5372 21.508 12.5865 21.4531 12.646C21.3367 12.7721 21.1816 12.9351 21.0225 13.0991C20.8634 13.2631 20.7018 13.4255 20.5742 13.5513C20.5104 13.6141 20.4571 13.6662 20.417 13.7036C20.3973 13.722 20.3837 13.7328 20.377 13.7388C20.3175 13.7743 20.2724 13.7804 20.2422 13.7778C20.2063 13.7748 20.1704 13.7593 20.1406 13.7329C20.1108 13.7064 20.0908 13.6719 20.083 13.6353C20.0767 13.6055 20.078 13.5641 20.1006 13.5083C20.1031 13.5053 20.1063 13.5022 20.1094 13.4985C20.1387 13.4636 20.1812 13.4151 20.2354 13.356C20.3429 13.2385 20.4843 13.09 20.6309 12.9399C20.7772 12.7901 20.9259 12.6409 21.0469 12.5229C21.1074 12.464 21.1595 12.4142 21.2002 12.3765C21.2402 12.3394 21.2586 12.3247 21.2607 12.3228C21.2918 12.2994 21.3193 12.276 21.335 12.2632C21.3378 12.2608 21.3405 12.2582 21.3428 12.2563Z" fill="white" stroke="white"/>
<path d="M30.916 2.69775C30.9743 2.70369 31.0138 2.73364 31.0391 2.771C31.0715 2.81913 31.0863 2.8933 31.0449 2.98291C31.0401 2.98835 31.0348 2.99531 31.0283 3.00244C30.9934 3.0411 30.9441 3.09451 30.8828 3.15869C30.7606 3.28671 30.5999 3.4498 30.4375 3.61279C30.275 3.77584 30.1129 3.93654 29.9863 4.05811C29.9227 4.11921 29.8706 4.16856 29.833 4.20264C29.8305 4.20493 29.8275 4.20644 29.8252 4.2085C29.7683 4.23295 29.7265 4.23855 29.6982 4.23486C29.6642 4.23038 29.6353 4.21539 29.6123 4.19385C29.5772 4.16089 29.538 4.08977 29.5713 3.97119C29.6009 3.93702 29.6428 3.89148 29.6943 3.83545C29.8068 3.7132 29.956 3.55453 30.1104 3.39502C30.2645 3.2357 30.4211 3.0772 30.5459 2.95361C30.6085 2.89167 30.662 2.84001 30.7021 2.80225C30.7526 2.75473 30.7593 2.75203 30.7422 2.76416V2.76318C30.7916 2.72795 30.8124 2.7155 30.8262 2.7085C30.8338 2.70463 30.8394 2.70276 30.8516 2.70068L30.916 2.69775Z" fill="white" stroke="white"/>
<path d="M20.2017 2.69336C20.2493 2.68542 20.3176 2.69577 20.3911 2.74414L20.3921 2.74512C20.3688 2.72988 20.3705 2.72707 20.4204 2.77246C20.4581 2.80673 20.508 2.85439 20.5679 2.91211C20.6872 3.02718 20.8375 3.17601 20.9868 3.32715C21.1361 3.4782 21.2829 3.62971 21.396 3.75C21.4526 3.81023 21.4985 3.86081 21.5317 3.89844C21.5485 3.91739 21.558 3.9296 21.563 3.93555C21.5981 3.99678 21.6043 4.04418 21.6011 4.07715C21.5973 4.11538 21.5809 4.15151 21.5552 4.17969C21.5295 4.20774 21.4962 4.22592 21.4604 4.23242C21.4325 4.23748 21.39 4.23707 21.3315 4.21289C21.3283 4.20999 21.3247 4.20659 21.3208 4.20312C21.2846 4.17068 21.2339 4.12402 21.1724 4.06543C21.0499 3.94883 20.8927 3.7949 20.7349 3.6377C20.5769 3.48046 20.4208 3.32145 20.3003 3.19629C20.2399 3.13355 20.1904 3.08097 20.1548 3.04199C20.1402 3.02599 20.1305 3.01468 20.1245 3.00781C20.088 2.94448 20.0797 2.86407 20.103 2.79395C20.1261 2.72471 20.1632 2.70203 20.1938 2.69531L20.2017 2.69336Z" fill="white" stroke="white"/>
<path d="M32.9468 8.06519C33.0384 8.06936 33.1138 8.07464 33.1694 8.07983C33.1927 8.08201 33.2087 8.08347 33.2183 8.08472C33.2209 8.08729 33.2256 8.09371 33.2319 8.10522C33.2481 8.1348 33.263 8.18639 33.2593 8.24878C33.2555 8.31087 33.2353 8.35585 33.2183 8.37866C33.2065 8.39433 33.1963 8.40057 33.1743 8.40405L33.1431 8.40796C33.123 8.40973 33.0972 8.41104 33.0659 8.41284C33.003 8.41646 32.9233 8.42017 32.8315 8.42261C32.6483 8.42748 32.4242 8.42904 32.2007 8.42749C31.9766 8.42593 31.7567 8.42149 31.5825 8.41284C31.4953 8.40851 31.4239 8.40261 31.3706 8.39722C31.3042 8.39048 31.3005 8.38646 31.3257 8.39429H31.3247C31.3225 8.39362 31.3216 8.39305 31.3208 8.39233C31.3189 8.3906 31.3139 8.38481 31.3071 8.3728C31.2912 8.34443 31.2758 8.29424 31.2778 8.2312C31.2799 8.16807 31.2983 8.12065 31.3149 8.09546L31.3374 8.07495C31.325 8.07776 31.3416 8.07403 31.4116 8.06909C31.4717 8.06486 31.5513 8.06128 31.645 8.05835C31.8318 8.05252 32.0652 8.04929 32.2993 8.05054C32.5336 8.05179 32.7642 8.05687 32.9468 8.06519Z" fill="white" stroke="white"/>
<path d="M19.5649 8.06519C19.6565 8.06936 19.732 8.07464 19.7876 8.07983C19.8108 8.08201 19.8269 8.08347 19.8364 8.08472C19.8391 8.08729 19.8438 8.09371 19.8501 8.10522C19.8663 8.1348 19.8812 8.18639 19.8774 8.24878C19.8737 8.31087 19.8535 8.35585 19.8364 8.37866C19.8247 8.39433 19.8144 8.40057 19.7925 8.40405L19.7612 8.40796C19.7412 8.40973 19.7154 8.41104 19.6841 8.41284C19.6212 8.41646 19.5414 8.42017 19.4497 8.42261C19.2665 8.42748 19.0423 8.42904 18.8188 8.42749C18.5948 8.42593 18.3749 8.42149 18.2007 8.41284C18.1135 8.40851 18.042 8.40261 17.9888 8.39722C17.9223 8.39048 17.9187 8.38646 17.9438 8.39429H17.9429C17.9407 8.39362 17.9398 8.39305 17.939 8.39233C17.937 8.3906 17.932 8.38481 17.9253 8.3728C17.9094 8.34443 17.894 8.29424 17.896 8.2312C17.898 8.16807 17.9165 8.12065 17.9331 8.09546L17.9556 8.07495C17.9432 8.07776 17.9598 8.07403 18.0298 8.06909C18.0898 8.06486 18.1695 8.06128 18.2632 8.05835C18.45 8.05252 18.6833 8.04929 18.9175 8.05054C19.1517 8.05179 19.3824 8.05687 19.5649 8.06519Z" fill="white" stroke="white"/>
<path d="M25.4824 13.9851C25.5694 13.9672 25.6461 13.9805 25.6904 14.0027C25.7107 14.0129 25.7203 14.0225 25.7246 14.0281L25.7383 14.0652C25.754 14.1674 25.7673 14.5662 25.7666 15.0164C25.7662 15.2318 25.7629 15.4445 25.7559 15.6169C25.7523 15.7032 25.7479 15.7766 25.7432 15.8337L25.7344 15.9197C25.732 15.9304 25.7287 15.9385 25.709 15.9509C25.6826 15.9676 25.6337 15.9838 25.5723 15.9822C25.5111 15.9805 25.4662 15.9617 25.4434 15.9451C25.4358 15.9395 25.4295 15.9342 25.4248 15.9265L25.415 15.8953C25.3961 15.7737 25.3818 15.4011 25.3818 14.9802C25.3818 14.56 25.3961 14.1878 25.415 14.0652C25.4135 14.0746 25.4121 14.0716 25.4189 14.0583C25.4254 14.0458 25.4358 14.0305 25.4492 14.0154C25.462 14.001 25.4742 13.9908 25.4824 13.9851Z" fill="white" stroke="white"/>
<path d="M7.76953 22.9592C7.87383 22.944 7.90978 22.973 7.92285 22.9846C7.94713 23.0063 7.97684 23.0546 7.98438 23.1282C7.9919 23.2019 7.97262 23.2614 7.9502 23.2932C7.93632 23.3128 7.91088 23.3392 7.83203 23.345C7.74677 23.351 7.71257 23.3272 7.69531 23.3108C7.66939 23.2861 7.64222 23.2378 7.63477 23.1702C7.62728 23.1021 7.64371 23.0468 7.66406 23.0159C7.6778 22.995 7.70169 22.9692 7.76953 22.9592Z" fill="white" stroke="white"/>
</svg>
