<svg width="34" height="35" viewBox="0 0 34 35" fill="none" xmlns="http://www.w3.org/2000/svg">
<path d="M9.42533 0.000846647C12.1292 2.33616 10.917 6.16011 11.2377 9.30064C12.7269 10.3106 14.4578 11.0709 15.9462 12.0622C16.7462 12.5951 17.4404 13.2997 17.8761 14.17C18.5333 15.4861 18.5594 16.1484 16.9107 16.277C14.5518 16.4605 13.0677 15.1512 11.1403 14.0829V23.7802L12.4104 19.2483C12.6413 18.8457 12.988 18.4854 13.4438 18.3628L29.3043 18.3306C29.7954 18.3162 30.1841 18.6503 30.4837 19.0022C31.5725 22.322 32.3574 25.7603 33.2841 29.1377C33.3975 29.712 32.6227 30.8209 32.0695 30.8209H24.0603V32.6808H33.3228C33.3975 32.6808 33.6636 32.9371 33.7013 33.0301C33.8457 33.3871 33.7442 33.7745 33.405 33.9589C22.4913 34.0781 11.5475 33.9715 0.62287 34.0121C0.31731 34.035 0.16789 33.821 0 33.6104V33.0792C0.0797476 32.987 0.32067 32.6808 0.428119 32.6808H7.11936V26.0056C7.11936 25.7392 7.54832 25.4406 7.81191 25.4406C8.0755 25.4406 8.50445 25.7392 8.50445 26.0056V32.6808H9.75691V13.3183C9.75691 13.2413 9.23729 12.958 9.13068 12.958C8.98378 12.958 8.53216 13.2362 8.50361 13.3843L8.50697 20.0958C8.5204 20.6989 7.87571 21.0905 7.38043 20.6947C7.29817 20.6287 7.1202 20.38 7.1202 20.2929V14.0821C5.19115 15.1799 3.66587 16.4842 1.29443 16.2651C0.813424 16.2211 0.263588 16.1256 0.000840268 15.6756V15.1444C0.510386 13.5221 1.46736 12.6078 2.85748 11.7451C4.21907 10.9009 5.65453 10.1507 7.04381 9.35476C7.30656 6.21254 6.15568 2.35392 8.83436 0H9.42785L9.42533 0.000846647ZM9.82071 8.30426V3.48901C9.82071 3.29278 9.60749 2.67532 9.52271 2.46048C9.42113 2.2042 9.26919 1.96145 9.12816 1.72801C9.08703 1.72801 8.77224 2.36067 8.73363 2.46048C8.66059 2.6491 8.43562 3.33253 8.43562 3.48901V8.30426C8.87969 8.20023 9.37412 8.20023 9.81987 8.30426H9.82071ZM9.07948 9.58229C8.01254 9.64065 7.92775 11.2638 8.93509 11.4211C10.3647 11.6444 10.3571 9.51208 9.07948 9.58229ZM1.58068 14.8797H2.53681C2.81383 14.8797 3.60963 14.5227 3.88916 14.3832C5.09797 13.7792 6.269 12.9097 7.48117 12.2898L7.57854 12.19C7.20751 11.8922 7.00856 11.4812 6.88684 11.027C5.71413 11.7383 4.42474 12.3617 3.27469 13.1001C2.53178 13.5771 1.97774 14.0651 1.58068 14.8805V14.8797ZM16.6773 14.8797C16.3844 14.2292 15.8857 13.7091 15.3141 13.298L11.372 11.0261C11.3032 11.2223 11.2511 11.4169 11.1521 11.6038C11.0287 11.8373 10.8297 11.9954 10.7097 12.2238C12.3626 13.1102 13.9097 14.3544 15.7212 14.8797H16.6773ZM16.5455 19.6619H13.8761C13.798 19.6619 13.678 19.8057 13.6394 19.8886C13.3682 20.4672 13.3128 21.4339 13.0526 22.0539H16.2165L16.5464 19.6628L16.5455 19.6619ZM20.8301 19.6619H17.9298L17.5999 22.0531H20.8301V19.6619ZM25.1155 19.6619H22.2152V22.0531H25.3791L25.1155 19.6619ZM29.9935 22.0531C29.6938 21.4534 29.667 20.4012 29.3857 19.8429C29.353 19.7787 29.2212 19.6619 29.17 19.6619H26.5006L26.7641 22.0531H29.9943H29.9935ZM16.0175 23.3819H12.7546L12.062 25.773H15.7539L16.0175 23.3819ZM20.8301 23.3819H17.4018L17.1382 25.773H20.8301V23.3819ZM25.5763 23.3819H22.2143V25.773H25.9062L25.5763 23.3819ZM30.9824 25.773L30.2898 23.3819H26.9606L27.2905 25.773H30.9824ZM15.5567 27.1018H11.6675L11.142 29.1351C11.095 29.4447 11.3216 29.4743 11.5659 29.4955C12.7202 29.5978 14.0188 29.4092 15.1898 29.4955L15.5575 27.1001L15.5567 27.1018ZM20.8301 27.1018H16.9409L16.611 29.4929H20.8301V27.1018ZM26.1035 27.1018H22.2143V29.4929H26.4334L26.1035 27.1018ZM27.4886 27.1018L27.8135 29.4642C28.9811 29.4371 30.3242 29.5986 31.4793 29.4963C31.7404 29.4735 31.9251 29.4599 31.8915 29.147C31.8672 28.9245 31.4726 27.4477 31.3828 27.2625C31.3542 27.2033 31.3383 27.1407 31.2787 27.1018H27.4877H27.4886ZM18.9841 30.8209H11.1395V32.6808H18.9841V30.8209ZM22.676 30.8209H20.3684V32.6808H22.676V30.8209Z" fill="#144C84"/>
<path d="M25.8401 0.000732422C26.0122 0.152134 26.1927 0.251935 26.2322 0.502298C26.2842 0.836398 26.2842 2.15418 26.2322 2.48744C26.1356 3.10404 25.1812 3.17509 24.9671 2.64054C24.884 2.43162 24.8765 0.785649 24.921 0.503145C24.9604 0.251936 25.1401 0.152115 25.313 0.00155842H25.8401V0.000732422Z" fill="#144C84"/>
<path d="M25.3655 4.27231C28.5302 4.071 30.5768 7.64121 28.9004 10.358C27.428 12.7449 23.8822 12.8151 22.3309 10.4781C20.6184 7.89749 22.304 4.46685 25.3655 4.27231ZM25.2983 5.66622C22.0153 6.02654 22.4627 11.0338 25.7407 10.8274C29.1556 10.6126 28.7359 5.28898 25.2983 5.66622Z" fill="#144C84"/>
<path d="M29.5129 11.7723C29.7303 11.7224 29.9343 11.7418 30.1223 11.8602C30.2415 11.9355 31.4108 13.1154 31.4713 13.2245C31.8306 13.8674 31.1666 14.5406 30.5261 14.1769C30.4253 14.1194 29.193 12.8727 29.1443 12.7788C28.9597 12.4168 29.0898 11.8695 29.512 11.7723H29.5129Z" fill="#144C84"/>
<path d="M21.2062 11.7721C21.8265 11.6283 22.2756 12.1375 22.0322 12.7372C21.9952 12.8285 20.7881 14.0685 20.6655 14.1497C20.0435 14.5574 19.3401 13.923 19.6582 13.2675C19.7228 13.1347 20.799 12.0436 20.9602 11.9227C21.0425 11.8609 21.0945 11.7983 21.2062 11.7721Z" fill="#144C84"/>
<path d="M30.7687 2.20742C31.3606 2.10846 31.7694 2.71831 31.4722 3.25033C31.4151 3.35183 30.1778 4.59349 30.0846 4.64255C29.4617 4.96649 28.8548 4.39472 29.1209 3.73752C29.1578 3.64702 30.3213 2.44933 30.4523 2.35629C30.5555 2.2827 30.6386 2.22942 30.7679 2.20742H30.7687Z" fill="#144C84"/>
<path d="M20.0873 2.20595C20.2887 2.16197 20.4961 2.21442 20.6656 2.32607C20.7966 2.4115 21.9005 3.52798 21.9811 3.65824C22.3731 4.28753 21.7401 4.99124 21.0694 4.64276C20.9762 4.59455 19.7834 3.40533 19.7095 3.2903C19.4501 2.88938 19.6264 2.30745 20.0873 2.20679V2.20595Z" fill="#144C84"/>
<path d="M31.2266 7.58724C31.4609 7.53395 33.1481 7.53817 33.3588 7.6033C33.9246 7.77754 33.8927 8.79676 33.2531 8.89826C32.9786 8.94139 31.4029 8.94224 31.1771 8.87203C30.6256 8.70202 30.6483 7.71834 31.2275 7.58724H31.2266Z" fill="#144C84"/>
<path d="M17.8448 7.58724C18.079 7.53395 19.7663 7.53817 19.977 7.6033C20.5428 7.77754 20.5109 8.79676 19.8712 8.89826C19.5967 8.94139 18.0211 8.94224 17.7953 8.87203C17.2438 8.70202 17.2664 7.71834 17.8456 7.58724H17.8448Z" fill="#144C84"/>
<path d="M25.3599 13.4995C25.7402 13.4115 26.1675 13.5739 26.2321 13.9875C26.2783 14.2836 26.2825 15.7578 26.222 16.0285C26.0843 16.646 25.0258 16.6392 24.9209 15.9727C24.8688 15.6394 24.8688 14.3216 24.9209 13.9875C24.9536 13.7786 25.1551 13.5469 25.3591 13.4995H25.3599Z" fill="#144C84"/>
<path d="M7.69626 22.465C8.65575 22.3237 8.77412 23.7785 7.86835 23.8445C6.98525 23.9079 6.86017 22.5885 7.69626 22.465Z" fill="#144C84"/>
</svg>
