<svg width="30" height="31" viewBox="0 0 30 31" fill="none" xmlns="http://www.w3.org/2000/svg">
<path d="M8.31704 0.000747092C10.703 2.06146 9.63333 5.43576 9.9163 8.20701C11.2304 9.09817 12.7578 9.76914 14.0711 10.6439C14.777 11.1141 15.3896 11.7358 15.7741 12.5038C16.3541 13.6652 16.377 14.2496 14.9222 14.363C12.8407 14.525 11.5311 13.3696 9.83037 12.427V20.984L10.9511 16.985C11.1548 16.6297 11.4607 16.3118 11.863 16.2035L25.8585 16.1752C26.2919 16.1625 26.6348 16.4573 26.8993 16.7678C27.86 19.6973 28.5526 22.7312 29.3704 25.7115C29.4704 26.2183 28.7867 27.1967 28.2985 27.1967H21.2311V28.838H29.4044C29.4704 28.838 29.7052 29.0641 29.7385 29.1462C29.8659 29.4612 29.7763 29.803 29.477 29.9657C19.8467 30.071 10.1896 29.9769 0.549628 30.0128C0.279999 30.0329 0.148148 29.8441 0 29.6582V29.1895C0.0703704 29.1082 0.282963 28.838 0.377778 28.838H6.28222V22.9477C6.28222 22.7126 6.66074 22.4491 6.89333 22.4491C7.12593 22.4491 7.50445 22.7126 7.50445 22.9477V28.838H8.60963V11.7522C8.60963 11.6843 8.15111 11.4343 8.05704 11.4343C7.92741 11.4343 7.52889 11.6798 7.5037 11.8105L7.50667 17.7328C7.51852 18.265 6.94963 18.6106 6.51259 18.2613C6.44 18.2031 6.28296 17.9836 6.28296 17.9067V12.4262C4.58074 13.395 3.23481 14.5459 1.14222 14.3526C0.717777 14.3137 0.232593 14.2294 0.000741464 13.8323V13.3636C0.450371 11.9321 1.29482 11.1253 2.52148 10.364C3.72296 9.61912 4.98963 8.9571 6.21556 8.25477C6.44741 5.48203 5.43185 2.07713 7.79556 0H8.31926L8.31704 0.000747092ZM8.66593 7.32779V3.07875C8.66593 2.90559 8.47778 2.36074 8.40296 2.17116C8.31333 1.94501 8.17926 1.73081 8.05481 1.52482C8.01852 1.52482 7.74074 2.08309 7.70667 2.17116C7.64222 2.3376 7.4437 2.94067 7.4437 3.07875V7.32779C7.83556 7.23599 8.27185 7.23599 8.66519 7.32779H8.66593ZM8.01185 8.45554C7.07037 8.50704 6.99556 9.93931 7.88445 10.0781C9.14593 10.2752 9.13926 8.39359 8.01185 8.45554ZM1.39481 13.13H2.23852C2.48296 13.13 3.18518 12.815 3.43185 12.6919C4.49852 12.159 5.53185 11.3917 6.60148 10.8446L6.68741 10.7566C6.36 10.4939 6.18445 10.1311 6.07704 9.73033C5.04222 10.358 3.90445 10.9081 2.88963 11.5597C2.23408 11.9806 1.74518 12.4113 1.39481 13.1308V13.13ZM14.7163 13.13C14.4578 12.5561 14.0178 12.0971 13.5133 11.7343L10.0348 9.72958C9.97408 9.90274 9.92815 10.0744 9.84074 10.2394C9.73185 10.4454 9.5563 10.5849 9.45037 10.7864C10.9089 11.5686 12.2741 12.6665 13.8726 13.13H14.7163ZM14.6 17.35H12.2444C12.1756 17.35 12.0696 17.4768 12.0356 17.55C11.7963 18.0605 11.7474 18.9136 11.5178 19.4607H14.3096L14.6007 17.3507L14.6 17.35ZM18.3807 17.35H15.8215L15.5304 19.4599H18.3807V17.35ZM22.1622 17.35H19.603V19.4599H22.3948L22.1622 17.35ZM26.4667 19.4599C26.2022 18.9308 26.1785 18.0023 25.9304 17.5097C25.9015 17.453 25.7852 17.35 25.74 17.35H23.3844L23.617 19.4599H26.4674H26.4667ZM14.1341 20.6325H11.2548L10.6437 22.7424H13.9015L14.1341 20.6325ZM18.3807 20.6325H15.3556L15.123 22.7424H18.3807V20.6325ZM22.5689 20.6325H19.6022V22.7424H22.86L22.5689 20.6325ZM27.3393 22.7424L26.7282 20.6325H23.7904L24.0815 22.7424H27.3393ZM13.7274 23.915H10.2956L9.83185 25.7092C9.79037 25.9824 9.99037 26.0085 10.2059 26.0272C11.2244 26.1175 12.3704 25.9511 13.4037 26.0272L13.7281 23.9135L13.7274 23.915ZM18.3807 23.915H14.9489L14.6578 26.0249H18.3807V23.915ZM23.0341 23.915H19.6022V26.0249H23.3252L23.0341 23.915ZM24.2563 23.915L24.543 25.9996C25.5733 25.9757 26.7585 26.1182 27.7778 26.0279C28.0081 26.0078 28.1711 25.9958 28.1415 25.7197C28.12 25.5234 27.7719 24.2202 27.6926 24.0568C27.6674 24.0045 27.6533 23.9493 27.6007 23.915H24.2556H24.2563ZM16.7519 27.1967H9.82963V28.838H16.7519V27.1967ZM20.0096 27.1967H17.9733V28.838H20.0096V27.1967Z" fill="white"/>
<path d="M22.8017 0.000732422C22.9535 0.134331 23.1128 0.222397 23.1476 0.443321C23.1935 0.738135 23.1935 1.90097 23.1476 2.19503C23.0624 2.73913 22.2202 2.80183 22.0313 2.33013C21.958 2.14578 21.9513 0.693353 21.9905 0.444068C22.0254 0.222398 22.1839 0.134314 22.3365 0.00146129H22.8017V0.000732422Z" fill="white"/>
<path d="M22.3828 3.76989C25.1754 3.59225 26.9814 6.74265 25.5021 9.13997C24.2028 11.2462 21.0739 11.3081 19.7051 9.24595C18.1939 6.96879 19.6814 3.94155 22.3828 3.76989ZM22.3236 4.99989C19.4265 5.31784 19.8213 9.73632 22.7139 9.5542C25.7273 9.36463 25.3569 4.66701 22.3236 4.99989Z" fill="white"/>
<path d="M26.0424 10.3879C26.2343 10.3439 26.4143 10.361 26.5802 10.4655C26.6854 10.532 27.7172 11.5731 27.7706 11.6694C28.0876 12.2366 27.5017 12.8307 26.9365 12.5098C26.8476 12.4591 25.7602 11.3589 25.7172 11.2761C25.5543 10.9566 25.6691 10.4737 26.0417 10.3879H26.0424Z" fill="white"/>
<path d="M18.7126 10.3879C19.26 10.261 19.6563 10.7103 19.4415 11.2395C19.4089 11.3201 18.3437 12.4142 18.2356 12.4859C17.6867 12.8456 17.0659 12.2859 17.3467 11.7074C17.4037 11.5903 18.3533 10.6275 18.4955 10.5207C18.5681 10.4663 18.6141 10.411 18.7126 10.3879Z" fill="white"/>
<path d="M27.1504 1.94787C27.6727 1.86055 28.0334 2.39868 27.7712 2.86814C27.7208 2.95771 26.629 4.05337 26.5467 4.09665C25.9971 4.38251 25.4615 3.87797 25.6964 3.29805C25.729 3.21819 26.7556 2.16133 26.8712 2.07923C26.9623 2.0143 27.0356 1.96728 27.1497 1.94787H27.1504Z" fill="white"/>
<path d="M17.725 1.94655C17.9028 1.90774 18.0857 1.95403 18.2354 2.05255C18.3509 2.12793 19.325 3.11313 19.3961 3.22807C19.742 3.78337 19.1835 4.40433 18.5917 4.09683C18.5095 4.05429 17.4569 3.0049 17.3917 2.9034C17.1628 2.54962 17.3183 2.03612 17.725 1.9473V1.94655Z" fill="white"/>
<path d="M27.5547 6.69498C27.7614 6.64796 29.2503 6.65169 29.4362 6.70916C29.9355 6.86291 29.9073 7.76228 29.3429 7.85184C29.1007 7.88991 27.7103 7.89065 27.511 7.8287C27.0244 7.67868 27.0444 6.81067 27.5555 6.69498H27.5547Z" fill="white"/>
<path d="M15.7461 6.69498C15.9528 6.64796 17.4417 6.65169 17.6276 6.70916C18.1269 6.86291 18.0987 7.76228 17.5343 7.85184C17.2921 7.88991 15.9017 7.89065 15.7024 7.8287C15.2158 7.67868 15.2358 6.81067 15.7469 6.69498H15.7461Z" fill="white"/>
<path d="M22.3779 11.9121C22.7135 11.8344 23.0905 11.9777 23.1475 12.3427C23.1883 12.6039 23.192 13.9049 23.1386 14.1437C23.0172 14.6885 22.0831 14.6826 21.9905 14.0944C21.9446 13.8004 21.9446 12.6375 21.9905 12.3427C22.0194 12.1584 22.1972 11.9538 22.3772 11.9121H22.3779Z" fill="white"/>
<path d="M6.79114 19.8235C7.63781 19.6988 7.74225 20.9826 6.943 21.0408C6.16374 21.0968 6.05336 19.9324 6.79114 19.8235Z" fill="white"/>
</svg>
