<svg width="38" height="39" viewBox="0 0 38 39" fill="none" xmlns="http://www.w3.org/2000/svg">
<g clip-path="url(#clip0_3578_307)">
<path d="M13.1144 5.41431C13.276 5.41431 13.5184 5.41431 13.68 5.08258C14.2456 4.83381 14.5688 4.41921 14.6496 3.83871H14.7304C15.2152 3.67288 15.8616 3.67288 16.7503 3.67288C16.9927 3.75583 17.316 3.75583 17.5583 3.75583C18.2046 3.83878 18.851 3.83878 19.4974 3.83878C20.2246 3.75583 20.9518 3.67296 21.5981 3.59001C22.1637 3.50706 22.6485 3.42418 23.2141 3.42418C24.1028 3.42418 25.0724 3.50713 25.9612 3.59001L29.5162 4.00461C30.3242 4.08756 31.1322 3.50706 31.213 2.59491C31.2938 1.76571 30.7282 0.936429 29.8395 0.853479L26.2844 0.521753C25.3148 0.438802 24.1837 0.272977 23.0525 0.355928C22.4061 0.438878 21.7598 0.521753 21.1942 0.687654C20.5478 0.770604 19.9822 0.853479 19.4166 0.853479C18.9318 0.853479 18.3663 0.770528 17.8007 0.770528C17.4775 0.687578 17.2351 0.687578 16.9119 0.687578C15.6192 0.604627 14.5688 0.770528 13.7608 1.0193C12.7912 1.35103 12.0641 1.93145 11.7409 2.67778C11.4177 3.25828 11.4177 3.83871 11.6601 4.41921C11.9024 4.99971 12.468 5.41431 13.1144 5.41431Z" fill="#17447A"/>
<path d="M36.4649 15.1993H19.3358V8.98007C19.3358 8.15087 18.6895 7.40454 17.8007 7.40454H7.94349C7.13556 7.40454 6.40837 8.06792 6.40837 8.98007V20.2577L0.10613 36.5106C-0.0554431 37.0081 -0.0554431 37.5886 0.267703 38.0032C0.590923 38.4178 1.07564 38.6666 1.56044 38.6666H17.8815H24.2644H36.4649C37.2728 38.6666 38 37.9203 38 37.0911V16.7748C38 15.9456 37.3536 15.1993 36.4649 15.1993ZM9.47862 21.1698C9.55945 21.0039 9.55945 20.7552 9.55945 20.5893V10.5556H16.3464V20.5893C16.3464 20.7552 16.3464 21.0039 16.4272 21.1698L22.0022 35.4327H3.90358L9.47862 21.1698ZM34.9297 35.5156H25.2522L19.3359 20.2577V18.3504H34.9297V35.5156Z" fill="#17447A"/>
<path d="M27.1728 26.311C27.9808 26.311 28.708 25.5647 28.708 24.7355V23.077C28.708 22.2478 27.9808 21.5015 27.1728 21.5015C26.3649 21.5015 25.6377 22.1648 25.6377 23.077V24.7355C25.6377 25.5647 26.2841 26.311 27.1728 26.311Z" fill="#17447A"/>
</g>
<defs>
<clipPath id="clip0_3578_307">
<rect width="38" height="39" fill="white"/>
</clipPath>
</defs>
</svg>
