<svg width="46" height="47" viewBox="0 0 46 47" fill="none" xmlns="http://www.w3.org/2000/svg">
<g clip-path="url(#clip0_3578_292)">
<path d="M43.8871 27.9717H39.7028V2.18437C39.7028 1.11392 38.8269 0.238159 37.7565 0.238159C36.6862 0.238159 35.8103 1.11392 35.8103 2.18437V27.9717H32.7938V17.9487C32.7938 17.3649 32.4045 16.7809 31.918 16.3917C31.4315 16.0025 30.7502 15.9052 30.1664 16.1971L22.7708 19.3111V12.1101C22.7708 11.4289 22.4788 10.845 21.895 10.4558C21.3112 10.0665 20.6299 10.0665 20.0461 10.3585L7.10372 16.9756C6.42257 17.2675 6.03326 17.9486 6.03326 18.6299V27.9717H1.94622C0.875757 27.9717 0 28.8475 0 29.9179V44.1253C0 45.1957 0.875757 46.0715 1.94622 46.0715H43.9844C45.0549 46.0715 45.8333 45.293 45.8333 44.2226V29.9179C45.8333 28.8475 44.9576 27.9717 43.8871 27.9717ZM28.9986 20.6734V27.8744H22.8681V23.3008L28.9986 20.6734ZM18.9756 15.1267V27.8743H9.82839V19.7975L18.9756 15.1267ZM42.0382 42.2764H13.0397V38.092C13.0397 37.0216 12.1639 36.1458 11.0935 36.1458C10.023 36.1458 9.14724 37.0216 9.14724 38.092V42.2764H3.89243V31.7668H7.88217C7.89846 31.7668 7.91458 31.766 7.93087 31.7656C7.94707 31.766 7.96318 31.7668 7.97957 31.7668H30.9449H42.0384V42.2764H42.0382Z" fill="white"/>
</g>
<defs>
<clipPath id="clip0_3578_292">
<rect width="45.8333" height="45.8333" fill="white" transform="translate(0 0.238159)"/>
</clipPath>
</defs>
</svg>
