<svg width="30" height="33" viewBox="0 0 30 33" fill="none" xmlns="http://www.w3.org/2000/svg">
<path d="M7.33317 30.3751V25.7501M1.1665 30.3751V26.5209C1.1665 21.8379 4.96275 18.0417 9.64567 18.0417H15.0415M21.979 31.9167V24.2084M21.979 24.2084C25.8105 24.2084 28.9165 21.1024 28.9165 17.2709C28.9165 13.4394 25.8105 10.3334 21.979 10.3334C20.9777 10.3334 20.0259 10.5455 19.1662 10.9273M21.979 24.2084C18.1475 24.2084 15.0415 21.1024 15.0415 17.2709C15.0415 16.1242 15.3198 15.0424 15.8123 14.0895M18.8957 28.8334H25.0623M19.6665 8.02091C19.6665 11.4267 16.9055 14.1876 13.4998 14.1876C10.0941 14.1876 7.33317 11.4267 7.33317 8.02091C7.33317 4.61516 10.0941 1.85425 13.4998 1.85425C16.9055 1.85425 19.6665 4.61516 19.6665 8.02091Z" stroke="#FF169E" stroke-width="2" stroke-linecap="round"/>
</svg>
