<svg width="43" height="43" viewBox="0 0 43 43" fill="none" xmlns="http://www.w3.org/2000/svg">
<path d="M37.2131 10.0598C37.2125 11.028 36.8278 11.9564 36.1434 12.6412C35.459 13.326 34.5308 13.7113 33.5626 13.7125H32.4175V32.714C32.4163 33.6818 32.0313 34.6096 31.347 35.2939C30.6626 35.9783 29.7348 36.3633 28.767 36.3645H9.43737C8.95784 36.3645 8.483 36.27 8.03996 36.0865C7.59693 35.903 7.19438 35.634 6.8553 35.2949C6.51621 34.9559 6.24724 34.5533 6.06373 34.1103C5.88022 33.6672 5.78577 33.1924 5.78577 32.7129C5.78577 32.2333 5.88022 31.7585 6.06373 31.3155C6.24724 30.8724 6.51621 30.4699 6.8553 30.1308C7.19438 29.7917 7.59693 29.5227 8.03996 29.3392C8.483 29.1557 8.95784 29.0613 9.43737 29.0613H10.5803V10.0598C10.5803 9.09081 10.965 8.16149 11.65 7.47611C12.3349 6.79073 13.264 6.40539 14.233 6.40479H33.5604C34.529 6.40538 35.4577 6.79042 36.1426 7.47531C36.8275 8.1602 37.2125 9.08894 37.2131 10.0575V10.0598ZM9.43737 33.8569H25.2953C25.0505 33.1146 25.0505 32.3134 25.2953 31.5711H9.4419C9.13878 31.5711 8.84808 31.6915 8.63375 31.9058C8.41942 32.1202 8.299 32.4109 8.299 32.714C8.299 33.0171 8.41942 33.3078 8.63375 33.5221C8.84808 33.7365 9.13878 33.8569 9.4419 33.8569H9.43737ZM29.9076 10.0598C29.9071 9.67164 29.9682 9.28587 30.0887 8.91689H14.2353C13.9808 8.91644 13.7337 9.00175 13.5337 9.15905L13.5292 9.16131C13.3924 9.26766 13.282 9.40397 13.2062 9.55974C13.1305 9.71551 13.0916 9.88658 13.0924 10.0598V29.0613H27.434C27.7466 29.0577 28.0511 29.1603 28.2978 29.3523C28.5444 29.5443 28.7186 29.8143 28.7919 30.1182C28.8779 30.409 28.8692 30.7196 28.7671 31.0052C28.665 31.2908 28.4747 31.5365 28.2238 31.7069C28.0465 31.8032 27.8979 31.9447 27.793 32.1171C27.6881 32.2894 27.6307 32.4865 27.6266 32.6882C27.6225 32.8899 27.6719 33.0891 27.7698 33.2656C27.8677 33.442 28.0105 33.5894 28.1838 33.6928C28.357 33.7961 28.5546 33.8518 28.7564 33.8541C28.9581 33.8563 29.1569 33.8052 29.3324 33.7057C29.508 33.6063 29.6541 33.4622 29.756 33.288C29.8578 33.1138 29.9117 32.9158 29.9122 32.714L29.9076 10.0598ZM27.9613 13.3142H14.9255V15.8195H27.9613V13.3142ZM27.9613 18.4289H14.9255V20.9343H27.9613V18.4289ZM27.9613 23.5437H14.9255V26.0513H27.9613V23.5437ZM34.7033 10.0598C34.7027 9.75686 34.5821 9.4665 34.3679 9.2523C34.1537 9.03809 33.8633 8.91749 33.5604 8.91689C33.3058 8.91573 33.0584 9.00112 32.8588 9.15905H32.8543C32.717 9.26551 32.606 9.40211 32.5298 9.55828C32.4537 9.71446 32.4145 9.88604 32.4152 10.0598V11.2027H33.5604C33.8633 11.2021 34.1537 11.0815 34.3679 10.8673C34.5821 10.6531 34.7027 10.3627 34.7033 10.0598Z" fill="#FF0000"/>
</svg>
