<svg width="50" height="50" viewBox="0 0 50 50" fill="none" xmlns="http://www.w3.org/2000/svg">
<path d="M48.4375 6.25H1.5625C1.1481 6.25 0.750671 6.41462 0.457646 6.70765C0.16462 7.00067 0 7.3981 0 7.8125L0 37.5C0 39.1576 0.65848 40.7473 1.83058 41.9194C3.00269 43.0915 4.5924 43.75 6.25 43.75H43.75C45.4076 43.75 46.9973 43.0915 48.1694 41.9194C49.3415 40.7473 50 39.1576 50 37.5V7.8125C50 7.3981 49.8354 7.00067 49.5424 6.70765C49.2493 6.41462 48.8519 6.25 48.4375 6.25ZM46.875 9.375V34.375H3.125V9.375H46.875ZM43.75 40.625H6.25C5.4212 40.625 4.62634 40.2958 4.04029 39.7097C3.45424 39.1237 3.125 38.3288 3.125 37.5H46.875C46.875 38.3288 46.5458 39.1237 45.9597 39.7097C45.3737 40.2958 44.5788 40.625 43.75 40.625Z" fill="#FF0000"/>
<path d="M10.9375 26.5625H7.8125C7.3981 26.5625 7.00067 26.7271 6.70765 27.0201C6.41462 27.3132 6.25 27.7106 6.25 28.125C6.25 28.5394 6.41462 28.9368 6.70765 29.2299C7.00067 29.5229 7.3981 29.6875 7.8125 29.6875H9.375C9.375 30.1019 9.53962 30.4993 9.83265 30.7924C10.1257 31.0854 10.5231 31.25 10.9375 31.25C11.3519 31.25 11.7493 31.0854 12.0424 30.7924C12.3354 30.4993 12.5 30.1019 12.5 29.6875V29.4062C13.5334 29.0313 14.4021 28.305 14.9543 27.3545C15.5065 26.4039 15.7071 25.2895 15.5209 24.2061C15.3348 23.1226 14.7738 22.1391 13.9359 21.4274C13.0981 20.7156 12.0368 20.321 10.9375 20.3125C10.5231 20.3125 10.1257 20.1479 9.83265 19.8549C9.53962 19.5618 9.375 19.1644 9.375 18.75C9.375 18.3356 9.53962 17.9382 9.83265 17.6451C10.1257 17.3521 10.5231 17.1875 10.9375 17.1875H14.0625C14.4769 17.1875 14.8743 17.0229 15.1674 16.7299C15.4604 16.4368 15.625 16.0394 15.625 15.625C15.625 15.2106 15.4604 14.8132 15.1674 14.5201C14.8743 14.2271 14.4769 14.0625 14.0625 14.0625H12.5C12.5 13.6481 12.3354 13.2507 12.0424 12.9576C11.7493 12.6646 11.3519 12.5 10.9375 12.5C10.5231 12.5 10.1257 12.6646 9.83265 12.9576C9.53962 13.2507 9.375 13.6481 9.375 14.0625V14.3438C8.34161 14.7187 7.47288 15.445 6.92067 16.3955C6.36846 17.3461 6.16791 18.4605 6.35406 19.5439C6.54022 20.6274 7.10125 21.6109 7.93907 22.3226C8.7769 23.0344 9.83822 23.429 10.9375 23.4375C11.3519 23.4375 11.7493 23.6021 12.0424 23.8951C12.3354 24.1882 12.5 24.5856 12.5 25C12.5 25.4144 12.3354 25.8118 12.0424 26.1049C11.7493 26.3979 11.3519 26.5625 10.9375 26.5625Z" fill="#FF0000"/>
<path d="M25 17.1875H37.5C37.9144 17.1875 38.3118 17.0229 38.6049 16.7299C38.8979 16.4368 39.0625 16.0394 39.0625 15.625C39.0625 15.2106 38.8979 14.8132 38.6049 14.5201C38.3118 14.2271 37.9144 14.0625 37.5 14.0625H25C24.5856 14.0625 24.1882 14.2271 23.8951 14.5201C23.6021 14.8132 23.4375 15.2106 23.4375 15.625C23.4375 16.0394 23.6021 16.4368 23.8951 16.7299C24.1882 17.0229 24.5856 17.1875 25 17.1875Z" fill="#FF0000"/>
<path d="M25 23.4375H31.25C31.6644 23.4375 32.0618 23.2729 32.3549 22.9799C32.6479 22.6868 32.8125 22.2894 32.8125 21.875C32.8125 21.4606 32.6479 21.0632 32.3549 20.7701C32.0618 20.4771 31.6644 20.3125 31.25 20.3125H25C24.5856 20.3125 24.1882 20.4771 23.8951 20.7701C23.6021 21.0632 23.4375 21.4606 23.4375 21.875C23.4375 22.2894 23.6021 22.6868 23.8951 22.9799C24.1882 23.2729 24.5856 23.4375 25 23.4375Z" fill="#FF0000"/>
</svg>
