<svg width="17" height="22" viewBox="0 0 17 22" fill="none" xmlns="http://www.w3.org/2000/svg">
<path d="M10.4415 0.528944C10.5393 0.618404 10.686 0.686814 10.6968 0.839422C10.7131 1.10254 10.4361 1.82874 10.4361 2.21815C10.4252 4.35992 12.7991 5.84916 13.0001 7.96988C13.402 7.56994 14.1625 6.83322 14.7981 7.0174C14.9991 7.07528 15.526 8.28036 15.6401 8.54348C17.2371 12.2008 17.8292 16.9001 14.4233 19.7891C9.81141 23.6885 1.28838 21.4046 0.84838 15.1003C0.734305 13.4795 1.84789 15.2845 2.12493 15.0635C1.13628 12.8007 1.40246 10.1958 2.76049 8.13828C3.86322 6.46485 3.67309 7.55416 4.19458 8.53821C4.2326 8.61715 4.69433 9.34861 4.81927 9.20653C4.60199 5.45449 6.78027 1.9603 10.3601 0.523682H10.4307L10.4415 0.528944ZM14.5591 7.55416C14.005 7.69098 13.6085 8.12775 13.2934 8.56453C13.125 8.79607 13.1087 9.16969 12.7448 9.20653C12.4188 9.196 12.4569 8.20669 12.3971 7.89621C12.006 5.89652 10.045 4.61251 9.87116 2.62861C9.83313 2.19184 9.92005 1.78138 9.94178 1.35513C7.16595 2.63914 5.57977 5.33345 5.39508 8.2751C5.37878 8.554 5.45483 9.78012 5.36792 9.90116C5.2973 9.99588 5.05829 9.98009 4.94421 9.96431C4.3684 9.88011 3.59704 8.8329 3.4884 8.28562L3.34173 8.24352C2.08691 10.1432 1.77728 12.2008 2.46716 14.3584C2.56494 14.6688 2.98864 15.2424 2.73876 15.4792C2.38024 15.8213 1.48937 15.4213 1.48937 15.5108C1.85876 17.4316 2.99951 19.126 4.75952 20.089L4.0642 18.9366C2.67358 15.6318 5.64496 11.3799 7.84497 8.99604C7.95905 8.86974 8.56745 8.20142 8.62177 8.16459C8.80103 8.0646 9.00745 8.04882 9.16498 8.19616C9.98523 9.12759 10.8326 10.038 11.5606 11.0378C13.3912 13.5532 15.3196 17.3158 12.924 20.0838C12.9783 20.1311 13.402 19.8259 13.4835 19.768C17.6989 16.8211 16.5038 11.4535 14.5537 7.54889L14.5591 7.55416ZM8.84992 8.80133C7.05188 10.7326 4.9768 13.1954 4.42273 15.8108C2.93975 22.8149 14.3418 22.9202 13.4129 16.2791C13.0924 13.9689 11.1912 11.2694 9.62128 9.55384C9.50721 9.43281 8.92597 8.79081 8.84992 8.80133Z" fill="#FF0000"/>
<path d="M9.73 14.448C9.77889 14.4953 10.9088 14.2269 11.1152 14.2427C11.213 14.2533 11.2782 14.3059 11.3325 14.3796L11.3542 14.6742L8.48604 19.5419C8.31221 19.7945 8.14925 20.1313 7.81246 19.8419L7.75814 19.6524L8.17098 16.1687C7.86678 16.2108 6.17738 16.9528 6.35665 16.2372L9.3063 11.2432C9.51815 11.1485 9.75716 11.2116 9.80062 11.4537C9.88753 11.8957 9.6105 14.3217 9.73 14.448ZM9.15963 14.8953V12.6588L7.24208 15.8267C7.36159 15.9162 8.49691 15.3899 8.74135 15.5899C8.97494 15.9109 8.45888 17.7422 8.55666 18.2368L10.5122 15.0321C10.5448 14.8847 10.4416 14.9268 10.333 14.9268C10.0885 14.9268 9.25741 15.1794 9.16506 14.8953H9.15963Z" fill="#FF0000"/>
</svg>
