<svg width="111" height="111" viewBox="0 0 111 111" fill="none" xmlns="http://www.w3.org/2000/svg">
<path d="M71.3311 46.4838C60.4797 29.9557 39.6163 25.3121 38.7392 25.1287C38.6285 25.1045 38.5336 25.1718 38.4251 25.1866C38.3058 25.1678 38.1836 25.1904 38.0788 25.2506C37.9741 25.3108 37.8931 25.405 37.8492 25.5176C37.7832 25.6031 37.6787 25.6504 37.6424 25.759C37.3619 26.6168 30.8699 46.981 39.6884 64.6774C48.6456 82.6597 62.8851 80.3331 63.0262 80.305C63.133 80.2871 63.2357 80.2504 63.3295 80.1965C63.5146 80.0809 63.6543 79.9052 63.7252 79.6989C63.7961 79.4926 63.7939 79.2681 63.719 79.0632C63.6441 78.8583 63.501 78.6854 63.3138 78.5734C63.1265 78.4614 62.9065 78.4172 62.6905 78.4482C62.1646 78.5384 49.6774 80.5034 41.3746 63.8381C33.8684 48.7721 38.0856 31.1341 39.1871 27.1806C43.1567 28.218 60.5055 33.4369 69.7529 47.5206C79.9758 63.0824 71.987 72.8845 71.6415 73.2951C71.506 73.4661 71.4334 73.6785 71.4359 73.8967C71.4383 74.1148 71.5157 74.3255 71.6551 74.4934C71.7944 74.6613 71.9872 74.7762 72.2012 74.8188C72.4152 74.8614 72.6373 74.8292 72.8303 74.7275C72.9242 74.6737 73.0077 74.6034 73.0768 74.52C73.179 74.4083 82.357 63.2774 71.3311 46.4838Z" fill="white"/>
<path d="M67.6264 60.9731C67.617 60.7389 67.5214 60.5164 67.3581 60.3484C67.1948 60.1803 66.9751 60.0784 66.7413 60.0624C66.5075 60.0463 66.276 60.117 66.0911 60.2611C65.9063 60.4052 65.7812 60.6125 65.7398 60.8432L65.0807 70.3294L60.6699 62.6542L61.5352 50.3579C61.5258 50.1237 61.4303 49.9013 61.2669 49.7332C61.1036 49.5651 60.884 49.4633 60.6502 49.4472C60.4163 49.4311 60.1848 49.5019 60 49.646C59.8152 49.7901 59.69 49.9974 59.6486 50.228L58.981 59.7155L54.575 52.0485L55.1012 44.5804C55.0929 44.3455 54.998 44.1219 54.8346 43.9529C54.6713 43.7838 54.4511 43.6813 54.2166 43.6649C53.9821 43.6486 53.7498 43.7197 53.5647 43.8646C53.3795 44.0094 53.2545 44.2176 53.2138 44.4491L52.883 49.1043L47.9533 40.526C47.9003 40.4027 47.8218 40.2921 47.723 40.2013C47.6242 40.1105 47.5073 40.0417 47.38 39.9993C47.2528 39.9569 47.1179 39.9419 46.9844 39.9553C46.851 39.9687 46.7218 40.0101 46.6055 40.077C46.4892 40.1438 46.3883 40.2345 46.3095 40.3431C46.2307 40.4517 46.1758 40.5758 46.1483 40.7071C46.1209 40.8384 46.1215 40.9741 46.1502 41.1051C46.1789 41.2362 46.235 41.3597 46.3148 41.4675L51.2446 50.0459L47.0528 47.9824C46.9401 47.9103 46.8134 47.8629 46.6811 47.8431C46.5487 47.8233 46.4137 47.8317 46.2848 47.8677C46.156 47.9037 46.0361 47.9664 45.9332 48.0519C45.8302 48.1373 45.7464 48.2435 45.6873 48.3635C45.6281 48.4836 45.595 48.6147 45.59 48.7484C45.585 48.8821 45.6083 49.0154 45.6583 49.1395C45.7084 49.2636 45.784 49.3757 45.8803 49.4686C45.9767 49.5615 46.0915 49.633 46.2173 49.6784L52.9256 52.9964L57.334 60.6675L48.8059 56.4609C48.5858 56.3806 48.3437 56.3843 48.1261 56.4715C47.9086 56.5586 47.7308 56.723 47.627 56.9331C47.5232 57.1433 47.5006 57.3843 47.5636 57.61C47.6266 57.8358 47.7707 58.0303 47.9683 58.1564L59.0204 63.6021L63.4312 71.2773L54.9014 67.0772C54.6812 66.9969 54.4392 67.0007 54.2216 67.0878C54.004 67.1749 53.8263 67.3393 53.7225 67.5495C53.6187 67.7596 53.5961 68.0006 53.6591 68.2264C53.7221 68.4521 53.8662 68.6467 54.0637 68.7727L65.1185 74.2133L71.4487 85.2286C71.5017 85.3518 71.5802 85.4625 71.679 85.5533C71.7778 85.644 71.8946 85.7129 72.0219 85.7553C72.1492 85.7977 72.284 85.8127 72.4175 85.7993C72.551 85.7859 72.6802 85.7444 72.7965 85.6776C72.9128 85.6107 73.0137 85.52 73.0925 85.4114C73.1713 85.3028 73.2262 85.1788 73.2536 85.0475C73.2811 84.9161 73.2804 84.7805 73.2517 84.6494C73.223 84.5184 73.167 84.3949 73.0871 84.287L66.7569 73.2717L67.6264 60.9731Z" fill="white"/>
</svg>
