<svg width="221" height="200" viewBox="0 0 221 200" fill="none" xmlns="http://www.w3.org/2000/svg">
<rect x="14.8311" y="77.5" width="205.669" height="44.256" rx="11.5" stroke="#17447A"/>
<circle cx="14.7082" cy="99.2509" r="14.2082" fill="white" stroke="#6A99D0"/>
<path d="M46.064 92.5684H47.564V103.068H46.064V98.3884H40.034V103.068H38.534V92.5684H40.034V97.0834H46.064V92.5684ZM51.2168 93.5884C50.6618 93.5884 50.2418 93.1834 50.2418 92.6584C50.2418 92.1334 50.6618 91.7134 51.2168 91.7134C51.7718 91.7134 52.1918 92.1184 52.1918 92.6284C52.1918 93.1684 51.7868 93.5884 51.2168 93.5884ZM50.4968 103.068V95.1184H51.9368V103.068H50.4968ZM60.7463 91.9384H62.1863V103.068H60.8063V101.808C60.1613 102.708 59.1413 103.158 57.9713 103.158C55.6463 103.158 53.9513 101.523 53.9513 99.0934C53.9513 96.6634 55.6463 95.0434 57.9713 95.0434C59.0963 95.0434 60.0863 95.4634 60.7463 96.3184V91.9384ZM58.0913 101.898C59.6063 101.898 60.7613 100.788 60.7613 99.0934C60.7613 97.3984 59.6063 96.3034 58.0913 96.3034C56.5613 96.3034 55.4063 97.3984 55.4063 99.0934C55.4063 100.788 56.5613 101.898 58.0913 101.898ZM66.2909 96.4534C66.8009 95.5234 67.7909 95.0434 69.1859 95.0434V96.4384C69.0659 96.4234 68.9609 96.4234 68.8559 96.4234C67.3109 96.4234 66.3509 97.3684 66.3509 99.1084V103.068H64.9109V95.1184H66.2909V96.4534ZM74.2925 103.158C71.9075 103.158 70.1525 101.463 70.1525 99.0934C70.1525 96.7234 71.9075 95.0434 74.2925 95.0434C76.6775 95.0434 78.4175 96.7234 78.4175 99.0934C78.4175 101.463 76.6775 103.158 74.2925 103.158ZM74.2925 101.898C75.8225 101.898 76.9625 100.788 76.9625 99.0934C76.9625 97.3984 75.8225 96.3034 74.2925 96.3034C72.7625 96.3034 71.6075 97.3984 71.6075 99.0934C71.6075 100.788 72.7625 101.898 74.2925 101.898ZM87.5939 99.1384C87.5939 99.2584 87.5789 99.4384 87.5639 99.5734H81.1139C81.2939 100.968 82.4189 101.898 83.9939 101.898C84.9239 101.898 85.7039 101.583 86.2889 100.938L87.0839 101.868C86.3639 102.708 85.2689 103.158 83.9489 103.158C81.3839 103.158 79.6739 101.463 79.6739 99.0934C79.6739 96.7384 81.3689 95.0434 83.6639 95.0434C85.9589 95.0434 87.5939 96.6934 87.5939 99.1384ZM83.6639 96.2584C82.2839 96.2584 81.2639 97.1884 81.1139 98.5384H86.2139C86.0639 97.2034 85.0589 96.2584 83.6639 96.2584ZM89.5935 103.068V91.9384H91.0335V103.068H89.5935ZM99.768 92.0134L97.248 93.9634H95.898L97.938 92.0134H99.768ZM100.968 99.1384C100.968 99.2584 100.953 99.4384 100.938 99.5734H94.488C94.668 100.968 95.793 101.898 97.368 101.898C98.298 101.898 99.078 101.583 99.663 100.938L100.458 101.868C99.738 102.708 98.643 103.158 97.323 103.158C94.758 103.158 93.048 101.463 93.048 99.0934C93.048 96.7384 94.743 95.0434 97.038 95.0434C99.333 95.0434 100.968 96.6934 100.968 99.1384ZM97.038 96.2584C95.658 96.2584 94.638 97.1884 94.488 98.5384H99.588C99.438 97.2034 98.433 96.2584 97.038 96.2584ZM106.433 103.158C103.988 103.158 102.233 101.463 102.233 99.0934C102.233 96.7234 103.988 95.0434 106.433 95.0434C107.858 95.0434 109.043 95.6284 109.673 96.7384L108.578 97.4434C108.068 96.6634 107.288 96.3034 106.418 96.3034C104.858 96.3034 103.688 97.3984 103.688 99.0934C103.688 100.818 104.858 101.898 106.418 101.898C107.288 101.898 108.068 101.538 108.578 100.758L109.673 101.448C109.043 102.558 107.858 103.158 106.433 103.158ZM115.659 101.568L116.109 102.603C115.674 102.978 115.014 103.158 114.369 103.158C112.764 103.158 111.849 102.273 111.849 100.668V96.3034H110.499V95.1184H111.849V93.3784H113.289V95.1184H115.569V96.3034H113.289V100.608C113.289 101.463 113.739 101.943 114.534 101.943C114.954 101.943 115.359 101.808 115.659 101.568ZM119.23 96.4534C119.74 95.5234 120.73 95.0434 122.125 95.0434V96.4384C122.005 96.4234 121.9 96.4234 121.795 96.4234C120.25 96.4234 119.29 97.3684 119.29 99.1084V103.068H117.85V95.1184H119.23V96.4534ZM124.62 93.5884C124.065 93.5884 123.645 93.1834 123.645 92.6584C123.645 92.1334 124.065 91.7134 124.62 91.7134C125.175 91.7134 125.595 92.1184 125.595 92.6284C125.595 93.1684 125.19 93.5884 124.62 93.5884ZM123.9 103.068V95.1184H125.34V103.068H123.9ZM131.555 103.158C129.11 103.158 127.355 101.463 127.355 99.0934C127.355 96.7234 129.11 95.0434 131.555 95.0434C132.98 95.0434 134.165 95.6284 134.795 96.7384L133.7 97.4434C133.19 96.6634 132.41 96.3034 131.54 96.3034C129.98 96.3034 128.81 97.3984 128.81 99.0934C128.81 100.818 129.98 101.898 131.54 101.898C132.41 101.898 133.19 101.538 133.7 100.758L134.795 101.448C134.165 102.558 132.98 103.158 131.555 103.158ZM139.554 95.0434C141.729 95.0434 142.959 96.0934 142.959 98.2684V103.068H141.594V102.018C141.114 102.738 140.229 103.158 138.984 103.158C137.184 103.158 136.044 102.198 136.044 100.818C136.044 99.5434 136.869 98.4934 139.239 98.4934H141.519V98.2084C141.519 96.9934 140.814 96.2884 139.389 96.2884C138.444 96.2884 137.484 96.6184 136.869 97.1434L136.269 96.0634C137.094 95.4034 138.279 95.0434 139.554 95.0434ZM139.224 102.048C140.304 102.048 141.159 101.553 141.519 100.638V99.5284H139.299C137.874 99.5284 137.469 100.083 137.469 100.758C137.469 101.553 138.129 102.048 139.224 102.048ZM147.904 103.158C146.584 103.158 145.279 102.753 144.619 102.228L145.219 101.088C145.894 101.568 146.974 101.913 148.009 101.913C149.344 101.913 149.899 101.508 149.899 100.833C149.899 99.0484 144.874 100.593 144.874 97.4284C144.874 96.0034 146.149 95.0434 148.189 95.0434C149.224 95.0434 150.394 95.3134 151.084 95.7634L150.469 96.9034C149.749 96.4384 148.954 96.2734 148.174 96.2734C146.914 96.2734 146.299 96.7384 146.299 97.3684C146.299 99.2434 151.339 97.7134 151.339 100.803C151.339 102.243 150.019 103.158 147.904 103.158ZM159.012 105.978C157.872 104.163 157.227 101.718 157.227 98.9584C157.227 96.1984 157.872 93.7234 159.012 91.9384H160.377C159.162 94.0684 158.637 96.3334 158.637 98.9584C158.637 101.583 159.162 103.848 160.377 105.978H159.012ZM165.115 95.0434C167.29 95.0434 168.52 96.0934 168.52 98.2684V103.068H167.155V102.018C166.675 102.738 165.79 103.158 164.545 103.158C162.745 103.158 161.605 102.198 161.605 100.818C161.605 99.5434 162.43 98.4934 164.8 98.4934H167.08V98.2084C167.08 96.9934 166.375 96.2884 164.95 96.2884C164.005 96.2884 163.045 96.6184 162.43 97.1434L161.83 96.0634C162.655 95.4034 163.84 95.0434 165.115 95.0434ZM164.785 102.048C165.865 102.048 166.72 101.553 167.08 100.638V99.5284H164.86C163.435 99.5284 163.03 100.083 163.03 100.758C163.03 101.553 163.69 102.048 164.785 102.048ZM177.469 95.1184H178.834V101.988C178.834 104.793 177.409 106.068 174.709 106.068C173.254 106.068 171.784 105.663 170.914 104.883L171.604 103.773C172.339 104.403 173.494 104.808 174.664 104.808C176.539 104.808 177.394 103.938 177.394 102.138V101.508C176.704 102.333 175.669 102.738 174.529 102.738C172.234 102.738 170.494 101.178 170.494 98.8834C170.494 96.5884 172.234 95.0434 174.529 95.0434C175.714 95.0434 176.794 95.4784 177.469 96.3484V95.1184ZM174.694 101.478C176.284 101.478 177.424 100.413 177.424 98.8834C177.424 97.3384 176.284 96.3034 174.694 96.3034C173.089 96.3034 171.949 97.3384 171.949 98.8834C171.949 100.413 173.089 101.478 174.694 101.478ZM187.556 95.1184H188.996V103.068H187.631V101.868C187.046 102.693 186.056 103.158 184.931 103.158C182.876 103.158 181.511 102.033 181.511 99.6934V95.1184H182.951V99.5284C182.951 101.088 183.731 101.868 185.096 101.868C186.596 101.868 187.556 100.938 187.556 99.2284V95.1184ZM194.632 95.0434C196.807 95.0434 198.037 96.0934 198.037 98.2684V103.068H196.672V102.018C196.192 102.738 195.307 103.158 194.062 103.158C192.262 103.158 191.122 102.198 191.122 100.818C191.122 99.5434 191.947 98.4934 194.317 98.4934H196.597V98.2084C196.597 96.9934 195.892 96.2884 194.467 96.2884C193.522 96.2884 192.562 96.6184 191.947 97.1434L191.347 96.0634C192.172 95.4034 193.357 95.0434 194.632 95.0434ZM194.302 102.048C195.382 102.048 196.237 101.553 196.597 100.638V99.5284H194.377C192.952 99.5284 192.547 100.083 192.547 100.758C192.547 101.553 193.207 102.048 194.302 102.048ZM201.182 105.978H199.817C201.032 103.848 201.572 101.583 201.572 98.9584C201.572 96.3334 201.032 94.0684 199.817 91.9384H201.182C202.337 93.7234 202.982 96.1984 202.982 98.9584C202.982 101.718 202.337 104.163 201.182 105.978Z" fill="#133C6D"/>
<path d="M15.3073 89.8276C15.8404 89.985 15.7174 90.5689 15.8712 90.9853L16.43 91.1935C16.7683 91.0107 17.1016 90.6045 17.5322 90.7365C17.5886 90.7518 17.7372 90.8787 17.7936 90.9244C18.0243 91.1174 19.1624 92.2243 19.2598 92.4224C19.4751 92.8489 18.9829 93.2247 18.8189 93.5801L19.0547 94.1336C19.5161 94.2504 20.1467 94.1691 20.2031 94.7835C20.2441 95.2456 20.2595 96.4338 20.2031 96.8756C20.1262 97.4392 19.4495 97.3478 19.0342 97.49L18.824 98.0435C19.0086 98.3837 19.4443 98.7189 19.27 99.1505L17.6193 100.816C17.1426 101.085 16.8042 100.582 16.4095 100.41L15.8507 100.643C15.7174 101.095 15.8199 101.725 15.1945 101.781C14.6665 101.826 13.7129 101.821 13.1798 101.781C12.4518 101.725 12.6569 101.1 12.4467 100.613L11.9084 100.415C11.5547 100.608 11.1343 101.105 10.7037 100.806L9.05807 99.1403C8.92478 98.7138 9.33491 98.3888 9.51947 98.0486L9.30413 97.4849C8.84787 97.3174 8.19683 97.4596 8.14044 96.8147C8.0943 96.3018 8.0943 95.2964 8.14044 94.7835C8.19683 94.1387 8.81714 94.2554 9.29903 94.1183L9.5246 93.575C9.36055 93.2196 8.86838 92.8438 9.0837 92.4173C9.1811 92.2192 10.3192 91.1072 10.5499 90.9193C10.6063 90.8736 10.7549 90.7467 10.8113 90.7314C11.2419 90.5994 11.5701 91.0056 11.9135 91.1884L12.4826 90.9752C12.6415 90.5588 12.5185 90.0002 13.0362 89.8225H15.3227L15.3073 89.8276ZM14.0154 93.1028C11.9084 93.2094 10.7242 95.5757 11.893 97.3123C12.9696 98.9118 15.3791 98.8966 16.4454 97.292C17.6706 95.4386 16.2403 92.9911 14.0154 93.1028Z" fill="#6A99D0"/>
<path d="M23.0381 105.487V105.726C22.8484 106.254 22.3921 106.086 21.9615 106.188C21.5616 106.285 21.2284 106.554 20.8337 106.686C20.1416 106.924 19.2496 106.934 18.5626 106.665C18.2602 106.549 17.9629 106.325 17.6553 106.229C16.2865 105.782 15.7226 106.767 14.523 106.858C13.3234 106.95 13.1081 106.604 12.1238 106.249C10.7499 105.756 10.1296 106.777 8.90947 106.858C8.43271 106.889 7.93542 106.843 7.48429 106.686C7.08955 106.549 6.76658 106.279 6.35646 106.188C5.92071 106.086 5.46959 106.254 5.27991 105.726V105.487C5.44396 105.091 5.74128 105.086 6.13089 105.112C7.36125 105.193 7.95081 106.213 9.35034 105.721C10.2936 105.386 10.473 105.035 11.647 105.106C12.4929 105.157 12.78 105.528 13.4669 105.741C14.8459 106.168 15.4099 105.188 16.6351 105.106C17.8603 105.025 18.0039 105.381 18.9677 105.716C20.3672 106.208 20.9567 105.188 22.1871 105.106C22.5767 105.081 22.874 105.086 23.0381 105.482V105.487Z" fill="#6A99D0"/>
<path d="M23.0382 102.537V102.776C22.8434 103.314 22.3307 103.131 21.8796 103.258C21.5208 103.36 21.2132 103.604 20.8646 103.731C20.4186 103.893 19.8957 103.944 19.4189 103.908C18.1014 103.812 17.5426 102.72 16.0303 103.37C15.169 103.741 14.8614 103.985 13.8361 103.908C12.6058 103.817 11.9803 102.786 10.5962 103.309C9.65805 103.665 9.41197 104 8.25338 103.908C7.40239 103.842 6.88973 103.299 6.13101 103.192C5.74652 103.137 5.46458 103.243 5.28516 102.776V102.537C5.46458 101.953 6.38223 102.151 6.82824 102.294C7.21272 102.416 7.56645 102.69 7.94581 102.801C9.29408 103.198 9.83748 102.248 11.0217 102.157C12.1188 102.075 12.3648 102.334 13.2671 102.71C14.7538 103.33 15.3023 102.253 16.5686 102.157C17.0556 102.121 17.6297 102.167 18.086 102.334C18.4243 102.461 18.7473 102.705 19.1011 102.807C20.4391 103.177 20.9722 102.248 22.1513 102.157C22.5409 102.126 22.8844 102.121 23.0331 102.532L23.0382 102.537Z" fill="#6A99D0"/>
<rect x="27.5923" y="138.5" width="171.815" height="60.5609" rx="11.5" stroke="#17447A"/>
<circle cx="27.4631" cy="168.039" r="13.9631" fill="white" stroke="#FFBF00"/>
<circle cx="199.537" cy="168.039" r="13.9631" fill="white" stroke="#B1CF95"/>
<path d="M56.9449 163.987C56.1449 163.987 55.3799 163.867 54.6499 163.627C53.9199 163.377 53.3449 163.057 52.9249 162.667L53.4799 161.497C53.8799 161.847 54.3899 162.137 55.0099 162.367C55.6299 162.597 56.2749 162.712 56.9449 162.712C57.5549 162.712 58.0499 162.642 58.4299 162.502C58.8099 162.362 59.0899 162.172 59.2699 161.932C59.4499 161.682 59.5399 161.402 59.5399 161.092C59.5399 160.732 59.4199 160.442 59.1799 160.222C58.9499 160.002 58.6449 159.827 58.2649 159.697C57.8949 159.557 57.4849 159.437 57.0349 159.337C56.5849 159.237 56.1299 159.122 55.6699 158.992C55.2199 158.852 54.8049 158.677 54.4249 158.467C54.0549 158.257 53.7549 157.977 53.5249 157.627C53.2949 157.267 53.1799 156.807 53.1799 156.247C53.1799 155.707 53.3199 155.212 53.5999 154.762C53.8899 154.302 54.3299 153.937 54.9199 153.667C55.5199 153.387 56.2799 153.247 57.1999 153.247C57.8099 153.247 58.4149 153.327 59.0149 153.487C59.6149 153.647 60.1349 153.877 60.5749 154.177L60.0799 155.377C59.6299 155.077 59.1549 154.862 58.6549 154.732C58.1549 154.592 57.6699 154.522 57.1999 154.522C56.6099 154.522 56.1249 154.597 55.7449 154.747C55.3649 154.897 55.0849 155.097 54.9049 155.347C54.7349 155.597 54.6499 155.877 54.6499 156.187C54.6499 156.557 54.7649 156.852 54.9949 157.072C55.2349 157.292 55.5399 157.467 55.9099 157.597C56.2899 157.727 56.7049 157.847 57.1549 157.957C57.6049 158.057 58.0549 158.172 58.5049 158.302C58.9649 158.432 59.3799 158.602 59.7499 158.812C60.1299 159.022 60.4349 159.302 60.6649 159.652C60.8949 160.002 61.0099 160.452 61.0099 161.002C61.0099 161.532 60.8649 162.027 60.5749 162.487C60.2849 162.937 59.8349 163.302 59.2249 163.582C58.6249 163.852 57.8649 163.987 56.9449 163.987ZM66.3963 163.957C65.5963 163.957 64.8863 163.782 64.2663 163.432C63.6463 163.082 63.1563 162.602 62.7963 161.992C62.4363 161.372 62.2563 160.672 62.2563 159.892C62.2563 159.102 62.4363 158.402 62.7963 157.792C63.1563 157.182 63.6463 156.707 64.2663 156.367C64.8863 156.017 65.5963 155.842 66.3963 155.842C67.1863 155.842 67.8913 156.017 68.5113 156.367C69.1413 156.707 69.6313 157.182 69.9813 157.792C70.3413 158.392 70.5213 159.092 70.5213 159.892C70.5213 160.682 70.3413 161.382 69.9813 161.992C69.6313 162.602 69.1413 163.082 68.5113 163.432C67.8913 163.782 67.1863 163.957 66.3963 163.957ZM66.3963 162.697C66.9063 162.697 67.3613 162.582 67.7613 162.352C68.1713 162.122 68.4913 161.797 68.7213 161.377C68.9513 160.947 69.0663 160.452 69.0663 159.892C69.0663 159.322 68.9513 158.832 68.7213 158.422C68.4913 158.002 68.1713 157.677 67.7613 157.447C67.3613 157.217 66.9063 157.102 66.3963 157.102C65.8863 157.102 65.4313 157.217 65.0313 157.447C64.6313 157.677 64.3113 158.002 64.0713 158.422C63.8313 158.832 63.7113 159.322 63.7113 159.892C63.7113 160.452 63.8313 160.947 64.0713 161.377C64.3113 161.797 64.6313 162.122 65.0313 162.352C65.4313 162.582 65.8863 162.697 66.3963 162.697ZM72.5128 163.867V152.737H73.9528V163.867H72.5128ZM81.6373 163.867V162.187L81.5623 161.872V159.007C81.5623 158.397 81.3823 157.927 81.0223 157.597C80.6723 157.257 80.1423 157.087 79.4323 157.087C78.9623 157.087 78.5023 157.167 78.0523 157.327C77.6023 157.477 77.2223 157.682 76.9123 157.942L76.3123 156.862C76.7223 156.532 77.2123 156.282 77.7823 156.112C78.3623 155.932 78.9673 155.842 79.5973 155.842C80.6873 155.842 81.5273 156.107 82.1173 156.637C82.7073 157.167 83.0023 157.977 83.0023 159.067V163.867H81.6373ZM79.0273 163.957C78.4373 163.957 77.9173 163.857 77.4673 163.657C77.0273 163.457 76.6873 163.182 76.4473 162.832C76.2073 162.472 76.0873 162.067 76.0873 161.617C76.0873 161.187 76.1873 160.797 76.3873 160.447C76.5973 160.097 76.9323 159.817 77.3923 159.607C77.8623 159.397 78.4923 159.292 79.2823 159.292H81.8023V160.327H79.3423C78.6223 160.327 78.1373 160.447 77.8873 160.687C77.6373 160.927 77.5123 161.217 77.5123 161.557C77.5123 161.947 77.6673 162.262 77.9773 162.502C78.2873 162.732 78.7173 162.847 79.2673 162.847C79.8073 162.847 80.2773 162.727 80.6773 162.487C81.0873 162.247 81.3823 161.897 81.5623 161.437L81.8473 162.427C81.6573 162.897 81.3223 163.272 80.8423 163.552C80.3623 163.822 79.7573 163.957 79.0273 163.957ZM85.6671 163.867V155.917H87.0471V158.077L86.9121 157.537C87.1321 156.987 87.5021 156.567 88.0221 156.277C88.5421 155.987 89.1821 155.842 89.9421 155.842V157.237C89.8821 157.227 89.8221 157.222 89.7621 157.222C89.7121 157.222 89.6621 157.222 89.6121 157.222C88.8421 157.222 88.2321 157.452 87.7821 157.912C87.3321 158.372 87.1071 159.037 87.1071 159.907V163.867H85.6671ZM95.1837 163.957C94.3337 163.957 93.5837 163.782 92.9337 163.432C92.2937 163.082 91.7937 162.602 91.4337 161.992C91.0837 161.382 90.9087 160.682 90.9087 159.892C90.9087 159.102 91.0787 158.402 91.4187 157.792C91.7687 157.182 92.2437 156.707 92.8437 156.367C93.4537 156.017 94.1387 155.842 94.8987 155.842C95.6687 155.842 96.3487 156.012 96.9387 156.352C97.5287 156.692 97.9887 157.172 98.3187 157.792C98.6587 158.402 98.8287 159.117 98.8287 159.937C98.8287 159.997 98.8237 160.067 98.8137 160.147C98.8137 160.227 98.8087 160.302 98.7987 160.372H92.0337V159.337H98.0487L97.4637 159.697C97.4737 159.187 97.3687 158.732 97.1487 158.332C96.9287 157.932 96.6237 157.622 96.2337 157.402C95.8537 157.172 95.4087 157.057 94.8987 157.057C94.3987 157.057 93.9537 157.172 93.5637 157.402C93.1737 157.622 92.8687 157.937 92.6487 158.347C92.4287 158.747 92.3187 159.207 92.3187 159.727V159.967C92.3187 160.497 92.4387 160.972 92.6787 161.392C92.9287 161.802 93.2737 162.122 93.7137 162.352C94.1537 162.582 94.6587 162.697 95.2287 162.697C95.6987 162.697 96.1237 162.617 96.5037 162.457C96.8937 162.297 97.2337 162.057 97.5237 161.737L98.3187 162.667C97.9587 163.087 97.5087 163.407 96.9687 163.627C96.4387 163.847 95.8437 163.957 95.1837 163.957ZM103.108 163.957C102.448 163.957 101.818 163.867 101.218 163.687C100.628 163.507 100.163 163.287 99.8233 163.027L100.423 161.887C100.763 162.117 101.183 162.312 101.683 162.472C102.183 162.632 102.693 162.712 103.213 162.712C103.883 162.712 104.363 162.617 104.653 162.427C104.953 162.237 105.103 161.972 105.103 161.632C105.103 161.382 105.013 161.187 104.833 161.047C104.653 160.907 104.413 160.802 104.113 160.732C103.823 160.662 103.498 160.602 103.138 160.552C102.778 160.492 102.418 160.422 102.058 160.342C101.698 160.252 101.368 160.132 101.068 159.982C100.768 159.822 100.528 159.607 100.348 159.337C100.168 159.057 100.078 158.687 100.078 158.227C100.078 157.747 100.213 157.327 100.483 156.967C100.753 156.607 101.133 156.332 101.623 156.142C102.123 155.942 102.713 155.842 103.393 155.842C103.913 155.842 104.438 155.907 104.968 156.037C105.508 156.157 105.948 156.332 106.288 156.562L105.673 157.702C105.313 157.462 104.938 157.297 104.548 157.207C104.158 157.117 103.768 157.072 103.378 157.072C102.748 157.072 102.278 157.177 101.968 157.387C101.658 157.587 101.503 157.847 101.503 158.167C101.503 158.437 101.593 158.647 101.773 158.797C101.963 158.937 102.203 159.047 102.493 159.127C102.793 159.207 103.123 159.277 103.483 159.337C103.843 159.387 104.203 159.457 104.563 159.547C104.923 159.627 105.248 159.742 105.538 159.892C105.838 160.042 106.078 160.252 106.258 160.522C106.448 160.792 106.543 161.152 106.543 161.602C106.543 162.082 106.403 162.497 106.123 162.847C105.843 163.197 105.448 163.472 104.938 163.672C104.428 163.862 103.818 163.957 103.108 163.957ZM112.716 166.867C112.336 166.867 111.966 166.802 111.606 166.672C111.246 166.552 110.936 166.372 110.676 166.132L111.291 165.052C111.491 165.242 111.711 165.387 111.951 165.487C112.191 165.587 112.446 165.637 112.716 165.637C113.066 165.637 113.356 165.547 113.586 165.367C113.816 165.187 114.031 164.867 114.231 164.407L114.726 163.312L114.876 163.132L117.996 155.917H119.406L115.551 164.662C115.321 165.222 115.061 165.662 114.771 165.982C114.491 166.302 114.181 166.527 113.841 166.657C113.501 166.797 113.126 166.867 112.716 166.867ZM114.606 164.122L110.976 155.917H112.476L115.566 162.997L114.606 164.122ZM128.318 163.957C127.468 163.957 126.718 163.782 126.068 163.432C125.428 163.082 124.928 162.602 124.568 161.992C124.218 161.382 124.043 160.682 124.043 159.892C124.043 159.102 124.213 158.402 124.553 157.792C124.903 157.182 125.378 156.707 125.978 156.367C126.588 156.017 127.273 155.842 128.033 155.842C128.803 155.842 129.483 156.012 130.073 156.352C130.663 156.692 131.123 157.172 131.453 157.792C131.793 158.402 131.963 159.117 131.963 159.937C131.963 159.997 131.958 160.067 131.948 160.147C131.948 160.227 131.943 160.302 131.933 160.372H125.168V159.337H131.183L130.598 159.697C130.608 159.187 130.503 158.732 130.283 158.332C130.063 157.932 129.758 157.622 129.368 157.402C128.988 157.172 128.543 157.057 128.033 157.057C127.533 157.057 127.088 157.172 126.698 157.402C126.308 157.622 126.003 157.937 125.783 158.347C125.563 158.747 125.453 159.207 125.453 159.727V159.967C125.453 160.497 125.573 160.972 125.813 161.392C126.063 161.802 126.408 162.122 126.848 162.352C127.288 162.582 127.793 162.697 128.363 162.697C128.833 162.697 129.258 162.617 129.638 162.457C130.028 162.297 130.368 162.057 130.658 161.737L131.453 162.667C131.093 163.087 130.643 163.407 130.103 163.627C129.573 163.847 128.978 163.957 128.318 163.957ZM137.368 163.957C136.568 163.957 135.858 163.782 135.238 163.432C134.618 163.082 134.128 162.602 133.768 161.992C133.408 161.372 133.228 160.672 133.228 159.892C133.228 159.102 133.408 158.402 133.768 157.792C134.128 157.182 134.618 156.707 135.238 156.367C135.858 156.017 136.568 155.842 137.368 155.842C138.158 155.842 138.863 156.017 139.483 156.367C140.113 156.707 140.603 157.182 140.953 157.792C141.313 158.392 141.493 159.092 141.493 159.892C141.493 160.682 141.313 161.382 140.953 161.992C140.603 162.602 140.113 163.082 139.483 163.432C138.863 163.782 138.158 163.957 137.368 163.957ZM137.368 162.697C137.878 162.697 138.333 162.582 138.733 162.352C139.143 162.122 139.463 161.797 139.693 161.377C139.923 160.947 140.038 160.452 140.038 159.892C140.038 159.322 139.923 158.832 139.693 158.422C139.463 158.002 139.143 157.677 138.733 157.447C138.333 157.217 137.878 157.102 137.368 157.102C136.858 157.102 136.403 157.217 136.003 157.447C135.603 157.677 135.283 158.002 135.043 158.422C134.803 158.832 134.683 159.322 134.683 159.892C134.683 160.452 134.803 160.947 135.043 161.377C135.283 161.797 135.603 162.122 136.003 162.352C136.403 162.582 136.858 162.697 137.368 162.697ZM136.228 154.762L138.268 152.812H140.098L137.578 154.762H136.228ZM143.485 163.867V152.737H144.925V163.867H143.485ZM147.674 163.867V155.917H149.114V163.867H147.674ZM148.394 154.387C148.114 154.387 147.879 154.297 147.689 154.117C147.509 153.937 147.419 153.717 147.419 153.457C147.419 153.187 147.509 152.962 147.689 152.782C147.879 152.602 148.114 152.512 148.394 152.512C148.674 152.512 148.904 152.602 149.084 152.782C149.274 152.952 149.369 153.167 149.369 153.427C149.369 153.697 149.279 153.927 149.099 154.117C148.919 154.297 148.684 154.387 148.394 154.387ZM155.328 163.957C154.518 163.957 153.793 163.782 153.153 163.432C152.523 163.082 152.028 162.602 151.668 161.992C151.308 161.382 151.128 160.682 151.128 159.892C151.128 159.102 151.308 158.402 151.668 157.792C152.028 157.182 152.523 156.707 153.153 156.367C153.793 156.017 154.518 155.842 155.328 155.842C156.048 155.842 156.688 155.987 157.248 156.277C157.818 156.557 158.258 156.977 158.568 157.537L157.473 158.242C157.213 157.852 156.893 157.567 156.513 157.387C156.143 157.197 155.743 157.102 155.313 157.102C154.793 157.102 154.328 157.217 153.918 157.447C153.508 157.677 153.183 158.002 152.943 158.422C152.703 158.832 152.583 159.322 152.583 159.892C152.583 160.462 152.703 160.957 152.943 161.377C153.183 161.797 153.508 162.122 153.918 162.352C154.328 162.582 154.793 162.697 155.313 162.697C155.743 162.697 156.143 162.607 156.513 162.427C156.893 162.237 157.213 161.947 157.473 161.557L158.568 162.247C158.258 162.797 157.818 163.222 157.248 163.522C156.688 163.812 156.048 163.957 155.328 163.957ZM165.368 163.867V162.187L165.293 161.872V159.007C165.293 158.397 165.113 157.927 164.753 157.597C164.403 157.257 163.873 157.087 163.163 157.087C162.693 157.087 162.233 157.167 161.783 157.327C161.333 157.477 160.953 157.682 160.643 157.942L160.043 156.862C160.453 156.532 160.943 156.282 161.513 156.112C162.093 155.932 162.698 155.842 163.328 155.842C164.418 155.842 165.258 156.107 165.848 156.637C166.438 157.167 166.733 157.977 166.733 159.067V163.867H165.368ZM162.758 163.957C162.168 163.957 161.648 163.857 161.198 163.657C160.758 163.457 160.418 163.182 160.178 162.832C159.938 162.472 159.818 162.067 159.818 161.617C159.818 161.187 159.918 160.797 160.118 160.447C160.328 160.097 160.663 159.817 161.123 159.607C161.593 159.397 162.223 159.292 163.013 159.292H165.533V160.327H163.073C162.353 160.327 161.868 160.447 161.618 160.687C161.368 160.927 161.243 161.217 161.243 161.557C161.243 161.947 161.398 162.262 161.708 162.502C162.018 162.732 162.448 162.847 162.998 162.847C163.538 162.847 164.008 162.727 164.408 162.487C164.818 162.247 165.113 161.897 165.293 161.437L165.578 162.427C165.388 162.897 165.053 163.272 164.573 163.552C164.093 163.822 163.488 163.957 162.758 163.957ZM171.678 163.957C171.018 163.957 170.388 163.867 169.788 163.687C169.198 163.507 168.733 163.287 168.393 163.027L168.993 161.887C169.333 162.117 169.753 162.312 170.253 162.472C170.753 162.632 171.263 162.712 171.783 162.712C172.453 162.712 172.933 162.617 173.223 162.427C173.523 162.237 173.673 161.972 173.673 161.632C173.673 161.382 173.583 161.187 173.403 161.047C173.223 160.907 172.983 160.802 172.683 160.732C172.393 160.662 172.068 160.602 171.708 160.552C171.348 160.492 170.988 160.422 170.628 160.342C170.268 160.252 169.938 160.132 169.638 159.982C169.338 159.822 169.098 159.607 168.918 159.337C168.738 159.057 168.648 158.687 168.648 158.227C168.648 157.747 168.783 157.327 169.053 156.967C169.323 156.607 169.703 156.332 170.193 156.142C170.693 155.942 171.283 155.842 171.963 155.842C172.483 155.842 173.008 155.907 173.538 156.037C174.078 156.157 174.518 156.332 174.858 156.562L174.243 157.702C173.883 157.462 173.508 157.297 173.118 157.207C172.728 157.117 172.338 157.072 171.948 157.072C171.318 157.072 170.848 157.177 170.538 157.387C170.228 157.587 170.073 157.847 170.073 158.167C170.073 158.437 170.163 158.647 170.343 158.797C170.533 158.937 170.773 159.047 171.063 159.127C171.363 159.207 171.693 159.277 172.053 159.337C172.413 159.387 172.773 159.457 173.133 159.547C173.493 159.627 173.818 159.742 174.108 159.892C174.408 160.042 174.648 160.252 174.828 160.522C175.018 160.792 175.113 161.152 175.113 161.602C175.113 162.082 174.973 162.497 174.693 162.847C174.413 163.197 174.018 163.472 173.508 163.672C172.998 163.862 172.388 163.957 171.678 163.957ZM55.5199 184.777C54.9499 183.867 54.5099 182.817 54.1999 181.627C53.8899 180.427 53.7349 179.137 53.7349 177.757C53.7349 176.377 53.8899 175.087 54.1999 173.887C54.5099 172.677 54.9499 171.627 55.5199 170.737H56.8849C56.2849 171.797 55.8449 172.907 55.5649 174.067C55.2849 175.217 55.1449 176.447 55.1449 177.757C55.1449 179.067 55.2849 180.302 55.5649 181.462C55.8449 182.612 56.2849 183.717 56.8849 184.777H55.5199ZM61.9986 181.987C61.1986 181.987 60.4336 181.867 59.7036 181.627C58.9736 181.377 58.3986 181.057 57.9786 180.667L58.5336 179.497C58.9336 179.847 59.4436 180.137 60.0636 180.367C60.6836 180.597 61.3286 180.712 61.9986 180.712C62.6086 180.712 63.1036 180.642 63.4836 180.502C63.8636 180.362 64.1436 180.172 64.3236 179.932C64.5036 179.682 64.5936 179.402 64.5936 179.092C64.5936 178.732 64.4736 178.442 64.2336 178.222C64.0036 178.002 63.6986 177.827 63.3186 177.697C62.9486 177.557 62.5386 177.437 62.0886 177.337C61.6386 177.237 61.1836 177.122 60.7236 176.992C60.2736 176.852 59.8586 176.677 59.4786 176.467C59.1086 176.257 58.8086 175.977 58.5786 175.627C58.3486 175.267 58.2336 174.807 58.2336 174.247C58.2336 173.707 58.3736 173.212 58.6536 172.762C58.9436 172.302 59.3836 171.937 59.9736 171.667C60.5736 171.387 61.3336 171.247 62.2536 171.247C62.8636 171.247 63.4686 171.327 64.0686 171.487C64.6686 171.647 65.1886 171.877 65.6286 172.177L65.1336 173.377C64.6836 173.077 64.2086 172.862 63.7086 172.732C63.2086 172.592 62.7236 172.522 62.2536 172.522C61.6636 172.522 61.1786 172.597 60.7986 172.747C60.4186 172.897 60.1386 173.097 59.9586 173.347C59.7886 173.597 59.7036 173.877 59.7036 174.187C59.7036 174.557 59.8186 174.852 60.0486 175.072C60.2886 175.292 60.5936 175.467 60.9636 175.597C61.3436 175.727 61.7586 175.847 62.2086 175.957C62.6586 176.057 63.1086 176.172 63.5586 176.302C64.0186 176.432 64.4336 176.602 64.8036 176.812C65.1836 177.022 65.4886 177.302 65.7186 177.652C65.9486 178.002 66.0636 178.452 66.0636 179.002C66.0636 179.532 65.9186 180.027 65.6286 180.487C65.3386 180.937 64.8886 181.302 64.2786 181.582C63.6786 181.852 62.9186 181.987 61.9986 181.987ZM71.4501 181.957C70.6501 181.957 69.9401 181.782 69.3201 181.432C68.7001 181.082 68.2101 180.602 67.8501 179.992C67.4901 179.372 67.3101 178.672 67.3101 177.892C67.3101 177.102 67.4901 176.402 67.8501 175.792C68.2101 175.182 68.7001 174.707 69.3201 174.367C69.9401 174.017 70.6501 173.842 71.4501 173.842C72.2401 173.842 72.9451 174.017 73.5651 174.367C74.1951 174.707 74.6851 175.182 75.0351 175.792C75.3951 176.392 75.5751 177.092 75.5751 177.892C75.5751 178.682 75.3951 179.382 75.0351 179.992C74.6851 180.602 74.1951 181.082 73.5651 181.432C72.9451 181.782 72.2401 181.957 71.4501 181.957ZM71.4501 180.697C71.9601 180.697 72.4151 180.582 72.8151 180.352C73.2251 180.122 73.5451 179.797 73.7751 179.377C74.0051 178.947 74.1201 178.452 74.1201 177.892C74.1201 177.322 74.0051 176.832 73.7751 176.422C73.5451 176.002 73.2251 175.677 72.8151 175.447C72.4151 175.217 71.9601 175.102 71.4501 175.102C70.9401 175.102 70.4851 175.217 70.0851 175.447C69.6851 175.677 69.3651 176.002 69.1251 176.422C68.8851 176.832 68.7651 177.322 68.7651 177.892C68.7651 178.452 68.8851 178.947 69.1251 179.377C69.3651 179.797 69.6851 180.122 70.0851 180.352C70.4851 180.582 70.9401 180.697 71.4501 180.697ZM77.5665 181.867V170.737H79.0065V181.867H77.5665ZM86.1293 184.867C85.7493 184.867 85.3793 184.802 85.0193 184.672C84.6593 184.552 84.3493 184.372 84.0893 184.132L84.7043 183.052C84.9043 183.242 85.1243 183.387 85.3643 183.487C85.6043 183.587 85.8593 183.637 86.1293 183.637C86.4793 183.637 86.7693 183.547 86.9993 183.367C87.2293 183.187 87.4443 182.867 87.6443 182.407L88.1393 181.312L88.2893 181.132L91.4093 173.917H92.8193L88.9643 182.662C88.7343 183.222 88.4743 183.662 88.1843 183.982C87.9043 184.302 87.5943 184.527 87.2543 184.657C86.9143 184.797 86.5393 184.867 86.1293 184.867ZM88.0193 182.122L84.3893 173.917H85.8893L88.9793 180.997L88.0193 182.122ZM100.277 181.867L96.7965 173.917H98.2965L101.387 181.117H100.667L103.817 173.917H105.227L101.747 181.867H100.277ZM106.57 181.867V173.917H108.01V181.867H106.57ZM107.29 172.387C107.01 172.387 106.775 172.297 106.585 172.117C106.405 171.937 106.315 171.717 106.315 171.457C106.315 171.187 106.405 170.962 106.585 170.782C106.775 170.602 107.01 170.512 107.29 170.512C107.57 170.512 107.8 170.602 107.98 170.782C108.17 170.952 108.265 171.167 108.265 171.427C108.265 171.697 108.175 171.927 107.995 172.117C107.815 172.297 107.58 172.387 107.29 172.387ZM114.3 181.957C113.45 181.957 112.7 181.782 112.05 181.432C111.41 181.082 110.91 180.602 110.55 179.992C110.2 179.382 110.025 178.682 110.025 177.892C110.025 177.102 110.195 176.402 110.535 175.792C110.885 175.182 111.36 174.707 111.96 174.367C112.57 174.017 113.255 173.842 114.015 173.842C114.785 173.842 115.465 174.012 116.055 174.352C116.645 174.692 117.105 175.172 117.435 175.792C117.775 176.402 117.945 177.117 117.945 177.937C117.945 177.997 117.94 178.067 117.93 178.147C117.93 178.227 117.925 178.302 117.915 178.372H111.15V177.337H117.165L116.58 177.697C116.59 177.187 116.485 176.732 116.265 176.332C116.045 175.932 115.74 175.622 115.35 175.402C114.97 175.172 114.525 175.057 114.015 175.057C113.515 175.057 113.07 175.172 112.68 175.402C112.29 175.622 111.985 175.937 111.765 176.347C111.545 176.747 111.435 177.207 111.435 177.727V177.967C111.435 178.497 111.555 178.972 111.795 179.392C112.045 179.802 112.39 180.122 112.83 180.352C113.27 180.582 113.775 180.697 114.345 180.697C114.815 180.697 115.24 180.617 115.62 180.457C116.01 180.297 116.35 180.057 116.64 179.737L117.435 180.667C117.075 181.087 116.625 181.407 116.085 181.627C115.555 181.847 114.96 181.957 114.3 181.957ZM124.189 173.842C124.839 173.842 125.409 173.967 125.899 174.217C126.399 174.467 126.789 174.847 127.069 175.357C127.349 175.867 127.489 176.512 127.489 177.292V181.867H126.049V177.457C126.049 176.687 125.859 176.107 125.479 175.717C125.109 175.327 124.584 175.132 123.904 175.132C123.394 175.132 122.949 175.232 122.569 175.432C122.189 175.632 121.894 175.927 121.684 176.317C121.484 176.707 121.384 177.192 121.384 177.772V181.867H119.944V173.917H121.324V176.062L121.099 175.492C121.359 174.972 121.759 174.567 122.299 174.277C122.839 173.987 123.469 173.842 124.189 173.842ZM132.884 181.957C132.084 181.957 131.464 181.742 131.024 181.312C130.584 180.882 130.364 180.267 130.364 179.467V172.177H131.804V179.407C131.804 179.837 131.909 180.167 132.119 180.397C132.339 180.627 132.649 180.742 133.049 180.742C133.499 180.742 133.874 180.617 134.174 180.367L134.624 181.402C134.404 181.592 134.139 181.732 133.829 181.822C133.529 181.912 133.214 181.957 132.884 181.957ZM129.014 175.102V173.917H134.084V175.102H129.014ZM139.507 181.957C138.707 181.957 137.997 181.782 137.377 181.432C136.757 181.082 136.267 180.602 135.907 179.992C135.547 179.372 135.367 178.672 135.367 177.892C135.367 177.102 135.547 176.402 135.907 175.792C136.267 175.182 136.757 174.707 137.377 174.367C137.997 174.017 138.707 173.842 139.507 173.842C140.297 173.842 141.002 174.017 141.622 174.367C142.252 174.707 142.742 175.182 143.092 175.792C143.452 176.392 143.632 177.092 143.632 177.892C143.632 178.682 143.452 179.382 143.092 179.992C142.742 180.602 142.252 181.082 141.622 181.432C141.002 181.782 140.297 181.957 139.507 181.957ZM139.507 180.697C140.017 180.697 140.472 180.582 140.872 180.352C141.282 180.122 141.602 179.797 141.832 179.377C142.062 178.947 142.177 178.452 142.177 177.892C142.177 177.322 142.062 176.832 141.832 176.422C141.602 176.002 141.282 175.677 140.872 175.447C140.472 175.217 140.017 175.102 139.507 175.102C138.997 175.102 138.542 175.217 138.142 175.447C137.742 175.677 137.422 176.002 137.182 176.422C136.942 176.832 136.822 177.322 136.822 177.892C136.822 178.452 136.942 178.947 137.182 179.377C137.422 179.797 137.742 180.122 138.142 180.352C138.542 180.582 138.997 180.697 139.507 180.697ZM146.103 184.777H144.738C145.348 183.717 145.793 182.612 146.073 181.462C146.353 180.302 146.493 179.067 146.493 177.757C146.493 176.447 146.353 175.217 146.073 174.067C145.793 172.907 145.348 171.797 144.738 170.737H146.103C146.693 171.627 147.138 172.677 147.438 173.887C147.748 175.087 147.903 176.377 147.903 177.757C147.903 179.137 147.748 180.427 147.438 181.627C147.138 182.817 146.693 183.867 146.103 184.777Z" fill="#133C6D"/>
<path d="M200.666 160.257C200.832 160.301 201.021 160.295 201.193 160.326C202.366 160.506 203.846 161.217 204.646 162.151C204.948 162.5 204.67 163.017 204.237 162.886C204.071 162.836 204.006 162.699 203.888 162.587C203.094 161.89 202.229 161.372 201.187 161.21C201.276 161.522 201.353 161.833 201.4 162.157C201.572 163.254 201.548 164.438 201.371 165.534C201.353 165.653 201.258 165.902 201.27 166.008C201.27 166.051 201.406 166.282 201.454 166.307C202.786 166.755 204.403 167.615 205.315 168.755C206.068 169.69 205.635 170.244 204.984 171.042C204.225 171.97 203.183 172.68 202.064 173.029L202.259 174.213H206.98C207.465 174.331 207.43 175.029 206.926 175.085H193.629C193.416 175.06 193.327 174.954 193.232 174.767V174.537C193.321 174.362 193.404 174.25 193.606 174.219H198.302L199.185 168.948L198 169.69C197.343 170.039 195.619 170.88 195.015 170.194C194.654 169.783 194.275 168.5 194.186 167.939C194.062 167.154 194.038 165.833 194.322 165.086C194.47 164.699 194.98 164.712 195.092 165.073C195.163 165.304 194.974 165.92 194.95 166.207C194.891 166.811 194.926 167.428 195.045 168.014C195.063 168.101 195.217 168.736 195.264 168.736C196.318 167.571 197.698 166.768 199.144 166.276C199.167 166.251 199.292 166.026 199.292 166.001C199.303 165.902 199.209 165.653 199.191 165.528C199.001 164.382 198.984 163.098 199.191 161.952C199.303 161.335 199.523 160.432 200.174 160.251H200.672L200.666 160.257ZM200.31 161.242C200.263 161.198 200.198 161.385 200.186 161.416C199.854 162.232 199.825 163.702 199.896 164.587C199.902 164.693 200.002 165.522 200.05 165.528C200.216 165.478 200.358 165.497 200.524 165.528C200.772 164.132 200.796 162.581 200.304 161.242H200.31ZM200.577 166.494C200.192 166.089 199.606 166.712 199.991 167.11C200.376 167.509 200.962 166.892 200.577 166.494ZM195.714 169.577C196.194 169.553 196.65 169.372 197.082 169.179C197.9 168.811 198.652 168.294 199.339 167.696C199.357 167.677 199.345 167.659 199.339 167.64C199.315 167.553 199.126 167.322 199.09 167.21C198.178 167.565 197.296 168.045 196.532 168.687C196.224 168.942 195.921 169.229 195.72 169.584L195.714 169.577ZM204.853 169.577C204.658 169.216 204.344 168.936 204.042 168.68C203.278 168.039 202.395 167.559 201.483 167.204L201.223 167.69C201.454 167.864 201.667 168.064 201.898 168.238C202.372 168.587 202.952 168.936 203.485 169.173C203.917 169.366 204.379 169.546 204.853 169.571V169.577ZM199.126 174.213H201.436L200.387 168.107H200.186L199.126 174.213ZM204.415 170.394C203.645 170.257 202.934 169.883 202.247 169.503L201.382 168.948L201.951 172.163C202.911 171.851 203.787 171.222 204.415 170.4V170.394Z" fill="#B1CF95"/>
<path d="M19.8777 171.533C19.7582 171.514 19.6449 171.364 19.6827 171.24L22.0099 163.888C22.0602 163.776 22.186 163.751 22.2992 163.745L29.1487 163.764C29.1864 163.758 29.199 163.552 29.2116 163.502C29.5575 162.038 31.2054 161.272 32.5577 162.001C34.2371 162.904 34.1176 165.34 32.3753 166.088L33.9855 171.215C34.0043 171.327 34.0169 171.402 33.9226 171.483C33.91 171.495 33.8219 171.545 33.8157 171.545H27.0794V173.638H29.828L31.9539 174.635C32.0923 174.76 32.0482 174.984 31.8721 175.046H21.8338C21.6199 175.015 21.5822 174.729 21.7583 174.617L23.8402 173.638H26.6076L26.5762 171.545H19.8777V171.533ZM29.7148 163.745C30.2934 163.739 30.8784 163.745 31.457 163.745C31.5325 163.745 31.6583 163.832 31.6834 163.907L32.2244 165.614C33.6521 164.985 33.6018 162.917 32.1489 162.337C31.0356 161.889 29.8531 162.58 29.6582 163.733C29.6896 163.783 29.7022 163.745 29.7085 163.745H29.7148ZM23.6829 164.237H22.3935L22.0602 165.309H23.4502L23.6766 164.237H23.6829ZM25.5321 164.237H24.1861L23.9597 165.309H25.4566L25.5384 164.237H25.5321ZM27.6706 164.237H26.0416L25.9472 165.309H27.7524L27.6706 164.237ZM29.5135 164.237H28.1423L28.2241 165.309H29.7211L29.5135 164.237ZM31.608 165.309L31.2683 164.237H30.0104L30.2179 165.309H31.608ZM23.3496 165.801H21.8967L21.5444 167.016H23.0665L23.3496 165.801ZM25.4063 165.801H23.8528L23.6012 167.016H25.2931L25.4063 165.801ZM27.7901 165.801H25.9032L25.8026 166.966C25.8026 166.966 25.8214 167.016 25.834 167.016H27.8782L27.7964 165.801H27.7901ZM29.8468 165.801H28.2681L28.3688 167.016H30.0607L30.0859 166.972L29.8468 165.801ZM31.7778 165.801H30.3249L30.6079 167.016H32.1552L31.7841 165.801H31.7778ZM22.9974 167.483H21.3872L20.9595 168.779H22.7206L22.9911 167.483H22.9974ZM25.2805 167.483H23.5068L23.2238 168.779H25.1736L25.2742 167.483H25.2805ZM27.9159 167.483H25.7585L25.6768 168.779H28.0228L27.9222 167.483H27.9159ZM30.1991 167.483H28.4128L28.4946 168.779H30.4632L30.1928 167.483H30.1991ZM32.3187 167.483H30.7022L30.9853 168.779H32.715L32.3187 167.483ZM22.6263 169.271H20.8337C20.7834 169.346 20.7645 169.439 20.7331 169.52C20.5884 169.956 20.45 170.399 20.3179 170.835C20.2991 170.891 20.2676 170.978 20.2613 171.028C20.2488 171.09 20.2865 171.041 20.2928 171.041H22.2552L22.6263 169.271ZM25.1359 169.271H23.1043L22.7521 171.041H25.0164L25.1421 169.271H25.1359ZM28.0606 169.271H25.6327L25.4881 171.041H28.1864L28.0606 169.271ZM30.5702 169.271H28.5386L28.6833 171.041H30.9475L30.5765 169.271H30.5702ZM32.8785 169.271H31.0733L31.457 171.041H33.388C33.388 171.041 33.4068 171.078 33.4383 171.028L32.8785 169.271ZM22.9974 174.573H30.696L29.7965 174.137L23.9597 174.118C23.6578 174.243 23.3496 174.374 23.0603 174.517C23.0351 174.529 23.0036 174.536 22.9974 174.567V174.573Z" fill="#FFBF00"/>
<path d="M35.1742 164.169C35.1365 164.206 35.061 164.231 35.0044 164.237C34.8723 164.25 34.4006 164.256 34.2811 164.237C34.0358 164.188 34.0295 163.801 34.3251 163.752C34.4572 163.727 34.8786 163.733 35.0169 163.752C35.2182 163.789 35.3377 164.013 35.1742 164.169Z" fill="#FFBF00"/>
<path d="M32.8282 166.237C32.9163 166.219 33.0232 166.237 33.0861 166.306C33.1427 166.362 33.388 166.798 33.4258 166.891C33.4383 166.923 33.4635 166.966 33.4698 166.997C33.5138 167.215 33.2371 167.377 33.061 167.215C32.9981 167.159 32.7591 166.736 32.715 166.636C32.671 166.549 32.6395 166.511 32.6647 166.412C32.6836 166.331 32.7402 166.262 32.8282 166.244V166.237Z" fill="#FFBF00"/>
<path d="M33.7779 165.253C33.847 165.184 33.9477 165.172 34.0357 165.197C34.1049 165.215 34.627 165.514 34.6836 165.564C34.8848 165.745 34.7087 166.056 34.432 165.975C34.388 165.963 33.8282 165.639 33.7904 165.602C33.6898 165.508 33.6772 165.352 33.7779 165.253Z" fill="#FFBF00"/>
<path d="M33.0483 160.792C33.2307 160.612 33.5514 160.792 33.4445 161.073C33.4131 161.154 33.1363 161.621 33.086 161.683C32.8847 161.901 32.5577 161.696 32.7023 161.384C32.7401 161.303 33.0042 160.848 33.0545 160.798L33.0483 160.792Z" fill="#FFBF00"/>
<path d="M29.6141 160.73C29.7022 160.711 29.8028 160.73 29.872 160.798C29.916 160.842 30.2116 161.346 30.2368 161.421C30.3437 161.689 30.0355 161.882 29.8468 161.702C29.7148 161.571 29.5952 161.209 29.4632 161.054C29.4191 160.935 29.482 160.761 29.6141 160.73Z" fill="#FFBF00"/>
<path d="M34.4885 162.001C34.652 161.976 34.7904 162.132 34.759 162.294C34.7464 162.387 34.652 162.437 34.5766 162.487C34.5011 162.537 34.0986 162.78 34.0357 162.792C33.7337 162.867 33.5702 162.543 33.8344 162.35C33.9099 162.3 34.4193 162.007 34.4822 162.001H34.4885Z" fill="#FFBF00"/>
<path d="M28.3497 162.001C28.4189 161.988 28.4692 162.013 28.5259 162.038C28.6076 162.075 29.0794 162.337 29.1297 162.387C29.3121 162.555 29.1611 162.848 28.8844 162.792C28.8403 162.779 28.268 162.455 28.224 162.418C28.0793 162.281 28.1548 162.032 28.3435 162.001H28.3497Z" fill="#FFBF00"/>
<path d="M31.394 160.256C31.5135 160.231 31.6707 160.294 31.6896 160.425C31.7084 160.53 31.7084 161.129 31.6896 161.222C31.6393 161.446 31.2493 161.44 31.2178 161.166C31.2053 161.041 31.199 160.549 31.2178 160.431C31.2367 160.35 31.3122 160.275 31.394 160.256Z" fill="#FFBF00"/>
<rect x="14.3771" y="0.5" width="199.123" height="59.6212" rx="11.5" stroke="#17447A"/>
<circle cx="14.2423" cy="29.5802" r="13.7423" fill="white" stroke="#FF0000"/>
<path d="M39.4485 25.686V16.491H35.8485V15.186H44.5335V16.491H40.9335V25.686H39.4485ZM51.1219 14.631L48.6019 16.581H47.2519L49.2919 14.631H51.1219ZM52.3219 21.756C52.3219 21.876 52.3069 22.056 52.2919 22.191H45.8419C46.0219 23.586 47.1469 24.516 48.7219 24.516C49.6519 24.516 50.4319 24.201 51.0169 23.556L51.8119 24.486C51.0919 25.326 49.9969 25.776 48.6769 25.776C46.1119 25.776 44.4019 24.081 44.4019 21.711C44.4019 19.356 46.0969 17.661 48.3919 17.661C50.6869 17.661 52.3219 19.311 52.3219 21.756ZM48.3919 18.876C47.0119 18.876 45.9919 19.806 45.8419 21.156H50.9419C50.7919 19.821 49.7869 18.876 48.3919 18.876ZM55.7014 19.071C56.2114 18.141 57.2014 17.661 58.5964 17.661V19.056C58.4764 19.041 58.3714 19.041 58.2664 19.041C56.7214 19.041 55.7614 19.986 55.7614 21.726V25.686H54.3214V17.736H55.7014V19.071ZM70.3162 17.661C72.2512 17.661 73.5712 18.771 73.5712 21.111V25.686H72.1312V21.276C72.1312 19.716 71.3812 18.951 70.0762 18.951C68.6362 18.951 67.6912 19.866 67.6912 21.591V25.686H66.2512V21.276C66.2512 19.716 65.5012 18.951 64.1962 18.951C62.7562 18.951 61.8112 19.866 61.8112 21.591V25.686H60.3712V17.736H61.7512V18.921C62.3212 18.111 63.2962 17.661 64.4962 17.661C65.7112 17.661 66.7312 18.141 67.2562 19.131C67.8562 18.231 68.9662 17.661 70.3162 17.661ZM76.9408 16.206C76.3858 16.206 75.9658 15.801 75.9658 15.276C75.9658 14.751 76.3858 14.331 76.9408 14.331C77.4958 14.331 77.9158 14.736 77.9158 15.246C77.9158 15.786 77.5108 16.206 76.9408 16.206ZM76.2208 25.686V17.736H77.6608V25.686H76.2208ZM83.8753 25.776C81.4303 25.776 79.6753 24.081 79.6753 21.711C79.6753 19.341 81.4303 17.661 83.8753 17.661C85.3003 17.661 86.4853 18.246 87.1153 19.356L86.0203 20.061C85.5103 19.281 84.7303 18.921 83.8603 18.921C82.3003 18.921 81.1303 20.016 81.1303 21.711C81.1303 23.436 82.3003 24.516 83.8603 24.516C84.7303 24.516 85.5103 24.156 86.0203 23.376L87.1153 24.066C86.4853 25.176 85.3003 25.776 83.8753 25.776ZM91.8746 17.661C94.0496 17.661 95.2796 18.711 95.2796 20.886V25.686H93.9146V24.636C93.4346 25.356 92.5496 25.776 91.3046 25.776C89.5046 25.776 88.3646 24.816 88.3646 23.436C88.3646 22.161 89.1896 21.111 91.5596 21.111H93.8396V20.826C93.8396 19.611 93.1346 18.906 91.7096 18.906C90.7646 18.906 89.8046 19.236 89.1896 19.761L88.5896 18.681C89.4146 18.021 90.5996 17.661 91.8746 17.661ZM91.5446 24.666C92.6246 24.666 93.4796 24.171 93.8396 23.256V22.146H91.6196C90.1946 22.146 89.7896 22.701 89.7896 23.376C89.7896 24.171 90.4496 24.666 91.5446 24.666ZM100.224 25.776C98.9045 25.776 97.5995 25.371 96.9395 24.846L97.5395 23.706C98.2145 24.186 99.2945 24.531 100.329 24.531C101.664 24.531 102.219 24.126 102.219 23.451C102.219 21.666 97.1945 23.211 97.1945 20.046C97.1945 18.621 98.4695 17.661 100.509 17.661C101.544 17.661 102.714 17.931 103.404 18.381L102.789 19.521C102.069 19.056 101.274 18.891 100.494 18.891C99.2345 18.891 98.6195 19.356 98.6195 19.986C98.6195 21.861 103.659 20.331 103.659 23.421C103.659 24.861 102.339 25.776 100.224 25.776ZM107.304 28.596C106.164 26.781 105.519 24.336 105.519 21.576C105.519 18.816 106.164 16.341 107.304 14.556H108.669C107.454 16.686 106.929 18.951 106.929 21.576C106.929 24.201 107.454 26.466 108.669 28.596H107.304ZM117.998 23.796V20.376H119.438V24.471C118.388 25.356 116.933 25.806 115.463 25.806C112.238 25.806 109.868 23.541 109.868 20.436C109.868 17.331 112.238 15.066 115.493 15.066C117.158 15.066 118.568 15.621 119.528 16.686L118.598 17.616C117.728 16.776 116.738 16.401 115.553 16.401C113.123 16.401 111.368 18.096 111.368 20.436C111.368 22.746 113.123 24.471 115.538 24.471C116.423 24.471 117.248 24.276 117.998 23.796ZM124.995 17.661C127.17 17.661 128.4 18.711 128.4 20.886V25.686H127.035V24.636C126.555 25.356 125.67 25.776 124.425 25.776C122.625 25.776 121.485 24.816 121.485 23.436C121.485 22.161 122.31 21.111 124.68 21.111H126.96V20.826C126.96 19.611 126.255 18.906 124.83 18.906C123.885 18.906 122.925 19.236 122.31 19.761L121.71 18.681C122.535 18.021 123.72 17.661 124.995 17.661ZM124.665 24.666C125.745 24.666 126.6 24.171 126.96 23.256V22.146H124.74C123.315 22.146 122.91 22.701 122.91 23.376C122.91 24.171 123.57 24.666 124.665 24.666ZM133.345 25.776C132.025 25.776 130.72 25.371 130.06 24.846L130.66 23.706C131.335 24.186 132.415 24.531 133.45 24.531C134.785 24.531 135.34 24.126 135.34 23.451C135.34 21.666 130.315 23.211 130.315 20.046C130.315 18.621 131.59 17.661 133.63 17.661C134.665 17.661 135.835 17.931 136.525 18.381L135.91 19.521C135.19 19.056 134.395 18.891 133.615 18.891C132.355 18.891 131.74 19.356 131.74 19.986C131.74 21.861 136.78 20.331 136.78 23.421C136.78 24.861 135.46 25.776 133.345 25.776ZM146.853 17.661C148.788 17.661 150.153 18.771 150.153 21.111V25.686H148.713V21.276C148.713 19.716 147.933 18.951 146.568 18.951C145.038 18.951 144.048 19.866 144.048 21.591V25.686H142.608V17.736H143.988V18.936C144.573 18.126 145.593 17.661 146.853 17.661ZM155.713 17.661C157.888 17.661 159.118 18.711 159.118 20.886V25.686H157.753V24.636C157.273 25.356 156.388 25.776 155.143 25.776C153.343 25.776 152.203 24.816 152.203 23.436C152.203 22.161 153.028 21.111 155.398 21.111H157.678V20.826C157.678 19.611 156.973 18.906 155.548 18.906C154.603 18.906 153.643 19.236 153.028 19.761L152.428 18.681C153.253 18.021 154.438 17.661 155.713 17.661ZM155.383 24.666C156.463 24.666 157.318 24.171 157.678 23.256V22.146H155.458C154.033 22.146 153.628 22.701 153.628 23.376C153.628 24.171 154.288 24.666 155.383 24.666ZM165.802 24.186L166.252 25.221C165.817 25.596 165.157 25.776 164.512 25.776C162.907 25.776 161.992 24.891 161.992 23.286V18.921H160.642V17.736H161.992V15.996H163.432V17.736H165.712V18.921H163.432V23.226C163.432 24.081 163.882 24.561 164.677 24.561C165.097 24.561 165.502 24.426 165.802 24.186ZM173.963 17.736H175.403V25.686H174.038V24.486C173.453 25.311 172.463 25.776 171.338 25.776C169.283 25.776 167.918 24.651 167.918 22.311V17.736H169.358V22.146C169.358 23.706 170.138 24.486 171.503 24.486C173.003 24.486 173.963 23.556 173.963 21.846V17.736ZM179.525 19.071C180.035 18.141 181.025 17.661 182.42 17.661V19.056C182.3 19.041 182.195 19.041 182.09 19.041C180.545 19.041 179.585 19.986 179.585 21.726V25.686H178.145V17.736H179.525V19.071ZM187.075 17.661C189.25 17.661 190.48 18.711 190.48 20.886V25.686H189.115V24.636C188.635 25.356 187.75 25.776 186.505 25.776C184.705 25.776 183.565 24.816 183.565 23.436C183.565 22.161 184.39 21.111 186.76 21.111H189.04V20.826C189.04 19.611 188.335 18.906 186.91 18.906C185.965 18.906 185.005 19.236 184.39 19.761L183.79 18.681C184.615 18.021 185.8 17.661 187.075 17.661ZM186.745 24.666C187.825 24.666 188.68 24.171 189.04 23.256V22.146H186.82C185.395 22.146 184.99 22.701 184.99 23.376C184.99 24.171 185.65 24.666 186.745 24.666ZM193.145 25.686V14.556H194.585V25.686H193.145ZM197.694 23.721C198.264 23.721 198.669 24.156 198.669 24.741C198.669 25.041 198.609 25.266 198.414 25.821L197.709 27.906H196.764L197.319 25.671C196.944 25.536 196.689 25.191 196.689 24.741C196.689 24.141 197.124 23.721 197.694 23.721ZM40.6185 43.776C38.1735 43.776 36.4185 42.081 36.4185 39.711C36.4185 37.341 38.1735 35.661 40.6185 35.661C42.0435 35.661 43.2285 36.246 43.8585 37.356L42.7635 38.061C42.2535 37.281 41.4735 36.921 40.6035 36.921C39.0435 36.921 37.8735 38.016 37.8735 39.711C37.8735 41.436 39.0435 42.516 40.6035 42.516C41.4735 42.516 42.2535 42.156 42.7635 41.376L43.8585 42.066C43.2285 43.176 42.0435 43.776 40.6185 43.776ZM48.6178 35.661C50.7928 35.661 52.0228 36.711 52.0228 38.886V43.686H50.6578V42.636C50.1778 43.356 49.2928 43.776 48.0478 43.776C46.2478 43.776 45.1078 42.816 45.1078 41.436C45.1078 40.161 45.9328 39.111 48.3028 39.111H50.5828V38.826C50.5828 37.611 49.8778 36.906 48.4528 36.906C47.5078 36.906 46.5478 37.236 45.9328 37.761L45.3328 36.681C46.1578 36.021 47.3428 35.661 48.6178 35.661ZM48.2878 42.666C49.3678 42.666 50.2228 42.171 50.5828 41.256V40.146H48.3628C46.9378 40.146 46.5328 40.701 46.5328 41.376C46.5328 42.171 47.1928 42.666 48.2878 42.666ZM56.0676 37.071C56.5776 36.141 57.5676 35.661 58.9626 35.661V37.056C58.8426 37.041 58.7376 37.041 58.6326 37.041C57.0876 37.041 56.1276 37.986 56.1276 39.726V43.686H54.6876V35.736H56.0676V37.071ZM64.9524 35.661C67.2774 35.661 68.9724 37.281 68.9724 39.711C68.9724 42.141 67.2774 43.776 64.9524 43.776C63.7824 43.776 62.7624 43.326 62.1174 42.426V43.686H60.7374V32.556H62.1774V36.936C62.8374 36.081 63.8274 35.661 64.9524 35.661ZM64.8324 42.516C66.3624 42.516 67.5174 41.406 67.5174 39.711C67.5174 38.016 66.3624 36.921 64.8324 36.921C63.3174 36.921 62.1624 38.016 62.1624 39.711C62.1624 41.406 63.3174 42.516 64.8324 42.516ZM73.227 34.581L75.267 32.631H77.097L74.577 34.581H73.227ZM74.367 43.776C71.982 43.776 70.227 42.081 70.227 39.711C70.227 37.341 71.982 35.661 74.367 35.661C76.752 35.661 78.492 37.341 78.492 39.711C78.492 42.081 76.752 43.776 74.367 43.776ZM74.367 42.516C75.897 42.516 77.037 41.406 77.037 39.711C77.037 38.016 75.897 36.921 74.367 36.921C72.837 36.921 71.682 38.016 71.682 39.711C71.682 41.406 72.837 42.516 74.367 42.516ZM84.7285 35.661C86.6635 35.661 88.0285 36.771 88.0285 39.111V43.686H86.5885V39.276C86.5885 37.716 85.8085 36.951 84.4435 36.951C82.9135 36.951 81.9235 37.866 81.9235 39.591V43.686H80.4835V35.736H81.8635V36.936C82.4485 36.126 83.4685 35.661 84.7285 35.661ZM91.0535 41.721C91.6235 41.721 92.0285 42.156 92.0285 42.741C92.0285 43.041 91.9685 43.266 91.7735 43.821L91.0685 45.906H90.1235L90.6785 43.671C90.3035 43.536 90.0485 43.191 90.0485 42.741C90.0485 42.141 90.4835 41.721 91.0535 41.721ZM105.74 34.491H99.8302V38.151H105.095V39.441H99.8302V43.686H98.3302V33.186H105.74V34.491ZM113.363 35.736H114.803V43.686H113.438V42.486C112.853 43.311 111.863 43.776 110.738 43.776C108.683 43.776 107.318 42.651 107.318 40.311V35.736H108.758V40.146C108.758 41.706 109.538 42.486 110.903 42.486C112.403 42.486 113.363 41.556 113.363 39.846V35.736ZM124.729 39.756C124.729 39.876 124.714 40.056 124.699 40.191H118.249C118.429 41.586 119.554 42.516 121.129 42.516C122.059 42.516 122.839 42.201 123.424 41.556L124.219 42.486C123.499 43.326 122.404 43.776 121.084 43.776C118.519 43.776 116.809 42.081 116.809 39.711C116.809 37.356 118.504 35.661 120.799 35.661C123.094 35.661 124.729 37.311 124.729 39.756ZM120.799 36.876C119.419 36.876 118.399 37.806 118.249 39.156H123.349C123.199 37.821 122.194 36.876 120.799 36.876ZM126.729 43.686V32.556H128.169V43.686H126.729ZM138.351 43.776C135.966 43.776 134.211 42.081 134.211 39.711C134.211 37.341 135.966 35.661 138.351 35.661C140.736 35.661 142.476 37.341 142.476 39.711C142.476 42.081 140.736 43.776 138.351 43.776ZM138.351 42.516C139.881 42.516 141.021 41.406 141.021 39.711C141.021 38.016 139.881 36.921 138.351 36.921C136.821 36.921 135.666 38.016 135.666 39.711C135.666 41.406 136.821 42.516 138.351 42.516ZM145.188 34.206C144.633 34.206 144.213 33.801 144.213 33.276C144.213 32.751 144.633 32.331 145.188 32.331C145.743 32.331 146.163 32.736 146.163 33.246C146.163 33.786 145.758 34.206 145.188 34.206ZM144.468 43.686V35.736H145.908V43.686H144.468ZM148.657 43.686V32.556H150.097V43.686H148.657ZM153.327 46.596H151.962C153.177 44.466 153.717 42.201 153.717 39.576C153.717 36.951 153.177 34.686 151.962 32.556H153.327C154.482 34.341 155.127 36.816 155.127 39.576C155.127 42.336 154.482 44.781 153.327 46.596Z" fill="#133C6D"/>
<g clip-path="url(#clip0_3184_321)">
<path d="M15.4415 17.5289C15.5393 17.6184 15.686 17.6868 15.6968 17.8394C15.7131 18.1025 15.4361 18.8287 15.4361 19.2182C15.4252 21.3599 17.7991 22.8492 18.0001 24.9699C18.402 24.5699 19.1625 23.8332 19.7981 24.0174C19.9991 24.0753 20.526 25.2804 20.6401 25.5435C22.2371 29.2008 22.8292 33.9001 19.4233 36.7891C14.8114 40.6885 6.28838 38.4046 5.84838 32.1003C5.73431 30.4795 6.84789 32.2845 7.12493 32.0635C6.13628 29.8007 6.40246 27.1958 7.76049 25.1383C8.86322 23.4649 8.67309 24.5542 9.19458 25.5382C9.2326 25.6171 9.69433 26.3486 9.81927 26.2065C9.60199 22.4545 11.7803 18.9603 15.3601 17.5237H15.4307L15.4415 17.5289ZM19.5591 24.5542C19.005 24.691 18.6085 25.1278 18.2934 25.5645C18.125 25.7961 18.1087 26.1697 17.7448 26.2065C17.4188 26.196 17.4569 25.2067 17.3971 24.8962C17.006 22.8965 15.045 21.6125 14.8712 19.6286C14.8331 19.1918 14.92 18.7814 14.9418 18.3551C12.166 19.6391 10.5798 22.3335 10.3951 25.2751C10.3788 25.554 10.4548 26.7801 10.3679 26.9012C10.2973 26.9959 10.0583 26.9801 9.94421 26.9643C9.3684 26.8801 8.59704 25.8329 8.4884 25.2856L8.34173 25.2435C7.08691 27.1432 6.77728 29.2008 7.46716 31.3584C7.56494 31.6688 7.98864 32.2424 7.73876 32.4792C7.38024 32.8213 6.48937 32.4213 6.48937 32.5108C6.85876 34.4316 7.99951 36.126 9.75952 37.089L9.0642 35.9366C7.67358 32.6318 10.645 28.3799 12.845 25.996C12.959 25.8697 13.5674 25.2014 13.6218 25.1646C13.801 25.0646 14.0074 25.0488 14.165 25.1962C14.9852 26.1276 15.8326 27.038 16.5606 28.0378C18.3912 30.5532 20.3196 34.3158 17.924 37.0838C17.9783 37.1311 18.402 36.8259 18.4835 36.768C22.6989 33.8211 21.5038 28.4535 19.5537 24.5489L19.5591 24.5542ZM13.8499 25.8013C12.0519 27.7326 9.9768 30.1954 9.42273 32.8108C7.93975 39.8149 19.3418 39.9202 18.4129 33.2791C18.0924 30.9689 16.1912 28.2694 14.6213 26.5538C14.5072 26.4328 13.926 25.7908 13.8499 25.8013Z" fill="#FF0000"/>
<path d="M14.73 31.448C14.7789 31.4954 15.9088 31.227 16.1152 31.2428C16.213 31.2533 16.2782 31.3059 16.3325 31.3796L16.3542 31.6743L13.4861 36.5419C13.3122 36.7945 13.1493 37.1313 12.8125 36.8419L12.7582 36.6525L13.171 33.1688C12.8668 33.2109 11.1774 33.9529 11.3567 33.2372L14.3063 28.2432C14.5182 28.1485 14.7572 28.2117 14.8006 28.4537C14.8876 28.8958 14.6105 31.3217 14.73 31.448ZM14.1596 31.8953V29.6588L12.2421 32.8267C12.3616 32.9162 13.4969 32.39 13.7414 32.5899C13.975 32.9109 13.4589 34.7422 13.5567 35.2369L15.5122 32.0321C15.5448 31.8848 15.4416 31.9269 15.333 31.9269C15.0885 31.9269 14.2574 32.1795 14.1651 31.8953H14.1596Z" fill="#FF0000"/>
</g>
<defs>
<clipPath id="clip0_3184_321">
<rect width="16.0683" height="21.1809" fill="white" transform="translate(5.84302 17.5291)"/>
</clipPath>
</defs>
</svg>
