<svg width="79" height="80" viewBox="0 0 79 80" fill="none" xmlns="http://www.w3.org/2000/svg">
<path d="M67.2539 53.6537C69.245 49.5064 70.3048 44.9642 70.3573 40.353C70.4098 35.7419 69.4537 31.1761 67.5575 26.9834C65.6613 22.7908 62.872 19.0751 59.39 16.1033C55.9079 13.1314 51.8194 10.9769 47.4178 9.79447C47.3919 9.78623 47.366 9.77951 47.3396 9.77295C42.504 8.48764 37.4322 8.4124 32.5615 9.55371C27.6908 10.695 23.1672 13.0186 19.3805 16.3243C19.2845 16.388 19.1978 16.465 19.1229 16.553C14.4126 20.7453 11.0761 26.2919 9.55804 32.4533C8.03999 38.6148 8.41256 45.0985 10.6261 51.04C12.8396 56.9816 16.7889 62.0988 21.9475 65.7096C27.1062 69.3203 33.2291 71.253 39.5 71.25C39.7301 71.25 39.9594 71.2462 40.1883 71.2412L40.1947 71.2418C40.1977 71.2418 40.2005 71.241 40.2037 71.241C45.8218 71.1059 51.2972 69.4218 56.0404 66.37C60.7837 63.3181 64.6152 59.014 67.1226 53.9211C67.1282 53.9122 67.1357 53.9054 67.1413 53.8962C67.1873 53.8197 67.225 53.7384 67.2539 53.6537ZM67.8906 40C67.8945 43.9345 67.0962 47.8273 65.5457 51.4349L49.9838 41.7426C49.5437 41.4676 49.0513 41.2897 48.5387 41.2207L41.4971 40.2594C40.7137 40.156 39.9181 40.3076 39.2255 40.6924C38.5328 41.0772 37.979 41.6752 37.6442 42.3999H34.2978C34.066 42.3991 33.8391 42.3326 33.6427 42.2079C33.4463 42.0832 33.2883 41.9053 33.1867 41.6943L32.0124 39.238C31.7685 38.7237 31.4114 38.273 30.9684 37.9206C30.5254 37.5681 30.0084 37.3234 29.4573 37.2052L25.9742 36.447L27.9656 31.6599C28.0596 31.433 28.2177 31.2394 28.4201 31.1033C28.6225 30.9672 28.8601 30.8948 29.1031 30.8951H35.6902C36.3163 30.8947 36.932 30.7339 37.4803 30.4279L41.2583 28.3151C41.5076 28.1755 41.7403 28.0074 41.9517 27.814L50.2562 20.2084C50.8804 19.6412 51.2949 18.8753 51.4312 18.0372C51.5675 17.1991 51.4174 16.3391 51.0057 15.5991L49.6578 13.1541C55.0185 15.2411 59.6296 18.9228 62.8841 23.7147C66.1386 28.5066 67.884 34.1841 67.8906 40ZM46.232 12.0688L48.8502 16.8179C48.9874 17.0646 49.0375 17.3512 48.992 17.6305C48.9466 17.9099 48.8084 18.1651 48.6004 18.3542L40.297 25.9589C40.2261 26.0236 40.1481 26.0799 40.0646 26.1267L36.2866 28.2394C36.104 28.3415 35.8988 28.395 35.6902 28.3951H29.1031C28.3742 28.3941 27.6614 28.6114 27.0541 29.0196C26.4469 29.4279 25.9725 30.0088 25.6904 30.6894L23.5178 35.9123L22.8439 35.7657C22.6415 35.7222 22.4531 35.6276 22.2964 35.4907C22.1397 35.3538 22.0197 35.179 21.9475 34.9826L18.4016 25.3986C18.2902 25.099 18.297 24.7676 18.4206 24.473L21.0563 18.1618C24.4739 15.1957 28.5397 13.096 32.9175 12.0365C37.2953 10.977 41.8593 10.9881 46.232 12.0688ZM11.1094 40C11.1029 34.2414 12.814 28.6152 16.0186 23.858C15.7766 24.6496 15.8017 25.5001 16.0899 26.2756L19.6358 35.8597C19.8524 36.4491 20.2125 36.9736 20.6826 37.3845C21.1528 37.7954 21.7178 38.0794 22.3253 38.2102L24.017 38.5783L24.0173 38.5785L28.9387 39.6497C29.1224 39.689 29.2947 39.7705 29.4423 39.888C29.59 40.0055 29.709 40.1557 29.7902 40.3272L30.9646 42.7838C31.2697 43.4165 31.7437 43.9499 32.3328 44.3239C32.9218 44.6979 33.6025 44.8974 34.2978 44.8999H36.5416L33.3926 52.0551C33.0973 52.725 33.0028 53.4681 33.1207 54.192C33.2386 54.9159 33.5638 55.5889 34.0559 56.1273L39.8574 62.4814C39.9886 62.6257 40.0846 62.7991 40.1377 62.9877C40.1908 63.1763 40.1994 63.3749 40.163 63.5675L39.174 68.7457C31.7042 68.6506 24.5718 65.5812 19.3197 60.2017C14.0676 54.8221 11.1182 47.5649 11.1094 40ZM41.704 68.6639L42.5869 64.0424C42.6961 63.4645 42.6701 62.8688 42.5109 62.303C42.3517 61.7372 42.0638 61.217 41.6701 60.7843L35.8689 54.4302C35.7048 54.2508 35.5963 54.0264 35.5569 53.785C35.5176 53.5437 35.5491 53.2959 35.6476 53.0725L39.5799 44.1373L39.5805 44.1357L39.8749 43.4668C39.9847 43.221 40.1696 43.0174 40.4023 42.886C40.6349 42.7546 40.9031 42.7023 41.1673 42.7368L48.21 43.6984C48.3805 43.7215 48.5443 43.7806 48.6908 43.8721L64.4589 53.6929C62.1983 57.9108 58.9326 61.4897 54.9586 64.1043C50.9846 66.7188 46.4284 68.2862 41.704 68.6639Z" fill="white"/>
</svg>
