<svg width="46" height="46" viewBox="0 0 46 46" fill="none" xmlns="http://www.w3.org/2000/svg">
<g clip-path="url(#clip0_2019_1697)">
<path d="M45.2267 41.5774H3.64834V0H2.00499V41.5774H0V43.2226H2.00499V45.2267H3.64834V43.2226H45.2267V41.5774Z" fill="white"/>
<path d="M17.9032 20.8486C17.4486 20.8486 17.0806 21.2158 17.0806 21.6703V38.6303C17.0806 39.0849 17.4486 39.4529 17.9032 39.4529H21.6702C22.1248 39.4529 22.4928 39.0849 22.4928 38.6303V21.6703C22.4928 21.2158 22.1248 20.8486 21.6702 20.8486H17.9032Z" fill="white"/>
<path d="M8.48012 28.3853C8.02558 28.3853 7.65845 28.7542 7.65845 29.2079V38.6301C7.65845 39.0847 8.02558 39.4527 8.48012 39.4527H12.2499C12.7026 39.4527 13.0716 39.0847 13.0716 38.6301V29.2079C13.0716 28.7542 12.7026 28.3853 12.2499 28.3853H8.48012Z" fill="white"/>
<path d="M27.3244 28.3853C26.8708 28.3853 26.5027 28.7542 26.5027 29.2079V38.6301C26.5027 39.0847 26.8708 39.4527 27.3244 39.4527H31.0933C31.5478 39.4527 31.9159 39.0847 31.9159 38.6301V29.2079C31.9159 28.7542 31.5478 28.3853 31.0933 28.3853H27.3244Z" fill="white"/>
<path d="M36.7467 18.9639C36.2922 18.9639 35.9241 19.3319 35.9241 19.7865V38.63C35.9241 39.0846 36.2922 39.4526 36.7467 39.4526H40.5156C40.9692 39.4526 41.3373 39.0846 41.3373 38.63V19.7865C41.3373 19.3319 40.9692 18.9639 40.5156 18.9639H36.7467Z" fill="white"/>
<path d="M7.75951 26.797C7.94721 26.797 8.13492 26.7335 8.28951 26.6028L20.9009 15.9421L27.8286 22.8864C27.9823 23.0419 28.2059 23.1091 28.4111 23.1275C28.6301 23.1266 28.8399 23.0401 28.9945 22.8846L40.4594 11.3203C40.7796 10.9982 40.7759 10.4765 40.4539 10.1572C40.1318 9.837 39.6101 9.83792 39.2917 10.1618L28.4083 21.1391L21.5303 14.2454C21.2285 13.9417 20.7454 13.9215 20.4178 14.1975L7.22767 25.3469C6.87985 25.6404 6.83752 26.1593 7.13105 26.5063C7.293 26.6985 7.5258 26.797 7.75951 26.797Z" fill="white"/>
</g>
<defs>
<clipPath id="clip0_2019_1697">
<rect width="45.2267" height="45.2267" fill="white"/>
</clipPath>
</defs>
</svg>
