<svg width="64" height="54" viewBox="0 0 64 54" fill="none" xmlns="http://www.w3.org/2000/svg">
<path d="M43.2171 9.37835C43.0647 9.21789 42.8761 9.10356 42.6776 9.03937L30.4523 5.20833C25.5682 3.66789 22.3871 6.34561 21.5346 7.2101C21.0331 7.71154 20.6541 8.23104 20.4515 8.69839L15.0098 21.5033C14.6989 22.2234 14.8052 23.2082 15.2926 24.1891C15.9986 25.573 17.2563 26.5759 18.7606 26.941C20.4475 27.3381 22.1985 26.7825 23.5685 25.4146C23.9315 25.0676 24.2304 24.6644 24.4109 24.3355L26.2442 20.9457C26.539 20.3841 26.9763 19.7904 27.4396 19.3351C29.0102 17.7665 29.7543 18.4746 30.0712 18.7835C32.8111 21.4371 47.1625 35.8427 47.1625 35.8427C47.678 36.3501 47.5637 37.3269 46.9318 37.9608C46.292 38.5906 45.3212 38.7069 44.8137 38.2015L40.7821 34.1598C40.2566 33.6443 39.4262 33.6443 38.9007 34.1598C38.3772 34.6893 38.3772 35.5217 38.9007 36.0392L42.9323 40.0809C43.4418 40.5843 43.3355 41.5611 42.6976 42.195C42.0618 42.8288 41.091 42.9411 40.5855 42.4176L36.5519 38.394C36.0284 37.8785 35.186 37.8785 34.6725 38.394C34.149 38.9055 34.149 39.7579 34.6725 40.2734L38.7041 44.3151C39.2116 44.8205 39.0992 45.7793 38.4674 46.4151C37.8356 47.063 36.8668 47.1613 36.3493 46.6538L32.3177 42.6282C31.8042 42.0987 30.9618 42.0987 30.4383 42.6282C29.9268 43.1437 29.9268 43.9781 30.4383 44.5076L34.4719 48.5312C34.9874 49.0387 34.8731 50.0155 34.2432 50.6493C33.6014 51.2852 32.6306 51.3975 32.1231 50.89L27.213 45.9699C27.911 44.9148 27.7204 43.3924 26.6834 42.3414C25.5201 41.1881 23.7229 41.0777 22.6859 42.1047C23.7229 41.0777 23.6206 39.2806 22.4573 38.1272C21.2839 36.9539 19.4967 36.8435 18.4617 37.8865C19.4967 36.8435 19.3944 35.0664 18.221 33.895C17.0577 32.7217 15.2705 32.6093 14.2255 33.6543C15.2705 32.6093 15.1582 30.8342 13.9949 29.6588C12.9037 28.5757 11.277 28.4193 10.218 29.2597L2.26503 21.2967C1.74954 20.7812 0.907116 20.7812 0.383606 21.2967C-0.127869 21.8262 -0.127869 22.6606 0.383606 23.1761L8.31447 31.107L5.96771 33.4638C4.93272 34.5088 5.03301 36.2839 6.20238 37.4593C7.37176 38.6287 9.1569 38.723 10.1939 37.696C9.1569 38.723 9.2612 40.5201 10.4346 41.6915C11.5959 42.8469 13.3851 42.9592 14.4281 41.9122C13.3851 42.9572 13.4954 44.7523 14.6588 45.9077C15.8322 47.0851 17.6193 47.1934 18.6543 46.1464C17.6193 47.1914 17.7196 48.9685 18.895 50.1419C20.0583 51.3153 21.8435 51.4055 22.8805 50.3786L25.3697 47.8934L30.2437 52.7715C31.8002 54.3239 34.4298 54.2156 36.1146 52.5308C36.933 51.7144 37.3743 50.6574 37.4344 49.6324C38.4714 49.5722 39.5225 49.133 40.3408 48.3026C41.1692 47.4802 41.6065 46.4432 41.6687 45.4002C42.7076 45.34 43.7486 44.9008 44.575 44.0824C45.3954 43.262 45.8327 42.211 45.8948 41.168C46.9298 41.1078 47.9849 40.6666 48.8012 39.8462C50.4861 38.1613 50.5884 35.5318 49.0359 33.9733L46.986 31.9153L55.4243 23.477C55.9438 22.9655 55.9438 22.1151 55.4243 21.5976L43.2171 9.37835Z" fill="white"/>
<path d="M63.2204 12.343L52.4674 1.58796C51.4284 0.542946 49.7476 0.542946 48.7026 1.58796L44.9458 5.34479C43.9088 6.3878 43.9088 8.07266 44.9458 9.09962L55.7068 19.8566C56.7458 20.9016 58.4286 20.9016 59.4676 19.8566L63.2225 16.0978C64.2594 15.0708 64.2594 13.384 63.2204 12.343ZM57.5762 17.8248C56.3727 17.8248 55.4019 16.8439 55.4019 15.6425C55.4019 14.441 56.3747 13.4622 57.5762 13.4622C58.7837 13.4622 59.7585 14.443 59.7585 15.6445C59.7585 16.846 58.7837 17.8248 57.5762 17.8248Z" fill="white"/>
</svg>
