<svg width="36" height="30" viewBox="0 0 36 30" fill="none" xmlns="http://www.w3.org/2000/svg">
<path d="M24.1212 4.78605C24.0361 4.69648 23.9309 4.63267 23.8201 4.59685L16.9967 2.45859C14.2707 1.5988 12.4951 3.09335 12.0193 3.57586C11.7395 3.85573 11.5279 4.14569 11.4148 4.40653L8.37757 11.5535C8.20404 11.9554 8.26338 12.5051 8.53542 13.0525C8.92948 13.825 9.63142 14.3847 10.4711 14.5885C11.4126 14.8101 12.3899 14.5 13.1545 13.7365C13.3571 13.5428 13.524 13.3178 13.6247 13.1342L14.6479 11.2423C14.8125 10.9288 15.0566 10.5974 15.3152 10.3433C16.1917 9.46783 16.6071 9.86302 16.784 10.0354C18.3132 11.5165 26.3233 19.5568 26.3233 19.5568C26.611 19.8401 26.5472 20.3853 26.1946 20.739C25.8374 21.0906 25.2956 21.1555 25.0124 20.8734L22.7621 18.6176C22.4688 18.3299 22.0054 18.3299 21.712 18.6176C21.4198 18.9131 21.4198 19.3777 21.712 19.6666L23.9623 21.9224C24.2466 22.2034 24.1873 22.7486 23.8313 23.1023C23.4764 23.4561 22.9345 23.5188 22.6524 23.2266L20.4011 20.9809C20.1089 20.6931 19.6387 20.6931 19.3521 20.9809C19.0599 21.2663 19.0599 21.7421 19.3521 22.0298L21.6023 24.2857C21.8856 24.5678 21.8229 25.1029 21.4702 25.4578C21.1176 25.8194 20.5769 25.8742 20.288 25.591L18.0378 23.3441C17.7512 23.0486 17.281 23.0486 16.9888 23.3441C16.7034 23.6319 16.7034 24.0976 16.9888 24.3931L19.2402 26.6389C19.5279 26.9221 19.4641 27.4673 19.1125 27.8211C18.7543 28.1759 18.2125 28.2386 17.9292 27.9554L15.1887 25.2092C15.5782 24.6204 15.4719 23.7707 14.8931 23.1841C14.2438 22.5403 13.2407 22.4788 12.6619 23.052C13.2407 22.4788 13.1836 21.4757 12.5343 20.832C11.8794 20.1771 10.8819 20.1155 10.3042 20.6976C10.8819 20.1155 10.8248 19.1236 10.1699 18.4698C9.52059 17.8149 8.5231 17.7522 7.93984 18.3355C8.5231 17.7522 8.46041 16.7614 7.8111 16.1054C7.20208 15.5009 6.29416 15.4135 5.70306 15.8826L1.26421 11.4382C0.976492 11.1505 0.506298 11.1505 0.214106 11.4382C-0.0713687 11.7337 -0.0713687 12.1994 0.214106 12.4871L4.64065 16.9137L3.33082 18.2291C2.75315 18.8124 2.80913 19.8031 3.4618 20.4592C4.11448 21.1118 5.11084 21.1645 5.68963 20.5913C5.11084 21.1645 5.16905 22.1675 5.82397 22.8213C6.47216 23.4662 7.47076 23.5289 8.05291 22.9445C7.47076 23.5277 7.53234 24.5297 8.18165 25.1745C8.83657 25.8317 9.83405 25.8921 10.4117 25.3078C9.83405 25.891 9.89002 26.8829 10.5461 27.5378C11.1954 28.1927 12.1917 28.2431 12.7705 27.6699L14.1598 26.2829L16.8802 29.0055C17.749 29.872 19.2167 29.8115 20.157 28.8712C20.6138 28.4155 20.8601 27.8255 20.8937 27.2535C21.4725 27.2199 22.0591 26.9747 22.5158 26.5112C22.9782 26.0522 23.2223 25.4735 23.257 24.8913C23.8369 24.8577 24.4179 24.6125 24.8791 24.1558C25.337 23.6979 25.5811 23.1113 25.6158 22.5291C26.1934 22.4956 26.7823 22.2493 27.2379 21.7914C28.1783 20.851 28.2354 19.3833 27.3689 18.5135L26.2248 17.3648L30.9346 12.6551C31.2245 12.3696 31.2245 11.8949 30.9346 11.6061L24.1212 4.78605Z" fill="white"/>
<path d="M35.2862 6.44026L29.2845 0.437448C28.7046 -0.145816 27.7664 -0.145816 27.1832 0.437448L25.0863 2.53429C24.5075 3.11643 24.5075 4.05682 25.0863 4.63001L31.0925 10.6339C31.6724 11.2172 32.6117 11.2172 33.1916 10.6339L35.2873 8.53598C35.8661 7.96279 35.8661 7.02128 35.2862 6.44026ZM32.1359 9.49987C31.4642 9.49987 30.9223 8.95243 30.9223 8.28185C30.9223 7.61126 31.4653 7.06494 32.1359 7.06494C32.8098 7.06494 33.3539 7.61238 33.3539 8.28297C33.3539 8.95355 32.8098 9.49987 32.1359 9.49987Z" fill="white"/>
</svg>
