<svg width="15" height="16" viewBox="0 0 15 16" fill="none" xmlns="http://www.w3.org/2000/svg">
<path d="M7.66575 0.257207C7.8316 0.300817 8.02114 0.294587 8.19291 0.325738C9.36566 0.506412 10.8464 1.21665 11.646 2.15117C11.9481 2.50005 11.6697 3.01716 11.2373 2.88632C11.0715 2.83648 11.0063 2.69942 10.8879 2.58728C10.0942 1.8895 9.22942 1.3724 8.18698 1.21042C8.27582 1.52192 8.35283 1.83343 8.40022 2.1574C8.57198 3.2539 8.54828 4.43763 8.37059 5.53413C8.35282 5.6525 8.25806 5.90171 8.26991 6.00762C8.26991 6.05123 8.40614 6.28175 8.45352 6.30667C9.78619 6.75524 11.4032 7.61499 12.3153 8.75511C13.0675 9.68963 12.6351 10.2441 11.9836 11.0416C11.2255 11.9699 10.183 12.6801 9.06359 13.029L9.25904 14.2127H13.9797C14.4653 14.3311 14.4298 15.0289 13.9263 15.0849H0.629269C0.416042 15.06 0.32719 14.9541 0.232422 14.7672V14.5367C0.321267 14.3622 0.404191 14.2501 0.605572 14.2189H5.30249L6.18501 8.94824L5.00041 9.68963C4.34296 10.0385 2.61939 10.8796 2.01524 10.1943C1.65394 9.78308 1.27486 8.49967 1.18601 7.93896C1.06163 7.15396 1.03794 5.83318 1.32225 5.08556C1.47032 4.69929 1.97969 4.71175 2.09223 5.0731C2.1633 5.30361 1.97377 5.9204 1.95008 6.20698C1.89085 6.81131 1.92639 7.42809 2.04485 8.01372C2.06262 8.10094 2.21662 8.73642 2.264 8.73642C3.31829 7.57138 4.69835 6.7677 6.14356 6.27552C6.16725 6.2506 6.29164 6.02631 6.29164 6.00139C6.30348 5.90171 6.20871 5.6525 6.19094 5.5279C6.0014 4.38156 5.98363 3.09815 6.19094 1.9518C6.30347 1.33502 6.52263 0.43165 7.17415 0.250977H7.67168L7.66575 0.257207ZM7.31039 1.24157C7.26301 1.19796 7.19784 1.38486 7.18599 1.41601C6.85431 2.23216 6.8247 3.70247 6.89577 4.58715C6.9017 4.69306 7.00239 5.52167 7.04978 5.5279C7.21562 5.47806 7.35776 5.49675 7.52361 5.5279C7.77237 4.13235 7.79607 2.58105 7.30446 1.24157H7.31039ZM7.57691 6.49357C7.19192 6.08861 6.60555 6.71162 6.99054 7.11035C7.37554 7.50908 7.96191 6.8923 7.57691 6.49357ZM2.71415 9.57749C3.19391 9.55257 3.64998 9.37189 4.08236 9.17876C4.89973 8.81118 5.65195 8.29408 6.33901 7.69599C6.35678 7.6773 6.34493 7.6586 6.33901 7.63991C6.31532 7.55269 6.12578 7.32218 6.09024 7.21003C5.1781 7.56515 4.29559 8.04487 3.53153 8.68658C3.22353 8.94201 2.92146 9.2286 2.72008 9.58372L2.71415 9.57749ZM11.8533 9.57749C11.6578 9.21614 11.3439 8.93578 11.0419 8.68035C10.2778 8.03864 9.39527 7.55892 8.48313 7.20381L8.22252 7.68976C8.45351 7.8642 8.66675 8.06356 8.89774 8.23801C9.37158 8.58689 9.95203 8.93578 10.4851 9.17253C10.9175 9.36566 11.3795 9.54634 11.8533 9.57126V9.57749ZM6.12579 14.2127H8.43575L7.38737 8.10717H7.18599L6.12579 14.2127ZM11.415 10.3936C10.645 10.2566 9.93426 9.88276 9.2472 9.50272L8.38245 8.94824L8.95105 12.163C9.91057 11.8515 10.7872 11.2222 11.415 10.3999V10.3936Z" fill="#B1CF95"/>
</svg>
