<svg width="19" height="18" viewBox="0 0 19 18" fill="none" xmlns="http://www.w3.org/2000/svg">
<path d="M10.3073 0.827588C10.8404 0.985 10.7174 1.56895 10.8712 1.98533L11.43 2.19352C11.7683 2.01072 12.1016 1.60449 12.5322 1.73652C12.5886 1.75175 12.7372 1.8787 12.7936 1.9244C13.0243 2.11735 14.1624 3.22432 14.2598 3.42235C14.4751 3.84889 13.983 4.22465 13.8189 4.5801L14.0547 5.13358C14.5161 5.25037 15.1467 5.16913 15.2031 5.78354C15.2441 6.24562 15.2595 7.43383 15.2031 7.8756C15.1262 8.43924 14.4495 8.34784 14.0342 8.49002L13.824 9.0435C14.0086 9.38372 14.4443 9.71885 14.27 10.1505L12.6193 11.816C12.1426 12.0851 11.8042 11.5824 11.4095 11.4098L10.8507 11.6433C10.7174 12.0953 10.8199 12.7249 10.1945 12.7808C9.66647 12.8265 8.71291 12.8214 8.17976 12.7808C7.4518 12.7249 7.65686 12.1004 7.44667 11.6129L6.9084 11.4148C6.55467 11.6078 6.13431 12.1054 5.70369 11.8058L4.05807 10.1403C3.92478 9.71378 4.33491 9.38879 4.51947 9.04858L4.30413 8.48494C3.84787 8.31737 3.19683 8.45955 3.14044 7.81467C3.0943 7.30181 3.0943 6.2964 3.14044 5.78354C3.19683 5.13866 3.81714 5.25545 4.29903 5.11835L4.5246 4.57502C4.36055 4.21957 3.86838 3.84381 4.0837 3.41728C4.1811 3.21924 5.3192 2.1072 5.5499 1.91932C5.60629 1.87362 5.75493 1.74667 5.81132 1.73144C6.24195 1.59942 6.57006 2.00564 6.91353 2.18844L7.48256 1.97518C7.64149 1.55879 7.51846 1.00023 8.03623 0.82251H10.3227L10.3073 0.827588ZM9.01538 4.10278C6.90839 4.20942 5.7242 6.57568 6.89304 8.3123C7.9696 9.91181 10.3791 9.89658 11.4454 8.29199C12.6706 6.43858 11.2403 3.99107 9.01538 4.10278Z" fill="#6A99D0"/>
<path d="M18.0381 16.4873V16.726C17.8484 17.254 17.3921 17.0865 16.9615 17.188C16.5616 17.2845 16.2284 17.5536 15.8337 17.6857C15.1416 17.9243 14.2496 17.9345 13.5626 17.6654C13.2602 17.5486 12.9629 17.3251 12.6553 17.2287C11.2865 16.7818 10.7226 17.7669 9.52299 17.8583C8.32339 17.9497 8.10805 17.6044 7.12376 17.249C5.74986 16.7564 5.12958 17.7771 3.90947 17.8583C3.43271 17.8888 2.93542 17.8431 2.48429 17.6857C2.08955 17.5486 1.76658 17.2794 1.35646 17.188C0.920706 17.0865 0.469587 17.254 0.279907 16.726V16.4873C0.443955 16.0912 0.741278 16.0861 1.13089 16.1115C2.36125 16.1928 2.95081 17.2134 4.35034 16.7209C5.29362 16.3857 5.47304 16.0354 6.647 16.1065C7.49288 16.1572 7.77995 16.5279 8.4669 16.7412C9.84593 17.1677 10.4099 16.1877 11.6351 16.1065C12.8603 16.0252 13.0039 16.3807 13.9677 16.7158C15.3672 17.2083 15.9567 16.1877 17.1871 16.1065C17.5767 16.0811 17.874 16.0861 18.0381 16.4822V16.4873Z" fill="#6A99D0"/>
<path d="M18.0382 13.5374V13.7761C17.8434 14.3143 17.3307 14.1315 16.8796 14.2584C16.5208 14.36 16.2132 14.6037 15.8646 14.7307C15.4186 14.8932 14.8957 14.944 14.4189 14.9084C13.1014 14.8119 12.5426 13.7202 11.0303 14.3702C10.169 14.7408 9.86144 14.9846 8.83614 14.9084C7.60579 14.817 6.98035 13.7862 5.5962 14.3092C4.65805 14.6647 4.41197 14.9998 3.25338 14.9084C2.40239 14.8424 1.88973 14.2991 1.13101 14.1924C0.746522 14.1366 0.464584 14.2432 0.285156 13.7761V13.5374C0.464584 12.9534 1.38223 13.1515 1.82824 13.2937C2.21272 13.4155 2.56645 13.6897 2.94581 13.8014C4.29408 14.1975 4.83748 13.248 6.0217 13.1566C7.11877 13.0753 7.36485 13.3343 8.26711 13.71C9.75379 14.3295 10.3023 13.253 11.5686 13.1566C12.0556 13.121 12.6297 13.1667 13.086 13.3343C13.4243 13.4612 13.7473 13.705 14.1011 13.8065C15.4391 14.1772 15.9722 13.248 17.1513 13.1566C17.5409 13.1261 17.8844 13.121 18.0331 13.5323L18.0382 13.5374Z" fill="#6A99D0"/>
</svg>
