<svg width="33" height="30" viewBox="0 0 33 30" fill="none" xmlns="http://www.w3.org/2000/svg">
<path fill-rule="evenodd" clip-rule="evenodd" d="M27.6717 21.828L27.6826 11.224L20.1355 3.70067C17.8578 1.43311 14.1758 1.43311 11.8983 3.70067L4.36768 11.2057V21.8225C4.37373 25.0336 6.98121 27.632 10.1923 27.627H21.847C25.0559 27.6321 27.6625 25.0369 27.6717 21.828Z" stroke="#FF0000" stroke-width="3" stroke-linecap="round" stroke-linejoin="round"/>
<path d="M29.0572 3.86408C29.0572 3.10585 28.4425 2.49121 27.6843 2.49121C26.9261 2.49121 26.3115 3.10585 26.3115 3.86408H29.0572ZM27.6843 11.2245H26.3115C26.3115 11.5893 26.4566 11.9392 26.7151 12.1967L27.6843 11.2245ZM29.6915 15.1639C30.2283 15.6993 31.0976 15.6979 31.6329 15.161C32.1683 14.6239 32.167 13.7548 31.6299 13.2194L29.6915 15.1639ZM5.33683 12.1784C5.87379 11.6432 5.87512 10.7738 5.3398 10.2369C4.80449 9.69993 3.93523 9.6986 3.39827 10.2339L5.33683 12.1784ZM0.40359 13.2194C-0.133365 13.7548 -0.134702 14.6239 0.400625 15.161C0.935933 15.6979 1.8052 15.6993 2.34215 15.1639L0.40359 13.2194ZM18.3049 27.6275C18.3049 28.3857 18.9196 29.0004 19.6778 29.0004C20.4359 29.0004 21.0506 28.3857 21.0506 27.6275H18.3049ZM10.9829 27.6275C10.9829 28.3857 11.5976 29.0004 12.3558 29.0004C13.114 29.0004 13.7287 28.3857 13.7287 27.6275H10.9829ZM26.3115 3.86408V11.2245H29.0572V3.86408H26.3115ZM26.7151 12.1967L29.6915 15.1639L31.6299 13.2194L28.6536 10.2522L26.7151 12.1967ZM3.39827 10.2339L0.40359 13.2194L2.34215 15.1639L5.33683 12.1784L3.39827 10.2339ZM21.0506 27.6275V24.3693H18.3049V27.6275H21.0506ZM21.0506 24.3693C21.0506 21.5891 18.7969 19.3354 16.0168 19.3354V22.0812C17.2806 22.0812 18.3049 23.1055 18.3049 24.3693H21.0506ZM16.0168 19.3354C13.2366 19.3354 10.9829 21.5891 10.9829 24.3693H13.7287C13.7287 23.1055 14.753 22.0812 16.0168 22.0812V19.3354ZM10.9829 24.3693V27.6275H13.7287V24.3693H10.9829Z" fill="#FF0000"/>
</svg>
