<svg width="41" height="41" viewBox="0 0 41 41" fill="none" xmlns="http://www.w3.org/2000/svg">
<mask id="mask0_3578_208" style="mask-type:luminance" maskUnits="userSpaceOnUse" x="0" y="0" width="41" height="41">
<path d="M41 0H0V41H41V0Z" fill="white"/>
</mask>
<g mask="url(#mask0_3578_208)">
<path d="M15.375 35.8749H6.83333C5.88986 35.8749 5.125 35.1101 5.125 34.1666V21.2075C5.125 20.7544 5.30499 20.3198 5.62535 19.9995L19.292 6.33289C19.9591 5.66573 21.0409 5.66573 21.708 6.33289L35.3746 19.9995C35.6949 20.3198 35.875 20.7544 35.875 21.2075V34.1666C35.875 35.1101 35.1102 35.8749 34.1667 35.8749H25.625M15.375 35.8749H25.625M15.375 35.8749V25.6249C15.375 24.6814 16.1399 23.9166 17.0833 23.9166H23.9167C24.8602 23.9166 25.625 24.6814 25.625 25.6249V35.8749" stroke="#23B53E" stroke-width="2" stroke-linejoin="round"/>
</g>
</svg>
