<svg width="33" height="27" viewBox="0 0 33 27" fill="none" xmlns="http://www.w3.org/2000/svg">
<mask id="path-1-inside-1_3146_120" fill="white">
<path fill-rule="evenodd" clip-rule="evenodd" d="M27.6717 19.828L27.6826 9.22401L20.1355 1.70067C17.8579 -0.566889 14.1758 -0.566889 11.8983 1.70067L4.36768 9.20571V19.8225C4.37374 23.0336 6.98121 25.632 10.1923 25.627H21.847C25.0559 25.6321 27.6625 23.0369 27.6717 19.828Z"/>
<path d="M29.0572 1.86384C29.0572 1.10562 28.4425 0.490977 27.6843 0.490977C26.9261 0.490977 26.3115 1.10562 26.3115 1.86384H29.0572ZM27.6843 9.22429H26.3115C26.3115 9.58911 26.4566 9.93892 26.7151 10.1965L27.6843 9.22429ZM29.6915 13.1637C30.2283 13.6991 31.0976 13.6976 31.6329 13.1608C32.1683 12.6237 32.167 11.7546 31.6299 11.2192L29.6915 13.1637ZM5.33683 10.1782C5.87379 9.64293 5.87512 8.77361 5.3398 8.23665C4.80449 7.6997 3.93523 7.69836 3.39827 8.23369L5.33683 10.1782ZM0.40359 11.2192C-0.133365 11.7546 -0.134702 12.6237 0.400625 13.1608C0.935933 13.6976 1.8052 13.6991 2.34215 13.1637L0.40359 11.2192ZM18.3049 25.6273C18.3049 26.3855 18.9196 27.0002 19.6778 27.0002C20.4359 27.0002 21.0506 26.3855 21.0506 25.6273H18.3049ZM10.9829 25.6273C10.9829 26.3855 11.5976 27.0002 12.3558 27.0002C13.114 27.0002 13.7287 26.3855 13.7287 25.6273H10.9829ZM26.3115 1.86384V9.22429H29.0572V1.86384H26.3115ZM26.7151 10.1965L29.6915 13.1637L31.6299 11.2192L28.6536 8.25198L26.7151 10.1965ZM3.39827 8.23369L0.40359 11.2192L2.34215 13.1637L5.33683 10.1782L3.39827 8.23369ZM21.0506 25.6273V22.369H18.3049V25.6273H21.0506ZM21.0506 22.369C21.0506 19.5889 18.7969 17.3352 16.0168 17.3352V20.0809C17.2806 20.0809 18.3049 21.1053 18.3049 22.369H21.0506ZM16.0168 17.3352C13.2366 17.3352 10.9829 19.5889 10.9829 22.369H13.7287C13.7287 21.1053 14.753 20.0809 16.0168 20.0809V17.3352ZM10.9829 22.369V25.6273H13.7287V22.369H10.9829Z"/>
</mask>
<path d="M29.0572 1.86384C29.0572 1.10562 28.4425 0.490977 27.6843 0.490977C26.9261 0.490977 26.3115 1.10562 26.3115 1.86384H29.0572ZM27.6843 9.22429H26.3115C26.3115 9.58911 26.4566 9.93892 26.7151 10.1965L27.6843 9.22429ZM29.6915 13.1637C30.2283 13.6991 31.0976 13.6976 31.6329 13.1608C32.1683 12.6237 32.167 11.7546 31.6299 11.2192L29.6915 13.1637ZM5.33683 10.1782C5.87379 9.64293 5.87512 8.77361 5.3398 8.23665C4.80449 7.6997 3.93523 7.69836 3.39827 8.23369L5.33683 10.1782ZM0.40359 11.2192C-0.133365 11.7546 -0.134702 12.6237 0.400625 13.1608C0.935933 13.6976 1.8052 13.6991 2.34215 13.1637L0.40359 11.2192ZM18.3049 25.6273C18.3049 26.3855 18.9196 27.0002 19.6778 27.0002C20.4359 27.0002 21.0506 26.3855 21.0506 25.6273H18.3049ZM10.9829 25.6273C10.9829 26.3855 11.5976 27.0002 12.3558 27.0002C13.114 27.0002 13.7287 26.3855 13.7287 25.6273H10.9829ZM26.3115 1.86384V9.22429H29.0572V1.86384H26.3115ZM26.7151 10.1965L29.6915 13.1637L31.6299 11.2192L28.6536 8.25198L26.7151 10.1965ZM3.39827 8.23369L0.40359 11.2192L2.34215 13.1637L5.33683 10.1782L3.39827 8.23369ZM21.0506 25.6273V22.369H18.3049V25.6273H21.0506ZM21.0506 22.369C21.0506 19.5889 18.7969 17.3352 16.0168 17.3352V20.0809C17.2806 20.0809 18.3049 21.1053 18.3049 22.369H21.0506ZM16.0168 17.3352C13.2366 17.3352 10.9829 19.5889 10.9829 22.369H13.7287C13.7287 21.1053 14.753 20.0809 16.0168 20.0809V17.3352ZM10.9829 22.369V25.6273H13.7287V22.369H10.9829Z" fill="#FF0000"/>
<path d="M26.3115 1.86384V3.36384H29.0572V1.86384V0.363843H26.3115V1.86384ZM31.6299 11.2192L30.5676 10.1602L28.6291 12.1047L29.6915 13.1637L30.7538 14.2227L32.6922 12.2782L31.6299 11.2192ZM3.39827 8.23369L2.336 9.29273L4.27456 11.2372L5.33683 10.1782L6.3991 9.11912L4.46054 7.17464L3.39827 8.23369ZM2.34215 13.1637L3.40444 12.1047L1.46588 10.1601L0.40359 11.2192L-0.658699 12.2782L1.27986 14.2227L2.34215 13.1637ZM21.0506 25.6273V24.1273H18.3049V25.6273V27.1273H21.0506V25.6273ZM13.7287 25.6273V24.1273H10.9829V25.6273V27.1273H13.7287V25.6273ZM21.0506 22.369V20.869H18.3049V22.369V23.869H21.0506V22.369ZM16.0168 17.3352H14.5168V20.0809H16.0168H17.5168V17.3352H16.0168ZM10.9829 22.369V23.869H13.7287V22.369V20.869H10.9829V22.369ZM27.6717 19.828L30.6716 19.8366L30.6717 19.8311L27.6717 19.828ZM27.6826 9.22401L30.6826 9.22712C30.6835 8.42875 30.366 7.66299 29.8006 7.09935L27.6826 9.22401ZM20.1355 1.70067L22.2535 -0.423996L22.2521 -0.425373L20.1355 1.70067ZM11.8983 1.70067L9.78165 -0.425288L9.78062 -0.424264L11.8983 1.70067ZM4.36768 9.20571L2.24997 7.08078C1.68515 7.64368 1.36768 8.40829 1.36768 9.20571H4.36768ZM4.36768 19.8225L1.36767 19.8225L1.36768 19.8282L4.36768 19.8225ZM10.1923 25.627L10.1923 22.627L10.1877 22.627L10.1923 25.627ZM21.847 25.627L21.8518 22.627H21.847V25.627ZM27.6843 9.22429L29.8088 11.3424L34.9115 6.22429L27.6843 6.22429V9.22429ZM29.6915 13.1637L31.8099 11.0395L31.8095 11.0391L29.6915 13.1637ZM31.6329 13.1608L29.5083 11.0427L29.5083 11.0427L31.6329 13.1608ZM31.6299 11.2192L33.748 9.09458L33.748 9.09456L31.6299 11.2192ZM5.33683 10.1782L3.21892 8.05344L3.21876 8.0536L5.33683 10.1782ZM5.3398 8.23665L3.21522 10.3547L3.21526 10.3547L5.3398 8.23665ZM3.39827 8.23369L5.51632 10.3583L5.51637 10.3582L3.39827 8.23369ZM0.40359 11.2192L-1.71446 9.09458L-1.71469 9.0948L0.40359 11.2192ZM0.400625 13.1608L-1.72413 15.2786L-1.72381 15.279L0.400625 13.1608ZM2.34215 13.1637L0.224079 11.0391L0.223875 11.0393L2.34215 13.1637ZM29.0572 9.22429V12.2243H32.0572V9.22429H29.0572ZM28.6536 8.25198L30.7716 6.12738L28.647 4.00934L26.529 6.13394L28.6536 8.25198ZM27.6717 19.828L30.6717 19.8311L30.6826 9.22712L27.6826 9.22401L24.6826 9.22091L24.6717 19.8249L27.6717 19.828ZM27.6826 9.22401L29.8006 7.09935L22.2535 -0.423996L20.1355 1.70067L18.0176 3.82533L25.5647 11.3487L27.6826 9.22401ZM20.1355 1.70067L22.2521 -0.425373C18.804 -3.85816 13.2297 -3.85828 9.78165 -0.425288L11.8983 1.70067L14.015 3.82662C15.1219 2.72451 16.9117 2.72438 18.0189 3.82671L20.1355 1.70067ZM11.8983 1.70067L9.78062 -0.424264L2.24997 7.08078L4.36768 9.20571L6.48538 11.3306L14.016 3.8256L11.8983 1.70067ZM4.36768 9.20571H1.36768V19.8225H4.36768H7.36768V9.20571H4.36768ZM4.36768 19.8225L1.36768 19.8282C1.37687 24.6958 5.32952 28.6345 10.1969 28.627L10.1923 25.627L10.1877 22.627C8.63291 22.6294 7.37061 21.3713 7.36767 19.8169L4.36768 19.8225ZM10.1923 25.627V28.627H21.847V25.627V22.627H10.1923V25.627ZM21.847 25.627L21.8422 28.627C26.7066 28.6348 30.6578 24.7007 30.6716 19.8366L27.6717 19.828L24.6717 19.8195C24.6672 21.3731 23.4051 22.6295 21.8518 22.627L21.847 25.627ZM29.0572 1.86384H32.0572C32.0572 -0.551291 30.0993 -2.50902 27.6843 -2.50902V0.490977V3.49098C26.7857 3.49098 26.0572 2.76253 26.0572 1.86384H29.0572ZM27.6843 0.490977V-2.50902C25.2693 -2.50902 23.3115 -0.551285 23.3115 1.86384H26.3115H29.3115C29.3115 2.76252 28.5829 3.49098 27.6843 3.49098V0.490977ZM27.6843 9.22429V6.22429H26.3115V9.22429V12.2243H27.6843V9.22429ZM26.3115 9.22429H23.3115C23.3115 10.3861 23.7738 11.5007 24.5975 12.3215L26.7151 10.1965L28.8326 8.07139C29.1394 8.37711 29.3115 8.79212 29.3115 9.22429H26.3115ZM26.7151 10.1965L28.8396 12.3146L29.8088 11.3424L27.6843 9.22429L25.5598 7.10617L24.5906 8.07835L26.7151 10.1965ZM29.6915 13.1637L27.573 15.2879C29.2837 16.9939 32.0527 16.9888 33.7574 15.2788L31.6329 13.1608L29.5083 11.0427C30.1425 10.4065 31.173 10.4043 31.8099 11.0395L29.6915 13.1637ZM31.6329 13.1608L33.7574 15.2788C35.4625 13.5685 35.4586 10.7999 33.748 9.09458L31.6299 11.2192L29.5119 13.3437C28.8754 12.7092 28.8741 11.6789 29.5083 11.0427L31.6329 13.1608ZM5.33683 10.1782L7.45474 12.3029C9.16535 10.5978 9.1694 7.82881 7.46434 6.11856L5.3398 8.23665L3.21526 10.3547C2.58085 9.71841 2.58222 8.68809 3.21892 8.05344L5.33683 10.1782ZM5.3398 8.23665L7.46437 6.11859C5.75929 4.40827 2.99051 4.404 1.28018 6.10915L3.39827 8.23369L5.51637 10.3582C4.87994 10.9927 3.84969 10.9911 3.21522 10.3547L5.3398 8.23665ZM0.40359 11.2192L-1.71469 9.0948C-3.42473 10.7999 -3.42899 13.5682 -1.72413 15.2786L0.400625 13.1608L2.52538 11.0429C3.15958 11.6791 3.158 12.7092 2.52187 13.3435L0.40359 11.2192ZM0.400625 13.1608L-1.72381 15.279C-0.0190695 16.9887 2.74974 16.9938 4.46043 15.288L2.34215 13.1637L0.223875 11.0393C0.86065 10.4044 1.89094 10.4066 2.52506 11.0426L0.400625 13.1608ZM18.3049 25.6273H15.3049C15.3049 28.0423 17.2627 30.0002 19.6778 30.0002V27.0002V24.0002C20.5764 24.0002 21.3049 24.7286 21.3049 25.6273H18.3049ZM19.6778 27.0002V30.0002C22.0928 30.0002 24.0506 28.0424 24.0506 25.6273H21.0506H18.0506C18.0506 24.7286 18.7791 24.0002 19.6778 24.0002V27.0002ZM10.9829 25.6273H7.98294C7.98294 28.0423 9.94076 30.0002 12.3558 30.0002V27.0002V24.0002C13.2545 24.0002 13.9829 24.7286 13.9829 25.6273H10.9829ZM12.3558 27.0002V30.0002C14.7708 30.0002 16.7287 28.0423 16.7287 25.6273H13.7287H10.7287C10.7287 24.7286 11.4571 24.0002 12.3558 24.0002V27.0002ZM26.3115 1.86384H23.3115V9.22429H26.3115H29.3115V1.86384H26.3115ZM26.3115 9.22429V12.2243H29.0572V9.22429V6.22429H26.3115V9.22429ZM29.0572 9.22429H32.0572V1.86384H29.0572H26.0572V9.22429H29.0572ZM26.7151 10.1965L24.597 12.3211L27.5734 15.2883L29.6915 13.1637L31.8095 11.0391L28.8331 8.07188L26.7151 10.1965ZM31.6299 11.2192L33.748 9.09456L30.7716 6.12738L28.6536 8.25198L26.5355 10.3766L29.5119 13.3438L31.6299 11.2192ZM28.6536 8.25198L26.529 6.13394L24.5905 8.07843L26.7151 10.1965L28.8397 12.3145L30.7782 10.37L28.6536 8.25198ZM3.39827 8.23369L1.28022 6.1091L-1.71446 9.09458L0.40359 11.2192L2.52164 13.3437L5.51632 10.3583L3.39827 8.23369ZM2.34215 13.1637L4.46022 15.2883L7.4549 12.3027L5.33683 10.1782L3.21876 8.0536L0.224079 11.0391L2.34215 13.1637ZM21.0506 25.6273H24.0506V22.369H21.0506H18.0506V25.6273H21.0506ZM18.3049 22.369H15.3049V25.6273H18.3049H21.3049V22.369H18.3049ZM21.0506 22.369H24.0506C24.0506 17.932 20.4538 14.3352 16.0168 14.3352V17.3352V20.3352C17.1401 20.3352 18.0506 21.2457 18.0506 22.369H21.0506ZM16.0168 20.0809V23.0809C15.6237 23.0809 15.3049 22.7621 15.3049 22.369H18.3049H21.3049C21.3049 19.4484 18.9374 17.0809 16.0168 17.0809V20.0809ZM16.0168 17.3352V14.3352C11.5798 14.3352 7.98294 17.932 7.98294 22.369H10.9829H13.9829C13.9829 21.2457 14.8935 20.3352 16.0168 20.3352V17.3352ZM13.7287 22.369H16.7287C16.7287 22.7621 16.4099 23.0809 16.0168 23.0809V20.0809V17.0809C13.0962 17.0809 10.7287 19.4484 10.7287 22.369H13.7287ZM10.9829 22.369H7.98294V25.6273H10.9829H13.9829V22.369H10.9829ZM13.7287 25.6273H16.7287V22.369H13.7287H10.7287V25.6273H13.7287Z" fill="white" mask="url(#path-1-inside-1_3146_120)"/>
</svg>
