<svg width="25" height="24" viewBox="0 0 25 24" fill="none" xmlns="http://www.w3.org/2000/svg">
<path fill-rule="evenodd" clip-rule="evenodd" d="M21.5834 17.4218L21.5919 9.17425L15.7219 3.32274C13.9504 1.55909 11.0866 1.55909 9.31519 3.32274L3.45801 9.16001V17.4176C3.46272 19.9151 5.49076 21.936 7.98828 21.9322H17.0531C19.5489 21.9362 21.5762 19.9176 21.5834 17.4218Z" stroke="white" stroke-width="2.2" stroke-linecap="round" stroke-linejoin="round"/>
<path d="M22.6611 3.44962C22.6611 2.85989 22.183 2.38184 21.5933 2.38184C21.0036 2.38184 20.5256 2.85989 20.5256 3.44962H22.6611ZM21.5933 9.17443H20.5256C20.5256 9.45818 20.6385 9.73025 20.8395 9.93057L21.5933 9.17443ZM23.1544 12.2384C23.572 12.6549 24.2481 12.6537 24.6644 12.2361C25.0809 11.8184 25.0799 11.1424 24.6622 10.726L23.1544 12.2384ZM4.21191 9.91633C4.62955 9.50004 4.63059 8.8239 4.21422 8.40627C3.79787 7.98863 3.12177 7.98759 2.70414 8.40396L4.21191 9.91633ZM0.374939 10.726C-0.0426938 11.1424 -0.0437332 11.8184 0.372633 12.2361C0.788985 12.6537 1.46508 12.6549 1.88271 12.2384L0.374939 10.726ZM14.2982 21.9324C14.2982 22.5221 14.7763 23.0001 15.366 23.0001C15.9557 23.0001 16.4338 22.5221 16.4338 21.9324H14.2982ZM8.60334 21.9324C8.60334 22.5221 9.08143 23.0001 9.67113 23.0001C10.2608 23.0001 10.7389 22.5221 10.7389 21.9324H8.60334ZM20.5256 3.44962V9.17443H22.6611V3.44962H20.5256ZM20.8395 9.93057L23.1544 12.2384L24.6622 10.726L22.3472 8.41818L20.8395 9.93057ZM2.70414 8.40396L0.374939 10.726L1.88271 12.2384L4.21191 9.91633L2.70414 8.40396ZM16.4338 21.9324V19.3981H14.2982V21.9324H16.4338ZM16.4338 19.3981C16.4338 17.2358 14.6809 15.4829 12.5186 15.4829V17.6185C13.5015 17.6185 14.2982 18.4152 14.2982 19.3981H16.4338ZM12.5186 15.4829C10.3562 15.4829 8.60334 17.2358 8.60334 19.3981H10.7389C10.7389 18.4152 11.5356 17.6185 12.5186 17.6185V15.4829ZM8.60334 19.3981V21.9324H10.7389V19.3981H8.60334Z" fill="white"/>
</svg>
