<svg width="57" height="57" viewBox="0 0 57 57" fill="none" xmlns="http://www.w3.org/2000/svg">
<g clip-path="url(#clip0_3578_287)">
<path d="M51.9633 10.8219C51.6958 10.6675 51.3924 10.5862 51.0835 10.5862C50.7746 10.5862 50.4712 10.6675 50.2037 10.8219L35.1936 18.2653V12.3176C35.1927 12.0177 35.1152 11.7229 34.9683 11.4614C34.8214 11.1998 34.6101 10.9802 34.3545 10.8233C34.0988 10.6664 33.8073 10.5774 33.5076 10.5648C33.2079 10.5523 32.91 10.6166 32.6421 10.7515L17.5969 18.2653V5.27896C17.5969 4.81227 17.4115 4.36469 17.0815 4.03468C16.7515 3.70468 16.3039 3.51929 15.8372 3.51929H5.2792C4.81251 3.51929 4.36493 3.70468 4.03493 4.03468C3.70492 4.36469 3.51953 4.81227 3.51953 5.27896V49.2708H52.7904V12.3176C52.791 12.0186 52.7153 11.7243 52.5706 11.4626C52.4259 11.2009 52.2169 10.9804 51.9633 10.8219ZM38.713 45.7514H31.6743V33.4337H38.713V45.7514ZM49.271 45.7514H42.2323V31.674C42.2323 31.2074 42.0469 30.7598 41.7169 30.4298C41.3869 30.0998 40.9394 29.9144 40.4727 29.9144H29.9146C29.4479 29.9144 29.0003 30.0998 28.6703 30.4298C28.3403 30.7598 28.1549 31.2074 28.1549 31.674V45.7514H7.03888V7.03863H14.0776V23.9667L31.6743 15.1683V23.9667L49.271 15.1683V45.7514Z" fill="white"/>
</g>
<defs>
<clipPath id="clip0_3578_287">
<rect width="56.3095" height="56.3095" fill="white"/>
</clipPath>
</defs>
</svg>
