<svg width="381" height="381" viewBox="0 0 381 381" fill="none" xmlns="http://www.w3.org/2000/svg">
<g clip-path="url(#clip0_3840_7)">
<path d="M89.1479 42.8712C90.6125 42.8712 91.8841 43.3279 92.7056 43.9845C93.5182 44.6341 93.8239 45.4032 93.6685 46.1544L93.4653 47.1339L94.4458 47.3361C103.617 49.2248 111.26 55.899 115.031 64.5255L115.292 65.1251H134.202C137.112 65.1251 139.469 67.4828 139.469 70.3927C139.469 73.3026 137.111 75.6613 134.202 75.6613C133.522 75.6612 63.7732 75.4511 63.0962 75.4503H62.4204C61.848 75.4396 61.5495 75.3714 61.2104 75.0021C60.9473 74.7154 60.8157 74.3309 60.8491 73.9425C61.9612 61.0584 71.5218 49.87 83.8491 47.3312L84.8286 47.13L84.6274 46.1505C84.4737 45.4015 84.7796 44.6339 85.5923 43.9845C86.4134 43.3284 87.6836 42.8712 89.1479 42.8712Z" stroke="#23B53E" stroke-width="2"/>
<path d="M113.066 89.9882C109.481 99.7229 100.125 106.665 89.1484 106.665C78.1716 106.665 68.8163 99.7227 65.2314 89.9882H113.066Z" stroke="#23B53E" stroke-width="2"/>
<path d="M301.401 104.177C300.119 116.374 289.803 125.881 277.266 125.881C264.729 125.881 254.413 116.374 253.131 104.177L252.823 101.239L251.284 103.761C249.382 106.875 245.965 108.956 242.058 108.956C239.415 108.956 236.864 109.049 234.473 109.929C232.04 110.824 229.856 112.501 227.847 115.506L227.29 116.339L228.125 116.895L259.581 137.789L259.833 137.956H294.992L295.243 137.789L326.495 117.028L327.325 116.478L326.777 115.646C324.758 112.578 322.563 110.865 320.114 109.949C317.707 109.05 315.136 108.956 312.473 108.956C308.566 108.956 305.15 106.876 303.249 103.761L301.709 101.239L301.401 104.177ZM60.8442 136.659L60.6167 136.382L3.38232 66.7267C-0.291337 62.2555 0.354737 55.6533 4.82568 51.9796C9.29742 48.306 15.8988 48.9522 19.5728 53.422V53.423L73.6782 119.269L73.979 119.634H113.674L113.861 119.556L113.863 119.555C113.864 119.554 113.867 119.553 113.87 119.552L113.997 119.498C114.087 119.46 114.221 119.404 114.396 119.33C114.746 119.182 115.263 118.965 115.926 118.685C117.254 118.124 119.172 117.314 121.531 116.316C126.249 114.319 132.735 111.569 139.802 108.554C153.934 102.526 170.408 95.4357 179.737 91.2032C183.079 89.688 186.864 89.4855 189.962 91.5441C194.102 94.2943 202.383 99.7949 209.628 104.608C213.251 107.014 216.615 109.248 219.073 110.881C220.302 111.697 221.304 112.363 222 112.825C222.347 113.056 222.618 113.236 222.802 113.359C222.894 113.42 222.964 113.467 223.011 113.498C223.035 113.514 223.053 113.525 223.065 113.533C223.071 113.537 223.076 113.54 223.079 113.542C223.08 113.543 223.081 113.544 223.082 113.544L223.083 113.545H223.083L224.84 114.712L224.631 112.613C223.974 106.002 226.325 99.6534 229.903 94.9484C233.511 90.2031 238.2 87.3332 242.059 87.3331C246.717 87.3331 250.679 90.2852 252.199 94.424L253.215 97.1906L254.092 94.3771C257.171 84.5043 266.383 77.34 277.267 77.34C288.15 77.34 297.362 84.5043 300.441 94.3771L301.319 97.1906L302.334 94.424C303.854 90.2852 307.816 87.3332 312.474 87.3331C316.353 87.3331 321.07 90.2326 324.685 95.0187C328.269 99.7637 330.605 106.161 329.885 112.81L329.655 114.932L331.432 113.751L364.863 91.5441C369.347 88.5667 375.394 89.7864 378.372 94.2687C381.349 98.7509 380.129 104.799 375.644 107.776H375.643L303.322 155.817V155.818C303.085 155.975 302.833 156.122 302.565 156.267L301.965 156.591L302.048 157.267L304.042 173.572L304.046 173.608L304.053 173.642L318.911 250.346C319.193 251.805 318.81 253.312 317.867 254.457C316.923 255.603 315.516 256.267 314.032 256.267H309.899L310.07 257.414L320.07 324.479C321.024 330.874 316.696 336.839 310.363 337.947L310.06 337.996C309.465 338.084 308.873 338.128 308.291 338.128C302.498 338.128 297.424 333.888 296.543 327.986L285.977 257.119L285.849 256.267H271.258L271.1 257.074L257.083 328.524C255.97 334.194 250.996 338.129 245.426 338.129C244.666 338.129 243.897 338.057 243.123 337.904H243.122C236.677 336.64 232.477 330.389 233.742 323.943L246.785 257.459L247.019 256.267H240.496C239.107 256.267 237.783 255.68 236.845 254.662L236.663 254.453C235.719 253.307 235.336 251.802 235.618 250.346L250.474 173.642L250.481 173.608L250.485 173.572L252.499 157.115L252.579 156.459L252.006 156.128C251.822 156.021 251.656 155.922 251.499 155.818L251.498 155.817L186.444 112.604L185.997 112.306L185.502 112.515L120.251 140.016L119.64 140.274V212.786L119.657 212.878C119.743 213.334 119.578 211.54 120.892 224.49C122.203 237.406 124.985 264.968 130.965 324.068C131.676 331.086 126.561 337.352 119.542 338.063C112.523 338.774 106.258 333.658 105.547 326.64L95.6196 228.528L95.5288 227.629H83.2163L83.0005 228.339L52.4243 329.063C50.3797 335.8 43.2562 339.627 36.4907 337.574H36.4897C29.7404 335.525 25.93 328.392 27.979 321.642L60.8013 213.523L60.8442 213.38V136.659Z" stroke="#23B53E" stroke-width="2"/>
</g>
<defs>
<clipPath id="clip0_3840_7">
<rect width="381" height="381" fill="white"/>
</clipPath>
</defs>
</svg>
