<svg width="65" height="65" viewBox="0 0 65 65" fill="none" xmlns="http://www.w3.org/2000/svg">
<path d="M56.2523 15.2066C56.2514 16.6702 55.6698 18.0736 54.6353 19.1088C53.6007 20.144 52.1977 20.7264 50.7341 20.7282H49.0031V49.4514C49.0013 50.9143 48.4193 52.3168 47.3849 53.3513C46.3504 54.3858 44.9479 54.9677 43.4849 54.9695H14.2657C13.5408 54.9695 12.8231 54.8268 12.1534 54.5494C11.4837 54.272 10.8751 53.8654 10.3626 53.3528C9.85001 52.8402 9.44342 52.2317 9.16602 51.562C8.88863 50.8923 8.74585 50.1745 8.74585 49.4497C8.74585 48.7248 8.88863 48.007 9.16602 47.3373C9.44342 46.6676 9.85001 46.0591 10.3626 45.5465C10.8751 45.034 11.4837 44.6274 12.1534 44.35C12.8231 44.0726 13.5408 43.9298 14.2657 43.9298H15.9933V15.2066C15.9933 13.7419 16.575 12.3371 17.6104 11.3011C18.6458 10.265 20.0502 9.68255 21.5149 9.68164H50.7307C52.1949 9.68255 53.5988 10.2646 54.6341 11.2999C55.6694 12.3352 56.2514 13.7391 56.2523 15.2032V15.2066ZM14.2657 51.179H38.237C37.8669 50.057 37.8669 48.8458 38.237 47.7237H14.2726C13.8144 47.7237 13.3749 47.9058 13.0509 48.2298C12.7269 48.5538 12.5449 48.9932 12.5449 49.4514C12.5449 49.9096 12.7269 50.349 13.0509 50.673C13.3749 50.997 13.8144 51.179 14.2726 51.179H14.2657ZM45.2091 15.2066C45.2083 14.6199 45.3007 14.0368 45.4828 13.479H21.5183C21.1337 13.4783 20.7601 13.6073 20.4578 13.8451L20.451 13.8485C20.2443 14.0092 20.0773 14.2153 19.9629 14.4508C19.8484 14.6862 19.7895 14.9448 19.7907 15.2066V43.9298H41.4699C41.9424 43.9244 42.4027 44.0795 42.7756 44.3697C43.1485 44.6599 43.4118 45.0681 43.5226 45.5274C43.6525 45.9671 43.6394 46.4366 43.485 46.8683C43.3307 47.3 43.0431 47.6714 42.6639 47.929C42.3958 48.0746 42.1711 48.2885 42.0126 48.549C41.854 48.8096 41.7672 49.1074 41.7611 49.4124C41.7549 49.7173 41.8296 50.0184 41.9775 50.2851C42.1255 50.5519 42.3414 50.7747 42.6033 50.9309C42.8652 51.0872 43.1639 51.1713 43.4688 51.1747C43.7738 51.1782 44.0743 51.1008 44.3397 50.9505C44.6051 50.8002 44.826 50.5824 44.9799 50.3191C45.1338 50.0557 45.2152 49.7564 45.216 49.4514L45.2091 15.2066ZM42.267 20.1261H22.5618V23.9132H42.267V20.1261ZM42.267 27.8577H22.5618V31.6448H42.267V27.8577ZM42.267 35.5893H22.5618V39.3798H42.267V35.5893ZM52.4583 15.2066C52.4574 14.7487 52.2751 14.3098 51.9513 13.986C51.6275 13.6622 51.1886 13.4799 50.7307 13.479C50.3459 13.4773 49.972 13.6063 49.6702 13.8451H49.6633C49.4558 14.006 49.288 14.2125 49.1729 14.4486C49.0579 14.6846 48.9986 14.944 48.9997 15.2066V16.9343H50.7307C51.1886 16.9334 51.6275 16.7511 51.9513 16.4273C52.2751 16.1035 52.4574 15.6646 52.4583 15.2066Z" fill="#FF0000"/>
</svg>
