<svg width="24" height="29" viewBox="0 0 24 29" fill="none" xmlns="http://www.w3.org/2000/svg">
<path d="M14.0207 4.66479e-10C12.3527 -1.6981e-05 10.7175 0.463604 9.29766 1.3391C7.87786 2.21459 6.72935 3.46749 5.98036 4.95792C5.23138 6.44834 4.91141 8.11761 5.05617 9.77935C5.20094 11.4411 5.80474 13.0299 6.80017 14.3683C6.86709 14.4578 7.51524 15.2842 7.56834 15.3569C9.02322 17.3617 9.48805 18.6551 9.62626 19.1527H9.5106C9.46182 19.1526 9.4135 19.1621 9.3684 19.1807C9.32331 19.1993 9.28232 19.2266 9.2478 19.2611C9.21327 19.2955 9.18588 19.3365 9.16719 19.3815C9.1485 19.4266 9.13888 19.4749 9.13888 19.5237V21.8697C9.13888 21.9682 9.17804 22.0628 9.24775 22.1325C9.31746 22.2022 9.41201 22.2414 9.5106 22.2414H18.7149C18.7636 22.2414 18.8119 22.2318 18.857 22.2131C18.9021 22.1944 18.943 22.167 18.9774 22.1325C19.0119 22.0979 19.0392 22.057 19.0578 22.0119C19.0764 21.9668 19.0859 21.9184 19.0859 21.8697V19.5237C19.0859 19.475 19.0763 19.4267 19.0576 19.3817C19.039 19.3367 19.0116 19.2958 18.9772 19.2613C18.9427 19.2269 18.9018 19.1996 18.8568 19.1809C18.8118 19.1623 18.7636 19.1527 18.7149 19.1527H18.4159C18.5534 18.6595 19.0117 17.385 20.4352 15.4115C20.5153 15.3002 21.1285 14.5138 21.1627 14.4702C22.3718 12.9027 23.0247 10.9773 23.0184 8.99767C23.0155 6.61222 22.0666 4.32531 20.3798 2.63855C18.6931 0.951781 16.4062 0.0028876 14.0207 4.66479e-10ZM20.1246 13.6758C20.0919 13.7187 19.4619 14.5269 19.3746 14.6484C17.4833 17.2672 17.1334 18.7948 17.0738 19.1585H10.9698C10.9102 18.7948 10.5545 17.2504 8.62822 14.5946C8.56566 14.5073 7.90733 13.6678 7.85059 13.5922C6.99696 12.4447 6.48024 11.082 6.35847 9.65701C6.23671 8.23206 6.51473 6.80139 7.1613 5.52575C7.80787 4.25012 8.79736 3.18006 10.0186 2.43583C11.2398 1.69159 12.6444 1.30266 14.0745 1.31275C15.5046 1.32283 16.9036 1.73153 18.1142 2.49292C19.3248 3.25431 20.2991 4.33821 20.9276 5.62284C21.5561 6.90747 21.814 8.34192 21.6721 9.76501C21.5303 11.1881 20.9944 12.5434 20.1246 13.6787V13.6758Z" fill="white"/>
<path d="M11.4574 24.3577C11.4574 24.4796 11.4815 24.6003 11.5282 24.7129C11.5749 24.8255 11.6434 24.9277 11.7296 25.0138C11.8159 25.0999 11.9184 25.1681 12.031 25.2146C12.1437 25.261 12.2645 25.2848 12.3864 25.2845H13.4972V26.3087C13.4972 26.6946 13.3439 27.0646 13.071 27.3375C12.7982 27.6103 12.4281 27.7636 12.0423 27.7636H6.08095C5.69509 27.7636 5.32504 27.6103 5.0522 27.3375C4.77935 27.0646 4.62607 26.6946 4.62607 26.3087V22.8359H5.82343C6.21348 22.8353 6.58738 22.6801 6.86312 22.4042C7.13886 22.1283 7.29393 21.7544 7.29431 21.3643V19.1173C7.29353 18.7429 7.1502 18.3829 6.89345 18.1105C6.6367 17.8381 6.28582 17.6737 5.91218 17.6507V16.2068H4.67554V17.6457H3.48472V16.2068H2.24808V17.6457H2.1928C1.80268 17.6462 1.42871 17.8015 1.15285 18.0773C0.876998 18.3532 0.721769 18.7271 0.721191 19.1173V21.3643C0.721577 21.7545 0.876744 22.1286 1.15264 22.4045C1.42854 22.6804 1.80262 22.8355 2.1928 22.8359H3.39016V26.3087C3.39016 27.0225 3.67373 27.7071 4.17848 28.2119C4.68324 28.7166 5.36784 29.0002 6.08167 29.0002H12.0416C12.7554 29.0002 13.44 28.7166 13.9448 28.2119C14.4495 27.7071 14.7331 27.0225 14.7331 26.3087V25.2845H15.8439C16.0897 25.2845 16.3254 25.1868 16.4992 25.013C16.673 24.8392 16.7706 24.6035 16.7706 24.3577V23.2847H11.4603L11.4574 24.3577ZM2.03058 21.3643V19.1173C2.03058 19.0742 2.04767 19.033 2.07809 19.0026C2.10851 18.9721 2.14977 18.955 2.1928 18.955H5.82416C5.86718 18.955 5.90845 18.9721 5.93887 19.0026C5.96929 19.033 5.98638 19.0742 5.98638 19.1173V21.3643C5.98638 21.4073 5.96929 21.4486 5.93887 21.479C5.90845 21.5094 5.86718 21.5265 5.82416 21.5265H2.1928C2.14977 21.5265 2.10851 21.5094 2.07809 21.479C2.04767 21.4486 2.03058 21.4073 2.03058 21.3643Z" fill="white"/>
<path d="M16.8404 9.61877H15.4415C15.3657 9.61855 15.2912 9.59995 15.2242 9.56457C15.1572 9.52919 15.0997 9.47809 15.0568 9.41565C15.0139 9.35321 14.9868 9.28129 14.9778 9.20606C14.9687 9.13083 14.9781 9.05454 15.005 8.98372L16.1813 5.8892C16.2083 5.81839 16.2176 5.74209 16.2086 5.66686C16.1996 5.59164 16.1725 5.51972 16.1295 5.45727C16.0866 5.39483 16.0292 5.34373 15.9622 5.30835C15.8952 5.27297 15.8206 5.25438 15.7448 5.25415H12.702C12.5946 5.254 12.4905 5.29079 12.407 5.35834C12.3236 5.4259 12.2659 5.5201 12.2437 5.62514L10.9314 11.8127C10.9169 11.881 10.9178 11.9516 10.9341 12.0195C10.9504 12.0874 10.9816 12.1508 11.0255 12.205C11.0695 12.2593 11.125 12.303 11.188 12.333C11.251 12.3631 11.3199 12.3787 11.3897 12.3787H13.3749C13.4438 12.3788 13.5119 12.3942 13.5743 12.4237C13.6367 12.4532 13.6917 12.4961 13.7356 12.5493C13.7795 12.6025 13.8112 12.6647 13.8283 12.7315C13.8454 12.7984 13.8475 12.8681 13.8346 12.9359L13.3436 15.4885C13.2541 15.9547 13.8848 16.1883 14.1205 15.7794L17.2485 10.3237C17.2905 10.2523 17.3128 10.171 17.313 10.0881C17.3133 10.0053 17.2916 9.92383 17.2501 9.85213C17.2086 9.78043 17.1488 9.72105 17.0768 9.68004C17.0048 9.63904 16.9232 9.6179 16.8404 9.61877Z" fill="white"/>
</svg>
