<svg width="24" height="31" viewBox="0 0 24 31" fill="none" xmlns="http://www.w3.org/2000/svg">
<path d="M14.0212 0.849609C16.4463 0.852638 18.7713 1.81748 20.4861 3.53223C22.2008 5.24698 23.1657 7.57206 23.1687 9.99707C23.1751 12.01 22.5105 13.9677 21.281 15.5615V15.5625C21.2454 15.608 20.6356 16.3903 20.5574 16.499C19.3022 18.2391 18.806 19.4263 18.6179 20.0029H18.7146C18.7828 20.0029 18.8507 20.0159 18.9138 20.042C18.977 20.0682 19.0354 20.1069 19.0837 20.1553C19.132 20.2036 19.1699 20.2612 19.196 20.3242C19.2222 20.3874 19.2361 20.4551 19.2361 20.5234V22.8691L19.2263 22.9707C19.2197 23.0043 19.2092 23.0375 19.196 23.0693C19.1699 23.1325 19.132 23.1899 19.0837 23.2383C19.0354 23.2867 18.978 23.3253 18.9148 23.3516C18.8515 23.3778 18.7831 23.3916 18.7146 23.3916H9.5105C9.37216 23.3916 9.23918 23.3361 9.14136 23.2383C9.04382 23.1406 8.98913 23.0082 8.98901 22.8701V20.5234C8.98904 20.455 9.00284 20.3874 9.02905 20.3242C9.05522 20.2611 9.09307 20.2036 9.14136 20.1553C9.18984 20.1069 9.24795 20.0681 9.31128 20.042C9.34803 20.0268 9.3865 20.0172 9.42554 20.0107C9.25105 19.4718 8.80562 18.3888 7.70679 16.8105L7.44702 16.4453C7.42205 16.4111 7.24944 16.1895 7.07104 15.9609C6.89515 15.7355 6.71521 15.5045 6.68042 15.458H6.67944C5.66746 14.0973 5.05416 12.4814 4.90698 10.792C4.75988 9.10267 5.08502 7.40578 5.84644 5.89062C6.60789 4.37539 7.77508 3.10102 9.21851 2.21094C10.6619 1.32093 12.3246 0.849675 14.0203 0.849609H14.0212ZM14.073 2.46289C12.671 2.45309 11.2937 2.83385 10.0964 3.56348C8.89902 4.2932 7.92863 5.343 7.29468 6.59375C6.66083 7.84443 6.38819 9.2475 6.50757 10.6445C6.62697 12.0413 7.13383 13.3771 7.97046 14.502C8.0194 14.5672 8.686 15.4181 8.74976 15.5068L9.09448 15.9941C10.5824 18.1525 10.986 19.5052 11.0925 20.0088H16.9509C17.0643 19.4708 17.5132 17.9691 19.2527 15.5605C19.3418 15.4366 19.9767 14.6228 20.0056 14.585L20.0876 14.4766C20.8916 13.3864 21.3887 12.0995 21.5232 10.75C21.6622 9.35473 21.409 7.948 20.7927 6.68848C20.1765 5.42904 19.2208 4.36659 18.0339 3.62012C16.847 2.87366 15.4751 2.47278 14.073 2.46289Z" fill="white" stroke="white" stroke-width="0.3"/>
<path d="M3.63428 17.0564V18.4958H4.52588V17.0564H6.06201V18.5154C6.42043 18.569 6.752 18.7419 7.00244 19.0076C7.28535 19.3077 7.44299 19.7045 7.44385 20.1169V22.364C7.44342 22.7938 7.27306 23.2065 6.96924 23.5105C6.66545 23.8144 6.25342 23.9854 5.82373 23.9861H4.77588V27.3083C4.77588 27.6544 4.91398 27.9865 5.15869 28.2312C5.4033 28.4757 5.73469 28.6139 6.08057 28.614H12.0425C12.3885 28.614 12.7207 28.4759 12.9653 28.2312C13.2099 27.9865 13.3472 27.6543 13.3472 27.3083V26.4343H12.3862C12.2449 26.4346 12.1048 26.4071 11.9741 26.3533C11.8432 26.2993 11.7238 26.2199 11.6235 26.1199C11.5233 26.0199 11.4434 25.901 11.3892 25.7703C11.335 25.6397 11.3072 25.4995 11.3071 25.3582V25.3572L11.3101 24.2839L11.311 24.1345H16.9204V25.3582C16.9203 25.6436 16.8068 25.9171 16.605 26.1189C16.4031 26.3207 16.1297 26.4342 15.8442 26.4343H14.8833V27.3083C14.8833 28.0619 14.5841 28.7852 14.0513 29.3181C13.5184 29.851 12.7951 30.1501 12.0415 30.1501H6.08154C5.32809 30.1501 4.60559 29.8508 4.07275 29.3181C3.53987 28.7852 3.23975 28.062 3.23975 27.3083V23.9861H2.19287C1.76296 23.9857 1.35038 23.8145 1.04639 23.5105C0.742467 23.2065 0.571225 22.7939 0.570801 22.364V20.1169C0.571462 19.6873 0.742661 19.2753 1.04639 18.9714C1.32797 18.6899 1.70281 18.5234 2.09814 18.4998V17.0564H3.63428ZM2.18408 20.1082C2.18186 20.1104 2.18025 20.1138 2.18018 20.1169V22.364C2.18018 22.3672 2.18186 22.3705 2.18408 22.3728C2.18637 22.3751 2.18963 22.3767 2.19287 22.3767H5.82373C5.82694 22.3767 5.83024 22.375 5.83252 22.3728C5.83481 22.3705 5.83643 22.3673 5.83643 22.364V20.1169C5.83634 20.1138 5.83474 20.1104 5.83252 20.1082C5.83027 20.1061 5.8268 20.1052 5.82373 20.1052H2.19287C2.18972 20.1052 2.18635 20.106 2.18408 20.1082Z" fill="white" stroke="white" stroke-width="0.3"/>
<path d="M15.7454 6.10376C15.8454 6.10407 15.944 6.12933 16.0325 6.17603C16.1208 6.22272 16.1966 6.28998 16.2532 6.37231C16.3098 6.45466 16.3457 6.54948 16.3577 6.64868C16.3696 6.748 16.3571 6.84913 16.3215 6.94263L15.1448 10.0374C15.1266 10.0852 15.1202 10.1369 15.1262 10.1877C15.1323 10.2389 15.1517 10.2879 15.1809 10.3303C15.2101 10.3728 15.2486 10.4078 15.2942 10.4319C15.3396 10.4559 15.3902 10.4688 15.4417 10.469H16.8401C16.949 10.4681 17.056 10.4962 17.1506 10.55C17.2457 10.6042 17.3253 10.682 17.3801 10.7766C17.4349 10.8713 17.4635 10.9797 17.4631 11.0891C17.4627 11.1983 17.4335 11.3055 17.3782 11.3997L17.3772 11.3987L14.2502 16.8538V16.8547C13.9297 17.41 13.0753 17.092 13.1965 16.4602L13.6877 13.9075C13.6965 13.8615 13.6945 13.8141 13.6829 13.7688C13.6713 13.7234 13.6501 13.6809 13.6204 13.6448C13.5905 13.6086 13.5524 13.5789 13.51 13.5588C13.4677 13.5389 13.4211 13.5287 13.3743 13.5286H11.3899C11.2977 13.5286 11.2065 13.5077 11.1233 13.468C11.0402 13.4284 10.9674 13.3706 10.9094 13.2991C10.8515 13.2276 10.8099 13.1444 10.7883 13.0549C10.7668 12.9653 10.7653 12.8716 10.7844 12.7815L12.0969 6.59399C12.1263 6.45531 12.2026 6.33065 12.3127 6.24146C12.4229 6.15235 12.5607 6.10356 12.7024 6.10376H15.7454Z" fill="white" stroke="white" stroke-width="0.3"/>
</svg>
