<svg width="48" height="48" viewBox="0 0 48 48" fill="none" xmlns="http://www.w3.org/2000/svg">
<path d="M25.1691 4.4917C23.0193 4.49168 20.9119 5.08918 19.0821 6.21749C17.2523 7.3458 15.7722 8.96051 14.8069 10.8813C13.8416 12.8021 13.4292 14.9534 13.6158 17.095C13.8024 19.2366 14.5805 21.2842 15.8634 23.0092C15.9497 23.1245 16.785 24.1895 16.8534 24.2833C18.7284 26.867 19.3275 28.5339 19.5056 29.1751H19.3566C19.2937 29.175 19.2314 29.1873 19.1733 29.2113C19.1152 29.2352 19.0624 29.2704 19.0179 29.3148C18.9734 29.3593 18.9381 29.412 18.914 29.4701C18.8899 29.5281 18.8775 29.5904 18.8775 29.6533V32.6767C18.8775 32.8038 18.928 32.9256 19.0178 33.0154C19.1076 33.1053 19.2295 33.1558 19.3566 33.1558H31.2187C31.2816 33.1558 31.3439 33.1434 31.4019 33.1193C31.46 33.0952 31.5127 33.0599 31.5572 33.0154C31.6016 32.9709 31.6368 32.9181 31.6607 32.86C31.6847 32.8018 31.697 32.7396 31.6969 32.6767V29.6533C31.6969 29.5905 31.6845 29.5283 31.6605 29.4703C31.6364 29.4123 31.6012 29.3596 31.5568 29.3152C31.5124 29.2708 31.4597 29.2356 31.4017 29.2115C31.3437 29.1875 31.2815 29.1751 31.2187 29.1751H30.8334C31.0106 28.5395 31.6012 26.897 33.4359 24.3536C33.5391 24.2101 34.3294 23.1967 34.3734 23.1404C35.9317 21.1203 36.7731 18.6389 36.765 16.0876C36.7613 13.0133 35.5384 10.066 33.3645 7.89218C31.1907 5.71833 28.2433 4.49542 25.1691 4.4917ZM33.0356 22.1167C32.9934 22.172 32.1816 23.2136 32.0691 23.3701C29.6316 26.7451 29.1806 28.7139 29.1037 29.1826H21.2372C21.1603 28.7139 20.7019 26.7236 18.2194 23.3008C18.1387 23.1883 17.2903 22.1064 17.2172 22.0089C16.117 20.5301 15.4511 18.7738 15.2942 16.9374C15.1373 15.1009 15.4956 13.2571 16.3288 11.6131C17.1621 9.96913 18.4373 8.59007 20.0112 7.63092C21.5851 6.67177 23.3953 6.17053 25.2384 6.18353C27.0815 6.19653 28.8844 6.72325 30.4446 7.7045C32.0048 8.68576 33.2605 10.0827 34.0705 11.7383C34.8805 13.3939 35.2128 15.2425 35.03 17.0766C34.8471 18.9106 34.1565 20.6573 33.0356 22.1204V22.1167Z" fill="#FF0000"/>
<path d="M21.8653 35.8831C21.8653 36.0402 21.8963 36.1957 21.9565 36.3408C22.0167 36.4859 22.1049 36.6177 22.2161 36.7287C22.3273 36.8396 22.4593 36.9275 22.6046 36.9874C22.7498 37.0472 22.9054 37.0778 23.0625 37.0775H24.4941V38.3975C24.4941 38.8948 24.2965 39.3717 23.9449 39.7233C23.5933 40.0749 23.1163 40.2725 22.6191 40.2725H14.9362C14.439 40.2725 13.9621 40.0749 13.6104 39.7233C13.2588 39.3717 13.0612 38.8948 13.0612 38.3975V33.9219H14.6044C15.1071 33.9211 15.5889 33.721 15.9443 33.3655C16.2997 33.0099 16.4995 32.528 16.5 32.0253V29.1294C16.499 28.6469 16.3143 28.183 15.9834 27.8319C15.6525 27.4808 15.2003 27.2689 14.7187 27.2394V25.3784H13.125V27.2328H11.5903V25.3784H9.99656V27.2328H9.92531C9.42254 27.2335 8.94057 27.4336 8.58506 27.7891C8.22955 28.1446 8.02949 28.6266 8.02875 29.1294V32.0253C8.02924 32.5281 8.22922 33.0102 8.58479 33.3658C8.94035 33.7214 9.42246 33.9214 9.92531 33.9219H11.4684V38.3975C11.4684 39.3174 11.8339 40.1997 12.4844 40.8503C13.1349 41.5008 14.0172 41.8662 14.9372 41.8662H22.6181C23.5381 41.8662 24.4204 41.5008 25.0709 40.8503C25.7214 40.1997 26.0869 39.3174 26.0869 38.3975V37.0775H27.5184C27.8352 37.0775 28.139 36.9516 28.363 36.7277C28.587 36.5037 28.7128 36.1999 28.7128 35.8831V34.5003H21.8691L21.8653 35.8831ZM9.71625 32.0253V29.1294C9.71625 29.0739 9.73827 29.0207 9.77748 28.9815C9.81669 28.9423 9.86986 28.9203 9.92531 28.9203H14.6053C14.6608 28.9203 14.7139 28.9423 14.7531 28.9815C14.7923 29.0207 14.8144 29.0739 14.8144 29.1294V32.0253C14.8144 32.0807 14.7923 32.1339 14.7531 32.1731C14.7139 32.2123 14.6608 32.2344 14.6053 32.2344H9.92531C9.86986 32.2344 9.81669 32.2123 9.77748 32.1731C9.73827 32.1339 9.71625 32.0807 9.71625 32.0253Z" fill="#FF0000"/>
<path d="M28.8028 16.8882H27C26.9024 16.8879 26.8062 16.8639 26.7199 16.8183C26.6335 16.7727 26.5595 16.7069 26.5042 16.6264C26.4489 16.5459 26.414 16.4532 26.4023 16.3563C26.3907 16.2593 26.4028 16.161 26.4375 16.0697L27.9534 12.0816C27.9882 11.9904 28.0002 11.892 27.9886 11.7951C27.977 11.6981 27.942 11.6054 27.8867 11.525C27.8314 11.4445 27.7574 11.3786 27.6711 11.333C27.5847 11.2874 27.4886 11.2635 27.3909 11.2632H23.4694C23.331 11.263 23.1968 11.3104 23.0892 11.3975C22.9817 11.4845 22.9074 11.6059 22.8787 11.7413L21.1875 19.7157C21.1688 19.8037 21.17 19.8947 21.191 19.9822C21.2119 20.0697 21.2522 20.1513 21.3088 20.2213C21.3654 20.2912 21.437 20.3475 21.5182 20.3863C21.5993 20.425 21.6882 20.4451 21.7781 20.4451H24.3366C24.4255 20.4453 24.5132 20.4651 24.5936 20.5031C24.674 20.5411 24.745 20.5963 24.8015 20.6649C24.8581 20.7335 24.8989 20.8137 24.9209 20.8998C24.943 20.9859 24.9457 21.0759 24.9291 21.1632L24.2963 24.4529C24.1809 25.0538 24.9937 25.3547 25.2975 24.8279L29.3287 17.7966C29.3829 17.7046 29.4116 17.5998 29.412 17.4931C29.4124 17.3863 29.3844 17.2813 29.3309 17.1889C29.2774 17.0965 29.2003 17.02 29.1075 16.9671C29.0147 16.9143 28.9096 16.8871 28.8028 16.8882Z" fill="#FF0000"/>
</svg>
