<svg width="291" height="181" viewBox="0 0 291 181" fill="none" xmlns="http://www.w3.org/2000/svg">
<path d="M163.63 88.9338C178.388 88.9338 190.351 76.9911 190.351 62.2591C190.351 47.5271 178.388 35.5845 163.63 35.5845C148.873 35.5845 136.91 47.5271 136.91 62.2591C136.91 76.9911 148.873 88.9338 163.63 88.9338Z" fill="#FFE840"/>
<path d="M163.63 32.8766V24.4336" stroke="#FFE840" stroke-width="2" stroke-miterlimit="10" stroke-linecap="round"/>
<path d="M187.171 43.9351L193.573 38.4143" stroke="#FFE840" stroke-width="2" stroke-miterlimit="10" stroke-linecap="round"/>
<path d="M138.771 45.9449L131.763 41.2146" stroke="#FFE840" stroke-width="2" stroke-miterlimit="10" stroke-linecap="round"/>
<path d="M134.951 69.4954L126.734 71.4926" stroke="#FFE840" stroke-width="2" stroke-miterlimit="10" stroke-linecap="round"/>
<path d="M147.023 86.6968L142.213 93.643" stroke="#FFE840" stroke-width="2" stroke-miterlimit="10" stroke-linecap="round"/>
<path d="M221.119 90.7965L224.026 87.4874L228.646 87.4075L228.591 80.6042L221.119 88.219V90.7965Z" fill="#163687"/>
<path d="M149.428 94.3032V97.8099C149.428 97.8099 154.735 99.1681 156.024 101.817V94.3747L149.428 94.3032Z" fill="#163687"/>
<path d="M203.77 93.9458H212.16V97.667H203.627L203.77 93.9458Z" fill="#163687"/>
<path d="M253.918 54.7957L246.64 62.3809V97.3767C246.64 97.3767 251.875 97.6626 254.166 100.026L253.914 54.7957H253.918Z" fill="#163687"/>
<path d="M192.516 53.7235L147.347 93.336H213.163L253.004 53.5637L192.516 53.7235Z" fill="#CBEAEF"/>
<path d="M192.027 57.5876L182.736 66.2704H193.047L202.338 57.5876H192.027Z" fill="#163687"/>
<path d="M180.891 78.0268H170.576L181.594 67.7336H191.905L180.891 78.0268Z" fill="#163687"/>
<path d="M169.3 88.9379L179.821 79.0989H169.51L158.989 88.9379H169.3Z" fill="#163687"/>
<path d="M204.828 57.5876L194.925 66.8464H205.236L215.138 57.5876H204.828Z" fill="#163687"/>
<path d="M193.076 78.5985H182.765L193.78 68.3054H204.09L193.076 78.5985Z" fill="#163687"/>
<path d="M182.1 88.938L192.011 79.675H181.7L171.789 88.938H182.1Z" fill="#163687"/>
<path d="M217.687 57.5876L207.397 67.2038H217.712L227.997 57.5876H217.687Z" fill="#163687"/>
<path d="M205.552 78.956H195.241L206.255 68.6628H216.566L205.552 78.956Z" fill="#163687"/>
<path d="M194.955 88.938L204.486 80.0325H194.175L184.644 88.938H194.955Z" fill="#163687"/>
<path d="M230.348 57.5876L219.371 67.8471H229.682L240.659 57.5876H230.348Z" fill="#163687"/>
<path d="M217.527 79.5993H207.211L218.226 69.3062H228.541L217.527 79.5993Z" fill="#163687"/>
<path d="M207.62 88.938L216.457 80.6758H206.146L197.305 88.938H207.62Z" fill="#163687"/>
<path d="M62.4591 125.914V157.828H60.3489V152.538C58.5841 156.024 55.1766 158 51.1289 158C44.7941 158 40.0135 153.312 40.0135 146.601C40.0135 139.891 44.7941 135.202 51.1289 135.202C55.1345 135.202 58.4956 137.183 60.3068 140.58V125.914H62.4591ZM60.3068 146.601C60.3068 140.967 56.4276 137.141 51.2595 137.141C46.0914 137.141 42.2122 140.967 42.2122 146.601C42.2122 152.236 46.0914 156.062 51.2595 156.062C56.4276 156.062 60.3068 152.236 60.3068 146.601Z" fill="#848484"/>
<path d="M90.5486 147.118H71.2031C71.4179 152.45 75.3392 156.066 80.7263 156.066C83.5694 156.066 86.1977 155.032 87.9204 152.925L89.1713 154.346C87.1875 156.756 84.0875 158.004 80.6842 158.004C73.8777 158.004 69.0929 153.274 69.0929 146.606C69.0929 139.937 73.705 135.207 79.8629 135.207C86.0208 135.207 90.5907 139.853 90.5907 146.517C90.5907 146.69 90.5486 146.904 90.5486 147.118ZM71.2494 145.441H88.4848C88.1815 140.58 84.6519 137.099 79.8671 137.099C75.0823 137.099 71.5948 140.538 71.2494 145.441Z" fill="#848484"/>
<path d="M97.2709 125.914H99.4232V157.828H97.2709V125.914Z" fill="#848484"/>
<path d="M117.13 146.601C117.13 139.89 121.911 135.202 128.507 135.202C132.083 135.202 135.187 136.577 137.036 139.331L135.444 140.492C133.805 138.213 131.308 137.136 128.507 137.136C123.208 137.136 119.329 140.921 119.329 146.597C119.329 152.273 123.208 156.057 128.507 156.057C131.308 156.057 133.805 154.981 135.444 152.702L137.036 153.863C135.183 156.57 132.083 157.992 128.507 157.992C121.915 157.992 117.13 153.261 117.13 146.593V146.601Z" fill="#848484"/>
<path d="M159.743 143.591V157.828H157.675V153.829C156.251 156.411 153.496 158 149.575 158C144.533 158 141.475 155.419 141.475 151.592C141.475 148.195 143.632 145.315 149.878 145.315H157.59V143.507C157.59 139.336 155.307 137.099 150.91 137.099C147.806 137.099 145.009 138.259 143.156 139.937L142.078 138.39C144.318 136.409 147.591 135.207 151.083 135.207C156.643 135.207 159.743 138.045 159.743 143.595V143.591ZM157.59 151.205V146.988H149.92C145.266 146.988 143.632 148.922 143.632 151.504C143.632 154.43 145.915 156.234 149.878 156.234C153.842 156.234 156.297 154.426 157.59 151.201V151.205Z" fill="#848484"/>
<path d="M205.586 144.709V157.828H203.429V144.882C203.429 139.806 200.801 137.141 196.408 137.141C191.324 137.141 188.178 140.538 188.178 145.874V157.832H186.025V144.886C186.025 139.811 183.397 137.145 179.004 137.145C173.92 137.145 170.774 140.542 170.774 145.878V157.836H168.617V135.383H170.685V140.202C172.151 137.061 175.209 135.211 179.303 135.211C183.397 135.211 186.324 137.061 187.533 140.631C188.999 137.363 192.272 135.211 196.623 135.211C202.052 135.211 205.586 138.436 205.586 144.718V144.709Z" fill="#848484"/>
<path d="M236.864 146.601C236.864 153.312 232.083 158 225.748 158C221.696 158 218.293 155.978 216.528 152.538V157.828H214.46V125.914H216.617V140.496C218.428 137.141 221.789 135.206 225.752 135.206C232.087 135.206 236.868 139.853 236.868 146.605L236.864 146.601ZM234.711 146.601C234.711 140.967 230.79 137.141 225.622 137.141C220.454 137.141 216.575 140.967 216.575 146.601C216.575 152.236 220.454 156.062 225.622 156.062C230.79 156.062 234.711 152.236 234.711 146.601Z" fill="#848484"/>
<path d="M242.853 128.193C242.853 127.247 243.628 126.431 244.618 126.431C245.608 126.431 246.383 127.205 246.383 128.151C246.383 129.097 245.608 129.913 244.618 129.913C243.628 129.913 242.853 129.139 242.853 128.193ZM243.54 135.375H245.692V157.828H243.54V135.375Z" fill="#848484"/>
<path d="M252.33 146.601C252.33 139.932 257.111 135.202 263.576 135.202C270.041 135.202 274.822 139.932 274.822 146.601C274.822 153.27 270.041 158 263.576 158C257.111 158 252.33 153.27 252.33 146.601ZM272.623 146.601C272.623 140.967 268.744 137.141 263.576 137.141C258.408 137.141 254.529 140.967 254.529 146.601C254.529 152.235 258.408 156.062 263.576 156.062C268.744 156.062 272.623 152.235 272.623 146.601Z" fill="#848484"/>
<path d="M49.2715 70.5591V82.3995H48.408V76.7694H40.4811V82.3995H39.6177V70.5591H40.4811V76.0042H48.408V70.5591H49.2715Z" fill="#515151"/>
<path d="M53.4034 70.5591H54.2669V82.3995H53.4034V70.5591Z" fill="#515151"/>
<path d="M57.1984 80.8775L57.5901 80.2342C58.403 81.0794 59.9109 81.7227 61.503 81.7227C63.8743 81.7227 64.9231 80.6925 64.9231 79.4059C64.9231 75.8529 57.5185 77.9847 57.5185 73.6202C57.5185 71.9467 58.8073 70.4751 61.722 70.4751C63.0277 70.4751 64.3798 70.883 65.298 71.5389L64.9779 72.2327C63.9965 71.5557 62.7918 71.2361 61.7262 71.2361C59.4223 71.2361 58.3903 72.2999 58.3903 73.6034C58.3903 77.1564 65.795 75.0582 65.795 79.3554C65.795 81.0289 64.4556 82.4837 61.524 82.4837C59.7634 82.4837 58.066 81.8236 57.2026 80.8775H57.1984Z" fill="#515151"/>
<path d="M70.8199 71.3413H66.549V70.5635H75.95V71.3413H71.6791V82.4039H70.8157V71.3413H70.8199Z" fill="#515151"/>
<path d="M76.7798 76.4794C76.7798 73.0442 79.4038 70.4751 82.9461 70.4751C86.4883 70.4751 89.1124 73.0274 89.1124 76.4794C89.1124 79.9315 86.4715 82.4837 82.9461 82.4837C79.4207 82.4837 76.7798 79.9147 76.7798 76.4794ZM88.2321 76.4794C88.2321 73.4857 85.9619 71.2698 82.9461 71.2698C79.9303 71.2698 77.6432 73.4857 77.6432 76.4794C77.6432 79.4732 79.9135 81.689 82.9461 81.689C85.9787 81.689 88.2321 79.4732 88.2321 76.4794Z" fill="#515151"/>
<path d="M100.346 82.3995L97.5153 78.4429C97.1446 78.4934 96.7698 78.527 96.3654 78.527H92.979V82.3995H92.1155V70.5591H96.3696C99.3517 70.5591 101.146 72.0476 101.146 74.5494C101.146 76.4247 100.131 77.7281 98.3661 78.2537L101.331 82.3953H100.35L100.346 82.3995ZM96.3654 77.7659C98.9052 77.7659 100.261 76.5802 100.261 74.5536C100.261 72.5269 98.9052 71.3412 96.3654 71.3412H92.979V77.7659H96.3654Z" fill="#515151"/>
<path d="M104.309 70.5591H105.173V82.3995H104.309V70.5591Z" fill="#515151"/>
<path d="M116.642 79.0694H109.764L108.256 82.3995H107.325L112.779 70.5591H113.643L119.097 82.3995H118.166L116.642 79.0694ZM116.317 78.342L113.201 71.5093L110.101 78.342H116.317Z" fill="#515151"/>
<path d="M120.045 80.8775L120.437 80.2342C121.25 81.0794 122.758 81.7227 124.35 81.7227C126.721 81.7227 127.77 80.6925 127.77 79.4059C127.77 75.8529 120.365 77.9847 120.365 73.6202C120.365 71.9467 121.654 70.4751 124.569 70.4751C125.874 70.4751 127.226 70.883 128.145 71.5389L127.825 72.2327C126.843 71.5557 125.639 71.2361 124.573 71.2361C122.269 71.2361 121.237 72.2999 121.237 73.6034C121.237 77.1564 128.642 75.0582 128.642 79.3554C128.642 81.0289 127.302 82.4837 124.371 82.4837C122.61 82.4837 120.913 81.8236 120.049 80.8775H120.045Z" fill="#515151"/>
<path d="M56.116 104.323L55.2988 111.223H61.2967V117.404H54.5323L53.6183 124.543H47.0897L47.9995 117.404H42.0986L41.1846 124.543H34.656L35.5658 117.404H29.5175V111.223H36.3324L37.1495 104.323H31.1012V98.142H37.9161L38.8301 91.0024H45.3586L44.4488 98.142H50.3498L51.2638 91.0024H57.7923L56.8825 98.142H62.9309V104.323H56.116ZM49.5874 104.323H43.6865L42.8694 111.223H48.7703L49.5874 104.323Z" fill="#163687"/>
<path d="M94.0741 117.21V124.539H67.105V91.0024H93.4508V98.3312H76.5103V103.982H91.4332V111.072H76.5103V117.202H94.0741V117.21Z" fill="#163687"/>
<path d="M126.612 109.688V124.539H117.493V111.173C117.493 107.435 115.863 105.854 113.222 105.854C110.294 105.854 108.037 107.674 108.037 111.984V124.535H98.9179V98.571H107.603V101.397C109.667 99.2396 112.594 98.1379 115.858 98.1379C121.953 98.1379 126.607 101.636 126.607 109.684L126.612 109.688Z" fill="#163687"/>
<path d="M159.149 113.859H140.241C141.008 116.496 143.266 118.026 146.623 118.026C149.167 118.026 150.847 117.307 152.62 115.772L157.418 120.755C154.924 123.534 151.277 124.972 146.332 124.972C137.07 124.972 131.072 119.271 131.072 111.509C131.072 103.747 137.167 98.1421 145.372 98.1421C153.05 98.1421 159.288 103.028 159.288 111.606C159.288 112.278 159.191 113.14 159.145 113.855L159.149 113.859ZM140.098 109.066H150.75C150.27 106.337 148.257 104.609 145.422 104.609C142.587 104.609 140.625 106.333 140.094 109.066H140.098Z" fill="#163687"/>
<path d="M180.937 98.1462V106.337C180.12 106.24 179.547 106.194 178.874 106.194C175.18 106.194 172.636 108.061 172.636 112.615V124.543H163.517V98.5793H172.202V101.695C174.072 99.3488 177.096 98.1504 180.937 98.1504V98.1462Z" fill="#163687"/>
<path d="M212.418 98.5752V119.796C212.418 129.619 206.849 134.265 197.158 134.265C192.166 134.265 187.415 133.117 184.248 130.863L187.559 124.493C189.719 126.217 193.27 127.272 196.341 127.272C201.235 127.272 203.299 125.069 203.299 120.995V120.133C201.521 122.193 198.885 123.198 195.574 123.198C188.662 123.198 182.807 118.312 182.807 110.647C182.807 102.982 188.662 98.1421 195.574 98.1421C199.171 98.1421 201.955 99.29 203.733 101.733V98.571H212.418V98.5752ZM203.396 110.647C203.396 107.485 200.995 105.378 197.735 105.378C194.475 105.378 192.023 107.485 192.023 110.647C192.023 113.809 194.47 115.966 197.735 115.966C200.999 115.966 203.396 113.809 203.396 110.647Z" fill="#163687"/>
<path d="M224.556 88.1812H233.675L224.653 95.4637H218.125L224.556 88.1812ZM218.272 98.5752H227.391V124.539H218.272V98.5752Z" fill="#163687"/>
<path d="M257.671 110.121V124.539H249.175V121.184C247.878 123.673 245.288 124.968 241.497 124.968C235.259 124.968 231.801 121.47 231.801 116.967C231.801 112.177 235.305 109.205 243.367 109.205H248.552C248.409 106.568 246.631 105.084 243.034 105.084C240.541 105.084 237.757 105.946 235.979 107.338L232.909 101.157C235.882 99.1933 240.301 98.1379 244.378 98.1379C252.823 98.1379 257.671 101.876 257.671 110.113V110.121ZM248.552 116.206V113.956H244.618C241.691 113.956 240.633 115.011 240.633 116.592C240.633 118.173 241.88 119.229 244.041 119.229C246.058 119.229 247.832 118.27 248.552 116.21V116.206Z" fill="#163687"/>
</svg>
