<svg width="218" height="108" viewBox="0 0 218 108" fill="none" xmlns="http://www.w3.org/2000/svg">
<path d="M60.8339 35.2154V0H75.1716C86.4406 0 94.037 7.24431 94.037 17.6077C94.037 27.9711 86.4406 35.2154 75.1716 35.2154H60.8339ZM64.5567 31.9957H74.9704C84.3276 31.9957 90.3646 26.0594 90.3646 17.6077C90.3646 9.156 84.3276 3.21969 74.9704 3.21969H64.5567V31.9957Z" fill="#144C84"/>
<path d="M127.21 35.2154L122.984 25.8078H103.364L99.1385 35.2154H95.2648L111.363 0H115.036L131.134 35.2154H127.21ZM104.723 22.7894H121.626L113.174 3.87369L104.723 22.7894Z" fill="#144C84"/>
<path d="M141.027 35.2154V3.21969H128.651V0H157.125V3.21969H144.75V35.2154H141.027Z" fill="#144C84"/>
<path d="M186.609 35.2154L182.383 25.8078H162.763L158.537 35.2154H154.663L170.762 0H174.434L190.533 35.2154H186.609ZM164.121 22.7894H181.025L172.573 3.87369L164.121 22.7894Z" fill="#144C84"/>
<path d="M80.8084 93.7841C65.7161 93.7841 54.6484 83.6555 54.6484 69.234C54.6484 54.8125 65.7161 44.6838 80.8084 44.6838C89.998 44.6838 97.2423 48.0377 101.871 54.0746L91.8761 62.9958C89.126 59.5078 85.8392 57.4955 81.6134 57.4955C75.0398 57.4955 70.6127 62.0568 70.6127 69.234C70.6127 76.4112 75.0398 80.9725 81.6134 80.9725C85.8392 80.9725 89.126 78.9601 91.8761 75.4721L101.871 84.3934C97.2423 90.4303 89.998 93.7841 80.8084 93.7841Z" fill="#144C84"/>
<path d="M135.955 45.7571H151.383V92.7109H138.37L120.527 71.3804V92.7109H105.1V45.7571H118.113L135.955 67.0875V45.7571Z" fill="#144C84"/>
<path d="M173.23 80.7712H196.707V92.7109H157.669V45.7571H195.835V57.6968H173.23V63.1971H193.085V74.6001H173.23V80.7712Z" fill="#144C84"/>
<path d="M216.625 93.6046L208.389 87.0534C207.874 86.645 207.139 86.7393 206.748 87.242C206.342 87.7447 206.436 88.4988 206.936 88.8915L214.953 95.2699H12.5174V64.5572C12.5174 64.5572 12.5174 64.5572 12.533 64.5572C12.8143 64.5572 13.1113 64.4473 13.33 64.243L29.1135 49.3026L32.5203 52.6646C32.7547 52.8846 33.0516 52.9945 33.3485 52.9945C33.6454 52.9945 33.958 52.8689 34.1924 52.6489C34.6456 52.1776 34.6456 51.4392 34.1924 50.9836L30.8638 47.7002L33.0672 45.6265C33.8486 46.1292 34.7706 46.4434 35.7551 46.4434C38.4586 46.4434 40.6621 44.2597 40.709 41.5418L56.2893 38.007C57.1488 39.4681 58.7272 40.4735 60.5399 40.4735C63.2747 40.4735 65.4938 38.2427 65.4938 35.4934C65.4938 34.6922 65.2906 33.9381 64.9468 33.2625L75.714 22.8152C76.4797 23.3023 77.3861 23.6007 78.355 23.6007C81.0897 23.6007 83.3088 21.3699 83.3088 18.6206C83.3088 15.8713 81.0897 13.6405 78.355 13.6405C75.6202 13.6405 73.4011 15.8713 73.4011 18.6206C73.4011 19.5318 73.6668 20.3802 74.0887 21.1185L63.4153 31.4559C62.6027 30.8589 61.6026 30.4975 60.5243 30.4975C57.7895 30.4975 55.5705 32.7284 55.5705 35.4777C55.5705 35.5719 55.5861 35.6505 55.6017 35.7447L40.1776 39.2481C39.365 37.6143 37.6929 36.4674 35.7551 36.4674C33.0204 36.4674 30.8013 38.6983 30.8013 41.4475C30.8013 42.343 31.0513 43.1757 31.4733 43.8983L12.5643 61.808V47.6845L14.002 47.1189C14.5958 46.8833 14.8928 46.192 14.6584 45.595C14.4239 44.9823 13.7363 44.6996 13.1425 44.9352L12.5643 45.1709V9.4378L18.9402 17.5286C19.1746 17.8271 19.5184 17.9684 19.8622 17.9684C20.1123 17.9684 20.3779 17.8899 20.5811 17.7171C21.0811 17.3086 21.1749 16.5702 20.7686 16.0675L14.252 7.78823C13.5644 6.92417 12.5174 6.48429 11.4548 6.46858C11.4391 6.46858 11.4235 6.46858 11.3923 6.46858C11.361 6.46858 11.3454 6.46858 11.3141 6.46858C10.2671 6.48429 9.22007 6.92417 8.5481 7.78823L2.03154 16.0675C1.62523 16.5702 1.719 17.3243 2.21907 17.7171C2.73477 18.1255 3.46925 18.0313 3.85993 17.5286L10.2046 9.46922V95.2856H1.17204C0.531326 95.2856 0 95.8197 0 96.4639C0 97.108 0.531326 97.6421 1.17204 97.6421H10.1733V105.906C10.1733 106.55 10.7047 107.084 11.3454 107.084C11.9861 107.084 12.5174 106.55 12.5174 105.906V97.6421H214.984L206.936 104.052C206.436 104.46 206.342 105.199 206.748 105.701C206.983 106 207.327 106.141 207.67 106.141C207.92 106.141 208.186 106.063 208.389 105.89L216.625 99.3388C217.5 98.6476 218 97.595 218 96.4796C218 95.3641 217.5 94.3116 216.625 93.6203V93.6046ZM20.8467 41.8403L23.0346 40.9762C23.4721 40.8034 23.9566 40.9134 24.2847 41.2276L25.9568 42.8772C26.4257 43.3328 26.4257 44.0869 25.9568 44.5425C25.7224 44.7781 25.4255 44.8881 25.113 44.8881C24.8004 44.8881 24.5191 44.7781 24.2847 44.5582L23.1596 43.4427L21.6906 44.024C21.0811 44.2597 20.4092 43.9612 20.1748 43.3642C19.9404 42.7515 20.2373 42.076 20.8311 41.8403H20.8467ZM53.7108 59.3572C54.3515 59.4514 54.7891 60.0641 54.6797 60.7083C54.5859 61.2895 54.0859 61.698 53.5233 61.698C53.4608 61.698 53.3983 61.698 53.3358 61.698L48.4601 60.9282C47.8194 60.8339 47.3818 60.2212 47.4912 59.5771C47.6006 58.933 48.1944 58.4931 48.8351 58.6031L53.7108 59.3729V59.3572ZM42.3498 57.5505C42.9905 57.6448 43.4281 58.2575 43.3187 58.9016C43.2249 59.4828 42.7249 59.8913 42.1623 59.8913C42.0998 59.8913 42.0373 59.8913 41.9748 59.8913L39.7869 59.5457C39.5525 59.5143 39.3181 59.3886 39.1462 59.2158L37.2085 57.2991C36.7396 56.8435 36.7396 56.1052 37.2085 55.6339C37.6616 55.1626 38.3961 55.1626 38.8649 55.6339L40.5371 57.2834L42.3498 57.5662V57.5505ZM65.1031 59.7342C65.5094 60.2527 65.4156 60.991 64.8999 61.3838L63.0559 62.8448C62.8528 63.0019 62.5871 63.0962 62.3371 63.0962C62.2746 63.0962 62.212 63.0962 62.1495 63.0962L59.8367 62.7349C59.196 62.6406 58.7584 62.0279 58.8678 61.3838C58.9772 60.7397 59.571 60.2998 60.2118 60.4098L62.0245 60.6925L63.4622 59.5614C63.9623 59.1529 64.7124 59.2472 65.1031 59.7656V59.7342ZM74.8232 52.0519C75.2295 52.5704 75.1358 53.3088 74.6201 53.7015L70.4476 56.9849C70.2288 57.1577 69.9788 57.2363 69.7287 57.2363C69.3849 57.2363 69.0411 57.0792 68.8067 56.7807C68.4004 56.2623 68.4942 55.5239 69.0099 55.1311L73.1824 51.8477C73.6824 51.4392 74.4325 51.5335 74.8232 52.0519Z" fill="#144C84"/>
</svg>
