<svg width="36" height="29" viewBox="0 0 36 29" fill="none" xmlns="http://www.w3.org/2000/svg">
<mask id="path-1-outside-1_3605_5" maskUnits="userSpaceOnUse" x="0" y="0" width="36" height="29" fill="black">
<rect fill="white" width="36" height="29"/>
<path d="M34.9973 18.5522C34.8578 17.2338 32.7784 16.2131 31.8741 15.5427C31.132 14.9917 30.4707 13.8793 29.4644 13.8733C29.242 13.871 28.9352 13.9981 28.6966 14.0131C27.9083 14.0635 27.3769 13.5674 26.6591 13.5336C26.3611 13.52 26.0719 13.6373 25.7181 13.5696C25.2828 13.4877 25.0201 13.0037 24.5914 12.8691C24.2339 12.7556 23.8662 12.8368 23.508 12.7301C23.5227 12.6279 23.7363 12.5497 23.8207 12.5159C24.7999 12.122 25.6028 12.815 26.3567 12.4738C26.8088 12.2686 27.156 11.6162 26.9123 11.1351C26.6143 10.5488 25.9566 10.9457 25.4964 10.872C25.238 10.83 24.987 10.5902 24.6567 10.5909C23.9191 10.5932 23.1183 11.5094 22.4349 11.444C21.6488 11.3681 21.6503 10.6939 21.3332 10.1415C21.2091 9.92424 21.0007 9.68673 20.8054 9.4417C20.5926 9.17563 20.8157 9.32097 20.7497 9.0549L20.5 10C20.6527 10.2488 20.2806 9.71679 20.4656 9.96333C20.5662 10.0956 20.663 10.2339 20.7497 10.382C21.1467 11.0637 21.1482 11.7312 22.0283 11.9972C23.2085 12.3528 23.7348 11.3042 24.6743 11.2494C24.9701 11.2313 25.1749 11.4726 25.4267 11.5132C25.754 11.5673 26.0447 11.4463 26.3633 11.4463C26.2106 12.3392 25.1412 11.7191 24.5165 11.7266C23.9888 11.7334 22.6236 12.1476 22.8393 12.8759C23.0243 13.499 23.969 13.2998 24.4138 13.4779C24.7888 13.6275 25.1676 14.1258 25.6491 14.2108C26.0631 14.2844 26.4066 14.1288 26.7383 14.1597C27.1655 14.1995 27.7175 14.5964 28.2173 14.6482C28.9572 14.7264 29.2655 14.304 30.034 14.7151C30.5544 14.9925 30.8994 15.5727 31.3464 15.9388C31.7596 16.2778 32.2624 16.4687 32.6969 16.7678C33.094 17.0392 34.4255 18.2087 34.4203 18.6875C34.4181 18.8979 33.5418 19.9036 33.2907 19.9359C32.9758 19.9773 32.7828 19.7473 32.3321 19.9472C31.7897 20.1862 31.6135 21.3475 31.1387 21.2919C30.6571 21.2355 30.5544 19.7984 29.5848 19.6676C28.922 19.5789 28.4097 20.0705 27.8614 20.0637C27.3615 20.0569 26.7648 19.4797 26.1798 19.4391C25.5133 19.3933 24.7903 19.848 24.1165 19.7037C23.8699 19.6511 23.7356 19.4391 23.4045 19.4286C23.0287 19.4166 22.8592 19.6804 22.4988 19.6533C22.1244 19.6255 21.6349 19.2324 21.2275 19.1663C19.6685 18.9167 19.3162 19.645 18.4244 20.6139C17.2749 21.8631 16.9094 21.2678 15.4693 21.4399C15.0795 21.4865 14.7272 21.7007 14.3499 21.7909C13.9932 21.0754 14.8476 20.2621 14.1385 19.6488C13.3282 18.9445 12.8775 19.9292 12.3799 20.0592C11.8793 20.1907 11.2466 19.8765 10.8003 20.2967C10.7203 20.3741 10.5478 20.7169 10.5053 20.7236C10.2036 20.7725 9.66557 20.3756 9.13122 20.6567C8.29153 21.0972 8.91616 21.8984 8.92276 22.4787C8.93304 23.3468 7.59129 24.0443 7.06428 24.6043C6.47268 25.2327 6.15853 26.0444 6.16073 26.9246C5.62859 26.2639 5.28654 25.8054 4.3507 25.8542C4.66631 24.6268 3.54624 24.1608 3.44641 22.8928C3.38402 22.1036 3.59615 22.1164 3.77378 21.5189C4.07985 20.4861 3.00381 20.0893 2.5091 19.5015C2.42322 19.4015 1.87272 18.492 1.84336 18.3988C1.79565 18.2395 2.20889 18.2966 2.38138 18.2387C2.86802 18.0726 3.74221 16.4078 3.79286 15.9042C3.83103 15.5284 3.79506 15.2292 3.55064 14.9376C3.14034 14.4468 2.75132 14.6745 3.33852 13.9409C3.79359 13.3727 4.7566 12.8999 4.43511 12.0356C4.34483 11.7928 3.67469 11.0472 3.66881 10.9825C3.66588 10.9337 3.91544 10.5797 3.96535 10.4451C4.38226 9.31843 3.5756 8.52095 3.51394 7.4138C3.48898 6.9523 3.46623 5.9068 3.93158 5.7031C4.23839 5.56781 5.65721 5.34608 5.98751 5.37915C6.36258 5.41748 6.7905 5.96842 7.23751 6.09845C7.76305 6.25178 8.52567 6.12552 9.0358 5.93536C9.70154 5.68882 9.73163 5.22506 10.5295 5.50918C11.0235 5.68431 11.425 6.14806 11.8808 6.40812C12.2375 6.61031 12.8783 6.89142 13.4192 7.02221C13.6358 7.07557 13.8361 7.10413 13.9954 7.09436C14.1136 7.08759 14.2831 7.03649 14.46 6.9741C14.6362 6.69976 14.8072 6.4194 14.9768 6.13754C14.6964 6.20293 14.452 6.38558 14.1195 6.43218C14.0086 6.44872 13.9007 6.45322 13.7943 6.45022C12.2551 6.40061 11.1306 4.47569 9.63988 4.84173C9.35949 4.91013 9.27068 5.14539 9.01818 5.27542C8.61155 5.48438 7.79314 5.60539 7.35715 5.47686C7.03125 5.38066 6.79711 5.01461 6.48663 4.87105C5.96476 4.62827 4.78742 4.84625 4.20903 4.98906C3.45228 5.17621 3.17116 5.24836 2.98693 6.09169C2.84674 6.73057 2.88857 7.81743 3.0596 8.45105C3.22915 9.08092 3.53523 9.18088 3.44421 9.98362C3.39577 10.4068 3.00675 10.7104 3.02803 11.0494C3.0596 11.5395 3.94627 11.9709 3.86186 12.4768C3.82442 12.703 3.55651 12.7902 3.40678 12.942C3.11098 13.2434 2.46946 13.9402 2.41294 14.3543C2.30945 15.1022 3.33558 15.0443 3.13446 16.0154C3.08896 16.2334 2.40047 17.5292 2.25954 17.6164C2.01292 17.769 1.00147 17.4789 1 17.9719C1 18.1997 1.83602 19.6187 2.02172 19.857C2.30211 20.217 3.12492 20.7364 3.20566 21.1476C3.24677 21.3573 2.8827 21.8563 2.83353 22.1269C2.73957 22.6425 2.87463 23.437 3.0618 23.9278C3.28787 24.5224 3.86773 24.9305 3.78699 25.5994C3.74588 25.9362 3.34292 26.4105 3.90076 26.4909C4.26115 26.542 4.69714 26.4232 5.04065 26.6096C5.31077 26.7577 6.4169 28.8081 6.68774 27.6439C6.84629 26.9659 6.7127 26.3323 7.07896 25.619C7.53771 24.7238 9.20535 23.9271 9.47326 23.0056C9.61492 22.5178 9.25086 21.4144 9.32646 21.2904C9.50923 20.989 10.1361 21.3287 10.393 21.3445C11.0403 21.3843 11.0528 20.7695 11.3853 20.6763C11.643 20.6041 12.1039 20.783 12.5861 20.6274C12.8974 20.5275 13.3062 20.0953 13.4449 20.075C14.151 19.9675 13.6211 21.0649 13.613 21.4009C13.6035 21.7827 13.9117 22.4321 14.3455 22.4351C14.6516 22.4358 15.1316 22.1262 15.4671 22.0818C16.3244 21.9653 17.0855 22.2479 17.9509 21.8428C19.2707 21.2242 19.2149 19.4977 21.157 19.8097C21.731 19.9021 22.2382 20.4388 22.901 20.2764C23.0595 20.2381 23.1337 20.0795 23.3311 20.0735C23.58 20.066 23.8669 20.302 24.1158 20.3463C24.8373 20.4718 25.4083 20.0487 26.0469 20.0757C26.7097 20.1035 27.2375 20.6913 27.9318 20.6808C28.4258 20.6725 29.0409 20.2396 29.4578 20.293C30.194 20.3877 30.2681 22.3441 31.5394 21.8466C32.1347 21.6128 32.2734 20.6868 32.5633 20.5417C32.8305 20.4072 33.257 20.6207 33.6225 20.4846C34.1055 20.3042 35.0575 19.1144 34.9973 18.5522Z"/>
<path d="M22.5797 7.06036C22.452 6.7116 22.157 6.35909 21.787 6.35909H19.5234V1.97334C19.5234 1.67945 19.1967 1.31041 19.1938 1.3074C18.9296 1.03982 18.6668 0.993218 18.495 1.00073C18.1068 1.01802 17.8234 1.30665 17.6429 1.52312C16.8531 2.47017 16.1529 3.66375 15.4754 4.8175C15.1554 5.36469 14.8287 5.92089 14.4918 6.45229C14.3678 6.64772 14.243 6.83863 14.1168 7.02428C13.9421 7.28284 13.763 7.52937 13.5817 7.76162C13.3005 8.05551 13.305 8.53956 13.4327 8.87404C13.5648 9.22204 13.8239 9.42949 14.1241 9.42949H16.456V13.8866C16.456 14.3068 16.779 14.6796 17.2399 14.7924C17.3273 14.8141 17.4139 14.8239 17.4983 14.8239C17.8425 14.8239 18.1486 14.6518 18.3101 14.3511L22.452 7.98486C22.6627 7.75862 22.7119 7.41889 22.5805 7.06111L22.5797 7.06036ZM21.0229 8.63502L17.601 13.8927L17.5768 13.9362C17.5709 13.946 17.5636 13.9671 17.4975 13.9656C17.4029 13.9633 17.314 13.9084 17.2935 13.8761V8.57038H14.2158C14.1887 8.50574 14.1755 8.40051 14.1916 8.3494L14.2188 8.31783C14.5454 7.90218 14.8566 7.44745 15.1568 6.97467C15.333 6.70033 15.504 6.41997 15.6736 6.13811C15.8497 5.84573 16.0222 5.55034 16.194 5.25871C16.8531 4.13427 17.535 2.97226 18.2793 2.07857C18.4517 1.87338 18.5259 1.85684 18.5259 1.85684C18.5259 1.85684 18.5516 1.86435 18.6 1.91095C18.6213 1.93877 18.6617 2.00265 18.6859 2.0485V7.21669H21.7136C21.7562 7.2663 21.8032 7.36026 21.8134 7.42039L21.0237 8.63427L21.0229 8.63502Z"/>
</mask>
<path d="M34.9973 18.5522C34.8578 17.2338 32.7784 16.2131 31.8741 15.5427C31.132 14.9917 30.4707 13.8793 29.4644 13.8733C29.242 13.871 28.9352 13.9981 28.6966 14.0131C27.9083 14.0635 27.3769 13.5674 26.6591 13.5336C26.3611 13.52 26.0719 13.6373 25.7181 13.5696C25.2828 13.4877 25.0201 13.0037 24.5914 12.8691C24.2339 12.7556 23.8662 12.8368 23.508 12.7301C23.5227 12.6279 23.7363 12.5497 23.8207 12.5159C24.7999 12.122 25.6028 12.815 26.3567 12.4738C26.8088 12.2686 27.156 11.6162 26.9123 11.1351C26.6143 10.5488 25.9566 10.9457 25.4964 10.872C25.238 10.83 24.987 10.5902 24.6567 10.5909C23.9191 10.5932 23.1183 11.5094 22.4349 11.444C21.6488 11.3681 21.6503 10.6939 21.3332 10.1415C21.2091 9.92424 21.0007 9.68673 20.8054 9.4417C20.5926 9.17563 20.8157 9.32097 20.7497 9.0549L20.5 10C20.6527 10.2488 20.2806 9.71679 20.4656 9.96333C20.5662 10.0956 20.663 10.2339 20.7497 10.382C21.1467 11.0637 21.1482 11.7312 22.0283 11.9972C23.2085 12.3528 23.7348 11.3042 24.6743 11.2494C24.9701 11.2313 25.1749 11.4726 25.4267 11.5132C25.754 11.5673 26.0447 11.4463 26.3633 11.4463C26.2106 12.3392 25.1412 11.7191 24.5165 11.7266C23.9888 11.7334 22.6236 12.1476 22.8393 12.8759C23.0243 13.499 23.969 13.2998 24.4138 13.4779C24.7888 13.6275 25.1676 14.1258 25.6491 14.2108C26.0631 14.2844 26.4066 14.1288 26.7383 14.1597C27.1655 14.1995 27.7175 14.5964 28.2173 14.6482C28.9572 14.7264 29.2655 14.304 30.034 14.7151C30.5544 14.9925 30.8994 15.5727 31.3464 15.9388C31.7596 16.2778 32.2624 16.4687 32.6969 16.7678C33.094 17.0392 34.4255 18.2087 34.4203 18.6875C34.4181 18.8979 33.5418 19.9036 33.2907 19.9359C32.9758 19.9773 32.7828 19.7473 32.3321 19.9472C31.7897 20.1862 31.6135 21.3475 31.1387 21.2919C30.6571 21.2355 30.5544 19.7984 29.5848 19.6676C28.922 19.5789 28.4097 20.0705 27.8614 20.0637C27.3615 20.0569 26.7648 19.4797 26.1798 19.4391C25.5133 19.3933 24.7903 19.848 24.1165 19.7037C23.8699 19.6511 23.7356 19.4391 23.4045 19.4286C23.0287 19.4166 22.8592 19.6804 22.4988 19.6533C22.1244 19.6255 21.6349 19.2324 21.2275 19.1663C19.6685 18.9167 19.3162 19.645 18.4244 20.6139C17.2749 21.8631 16.9094 21.2678 15.4693 21.4399C15.0795 21.4865 14.7272 21.7007 14.3499 21.7909C13.9932 21.0754 14.8476 20.2621 14.1385 19.6488C13.3282 18.9445 12.8775 19.9292 12.3799 20.0592C11.8793 20.1907 11.2466 19.8765 10.8003 20.2967C10.7203 20.3741 10.5478 20.7169 10.5053 20.7236C10.2036 20.7725 9.66557 20.3756 9.13122 20.6567C8.29153 21.0972 8.91616 21.8984 8.92276 22.4787C8.93304 23.3468 7.59129 24.0443 7.06428 24.6043C6.47268 25.2327 6.15853 26.0444 6.16073 26.9246C5.62859 26.2639 5.28654 25.8054 4.3507 25.8542C4.66631 24.6268 3.54624 24.1608 3.44641 22.8928C3.38402 22.1036 3.59615 22.1164 3.77378 21.5189C4.07985 20.4861 3.00381 20.0893 2.5091 19.5015C2.42322 19.4015 1.87272 18.492 1.84336 18.3988C1.79565 18.2395 2.20889 18.2966 2.38138 18.2387C2.86802 18.0726 3.74221 16.4078 3.79286 15.9042C3.83103 15.5284 3.79506 15.2292 3.55064 14.9376C3.14034 14.4468 2.75132 14.6745 3.33852 13.9409C3.79359 13.3727 4.7566 12.8999 4.43511 12.0356C4.34483 11.7928 3.67469 11.0472 3.66881 10.9825C3.66588 10.9337 3.91544 10.5797 3.96535 10.4451C4.38226 9.31843 3.5756 8.52095 3.51394 7.4138C3.48898 6.9523 3.46623 5.9068 3.93158 5.7031C4.23839 5.56781 5.65721 5.34608 5.98751 5.37915C6.36258 5.41748 6.7905 5.96842 7.23751 6.09845C7.76305 6.25178 8.52567 6.12552 9.0358 5.93536C9.70154 5.68882 9.73163 5.22506 10.5295 5.50918C11.0235 5.68431 11.425 6.14806 11.8808 6.40812C12.2375 6.61031 12.8783 6.89142 13.4192 7.02221C13.6358 7.07557 13.8361 7.10413 13.9954 7.09436C14.1136 7.08759 14.2831 7.03649 14.46 6.9741C14.6362 6.69976 14.8072 6.4194 14.9768 6.13754C14.6964 6.20293 14.452 6.38558 14.1195 6.43218C14.0086 6.44872 13.9007 6.45322 13.7943 6.45022C12.2551 6.40061 11.1306 4.47569 9.63988 4.84173C9.35949 4.91013 9.27068 5.14539 9.01818 5.27542C8.61155 5.48438 7.79314 5.60539 7.35715 5.47686C7.03125 5.38066 6.79711 5.01461 6.48663 4.87105C5.96476 4.62827 4.78742 4.84625 4.20903 4.98906C3.45228 5.17621 3.17116 5.24836 2.98693 6.09169C2.84674 6.73057 2.88857 7.81743 3.0596 8.45105C3.22915 9.08092 3.53523 9.18088 3.44421 9.98362C3.39577 10.4068 3.00675 10.7104 3.02803 11.0494C3.0596 11.5395 3.94627 11.9709 3.86186 12.4768C3.82442 12.703 3.55651 12.7902 3.40678 12.942C3.11098 13.2434 2.46946 13.9402 2.41294 14.3543C2.30945 15.1022 3.33558 15.0443 3.13446 16.0154C3.08896 16.2334 2.40047 17.5292 2.25954 17.6164C2.01292 17.769 1.00147 17.4789 1 17.9719C1 18.1997 1.83602 19.6187 2.02172 19.857C2.30211 20.217 3.12492 20.7364 3.20566 21.1476C3.24677 21.3573 2.8827 21.8563 2.83353 22.1269C2.73957 22.6425 2.87463 23.437 3.0618 23.9278C3.28787 24.5224 3.86773 24.9305 3.78699 25.5994C3.74588 25.9362 3.34292 26.4105 3.90076 26.4909C4.26115 26.542 4.69714 26.4232 5.04065 26.6096C5.31077 26.7577 6.4169 28.8081 6.68774 27.6439C6.84629 26.9659 6.7127 26.3323 7.07896 25.619C7.53771 24.7238 9.20535 23.9271 9.47326 23.0056C9.61492 22.5178 9.25086 21.4144 9.32646 21.2904C9.50923 20.989 10.1361 21.3287 10.393 21.3445C11.0403 21.3843 11.0528 20.7695 11.3853 20.6763C11.643 20.6041 12.1039 20.783 12.5861 20.6274C12.8974 20.5275 13.3062 20.0953 13.4449 20.075C14.151 19.9675 13.6211 21.0649 13.613 21.4009C13.6035 21.7827 13.9117 22.4321 14.3455 22.4351C14.6516 22.4358 15.1316 22.1262 15.4671 22.0818C16.3244 21.9653 17.0855 22.2479 17.9509 21.8428C19.2707 21.2242 19.2149 19.4977 21.157 19.8097C21.731 19.9021 22.2382 20.4388 22.901 20.2764C23.0595 20.2381 23.1337 20.0795 23.3311 20.0735C23.58 20.066 23.8669 20.302 24.1158 20.3463C24.8373 20.4718 25.4083 20.0487 26.0469 20.0757C26.7097 20.1035 27.2375 20.6913 27.9318 20.6808C28.4258 20.6725 29.0409 20.2396 29.4578 20.293C30.194 20.3877 30.2681 22.3441 31.5394 21.8466C32.1347 21.6128 32.2734 20.6868 32.5633 20.5417C32.8305 20.4072 33.257 20.6207 33.6225 20.4846C34.1055 20.3042 35.0575 19.1144 34.9973 18.5522Z" fill="white"/>
<path d="M22.5797 7.06036C22.452 6.7116 22.157 6.35909 21.787 6.35909H19.5234V1.97334C19.5234 1.67945 19.1967 1.31041 19.1938 1.3074C18.9296 1.03982 18.6668 0.993218 18.495 1.00073C18.1068 1.01802 17.8234 1.30665 17.6429 1.52312C16.8531 2.47017 16.1529 3.66375 15.4754 4.8175C15.1554 5.36469 14.8287 5.92089 14.4918 6.45229C14.3678 6.64772 14.243 6.83863 14.1168 7.02428C13.9421 7.28284 13.763 7.52937 13.5817 7.76162C13.3005 8.05551 13.305 8.53956 13.4327 8.87404C13.5648 9.22204 13.8239 9.42949 14.1241 9.42949H16.456V13.8866C16.456 14.3068 16.779 14.6796 17.2399 14.7924C17.3273 14.8141 17.4139 14.8239 17.4983 14.8239C17.8425 14.8239 18.1486 14.6518 18.3101 14.3511L22.452 7.98486C22.6627 7.75862 22.7119 7.41889 22.5805 7.06111L22.5797 7.06036ZM21.0229 8.63502L17.601 13.8927L17.5768 13.9362C17.5709 13.946 17.5636 13.9671 17.4975 13.9656C17.4029 13.9633 17.314 13.9084 17.2935 13.8761V8.57038H14.2158C14.1887 8.50574 14.1755 8.40051 14.1916 8.3494L14.2188 8.31783C14.5454 7.90218 14.8566 7.44745 15.1568 6.97467C15.333 6.70033 15.504 6.41997 15.6736 6.13811C15.8497 5.84573 16.0222 5.55034 16.194 5.25871C16.8531 4.13427 17.535 2.97226 18.2793 2.07857C18.4517 1.87338 18.5259 1.85684 18.5259 1.85684C18.5259 1.85684 18.5516 1.86435 18.6 1.91095C18.6213 1.93877 18.6617 2.00265 18.6859 2.0485V7.21669H21.7136C21.7562 7.2663 21.8032 7.36026 21.8134 7.42039L21.0237 8.63427L21.0229 8.63502Z" fill="white"/>
<path d="M34.9973 18.5522C34.8578 17.2338 32.7784 16.2131 31.8741 15.5427C31.132 14.9917 30.4707 13.8793 29.4644 13.8733C29.242 13.871 28.9352 13.9981 28.6966 14.0131C27.9083 14.0635 27.3769 13.5674 26.6591 13.5336C26.3611 13.52 26.0719 13.6373 25.7181 13.5696C25.2828 13.4877 25.0201 13.0037 24.5914 12.8691C24.2339 12.7556 23.8662 12.8368 23.508 12.7301C23.5227 12.6279 23.7363 12.5497 23.8207 12.5159C24.7999 12.122 25.6028 12.815 26.3567 12.4738C26.8088 12.2686 27.156 11.6162 26.9123 11.1351C26.6143 10.5488 25.9566 10.9457 25.4964 10.872C25.238 10.83 24.987 10.5902 24.6567 10.5909C23.9191 10.5932 23.1183 11.5094 22.4349 11.444C21.6488 11.3681 21.6503 10.6939 21.3332 10.1415C21.2091 9.92424 21.0007 9.68673 20.8054 9.4417C20.5926 9.17563 20.8157 9.32097 20.7497 9.0549L20.5 10C20.6527 10.2488 20.2806 9.71679 20.4656 9.96333C20.5662 10.0956 20.663 10.2339 20.7497 10.382C21.1467 11.0637 21.1482 11.7312 22.0283 11.9972C23.2085 12.3528 23.7348 11.3042 24.6743 11.2494C24.9701 11.2313 25.1749 11.4726 25.4267 11.5132C25.754 11.5673 26.0447 11.4463 26.3633 11.4463C26.2106 12.3392 25.1412 11.7191 24.5165 11.7266C23.9888 11.7334 22.6236 12.1476 22.8393 12.8759C23.0243 13.499 23.969 13.2998 24.4138 13.4779C24.7888 13.6275 25.1676 14.1258 25.6491 14.2108C26.0631 14.2844 26.4066 14.1288 26.7383 14.1597C27.1655 14.1995 27.7175 14.5964 28.2173 14.6482C28.9572 14.7264 29.2655 14.304 30.034 14.7151C30.5544 14.9925 30.8994 15.5727 31.3464 15.9388C31.7596 16.2778 32.2624 16.4687 32.6969 16.7678C33.094 17.0392 34.4255 18.2087 34.4203 18.6875C34.4181 18.8979 33.5418 19.9036 33.2907 19.9359C32.9758 19.9773 32.7828 19.7473 32.3321 19.9472C31.7897 20.1862 31.6135 21.3475 31.1387 21.2919C30.6571 21.2355 30.5544 19.7984 29.5848 19.6676C28.922 19.5789 28.4097 20.0705 27.8614 20.0637C27.3615 20.0569 26.7648 19.4797 26.1798 19.4391C25.5133 19.3933 24.7903 19.848 24.1165 19.7037C23.8699 19.6511 23.7356 19.4391 23.4045 19.4286C23.0287 19.4166 22.8592 19.6804 22.4988 19.6533C22.1244 19.6255 21.6349 19.2324 21.2275 19.1663C19.6685 18.9167 19.3162 19.645 18.4244 20.6139C17.2749 21.8631 16.9094 21.2678 15.4693 21.4399C15.0795 21.4865 14.7272 21.7007 14.3499 21.7909C13.9932 21.0754 14.8476 20.2621 14.1385 19.6488C13.3282 18.9445 12.8775 19.9292 12.3799 20.0592C11.8793 20.1907 11.2466 19.8765 10.8003 20.2967C10.7203 20.3741 10.5478 20.7169 10.5053 20.7236C10.2036 20.7725 9.66557 20.3756 9.13122 20.6567C8.29153 21.0972 8.91616 21.8984 8.92276 22.4787C8.93304 23.3468 7.59129 24.0443 7.06428 24.6043C6.47268 25.2327 6.15853 26.0444 6.16073 26.9246C5.62859 26.2639 5.28654 25.8054 4.3507 25.8542C4.66631 24.6268 3.54624 24.1608 3.44641 22.8928C3.38402 22.1036 3.59615 22.1164 3.77378 21.5189C4.07985 20.4861 3.00381 20.0893 2.5091 19.5015C2.42322 19.4015 1.87272 18.492 1.84336 18.3988C1.79565 18.2395 2.20889 18.2966 2.38138 18.2387C2.86802 18.0726 3.74221 16.4078 3.79286 15.9042C3.83103 15.5284 3.79506 15.2292 3.55064 14.9376C3.14034 14.4468 2.75132 14.6745 3.33852 13.9409C3.79359 13.3727 4.7566 12.8999 4.43511 12.0356C4.34483 11.7928 3.67469 11.0472 3.66881 10.9825C3.66588 10.9337 3.91544 10.5797 3.96535 10.4451C4.38226 9.31843 3.5756 8.52095 3.51394 7.4138C3.48898 6.9523 3.46623 5.9068 3.93158 5.7031C4.23839 5.56781 5.65721 5.34608 5.98751 5.37915C6.36258 5.41748 6.7905 5.96842 7.23751 6.09845C7.76305 6.25178 8.52567 6.12552 9.0358 5.93536C9.70154 5.68882 9.73163 5.22506 10.5295 5.50918C11.0235 5.68431 11.425 6.14806 11.8808 6.40812C12.2375 6.61031 12.8783 6.89142 13.4192 7.02221C13.6358 7.07557 13.8361 7.10413 13.9954 7.09436C14.1136 7.08759 14.2831 7.03649 14.46 6.9741C14.6362 6.69976 14.8072 6.4194 14.9768 6.13754C14.6964 6.20293 14.452 6.38558 14.1195 6.43218C14.0086 6.44872 13.9007 6.45322 13.7943 6.45022C12.2551 6.40061 11.1306 4.47569 9.63988 4.84173C9.35949 4.91013 9.27068 5.14539 9.01818 5.27542C8.61155 5.48438 7.79314 5.60539 7.35715 5.47686C7.03125 5.38066 6.79711 5.01461 6.48663 4.87105C5.96476 4.62827 4.78742 4.84625 4.20903 4.98906C3.45228 5.17621 3.17116 5.24836 2.98693 6.09169C2.84674 6.73057 2.88857 7.81743 3.0596 8.45105C3.22915 9.08092 3.53523 9.18088 3.44421 9.98362C3.39577 10.4068 3.00675 10.7104 3.02803 11.0494C3.0596 11.5395 3.94627 11.9709 3.86186 12.4768C3.82442 12.703 3.55651 12.7902 3.40678 12.942C3.11098 13.2434 2.46946 13.9402 2.41294 14.3543C2.30945 15.1022 3.33558 15.0443 3.13446 16.0154C3.08896 16.2334 2.40047 17.5292 2.25954 17.6164C2.01292 17.769 1.00147 17.4789 1 17.9719C1 18.1997 1.83602 19.6187 2.02172 19.857C2.30211 20.217 3.12492 20.7364 3.20566 21.1476C3.24677 21.3573 2.8827 21.8563 2.83353 22.1269C2.73957 22.6425 2.87463 23.437 3.0618 23.9278C3.28787 24.5224 3.86773 24.9305 3.78699 25.5994C3.74588 25.9362 3.34292 26.4105 3.90076 26.4909C4.26115 26.542 4.69714 26.4232 5.04065 26.6096C5.31077 26.7577 6.4169 28.8081 6.68774 27.6439C6.84629 26.9659 6.7127 26.3323 7.07896 25.619C7.53771 24.7238 9.20535 23.9271 9.47326 23.0056C9.61492 22.5178 9.25086 21.4144 9.32646 21.2904C9.50923 20.989 10.1361 21.3287 10.393 21.3445C11.0403 21.3843 11.0528 20.7695 11.3853 20.6763C11.643 20.6041 12.1039 20.783 12.5861 20.6274C12.8974 20.5275 13.3062 20.0953 13.4449 20.075C14.151 19.9675 13.6211 21.0649 13.613 21.4009C13.6035 21.7827 13.9117 22.4321 14.3455 22.4351C14.6516 22.4358 15.1316 22.1262 15.4671 22.0818C16.3244 21.9653 17.0855 22.2479 17.9509 21.8428C19.2707 21.2242 19.2149 19.4977 21.157 19.8097C21.731 19.9021 22.2382 20.4388 22.901 20.2764C23.0595 20.2381 23.1337 20.0795 23.3311 20.0735C23.58 20.066 23.8669 20.302 24.1158 20.3463C24.8373 20.4718 25.4083 20.0487 26.0469 20.0757C26.7097 20.1035 27.2375 20.6913 27.9318 20.6808C28.4258 20.6725 29.0409 20.2396 29.4578 20.293C30.194 20.3877 30.2681 22.3441 31.5394 21.8466C32.1347 21.6128 32.2734 20.6868 32.5633 20.5417C32.8305 20.4072 33.257 20.6207 33.6225 20.4846C34.1055 20.3042 35.0575 19.1144 34.9973 18.5522Z" stroke="white" stroke-width="0.4" mask="url(#path-1-outside-1_3605_5)"/>
<path d="M22.5797 7.06036C22.452 6.7116 22.157 6.35909 21.787 6.35909H19.5234V1.97334C19.5234 1.67945 19.1967 1.31041 19.1938 1.3074C18.9296 1.03982 18.6668 0.993218 18.495 1.00073C18.1068 1.01802 17.8234 1.30665 17.6429 1.52312C16.8531 2.47017 16.1529 3.66375 15.4754 4.8175C15.1554 5.36469 14.8287 5.92089 14.4918 6.45229C14.3678 6.64772 14.243 6.83863 14.1168 7.02428C13.9421 7.28284 13.763 7.52937 13.5817 7.76162C13.3005 8.05551 13.305 8.53956 13.4327 8.87404C13.5648 9.22204 13.8239 9.42949 14.1241 9.42949H16.456V13.8866C16.456 14.3068 16.779 14.6796 17.2399 14.7924C17.3273 14.8141 17.4139 14.8239 17.4983 14.8239C17.8425 14.8239 18.1486 14.6518 18.3101 14.3511L22.452 7.98486C22.6627 7.75862 22.7119 7.41889 22.5805 7.06111L22.5797 7.06036ZM21.0229 8.63502L17.601 13.8927L17.5768 13.9362C17.5709 13.946 17.5636 13.9671 17.4975 13.9656C17.4029 13.9633 17.314 13.9084 17.2935 13.8761V8.57038H14.2158C14.1887 8.50574 14.1755 8.40051 14.1916 8.3494L14.2188 8.31783C14.5454 7.90218 14.8566 7.44745 15.1568 6.97467C15.333 6.70033 15.504 6.41997 15.6736 6.13811C15.8497 5.84573 16.0222 5.55034 16.194 5.25871C16.8531 4.13427 17.535 2.97226 18.2793 2.07857C18.4517 1.87338 18.5259 1.85684 18.5259 1.85684C18.5259 1.85684 18.5516 1.86435 18.6 1.91095C18.6213 1.93877 18.6617 2.00265 18.6859 2.0485V7.21669H21.7136C21.7562 7.2663 21.8032 7.36026 21.8134 7.42039L21.0237 8.63427L21.0229 8.63502Z" stroke="white" stroke-width="0.4" mask="url(#path-1-outside-1_3605_5)"/>
</svg>
