<svg width="35" height="27" viewBox="0 0 35 27" fill="none" xmlns="http://www.w3.org/2000/svg">
<path d="M34.3096 17.4292C34.1689 16.1201 32.0704 15.1066 31.1578 14.4408C30.4089 13.8937 29.7415 12.7891 28.7259 12.7831C28.5015 12.7809 28.1919 12.907 27.9511 12.922C27.1556 12.972 26.6193 12.4794 25.8948 12.4458C25.5941 12.4323 25.3022 12.5488 24.9452 12.4816C24.5059 12.4002 24.2407 11.9196 23.8081 11.786C23.4474 11.6733 23.0763 11.7539 22.7148 11.6479C22.7296 11.5464 22.9452 11.4688 23.0304 11.4352C24.0185 11.0441 24.8289 11.7323 25.5896 11.3934C26.0459 11.1896 26.3963 10.5418 26.1504 10.0641C25.8496 9.48196 25.1859 9.87604 24.7215 9.8029C24.4607 9.7611 24.2074 9.52301 23.8741 9.52376C23.1296 9.526 22.3215 10.4358 21.6319 10.3709C20.8385 10.2955 20.84 9.62601 20.52 9.07743C20.3948 8.86174 20.1844 8.62589 19.9874 8.38258C19.7726 8.11836 19.5696 7.84593 19.503 7.58172L19.1074 8.17956C19.2615 8.4266 19.4578 8.65574 19.6444 8.90055C19.7459 9.03191 19.8437 9.16924 19.9311 9.31628C20.3319 9.99323 20.3333 10.656 21.2215 10.9202C22.4126 11.2732 22.9437 10.2321 23.8919 10.1776C24.1904 10.1597 24.397 10.3992 24.6511 10.4395C24.9815 10.4933 25.2748 10.3731 25.5963 10.3731C25.4422 11.2598 24.363 10.644 23.7326 10.6515C23.2 10.6582 21.8222 11.0695 22.04 11.7927C22.2267 12.4114 23.18 12.2137 23.6289 12.3905C24.0074 12.5391 24.3896 13.0339 24.8756 13.1182C25.2933 13.1914 25.64 13.0369 25.9748 13.0675C26.4059 13.107 26.963 13.5011 27.4674 13.5526C28.2141 13.6302 28.5252 13.2108 29.3007 13.6191C29.8259 13.8945 30.1741 14.4707 30.6252 14.8341C31.0422 15.1707 31.5496 15.3603 31.9881 15.6574C32.3889 15.9268 33.7326 17.0882 33.7274 17.5636C33.7252 17.7726 32.8407 18.7712 32.5874 18.8033C32.2696 18.8444 32.0748 18.616 31.62 18.8145C31.0726 19.0518 30.8948 20.205 30.4156 20.1497C29.9296 20.0938 29.8259 18.6667 28.8474 18.5368C28.1785 18.4488 27.6615 18.9369 27.1081 18.9302C26.6037 18.9235 26.0015 18.3503 25.4111 18.31C24.7385 18.2644 24.0089 18.716 23.3289 18.5727C23.08 18.5204 22.9444 18.31 22.6104 18.2995C22.2311 18.2876 22.06 18.5495 21.6963 18.5227C21.3185 18.4951 20.8244 18.1047 20.4133 18.039C18.84 17.7912 18.4844 18.5145 17.5844 19.4765C16.4244 20.717 16.0556 20.1259 14.6022 20.2968C14.2089 20.3431 13.8533 20.5558 13.4726 20.6453C13.1126 19.9348 13.9748 19.1272 13.2593 18.5182C12.4415 17.8188 11.9867 18.7966 11.4844 18.9257C10.9793 19.0563 10.3407 18.7443 9.89037 19.1616C9.80963 19.2384 9.63556 19.5788 9.59259 19.5855C9.28815 19.634 8.74518 19.2399 8.20593 19.5191C7.35852 19.9564 7.98889 20.7521 7.99556 21.3282C8.00593 22.1903 6.65185 22.8829 6.12 23.439C5.52296 24.0629 5.20593 24.869 5.20815 25.743C4.67111 25.0869 4.32593 24.6317 3.38148 24.6802C3.7 23.4614 2.56963 22.9986 2.46889 21.7395C2.40593 20.9558 2.62 20.9685 2.79926 20.3751C3.10815 19.3496 2.02222 18.9556 1.52296 18.3719C1.4363 18.2726 0.880742 17.3695 0.851113 17.277C0.802965 17.1188 1.22 17.1755 1.39407 17.118C1.88519 16.9531 2.76741 15.2999 2.81852 14.7998C2.85704 14.4266 2.82074 14.1296 2.57407 13.84C2.16 13.3526 1.76741 13.5788 2.36 12.8503C2.81926 12.2861 3.79111 11.8166 3.46667 10.9583C3.37556 10.7172 2.69926 9.97681 2.69333 9.91262C2.69037 9.86411 2.94222 9.51257 2.99259 9.37897C3.41333 8.26017 2.59926 7.46827 2.53704 6.36888C2.51185 5.91061 2.48889 4.87243 2.95852 4.67016C3.26815 4.53582 4.7 4.31564 5.03333 4.34848C5.41185 4.38654 5.8437 4.93362 6.29482 5.06274C6.82519 5.215 7.59482 5.08962 8.10963 4.90079C8.78148 4.65598 8.81185 4.19547 9.61704 4.4776C10.1156 4.6515 10.5207 5.112 10.9807 5.37024C11.3407 5.57102 11.9874 5.85016 12.5333 5.98003C12.7519 6.03302 12.9541 6.06138 13.1148 6.05167C13.2341 6.04496 13.4052 5.99421 13.5837 5.93226C13.7615 5.65983 13.9341 5.38144 14.1052 5.10155C13.8222 5.16649 13.5756 5.34786 13.24 5.39413C13.1281 5.41055 13.0193 5.41503 12.9119 5.41204C11.3585 5.36278 10.2237 3.45135 8.71926 3.81482C8.4363 3.88274 8.34667 4.11636 8.09185 4.24548C7.68148 4.45297 6.85556 4.57314 6.41556 4.44551C6.08667 4.34997 5.85037 3.98649 5.53704 3.84393C5.01037 3.60286 3.82222 3.81931 3.23852 3.96112C2.47481 4.14696 2.19111 4.21861 2.00519 5.05603C1.8637 5.69044 1.90593 6.76968 2.07852 7.39886C2.24963 8.02432 2.55852 8.12358 2.46667 8.9207C2.41778 9.3409 2.02519 9.64243 2.04667 9.97904C2.07852 10.4657 2.97333 10.8941 2.88815 11.3964C2.85037 11.621 2.58 11.7076 2.42889 11.8584C2.13037 12.1577 1.48296 12.8496 1.42593 13.2608C1.32148 14.0034 2.35704 13.946 2.15408 14.9103C2.10815 15.1267 1.41333 16.4134 1.27111 16.5C1.02222 16.6515 0.00148148 16.3634 0 16.8531C0 17.0792 0.843705 18.4883 1.03111 18.7249C1.31408 19.0824 2.14445 19.5982 2.22593 20.0064C2.26741 20.2147 1.9 20.7103 1.85037 20.9789C1.75556 21.4909 1.89185 22.2799 2.08074 22.7672C2.30889 23.3576 2.89407 23.7629 2.81259 24.4271C2.77111 24.7615 2.36445 25.2325 2.92741 25.3123C3.29111 25.3631 3.73111 25.2452 4.07778 25.4303C4.35037 25.5773 5.46667 27.6134 5.74 26.4573C5.9 25.784 5.76519 25.1549 6.13482 24.4466C6.59778 23.5576 8.28074 22.7665 8.55111 21.8514C8.69407 21.3671 8.32667 20.2714 8.40296 20.1482C8.58741 19.8489 9.22 20.1863 9.47926 20.202C10.1326 20.2415 10.1452 19.631 10.4807 19.5385C10.7407 19.4668 11.2059 19.6444 11.6926 19.49C12.0067 19.3907 12.4193 18.9615 12.5593 18.9414C13.2719 18.8346 12.737 19.9243 12.7289 20.258C12.7193 20.6371 13.0304 21.282 13.4681 21.285C13.777 21.2857 14.2615 20.9782 14.6 20.9342C15.4652 20.8185 16.2333 21.0991 17.1067 20.6968C18.4385 20.0826 18.3822 18.3682 20.3422 18.6779C20.9215 18.7697 21.4333 19.3026 22.1022 19.1414C22.2622 19.1033 22.337 18.9459 22.5363 18.9399C22.7874 18.9324 23.077 19.1668 23.3281 19.2108C24.0563 19.3355 24.6326 18.9153 25.277 18.9421C25.9459 18.9697 26.4785 19.5534 27.1793 19.5429C27.6778 19.5347 28.2985 19.1048 28.7193 19.1578C29.4622 19.2519 29.537 21.1946 30.82 20.7006C31.4207 20.4684 31.5607 19.5489 31.8533 19.4049C32.123 19.2713 32.5533 19.4832 32.9222 19.3481C33.4096 19.169 34.3704 17.9875 34.3096 17.4292Z" fill="white"/>
<path d="M21.778 6.01791C21.6491 5.6716 21.3513 5.32156 20.978 5.32156H18.6936V0.966524C18.6936 0.674696 18.3639 0.308232 18.361 0.305247C18.0943 0.0395415 17.8291 -0.0067343 17.6558 0.000729335C17.2639 0.0178957 16.978 0.3045 16.7958 0.519453C15.9988 1.45987 15.2921 2.6451 14.6084 3.79077C14.2854 4.33412 13.9558 4.88643 13.6158 5.41411C13.4906 5.60816 13.3647 5.79774 13.2373 5.98209C13.061 6.23884 12.8802 6.48364 12.6973 6.71426C12.4136 7.00609 12.418 7.48675 12.5469 7.81889C12.6802 8.16445 12.9417 8.37045 13.2447 8.37045H15.598V12.7964C15.598 13.2136 15.9239 13.5838 16.3891 13.6958C16.4773 13.7174 16.5647 13.7271 16.6499 13.7271C16.9973 13.7271 17.3062 13.5562 17.4691 13.2576L21.6491 6.93594C21.8617 6.71129 21.9113 6.37393 21.7787 6.01866L21.778 6.01791ZM20.2069 7.58154L16.7536 12.8024L16.7291 12.8456C16.7232 12.8553 16.7158 12.8762 16.6491 12.8748C16.5536 12.8725 16.4639 12.818 16.4432 12.7859V7.51735H13.3373C13.3099 7.45317 13.2965 7.34868 13.3128 7.29793L13.3402 7.26658C13.6699 6.85384 13.9839 6.40229 14.2869 5.93282C14.4647 5.6604 14.6373 5.38201 14.8084 5.10212C14.9862 4.81179 15.1602 4.51847 15.3336 4.22888C15.9987 3.11232 16.6869 1.95844 17.438 1.07102C17.6121 0.867259 17.6869 0.850838 17.6869 0.850838C17.6869 0.850838 17.7128 0.8583 17.7617 0.904574C17.7832 0.93219 17.8239 0.995632 17.8484 1.04116V6.17315H20.9039C20.9469 6.22241 20.9943 6.31571 21.0047 6.37542L20.2076 7.5808L20.2069 7.58154Z" fill="white"/>
</svg>
