<svg width="27" height="28" viewBox="0 0 27 28" fill="none" xmlns="http://www.w3.org/2000/svg">
<path d="M6.0376 26.8751C6.0376 27.4067 6.46852 27.8376 7.0001 27.8376C7.53167 27.8376 7.9626 27.4067 7.9626 26.8751H6.0376ZM7.9626 22.7501C7.9626 22.2185 7.53167 21.7876 7.0001 21.7876C6.46852 21.7876 6.0376 22.2185 6.0376 22.7501H7.9626ZM0.537598 26.8751C0.537598 27.4067 0.968523 27.8376 1.5001 27.8376C2.03167 27.8376 2.4626 27.4067 2.4626 26.8751H0.537598ZM14.5626 16.8376C15.0942 16.8376 15.5251 16.4067 15.5251 15.8751C15.5251 15.3435 15.0942 14.9126 14.5626 14.9126V16.8376ZM24.5067 9.0001L25.4364 8.75099C25.3702 8.50441 25.2089 8.29419 24.988 8.16655C24.7669 8.03892 24.5041 8.00432 24.2576 8.07039L24.5067 9.0001ZM20.5009 9.07696C19.9875 9.21454 19.6828 9.74232 19.8205 10.2558C19.958 10.7692 20.4857 11.074 20.9992 10.9364L20.5009 9.07696ZM24.5836 13.0057C24.7211 13.5193 25.2488 13.824 25.7624 13.6864C26.2758 13.5487 26.5805 13.021 26.4429 12.5076L24.5836 13.0057ZM25.0233 10.1651C25.287 9.7036 25.1267 9.11565 24.6651 8.85191C24.2037 8.58817 23.6157 8.74853 23.352 9.21006L25.0233 10.1651ZM20.602 14.0226C20.3381 14.4841 20.4986 15.0721 20.9601 15.3358C21.4216 15.5995 22.0096 15.4392 22.2733 14.9776L20.602 14.0226ZM7.9626 26.8751V22.7501H6.0376V26.8751H7.9626ZM17.0376 6.9376C17.0376 9.44359 15.006 11.4751 12.5001 11.4751V13.4001C16.0692 13.4001 18.9626 10.5067 18.9626 6.9376H17.0376ZM12.5001 11.4751C9.99416 11.4751 7.9626 9.44359 7.9626 6.9376H6.0376C6.0376 10.5067 8.93095 13.4001 12.5001 13.4001V11.4751ZM7.9626 6.9376C7.9626 4.4316 9.99416 2.4001 12.5001 2.4001V0.475098C8.93095 0.475098 6.0376 3.36845 6.0376 6.9376H7.9626ZM12.5001 2.4001C15.006 2.4001 17.0376 4.4316 17.0376 6.9376H18.9626C18.9626 3.36845 16.0692 0.475098 12.5001 0.475098V2.4001ZM2.4626 26.8751V23.4376H0.537598V26.8751H2.4626ZM9.0626 16.8376H14.5626V14.9126H9.0626V16.8376ZM2.4626 23.4376C2.4626 19.7925 5.41751 16.8376 9.0626 16.8376V14.9126C4.35436 14.9126 0.537598 18.7293 0.537598 23.4376H2.4626ZM23.9126 20.6876C23.9126 23.5733 21.5733 25.9126 18.6876 25.9126V27.8376C22.6365 27.8376 25.8376 24.6365 25.8376 20.6876H23.9126ZM18.6876 25.9126C15.8019 25.9126 13.4626 23.5733 13.4626 20.6876H11.5376C11.5376 24.6365 14.7387 27.8376 18.6876 27.8376V25.9126ZM13.4626 20.6876C13.4626 17.8019 15.8019 15.4626 18.6876 15.4626V13.5376C14.7387 13.5376 11.5376 16.7387 11.5376 20.6876H13.4626ZM18.6876 15.4626C21.5733 15.4626 23.9126 17.8019 23.9126 20.6876H25.8376C25.8376 16.7387 22.6365 13.5376 18.6876 13.5376V15.4626ZM24.2576 8.07039L20.5009 9.07696L20.9992 10.9364L24.7557 9.9298L24.2576 8.07039ZM23.577 9.24921L24.5836 13.0057L26.4429 12.5076L25.4364 8.75099L23.577 9.24921ZM23.352 9.21006L20.602 14.0226L22.2733 14.9776L25.0233 10.1651L23.352 9.21006Z" fill="#3190F0"/>
</svg>
