<svg width="73" height="73" viewBox="0 0 73 73" fill="none" xmlns="http://www.w3.org/2000/svg">
<path d="M50.239 57.6616C49.8754 57.6616 49.5118 57.5161 49.2209 57.2253C48.6391 56.6435 48.6391 55.7709 49.2209 55.1891L55.3294 49.0806C55.9111 48.4989 56.7838 48.4989 57.3655 49.0806C57.9473 49.6624 57.9473 50.535 57.3655 51.1168L51.257 57.2253C51.0389 57.5161 50.6753 57.6616 50.239 57.6616ZM65.1465 50.0987C64.5648 50.6805 63.6922 50.6805 63.1104 50.0987C59.838 46.8263 51.7661 47.1899 47.8392 47.6989C47.3302 51.6258 46.9666 59.6977 50.239 62.9701C50.8207 63.5519 50.8207 64.4245 50.239 65.0063C49.9481 65.2972 49.5845 65.4426 49.2209 65.4426C48.8573 65.4426 48.4937 65.2972 48.2028 65.0063C44.0578 60.8613 44.4214 52.353 44.8577 48.3534C43.6942 48.4989 42.0943 48.5716 40.349 48.5716C36.204 48.5716 31.1136 47.9171 28.2048 45.0083C24.0598 40.8633 24.4234 32.355 24.8597 28.3554C23.6962 28.5009 22.0963 28.5736 20.3511 28.5736C16.206 28.5736 11.1156 27.9191 8.20683 25.0103C7.62507 24.4286 7.62507 23.5559 8.20683 22.9742C8.78859 22.3924 9.66123 22.3924 10.243 22.9742C13.5154 26.2466 21.5873 25.883 25.5142 25.3739C26.0232 21.447 26.3868 13.3751 23.1144 10.1027C22.5327 9.52097 22.5327 8.64833 23.1144 8.06657C23.6962 7.48481 24.5688 7.48481 25.1506 8.06657C29.2956 12.2116 28.932 20.7198 28.4957 24.7194C32.4953 24.2831 41.0035 23.9195 45.1486 28.0646C49.2936 32.2096 48.93 40.7178 48.4937 44.7174C52.4933 44.2811 61.0015 43.9175 65.1465 48.0625C65.7283 48.5716 65.7283 49.5169 65.1465 50.0987ZM36.0586 27.4828C33.0043 27.1919 29.8774 27.4101 27.8412 27.701C27.5503 29.7371 27.3322 32.9368 27.6231 35.9183L36.0586 27.4828ZM33.877 44.7901L44.9304 33.7367L45.0031 33.664C44.5668 32.2096 43.985 30.9734 43.0397 30.1007C42.167 29.2281 40.9308 28.5736 39.4764 28.1373L39.4037 28.21L28.3503 39.2634L28.2775 39.3362C28.7139 40.7906 29.2956 42.0268 30.241 42.8994C31.1863 43.7721 32.3499 44.4265 33.8043 44.8629C33.8043 44.8629 33.8043 44.7901 33.877 44.7901ZM45.4394 45.2992C45.7303 43.263 45.9485 40.0634 45.6576 37.0818L37.2221 45.5173C40.2763 45.8082 43.4033 45.5901 45.4394 45.2992ZM18.4603 24.4286L24.5688 18.3201C25.1506 17.7383 25.1506 16.8657 24.5688 16.2839C23.9871 15.7022 23.1144 15.7022 22.5327 16.2839L16.4242 22.3924C15.8424 22.9742 15.8424 23.8468 16.4242 24.4286C16.7151 24.7194 17.0787 24.8649 17.4423 24.8649C17.8059 24.8649 18.1695 24.7194 18.4603 24.4286Z" fill="white"/>
</svg>
