<svg width="43" height="43" viewBox="0 0 43 43" fill="none" xmlns="http://www.w3.org/2000/svg">
<path d="M23.292 5.375H28.667V12.5417C28.667 15.3927 27.5344 18.127 25.5184 20.1431C23.5024 22.1591 20.7681 23.2917 17.917 23.2917C15.0659 23.2917 12.3316 22.1591 10.3156 20.1431C8.29958 18.127 7.16699 15.3927 7.16699 12.5417V5.375H12.542" stroke="#FF9100" stroke-width="2" stroke-linecap="round" stroke-linejoin="round"/>
<path d="M17.917 23.2917V31.3542C17.9146 32.4137 18.1216 33.4632 18.5259 34.4424C18.9303 35.4217 19.5241 36.3114 20.2732 37.0606C21.0223 37.8097 21.9121 38.4035 22.8913 38.8078C23.8706 39.2122 24.9201 39.4191 25.9795 39.4167C27.039 39.4191 28.0884 39.2122 29.0677 38.8078C30.0469 38.4035 30.9367 37.8097 31.6858 37.0606C32.435 36.3114 33.0288 35.4217 33.4331 34.4424C33.8374 33.4632 34.0444 32.4137 34.042 31.3542V26.8751" stroke="#FF9100" stroke-width="2" stroke-linecap="round" stroke-linejoin="round"/>
<path d="M34.0423 26.8749C36.0213 26.8749 37.6257 25.2706 37.6257 23.2916C37.6257 21.3126 36.0213 19.7083 34.0423 19.7083C32.0633 19.7083 30.459 21.3126 30.459 23.2916C30.459 25.2706 32.0633 26.8749 34.0423 26.8749Z" stroke="#FF9100" stroke-width="2" stroke-linecap="round" stroke-linejoin="round"/>
</svg>
