<svg width="58" height="58" viewBox="0 0 58 58" fill="none" xmlns="http://www.w3.org/2000/svg">
<path d="M37.0036 18.966H21.0536C20.4156 18.966 19.8936 18.444 19.8936 17.806V12.296C19.8936 11.658 20.4156 11.136 21.0536 11.136H37.0036C37.6416 11.136 38.1636 11.658 38.1636 12.296V17.806C38.1636 18.444 37.6416 18.966 37.0036 18.966ZM22.2136 16.646H35.8436V13.456H22.2136V16.646ZM47.7336 46.864H10.2656C8.64162 46.864 7.30762 45.53 7.30762 43.906V19.546C7.30762 17.922 8.64162 16.588 10.2656 16.588H47.7336C49.3576 16.588 50.6916 17.922 50.6916 19.546V43.906C50.6916 45.588 49.3576 46.864 47.7336 46.864ZM10.2656 18.966C9.91762 18.966 9.62762 19.256 9.62762 19.604V43.964C9.62762 44.312 9.91762 44.602 10.2656 44.602H47.7336C48.0816 44.602 48.3716 44.312 48.3716 43.964V19.604C48.3716 19.256 48.0816 18.966 47.7336 18.966H10.2656ZM32.1316 40.252H25.8676C25.2296 40.252 24.7076 39.73 24.7076 39.092V35.554H21.1696C20.5316 35.554 20.0096 35.032 20.0096 34.394V28.246C20.0096 27.608 20.5316 27.086 21.1696 27.086H24.7076V23.548C24.7076 22.91 25.2296 22.388 25.8676 22.388H32.0736C32.7116 22.388 33.2336 22.91 33.2336 23.548V27.086H36.7716C37.4096 27.086 37.9316 27.608 37.9316 28.246V34.452C37.9316 35.09 37.4096 35.612 36.7716 35.612H33.2336V39.15C33.2916 39.73 32.7696 40.252 32.1316 40.252ZM27.0276 37.932H30.9136V34.394C30.9136 33.756 31.4356 33.234 32.0736 33.234H35.6116V29.348H32.0736C31.4356 29.348 30.9136 28.826 30.9136 28.188V24.65H27.0276V28.188C27.0276 28.826 26.5056 29.348 25.8676 29.348H22.3296V33.234H25.8676C26.5056 33.234 27.0276 33.756 27.0276 34.394V37.932Z" fill="#FFBF00"/>
</svg>
