<svg width="163" height="147" viewBox="0 0 163 147" fill="none" xmlns="http://www.w3.org/2000/svg">
<path d="M99.7057 75.7803H83.8155V32.8315C84.0884 32.7641 84.127 32.9438 84.2843 33.0625C87.2389 35.3207 90.5274 40.126 92.3097 43.4075C97.6311 53.2008 99.6639 64.6814 99.7057 75.7771V75.7803Z" fill="#20295B"/>
<path d="M79.1428 32.8315V75.7803H63.2526C63.3232 63.8795 65.6355 51.3435 71.9749 41.1524C73.5292 38.6536 76.3585 34.8363 78.6771 33.0625C78.8345 32.9438 78.873 32.7609 79.146 32.8315H79.1428Z" fill="#20295B"/>
<path d="M104.224 75.7803C104.073 71.7032 103.958 67.639 103.425 63.5876C102.143 53.8873 98.7647 44.4629 93.2924 36.3633L89.7406 31.898C97.6728 35.3913 103.768 41.6689 108.248 48.9666C113.255 57.1271 116.097 66.1698 116.534 75.7803H104.224Z" fill="#20295B"/>
<path d="M46.4278 75.7803C46.8614 67.6069 48.9328 59.5522 52.7897 52.3347C57.3981 43.709 64.11 35.8949 73.2241 31.898L69.6723 36.3633C64.2 44.4629 60.8312 53.8905 59.5402 63.5876C59.0006 67.639 58.9043 71.7064 58.7405 75.7803H46.4278Z" fill="#20295B"/>
<path d="M32.3264 88.6948H130.629C130.654 88.6948 130.905 88.9353 130.937 89.0091C131.126 89.4101 131.159 92.2746 130.629 92.2746H32.3264C32.3007 92.2746 32.0502 92.034 32.0181 91.9603C31.8286 91.5593 31.7965 88.6948 32.3264 88.6948Z" fill="#20295B"/>
<path d="M3.97256 104.724L11.5548 117.221L11.9915 117.638C14.4836 113.292 16.995 108.939 19.7054 104.724H23.678V125.889H19.2365C19.2205 125.889 19.0021 125.671 19.0021 125.655V113.593L12.8554 123.563C12.2677 123.445 10.9125 123.759 10.5111 123.396L4.66944 113.901V125.651C4.66944 125.667 4.45106 125.886 4.435 125.886H0V104.721H3.97256V104.724Z" fill="#20295B"/>
<path d="M128.217 75.7803H121.283C121.19 75.7129 121.11 75.6359 121.075 75.5205C120.827 74.7057 120.847 73.0922 120.715 72.1459C118.528 56.431 111.623 41.2262 98.5078 31.7729L96.3561 30.3423C114.751 37.5052 127.87 55.937 128.214 75.7835L128.217 75.7803Z" fill="#20295B"/>
<path d="M34.7414 75.7803C35.1171 55.9146 48.1459 37.7137 66.4447 30.3391C66.6503 30.4128 66.2649 30.663 66.1975 30.7144C64.7331 31.8724 63.0021 32.7705 61.4638 34.0793C49.5686 44.1806 42.9531 60.3894 41.9093 75.7803H34.7414Z" fill="#20295B"/>
<path d="M33.0265 108.769V113.125H42.6865V117.016H33.0265V121.841H44.3982V125.655C44.3982 125.671 44.1798 125.889 44.1638 125.889H28.2735C28.2575 125.889 28.0391 125.671 28.0391 125.655V104.724H43.8523C43.8683 104.724 44.0867 104.942 44.0867 104.958V108.538C44.0867 108.554 43.8683 108.772 43.8523 108.772H33.0233L33.0265 108.769Z" fill="#20295B"/>
<path d="M150.652 114.216C154.557 111.066 162.396 112.612 162.955 118.187C163.893 127.502 150.254 128.853 146.724 121.481C145.27 118.44 145.276 113.59 146.522 110.485C148.976 104.368 156.635 102.908 162.11 105.811C162.242 105.972 162.104 106.09 162.059 106.232C161.943 106.584 160.543 109.34 160.37 109.382C156.124 107.098 150.536 108.804 150.649 114.219L150.652 114.216ZM153.88 116.275C152.633 116.471 151.278 117.478 151.111 118.803C150.536 123.422 157.48 123.643 158.212 120.137C158.78 117.414 156.365 115.884 153.88 116.275Z" fill="#DC1F26"/>
<path d="M114.938 104.455C123.747 103.454 126.711 112.759 124.556 119.82C122.105 127.849 111.27 128.487 108.091 120.702C105.698 114.848 107.49 105.301 114.938 104.455ZM115.246 108.65C111.524 109.282 111.681 116.875 112.718 119.502C114.006 122.764 118.065 122.963 119.523 119.768C121.084 116.346 120.885 107.691 115.246 108.65Z" fill="#DC1F26"/>
<path d="M86.619 125.886H81.712C81.3715 125.886 79.9392 122.011 79.7466 121.392C76.4869 121.411 73.1535 121.26 69.9324 121.469L68.0023 125.886H63.0952L63.1659 125.414L72.4405 104.801C73.2305 104.775 76.9462 104.515 77.3508 104.878L86.619 125.889V125.886ZM78.0509 117.484L74.8587 109.702L71.6666 117.484H78.0541H78.0509Z" fill="#20295B"/>
<path d="M63.2494 138.492H0V141.915H63.2494V138.492Z" fill="#20295B"/>
<path d="M162.955 138.492H99.7057V141.915H162.955V138.492Z" fill="#20295B"/>
<path d="M41.4405 79.203C41.5336 79.1099 41.2253 77.567 41.7488 77.2559C41.9671 77.1275 46.5402 77.1051 46.7458 77.2462C47.0541 77.4612 46.8228 78.7795 46.8903 79.203L57.8831 79.2094C58.9075 79.2832 58.1078 77.567 58.5671 77.2462C58.7726 77.1019 63.365 77.1019 63.5737 77.2462C63.882 77.4612 63.6508 78.7795 63.7182 79.203H78.8313C78.8987 78.7731 78.6675 77.4612 78.9758 77.2462C79.1813 77.1019 83.7737 77.1019 83.9825 77.2462C84.2907 77.4612 84.0595 78.7795 84.127 79.203H99.24C99.3107 78.7795 99.0762 77.4612 99.3845 77.2462C99.5901 77.1019 104.186 77.1019 104.391 77.2462C104.699 77.4612 104.468 78.7731 104.536 79.203H115.975C116.274 79.1613 115.769 77.381 116.318 77.2013C116.627 77.0987 121.014 77.1083 121.213 77.2462C121.566 77.4932 121.132 79.1998 121.592 79.1998H130.783C131.062 79.1998 131.213 80.4315 130.706 80.6785H32.2493C31.7419 80.4315 31.8928 79.1998 32.1722 79.1998H41.4405V79.203Z" fill="#20295B"/>
<path d="M142.081 104.724V108.07L137.565 113.205C137.575 113.379 139.409 113.834 139.743 113.982C141.236 114.652 142.784 116.378 143.002 118.039C144.213 127.275 131.926 127.714 126.354 124.003L128.294 120.128C130.121 121.924 136.262 123.047 137.752 120.702C138.49 119.544 138.214 118.049 136.994 117.347C136.827 117.25 135.725 116.856 135.616 116.856H132.189C131.81 116.856 131.913 113.895 132.074 113.472L136.162 108.763H127.517C127.501 108.763 127.282 108.544 127.282 108.528V104.949C127.282 104.932 127.501 104.714 127.517 104.714H142.084L142.081 104.724Z" fill="#DC1F26"/>
<path d="M104.847 121.841V125.732H88.957V122.697L97.5283 114.61C100.984 111.239 99.0184 107.322 94.182 108.779C93.3085 109.042 91.6899 110.476 91.5294 110.479C91.2307 110.485 88.2408 108.551 88.183 108.362C87.9839 107.698 90.4375 105.943 91.0284 105.629C94.8693 103.585 102.198 103.797 103.874 108.57C105.782 114.001 100.313 117.549 96.9727 120.747C96.6709 121.035 96.1635 121.424 96.1185 121.841H104.847Z" fill="#DC1F26"/>
<path d="M65.4332 104.724V108.769H58.7341V125.651C58.7341 125.667 58.5157 125.886 58.4996 125.886H53.9811C53.9651 125.886 53.7467 125.667 53.7467 125.651V108.769H47.0476V104.724H65.4332Z" fill="#20295B"/>
<path d="M81.9464 146.893V133.822H88.5684C91.783 133.822 94.5481 137.171 94.577 140.276C94.6059 143.381 92.0271 146.89 88.8799 146.89H81.9464V146.893ZM83.8154 145.184H88.5684C88.8221 145.184 89.9525 144.696 90.2512 144.532C93.4626 142.755 93.3599 137.713 90.0007 136.131C89.6346 135.958 88.5941 135.538 88.2569 135.538H84.0499C84.0338 135.538 83.8154 135.756 83.8154 135.772V145.187V145.184Z" fill="#20295B"/>
<path d="M79.297 146.893H76.959L74.4348 143.034L70.4141 143.002V146.893H68.3877V133.822H74.8523C74.9968 133.822 76.3553 134.306 76.5961 134.415C80.0516 135.984 79.7658 141.177 76.3328 142.617L79.2937 146.893H79.297ZM70.4173 141.293H74.3899C74.4926 141.293 75.2987 141.036 75.4657 140.965C77.4921 140.106 77.6623 137.116 75.7676 136.022C75.6038 135.926 74.4958 135.531 74.3899 135.531H70.4173V141.293Z" fill="#20295B"/>
<path d="M90.7489 27.5387C91.038 27.6285 91.0733 28.7352 90.9609 28.918C90.871 29.0624 90.1902 29.0912 89.9782 29.1041C84.3261 29.4313 78.3624 28.841 72.6749 29.1009C71.3069 28.9437 71.8432 27.5419 72.0551 27.5419H90.7489V27.5387Z" fill="#20295B"/>
<path d="M41.6332 87.4149C41.3634 87.1454 41.3698 83.7484 41.4373 83.1678C41.4726 82.8759 41.5721 82.4781 41.8194 82.3049C42.1309 82.0836 45.2846 82.0996 45.8883 82.1541C46.4599 82.2055 46.8261 82.2087 46.9031 82.8534C46.9995 83.681 47.0091 86.1029 46.9031 86.9145C46.8742 87.1326 46.8678 87.3186 46.6783 87.4662C46.3636 87.7132 41.9254 87.7036 41.6364 87.4149H41.6332Z" fill="#20295B"/>
<path d="M58.4226 87.4501V82.5487C58.4226 82.523 58.6634 82.2728 58.7373 82.2407C59.0552 82.0932 62.3213 82.0964 62.8672 82.1573C63.4132 82.2183 63.6636 82.2889 63.7311 82.8502C63.7921 83.3795 63.7793 87.0171 63.6444 87.2962C63.5512 87.4854 63.3682 87.5656 63.1723 87.6009C62.8126 87.6683 58.4258 87.6875 58.4258 87.4501H58.4226Z" fill="#20295B"/>
<path d="M116.643 82.1926C117.292 82.0515 119.787 82.0739 120.506 82.1541C120.747 82.183 121.158 82.2504 121.283 82.4653C121.399 82.6642 121.428 86.4429 121.367 86.908C121.299 87.4245 121.174 87.54 120.667 87.6073C119.918 87.7068 117.507 87.7068 116.758 87.6073C116.241 87.54 116.126 87.4149 116.058 86.908C115.968 86.2344 115.949 83.3218 116.065 82.6994C116.123 82.3787 116.341 82.2568 116.646 82.1894L116.643 82.1926Z" fill="#20295B"/>
<path d="M99.8181 82.1926C100.467 82.0515 102.962 82.0739 103.681 82.1541C103.922 82.183 104.333 82.2504 104.459 82.4653C104.574 82.6642 104.603 86.4429 104.542 86.908C104.475 87.4245 104.349 87.54 103.842 87.6073C103.094 87.7068 100.682 87.7068 99.9337 87.6073C99.4167 87.54 99.301 87.4149 99.2336 86.908C99.1437 86.2344 99.1244 83.3218 99.24 82.6994C99.2978 82.3787 99.5162 82.2568 99.8213 82.1894L99.8181 82.1926Z" fill="#20295B"/>
<path d="M72.0519 13.6908H90.7457C91.0797 13.6908 91.0797 15.0925 90.7457 15.0925H72.0519C71.7629 15.0925 71.6601 13.8704 72.0519 13.6908Z" fill="#20295B"/>
<path d="M77.8229 15.84H75.8736C75.6022 15.84 75.3822 16.0597 75.3822 16.3307V26.1337C75.3822 26.4047 75.6022 26.6245 75.8736 26.6245H77.8229C78.0943 26.6245 78.3143 26.4047 78.3143 26.1337V16.3307C78.3143 16.0597 78.0943 15.84 77.8229 15.84Z" fill="#20295B"/>
<path d="M82.3478 15.84H80.3985C80.1271 15.84 79.9071 16.0597 79.9071 16.3307V26.1337C79.9071 26.4047 80.1271 26.6245 80.3985 26.6245H82.3478C82.6192 26.6245 82.8392 26.4047 82.8392 26.1337V16.3307C82.8392 16.0597 82.6192 15.84 82.3478 15.84Z" fill="#20295B"/>
<path d="M86.9434 15.84H84.994C84.7227 15.84 84.5027 16.0597 84.5027 16.3307V26.1337C84.5027 26.4047 84.7227 26.6245 84.994 26.6245H86.9434C87.2148 26.6245 87.4348 26.4047 87.4348 26.1337V16.3307C87.4348 16.0597 87.2148 15.84 86.9434 15.84Z" fill="#20295B"/>
<path d="M81.6863 5.3281V4.22784H83.6067V3.02172H82.9708V3.78196H81.6831V1.08102H81.9046V0H80.8962V1.08102H81.1178V3.78196H79.8397V3.02172H79.2038V4.22784H81.1146V5.33131C77.1902 5.51415 74.0623 8.74758 74.0623 12.7124C74.0623 12.7765 74.0687 12.8407 74.0719 12.9048H88.8478C88.8478 12.8407 88.8574 12.7765 88.8574 12.7124C88.8574 8.70267 85.662 5.44358 81.6766 5.3281H81.6863Z" fill="#20295B"/>
</svg>
