<svg width="58" height="56" viewBox="0 0 58 56" fill="none" xmlns="http://www.w3.org/2000/svg">
<path d="M32.5676 0.335098C34.2994 0.846424 33.8997 2.74328 34.3993 4.09582L36.2145 4.77209C37.3135 4.17829 38.396 2.85874 39.7948 3.28759C39.978 3.33708 40.4608 3.74943 40.644 3.89788C41.3933 4.52467 45.0903 8.12045 45.4067 8.76373C46.1061 10.1493 44.5074 11.3698 43.9745 12.5244L44.7405 14.3223C46.2392 14.7017 48.2875 14.4378 48.4707 16.4336C48.6039 17.9346 48.6538 21.7943 48.4707 23.2293C48.2209 25.0602 46.0228 24.7633 44.6739 25.2251L43.9911 27.023C44.5906 28.1281 46.0061 29.2168 45.4399 30.6188L40.0778 36.0289C38.5292 36.9031 37.4301 35.2702 36.1479 34.7094L34.3327 35.4681C33.8998 36.9361 34.2329 38.9814 32.2013 39.1629C30.4861 39.3113 27.3886 39.2948 25.6567 39.1629C23.2921 38.9814 23.9582 36.9526 23.2754 35.3692L21.527 34.7259C20.3779 35.3527 19.0125 36.9691 17.6137 35.996L12.2682 30.5858C11.8352 29.2003 13.1675 28.1446 13.7669 27.0395L13.0675 25.2086C11.5854 24.6643 9.4706 25.1262 9.28742 23.0314C9.13755 21.3654 9.13755 18.0995 9.28742 16.4336C9.4706 14.3388 11.4856 14.7182 13.0509 14.2729L13.7836 12.508C13.2507 11.3533 11.652 10.1328 12.3514 8.74723C12.6678 8.10395 16.3647 4.49168 17.1141 3.88139C17.2973 3.73294 17.7801 3.32058 17.9633 3.2711C19.3621 2.84224 20.4279 4.16179 21.5436 4.75559L23.392 4.06283C23.9083 2.71029 23.5086 0.895907 25.1905 0.318604H32.6176L32.5676 0.335098ZM28.3711 10.974C21.5269 11.3204 17.6803 19.0067 21.4771 24.6478C24.9741 29.8435 32.8007 29.7941 36.2645 24.5818C40.2444 18.5614 35.5983 10.6111 28.3711 10.974Z" fill="#6A99D0"/>
<path d="M57.6796 51.9788C57.0634 53.6942 55.5813 53.1499 54.1825 53.4798C52.8836 53.7932 51.8013 54.6674 50.519 55.0962C48.271 55.8715 45.3733 55.9045 43.1419 55.0303C42.1594 54.6509 41.1936 53.9251 40.1945 53.6118C35.7483 52.1602 33.9165 55.3602 30.0198 55.6571C26.1232 55.954 25.4237 54.8323 22.2264 53.6777C17.7635 52.0778 15.7486 55.3931 11.7853 55.6571C10.2367 55.756 8.62133 55.6076 7.15591 55.0962C5.87367 54.6509 4.82454 53.7767 3.49234 53.4798C2.07688 53.1499 0.611503 53.6942 -0.00463867 51.9788V51.2036C0.528241 49.917 1.49404 49.9005 2.75963 49.983C6.75623 50.2469 8.67131 53.5623 13.2174 51.9623C16.2815 50.8737 16.8643 49.7356 20.6777 49.9665C23.4254 50.1314 24.3579 51.3355 26.5893 52.0283C31.0688 53.4138 32.9007 50.2304 36.8807 49.9665C40.8606 49.7026 41.3268 50.8572 44.4575 51.9458C49.0036 53.5458 50.9186 50.2304 54.9152 49.9665C56.1808 49.884 57.1467 49.9005 57.6796 51.1871V51.9788Z" fill="#6A99D0"/>
<path d="M57.6797 41.6205V42.3957C57.0469 44.1441 55.3816 43.5503 53.9162 43.9627C52.7505 44.2926 51.7514 45.0843 50.619 45.4967C49.1703 46.0245 47.4717 46.1894 45.923 46.074C41.6433 45.7606 39.8281 42.2143 34.9156 44.3256C32.118 45.5297 31.1189 46.3214 27.7884 46.074C23.7918 45.7771 21.7602 42.4287 17.2641 44.1276C14.2166 45.2822 13.4173 46.3709 9.65386 46.074C6.88954 45.8595 5.22427 44.0946 2.7597 43.7483C1.51077 43.5668 0.594941 43.9132 0.0121043 42.3957V41.6205C0.594941 39.7236 3.57575 40.3669 5.02452 40.8288C6.27345 41.2246 7.42246 42.1153 8.65475 42.4782C13.0343 43.7648 14.7995 40.6803 18.6462 40.3834C22.2099 40.1195 23.0092 40.9607 25.94 42.1813C30.7693 44.1936 32.5511 40.6968 36.6642 40.3834C38.2462 40.2679 40.1112 40.4164 41.5933 40.9607C42.6924 41.3731 43.7415 42.1648 44.8906 42.4947C49.2369 43.6988 50.9686 40.6803 54.7987 40.3834C56.0643 40.2844 57.1801 40.2679 57.663 41.604L57.6797 41.6205Z" fill="#6A99D0"/>
</svg>
