<svg width="27" height="27" viewBox="0 0 27 27" fill="none" xmlns="http://www.w3.org/2000/svg">
<mask id="mask0_2102_179" style="mask-type:luminance" maskUnits="userSpaceOnUse" x="0" y="0" width="27" height="27">
<path d="M26.7745 0H0V26.5483H26.7745V0Z" fill="white"/>
</mask>
<g mask="url(#mask0_2102_179)">
<path d="M16.5734 8.25631C14.8062 7.24748 11.9503 7.23863 10.1921 8.25631C8.43389 9.26515 8.44283 10.9111 10.21 11.92C11.9771 12.9288 14.833 12.9288 16.5912 11.92C18.3494 10.9023 18.3405 9.26515 16.5734 8.25631ZM15.7612 9.8492C15.6094 9.9023 15.4578 9.94655 15.3061 9.9908C15.2079 10.0173 15.1543 10.0262 15.1097 9.99966C15.0918 9.99081 15.0651 9.96424 15.0472 9.92885C14.9491 9.76956 14.7973 9.62798 14.5831 9.50409C14.5564 9.48639 14.5296 9.47753 14.5028 9.45983C14.4404 9.42443 14.369 9.39788 14.2797 9.38018C13.9852 9.31824 13.7352 9.42443 13.7709 9.60142C13.7888 9.68991 13.8334 9.7784 13.8959 9.86689C14.003 10.0085 14.1102 10.1589 14.1905 10.3094C14.4404 10.7961 13.9049 11.274 13.0481 11.3271C12.7357 11.3448 12.4412 11.3094 12.1735 11.2209C12.0485 11.1855 11.9592 11.1855 11.87 11.2474C11.7807 11.3005 11.6826 11.3536 11.5933 11.4067C11.5041 11.4598 11.4237 11.4598 11.3345 11.4067C11.272 11.3713 11.2096 11.3448 11.156 11.3094C11.1114 11.2917 11.0668 11.2563 11.0221 11.2297C10.9418 11.1766 10.9508 11.1235 11.04 11.0704C11.1025 11.035 11.1739 10.9908 11.2363 10.9554C11.397 10.8669 11.397 10.858 11.2631 10.7607C11.1114 10.6368 10.9686 10.5041 10.8793 10.3625C10.8079 10.2474 10.8258 10.2209 11.0043 10.1589C11.1381 10.1147 11.2721 10.0705 11.406 10.0262C11.5041 9.99081 11.5666 9.99079 11.6112 10.0085C11.6291 10.0262 11.6469 10.0439 11.6647 10.0881C11.7629 10.2474 11.9056 10.4067 12.0841 10.5395C12.1198 10.5572 12.1555 10.5837 12.1912 10.6014C12.2894 10.6634 12.3965 10.7076 12.5393 10.7341C12.8695 10.8138 13.182 10.6722 13.1463 10.4687C13.1373 10.3979 13.0927 10.3359 13.0481 10.2651C12.941 10.097 12.7893 9.93771 12.7089 9.75187C12.584 9.45984 12.6376 9.19434 13.0481 8.99081C13.5033 8.76072 14.0209 8.74303 14.5653 8.88462C14.714 8.92592 14.845 8.91411 14.958 8.84921C15.0205 8.81381 15.074 8.78728 15.1365 8.75188C15.2614 8.68109 15.306 8.68109 15.4399 8.75188C15.4577 8.75188 15.4667 8.76957 15.4756 8.76957C15.5024 8.78727 15.5291 8.80497 15.5559 8.82267C15.7344 8.92886 15.7344 9.03507 15.5559 9.14126C15.3685 9.24745 15.3686 9.25629 15.5292 9.38018C15.6542 9.47753 15.7523 9.58374 15.8237 9.69878C15.8862 9.77842 15.8683 9.81381 15.7612 9.8492ZM26.6049 11.6987L10.5491 2.50417C10.326 2.38028 9.96004 2.38028 9.74584 2.50417L0.178453 8.01736C-0.0446677 8.14125 -0.0446677 8.34481 0.178453 8.47755L16.2342 17.6721C16.4573 17.8049 16.8143 17.796 17.0285 17.6721L26.6049 12.1589C26.828 12.035 26.8369 11.8315 26.6049 11.6987ZM18.2334 15.5482C18.153 15.4598 18.037 15.389 17.9121 15.3182C17.0999 14.8491 15.7791 14.8491 14.967 15.3182C14.9045 15.3536 14.8509 15.389 14.7973 15.4332L3.9715 9.23859C4.0786 9.19434 4.17685 9.15009 4.26609 9.097C5.07825 8.62797 5.07824 7.86692 4.25716 7.40675C4.16791 7.35365 4.06968 7.30941 3.9715 7.27401L8.43392 4.70768C8.50532 4.76077 8.58566 4.82271 8.67491 4.86696C9.48707 5.33598 10.8169 5.33598 11.6201 4.86696C11.7183 4.81386 11.7985 4.76077 11.861 4.69882L22.7136 10.9111C22.5708 10.9642 22.437 11.0173 22.3121 11.0881C21.5088 11.5571 21.5089 12.3182 22.3299 12.7784C22.4549 12.8492 22.5976 12.9111 22.7404 12.9642L18.2334 15.5571V15.5482ZM19.5454 13.2032L18.8403 13.6102C18.7332 13.6722 18.5546 13.6722 18.4475 13.6102L17.1982 12.9023C17.0911 12.8403 17.0911 12.743 17.1982 12.6722L17.9121 12.2651C18.0192 12.2032 18.1888 12.2032 18.3048 12.2651L19.5454 12.9731C19.6525 13.035 19.6525 13.1412 19.5454 13.2032ZM9.58526 7.49525L8.87123 7.90232C8.76413 7.96426 8.59461 7.96426 8.47859 7.90232L7.23802 7.19437C7.13092 7.13242 7.13092 7.03507 7.23802 6.96428L7.94312 6.55721C8.05022 6.49526 8.22866 6.49526 8.33576 6.55721L9.58526 7.26518C9.69235 7.32713 9.69235 7.4333 9.58526 7.49525ZM25.525 14.5217L26.7745 15.2385L16.7341 21.0172L16.4128 20.8314L15.4846 20.3004L0 11.4155L1.24056 10.7076L16.7251 19.5747L25.525 14.5129V14.5217ZM25.4982 17.6544L26.7477 18.3712L16.7519 24.1322L16.4305 23.9464L15.5024 23.4154L0 14.5217L1.24056 13.8138L16.7519 22.7074L25.4982 17.6544Z" fill="white"/>
</g>
</svg>
