<svg width="24" height="24" viewBox="0 0 24 24" fill="none" xmlns="http://www.w3.org/2000/svg">
<path d="M22.6507 0C23.1951 0.179847 23.6998 0.582417 23.7666 1.19044V17.3754C23.6886 18.0097 23.3298 18.5492 23.1572 19.1525C23.1596 19.2466 23.3079 19.2704 23.3895 19.3419C23.5704 19.5009 23.6992 19.6599 23.7619 19.9016C23.6915 20.9349 23.8647 22.1122 23.7672 23.1282C23.7323 23.489 23.3133 23.913 22.9551 23.9464C21.1318 24.1173 19.0472 23.813 17.1961 23.9452C16.7191 23.8475 16.387 23.4164 16.3391 22.9382C16.2729 22.2807 16.2747 20.839 16.3391 20.1797C16.3639 19.9284 16.4703 19.6402 16.6387 19.4526C16.7286 19.352 16.9171 19.3216 16.8893 19.162L15.157 15.7568L8.31405 15.7652C8.20767 16.6852 7.86132 17.5422 7.57349 18.4122C7.57053 18.467 7.94052 18.7523 8.02267 18.8779C8.1332 19.0471 8.19703 19.2775 8.21535 19.4788C8.29159 20.3256 8.29218 21.9979 8.21535 22.8447C8.16807 23.3693 7.89619 23.8303 7.35835 23.9458L1.59933 23.947C1.16315 23.9083 0.790211 23.4587 0.742928 23.0329C0.613492 21.8722 0.839857 20.4775 0.742928 19.2912C0.695645 19.0316 1.08336 18.7457 1.1135 18.5891C1.19861 18.1413 1.10346 17.1622 0.987025 16.7073C0.724606 15.6812 0.215727 14.7016 0 13.6564V9.49435C0.0892459 9.32403 0.102249 9.13228 0.17731 8.94826C0.426134 8.33786 0.906645 7.97041 1.47876 7.68754L1.48999 1.24522C1.59697 0.61993 2.06093 0.186993 2.64546 0.0005961H22.6501L22.6507 0ZM23.0225 12.3927V1.28572C23.0225 1.04096 22.4681 0.684253 22.2122 0.746187H3.13247C2.48825 0.790851 2.27429 1.00939 2.2276 1.65791L2.22937 8.97923C2.48588 8.96375 2.74712 8.98577 2.9723 9.11917V2.36123C2.9723 2.03845 3.57397 1.48164 3.92386 1.49594L21.3309 1.49415C21.7246 1.46914 22.3268 2.03607 22.3268 2.40827V12.3927C22.565 12.3433 22.7861 12.3129 23.0231 12.3927H23.0225ZM21.5372 12.0187V2.50177C21.5372 2.32371 21.1566 2.22187 21.0053 2.24272H4.24598C4.06867 2.26058 3.85353 2.27964 3.7702 2.46485L3.75897 9.75162C3.96701 10.2453 4.10058 10.7039 4.13309 11.2452C4.16028 11.6936 4.05271 12.4344 4.14077 12.8275C4.1656 12.9394 4.63074 13.5194 4.80096 13.4718L14.2492 13.4694C14.2327 12.1795 15.8568 11.674 16.608 12.7054L17.0802 13.4688V10.1482H13.6688C13.6322 10.1482 13.469 10.0059 13.4389 9.95945C13.2905 9.73197 13.394 9.45982 13.6339 9.36572L17.0785 9.35083C17.1949 7.86144 19.2493 7.85726 19.3551 9.35261C19.7476 9.41573 20.9781 9.10488 20.8321 9.8326C20.8132 9.9255 20.6152 10.1476 20.5384 10.1476H19.3545V11.6442C19.7038 11.5495 20.075 11.6001 20.3729 11.8109C20.4485 11.8645 20.63 12.095 20.6767 12.0986C20.7027 12.1004 20.9716 11.9818 21.0957 11.9723C21.2529 11.9598 21.3871 11.9747 21.536 12.0182L21.5372 12.0187ZM1.48586 8.60465C0.923784 8.82261 0.775435 9.53485 0.741155 10.0756C0.673186 11.1493 0.657819 12.9638 0.905462 13.9822C1.05972 14.6158 1.85702 16.4226 1.85702 16.8585V18.3319H6.86957L7.51911 15.7598H5.56989C5.54743 15.7598 5.61481 16.0266 5.33998 16.1135C4.74244 16.3035 4.83878 15.5234 4.76904 15.1869C4.561 14.1805 3.42149 13.5981 3.3417 12.8834C3.2495 12.0557 3.61121 10.4365 2.78258 9.89275C2.51248 9.71528 2.29557 9.67539 2.2406 10.0434C2.11885 10.8611 2.30621 11.9038 2.23056 12.7453C2.17441 13.3724 1.48586 13.0913 1.48586 12.8834V8.60405V8.60465ZM20.7364 14.5318C20.562 14.6932 20.2186 14.6408 20.1093 14.4163C19.9261 14.04 20.1453 13.0669 20.0419 12.6131C19.9692 12.2927 19.4438 12.307 19.3652 12.6595C19.2706 13.0835 19.4107 13.7791 19.3563 14.2406C19.2972 14.7474 18.6169 14.7754 18.5637 14.1948C18.4219 12.6375 18.6766 10.8652 18.5631 9.28532C18.5088 8.94111 18.0489 8.93873 17.8941 9.21327C17.8149 11.1803 17.9319 13.1735 17.8344 15.1393C17.6967 15.3804 17.4337 15.4841 17.218 15.2703L15.9602 13.1235C15.6393 12.7947 15.0554 12.9233 15.001 13.4099C14.9797 13.5969 15.3154 14.2502 15.4159 14.4675C16.1293 16.0129 16.978 17.4987 17.6796 19.0506L17.7522 19.0828L22.3499 19.0334C22.5331 18.3848 22.935 17.8167 23.0213 17.1378L23.0018 13.3241C22.9315 13.1056 22.5963 13.0728 22.4397 13.2306C22.1229 13.5498 22.6076 14.5348 22.0124 14.6277C21.2328 14.7492 21.6755 13.2979 21.5029 12.9168C21.4025 12.6953 21.01 12.7048 20.8936 12.9353C20.721 13.2765 20.9811 14.3032 20.7364 14.5307V14.5318ZM14.4821 14.2633H5.24541C5.35594 14.4806 5.47059 14.7147 5.47769 14.9648H14.8071L14.4821 14.2633ZM1.75123 19.137C1.54437 19.1852 1.50004 19.4324 1.48408 19.6158C1.41671 20.3876 1.4102 21.9859 1.48645 22.7506C1.49945 22.8834 1.542 23.1127 1.67262 23.171H7.24074C7.38081 23.0686 7.41391 22.968 7.42928 22.8C7.52562 21.7465 7.35244 20.546 7.42809 19.4764C7.41864 19.2603 7.24842 19.1144 7.03506 19.1245L1.75182 19.137H1.75123ZM17.3929 19.8856C17.1919 19.9487 17.1429 20.0738 17.1258 20.2709C17.0489 21.1302 17.1677 22.1402 17.1523 23.0079L17.3149 23.1716C19.1642 23.2056 21.0283 23.2258 22.8724 23.1615C23.0065 23.0936 23.0124 22.9817 23.0248 22.8477C23.1023 22.0003 22.961 21.0379 23.0248 20.1774C23.0118 19.985 22.8097 19.8659 22.63 19.8736L17.3929 19.8856Z" fill="white"/>
<path d="M4.56369 10.0392C4.50636 9.98678 4.46381 9.87782 4.45435 9.79861C4.35092 8.94166 4.43189 7.43916 4.75873 6.64057C6.26232 2.97099 11.6921 3.41346 12.5562 7.29386C12.6839 7.86734 12.7578 9.22512 12.6691 9.79384C12.6478 9.93141 12.5479 10.0535 12.4197 10.1041C9.9214 10.2065 7.40124 10.116 4.89467 10.15C4.79242 10.1488 4.63816 10.1077 4.56369 10.0392ZM5.24515 8.65164C5.22033 8.67665 5.26347 9.24834 5.24515 9.35315H7.05549C7.07854 8.42831 7.79841 7.81196 8.70269 7.85721C8.80494 7.86257 8.99052 7.94892 9.05317 7.9251C9.18379 7.87507 9.60875 7.2998 9.79551 7.1807C9.96691 7.07172 10.1212 7.07589 10.2813 7.20095C10.7879 7.59816 9.91608 8.09304 9.70863 8.39378C9.93145 8.66176 10.0526 9.00358 10.0721 9.35315H11.8824V8.65164C10.9468 8.80648 10.834 7.70059 11.8363 7.85662C11.818 7.24562 11.5456 6.63878 11.1632 6.17368C10.9421 6.60365 10.195 6.63342 10.266 6.06887C10.2932 5.85389 10.6295 5.66928 10.5615 5.56387C10.5101 5.48467 10.0041 5.22085 9.88535 5.16904C9.59338 5.04219 9.29786 4.95883 8.98225 4.9094C8.98521 5.21311 8.90778 5.70739 8.49169 5.63891C8.03837 5.56447 8.20918 4.91238 8.14535 4.9094C7.53008 4.98622 7.01707 5.24765 6.49873 5.56566C6.43963 5.65201 6.79366 5.8658 6.82203 6.00991C6.8894 6.35174 6.63408 6.59174 6.29896 6.48991C6.19435 6.45834 5.98217 6.11234 5.89588 6.17249C5.58736 6.69476 5.31903 7.21465 5.24456 7.83161C5.24693 7.88164 6.06551 7.73275 5.95557 8.31397C5.8681 8.77788 5.28652 8.60876 5.24515 8.65105V8.65164ZM9.28368 9.35315C9.22457 8.41342 7.86284 8.39853 7.84511 9.35315H9.28368Z" fill="white"/>
<path d="M16.3874 6.73185L20.5364 6.73661C21.0388 6.87417 20.8851 7.51316 20.3999 7.52865L16.3868 7.53044C16.2556 8.99124 14.2372 8.9966 14.1089 7.53044C13.1296 7.66979 13.1077 6.55915 14.1089 6.73125C14.2271 5.23948 16.2674 5.23591 16.3874 6.73125V6.73185ZM15.119 6.41682C14.817 6.4853 14.8625 7.28926 14.9027 7.55009C14.9642 7.94671 15.5061 7.95206 15.5865 7.58939C15.622 7.42979 15.619 6.64609 15.5451 6.52877C15.463 6.39716 15.2597 6.38466 15.119 6.41682Z" fill="white"/>
<path d="M19.3559 4.11491C19.7637 4.19232 20.9298 3.85527 20.84 4.5556C20.7697 5.10228 19.7371 4.85455 19.3577 4.91231C19.1946 6.39337 17.2714 6.34751 17.0533 4.90754L13.8564 4.90993C13.3363 4.92422 13.1601 4.28106 13.6726 4.11848L17.0793 4.11371C17.1975 2.61896 19.2584 2.61063 19.3559 4.1155V4.11491ZM18.0893 3.7975C17.7873 3.86599 17.8328 4.66993 17.873 4.93076C17.9345 5.32738 18.4765 5.33275 18.5569 4.97008C18.5923 4.81048 18.5894 4.02677 18.5155 3.90945C18.4333 3.77785 18.23 3.76535 18.0893 3.7975Z" fill="white"/>
</svg>
