<svg width="29" height="29" viewBox="0 0 29 29" fill="none" xmlns="http://www.w3.org/2000/svg">
<path d="M14.4785 1C16.8908 1 19.2174 1.64707 21.2441 2.81348V2.8125C23.2688 3.97951 24.9914 5.66719 26.1924 7.74902L26.1934 7.75C27.3907 9.82163 28.0047 12.1307 28.0039 14.4678C28.0039 15.6429 27.8482 16.8271 27.5361 17.9922C27.0697 19.7346 26.2777 21.3365 25.2129 22.7256C24.149 24.1137 22.8096 25.2931 21.251 26.1934C19.204 27.3751 16.8781 27.9982 14.5215 27.999C12.1105 27.9989 9.78252 27.3528 7.75684 26.1865C5.73214 25.0203 4.00765 23.3332 2.80566 21.252H2.80664C1.58409 19.1325 1.00005 16.8098 1 14.5225L1.00684 14.085C1.0782 11.8995 1.6771 9.75661 2.75098 7.84863C3.89563 5.81731 5.58783 4.05467 7.74902 2.80664C9.79579 1.62505 12.1212 1.00095 14.4785 1Z" stroke="white" stroke-width="2"/>
<path d="M14.5034 15.8631C14.7407 15.8631 14.9761 15.7994 15.1841 15.6808C15.8346 15.3046 16.0577 14.4699 15.6824 13.8185C15.4399 13.3981 14.9867 13.137 14.5008 13.137C14.2627 13.137 14.0273 13.1998 13.8201 13.3202C13.1705 13.6964 12.9456 14.531 13.3218 15.1815C13.5652 15.602 14.0175 15.8631 14.5034 15.8631Z" fill="white"/>
<path d="M15.957 17.019C15.8268 16.7942 15.5516 16.7013 15.3108 16.8013C15.3108 16.8013 15.348 16.8145 15.1418 16.8712C14.9355 16.9269 14.7196 16.9561 14.5019 16.9561C14.2841 16.9561 14.069 16.9269 13.8628 16.8712C13.6557 16.8145 13.6938 16.8013 13.6938 16.8013C13.4539 16.7012 13.1769 16.7942 13.0485 17.019L10.179 21.9872C10.1082 22.1111 10.0904 22.2598 10.1329 22.397C10.1745 22.5332 10.2719 22.6465 10.4011 22.7103C10.4011 22.7103 10.6596 22.8687 11.0561 23.028C12.1475 23.4679 13.3193 23.6972 14.5019 23.6998C15.6853 23.6971 16.8563 23.4679 17.9485 23.028C18.345 22.8687 18.6035 22.7103 18.6035 22.7103C18.7319 22.6465 18.8301 22.5332 18.8717 22.397C18.9142 22.2598 18.8965 22.1111 18.8248 21.9872L15.957 17.019Z" fill="white"/>
<path d="M22.4696 9.89984C21.8765 8.87576 21.0923 7.97733 20.1647 7.25066C19.8283 6.98776 19.5611 6.84348 19.5611 6.84348C19.4434 6.76293 19.2964 6.73551 19.1557 6.76734C19.0158 6.79924 18.8964 6.88863 18.8247 7.01251L15.9569 11.9798C15.8268 12.2047 15.8843 12.4914 16.0897 12.649C16.0897 12.649 16.0835 12.6092 16.2366 12.7605C16.3871 12.911 16.5198 13.0827 16.6296 13.2713C16.7385 13.4607 16.8208 13.6616 16.8757 13.8678C16.9306 14.0749 16.8987 14.0493 16.8987 14.0493C16.9332 14.3068 17.1509 14.4998 17.4112 14.4998H23.1476C23.291 14.4998 23.4282 14.4405 23.5256 14.3352C23.6238 14.2299 23.6725 14.0891 23.6628 13.9466C23.6628 13.9466 23.6708 13.643 23.6106 13.2208C23.4467 12.0551 23.0591 10.9257 22.4696 9.89984Z" fill="white"/>
<path d="M12.105 14.0493C12.105 14.0493 12.0749 14.0749 12.1298 13.8678C12.1838 13.6616 12.2652 13.4606 12.3749 13.2713C12.4847 13.0819 12.6166 12.911 12.7688 12.7605C12.9202 12.6092 12.914 12.649 12.914 12.649C13.1203 12.4915 13.1778 12.2047 13.0485 11.9798L10.179 7.01251C10.1082 6.88857 9.98782 6.79918 9.84796 6.76734C9.70809 6.73551 9.56115 6.76293 9.44259 6.84348C9.44259 6.84348 9.17527 6.98776 8.8398 7.25066C7.9131 7.97733 7.12797 8.87576 6.53408 9.89984C5.94545 10.9257 5.55866 12.0551 5.39314 13.2208C5.33383 13.643 5.34182 13.9466 5.34182 13.9466C5.33207 14.0891 5.37988 14.2299 5.47902 14.3352C5.57639 14.4405 5.71359 14.4998 5.85697 14.4998H11.5934C11.8536 14.4998 12.0713 14.3068 12.105 14.0493Z" fill="white"/>
</svg>
