<svg width="24" height="25" viewBox="0 0 24 25" fill="none" xmlns="http://www.w3.org/2000/svg">
<path d="M12.8986 24.0193H10.9451L9.63279 23.8182C4.93283 22.9062 1.11837 19.0622 0.213284 14.3272L0.01365 13.0049C0.0454933 12.3607 -0.0292161 11.6758 0.01365 11.0366C0.348005 6.07268 4.11532 1.66345 8.8416 0.410286C17.7087 -1.94056 25.778 6.18991 23.4448 15.1244C22.2011 19.8865 17.8251 23.6824 12.8986 24.0193ZM11.7724 1.44194C3.40068 1.56349 -1.49891 11.1335 3.32474 18.0817C7.4852 24.0749 16.3205 24.0884 20.4993 18.1089C25.4301 11.0533 20.2948 1.31854 11.773 1.44194H11.7724Z" fill="white"/>
<path d="M9.7576 14.8375C10.7711 15.4521 11.8207 15.7168 12.9811 15.3614C13.3767 15.2404 13.7221 14.9906 14.1091 14.8523L16.6002 19.9421C15.9364 20.3043 15.2542 20.6394 14.5267 20.8547C12.0864 21.5779 9.46366 21.2385 7.26953 19.9631L9.7576 14.8369V14.8375ZM13.4557 16.7071C12.4882 17.0532 11.3547 17.0532 10.3871 16.7071L9.13053 19.2844C10.9572 19.944 12.8856 19.944 14.7123 19.2844L13.4557 16.7071Z" fill="white"/>
<path d="M7.54518 4.00806L10.5666 8.67704C10.577 8.73319 10.5354 8.75356 10.5042 8.78687C10.2911 9.01455 9.75401 9.26197 9.47722 9.53408C8.70073 10.2992 8.37066 11.4617 8.43312 12.5365L2.8042 12.2082C2.83727 10.8773 3.06323 9.60195 3.58681 8.37963C4.37065 6.55017 5.82013 4.95765 7.54518 4.00806ZM7.12999 11.0365C7.32534 9.99315 7.88872 9.05281 8.65786 8.34139L7.10734 6.02139C5.64438 7.25296 4.67622 8.95223 4.33942 10.8477L7.12999 11.0359V11.0365Z" fill="white"/>
<path d="M21.0394 12.2082L15.4105 12.5365C15.473 11.4623 15.1429 10.2992 14.3664 9.53408C14.0902 9.26197 13.5526 9.01455 13.3395 8.78687C13.3088 8.75417 13.2666 8.73319 13.277 8.67704L16.2984 4.00806C18.0235 4.95765 19.473 6.55017 20.2568 8.37963C20.7804 9.60195 21.0064 10.8773 21.0394 12.2082ZM19.5036 10.8483C19.1668 8.95285 18.1986 7.25358 16.7357 6.022L15.1852 8.34201C15.9537 9.05343 16.5171 9.99376 16.713 11.0371L19.5036 10.849V10.8483Z" fill="white"/>
<path d="M11.5375 9.92224C13.1884 9.68345 14.4775 11.21 13.8847 12.8025C13.219 14.5912 10.5907 14.5684 9.9459 12.7692C9.51602 11.5703 10.2564 10.108 11.5375 9.92224ZM11.9061 11.3352C11.0157 11.3568 11.0494 12.7266 11.9379 12.7056C12.8283 12.684 12.7947 11.3142 11.9061 11.3352Z" fill="white"/>
</svg>
