<svg width="38" height="38" viewBox="0 0 38 38" fill="none" xmlns="http://www.w3.org/2000/svg">
<g clip-path="url(#clip0_2102_20)">
<path d="M35.4522 9.50014C33.7603 6.56731 31.3343 4.1935 28.4872 2.5526C25.638 0.912809 22.3654 0.00244141 18.9699 0.00244141C15.6509 0.00362891 12.3783 0.881488 9.4977 2.54443C6.45703 4.30023 4.07505 6.78307 2.46317 9.64398C0.852328 12.506 0.0011875 15.7426 0 19.0292C0 22.2496 0.822195 25.5198 2.54199 28.5013C4.23514 31.433 6.66232 33.8068 9.50928 35.4466C12.3574 37.0864 15.6323 37.9978 19.0266 37.9978C22.3444 37.9966 25.617 37.1188 28.4976 35.4558C30.6883 34.1906 32.5739 32.5312 34.0733 30.5748C35.5739 28.6173 36.6883 26.3629 37.3436 23.9148C37.7819 22.2785 38 20.6133 38 18.9584C38.0012 15.665 37.136 12.4132 35.4522 9.50014ZM34.1012 23.0474C33.5573 25.0745 32.64 26.9241 31.4096 28.5315C30.1769 30.1387 28.631 31.5014 26.8196 32.5474C24.4492 33.9169 21.7507 34.6406 19.0266 34.6406C16.233 34.6406 13.5345 33.8903 11.185 32.5381C8.83552 31.1848 6.84089 29.2307 5.4504 26.8221C4.02978 24.3601 3.35832 21.6812 3.35721 19.0291C3.35721 16.3236 4.05999 13.6494 5.38776 11.2941C6.7168 8.93771 8.66623 6.90248 11.1757 5.45292C13.5472 4.08336 16.2458 3.35973 18.9699 3.35973C21.7623 3.35973 24.4609 4.10889 26.8115 5.46108C29.161 6.81557 31.1556 8.77079 32.5449 11.1782C33.9365 13.5891 34.6428 16.2529 34.6439 18.9584C34.6439 20.3187 34.4641 21.6906 34.1012 23.0474Z" fill="#FF0000"/>
<path d="M19.0023 20.7856C19.3131 20.7856 19.6216 20.7021 19.8941 20.5467C20.7464 20.0538 21.0387 18.9603 20.547 18.1068C20.2293 17.5559 19.6355 17.2139 18.9989 17.2139C18.6869 17.2139 18.3785 17.2962 18.1071 17.4539C17.2559 17.9468 16.9613 19.0403 17.4542 19.8926C17.7731 20.4435 18.3657 20.7856 19.0023 20.7856Z" fill="#FF0000"/>
<path d="M20.9065 22.3006C20.736 22.0061 20.3754 21.8843 20.06 22.0153C20.06 22.0153 20.1087 22.0327 19.8385 22.1069C19.5683 22.18 19.2854 22.2182 19.0001 22.2182C18.7148 22.2182 18.433 22.18 18.1628 22.1069C17.8915 22.0327 17.9413 22.0153 17.9413 22.0153C17.6271 21.8843 17.2641 22.0061 17.0959 22.3006L13.3363 28.8098C13.2435 28.9722 13.2203 29.1671 13.2759 29.3467C13.3304 29.5253 13.458 29.6737 13.6273 29.7572C13.6273 29.7572 13.966 29.9648 14.4855 30.1735C15.9154 30.7499 17.4507 31.0503 19.0001 31.0537C20.5506 31.0502 22.0848 30.7498 23.5158 30.1735C24.0354 29.9648 24.374 29.7572 24.374 29.7572C24.5422 29.6737 24.6709 29.5253 24.7254 29.3467C24.781 29.167 24.7579 28.9722 24.6639 28.8098L20.9065 22.3006Z" fill="#FF0000"/>
<path d="M29.4393 12.9732C28.6623 11.6314 27.6348 10.4543 26.4195 9.50225C25.9788 9.1578 25.6286 8.96877 25.6286 8.96877C25.4744 8.86323 25.2819 8.82731 25.0975 8.86902C24.9143 8.9108 24.7577 9.02792 24.6638 9.19024L20.9064 15.6983C20.736 15.9929 20.8114 16.3686 21.0804 16.5751C21.0804 16.5751 21.0723 16.5229 21.2729 16.7212C21.4701 16.9183 21.644 17.1434 21.7879 17.3904C21.9305 17.6386 22.0384 17.9018 22.1103 18.172C22.1822 18.4433 22.1404 18.4097 22.1404 18.4097C22.1856 18.7472 22.4709 19 22.8119 19H30.3277C30.5155 19 30.6953 18.9222 30.8229 18.7843C30.9516 18.6463 31.0154 18.4619 31.0026 18.2752C31.0026 18.2752 31.0131 17.8775 30.9342 17.3242C30.7196 15.797 30.2117 14.3172 29.4393 12.9732Z" fill="#FF0000"/>
<path d="M15.8596 18.4097C15.8596 18.4097 15.8202 18.4433 15.8922 18.172C15.9629 17.9017 16.0696 17.6385 16.2134 17.3904C16.3571 17.1423 16.53 16.9184 16.7294 16.7212C16.9277 16.5229 16.9196 16.5751 16.9196 16.5751C17.1899 16.3687 17.2652 15.9929 17.0959 15.6983L13.3363 9.19024C13.2435 9.02785 13.0858 8.91073 12.9025 8.86902C12.7193 8.82731 12.5268 8.86323 12.3714 8.96877C12.3714 8.96877 12.0212 9.1578 11.5817 9.50225C10.3675 10.4543 9.33886 11.6314 8.56075 12.9732C7.78954 14.3172 7.28278 15.797 7.06591 17.3242C6.9882 17.8774 6.99867 18.2752 6.99867 18.2752C6.9859 18.4619 7.04854 18.6463 7.17842 18.7843C7.30601 18.9222 7.48576 19 7.67361 19H15.1894C15.5303 19 15.8156 18.7472 15.8596 18.4097Z" fill="#FF0000"/>
</g>
<defs>
<clipPath id="clip0_2102_20">
<rect width="38" height="38" fill="white"/>
</clipPath>
</defs>
</svg>
