<svg width="65" height="66" viewBox="0 0 65 66" fill="none" xmlns="http://www.w3.org/2000/svg">
<g clip-path="url(#clip0_3578_251)">
<path d="M32.668 37.8461C35.4546 37.8461 37.7198 35.5789 37.7198 32.7943C37.7198 30.0098 35.4546 27.7426 32.668 27.7426C29.8814 27.7426 27.6162 30.0098 27.6162 32.7943C27.6162 35.5789 29.8814 37.8461 32.668 37.8461ZM32.668 29.7633C34.3391 29.7633 35.6991 31.1232 35.6991 32.7943C35.6991 34.4655 34.3391 35.8254 32.668 35.8254C30.9969 35.8254 29.6369 34.4655 29.6369 32.7943C29.6369 31.1232 30.9969 29.7633 32.668 29.7633Z" fill="white"/>
<path d="M4.66923 48.96C6.25549 51.7082 9.67858 53.1611 14.5627 53.1611C16.6298 53.1611 18.9314 52.8641 21.3502 52.3548C23.9105 60.1467 27.9842 65.1257 32.6683 65.1257C37.3523 65.1257 41.426 60.1467 43.9863 52.3548C46.4071 52.8641 48.7067 53.1611 50.7739 53.1611C55.6599 53.1611 59.081 51.7082 60.6673 48.96C63.0073 44.9085 60.74 38.9009 55.2861 32.7943C60.742 26.6877 63.0073 20.6801 60.6673 16.6286C59.081 13.8804 55.6579 12.4275 50.7739 12.4275C48.7067 12.4275 46.4051 12.7246 43.9863 13.2338C41.426 5.44193 37.3523 0.462891 32.6683 0.462891C27.9842 0.462891 23.9105 5.44193 21.3502 13.2338C18.9314 12.7246 16.6298 12.4275 14.5627 12.4275C9.67656 12.4275 6.25549 13.8804 4.66923 16.6286C2.32924 20.6801 4.59649 26.6877 10.0504 32.7943C4.59447 38.9009 2.32722 44.9085 4.66923 48.96ZM32.6683 63.105C28.9663 63.105 25.5877 58.6979 23.3427 51.9123C26.3333 51.1444 29.4876 50.027 32.6683 48.6266C35.8489 50.029 39.0032 51.1444 41.9939 51.9123C39.7488 58.6979 36.3702 63.105 32.6683 63.105ZM20.544 32.7943C20.544 30.4604 20.6672 28.1871 20.8794 25.9865C22.6778 24.7034 24.5854 23.4606 26.6061 22.2927C28.6107 21.1348 30.6435 20.0982 32.6683 19.1727C34.693 20.0982 36.7258 21.1348 38.7304 22.2927C40.7511 23.4606 42.6587 24.7034 44.4571 25.9865C44.6693 28.1871 44.7925 30.4604 44.7925 32.7943C44.7925 35.1282 44.6693 37.4015 44.4571 39.6021C42.6587 40.8853 40.7511 42.128 38.7304 43.296C36.7258 44.4538 34.693 45.4905 32.6683 46.416C30.6435 45.4905 28.6107 44.4538 26.6061 43.296C24.5854 42.128 22.6778 40.8853 20.8794 39.6021C20.6672 37.4015 20.544 35.1282 20.544 32.7943ZM18.7152 37.9956C16.5227 36.2962 14.5485 34.5443 12.841 32.7943C14.5465 31.0444 16.5207 29.2924 18.7152 27.593C18.6 29.2864 18.5233 31.0141 18.5233 32.7943C18.5233 34.5746 18.6 36.3023 18.7152 37.9956ZM21.1866 23.3111C21.5644 20.5569 22.0959 17.9663 22.7587 15.6102C25.1472 16.2184 27.6569 17.0772 30.203 18.1199C28.6612 18.8716 27.1194 19.6637 25.5958 20.5447C24.0539 21.4339 22.597 22.3634 21.1866 23.3111ZM35.1315 18.1199C37.6776 17.0772 40.1873 16.2184 42.5758 15.6102C43.2406 17.9663 43.7721 20.5569 44.1479 23.3111C42.7375 22.3634 41.2805 21.4339 39.7387 20.5447C38.2171 19.6637 36.6753 18.8716 35.1315 18.1199ZM46.6213 27.593C48.8138 29.2944 50.788 31.0444 52.4955 32.7943C50.79 34.5443 48.8158 36.2962 46.6213 37.9956C46.7365 36.3023 46.8133 34.5746 46.8133 32.7943C46.8133 31.0141 46.7365 29.2864 46.6213 27.593ZM44.15 42.2775C43.7721 45.0318 43.2406 47.6223 42.5778 49.9785C40.1894 49.3702 37.6796 48.5114 35.1335 47.4687C36.6774 46.717 38.2192 45.9229 39.7428 45.0439C41.2826 44.1548 42.7395 43.2252 44.15 42.2775ZM25.5958 45.0439C27.1194 45.9229 28.6612 46.717 30.205 47.4687C27.6589 48.5114 25.1492 49.3702 22.7607 49.9785C22.0959 47.6223 21.5644 45.0318 21.1886 42.2775C22.597 43.2252 24.0539 44.1548 25.5958 45.0439ZM58.9194 47.9497C57.3957 50.5867 53.6493 51.1404 50.7739 51.1404C48.8865 51.1404 46.789 50.8777 44.5783 50.423C45.3988 47.493 46.011 44.2235 46.3849 40.7135C49.2422 38.6322 51.7701 36.466 53.8979 34.2856C58.6466 39.6203 60.7703 44.7448 58.9194 47.9497ZM50.7739 14.4483C53.6493 14.4483 57.3957 15.0019 58.9194 17.639C60.7703 20.8438 58.6466 25.9683 53.8979 31.301C51.768 29.1227 49.2401 26.9545 46.3849 24.8731C46.011 21.3631 45.3988 18.0936 44.5783 15.1636C46.789 14.7109 48.8865 14.4483 50.7739 14.4483ZM32.6683 2.4836C36.3702 2.4836 39.7488 6.89078 41.9939 13.6763C39.0032 14.4442 35.8489 15.5617 32.6683 16.962C29.4876 15.5596 26.3333 14.4442 23.3427 13.6763C25.5877 6.89078 28.9663 2.4836 32.6683 2.4836ZM6.41715 17.639C7.94077 15.0019 11.6872 14.4483 14.5627 14.4483C16.45 14.4483 18.5475 14.7109 20.7582 15.1656C19.9378 18.0956 19.3255 21.3652 18.9516 24.8751C16.0944 26.9565 13.5664 29.1227 11.4386 31.303C6.68995 25.9683 4.56618 20.8438 6.41715 17.639ZM11.4386 34.2876C13.5685 36.466 16.0964 38.6342 18.9516 40.7155C19.3255 44.2255 19.9378 47.495 20.7582 50.4251C18.5475 50.8797 16.45 51.1424 14.5627 51.1424C11.6872 51.1424 7.94077 50.5887 6.41715 47.9517C4.56618 44.7448 6.68995 39.6203 11.4386 34.2876Z" fill="white"/>
</g>
<defs>
<clipPath id="clip0_3578_251">
<rect width="64.6629" height="64.6629" fill="white" transform="translate(0.336914 0.462891)"/>
</clipPath>
</defs>
</svg>
