<svg width="58" height="58" viewBox="0 0 58 58" fill="none" xmlns="http://www.w3.org/2000/svg">
<g clip-path="url(#clip0_2019_1714)">
<path d="M54.1113 14.5004C51.5288 10.024 47.826 6.40078 43.4805 3.89625C39.1316 1.39341 34.1366 0.00390625 28.954 0.00390625C23.8882 0.00571875 18.8932 1.34561 14.4965 3.88379C9.85547 6.56368 6.21982 10.3533 3.75958 14.7199C1.30092 19.0883 0.0018125 24.0284 0 29.0447C0 33.9601 1.25493 38.9515 3.87988 43.5022C6.46417 47.9768 10.1688 51.6 14.5142 54.1028C18.8613 56.6057 23.8599 57.9969 29.0407 57.9969C34.1047 57.9951 39.0997 56.6552 43.4964 54.117C46.84 52.1859 49.718 49.653 52.0066 46.6669C54.2971 43.6791 55.998 40.2382 56.9981 36.5018C57.6672 34.0042 58 31.4626 58 28.9367C58.0018 23.9099 56.6813 18.9467 54.1113 14.5004ZM52.0492 35.1777C51.2191 38.2718 49.8189 41.0949 47.941 43.5482C46.0595 46.0014 43.6999 48.0813 40.9352 49.6777C37.3172 51.7681 33.1984 52.8726 29.0407 52.8726C24.7766 52.8726 20.6579 51.7274 17.0718 49.6636C13.4858 47.598 10.4414 44.6154 8.31903 40.9391C6.15072 37.1813 5.12586 33.0926 5.12416 29.0446C5.12416 24.9151 6.19682 20.8335 8.22343 17.2385C10.252 13.6419 13.2274 10.5356 17.0577 8.32305C20.6773 6.23268 24.7962 5.12818 28.954 5.12818C33.2162 5.12818 37.335 6.27164 40.9229 8.33552C44.5089 10.4029 47.5533 13.3872 49.6738 17.0617C51.7979 20.7415 52.8758 24.8073 52.8775 28.9367C52.8775 31.0129 52.6032 33.1068 52.0492 35.1777Z" fill="#FFB700"/>
<path d="M29.0036 31.7261C29.478 31.7261 29.9488 31.5986 30.3648 31.3614C31.6657 30.6091 32.1118 28.94 31.3613 27.6373C30.8764 26.7965 29.9701 26.2744 28.9984 26.2744C28.5223 26.2744 28.0515 26.4 27.6372 26.6408C26.338 27.3931 25.8884 29.0622 26.6407 30.3631C27.1274 31.2038 28.0319 31.7261 29.0036 31.7261Z" fill="#FFB700"/>
<path d="M31.91 34.0375C31.6498 33.5879 31.0994 33.4021 30.618 33.602C30.618 33.602 30.6923 33.6285 30.2799 33.7418C29.8675 33.8533 29.4356 33.9117 29.0002 33.9117C28.5647 33.9117 28.1346 33.8533 27.7223 33.7418C27.3081 33.6285 27.3842 33.602 27.3842 33.602C26.9046 33.402 26.3505 33.5879 26.0939 34.0375L20.3555 43.9726C20.2139 44.2204 20.1784 44.5178 20.2634 44.7921C20.3465 45.0646 20.5413 45.2912 20.7997 45.4186C20.7997 45.4186 21.3166 45.7355 22.1095 46.054C24.292 46.9337 26.6354 47.3922 29.0002 47.3974C31.3668 47.3921 33.7085 46.9336 35.8927 46.054C36.6856 45.7353 37.2025 45.4186 37.2025 45.4186C37.4592 45.2912 37.6557 45.0646 37.7388 44.7921C37.8238 44.5177 37.7884 44.2203 37.645 43.9726L31.91 34.0375Z" fill="#FFB700"/>
<path d="M44.9337 19.8014C43.7477 17.7535 42.1794 15.9568 40.3245 14.5036C39.6518 13.9779 39.1173 13.6894 39.1173 13.6894C38.8819 13.5283 38.5881 13.4735 38.3067 13.5371C38.027 13.6009 37.7881 13.7797 37.6447 14.0274L31.9098 23.9608C31.6496 24.4104 31.7647 24.9839 32.1754 25.299C32.1754 25.299 32.163 25.2194 32.4692 25.5221C32.7701 25.8229 33.0356 26.1664 33.2551 26.5434C33.4729 26.9222 33.6375 27.324 33.7472 27.7364C33.857 28.1505 33.7932 28.0992 33.7932 28.0992C33.8622 28.6143 34.2977 29.0001 34.8181 29.0001H46.2896C46.5763 29.0001 46.8507 28.8815 47.0454 28.6709C47.2419 28.4603 47.3393 28.1788 47.3198 27.8939C47.3198 27.8939 47.3358 27.2869 47.2154 26.4425C46.8878 24.1114 46.1126 21.8528 44.9337 19.8014Z" fill="#FFB700"/>
<path d="M24.2068 28.0992C24.2068 28.0992 24.1467 28.1505 24.2564 27.7364C24.3644 27.3239 24.5273 26.9221 24.7467 26.5434C24.9661 26.1647 25.23 25.823 25.5344 25.5221C25.837 25.2194 25.8247 25.299 25.8247 25.299C26.2372 24.984 26.3521 24.4104 26.0937 23.9608L20.3554 14.0274C20.2138 13.7795 19.973 13.6008 19.6934 13.5371C19.4137 13.4735 19.1198 13.5283 18.8827 13.6894C18.8827 13.6894 18.3481 13.9779 17.6773 14.5036C15.8241 15.9568 14.254 17.7535 13.0664 19.8014C11.8893 21.8528 11.1158 24.1114 10.7848 26.4425C10.6662 27.2868 10.6822 27.8939 10.6822 27.8939C10.6627 28.179 10.7583 28.4603 10.9565 28.6709C11.1513 28.8815 11.4256 29.0001 11.7123 29.0001H23.1839C23.7041 29.0001 24.1395 28.6143 24.2068 28.0992Z" fill="#FFB700"/>
</g>
<defs>
<clipPath id="clip0_2019_1714">
<rect width="58" height="58" fill="white"/>
</clipPath>
</defs>
</svg>
