<svg width="65" height="65" viewBox="0 0 65 65" fill="none" xmlns="http://www.w3.org/2000/svg">
<g clip-path="url(#clip0_3578_232)">
<path d="M63.6974 62.6056H62.1507C57.2074 53.5863 56.2643 40.6923 56.1334 33.9738C56.1522 33.8972 56.1631 33.8177 56.1631 33.7355C56.1631 33.6411 56.1491 33.5503 56.1247 33.4638C56.0906 31.0662 56.1591 29.5737 56.1617 29.5187C56.1754 29.2451 56.0764 28.9776 55.8875 28.7793C55.6986 28.5807 55.4368 28.4683 55.1628 28.4683H37.2028C37.0232 26.4309 36.9622 25.2067 36.9597 25.1547C36.9348 24.621 36.495 24.201 35.9607 24.201H12.4913C11.957 24.201 11.5171 24.621 11.4922 25.1548C11.4819 25.3795 10.3782 47.5264 3.32469 62.6057H1.8234C1.27111 62.6057 0.823242 63.0535 0.823242 63.6059C0.823242 64.158 1.27099 64.6058 1.8234 64.6058H63.6975C64.2498 64.6058 64.6977 64.158 64.6977 63.6056C64.6975 63.0533 64.2498 62.6056 63.6974 62.6056ZM54.129 30.4683C54.1157 31.0284 54.1053 31.7973 54.1097 32.7353H37.643C37.5481 31.9285 37.4654 31.1703 37.3935 30.4683H54.129ZM13.4337 26.2012H35.0186C35.0547 26.7488 35.1106 27.5175 35.1922 28.4682H13.26C13.3417 27.5175 13.3974 26.7488 13.4337 26.2012ZM5.52274 62.6056C7.60028 57.9396 10.2084 50.2987 12.0126 38.7668C12.5092 35.5925 12.8476 32.7326 13.0739 30.4685H35.3781C35.6045 32.7326 35.9429 35.5926 36.4394 38.7668C38.2436 50.2987 40.8517 57.9398 42.9292 62.6056H5.52274ZM45.1273 62.6056C41.0108 53.8049 38.9204 42.59 37.8917 34.7356H54.1408C54.1915 36.7021 54.3117 39.1042 54.5677 41.7562C55.3876 50.251 57.1763 57.253 59.8894 62.6056H45.1273Z" fill="white"/>
<path d="M24.2261 45.5314C23.6738 45.5314 23.2207 45.9845 23.2207 46.5368C23.2207 47.0891 23.6738 47.5423 24.2261 47.5423C24.7784 47.5423 25.2315 47.0892 25.2315 46.5368C25.2315 45.9846 24.7784 45.5314 24.2261 45.5314Z" fill="white"/>
<path d="M23.4836 43.2797L20.7931 38.6674C20.6594 38.4382 20.4401 38.2714 20.1833 38.2041C19.9267 38.1367 19.6536 38.1739 19.4245 38.308C16.5051 40.015 14.6914 43.1682 14.6914 46.5369C14.6914 47.0892 15.1391 47.5371 15.6916 47.5371H21.0256C21.5779 47.5371 22.0257 47.0893 22.0257 46.5369C22.0257 45.7561 22.4365 45.0496 23.1248 44.647C23.6011 44.3684 23.7618 43.7564 23.4836 43.2797ZM20.149 45.5369H16.7595C17.0239 43.5919 18.0499 41.8104 19.6036 40.5979L21.3129 43.5282C20.7444 44.0773 20.3399 44.7755 20.149 45.5369Z" fill="white"/>
<path d="M29.0276 38.3082C28.7984 38.1742 28.5254 38.1367 28.2687 38.2042C28.0119 38.2717 27.7926 38.4384 27.6589 38.6676L24.9684 43.2799C24.6903 43.7566 24.851 44.3685 25.3273 44.6471C26.0156 45.0496 26.4264 45.756 26.4264 46.537C26.4264 47.0892 26.8742 47.5371 27.4266 47.5371H32.7606C33.3129 47.5371 33.7607 47.0894 33.7607 46.537C33.7607 43.1681 31.9471 40.0149 29.0276 38.3082ZM28.303 45.5367V45.5368C28.1121 44.7754 27.7075 44.0773 27.1391 43.5281L28.8484 40.5978C30.4022 41.8101 31.4282 43.5916 31.6926 45.5367H28.303Z" fill="white"/>
<path d="M29.4698 53.3331L26.724 48.7568C26.5874 48.5291 26.3659 48.3652 26.1084 48.301C25.8511 48.2369 25.5784 48.2776 25.3509 48.4144C24.6387 48.8429 23.8127 48.8429 23.1005 48.4144C22.8729 48.2776 22.6005 48.2369 22.343 48.301C22.0854 48.3652 21.864 48.5292 21.7274 48.7568L18.9816 53.333C18.6975 53.8065 18.8507 54.4202 19.3238 54.7047C20.8105 55.5988 22.5057 56.0714 24.2258 56.0714C25.9459 56.0714 27.6409 55.5988 29.1277 54.7048C29.6007 54.4204 29.7539 53.8066 29.4698 53.3331ZM24.2258 54.0711C23.2008 54.0711 22.1864 53.8579 21.2449 53.449L22.9878 50.544C23.7927 50.7991 24.6588 50.7991 25.4637 50.544L27.2066 53.449C26.265 53.8579 25.2506 54.0711 24.2258 54.0711Z" fill="white"/>
<path d="M58.3631 6.06545C57.3729 6.06545 56.4179 6.29337 55.5498 6.72939C54.9583 5.62556 53.9715 4.73956 52.7601 4.28108C52.0587 4.01573 51.336 3.90707 50.6026 3.95622C49.2304 1.95129 46.9485 0.731445 44.4947 0.731445C42.5539 0.731445 40.6877 1.5038 39.3059 2.865H35.9604C28.9383 2.865 23.2256 8.57775 23.2256 15.5998V20.9338C23.2256 21.4861 23.6733 21.934 24.2257 21.934C24.7782 21.934 25.2259 21.4862 25.2259 20.9338C25.2259 16.0922 28.4539 11.9022 33.0337 10.6126C33.6508 12.8474 35.6872 14.4664 38.0941 14.4664C38.7766 14.4664 39.4417 14.3311 40.0793 14.0635C40.4847 14.3662 40.9176 14.6247 41.3706 14.8371C41.5286 17.6005 43.8262 19.8004 46.6284 19.8004C47.414 19.8004 48.1794 19.6265 48.8808 19.2927C50.0317 20.3013 51.5043 20.8673 53.0292 20.8673C54.8477 20.8673 56.5817 20.0686 57.7797 18.7042C57.9774 18.7239 58.1711 18.7336 58.3631 18.7336C61.8556 18.7336 64.6971 15.8921 64.6971 12.3996C64.6971 8.90698 61.8556 6.06545 58.3631 6.06545ZM40.8838 12.1386C40.562 11.8482 40.0894 11.7983 39.7139 12.0152C39.1959 12.3144 38.651 12.4661 38.094 12.4661C36.3551 12.4661 34.9284 11.0982 34.8461 9.35185C34.8325 9.0638 34.6953 8.7957 34.4695 8.61618C34.2437 8.43666 33.9512 8.36342 33.6678 8.41507C30.1702 9.05219 27.2266 11.0807 25.3655 13.8671C26.1961 8.76875 30.6309 4.86518 35.9604 4.86518H39.7333C40.0175 4.86518 40.2883 4.74442 40.4779 4.53284C41.5046 3.38809 42.9687 2.73151 44.4947 2.73151C46.455 2.73151 48.2651 3.79916 49.2188 5.51753C49.4306 5.89927 49.8657 6.0995 50.2934 6.01218C50.901 5.88817 51.4764 5.93358 52.0521 6.15153C53.1149 6.55374 53.9006 7.47679 54.1027 8.56016C54.2885 9.55583 54.0426 10.5234 53.4102 11.2847C52.7867 12.0354 51.87 12.466 50.8955 12.466C50.3386 12.466 49.7935 12.3143 49.2754 12.0151C48.8999 11.7983 48.4275 11.8482 48.1056 12.1385C47.1087 13.0377 45.8262 13.5328 44.4947 13.5328C43.1632 13.533 41.8807 13.0378 40.8838 12.1386ZM58.3631 16.7333C58.1058 16.7333 57.838 16.706 57.5439 16.6497C57.1612 16.5765 56.7706 16.7322 56.5433 17.0488C55.7262 18.1872 54.4126 18.8669 53.0291 18.8669C51.7864 18.8669 50.6376 18.3405 49.7943 17.3848C49.4595 17.0052 48.8938 16.9359 48.4769 17.2229C47.929 17.6005 47.2897 17.8 46.6283 17.8C45.1502 17.8 43.899 16.813 43.4971 15.4638C43.826 15.5087 44.159 15.5331 44.4946 15.5331C46.0915 15.5331 47.6353 15.0155 48.9102 14.0633C49.5477 14.3311 50.2128 14.4663 50.8954 14.4663C52.4665 14.4663 53.9439 13.7727 54.9487 12.563C55.8469 11.4817 56.2667 10.0936 56.1364 8.69103C56.8075 8.28221 57.5684 8.06564 58.3629 8.06564C60.7526 8.06564 62.6968 10.0097 62.6968 12.3995C62.6968 14.7893 60.7526 16.7333 58.3631 16.7333Z" fill="white"/>
</g>
<defs>
<clipPath id="clip0_3578_232">
<rect width="63.8743" height="63.8743" fill="white" transform="translate(0.823242 0.731445)"/>
</clipPath>
</defs>
</svg>
