<svg width="35" height="36" viewBox="0 0 35 36" fill="none" xmlns="http://www.w3.org/2000/svg">
<path d="M18.8057 35.0193H15.9576L14.0443 34.726C7.1919 33.3964 1.63054 27.792 0.31096 20.8885L0.0199012 18.9607C0.0663276 18.0215 -0.042596 17.023 0.0199012 16.091C0.507379 8.85375 5.99999 2.42526 12.8907 0.598182C25.8187 -2.82927 37.5834 9.02467 34.1817 22.0508C32.3684 28.9938 25.9884 34.5281 18.8057 35.0193ZM17.1638 2.1023C4.95807 2.27952 -2.18535 16.2322 4.84736 26.3625C10.9132 35.1003 23.7947 35.1201 29.8873 26.4021C37.0763 16.1153 29.5891 1.92238 17.1647 2.1023H17.1638Z" fill="#144C84"/>
<path d="M14.2266 21.6325C15.7042 22.5285 17.2345 22.9144 18.9264 22.3962C19.5032 22.2199 20.0067 21.8556 20.571 21.6541L24.203 29.0748C23.2352 29.6029 22.2406 30.0914 21.1799 30.4053C17.622 31.4597 13.7981 30.9649 10.5991 29.1054L14.2266 21.6316V21.6325ZM19.6184 24.3582C18.2077 24.8629 16.5551 24.8629 15.1445 24.3582L13.3124 28.1158C15.9757 29.0775 18.7871 29.0775 21.4504 28.1158L19.6184 24.3582Z" fill="#144C84"/>
<path d="M11.0011 5.84351L15.4062 12.6507C15.4214 12.7326 15.3607 12.7623 15.3151 12.8109C15.0044 13.1428 14.2214 13.5035 13.8179 13.9002C12.6858 15.0157 12.2046 16.7106 12.2956 18.2777L4.08887 17.7991C4.13708 15.8587 4.46653 13.9992 5.22989 12.2171C6.37269 9.54982 8.48599 7.22798 11.0011 5.84351ZM10.3957 16.0908C10.6805 14.5696 11.5019 13.1986 12.6233 12.1613L10.3627 8.77887C8.22975 10.5745 6.81821 13.0519 6.32716 15.8155L10.3957 16.0899V16.0908Z" fill="#144C84"/>
<path d="M30.6752 17.7991L22.4684 18.2777C22.5595 16.7115 22.0782 15.0157 20.9461 13.9002C20.5435 13.5035 19.7596 13.1428 19.4489 12.8109C19.4042 12.7632 19.3426 12.7326 19.3578 12.6507L23.763 5.84351C26.278 7.22798 28.3913 9.54982 29.5341 12.2171C30.2975 13.9992 30.627 15.8587 30.6752 17.7991ZM28.436 15.8164C27.9449 13.0528 26.5334 10.5754 24.4004 8.77977L22.1398 12.1622C23.2603 13.1995 24.0817 14.5705 24.3674 16.0917L28.436 15.8173V15.8164Z" fill="#144C84"/>
<path d="M16.8215 14.4663C19.2286 14.1182 21.1079 16.3438 20.2437 18.6656C19.2732 21.2735 15.4412 21.2403 14.5011 18.617C13.8743 16.8691 14.9538 14.7371 16.8215 14.4663ZM17.359 16.5264C16.0609 16.5579 16.11 18.555 17.4054 18.5244C18.7036 18.4929 18.6545 16.4958 17.359 16.5264Z" fill="#144C84"/>
</svg>
