<svg width="35" height="36" viewBox="0 0 35 36" fill="none" xmlns="http://www.w3.org/2000/svg">
<path d="M13.0186 1.08105C25.5692 -2.24636 37.005 9.26193 33.6982 21.9248C31.9373 28.6668 25.7356 34.039 18.7822 34.5195H15.9951L14.124 34.2314C7.48727 32.9368 2.09137 27.5037 0.804688 20.8125L0.520508 18.9287C0.540999 18.4537 0.52661 17.9683 0.513672 17.5088C0.499995 17.023 0.489183 16.5635 0.518555 16.125C0.99119 9.10812 6.32881 2.85493 13.0186 1.08105ZM17.1562 1.60254C4.54526 1.78584 -2.82122 16.1927 4.43652 26.6475C10.7008 35.6711 24.0049 35.6917 30.2969 26.6885C37.7144 16.0746 29.9986 1.42254 17.165 1.60254H17.1562Z" fill="white" stroke="white"/>
<path d="M23.5396 28.8591C22.7213 29.2894 21.8989 29.6706 21.0376 29.9255C17.7635 30.8957 14.2527 30.5028 11.2554 28.8982L14.4438 22.3289C15.77 23.0308 17.183 23.3436 18.7251 22.9695L19.0728 22.8748C19.409 22.7719 19.7153 22.6166 19.9819 22.4792C20.1053 22.4157 20.2201 22.3557 20.3306 22.3015L23.5396 28.8591ZM19.4497 23.8875C18.148 24.3531 16.6147 24.3531 15.313 23.8875L14.8911 23.7371L14.6948 24.1394L12.8628 27.8962L12.6187 28.3972L13.1431 28.5857C15.916 29.5869 18.8477 29.5869 21.6206 28.5857L22.144 28.3972L21.8999 27.8962L20.0679 24.1394L19.8716 23.7371L19.4497 23.8875Z" fill="white" stroke="white"/>
<path d="M14.7832 12.6082C14.6715 12.6903 14.522 12.7888 14.333 12.9089C14.0615 13.0816 13.715 13.3007 13.4678 13.5437H13.4668C12.3474 14.6467 11.8225 16.2316 11.7881 17.7458L4.60938 17.3279C4.6961 15.6139 5.0189 13.9793 5.68945 12.4138C6.7267 9.99301 8.59977 7.86478 10.8398 6.5144L14.7832 12.6082ZM10.041 8.39624C7.81665 10.2688 6.34605 12.8519 5.83496 15.7283L5.7373 16.2771L6.29395 16.3142L10.3623 16.5886L10.3916 16.1365L10.8867 16.1824C11.1496 14.7785 11.9113 13.5007 12.9629 12.5281L13.2764 12.238L13.0391 11.8835L10.7783 8.50073L10.4678 8.03687L10.041 8.39624Z" fill="white" stroke="white"/>
<path d="M23.9238 6.5144C26.164 7.86475 28.0369 9.99297 29.0742 12.4138C29.7448 13.9792 30.0676 15.6139 30.1543 17.3279L22.9756 17.7458C22.9411 16.2322 22.4162 14.6466 21.2969 13.5437C21.0499 13.3005 20.7031 13.0815 20.4316 12.9089C20.2424 12.7886 20.0922 12.6903 19.9805 12.6082L23.9238 6.5144ZM28.9355 15.7722L28.9287 15.7292C28.4176 12.8529 26.947 10.2698 24.7227 8.39722L24.2949 8.03784L23.9844 8.50171L21.7246 11.8845L21.4873 12.239L21.7998 12.5291C22.8506 13.5018 23.6123 14.7801 23.876 16.1843L23.958 16.6208L24.4014 16.5906L28.4697 16.3162L28.9355 16.2849V15.7722Z" fill="white" stroke="white"/>
<path d="M16.8936 14.9614C18.9385 14.6659 20.5018 16.5382 19.7754 18.4907V18.4917C18.969 20.6577 15.7563 20.6372 14.9717 18.4487C14.4352 16.9527 15.3849 15.1801 16.8936 14.9614ZM17.3467 16.0269C16.8823 16.0382 16.504 16.2311 16.251 16.5376C16.0065 16.834 15.9017 17.2083 15.9102 17.561C15.9187 17.9136 16.0409 18.2818 16.2988 18.5659C16.5659 18.86 16.9528 19.0348 17.417 19.0239H17.418C17.8823 19.0126 18.2607 18.8197 18.5137 18.5132C18.7582 18.2168 18.8629 17.8424 18.8545 17.4897C18.846 17.1372 18.7238 16.769 18.4658 16.4849C18.1988 16.1907 17.8118 16.016 17.3477 16.0269H17.3467Z" fill="white" stroke="white"/>
</svg>
