<svg width="25" height="25" viewBox="0 0 25 25" fill="none" xmlns="http://www.w3.org/2000/svg">
<path d="M22.6562 9.20742C22.6562 9.01484 22.5035 8.82891 22.2223 8.65352V3.24688C22.5035 3.07148 22.6562 2.88555 22.6562 2.69336C22.6562 1.63672 18.1098 0.78125 12.5 0.78125C6.89102 0.78125 2.34375 1.63672 2.34375 2.69336C2.34375 2.88594 2.49648 3.07148 2.77773 3.24688V8.65391C2.49648 8.8293 2.34375 9.01484 2.34375 9.20742C2.34375 9.4 2.49648 9.58594 2.77773 9.76094V15.2387C2.49648 15.4141 2.34375 15.6 2.34375 15.7926C2.34375 15.9852 2.49648 16.1711 2.77773 16.3461V21.7531C2.49648 21.9285 2.34375 22.1141 2.34375 22.3066C2.34375 23.3625 6.89102 24.2188 12.5 24.2188C18.1098 24.2188 22.6562 23.3625 22.6562 22.3066C22.6562 22.1141 22.5035 21.9281 22.2223 21.7527V16.3465C22.5035 16.1707 22.6562 15.9852 22.6562 15.7926C22.6562 15.6 22.5035 15.4141 22.2223 15.2387V9.76133C22.5035 9.58594 22.6562 9.4 22.6562 9.20742ZM12.5 1.5625C17.516 1.5625 20.6305 2.22344 21.6238 2.69297C20.6301 3.1625 17.5164 3.82383 12.5 3.82383C7.48438 3.82383 4.36992 3.1625 3.37578 2.69297C4.36992 2.22344 7.48398 1.5625 12.5 1.5625ZM12.5 23.3684C8.04883 23.3684 4.26758 22.4758 2.89531 21.7254C5.32773 22.084 8.73125 22.6605 12.5 22.6605C16.2688 22.6605 19.6723 22.084 22.1043 21.7254C20.7328 22.4758 16.9512 23.3684 12.5 23.3684ZM12.5 16.9965C8.04883 16.9965 4.26758 16.1031 2.89531 15.3531C5.32773 15.7117 8.73125 16.2887 12.5 16.2887C16.2688 16.2887 19.6723 15.7117 22.1043 15.3531C20.7328 16.1031 16.9512 16.9965 12.5 16.9965ZM12.5 10.4109C8.04883 10.4109 4.26758 9.51797 2.89531 8.76797C5.32773 9.12578 8.73125 9.70312 12.5 9.70312C16.2688 9.70312 19.6723 9.12578 22.1043 8.76797C20.7328 9.51797 16.9512 10.4109 12.5 10.4109Z" fill="white"/>
<path d="M6.90233 3.07539C7.7409 3.07539 8.42069 2.90417 8.42069 2.69297C8.42069 2.48176 7.7409 2.31055 6.90233 2.31055C6.06376 2.31055 5.38397 2.48176 5.38397 2.69297C5.38397 2.90417 6.06376 3.07539 6.90233 3.07539Z" fill="white"/>
</svg>
