<svg width="57" height="47" viewBox="0 0 57 47" fill="none" xmlns="http://www.w3.org/2000/svg">
<path fill-rule="evenodd" clip-rule="evenodd" d="M7.98012 2.57717L10.0736 0.9375H46.926L49.0193 2.57717L56.4681 32.7646L54.3748 35.4375H30.6561V41.9062H39.2811V46.2188H17.7186V41.9062H26.3436V35.4375H2.62471L0.53125 32.7646L7.98012 2.57717ZM11.7624 5.25L9.10214 16.0312H19.754L22.4143 5.25H11.7624ZM5.3777 31.125L8.03802 20.3438H18.6899L16.0296 31.125H5.3777ZM20.4714 31.125L23.1316 20.3438H34.8478L37.5081 31.125H20.4714ZM31.1233 5.25L33.7838 16.0312H24.196L26.8562 5.25H31.1233ZM35.5651 5.25L38.2254 16.0312H47.8975L45.2369 5.25H35.5651ZM41.9499 31.125L39.2897 20.3438H48.9615L51.6217 31.125H41.9499Z" fill="#FF0000"/>
</svg>
