<svg width="34" height="34" viewBox="0 0 34 34" fill="none" xmlns="http://www.w3.org/2000/svg">
<mask id="path-1-inside-1_3605_36" fill="white">
<path d="M32.0885 0C32.8597 0.254783 33.5747 0.82509 33.6693 1.68646V24.6152C33.5588 25.5137 33.0506 26.278 32.8061 27.1327C32.8094 27.266 33.0196 27.2997 33.1351 27.401C33.3914 27.6262 33.5739 27.8515 33.6626 28.194C33.563 29.6577 33.8083 31.3256 33.6702 32.7649C33.6208 33.2762 33.0271 33.8768 32.5197 33.9241C29.9367 34.1662 26.9835 33.7351 24.3611 33.9224C23.6854 33.784 23.2149 33.1732 23.147 32.4957C23.0533 31.5643 23.0558 29.5219 23.147 28.588C23.1822 28.2319 23.3329 27.8236 23.5716 27.5579C23.6988 27.4153 23.9659 27.3723 23.9266 27.1462L21.4725 22.3222L11.7782 22.334C11.6275 23.6374 11.1369 24.8514 10.7291 26.084C10.7249 26.1616 11.2491 26.5657 11.3655 26.7438C11.522 26.9833 11.6125 27.3098 11.6384 27.595C11.7464 28.7947 11.7473 31.1636 11.6384 32.3633C11.5714 33.1066 11.1863 33.7596 10.4243 33.9232L2.26572 33.9249C1.6478 33.8701 1.11947 33.2331 1.05248 32.6299C0.869114 30.9856 1.1898 29.0098 1.05248 27.3292C0.985498 26.9614 1.53476 26.5565 1.57746 26.3346C1.69804 25.7001 1.56323 24.3132 1.39829 23.6686C1.02653 22.215 0.305613 20.8272 0 19.3466V13.4503C0.126432 13.209 0.144852 12.9374 0.251189 12.6767C0.60369 11.812 1.28441 11.2914 2.09492 10.8907L2.11082 1.76407C2.26238 0.878234 2.91965 0.264907 3.74774 0.000844475H32.0877L32.0885 0ZM32.6152 17.5564V1.82143C32.6152 1.47469 31.8298 0.969358 31.4673 1.0571H4.43767C3.52502 1.12037 3.22191 1.42998 3.15577 2.34871L3.15828 12.7206C3.52167 12.6986 3.89175 12.7298 4.21076 12.9188V3.34507C4.21076 2.88781 5.06313 2.09899 5.55881 2.11924L30.2188 2.11671C30.7765 2.08127 31.6297 2.88444 31.6297 3.41172V17.5564C31.9671 17.4864 32.2803 17.4433 32.616 17.5564H32.6152ZM30.5111 17.0266V3.54418C30.5111 3.29193 29.9718 3.14766 29.7575 3.17718H6.01513C5.76394 3.20249 5.45917 3.22949 5.34111 3.49186L5.3252 13.8148C5.61993 14.5142 5.80916 15.1638 5.85521 15.9307C5.89372 16.5659 5.74134 17.6154 5.86609 18.1722C5.90126 18.3309 6.56021 19.1526 6.80135 19.0851L20.1864 19.0817C20.1629 17.2543 22.4638 16.5381 23.528 17.9993L24.197 19.0809V14.3767H19.3641C19.3122 14.3767 19.0811 14.175 19.0384 14.1092C18.8283 13.787 18.9748 13.4014 19.3147 13.2681L24.1945 13.247C24.3594 11.137 27.2699 11.1311 27.4198 13.2495C27.9757 13.339 29.719 12.8986 29.5122 13.9295C29.4854 14.0611 29.2049 14.3758 29.096 14.3758H27.4189V16.4959C27.9138 16.3618 28.4396 16.4335 28.8616 16.7321C28.9688 16.8081 29.2258 17.1346 29.292 17.1396C29.3288 17.1422 29.7098 16.9743 29.8856 16.9608C30.1083 16.9431 30.2984 16.9641 30.5094 17.0257L30.5111 17.0266ZM2.10496 12.1899C1.30869 12.4987 1.09853 13.5077 1.04997 14.2737C0.953681 15.7948 0.931911 18.3655 1.28274 19.8081C1.50127 20.7057 2.63078 23.2654 2.63078 23.8829V25.9701H9.73189L10.6521 22.3264H7.89068C7.85886 22.3264 7.95431 22.7044 7.56497 22.8275C6.71846 23.0967 6.85494 21.9915 6.75614 21.5148C6.46141 20.089 4.84711 19.2639 4.73407 18.2515C4.60345 17.0789 5.11588 14.785 3.94199 14.0147C3.55935 13.7633 3.25206 13.7068 3.17419 14.2282C3.00171 15.3865 3.26713 16.8638 3.15996 18.0558C3.08041 18.9442 2.10496 18.546 2.10496 18.2515V12.1891V12.1899ZM29.3765 20.5868C29.1295 20.8154 28.6431 20.7412 28.4882 20.4231C28.2286 19.8899 28.5392 18.5114 28.3927 17.8685C28.2897 17.4146 27.5454 17.4349 27.434 17.9343C27.3 18.535 27.4985 19.5204 27.4214 20.1742C27.3377 20.8922 26.374 20.9318 26.2986 20.1093C26.0977 17.9031 26.4585 15.3924 26.2978 13.1542C26.2208 12.6666 25.5693 12.6632 25.35 13.0521C25.2378 15.8387 25.4036 18.6624 25.2654 21.4473C25.0703 21.789 24.6977 21.9358 24.3921 21.6329L22.6103 18.5916C22.1557 18.1259 21.3284 18.3081 21.2514 18.9973C21.2213 19.2622 21.6968 20.1877 21.8392 20.4957C22.8498 22.6849 24.0522 24.7898 25.046 26.9884L25.149 27.034L31.6623 26.9639C31.9219 26.0452 32.4913 25.2403 32.6135 24.2786L32.5859 18.8758C32.4862 18.5662 32.0115 18.5198 31.7896 18.7434C31.3408 19.1956 32.0274 20.591 31.1842 20.7226C30.0799 20.8947 30.707 18.8387 30.4625 18.2988C30.3202 17.985 29.7642 17.9985 29.5992 18.3249C29.3548 18.8084 29.7232 20.2628 29.3765 20.5851V20.5868ZM20.5163 20.2063H7.431C7.58757 20.5142 7.75001 20.8458 7.76006 21.2001H20.9768L20.5163 20.2063ZM2.48091 27.1107C2.18785 27.1791 2.12506 27.5292 2.10245 27.789C2.007 28.8824 1.99779 31.1467 2.1058 32.23C2.12422 32.4181 2.18451 32.7429 2.36955 32.8256H10.2577C10.4562 32.6805 10.503 32.5379 10.5248 32.3C10.6613 30.8076 10.416 29.1068 10.5231 27.5916C10.5097 27.2854 10.2686 27.0787 9.96633 27.093L2.48175 27.1107H2.48091ZM24.6399 28.1712C24.3553 28.2606 24.2858 28.4378 24.2615 28.7171C24.1526 29.9345 24.3209 31.3653 24.2992 32.5945L24.5294 32.8265C27.1493 32.8746 29.7901 32.9032 32.4025 32.8121C32.5926 32.7159 32.6009 32.5574 32.6185 32.3675C32.7282 31.167 32.5281 29.8037 32.6185 28.5846C32.6001 28.3121 32.3138 28.1433 32.0592 28.1543L24.6399 28.1712Z"/>
</mask>
<path d="M32.0885 0C32.8597 0.254783 33.5747 0.82509 33.6693 1.68646V24.6152C33.5588 25.5137 33.0506 26.278 32.8061 27.1327C32.8094 27.266 33.0196 27.2997 33.1351 27.401C33.3914 27.6262 33.5739 27.8515 33.6626 28.194C33.563 29.6577 33.8083 31.3256 33.6702 32.7649C33.6208 33.2762 33.0271 33.8768 32.5197 33.9241C29.9367 34.1662 26.9835 33.7351 24.3611 33.9224C23.6854 33.784 23.2149 33.1732 23.147 32.4957C23.0533 31.5643 23.0558 29.5219 23.147 28.588C23.1822 28.2319 23.3329 27.8236 23.5716 27.5579C23.6988 27.4153 23.9659 27.3723 23.9266 27.1462L21.4725 22.3222L11.7782 22.334C11.6275 23.6374 11.1369 24.8514 10.7291 26.084C10.7249 26.1616 11.2491 26.5657 11.3655 26.7438C11.522 26.9833 11.6125 27.3098 11.6384 27.595C11.7464 28.7947 11.7473 31.1636 11.6384 32.3633C11.5714 33.1066 11.1863 33.7596 10.4243 33.9232L2.26572 33.9249C1.6478 33.8701 1.11947 33.2331 1.05248 32.6299C0.869114 30.9856 1.1898 29.0098 1.05248 27.3292C0.985498 26.9614 1.53476 26.5565 1.57746 26.3346C1.69804 25.7001 1.56323 24.3132 1.39829 23.6686C1.02653 22.215 0.305613 20.8272 0 19.3466V13.4503C0.126432 13.209 0.144852 12.9374 0.251189 12.6767C0.60369 11.812 1.28441 11.2914 2.09492 10.8907L2.11082 1.76407C2.26238 0.878234 2.91965 0.264907 3.74774 0.000844475H32.0877L32.0885 0ZM32.6152 17.5564V1.82143C32.6152 1.47469 31.8298 0.969358 31.4673 1.0571H4.43767C3.52502 1.12037 3.22191 1.42998 3.15577 2.34871L3.15828 12.7206C3.52167 12.6986 3.89175 12.7298 4.21076 12.9188V3.34507C4.21076 2.88781 5.06313 2.09899 5.55881 2.11924L30.2188 2.11671C30.7765 2.08127 31.6297 2.88444 31.6297 3.41172V17.5564C31.9671 17.4864 32.2803 17.4433 32.616 17.5564H32.6152ZM30.5111 17.0266V3.54418C30.5111 3.29193 29.9718 3.14766 29.7575 3.17718H6.01513C5.76394 3.20249 5.45917 3.22949 5.34111 3.49186L5.3252 13.8148C5.61993 14.5142 5.80916 15.1638 5.85521 15.9307C5.89372 16.5659 5.74134 17.6154 5.86609 18.1722C5.90126 18.3309 6.56021 19.1526 6.80135 19.0851L20.1864 19.0817C20.1629 17.2543 22.4638 16.5381 23.528 17.9993L24.197 19.0809V14.3767H19.3641C19.3122 14.3767 19.0811 14.175 19.0384 14.1092C18.8283 13.787 18.9748 13.4014 19.3147 13.2681L24.1945 13.247C24.3594 11.137 27.2699 11.1311 27.4198 13.2495C27.9757 13.339 29.719 12.8986 29.5122 13.9295C29.4854 14.0611 29.2049 14.3758 29.096 14.3758H27.4189V16.4959C27.9138 16.3618 28.4396 16.4335 28.8616 16.7321C28.9688 16.8081 29.2258 17.1346 29.292 17.1396C29.3288 17.1422 29.7098 16.9743 29.8856 16.9608C30.1083 16.9431 30.2984 16.9641 30.5094 17.0257L30.5111 17.0266ZM2.10496 12.1899C1.30869 12.4987 1.09853 13.5077 1.04997 14.2737C0.953681 15.7948 0.931911 18.3655 1.28274 19.8081C1.50127 20.7057 2.63078 23.2654 2.63078 23.8829V25.9701H9.73189L10.6521 22.3264H7.89068C7.85886 22.3264 7.95431 22.7044 7.56497 22.8275C6.71846 23.0967 6.85494 21.9915 6.75614 21.5148C6.46141 20.089 4.84711 19.2639 4.73407 18.2515C4.60345 17.0789 5.11588 14.785 3.94199 14.0147C3.55935 13.7633 3.25206 13.7068 3.17419 14.2282C3.00171 15.3865 3.26713 16.8638 3.15996 18.0558C3.08041 18.9442 2.10496 18.546 2.10496 18.2515V12.1891V12.1899ZM29.3765 20.5868C29.1295 20.8154 28.6431 20.7412 28.4882 20.4231C28.2286 19.8899 28.5392 18.5114 28.3927 17.8685C28.2897 17.4146 27.5454 17.4349 27.434 17.9343C27.3 18.535 27.4985 19.5204 27.4214 20.1742C27.3377 20.8922 26.374 20.9318 26.2986 20.1093C26.0977 17.9031 26.4585 15.3924 26.2978 13.1542C26.2208 12.6666 25.5693 12.6632 25.35 13.0521C25.2378 15.8387 25.4036 18.6624 25.2654 21.4473C25.0703 21.789 24.6977 21.9358 24.3921 21.6329L22.6103 18.5916C22.1557 18.1259 21.3284 18.3081 21.2514 18.9973C21.2213 19.2622 21.6968 20.1877 21.8392 20.4957C22.8498 22.6849 24.0522 24.7898 25.046 26.9884L25.149 27.034L31.6623 26.9639C31.9219 26.0452 32.4913 25.2403 32.6135 24.2786L32.5859 18.8758C32.4862 18.5662 32.0115 18.5198 31.7896 18.7434C31.3408 19.1956 32.0274 20.591 31.1842 20.7226C30.0799 20.8947 30.707 18.8387 30.4625 18.2988C30.3202 17.985 29.7642 17.9985 29.5992 18.3249C29.3548 18.8084 29.7232 20.2628 29.3765 20.5851V20.5868ZM20.5163 20.2063H7.431C7.58757 20.5142 7.75001 20.8458 7.76006 21.2001H20.9768L20.5163 20.2063ZM2.48091 27.1107C2.18785 27.1791 2.12506 27.5292 2.10245 27.789C2.007 28.8824 1.99779 31.1467 2.1058 32.23C2.12422 32.4181 2.18451 32.7429 2.36955 32.8256H10.2577C10.4562 32.6805 10.503 32.5379 10.5248 32.3C10.6613 30.8076 10.416 29.1068 10.5231 27.5916C10.5097 27.2854 10.2686 27.0787 9.96633 27.093L2.48175 27.1107H2.48091ZM24.6399 28.1712C24.3553 28.2606 24.2858 28.4378 24.2615 28.7171C24.1526 29.9345 24.3209 31.3653 24.2992 32.5945L24.5294 32.8265C27.1493 32.8746 29.7901 32.9032 32.4025 32.8121C32.5926 32.7159 32.6009 32.5574 32.6185 32.3675C32.7282 31.167 32.5281 29.8037 32.6185 28.5846C32.6001 28.3121 32.3138 28.1433 32.0592 28.1543L24.6399 28.1712Z" fill="white" stroke="white" stroke-width="2" mask="url(#path-1-inside-1_3605_36)"/>
<path d="M7.20459 9.59717C9.15104 4.84718 16.1837 5.42743 17.3003 10.4419C17.3813 10.806 17.4512 11.456 17.4839 12.1304C17.5167 12.8085 17.508 13.4478 17.4536 13.7974V13.7983C17.4532 13.8012 17.4498 13.8085 17.4429 13.8188C13.9529 13.9553 10.4825 13.8308 6.93896 13.8784C6.93261 13.8783 6.91826 13.878 6.89795 13.8745C6.8773 13.871 6.85517 13.8663 6.83447 13.8599C6.82723 13.8576 6.82074 13.8542 6.81494 13.8521C6.81313 13.8469 6.81146 13.8414 6.81006 13.8364L6.80713 13.8218L6.76709 13.3569C6.73886 12.8555 6.74579 12.2549 6.79541 11.6548C6.85383 10.9483 6.96798 10.2818 7.13135 9.79443L7.20459 9.59717ZM12.2251 6.96045C12.2269 7.14914 12.1999 7.34337 12.146 7.45947C12.1379 7.47687 12.1297 7.48786 12.1245 7.49561C12.1208 7.49521 12.116 7.49646 12.1108 7.49561C12.1087 7.49525 12.1067 7.49498 12.105 7.49463C12.0972 7.47902 12.0828 7.44178 12.0737 7.37061C12.063 7.28629 12.064 7.20217 12.064 7.10303C12.0639 7.06639 12.0642 6.99613 12.0562 6.93311C12.0527 6.90588 12.0419 6.83108 12.0034 6.75049C11.9631 6.66641 11.8334 6.46839 11.563 6.45557L11.52 6.45361L11.4771 6.45947C10.4977 6.58182 9.69671 6.9972 8.94482 7.4585L8.854 7.51416L8.79346 7.60205C8.67576 7.774 8.68595 7.957 8.71924 8.07471C8.74888 8.17927 8.80242 8.25866 8.83447 8.30225C8.89954 8.39072 8.98745 8.47627 9.04053 8.52783C9.10329 8.58881 9.14605 8.63048 9.1792 8.66748C9.17913 8.68631 9.17754 8.69954 9.17529 8.70752C9.17237 8.71776 9.16925 8.72226 9.16846 8.72314C9.17006 8.72166 9.16881 8.72405 9.15869 8.72607C9.15332 8.72711 9.14337 8.72685 9.12939 8.72607C9.09208 8.68772 9.05546 8.64616 8.99463 8.58057C8.94216 8.52399 8.85816 8.4346 8.76611 8.36768C8.72083 8.33479 8.64013 8.28251 8.53369 8.25439C8.41319 8.22258 8.23386 8.21817 8.06689 8.33447L7.97705 8.39697L7.92236 8.48975C7.47961 9.23925 7.05184 10.0516 6.93311 11.0347L6.92822 11.0767L6.93018 11.1187C6.93957 11.3167 7.05541 11.4426 7.13428 11.5015C7.20515 11.5543 7.27394 11.5761 7.30225 11.5845C7.36255 11.6022 7.41775 11.6071 7.43896 11.6089C7.48838 11.613 7.5555 11.6146 7.59619 11.6157C7.70107 11.6187 7.80041 11.6244 7.88623 11.6431C7.91351 11.649 7.9334 11.6565 7.94775 11.6616C7.94687 11.6682 7.94747 11.6762 7.9458 11.6851V11.686C7.94301 11.7007 7.94013 11.7106 7.93799 11.7163C7.93732 11.7181 7.93557 11.7191 7.93506 11.7202C7.92794 11.7243 7.90336 11.738 7.84521 11.7456C7.77778 11.7544 7.7034 11.7523 7.6167 11.7485C7.58297 11.7471 7.52454 11.7448 7.47705 11.7456C7.45324 11.746 7.40983 11.7474 7.36084 11.7563C7.33403 11.7612 7.19248 11.7847 7.07373 11.9058L6.93018 12.0522V12.2095C6.92676 12.2338 6.92337 12.2552 6.92236 12.27C6.91939 12.3142 6.91923 12.364 6.91943 12.4087C6.91986 12.5006 6.9235 12.6173 6.92725 12.728C6.93114 12.8429 6.93557 12.9537 6.93701 13.0454C6.93878 13.1578 6.93465 13.1836 6.93799 13.1646L6.83545 13.7505H10.4829L10.4946 13.2632C10.5198 12.2528 11.2841 11.5792 12.3022 11.6294V11.6304L12.4595 11.6753C12.5069 11.6889 12.5762 11.7083 12.645 11.7202C12.6803 11.7263 12.728 11.7325 12.7808 11.7329C12.8299 11.7333 12.9125 11.7294 13.0034 11.6948L13.0044 11.6938C13.1111 11.6529 13.1948 11.5851 13.2358 11.5503C13.288 11.5061 13.3409 11.4544 13.3892 11.4048C13.4856 11.3056 13.5947 11.1822 13.6958 11.0679C13.8011 10.9488 13.9001 10.8367 13.9888 10.7437C14.0327 10.6976 14.0704 10.6604 14.1011 10.6323C14.1269 10.6087 14.1411 10.5981 14.145 10.5952C14.176 10.5755 14.1957 10.5671 14.2056 10.564L14.2065 10.563C14.2133 10.5658 14.2299 10.5738 14.2563 10.5942V10.5952C14.2628 10.6003 14.2683 10.605 14.2729 10.6089C14.2704 10.6141 14.2688 10.6208 14.2651 10.6274C14.2439 10.6654 14.2092 10.7139 14.1587 10.7729C14.0543 10.8948 13.9199 11.0179 13.7671 11.1587C13.6359 11.2796 13.4545 11.4452 13.3423 11.6079L13.1274 11.9194L13.3696 12.2114C13.6086 12.4989 13.7476 12.8769 13.77 13.2778L13.7964 13.7505H17.3335V11.6675L17.2837 11.6753L17.2681 11.1157C17.2381 10.1176 16.7974 9.15403 16.2007 8.42822L15.7173 7.84131L15.3696 8.51807C15.3431 8.56949 15.296 8.61732 15.231 8.65283C15.1636 8.68951 15.0944 8.70287 15.0464 8.70068C15.0439 8.70057 15.0417 8.6989 15.0396 8.69873C15.0396 8.69307 15.039 8.68666 15.0396 8.6792C15.042 8.67529 15.0453 8.67037 15.0493 8.66455C15.0757 8.62666 15.113 8.58484 15.1724 8.52002C15.2162 8.47213 15.3045 8.37773 15.3657 8.28076C15.4093 8.21169 15.5386 7.9827 15.4399 7.72412L15.3823 7.61182L15.3813 7.60986C15.323 7.52009 15.2442 7.45865 15.2153 7.43604C15.172 7.40204 15.1239 7.36842 15.0776 7.33838C14.9841 7.27767 14.8713 7.21164 14.7622 7.15088C14.5481 7.03156 14.3108 6.91113 14.2046 6.86475H14.2036C13.7487 6.66711 13.2887 6.53761 12.8022 6.46143L12.2192 6.36963L12.2251 6.96045ZM12.1138 11.7437C11.7564 11.7418 11.3851 11.8612 11.0962 12.1216C10.8 12.3887 10.6225 12.7756 10.6138 13.2407L10.605 13.7505H13.6841L13.6509 13.2192C13.5903 12.2554 12.835 11.7476 12.1138 11.7437ZM16.6909 11.6245L17.1538 11.6968L16.7515 11.7632C16.5164 11.802 16.3871 11.7538 16.3306 11.7183C16.3013 11.6998 16.2854 11.6823 16.2778 11.6704C16.275 11.6659 16.2732 11.6616 16.272 11.6587L16.313 11.6382C16.3692 11.6166 16.485 11.5925 16.6909 11.6245Z" fill="white" stroke="white"/>
<path d="M21.6016 8.44897C22.1203 8.44875 22.6498 8.79077 22.7158 9.56714V10.0359L23.2148 10.0369L29.0029 10.0427C29.0144 10.048 29.0232 10.0505 29.0273 10.0535C29.0308 10.056 29.0323 10.0583 29.0332 10.0593C29.0294 10.0532 29.0345 10.054 29.0312 10.0701C29.0277 10.0873 29.016 10.1099 28.9941 10.1287C28.9754 10.1447 28.9426 10.1639 28.8838 10.1658L23.2148 10.1677L22.7578 10.1687L22.7168 10.6238C22.5835 12.1031 20.6135 12.0754 20.4863 10.6248L20.4414 10.1208L20.4434 10.1218L20.4863 9.57495C20.5483 8.79532 21.0803 8.44941 21.6016 8.44897ZM21.4307 8.58081L21.3076 8.60327C20.9702 8.68003 20.8008 8.94822 20.7217 9.1355C20.6392 9.33108 20.603 9.5537 20.5859 9.74683C20.5601 10.0404 20.5719 10.3492 20.5938 10.5759L20.6182 10.7722C20.7876 11.8653 22.3323 11.9284 22.5693 10.8601C22.5932 10.7528 22.6025 10.597 22.6074 10.4626C22.6128 10.3132 22.6135 10.1378 22.6094 9.96558C22.6053 9.7945 22.5965 9.61762 22.5801 9.46753C22.5719 9.3931 22.5609 9.31657 22.5459 9.24683C22.5345 9.19395 22.5087 9.08286 22.4453 8.98218C22.2875 8.73105 22.0371 8.6298 21.8486 8.59253C21.7049 8.56412 21.56 8.56388 21.4307 8.58081ZM19.9033 10.0291L20.3662 10.1082L19.917 10.1726C19.6603 10.2091 19.5291 10.156 19.4785 10.1228C19.4497 10.1038 19.4396 10.0882 19.4365 10.0808C19.4394 10.0771 19.4466 10.0693 19.4609 10.0603C19.5031 10.0339 19.633 9.98258 19.9033 10.0291Z" fill="white" stroke="white"/>
<path d="M19.4346 6.35645L19.4355 6.35547C19.437 6.35377 19.4409 6.35083 19.4463 6.34668C19.4514 6.34273 19.4601 6.33897 19.4717 6.33301L24.1963 6.32812L24.6572 6.32715L24.6943 5.86719C24.756 5.08728 25.2926 4.73636 25.8193 4.73535C26.3425 4.73456 26.871 5.07836 26.9219 5.8623L27.417 5.8457L27.3271 6.32031C27.5452 6.3617 27.8255 6.34569 28.04 6.33301C28.2863 6.31845 28.5129 6.30257 28.7168 6.31055C28.8888 6.31728 28.9836 6.33982 29.0283 6.35742C29.028 6.36566 29.0289 6.37603 29.0273 6.38867C29.0235 6.39106 29.018 6.39392 29.0107 6.39746C28.9451 6.42926 28.8194 6.45796 28.6162 6.4668C28.4201 6.4753 28.2077 6.46472 27.9854 6.45508C27.7876 6.4465 27.5406 6.43548 27.3477 6.46484L26.9678 6.52246L26.9258 6.9043C26.8388 7.69405 26.3211 8.0137 25.8262 8.00781C25.3173 8.00172 24.7704 7.64965 24.6533 6.87695L24.5889 6.45215H24.1582L19.6289 6.45508L19.6162 6.45605C19.5392 6.45817 19.4962 6.43601 19.4746 6.41992C19.4502 6.40165 19.439 6.38076 19.4355 6.36719C19.434 6.36078 19.4345 6.35709 19.4346 6.35645ZM26.0566 4.88184C25.8654 4.84402 25.6715 4.85607 25.5156 4.8916C25.1779 4.9682 25.0088 5.23743 24.9297 5.4248C24.8472 5.62043 24.81 5.84298 24.793 6.03613C24.7671 6.32972 24.7799 6.63852 24.8018 6.86523L24.8262 7.06152C24.9956 8.15448 26.5392 8.21754 26.7764 7.14941C26.8002 7.04211 26.8105 6.88635 26.8154 6.75195C26.8209 6.6025 26.8215 6.42711 26.8174 6.25488C26.8133 6.08378 26.8035 5.90695 26.7871 5.75684C26.779 5.68241 26.7689 5.60588 26.7539 5.53613C26.7454 5.49659 26.7287 5.42461 26.6943 5.34863L26.6533 5.27148C26.4956 5.02036 26.2451 4.91917 26.0566 4.88184Z" fill="white" stroke="white"/>
</svg>
