<svg width="34" height="34" viewBox="0 0 34 34" fill="none" xmlns="http://www.w3.org/2000/svg">
<path d="M27.9118 10.9376H29.9962C30.2403 10.9376 30.4024 11.6543 30.4516 11.8465C31.8286 17.1975 32.6141 22.8382 33.9535 28.2144C34.106 28.4404 33.8531 29.1416 33.6341 29.1416H20.6379V30.3548H21.8123C22.4395 30.3548 23.5145 31.2163 23.8358 31.7427C24.189 32.3223 24.7265 33.8995 23.7113 34L10.0822 33.9797C9.32562 33.7585 9.89399 32.1639 10.1922 31.6944C10.5116 31.1931 11.5865 30.3548 12.1877 30.3548H13.3621V29.1416H0.365912C0.146865 29.1416 -0.105959 28.4394 0.0465054 28.2144C1.38491 22.8382 2.17136 17.1984 3.54837 11.8465C3.59758 11.6533 3.7597 10.9376 4.00383 10.9376H17V9.53413C17 9.16227 17.467 7.98582 17.6687 7.62458C19.7193 3.95132 25.1183 3.93007 27.2151 7.57628C27.4294 7.94815 27.9118 9.14392 27.9118 9.53413V10.9376ZM26.6236 10.9376C27.0742 7.67094 23.8156 5.14612 20.7614 6.47324C19.0255 7.2276 18.0267 9.06568 18.2882 10.9376H26.6236ZM10.7856 12.1507H4.79896L4.04147 15.7911H10.3311L10.7856 12.1507ZM16.393 12.1507H12.0738L11.6193 15.7911H16.393V12.1507ZM21.9252 12.1507H17.606V15.7911H22.3797L21.9252 12.1507ZM29.2001 12.1507H23.2134L23.6679 15.7911H29.9576L29.2001 12.1507ZM10.1034 17.0053H3.7375L2.44927 23.0729H9.26966L10.1034 17.0053ZM16.393 17.0053H11.3916L10.5579 23.0729H16.393V17.0053ZM22.6074 17.0053H17.606V23.0729H23.4412L22.6074 17.0053ZM30.2606 17.0053H23.8947L24.7284 23.0729H31.5488L30.2606 17.0053ZM9.04289 24.2871H2.14724L1.38974 27.9275H8.58839L9.04289 24.2871ZM16.393 24.2871H10.3311L9.87662 27.9275H16.394L16.393 24.2871ZM23.6679 24.2871H17.606V27.9275H24.1234L23.6679 24.2871ZM31.8518 24.2871H24.9561L25.4106 27.9275H32.6093L31.8518 24.2871ZM19.424 29.1416H14.5741V30.3548H19.424V29.1416ZM22.9104 32.783C22.6615 31.9543 21.9329 31.6374 21.1281 31.5708C18.4725 31.7002 15.6529 31.396 13.0176 31.566C12.151 31.622 11.3704 31.8741 11.0886 32.783H22.9104Z" fill="#144C84"/>
<path d="M28.5757 2.22722C30.47 2.5759 27.9533 4.52506 27.4959 5.2485C26.8764 5.65804 26.1913 5.02442 26.6371 4.31353C26.8369 3.99479 27.9118 2.69277 28.184 2.4484C28.2997 2.34409 28.43 2.27841 28.5757 2.22722Z" fill="#144C84"/>
<path d="M12.7358 8.21957C13.5271 8.39439 14.7565 8.36445 15.4869 8.62137C16.1151 8.84256 15.9877 9.8664 15.2196 9.87606C14.8973 9.87992 12.9877 9.56794 12.6769 9.46169C12.0488 9.2463 12.1067 8.41274 12.7358 8.21957Z" fill="#144C84"/>
<path d="M15.8411 2.45806C16.0485 2.4117 16.2927 2.42136 16.4644 2.55948L18.1358 4.45068C18.5806 5.12487 17.9003 5.77878 17.2297 5.35765C16.9209 4.88726 15.4667 3.60554 15.4088 3.15447C15.3692 2.84732 15.5246 2.52761 15.8401 2.45613L15.8411 2.45806Z" fill="#144C84"/>
<path d="M29.148 9.47232C28.8044 9.09562 28.9791 8.58081 29.4403 8.40984C29.7858 8.28138 31.6916 7.94912 32.0448 7.97327C32.7396 8.02156 32.8168 8.95171 32.1905 9.19028C31.8354 9.32551 30.1689 9.62493 29.7646 9.64714C29.5455 9.65873 29.3043 9.64328 29.147 9.47136L29.148 9.47232Z" fill="#144C84"/>
<path d="M22.206 0.0307901C22.5321 -0.0667643 22.9905 0.067498 23.06 0.433568C23.1188 0.744583 23.1188 2.92458 23.06 3.23656C22.9519 3.8074 21.9599 3.80933 21.8509 3.23656C21.792 2.92555 21.792 0.743618 21.8509 0.433568C21.876 0.303174 22.0815 0.0674937 22.206 0.0307901Z" fill="#144C84"/>
</svg>
