<svg width="34" height="34" viewBox="0 0 34 34" fill="none" xmlns="http://www.w3.org/2000/svg">
<path d="M32.0885 0C32.8597 0.254783 33.5747 0.82509 33.6693 1.68646V24.6152C33.5588 25.5137 33.0506 26.278 32.8061 27.1327C32.8094 27.266 33.0196 27.2997 33.1351 27.401C33.3914 27.6262 33.5739 27.8515 33.6626 28.194C33.563 29.6577 33.8083 31.3256 33.6702 32.7649C33.6208 33.2762 33.0271 33.8768 32.5197 33.9241C29.9367 34.1662 26.9835 33.7351 24.3611 33.9224C23.6854 33.784 23.2149 33.1732 23.147 32.4957C23.0533 31.5643 23.0558 29.5219 23.147 28.588C23.1822 28.2319 23.3329 27.8236 23.5716 27.5579C23.6988 27.4153 23.9659 27.3723 23.9266 27.1462L21.4725 22.3222L11.7782 22.334C11.6275 23.6374 11.1369 24.8514 10.7291 26.084C10.7249 26.1616 11.2491 26.5657 11.3655 26.7438C11.522 26.9833 11.6125 27.3098 11.6384 27.595C11.7464 28.7947 11.7473 31.1636 11.6384 32.3633C11.5714 33.1066 11.1863 33.7596 10.4243 33.9232L2.26572 33.9249C1.6478 33.8701 1.11947 33.2331 1.05248 32.6299C0.869114 30.9856 1.1898 29.0098 1.05248 27.3292C0.985498 26.9614 1.53476 26.5565 1.57746 26.3346C1.69804 25.7001 1.56323 24.3132 1.39829 23.6686C1.02653 22.215 0.305613 20.8272 0 19.3466V13.4503C0.126432 13.209 0.144852 12.9374 0.251189 12.6767C0.60369 11.812 1.28441 11.2914 2.09492 10.8907L2.11082 1.76407C2.26238 0.878234 2.91965 0.264907 3.74774 0.000844475H32.0877L32.0885 0ZM32.6152 17.5564V1.82143C32.6152 1.47469 31.8298 0.969358 31.4673 1.0571H4.43767C3.52502 1.12037 3.22191 1.42998 3.15577 2.34871L3.15828 12.7206C3.52167 12.6986 3.89175 12.7298 4.21076 12.9188V3.34507C4.21076 2.88781 5.06313 2.09899 5.55881 2.11924L30.2188 2.11671C30.7765 2.08127 31.6297 2.88444 31.6297 3.41172V17.5564C31.9671 17.4864 32.2803 17.4433 32.616 17.5564H32.6152ZM30.5111 17.0266V3.54418C30.5111 3.29193 29.9718 3.14766 29.7575 3.17718H6.01513C5.76394 3.20249 5.45917 3.22949 5.34111 3.49186L5.3252 13.8148C5.61993 14.5142 5.80916 15.1638 5.85521 15.9307C5.89372 16.5659 5.74134 17.6154 5.86609 18.1722C5.90126 18.3309 6.56021 19.1526 6.80135 19.0851L20.1864 19.0817C20.1629 17.2543 22.4638 16.5381 23.528 17.9993L24.197 19.0809V14.3767H19.3641C19.3122 14.3767 19.0811 14.175 19.0384 14.1092C18.8283 13.787 18.9748 13.4014 19.3147 13.2681L24.1945 13.247C24.3594 11.137 27.2699 11.1311 27.4198 13.2495C27.9757 13.339 29.719 12.8986 29.5122 13.9295C29.4854 14.0611 29.2049 14.3758 29.096 14.3758H27.4189V16.4959C27.9138 16.3618 28.4396 16.4335 28.8616 16.7321C28.9688 16.8081 29.2258 17.1346 29.292 17.1396C29.3288 17.1422 29.7098 16.9743 29.8856 16.9608C30.1083 16.9431 30.2984 16.9641 30.5094 17.0257L30.5111 17.0266ZM2.10496 12.1899C1.30869 12.4987 1.09853 13.5077 1.04997 14.2737C0.953681 15.7948 0.931911 18.3655 1.28274 19.8081C1.50127 20.7057 2.63078 23.2654 2.63078 23.8829V25.9701H9.73189L10.6521 22.3264H7.89068C7.85886 22.3264 7.95431 22.7044 7.56497 22.8275C6.71846 23.0967 6.85494 21.9915 6.75614 21.5148C6.46141 20.089 4.84711 19.2639 4.73407 18.2515C4.60345 17.0789 5.11588 14.785 3.94199 14.0147C3.55935 13.7633 3.25206 13.7068 3.17419 14.2282C3.00171 15.3865 3.26713 16.8638 3.15996 18.0558C3.08041 18.9442 2.10496 18.546 2.10496 18.2515V12.1891V12.1899ZM29.3765 20.5868C29.1295 20.8154 28.6431 20.7412 28.4882 20.4231C28.2286 19.8899 28.5392 18.5114 28.3927 17.8685C28.2897 17.4146 27.5454 17.4349 27.434 17.9343C27.3 18.535 27.4985 19.5204 27.4214 20.1742C27.3377 20.8922 26.374 20.9318 26.2986 20.1093C26.0977 17.9031 26.4585 15.3924 26.2978 13.1542C26.2208 12.6666 25.5693 12.6632 25.35 13.0521C25.2378 15.8387 25.4036 18.6624 25.2654 21.4473C25.0703 21.789 24.6977 21.9358 24.3921 21.6329L22.6103 18.5916C22.1557 18.1259 21.3284 18.3081 21.2514 18.9973C21.2213 19.2622 21.6968 20.1877 21.8392 20.4957C22.8498 22.6849 24.0522 24.7898 25.046 26.9884L25.149 27.034L31.6623 26.9639C31.9219 26.0452 32.4913 25.2403 32.6135 24.2786L32.5859 18.8758C32.4862 18.5662 32.0115 18.5198 31.7896 18.7434C31.3408 19.1956 32.0274 20.591 31.1842 20.7226C30.0799 20.8947 30.707 18.8387 30.4625 18.2988C30.3202 17.985 29.7642 17.9985 29.5992 18.3249C29.3548 18.8084 29.7232 20.2628 29.3765 20.5851V20.5868ZM20.5163 20.2063H7.431C7.58757 20.5142 7.75001 20.8458 7.76006 21.2001H20.9768L20.5163 20.2063ZM2.48091 27.1107C2.18785 27.1791 2.12506 27.5292 2.10245 27.789C2.007 28.8824 1.99779 31.1467 2.1058 32.23C2.12422 32.4181 2.18451 32.7429 2.36955 32.8256H10.2577C10.4562 32.6805 10.503 32.5379 10.5248 32.3C10.6613 30.8076 10.416 29.1068 10.5231 27.5916C10.5097 27.2854 10.2686 27.0787 9.96633 27.093L2.48175 27.1107H2.48091ZM24.6399 28.1712C24.3553 28.2606 24.2858 28.4378 24.2615 28.7171C24.1526 29.9345 24.3209 31.3653 24.2992 32.5945L24.5294 32.8265C27.1493 32.8746 29.7901 32.9032 32.4025 32.8121C32.5926 32.7159 32.6009 32.5574 32.6185 32.3675C32.7282 31.167 32.5281 29.8037 32.6185 28.5846C32.6001 28.3121 32.3138 28.1433 32.0592 28.1543L24.6399 28.1712Z" fill="#144C84"/>
<path d="M6.46523 14.2223C6.38401 14.1481 6.32373 13.9937 6.31033 13.8815C6.1638 12.6675 6.27852 10.539 6.74154 9.40764C8.87162 4.20906 16.5639 4.83589 17.788 10.3331C17.9688 11.1456 18.0735 13.0691 17.9479 13.8748C17.9178 14.0697 17.7763 14.2426 17.5946 14.3143C14.0553 14.4594 10.4851 14.3312 6.93412 14.3793C6.78926 14.3776 6.57073 14.3194 6.46523 14.2223ZM7.43063 12.2567C7.39547 12.2921 7.45659 13.102 7.43063 13.2505H9.99527C10.0279 11.9403 11.0478 11.0671 12.3288 11.1312C12.4737 11.1388 12.7366 11.2611 12.8253 11.2274C13.0104 11.1565 13.6124 10.3416 13.877 10.1728C14.1198 10.0184 14.3383 10.0243 14.5652 10.2015C15.2828 10.7642 14.0478 11.4653 13.7539 11.8913C14.0696 12.271 14.2412 12.7552 14.2688 13.2505H16.8335V12.2567C15.508 12.476 15.3481 10.9093 16.7682 11.1304C16.7422 10.2648 16.3562 9.4051 15.8145 8.74621C15.5013 9.35533 14.443 9.39751 14.5435 8.59773C14.582 8.29317 15.0584 8.03164 14.9621 7.88231C14.8893 7.77011 14.1725 7.39636 14.0042 7.32296C13.5906 7.14327 13.172 7.02517 12.7249 6.95514C12.729 7.3854 12.6194 8.08564 12.0299 7.98862C11.3877 7.88316 11.6297 6.95936 11.5392 6.95514C10.6676 7.06397 9.94085 7.43434 9.20654 7.88485C9.12281 8.00718 9.62435 8.31005 9.66454 8.51421C9.75999 8.99846 9.39828 9.33846 8.92353 9.1942C8.77533 9.14948 8.47474 8.65932 8.3525 8.74452C7.91543 9.48441 7.5353 10.2209 7.4298 11.0949C7.43315 11.1658 8.5928 10.9549 8.43706 11.7783C8.31314 12.4355 7.48924 12.1959 7.43063 12.2558V12.2567ZM13.1519 13.2505C13.0681 11.9192 11.139 11.8981 11.1139 13.2505H13.1519Z" fill="#144C84"/>
<path d="M23.2155 9.53673L29.0933 9.54346C29.805 9.73835 29.5873 10.6436 28.8999 10.6655L23.2147 10.6681C23.0288 12.7375 20.1694 12.7451 19.9877 10.6681C18.6003 10.8655 18.5694 9.29207 19.9877 9.53588C20.1552 7.42254 23.0455 7.41747 23.2155 9.53588V9.53673ZM21.4187 9.09043C20.9908 9.18745 21.0553 10.3264 21.1122 10.6959C21.1993 11.2578 21.9671 11.2654 22.081 10.7516C22.1312 10.5255 22.127 9.41523 22.0224 9.24903C21.906 9.06258 21.618 9.04488 21.4187 9.09043Z" fill="#144C84"/>
<path d="M27.4207 5.82933C27.9984 5.939 29.6504 5.46151 29.5231 6.45364C29.4235 7.22811 27.9608 6.87715 27.4232 6.95899C27.1921 9.05715 24.4676 8.99218 24.1586 6.95223L19.6297 6.95561C18.8928 6.97586 18.6433 6.06471 19.3693 5.83439L24.1954 5.82764C24.3629 3.71007 27.2825 3.69827 27.4207 5.83017V5.82933ZM25.6264 5.37968C25.1985 5.4767 25.263 6.61561 25.3199 6.98513C25.407 7.547 26.1748 7.5546 26.2887 7.04082C26.3389 6.81472 26.3347 5.70447 26.2301 5.53827C26.1137 5.35183 25.8256 5.33412 25.6264 5.37968Z" fill="#144C84"/>
</svg>
