<svg width="27" height="27" viewBox="0 0 27 27" fill="none" xmlns="http://www.w3.org/2000/svg">
<path d="M21.4261 8.45173H23.0261C23.2135 8.45173 23.3379 9.00553 23.3757 9.15406C24.4327 13.2889 25.0357 17.6477 26.0639 21.8019C26.1809 21.9766 25.9868 22.5184 25.8187 22.5184H15.8424V23.4559H16.7438C17.2253 23.4559 18.0505 24.1216 18.2972 24.5284C18.5683 24.9762 18.9809 26.195 18.2016 26.2726L7.7394 26.257C7.15866 26.0861 7.59496 24.8538 7.82385 24.4911C8.06903 24.1037 8.89422 23.4559 9.3557 23.4559H10.2572V22.5184H0.280886C0.112738 22.5184 -0.0813379 21.9758 0.0356991 21.8019C1.06311 17.6477 1.66681 13.2897 2.72385 9.15406C2.76163 9.00478 2.88607 8.45173 3.07348 8.45173H13.0498V7.36726C13.0498 7.07991 13.4083 6.17084 13.5631 5.8917C15.1372 3.05328 19.2816 3.03686 20.8913 5.85438C21.0557 6.14173 21.4261 7.06573 21.4261 7.36726V8.45173ZM20.4372 8.45173C20.7831 5.92753 18.2816 3.97653 15.9372 5.00204C14.6046 5.58495 13.8379 7.00528 14.0387 8.45173H20.4372ZM8.2794 9.38916H3.68385L3.10237 12.2022H7.93052L8.2794 9.38916ZM12.5838 9.38916H9.26829L8.9194 12.2022H12.5838V9.38916ZM16.8305 9.38916H13.515V12.2022H17.1794L16.8305 9.38916ZM22.415 9.38916H17.8194L18.1683 12.2022H22.9964L22.415 9.38916ZM7.7557 13.1404H2.86903L1.88015 17.829H7.1157L7.7557 13.1404ZM12.5838 13.1404H8.74459L8.10459 17.829H12.5838V13.1404ZM17.3542 13.1404H13.515V17.829H17.9942L17.3542 13.1404ZM23.229 13.1404H18.3424L18.9824 17.829H24.2179L23.229 13.1404ZM6.94163 18.7672H1.64829L1.06681 21.5803H6.59274L6.94163 18.7672ZM12.5838 18.7672H7.93052L7.58163 21.5803H12.5846L12.5838 18.7672ZM18.1683 18.7672H13.515V21.5803H18.5179L18.1683 18.7672ZM24.4505 18.7672H19.1572L19.5061 21.5803H25.032L24.4505 18.7672ZM14.9105 22.5184H11.1876V23.4559H14.9105V22.5184ZM17.5868 25.3322C17.3957 24.6919 16.8364 24.447 16.2187 24.3955C14.1801 24.4956 12.0157 24.2605 9.99274 24.3918C9.32755 24.4351 8.72829 24.6299 8.512 25.3322H17.5868Z" fill="white"/>
<path d="M21.9357 1.72103C23.3898 1.99046 21.4579 3.49662 21.1068 4.05565C20.6313 4.37211 20.1053 3.88249 20.4475 3.33317C20.6009 3.08687 21.4261 2.08077 21.635 1.89194C21.7238 1.81134 21.8238 1.76058 21.9357 1.72103Z" fill="white"/>
<path d="M9.77644 6.35146C10.3838 6.48656 11.3276 6.46342 11.8883 6.66195C12.3705 6.83287 12.2727 7.62401 11.6831 7.63147C11.4357 7.63446 9.96977 7.39339 9.73126 7.31129C9.24903 7.14485 9.29348 6.50074 9.77644 6.35146Z" fill="white"/>
<path d="M12.1601 1.89941C12.3194 1.86358 12.5068 1.87104 12.6387 1.97777L13.9216 3.43915C14.2631 3.96012 13.7409 4.4654 13.2261 4.13999C12.989 3.77651 11.8727 2.78609 11.8283 2.43754C11.7979 2.20019 11.9172 1.95315 12.1594 1.89792L12.1601 1.89941Z" fill="white"/>
<path d="M22.375 7.3195C22.1113 7.02841 22.2453 6.6306 22.5994 6.4985C22.8646 6.39923 24.3276 6.14248 24.5987 6.16114C25.132 6.19846 25.1913 6.91721 24.7105 7.10156C24.4379 7.20605 23.1587 7.43742 22.8483 7.45459C22.6801 7.46354 22.495 7.45161 22.3742 7.31875L22.375 7.3195Z" fill="white"/>
<path d="M17.0461 0.0237923C17.2964 -0.0515904 17.6483 0.0521574 17.7016 0.335029C17.7468 0.575358 17.7468 2.2599 17.7016 2.50097C17.6187 2.94207 16.8572 2.94357 16.7735 2.50097C16.7283 2.26064 16.7283 0.574612 16.7735 0.335029C16.7927 0.23427 16.9505 0.0521541 17.0461 0.0237923Z" fill="white"/>
</svg>
