<svg width="27" height="28" viewBox="0 0 27 28" fill="none" xmlns="http://www.w3.org/2000/svg">
<path d="M7.18443 0.000672425C7.27377 0.0523986 7.49845 0.315053 7.49845 0.396337V3.58791L11.67 5.05237C13.3468 3.90297 15.6176 4.64662 16.199 6.61154C18.9292 7.72399 21.828 8.54892 24.5628 9.68421C25.7703 10.5851 25.3089 12.5339 23.7808 12.6615L23.7895 15.5541C25.6316 16.1708 25.5862 18.6597 23.7788 19.2905L23.7808 21.7344H24.6969C24.8475 21.7344 25.1942 22.0333 25.1942 22.1831V25.9551H26.477C26.5623 25.9551 26.7543 26.1983 26.817 26.2715V26.6934C26.6836 26.8607 26.565 27.0306 26.3223 27.0125C17.6451 26.9803 8.95388 27.0649 0.286005 26.9702C0.0166555 26.8237 -0.0640161 26.5161 0.0506577 26.2326C0.0806595 26.1587 0.292005 25.9551 0.351342 25.9551H1.63409V22.1831C1.63409 22.0132 1.98011 21.7344 2.13145 21.7344H2.99551V10.1283H2.02678C1.77343 10.1283 1.60609 9.7393 1.58142 9.52165C1.41007 7.98128 1.71143 6.13391 1.57942 4.56063C1.69276 4.20728 1.58342 3.80154 1.63742 3.45826C1.66809 3.26345 3.01151 0.611306 3.19485 0.332522C3.28952 0.188092 3.38953 0.105468 3.51887 0H7.18377L7.18443 0.000672425ZM6.39905 1.05602H4.0429L2.68149 3.77265V9.02186H4.4876L4.59294 8.86398L6.39905 3.93119V1.05602ZM10.902 5.90955L7.31511 4.6446L6.92708 5.6677L10.5106 6.96355C10.6266 6.97765 10.5706 6.95213 10.5866 6.88563C10.6706 6.53228 10.7453 6.24342 10.902 5.90955ZM13.1941 5.60792C10.9007 5.85849 11.2113 9.50083 13.6455 9.22742C15.9303 8.97013 15.611 5.34392 13.1941 5.60792ZM5.0643 10.1296C4.80562 10.186 4.37626 10.0886 4.09557 10.1296V21.7358H4.90696C5.12364 21.7358 5.45699 22.0112 5.45699 22.2369V25.9558H7.13243L11.3014 9.4155C10.9827 9.05611 10.7513 8.63155 10.6066 8.17273L6.53639 6.74926L5.39299 9.82731C5.34432 9.91665 5.15364 10.1101 5.06497 10.1296H5.0643ZM15.9283 8.91571L23.5601 11.5974C24.1715 11.6223 24.4028 10.7967 23.8348 10.5253L16.363 7.86909C16.2197 7.85969 16.1883 8.28291 16.1403 8.41726C16.107 8.5093 15.9023 8.87876 15.929 8.91571H15.9283ZM19.6979 25.9558H21.3733V22.2369C21.3733 22.0112 21.7067 21.7358 21.9233 21.7358H22.7347L22.7274 19.2898C22.3794 19.0883 22.0567 18.9761 21.7933 18.6483C20.8986 17.5372 21.44 15.982 22.7367 15.5279L22.7287 12.4566L15.667 9.97173L19.6979 25.9558ZM14.5662 10.0772C13.8528 10.4232 12.9775 10.4332 12.2641 10.0772L11.9054 11.5175L13.3961 13.0276L14.9249 11.5175L14.5662 10.0772ZM10.9027 15.4581L12.6288 13.7961L11.6087 12.8214L10.9027 15.4581ZM15.9276 15.4581L15.2216 12.8214L14.2015 13.7961L15.9276 15.4581ZM13.3961 14.6177L10.6966 17.2712L13.4342 19.9388L16.1337 17.2329L13.3961 14.6177ZM23.1948 16.5766C22.9654 16.5947 22.7047 16.772 22.5774 16.9608C22.0267 17.7757 23.1794 18.7 23.8555 17.9846C24.3728 17.4371 23.9308 16.5188 23.1954 16.5766H23.1948ZM8.59852 24.6371L12.6254 20.7523L10.1946 18.3601L8.59852 24.6371ZM18.2311 24.6371L16.635 18.3601L14.2009 20.7845L18.2318 24.6364L18.2311 24.6371ZM8.91254 25.9558H17.9704L13.4342 21.5282L8.91254 25.9558ZM4.35759 22.8435H2.73482V25.9558H4.35759V22.8435ZM24.0961 22.8435H22.4734V25.9558H24.0961V22.8435Z" fill="white"/>
<path d="M13.8159 7.03543C14.3185 7.54732 13.4865 8.35142 12.9945 7.78378C12.5538 7.27525 13.3012 6.51212 13.8159 7.03543Z" fill="white"/>
</svg>
