<svg width="28" height="28" viewBox="0 0 28 28" fill="none" xmlns="http://www.w3.org/2000/svg">
<path d="M18.3059 0L17.4493 1.28228C19.7939 2.78563 21.6199 4.84167 23.4122 8.72166L24.4493 7.21832C24.1336 6.16818 23.7842 5.0517 23.4686 4.12315C23.1304 3.11723 22.7585 2.26607 22.6683 2.12237C22.5894 2.00077 22.0032 1.54757 21.1578 1.13857C20.4025 0.762731 19.4218 0.375816 18.3172 0.0110312L18.3059 0ZM18.8132 3.71416L15.4654 6.31188C16.1305 6.68772 16.6039 7.33991 16.7166 8.1137L20.2561 5.37227C19.7939 4.74219 19.3205 4.20054 18.8132 3.71416ZM14.2142 7.06355C13.4252 7.06355 12.7939 7.68259 12.7939 8.45637C12.7939 9.23016 13.4252 9.8492 14.2142 9.8492C15.0033 9.8492 15.6344 9.23016 15.6344 8.45637C15.6344 7.68259 15.0033 7.06355 14.2142 7.06355ZM11.7907 9.15279L3.62972 15.4757C4.36241 15.7631 4.88094 16.4485 4.91476 17.2444L13.2899 10.7667C12.5684 10.4903 12.0162 9.89341 11.7907 9.15279ZM22.5218 9.41807V22.0971H23.6264V10.3245L23.1868 10.9546L22.7923 10.0371C22.7021 9.82707 22.612 9.6281 22.5218 9.41807ZM16.818 9.45123L15.8486 10.1919L16.0853 11.2752L15.1949 10.6893L14.2705 11.3857L16.0403 12.5464L11.6555 14.5251L11.9485 13.1433L10.5958 14.1713L9.09666 21.1575H9.0741L9.09666 21.2017L7.86804 26.9167H6.89852V28H20.5603V26.8283L16.8293 9.44017L16.818 9.45123ZM16.5588 13.5081L17.3028 16.957L12.4332 15.3762L16.5588 13.5191V13.5081ZM11.306 16.15L16.6264 17.8744L10.3478 20.6159L11.306 16.15ZM2.88572 16.4153C2.36721 16.4153 1.96133 16.8133 1.96133 17.3217C1.96133 17.8302 2.36721 18.2282 2.88572 18.2282C3.40424 18.2282 3.80998 17.8302 3.80998 17.3217C3.80998 16.8133 3.40424 16.4153 2.88572 16.4153ZM17.6634 18.6151L18.5877 22.9041L11.7004 21.2238L17.6747 18.6261L17.6634 18.6151ZM4.19333 18.8472C3.91152 19.0793 3.56206 19.2341 3.17881 19.2894L4.48641 22.0861H5.70375L4.18204 18.8472H4.19333ZM1.5894 18.8472L0.0676987 22.0861H1.28504L2.59264 19.2894C2.20939 19.2341 1.85992 19.0793 1.57812 18.8472H1.5894ZM10.0548 21.9423L17.2464 23.7L9.05153 26.6182L10.0548 21.9423ZM0 23.1804V26.9167H5.78259V23.1804H0ZM21.6651 23.1804V24.1421H24.4944V23.1804H21.6651ZM18.8695 24.2748L19.4331 26.9167H11.4412L18.8583 24.2748H18.8695ZM21.6651 25.2365V26.9278H24.4944V25.2365H21.6651ZM25.599 26.9167V28H28V26.9167H25.599Z" fill="white"/>
</svg>
