<svg width="33" height="34" viewBox="0 0 33 34" fill="none" xmlns="http://www.w3.org/2000/svg">
<mask id="path-1-inside-1_3605_27" fill="white">
<path d="M8.77999 0.00082176C8.88917 0.0640355 9.16374 0.385021 9.16374 0.484357V4.38473L14.2618 6.17442C16.3109 4.76976 19.0861 5.67856 19.7965 8.07986C23.133 9.43937 26.6757 10.4475 30.0179 11.8349C31.4934 12.9358 30.9296 15.3174 29.0621 15.4734L29.0727 19.0085C31.324 19.7621 31.2685 22.8037 29.0597 23.5746L29.0621 26.5613H30.1816C30.3658 26.5613 30.7895 26.9266 30.7895 27.1097V31.7194H32.3571C32.4614 31.7194 32.696 32.0166 32.7726 32.106V32.6216C32.6097 32.826 32.4646 33.0337 32.1681 33.0116C21.5638 32.9722 10.9424 33.0756 0.349523 32.9598C0.0203544 32.7809 -0.0782331 32.4049 0.0619079 32.0584C0.0985728 31.9681 0.356854 31.7194 0.429369 31.7194H1.997V27.1097C1.997 26.902 2.41986 26.5613 2.60482 26.5613H3.66076V12.3776H2.4769C2.16728 12.3776 1.96277 11.9023 1.93263 11.6363C1.72323 9.7538 2.09151 7.49616 1.93018 5.57348C2.06869 5.14165 1.93507 4.6458 2.00107 4.22629C2.03855 3.98821 3.68032 0.747068 3.90438 0.40637C4.02008 0.229864 4.14229 0.12889 4.30036 0H8.77917L8.77999 0.00082176ZM7.82018 1.29054H4.94077L3.277 4.61049V11.0255H5.48423L5.61296 10.8325L7.82018 4.80425V1.29054ZM13.3232 7.22197L8.93968 5.6761L8.46548 6.92641L12.8449 8.51005C12.9867 8.52729 12.9182 8.4961 12.9378 8.41482C13.0404 7.983 13.1317 7.62998 13.3232 7.22197ZM16.1244 6.85336C13.3215 7.15957 13.7012 11.6108 16.676 11.2767C19.4682 10.9623 19.0779 6.53072 16.1244 6.85336ZM6.189 12.3792C5.87287 12.4482 5.34816 12.3292 5.00514 12.3792V26.5629H5.99672C6.26152 26.5629 6.66891 26.8995 6.66891 27.1754V31.7202H8.71643L13.8112 11.5065C13.4217 11.0673 13.139 10.5485 12.9622 9.98777L7.98803 8.24816L6.59069 12.0098C6.53121 12.119 6.29818 12.3554 6.18982 12.3792H6.189ZM19.4657 10.8958L28.7925 14.173C29.5396 14.2034 29.8223 13.1944 29.1281 12.8628L19.997 9.6167C19.8218 9.6052 19.7835 10.1224 19.7248 10.2866C19.6841 10.3991 19.434 10.8506 19.4666 10.8958H19.4657ZM24.0725 31.7202H26.12V27.1754C26.12 26.8995 26.5274 26.5629 26.7922 26.5629H27.7838L27.7748 23.5738C27.3495 23.3275 26.9551 23.1904 26.6333 22.7898C25.5399 21.4319 26.2015 19.5314 27.7862 18.9764L27.7764 15.223L19.1463 12.1863L24.0725 31.7202ZM17.8012 12.3152C16.9293 12.738 15.8596 12.7503 14.9877 12.3152L14.5494 14.0753L16.3712 15.9208L18.2395 14.0753L17.8012 12.3152ZM13.324 18.8911L15.4334 16.86L14.1868 15.6688L13.324 18.8911ZM19.4649 18.8911L18.6021 15.6688L17.3555 16.86L19.4649 18.8911ZM16.3712 17.8641L13.0722 21.1068L16.4177 24.3669L19.7167 21.06L16.3712 17.8641ZM28.346 20.258C28.0657 20.2801 27.7471 20.4969 27.5915 20.7276C26.9185 21.7234 28.3272 22.853 29.1534 21.9787C29.7857 21.3096 29.2455 20.1874 28.3468 20.258H28.346ZM10.5081 30.1086L15.4294 25.361L12.4587 22.4376L10.5081 30.1086ZM22.28 30.1086L20.3294 22.4376L17.3547 25.4004L22.2808 30.1078L22.28 30.1086ZM10.8919 31.7202H21.9614L16.4177 26.3092L10.8919 31.7202ZM5.32534 27.9167H3.34218V31.7202H5.32534V27.9167ZM29.4475 27.9167H27.4644V31.7202H29.4475V27.9167Z"/>
</mask>
<path d="M8.77999 0.00082176C8.88917 0.0640355 9.16374 0.385021 9.16374 0.484357V4.38473L14.2618 6.17442C16.3109 4.76976 19.0861 5.67856 19.7965 8.07986C23.133 9.43937 26.6757 10.4475 30.0179 11.8349C31.4934 12.9358 30.9296 15.3174 29.0621 15.4734L29.0727 19.0085C31.324 19.7621 31.2685 22.8037 29.0597 23.5746L29.0621 26.5613H30.1816C30.3658 26.5613 30.7895 26.9266 30.7895 27.1097V31.7194H32.3571C32.4614 31.7194 32.696 32.0166 32.7726 32.106V32.6216C32.6097 32.826 32.4646 33.0337 32.1681 33.0116C21.5638 32.9722 10.9424 33.0756 0.349523 32.9598C0.0203544 32.7809 -0.0782331 32.4049 0.0619079 32.0584C0.0985728 31.9681 0.356854 31.7194 0.429369 31.7194H1.997V27.1097C1.997 26.902 2.41986 26.5613 2.60482 26.5613H3.66076V12.3776H2.4769C2.16728 12.3776 1.96277 11.9023 1.93263 11.6363C1.72323 9.7538 2.09151 7.49616 1.93018 5.57348C2.06869 5.14165 1.93507 4.6458 2.00107 4.22629C2.03855 3.98821 3.68032 0.747068 3.90438 0.40637C4.02008 0.229864 4.14229 0.12889 4.30036 0H8.77917L8.77999 0.00082176ZM7.82018 1.29054H4.94077L3.277 4.61049V11.0255H5.48423L5.61296 10.8325L7.82018 4.80425V1.29054ZM13.3232 7.22197L8.93968 5.6761L8.46548 6.92641L12.8449 8.51005C12.9867 8.52729 12.9182 8.4961 12.9378 8.41482C13.0404 7.983 13.1317 7.62998 13.3232 7.22197ZM16.1244 6.85336C13.3215 7.15957 13.7012 11.6108 16.676 11.2767C19.4682 10.9623 19.0779 6.53072 16.1244 6.85336ZM6.189 12.3792C5.87287 12.4482 5.34816 12.3292 5.00514 12.3792V26.5629H5.99672C6.26152 26.5629 6.66891 26.8995 6.66891 27.1754V31.7202H8.71643L13.8112 11.5065C13.4217 11.0673 13.139 10.5485 12.9622 9.98777L7.98803 8.24816L6.59069 12.0098C6.53121 12.119 6.29818 12.3554 6.18982 12.3792H6.189ZM19.4657 10.8958L28.7925 14.173C29.5396 14.2034 29.8223 13.1944 29.1281 12.8628L19.997 9.6167C19.8218 9.6052 19.7835 10.1224 19.7248 10.2866C19.6841 10.3991 19.434 10.8506 19.4666 10.8958H19.4657ZM24.0725 31.7202H26.12V27.1754C26.12 26.8995 26.5274 26.5629 26.7922 26.5629H27.7838L27.7748 23.5738C27.3495 23.3275 26.9551 23.1904 26.6333 22.7898C25.5399 21.4319 26.2015 19.5314 27.7862 18.9764L27.7764 15.223L19.1463 12.1863L24.0725 31.7202ZM17.8012 12.3152C16.9293 12.738 15.8596 12.7503 14.9877 12.3152L14.5494 14.0753L16.3712 15.9208L18.2395 14.0753L17.8012 12.3152ZM13.324 18.8911L15.4334 16.86L14.1868 15.6688L13.324 18.8911ZM19.4649 18.8911L18.6021 15.6688L17.3555 16.86L19.4649 18.8911ZM16.3712 17.8641L13.0722 21.1068L16.4177 24.3669L19.7167 21.06L16.3712 17.8641ZM28.346 20.258C28.0657 20.2801 27.7471 20.4969 27.5915 20.7276C26.9185 21.7234 28.3272 22.853 29.1534 21.9787C29.7857 21.3096 29.2455 20.1874 28.3468 20.258H28.346ZM10.5081 30.1086L15.4294 25.361L12.4587 22.4376L10.5081 30.1086ZM22.28 30.1086L20.3294 22.4376L17.3547 25.4004L22.2808 30.1078L22.28 30.1086ZM10.8919 31.7202H21.9614L16.4177 26.3092L10.8919 31.7202ZM5.32534 27.9167H3.34218V31.7202H5.32534V27.9167ZM29.4475 27.9167H27.4644V31.7202H29.4475V27.9167Z" fill="white" stroke="white" stroke-width="2" mask="url(#path-1-inside-1_3605_27)"/>
<path d="M16.4077 8.88306C16.4183 8.88259 16.4442 8.88239 16.4839 8.9104L16.5278 8.94849C16.5562 8.97744 16.5659 8.99883 16.5698 9.01001C16.5738 9.02136 16.5753 9.0333 16.5737 9.0481C16.57 9.08218 16.5486 9.13689 16.4966 9.18579C16.4446 9.23462 16.3929 9.24952 16.3647 9.25024C16.3525 9.25056 16.3413 9.24821 16.3286 9.24243C16.3157 9.23651 16.2906 9.22211 16.2583 9.18481C16.2178 9.138 16.215 9.10394 16.2183 9.07642C16.223 9.03795 16.246 8.98655 16.2915 8.94263C16.3368 8.89899 16.3813 8.88435 16.4077 8.88306Z" fill="white" stroke="white"/>
</svg>
