<svg width="32" height="32" viewBox="0 0 32 32" fill="none" xmlns="http://www.w3.org/2000/svg">
<g clip-path="url(#clip0_3578_162)">
<path d="M13.0917 0.0065918C12.6555 0.0065918 12.3647 0.29741 12.3647 0.733544C12.3647 1.16968 12.0739 1.4605 11.6378 1.4605C10.4019 1.4605 9.45683 2.40555 9.45683 3.64141C9.45683 4.07761 9.16602 4.36836 8.72988 4.36836C8.29375 4.36836 8.00293 4.65918 8.00293 5.09532C8.00293 5.53145 8.29375 5.82227 8.72988 5.82227C9.96575 5.82227 10.9108 4.87722 10.9108 3.64135C10.9108 3.20515 11.2016 2.9144 11.6378 2.9144C12.8736 2.9144 13.8187 1.96935 13.8187 0.733481C13.8187 0.297348 13.5279 0.0065918 13.0917 0.0065918Z" fill="#FF0000"/>
<path d="M17.454 0.0065918C16.2182 0.0065918 15.2731 0.951642 15.2731 2.18751C15.2731 2.62371 14.9823 2.91446 14.5462 2.91446C13.3103 2.91446 12.3652 3.85951 12.3652 5.09538C12.3652 5.53158 12.6561 5.82233 13.0922 5.82233C13.5284 5.82233 13.8191 5.53151 13.8191 5.09538C13.8191 4.65925 14.11 4.36843 14.5461 4.36843C15.782 4.36843 16.727 3.42338 16.727 2.18751C16.727 1.75131 17.0178 1.46056 17.454 1.46056C17.8902 1.46056 18.1809 1.16974 18.1809 0.733606C18.1809 0.297473 17.8902 0.0065918 17.454 0.0065918Z" fill="#FF0000"/>
<path d="M23.9971 5.82227C22.7613 5.82227 21.8162 6.76732 21.8162 8.00318C21.8162 8.43938 21.5254 8.73014 21.0893 8.73014C20.6531 8.73014 20.3623 9.02095 20.3623 9.45709C20.3623 9.89328 20.6531 10.184 21.0893 10.184C22.3251 10.184 23.2702 9.23899 23.2702 8.00312C23.2702 7.56693 23.561 7.27617 23.9971 7.27617C24.4333 7.27617 24.7241 6.98535 24.7241 6.54922C24.7241 6.11308 24.4333 5.82227 23.9971 5.82227Z" fill="#FF0000"/>
<path d="M27.6319 5.82227C27.1957 5.82227 26.9049 6.11308 26.9049 6.54922C26.9049 6.98535 26.6141 7.27617 26.178 7.27617C24.9421 7.27617 23.9971 8.22122 23.9971 9.45709C23.9971 9.89328 24.2879 10.184 24.724 10.184C25.1602 10.184 25.451 9.89322 25.451 9.45709C25.451 9.02089 25.7418 8.73014 26.1779 8.73014C27.4138 8.73014 28.3588 7.78509 28.3588 6.54922C28.3588 6.11302 28.0681 5.82227 27.6319 5.82227Z" fill="#FF0000"/>
<path d="M31.9207 30.9758L30.5394 27.4863C28.5766 22.6155 27.6316 17.5267 27.6316 12.3652C27.6316 11.929 27.3408 11.6383 26.9046 11.6383H19.6349C19.1987 11.6383 18.9079 11.9291 18.9079 12.3652V15.2731C18.9079 15.7093 19.1987 16 19.6349 16H23.9967C24.4329 16 24.7236 15.7092 24.7236 15.2731C24.7236 14.837 24.4328 14.5461 23.9967 14.5461H20.3618V13.0922H26.1776C26.2503 18.2537 27.2681 23.2698 29.1582 28.0678L30.176 30.5396H21.5977L20.5072 27.4863C18.4716 21.7432 17.4539 15.7093 17.4539 9.60266V8.00332C17.4539 7.56712 17.1631 7.27637 16.7269 7.27637H5.09532C4.65912 7.27637 4.36837 7.56719 4.36837 8.00332V9.60266C4.36837 15.7092 3.3506 21.7431 1.31506 27.4863L0.07925 31.0485C-0.0661279 31.2666 0.00652983 31.4847 0.15197 31.7028C0.297348 31.8482 0.515446 31.9936 0.733544 31.9936H18.181C18.6171 31.9936 18.9079 31.7028 18.9079 31.2667C18.9079 30.8305 18.6171 30.5397 18.181 30.5397H1.75125L2.6963 27.9226C4.73184 22.0341 5.82227 15.8548 5.82227 9.60285V8.73046H15.9999V9.60285C15.9999 10.3298 15.9999 10.9841 16.0726 11.6384H8.00325C7.56705 11.6384 7.2763 11.9292 7.2763 12.3653C7.2763 12.8015 7.56712 13.0923 8.00325 13.0923H16.1453C16.4362 18.1811 17.4539 23.1246 19.1987 27.9226L20.4345 31.4848C20.5072 31.7756 20.798 31.9936 21.0888 31.9936H31.2665C31.4846 31.9936 31.7027 31.8482 31.848 31.7028C31.9934 31.5573 32.0661 31.1939 31.9207 30.9758Z" fill="#FF0000"/>
</g>
<defs>
<clipPath id="clip0_3578_162">
<rect width="32" height="32" fill="white"/>
</clipPath>
</defs>
</svg>
