<svg width="35" height="35" viewBox="0 0 35 35" fill="none" xmlns="http://www.w3.org/2000/svg">
<g clip-path="url(#clip0_3578_187)">
<path d="M34.7297 14.4624C33.9182 9.86017 31.3631 5.84945 27.535 3.16907C23.7069 0.488627 19.0642 -0.540594 14.4619 0.270833C9.85975 1.08226 5.84903 3.6374 3.16858 7.46547C0.488138 11.2935 -0.541083 15.9363 0.270345 20.5385C1.08184 25.1408 3.63691 29.1515 7.46505 31.8319C10.4396 33.9146 13.9058 35.0004 17.4628 35.0004C18.4835 35.0004 19.5119 34.9109 20.538 34.73C25.1402 33.9186 29.1509 31.3635 31.8313 27.5353C34.5117 23.7072 35.5411 19.0646 34.7297 14.4624ZM31.9105 9.65584L31.5037 9.72755C31.0548 9.80664 30.6434 10.015 30.3137 10.3298L29.9762 10.6522C29.6411 10.9723 29.145 11.072 28.7123 10.9063L27.4733 10.4315C27.1553 10.3098 26.8248 10.2296 26.4896 10.1908C26.4982 10.1638 26.5069 10.1368 26.5141 10.1091L26.8209 8.93103L27.862 8.74748L28.0316 9.70923C28.0784 9.97508 28.3096 10.162 28.5704 10.162C28.602 10.162 28.6341 10.1592 28.6662 10.1536C28.9642 10.1011 29.1632 9.81697 29.1106 9.51899L28.9777 8.76553L29.4506 8.90621C29.8778 9.03322 30.3355 9.05954 30.7743 8.98209L31.4496 8.86301C31.6106 9.12298 31.7645 9.38712 31.9105 9.65584ZM25.6945 5.65449L25.4789 4.43188C25.4703 4.38307 25.4808 4.33385 25.5085 4.29297L26.0697 3.51743C26.3528 3.69141 26.632 3.87427 26.9066 4.06656C27.0211 4.14702 27.1344 4.22858 27.2466 4.31136L26.8139 4.7075C26.5906 4.91183 26.5754 5.25834 26.7797 5.48154C26.8878 5.59959 27.0356 5.65948 27.184 5.65948C27.3161 5.65948 27.4487 5.61197 27.5537 5.51572L28.1167 5.00029C29.1256 5.8541 30.0179 6.81667 30.7819 7.86831L30.5842 7.90324C30.312 7.95116 30.0281 7.93496 29.7632 7.85614L29.2418 7.70103C28.8147 7.57402 28.3569 7.5477 27.9181 7.62509L26.2846 7.91315C26.0735 7.95034 25.9035 8.10716 25.8494 8.31456L25.4539 9.83296C25.3929 10.0673 25.1994 10.2459 24.961 10.2879L23.9912 10.4589H23.9911L23.9733 10.4621C23.6362 10.5215 23.3134 10.2956 23.254 9.9584L23.106 9.11908C23.057 8.84154 23.2016 8.5653 23.4575 8.44731L24.5691 7.93489C24.5798 7.92997 24.5903 7.92471 24.6007 7.9191C24.8927 7.76092 25.1478 7.53355 25.3382 7.26155C25.6677 6.79083 25.7942 6.22023 25.6945 5.65449ZM4.06614 8.09396C4.26124 7.81526 4.46475 7.54469 4.67468 7.28062L5.22627 7.66685C5.47408 7.84035 5.77458 7.90707 6.07243 7.85443C6.37027 7.80193 6.62983 7.6365 6.80326 7.38884L7.10807 6.95345C7.38219 6.56182 7.79256 6.30048 8.26335 6.21749L8.42167 6.1896L8.60009 7.20146C8.64698 7.46731 8.87811 7.65427 9.13897 7.65427C9.17055 7.65427 9.20261 7.65161 9.23474 7.64587C9.53272 7.59337 9.73171 7.3092 9.67914 7.01122L9.64585 6.82248L11.9277 5.5715L14.5372 5.11137L14.0766 5.31686C13.6931 5.48796 13.4559 5.85512 13.4579 6.27505C13.4598 6.69512 13.7003 7.06003 14.0854 7.22758L15.6437 7.9055C15.6611 7.91308 15.6698 7.93236 15.6639 7.95034L15.5528 8.28947C15.5486 8.30232 15.5377 8.31176 15.5244 8.31408L14.6563 8.46714C14.3584 8.51964 14.0989 8.68507 13.9254 8.9328C13.9211 8.93889 13.917 8.94511 13.9129 8.95133L10.2535 14.6615L9.31404 14.8272C8.06449 15.0476 7.22716 16.2433 7.44748 17.4928L7.46464 17.5904L6.50316 17.5684C6.12862 17.5598 5.78579 17.3823 5.56267 17.0815L5.09195 16.4468C4.96835 16.2801 4.76095 16.1976 4.55676 16.2337L4.15146 16.3051C3.75846 16.3744 3.36662 16.1851 3.17651 15.8342L1.69434 13.0969C2.18817 11.3301 2.98299 9.64094 4.06614 8.09396ZM30.9336 26.9066C28.4212 30.4952 24.6617 32.8903 20.3477 33.651C19.3856 33.8206 18.4221 33.9045 17.4651 33.9044C14.131 33.9043 10.8814 32.8865 8.09341 30.9342C4.50508 28.4217 2.10997 24.6622 1.3494 20.3482C1.01608 18.4576 1.01416 16.5599 1.32855 14.7222L2.21305 16.3557C2.62806 17.1221 3.48345 17.5352 4.34177 17.384L4.41355 17.3713L4.68261 17.734C5.10869 18.3084 5.76317 18.6473 6.47828 18.6636L9.02351 18.7218C9.14649 18.7247 9.26475 18.7634 9.36544 18.8339L9.53265 18.951C9.77368 19.1199 10.0477 19.2219 10.3325 19.2523L10.0857 20.8745C10.0767 20.9334 10.0774 20.9934 10.0877 21.0521L10.3436 22.5033C10.4535 23.1266 10.8562 23.6695 11.4208 23.9556L13.3927 24.9547C13.6513 25.0857 13.8357 25.3344 13.886 25.6198L14.2271 27.5545C14.3767 28.4023 14.6898 29.1984 15.1579 29.9207L16.3175 31.7103C16.5517 32.0715 16.9525 32.285 17.3778 32.2849C17.4423 32.2849 17.5075 32.28 17.5727 32.2699C17.9105 32.2178 18.2062 32.0359 18.4052 31.758C18.6042 31.48 18.6812 31.1416 18.6218 30.8049L18.2918 28.9333L19.1307 28.1318C19.5307 27.7497 19.7797 27.236 19.832 26.6852L19.9706 25.2251C19.9858 25.149 20.046 25.0898 20.123 25.0762L20.4847 25.0125C21.0663 24.9099 21.5016 24.4268 21.5431 23.8377L21.6466 22.3712C21.7032 21.5695 21.3294 20.7852 20.6711 20.3242L20.3719 20.1147C19.8685 19.7622 19.258 19.6268 18.6525 19.7335L18.3931 19.7792C18.23 19.8081 18.065 19.7715 17.9291 19.6763L15.9027 18.2574C15.1435 17.7258 14.2226 17.5217 13.31 17.6825L10.6248 18.156C10.4616 18.1849 10.2967 18.1483 10.1608 18.0531L9.9936 17.936C9.71503 17.741 9.38814 17.6337 9.04818 17.626L8.5817 17.6153L8.52646 17.302C8.41107 16.6474 8.84967 16.0211 9.50414 15.9056L10.1156 15.7978L10.2234 16.4093C10.2703 16.6751 10.5014 16.8621 10.7623 16.8621C10.7939 16.8621 10.8259 16.8593 10.8581 16.8537C11.156 16.8011 11.355 16.517 11.3025 16.219L11.1415 15.3058L14.8258 9.55706C14.8312 9.55105 14.8386 9.54701 14.8466 9.54558L15.7147 9.39245C16.1268 9.31985 16.4638 9.02762 16.594 8.62997L16.7051 8.29077C16.8881 7.73227 16.6197 7.1344 16.0808 6.9L14.6304 6.26904L16.2734 5.53622C16.5031 5.43389 16.6335 5.18827 16.5899 4.94081L16.462 4.21511C16.4367 4.07203 16.3557 3.94475 16.2367 3.86142C16.1176 3.77809 15.9703 3.74541 15.8273 3.7707L11.6484 4.50755C11.5895 4.51794 11.5326 4.53783 11.4802 4.56675L9.44487 5.68251L9.4055 5.45932C9.38021 5.31624 9.2992 5.18903 9.18019 5.1057C9.06117 5.02237 8.91379 4.98969 8.77078 5.01491L8.07283 5.13803C7.31377 5.27188 6.65232 5.69325 6.21024 6.32455L5.90542 6.75993C5.90324 6.763 5.89674 6.7723 5.88184 6.77497C5.86694 6.7777 5.85764 6.77107 5.8545 6.76888L5.38692 6.44144C7.81532 3.77063 11.039 1.98652 14.652 1.34941C15.6141 1.17981 16.5776 1.096 17.5346 1.096C20.1759 1.096 22.7639 1.7355 25.1116 2.97165L24.6173 3.65497C24.6156 3.65729 24.614 3.65955 24.6123 3.66201C24.4155 3.94311 24.3399 4.28395 24.3995 4.62198L24.6152 5.84466C24.6641 6.12213 24.602 6.40193 24.4404 6.63278C24.3501 6.76184 24.23 6.8704 24.0925 6.94764L22.9987 7.45193C22.2911 7.77807 21.8915 8.54179 22.0267 9.30899L22.1747 10.1483C22.2447 10.545 22.4473 10.8848 22.7277 11.133C22.4372 11.4367 22.2287 11.8207 22.1381 12.2541L21.8702 13.5365C21.7676 14.0272 21.7598 14.5264 21.8468 15.0201C22.0601 16.2297 22.8415 17.2832 23.9372 17.8383L24.0347 17.8878C24.7869 18.2689 25.6587 18.3981 26.489 18.2517L26.5321 18.2441C26.8493 18.1882 27.169 18.2592 27.4327 18.4438C27.6965 18.6284 27.8725 18.9048 27.9283 19.2218L28.2691 21.1544C28.3926 21.8549 28.6527 22.512 29.0422 23.1072L30.3144 25.0514C30.6072 25.4988 31.0409 25.8233 31.5336 25.9848C31.3445 26.2971 31.1451 26.6048 30.9336 26.9066ZM17.162 28.8349L17.5429 30.9952C17.5529 31.0517 17.533 31.0943 17.5145 31.12C17.4961 31.1457 17.4622 31.1783 17.4009 31.1877C17.337 31.1977 17.2724 31.1688 17.2371 31.1144L16.0775 29.3249C15.6896 28.7264 15.4301 28.0667 15.3062 27.3643L14.9651 25.4296C14.8553 24.8063 14.4526 24.2634 13.8879 23.9774L11.916 22.9782C11.6574 22.8472 11.473 22.5986 11.4227 22.3132L11.1824 20.9505L11.4606 19.1217L13.5004 18.762C14.125 18.6519 14.755 18.7916 15.2744 19.1553L17.3008 20.5742C17.6765 20.8373 18.1319 20.9382 18.5836 20.8586L18.843 20.8129C19.16 20.7569 19.4799 20.8279 19.7436 21.0125L20.0429 21.2221C20.3877 21.4636 20.5835 21.8744 20.5538 22.2943L20.4503 23.7607C20.4443 23.8474 20.3802 23.9184 20.2947 23.9335L19.9329 23.9973C19.3875 24.0934 18.9664 24.5262 18.8852 25.0741C18.8838 25.0836 18.8827 25.0931 18.8818 25.1026L18.7414 26.5819C18.7139 26.8703 18.5835 27.1395 18.374 27.3396L17.323 28.3436C17.1906 28.4701 17.1302 28.6545 17.162 28.8349ZM32.0895 24.9938C31.7427 24.9464 31.4274 24.751 31.2317 24.4517L29.9595 22.5076C29.6517 22.0372 29.4462 21.518 29.3485 20.9644L29.0077 19.0318C28.901 18.4266 28.5649 17.899 28.0614 17.5465C27.558 17.194 26.9474 17.0586 26.342 17.1653L26.299 17.1729C25.7006 17.2784 25.0723 17.1853 24.5302 16.9106L24.4326 16.8613C23.643 16.4612 23.0798 15.7019 22.9261 14.8302C22.8634 14.4744 22.869 14.1146 22.9429 13.761L23.2109 12.4785C23.3123 11.9933 23.6932 11.6242 24.1813 11.538L25.5092 11.3039C26.0372 11.2107 26.5807 11.263 27.0814 11.4548L28.3205 11.9295C29.1465 12.246 30.0935 12.0557 30.7333 11.4447L31.0708 11.1222C31.2434 10.9573 31.459 10.8482 31.694 10.8067L32.4199 10.6788C32.9897 11.9306 33.4054 13.2627 33.6506 14.6528C34.2806 18.2256 33.7258 21.8242 32.0895 24.9938Z" fill="#23B53E"/>
<path d="M12.3826 6.91557C12.1951 6.67816 11.8506 6.63769 11.6131 6.8252L10.7298 7.52274C10.4924 7.71025 10.4519 8.05485 10.6394 8.29226C10.7474 8.42919 10.9077 8.50062 11.0697 8.50062C11.1886 8.50062 11.3083 8.46207 11.409 8.38263L12.2922 7.68509C12.5296 7.49751 12.5702 7.15305 12.3826 6.91557Z" fill="#23B53E"/>
<path d="M23.6947 5.72642L23.4918 4.57539C23.4393 4.27734 23.1553 4.07841 22.8571 4.13098C22.5591 4.18348 22.3602 4.46765 22.4127 4.76563L22.6157 5.91667C22.6626 6.18252 22.8937 6.36948 23.1546 6.36948C23.1861 6.36948 23.2182 6.36668 23.2503 6.36107C23.5483 6.30851 23.7473 6.0244 23.6947 5.72642Z" fill="#23B53E"/>
</g>
<defs>
<clipPath id="clip0_3578_187">
<rect width="35" height="35" fill="white"/>
</clipPath>
</defs>
</svg>
