<svg width="79" height="80" viewBox="0 0 79 80" fill="none" xmlns="http://www.w3.org/2000/svg">
<path d="M41.4236 7.48596C37.8856 7.48593 34.4171 8.48176 31.4056 10.3623C28.394 12.2428 25.9579 14.934 24.3692 18.1353C22.7806 21.3367 22.1019 24.9222 22.4089 28.4915C22.716 32.0609 23.9967 35.4735 26.1081 38.3485C26.2501 38.5406 27.6249 40.3156 27.7375 40.4719C30.8234 44.7781 31.8094 47.5563 32.1026 48.625H31.8572C31.7538 48.6248 31.6513 48.6453 31.5556 48.6852C31.46 48.7252 31.373 48.7839 31.2998 48.8579C31.2266 48.9319 31.1685 49.0198 31.1288 49.1166C31.0892 49.2134 31.0688 49.3171 31.0688 49.4219V54.461C31.0688 54.6727 31.1518 54.8758 31.2997 55.0255C31.4476 55.1753 31.6481 55.2594 31.8572 55.2594H51.3804C51.4839 55.2594 51.5863 55.2387 51.6819 55.1986C51.7775 55.1584 51.8643 55.0996 51.9374 55.0254C52.0105 54.9513 52.0684 54.8633 52.1079 54.7664C52.1473 54.6695 52.1675 54.5657 52.1673 54.461V49.4219C52.1673 49.3172 52.147 49.2136 52.1074 49.117C52.0679 49.0203 52.0099 48.9324 51.9368 48.8584C51.8638 48.7844 51.777 48.7257 51.6816 48.6857C51.5861 48.6456 51.4838 48.625 51.3804 48.625H50.7463C51.0379 47.5657 52.0099 44.8281 55.0295 40.5891C55.1993 40.35 56.5 38.661 56.5725 38.5672C59.1372 35.2003 60.522 31.0647 60.5086 26.8125C60.5025 21.6887 58.4898 16.7765 54.912 13.1534C51.3342 9.53034 46.4834 7.49216 41.4236 7.48596ZM54.3707 36.861C54.3013 36.9531 52.965 38.6891 52.7799 38.95C48.7682 44.575 48.026 47.8563 47.8995 48.6375H34.9524C34.8259 47.8563 34.0714 44.5391 29.9856 38.8344C29.8529 38.6469 28.4565 36.8438 28.3362 36.6813C26.5256 34.2166 25.4295 31.2895 25.1712 28.2288C24.913 25.168 25.5027 22.095 26.8741 19.355C28.2456 16.615 30.3444 14.3166 32.9347 12.718C35.5251 11.1194 38.5044 10.284 41.5378 10.3057C44.5712 10.3273 47.5385 11.2052 50.1064 12.8406C52.6742 14.4761 54.7408 16.8042 56.0739 19.5636C57.4071 22.3229 57.9539 25.404 57.653 28.4607C57.3522 31.5175 56.2155 34.4287 54.3707 36.8672V36.861Z" fill="#FF0000"/>
<path d="M35.9865 59.8047C35.9865 60.0665 36.0375 60.3257 36.1366 60.5675C36.2357 60.8094 36.3809 61.029 36.5639 61.2139C36.747 61.3988 36.9642 61.5454 37.2032 61.6451C37.4423 61.7449 37.6984 61.7959 37.9569 61.7953H40.313V63.9953C40.313 64.8241 39.9879 65.619 39.4092 66.205C38.8305 66.7911 38.0455 67.1203 37.2271 67.1203H24.5825C23.764 67.1203 22.9791 66.7911 22.4004 66.205C21.8216 65.619 21.4965 64.8241 21.4965 63.9953V56.5359H24.0363C24.8636 56.5347 25.6567 56.2012 26.2415 55.6087C26.8264 55.0161 27.1553 54.2128 27.1561 53.375V48.5484C27.1545 47.7444 26.8504 46.9711 26.3059 46.386C25.7613 45.8008 25.017 45.4477 24.2245 45.3984V42.2969H21.6014V45.3875H19.0756V42.2969H16.4526V45.3875H16.3353C15.5078 45.3887 14.7146 45.7222 14.1295 46.3147C13.5443 46.9072 13.2151 47.7105 13.2139 48.5484V53.375C13.2147 54.2131 13.5438 55.0166 14.129 55.6092C14.7142 56.2018 15.5077 56.5351 16.3353 56.5359H18.875V63.9953C18.875 65.5286 19.4765 66.9991 20.5471 68.0833C21.6178 69.1675 23.0699 69.7766 24.584 69.7766H37.2255C38.7397 69.7766 40.1918 69.1675 41.2624 68.0833C42.333 66.9991 42.9345 65.5286 42.9345 63.9953V61.7953H45.2906C45.812 61.7953 46.312 61.5856 46.6806 61.2123C47.0493 60.839 47.2564 60.3326 47.2564 59.8047V57.5H35.9927L35.9865 59.8047ZM15.9912 53.375V48.5484C15.9912 48.456 16.0275 48.3674 16.092 48.3021C16.1565 48.2367 16.244 48.2 16.3353 48.2H24.0378C24.129 48.2 24.2166 48.2367 24.2811 48.3021C24.3456 48.3674 24.3819 48.456 24.3819 48.5484V53.375C24.3819 53.4674 24.3456 53.556 24.2811 53.6214C24.2166 53.6867 24.129 53.7234 24.0378 53.7234H16.3353C16.244 53.7234 16.1565 53.6867 16.092 53.6214C16.0275 53.556 15.9912 53.4674 15.9912 53.375Z" fill="#FF0000"/>
<path d="M47.4049 28.1469H44.4378C44.2771 28.1464 44.1189 28.1065 43.9767 28.0305C43.8346 27.9545 43.7128 27.8447 43.6218 27.7106C43.5308 27.5765 43.4732 27.422 43.4541 27.2604C43.435 27.0988 43.4548 26.935 43.512 26.7829L46.007 20.136C46.0641 19.9839 46.084 19.82 46.0648 19.6584C46.0457 19.4968 45.9882 19.3423 45.8971 19.2082C45.8061 19.0741 45.6843 18.9643 45.5422 18.8883C45.4001 18.8123 45.2419 18.7724 45.0812 18.7719H38.6269C38.3992 18.7716 38.1783 18.8506 38.0013 18.9957C37.8243 19.1408 37.702 19.3432 37.6549 19.5688L34.8714 32.8594C34.8406 33.0061 34.8425 33.1578 34.877 33.3036C34.9116 33.4494 34.9779 33.5855 35.071 33.702C35.1642 33.8186 35.2819 33.9125 35.4156 33.977C35.5492 34.0416 35.6954 34.0751 35.8434 34.075H40.0542C40.2005 34.0754 40.3449 34.1084 40.4772 34.1718C40.6095 34.2351 40.7263 34.3272 40.8195 34.4415C40.9126 34.5558 40.9797 34.6894 41.0159 34.833C41.0522 34.9765 41.0568 35.1264 41.0293 35.2719L39.9878 40.7547C39.7981 41.7563 41.1358 42.2578 41.6357 41.3797L48.2705 29.661C48.3596 29.5076 48.4069 29.333 48.4075 29.155C48.4081 28.9771 48.362 28.8022 48.274 28.6482C48.1859 28.4942 48.0591 28.3666 47.9064 28.2785C47.7537 28.1905 47.5806 28.145 47.4049 28.1469Z" fill="#FF0000"/>
</svg>
