<svg width="60" height="60" viewBox="0 0 60 60" fill="none" xmlns="http://www.w3.org/2000/svg">
<path d="M31.4616 5.61426C28.7744 5.61423 26.1402 6.36111 23.8529 7.7715C21.5657 9.18189 19.7155 11.2003 18.5089 13.6013C17.3023 16.0023 16.7868 18.6914 17.02 21.3684C17.2532 24.0454 18.226 26.6049 19.8295 28.7611C19.9374 28.9053 20.9815 30.2365 21.067 30.3537C23.4108 33.5834 24.1596 35.667 24.3823 36.4686H24.196C24.1174 36.4684 24.0395 36.4837 23.9669 36.5137C23.8942 36.5437 23.8282 36.5877 23.7726 36.6432C23.717 36.6987 23.6728 36.7646 23.6427 36.8372C23.6126 36.9098 23.5971 36.9876 23.5971 37.0662V40.8455C23.5971 41.0043 23.6602 41.1566 23.7725 41.2689C23.8848 41.3812 24.0371 41.4443 24.196 41.4443H39.0237C39.1023 41.4443 39.1801 41.4288 39.2527 41.3987C39.3253 41.3686 39.3912 41.3245 39.4467 41.2689C39.5022 41.2133 39.5462 41.1472 39.5762 41.0746C39.6062 41.0019 39.6215 40.9241 39.6213 40.8455V37.0662C39.6213 36.9877 39.6059 36.91 39.5759 36.8375C39.5458 36.765 39.5018 36.6991 39.4463 36.6436C39.3908 36.5881 39.3249 36.5441 39.2524 36.514C39.1799 36.484 39.1022 36.4686 39.0237 36.4686H38.542C38.7635 35.674 39.5018 33.6209 41.7952 30.4416C41.9241 30.2623 42.912 28.9955 42.967 28.9252C44.9149 26.4 45.9667 23.2983 45.9565 20.1092C45.9518 16.2663 44.4232 12.5822 41.7059 9.86486C38.9886 7.14754 35.3044 5.61891 31.4616 5.61426ZM41.2948 27.6455C41.242 27.7146 40.2272 29.0166 40.0866 29.2123C37.0397 33.4311 36.476 35.892 36.3799 36.4779H26.5467C26.4506 35.892 25.8776 33.4041 22.7745 29.1256C22.6737 28.985 21.6131 27.6326 21.5217 27.5107C20.1466 25.6623 19.3141 23.4669 19.118 21.1714C18.9218 18.8758 19.3697 16.5711 20.4113 14.5161C21.4529 12.461 23.047 10.7372 25.0143 9.53829C26.9817 8.33935 29.2444 7.7128 31.5483 7.72905C33.8521 7.7453 36.1058 8.4037 38.056 9.63026C40.0063 10.8568 41.5759 12.603 42.5884 14.6725C43.6009 16.742 44.0162 19.0528 43.7877 21.3453C43.5592 23.6379 42.6959 25.8213 41.2948 27.6502V27.6455Z" fill="#FF0000"/>
<path d="M27.3318 44.8535C27.3318 45.0499 27.3706 45.2443 27.4458 45.4257C27.5211 45.607 27.6313 45.7718 27.7704 45.9104C27.9094 46.0491 28.0744 46.159 28.2559 46.2338C28.4374 46.3087 28.632 46.3469 28.8283 46.3465H30.6178V47.9965C30.6178 48.6181 30.3708 49.2142 29.9313 49.6538C29.4918 50.0933 28.8956 50.3402 28.274 50.3402H18.6705C18.0489 50.3402 17.4528 50.0933 17.0132 49.6538C16.5737 49.2142 16.3268 48.6181 16.3268 47.9965V42.4019H18.2557C18.884 42.401 19.4864 42.1509 19.9306 41.7065C20.3748 41.2621 20.6246 40.6596 20.6252 40.0312V36.4113C20.6239 35.8083 20.393 35.2283 19.9794 34.7895C19.5658 34.3506 19.0006 34.0858 18.3986 34.0488V31.7227H16.4064V34.0406H14.4881V31.7227H12.4959V34.0406H12.4068C11.7784 34.0416 11.1759 34.2916 10.7315 34.736C10.2871 35.1804 10.0371 35.7829 10.0361 36.4113V40.0312C10.0368 40.6598 10.2867 41.2624 10.7312 41.7069C11.1756 42.1514 11.7783 42.4013 12.4068 42.4019H14.3357V47.9965C14.3357 49.1464 14.7926 50.2493 15.6057 51.0625C16.4189 51.8756 17.5217 52.3324 18.6717 52.3324H28.2729C29.4228 52.3324 30.5257 51.8756 31.3388 51.0625C32.152 50.2493 32.6088 49.1464 32.6088 47.9965V46.3465H34.3982C34.7942 46.3465 35.1739 46.1892 35.4539 45.9092C35.7339 45.6292 35.8912 45.2495 35.8912 44.8535V43.125H27.3365L27.3318 44.8535ZM12.1455 40.0312V36.4113C12.1455 36.342 12.173 36.2755 12.222 36.2265C12.2711 36.1775 12.3375 36.15 12.4068 36.15H18.2568C18.3261 36.15 18.3926 36.1775 18.4416 36.2265C18.4906 36.2755 18.5182 36.342 18.5182 36.4113V40.0312C18.5182 40.1006 18.4906 40.167 18.4416 40.216C18.3926 40.265 18.3261 40.2926 18.2568 40.2926H12.4068C12.3375 40.2926 12.2711 40.265 12.222 40.216C12.173 40.167 12.1455 40.1006 12.1455 40.0312Z" fill="#FF0000"/>
<path d="M36.0037 21.1099H33.7502C33.6281 21.1095 33.508 21.0795 33.4 21.0225C33.2921 20.9656 33.1996 20.8832 33.1304 20.7826C33.0613 20.682 33.0176 20.5662 33.0031 20.445C32.9885 20.3238 33.0036 20.2009 33.047 20.0868L34.942 15.1017C34.9854 14.9876 35.0004 14.8647 34.9859 14.7435C34.9714 14.6223 34.9277 14.5064 34.8586 14.4058C34.7894 14.3052 34.6969 14.2229 34.589 14.1659C34.481 14.1089 34.3609 14.079 34.2388 14.0786H29.3369C29.1639 14.0784 28.9961 14.1376 28.8617 14.2465C28.7273 14.3553 28.6344 14.5071 28.5986 14.6763L26.4845 24.6442C26.4611 24.7542 26.4626 24.868 26.4889 24.9774C26.5151 25.0867 26.5654 25.1888 26.6362 25.2762C26.707 25.3636 26.7964 25.4341 26.8979 25.4825C26.9993 25.5309 27.1104 25.556 27.2228 25.556H30.4209C30.532 25.5562 30.6417 25.581 30.7421 25.6285C30.8426 25.676 30.9314 25.7451 31.0021 25.8308C31.0728 25.9165 31.1238 26.0167 31.1513 26.1244C31.1789 26.2321 31.1823 26.3445 31.1615 26.4536L30.3705 30.5657C30.2263 31.3169 31.2423 31.6931 31.622 31.0345L36.6611 22.2454C36.7288 22.1304 36.7647 21.9994 36.7651 21.866C36.7656 21.7325 36.7306 21.6013 36.6637 21.4858C36.5969 21.3703 36.5005 21.2746 36.3845 21.2086C36.2686 21.1425 36.1371 21.1085 36.0037 21.1099Z" fill="#FF0000"/>
</svg>
