<svg width="39" height="39" viewBox="0 0 39 39" fill="none" xmlns="http://www.w3.org/2000/svg">
<g clip-path="url(#clip0_3578_146)">
<path d="M33.2886 5.71144C29.6055 2.02838 24.7086 0 19.5 0C14.2914 0 9.39451 2.02838 5.71144 5.71144C2.02838 9.39451 0 14.2914 0 19.5C0 24.7086 2.02838 29.6055 5.71144 33.2886C9.39451 36.9716 14.2914 39 19.5 39C24.7086 39 29.6055 36.9716 33.2886 33.2886C36.9716 29.6055 39 24.7086 39 19.5C39 14.2914 36.9716 9.39451 33.2886 5.71144ZM32.4251 32.4251C28.9726 35.8774 24.3824 37.7787 19.5 37.7787C14.6176 37.7787 10.0274 35.8774 6.57493 32.4251C3.12259 28.9726 1.22126 24.3824 1.22126 19.5C1.22126 14.6176 3.12259 10.0274 6.57493 6.57493C10.0274 3.12259 14.6176 1.22126 19.5 1.22126C24.3824 1.22126 28.9726 3.12259 32.4251 6.57493C35.8774 10.0273 37.7787 14.6175 37.7787 19.5C37.7787 24.3825 35.8774 28.9726 32.4251 32.4251Z" fill="#FF0000"/>
<path d="M19.5002 16.2839C17.7269 16.2839 16.2842 17.7267 16.2842 19.5C16.2842 21.2733 17.727 22.716 19.5002 22.716C21.2735 22.716 22.7163 21.2733 22.7163 19.5C22.7163 17.7267 21.2736 16.2839 19.5002 16.2839ZM19.5002 21.4948C18.4003 21.4948 17.5054 20.5999 17.5054 19.5C17.5054 18.4001 18.4003 17.5052 19.5002 17.5052C20.6002 17.5052 21.495 18.4001 21.495 19.5C21.495 20.5999 20.6002 21.4948 19.5002 21.4948Z" fill="#FF0000"/>
<path d="M28.1928 33.2891L22.6519 23.6919C22.5706 23.5511 22.4366 23.4486 22.2795 23.4069C22.1223 23.3652 21.9552 23.388 21.8148 23.47C21.1097 23.8823 20.3091 24.1002 19.4997 24.1002C18.6903 24.1002 17.8897 23.8823 17.1845 23.47C17.0442 23.388 16.8771 23.3652 16.7198 23.4069C16.5627 23.4485 16.4287 23.5511 16.3474 23.6919L10.8065 33.2891C10.638 33.5809 10.7378 33.9541 11.0296 34.123C13.5982 35.6091 16.5271 36.3947 19.4997 36.3947C22.4724 36.3947 25.4014 35.6091 27.9699 34.123C28.2615 33.9541 28.3613 33.5809 28.1928 33.2891ZM19.4996 35.1733C16.9455 35.1733 14.4261 34.5482 12.1751 33.361L17.1141 24.8062C17.8639 25.1446 18.6778 25.3215 19.4995 25.3215C20.3212 25.3215 21.1351 25.1447 21.8849 24.8062L26.824 33.361C24.5731 34.5482 22.0537 35.1733 19.4996 35.1733Z" fill="#FF0000"/>
<path d="M34.1035 10.8648C32.6199 8.34966 30.4989 6.24686 27.9701 4.78352C27.8297 4.70233 27.6629 4.68031 27.5065 4.72213C27.35 4.76402 27.2165 4.8664 27.1354 5.00678L21.5545 14.6732C21.4733 14.8138 21.4515 14.9809 21.4938 15.1376C21.5361 15.2944 21.639 15.4279 21.7799 15.5085C23.195 16.3191 24.0832 17.8325 24.0976 19.4586C24.1007 19.7937 24.373 20.0638 24.7083 20.0638H35.8305C36.1677 20.0638 36.4412 19.7904 36.4412 19.4531C36.4411 16.4272 35.6327 13.4574 34.1035 10.8648ZM25.2814 18.8425C25.0951 17.2215 24.2268 15.7395 22.9022 14.7815L27.8815 6.15721C29.9985 7.49479 31.7779 9.32649 33.0515 11.4855C34.367 13.7156 35.1074 16.2472 35.208 18.8426L25.2814 18.8425Z" fill="#FF0000"/>
<path d="M17.4453 14.6731L11.8644 5.00677C11.7833 4.86638 11.6498 4.76408 11.4933 4.72211C11.3368 4.68029 11.1699 4.70238 11.0297 4.78351C8.50084 6.24669 6.37998 8.34949 4.89623 10.8648C3.36693 13.4573 2.55859 16.4271 2.55859 19.4531C2.55859 19.7903 2.83197 20.0637 3.16926 20.0637H14.2915C14.6267 20.0637 14.8991 19.7936 14.9022 19.4586C14.9166 17.8325 15.8048 16.3189 17.22 15.5084C17.3608 15.4278 17.4638 15.2943 17.5061 15.1375C17.5484 14.9808 17.5265 14.8137 17.4453 14.6731ZM13.7182 18.8425H3.79166C3.89229 16.2471 4.63268 13.7153 5.94817 11.4853C7.22176 9.32625 9.00113 7.49462 11.1183 6.15704L16.0975 14.7813C14.7729 15.7395 13.9045 17.2215 13.7182 18.8425Z" fill="#FF0000"/>
</g>
<defs>
<clipPath id="clip0_3578_146">
<rect width="39" height="39" fill="white"/>
</clipPath>
</defs>
</svg>
