<svg width="64" height="65" viewBox="0 0 64 65" fill="none" xmlns="http://www.w3.org/2000/svg">
<path d="M58.4829 31.0624C58.8245 29.7375 58.99 28.3734 58.9753 27.0053C58.9753 22.8265 57.3153 18.8189 54.3604 15.8641C51.4056 12.9093 47.398 11.2493 43.2193 11.2493H43.042C38.874 11.2773 34.8869 12.9557 31.9537 15.917C28.9232 13.0326 24.8916 11.4369 20.7079 11.4659C18.3061 11.4953 15.9413 12.0626 13.7876 13.1263C11.6339 14.19 9.74607 15.7229 8.26288 17.6123C6.77968 19.5018 5.73888 21.6996 5.21702 24.0443C4.69517 26.3889 4.70553 28.8208 5.24734 31.1609C4.9837 31.3438 4.76874 31.5883 4.62114 31.8732C4.47354 32.1581 4.39779 32.4747 4.40046 32.7956C4.40046 33.3179 4.60796 33.8189 4.97731 34.1882C5.34666 34.5576 5.84761 34.7651 6.36996 34.7651H6.46843C7.26542 36.3559 8.31648 37.8061 9.58024 39.0586L10.4271 39.8267C10.5083 39.9406 10.6007 40.0462 10.7029 40.1418L30.8311 59.8368C31.198 60.2007 31.6931 60.4058 32.2098 60.408C32.4704 60.4069 32.7281 60.3541 32.9682 60.2527C33.2082 60.1512 33.4257 60.0032 33.6081 59.8171L53.3031 39.6691C53.5148 39.4506 53.6761 39.1884 53.7758 38.901L54.406 38.2905C55.4352 37.2371 56.3104 36.0436 57.0058 34.7454H57.5572C58.0796 34.7454 58.5805 34.5379 58.9499 34.1685C59.3192 33.7992 59.5267 33.2982 59.5267 32.7759C59.5222 32.423 59.423 32.0777 59.2394 31.7763C59.0557 31.4748 58.7945 31.2283 58.4829 31.0624ZM12.2588 19.0682C13.3719 17.931 14.6982 17.0242 16.162 16.3998C17.6257 15.7754 19.1981 15.4455 20.7894 15.4291C22.3806 15.4126 23.9595 15.7099 25.4358 16.3039C26.9122 16.8979 28.257 17.777 29.3934 18.8909C29.7388 19.2232 30.0612 19.5785 30.3585 19.9545C30.4463 20.075 30.5452 20.1871 30.6539 20.2893C31.0557 20.6364 31.5746 20.8175 32.1052 20.7955C32.6357 20.7736 33.1379 20.5503 33.5097 20.1711L33.7263 19.9151C33.9972 19.5234 34.3073 19.1604 34.652 18.8318C35.7454 17.7058 37.0523 16.8089 38.4962 16.1934C39.9401 15.578 41.4921 15.2564 43.0617 15.2473H43.1799C45.0556 15.2321 46.9081 15.6635 48.584 16.5061C50.2599 17.3486 51.7112 18.578 52.8178 20.0926C53.9244 21.6073 54.6546 23.3635 54.9479 25.2163C55.2412 27.069 55.0892 28.965 54.5045 30.7473L36.4048 30.5307C36.0182 30.531 35.6403 30.6451 35.3181 30.8587C34.9959 31.0723 34.7437 31.3761 34.5929 31.7321L33.9232 29.1126C33.841 28.8136 33.6893 28.5383 33.4806 28.309C33.2718 28.0797 33.0119 27.9029 32.7219 27.7931C32.4275 27.6837 32.1112 27.6463 31.7994 27.6839C31.4877 27.7216 31.1894 27.8333 30.9296 28.0097L28.448 29.6838L25.6907 21.8058C25.5721 21.4658 25.3624 21.1648 25.0846 20.9356C24.8068 20.7064 24.4715 20.5578 24.1151 20.5059C23.7459 20.4356 23.3643 20.4724 23.0153 20.612C22.6663 20.7516 22.3645 20.9882 22.1456 21.2937L15.3509 30.5307L9.20604 30.6882C8.65625 28.6534 8.64877 26.5101 9.18433 24.4715C9.7199 22.4329 10.7798 20.57 12.2588 19.0682ZM51.6487 35.5135C51.3151 35.8647 50.9528 36.1875 50.5655 36.4785C50.1725 36.7642 49.8989 37.1851 49.7974 37.6602L32.2098 55.6221L13.9131 37.7193C13.7847 37.467 13.6033 37.2453 13.3814 37.0694C13.0241 36.8077 12.6882 36.5179 12.3769 36.2028C11.8885 35.7132 11.4467 35.1791 11.0574 34.6075L16.4144 34.4697C16.7151 34.4613 17.0099 34.3842 17.2762 34.2442C17.5425 34.1043 17.7732 33.9051 17.9506 33.6622L23.1304 26.5917L25.4938 33.3864C25.5932 33.6714 25.7568 33.9298 25.9719 34.1415C26.1871 34.3532 26.448 34.5127 26.7346 34.6075C27.0222 34.7043 27.3282 34.7333 27.6288 34.6923C27.9295 34.6513 28.2166 34.5414 28.4677 34.3712L30.7917 32.7956L32.3477 38.5071C32.4559 38.9109 32.6898 39.2698 33.0156 39.5318C33.3413 39.7938 33.742 39.9454 34.1596 39.9646H34.2581C34.6548 39.9634 35.0419 39.8424 35.3688 39.6175C35.6956 39.3926 35.9469 39.0742 36.0897 38.7041L37.7244 34.4697L52.3184 34.6469C52.1129 34.9491 51.8893 35.2385 51.6487 35.5135Z" fill="white"/>
</svg>
