<svg width="68" height="68" viewBox="0 0 68 68" fill="none" xmlns="http://www.w3.org/2000/svg">
<path d="M40.533 20.4227C40.6133 20.2123 40.6413 19.9854 40.6144 19.7618C40.5876 19.5382 40.5068 19.3244 40.379 19.1389C40.2511 18.9535 40.0801 18.8019 39.8807 18.6972C39.6812 18.5925 39.4593 18.5379 39.2341 18.5381H30.2028C29.8844 18.5383 29.5757 18.6478 29.3282 18.8482C29.0807 19.0485 28.9094 19.3277 28.8428 19.6391L24.9421 38.0044C24.8991 38.2065 24.9016 38.4157 24.9496 38.6168C24.9977 38.8178 25.0899 39.0055 25.2197 39.1664C25.3495 39.3272 25.5135 39.4571 25.6999 39.5465C25.8862 39.6359 26.0901 39.6826 26.2968 39.6832H32.1937C32.3986 39.6832 32.6009 39.7285 32.7863 39.8158C32.9716 39.9031 33.1354 40.0304 33.2658 40.1883C33.3963 40.3463 33.4902 40.5312 33.5409 40.7297C33.5916 40.9282 33.5977 41.1355 33.559 41.3367L32.0981 48.907C31.8324 50.2896 33.7038 50.9842 34.4037 49.7636L43.6953 33.5738C43.8165 33.3624 43.8801 33.1228 43.8796 32.879C43.8791 32.6353 43.8146 32.3959 43.6924 32.185C43.5703 31.9741 43.3948 31.7989 43.1837 31.6772C42.9725 31.5554 42.7331 31.4913 42.4893 31.4913H38.3429C38.1177 31.4914 37.8958 31.4367 37.6963 31.332C37.4969 31.2274 37.3258 31.0758 37.1979 30.8904C37.07 30.705 36.989 30.4913 36.962 30.2677C36.935 30.0441 36.9626 29.8172 37.0427 29.6067L40.533 20.4227Z" fill="#FF0000"/>
<path d="M53.6763 53.6804C57.4396 49.8354 60.0153 44.9876 61.0952 39.7169C62.1752 34.4463 61.7136 28.9761 59.7657 23.9609C54.1743 9.5906 37.9327 2.44794 23.561 8.04068L24.4283 10.2693C37.5767 5.15466 52.4239 11.6851 57.5385 24.8282C59.3199 29.4161 59.7412 34.4203 58.7519 39.2415C57.7626 44.0627 55.4046 48.4966 51.9603 52.0122L50.2603 50.3561C50.0814 50.1815 49.8547 50.064 49.6089 50.0183C49.3631 49.9727 49.1093 50.001 48.8797 50.0997C48.65 50.1984 48.4548 50.363 48.3187 50.5727C48.1827 50.7825 48.1119 51.0278 48.1154 51.2778L48.1792 55.7788C48.1841 56.1131 48.3213 56.4318 48.5608 56.6651C48.8003 56.8984 49.1225 57.0272 49.4568 57.0233L53.9578 56.9701C54.2077 56.967 54.451 56.8899 54.657 56.7485C54.863 56.6071 55.0225 56.4078 55.1152 56.1758C55.2079 55.9437 55.2297 55.6894 55.1778 55.445C55.1259 55.2006 55.0027 54.977 54.8238 54.8026L53.6763 53.6804Z" fill="#FF0000"/>
<path d="M24.1519 57.2425C20.3634 55.5795 17.0352 53.0215 14.4533 49.7884C11.8714 46.5553 10.1131 42.7437 9.32929 38.6811C8.54551 34.6186 8.75975 30.4264 9.95359 26.4649C11.1474 22.5033 13.2852 18.8909 16.1832 15.9378L17.6893 17.3988C17.8682 17.5733 18.0949 17.6909 18.3407 17.7365C18.5865 17.7821 18.8403 17.7538 19.07 17.6551C19.2996 17.5564 19.4948 17.3918 19.6309 17.1821C19.7669 16.9724 19.8377 16.727 19.8342 16.477L19.7705 11.976C19.7684 11.8104 19.7337 11.6468 19.6683 11.4946C19.603 11.3424 19.5083 11.2045 19.3896 11.089C19.2709 10.9734 19.1306 10.8823 18.9768 10.821C18.8229 10.7597 18.6584 10.7293 18.4928 10.7316L13.9918 10.7847C13.7399 10.7854 13.494 10.8613 13.2857 11.0028C13.0773 11.1443 12.916 11.3449 12.8225 11.5788C12.729 11.8126 12.7075 12.0691 12.7608 12.3153C12.8142 12.5614 12.9399 12.786 13.1219 12.9602L14.4673 14.271C9.98545 18.836 7.20453 24.7998 6.58848 31.1673C5.97244 37.5349 7.55853 43.9212 11.0821 49.2606C14.6057 54.6001 19.8537 58.5698 25.9505 60.5075C32.0473 62.4451 38.6242 62.2336 44.5838 59.9081L43.7179 57.6808C40.5895 58.9049 37.2495 59.4965 33.891 59.4213C30.5325 59.346 27.2223 58.6055 24.1519 57.2425Z" fill="#FF0000"/>
</svg>
