<svg width="65" height="65" viewBox="0 0 65 65" fill="none" xmlns="http://www.w3.org/2000/svg">
<path d="M38.7447 19.5216C38.8215 19.3205 38.8482 19.1037 38.8225 18.8899C38.7969 18.6761 38.7196 18.4718 38.5974 18.2945C38.4753 18.1172 38.3118 17.9723 38.1212 17.8722C37.9305 17.7722 37.7184 17.72 37.5031 17.7202H28.8703C28.5659 17.7204 28.2708 17.825 28.0342 18.0165C27.7976 18.2081 27.6339 18.4749 27.5703 18.7726L23.8417 36.3277C23.8005 36.5209 23.8029 36.7209 23.8488 36.913C23.8948 37.1051 23.9829 37.2846 24.107 37.4384C24.2311 37.5921 24.3879 37.7162 24.566 37.8017C24.7441 37.8871 24.939 37.9318 25.1366 37.9324H30.7733C30.9691 37.9324 31.1626 37.9757 31.3397 38.0592C31.5169 38.1426 31.6734 38.2642 31.7981 38.4153C31.9228 38.5663 32.0126 38.743 32.061 38.9327C32.1095 39.1225 32.1154 39.3206 32.0784 39.5129L30.6819 46.7493C30.428 48.0708 32.2168 48.7348 32.8858 47.5681L41.7674 32.0925C41.8834 31.8904 41.9442 31.6614 41.9437 31.4284C41.9432 31.1954 41.8815 30.9666 41.7648 30.765C41.648 30.5634 41.4803 30.396 41.2784 30.2796C41.0766 30.1632 40.8477 30.1019 40.6147 30.1019H36.6512C36.4359 30.102 36.2238 30.0497 36.0332 29.9497C35.8425 29.8496 35.679 29.7047 35.5568 29.5275C35.4345 29.3503 35.3571 29.146 35.3312 28.9323C35.3054 28.7185 35.3319 28.5017 35.4084 28.3004L38.7447 19.5216Z" fill="#FF0000"/>
<path d="M51.3081 51.3119C54.9054 47.6366 57.3675 43.0026 58.3998 37.9645C59.4321 32.9264 58.9908 27.6975 57.1289 22.9036C51.7842 9.16731 36.2591 2.33977 22.5215 7.68576L23.3505 9.81604C35.9188 4.92707 50.1109 11.1694 54.9999 23.7326C56.7028 28.1182 57.1055 32.9016 56.1598 37.5101C55.2141 42.1186 52.9602 46.3569 49.6679 49.7174L48.0429 48.1343C47.8718 47.9674 47.6551 47.8551 47.4202 47.8115C47.1853 47.7678 46.9427 47.7949 46.7231 47.8893C46.5036 47.9836 46.317 48.141 46.1869 48.3414C46.0569 48.5419 45.9892 48.7764 45.9926 49.0154L46.0535 53.3178C46.0582 53.6373 46.1894 53.942 46.4183 54.165C46.6472 54.388 46.9552 54.5111 47.2748 54.5073L51.5772 54.4566C51.8161 54.4536 52.0487 54.3799 52.2456 54.2447C52.4425 54.1096 52.5949 53.919 52.6835 53.6972C52.7721 53.4754 52.793 53.2324 52.7434 52.9987C52.6938 52.7651 52.576 52.5514 52.405 52.3847L51.3081 51.3119Z" fill="#FF0000"/>
<path d="M23.0867 54.7168C19.4653 53.1271 16.2839 50.682 13.8159 47.5916C11.348 44.5011 9.66718 40.8577 8.91797 36.9743C8.16877 33.091 8.37355 29.0838 9.51473 25.297C10.6559 21.5102 12.6993 18.0571 15.4695 15.2344L16.9091 16.6309C17.0802 16.7977 17.2969 16.9101 17.5318 16.9537C17.7668 16.9973 18.0094 16.9702 18.2289 16.8759C18.4484 16.7816 18.635 16.6242 18.7651 16.4237C18.8951 16.2233 18.9628 15.9887 18.9594 15.7498L18.8985 11.4474C18.8965 11.289 18.8633 11.1326 18.8009 10.9872C18.7384 10.8417 18.6479 10.7099 18.5344 10.5994C18.421 10.4889 18.2869 10.4019 18.1398 10.3433C17.9927 10.2847 17.8355 10.2556 17.6772 10.2578L13.3748 10.3086C13.134 10.3092 12.899 10.3819 12.6998 10.5171C12.5006 10.6524 12.3464 10.8441 12.257 11.0676C12.1677 11.2912 12.1471 11.5363 12.1981 11.7716C12.2491 12.0069 12.3693 12.2216 12.5432 12.3881L13.8293 13.6411C9.54518 18.0047 6.88695 23.7053 6.29808 29.792C5.70921 35.8786 7.22533 41.9832 10.5935 47.0871C13.9616 52.1909 18.9781 55.9855 24.8059 57.8377C30.6337 59.6899 36.9204 59.4877 42.6172 57.2647L41.7894 55.1357C38.7991 56.3059 35.6064 56.8713 32.3961 56.7994C29.1858 56.7275 26.0216 56.0197 23.0867 54.7168Z" fill="#FF0000"/>
</svg>
