<svg width="36" height="36" viewBox="0 0 36 36" fill="none" xmlns="http://www.w3.org/2000/svg">
<g clip-path="url(#clip0_3390_118)">
<path d="M11.25 24.75C12.4435 24.75 13.5881 24.2759 14.432 23.432C15.2759 22.5881 15.75 21.4435 15.75 20.25C15.75 19.0565 15.2759 17.9119 14.432 17.068C13.5881 16.2241 12.4435 15.75 11.25 15.75C10.0565 15.75 8.91193 16.2241 8.06802 17.068C7.22411 17.9119 6.75 19.0565 6.75 20.25C6.75 21.4435 7.22411 22.5881 8.06802 23.432C8.91193 24.2759 10.0565 24.75 11.25 24.75ZM11.25 18C11.8467 18 12.419 18.2371 12.841 18.659C13.2629 19.081 13.5 19.6533 13.5 20.25C13.5 20.8467 13.2629 21.419 12.841 21.841C12.419 22.2629 11.8467 22.5 11.25 22.5C10.6533 22.5 10.081 22.2629 9.65901 21.841C9.23705 21.419 9 20.8467 9 20.25C9 19.6533 9.23705 19.081 9.65901 18.659C10.081 18.2371 10.6533 18 11.25 18ZM16.875 27H5.625C4.88631 27 4.15486 27.1455 3.4724 27.4282C2.78995 27.7109 2.16985 28.1252 1.64752 28.6475C1.12519 29.1699 0.710862 29.7899 0.428179 30.4724C0.145497 31.1549 0 31.8863 0 32.625C0 33.5201 0.355581 34.3785 0.988516 35.0115C1.62145 35.6444 2.47989 36 3.375 36H19.125C20.0201 36 20.8786 35.6444 21.5115 35.0115C22.1444 34.3785 22.5 33.5201 22.5 32.625C22.5 31.1332 21.9074 29.7024 20.8525 28.6475C19.7976 27.5926 18.3668 27 16.875 27ZM19.125 33.75H3.375C3.07663 33.75 2.79048 33.6315 2.5795 33.4205C2.36853 33.2095 2.25 32.9234 2.25 32.625C2.25 31.7299 2.60558 30.8714 3.23852 30.2385C3.87145 29.6056 4.72989 29.25 5.625 29.25H16.875C17.7701 29.25 18.6286 29.6056 19.2615 30.2385C19.8944 30.8714 20.25 31.7299 20.25 32.625C20.25 32.9234 20.1315 33.2095 19.9205 33.4205C19.7095 33.6315 19.4234 33.75 19.125 33.75ZM36 5.625V16.875C36 18.3668 35.4074 19.7976 34.3525 20.8525C33.2976 21.9074 31.8668 22.5 30.375 22.5H24.0907L19.9215 26.6715C19.8168 26.7759 19.6926 26.8587 19.5559 26.915C19.4193 26.9714 19.2728 27.0003 19.125 27C18.9775 27.0006 18.8313 26.9715 18.6952 26.9145C18.4895 26.8295 18.3136 26.6853 18.1899 26.5003C18.0661 26.3152 18 26.0976 18 25.875V21.375C18 21.0766 18.1185 20.7905 18.3295 20.5795C18.5405 20.3685 18.8266 20.25 19.125 20.25C19.4234 20.25 19.7095 20.3685 19.9205 20.5795C20.1315 20.7905 20.25 21.0766 20.25 21.375V23.1593L22.8285 20.5785C22.9332 20.4741 23.0574 20.3913 23.1941 20.335C23.3307 20.2786 23.4772 20.2497 23.625 20.25H30.375C31.2701 20.25 32.1286 19.8944 32.7615 19.2615C33.3944 18.6286 33.75 17.7701 33.75 16.875V5.625C33.75 4.72989 33.3944 3.87145 32.7615 3.23851C32.1286 2.60558 31.2701 2.25 30.375 2.25H14.625C13.7299 2.25 12.8715 2.60558 12.2385 3.23851C11.6056 3.87145 11.25 4.72989 11.25 5.625V12.375C11.25 12.6734 11.1315 12.9595 10.9205 13.1705C10.7095 13.3815 10.4234 13.5 10.125 13.5C9.82663 13.5 9.54048 13.3815 9.3295 13.1705C9.11853 12.9595 9 12.6734 9 12.375V5.625C9 4.13316 9.59263 2.70242 10.6475 1.64752C11.7024 0.592632 13.1332 0 14.625 0H30.375C31.8668 0 33.2976 0.592632 34.3525 1.64752C35.4074 2.70242 36 4.13316 36 5.625ZM20.5785 15.4215L16.0785 10.9215C15.9737 10.817 15.8906 10.6929 15.8339 10.5562C15.7772 10.4195 15.748 10.273 15.748 10.125C15.748 9.97702 15.7772 9.8305 15.8339 9.69382C15.8906 9.55715 15.9737 9.433 16.0785 9.3285C16.183 9.22373 16.3071 9.14061 16.4438 9.0839C16.5805 9.02718 16.727 8.99799 16.875 8.99799C17.023 8.99799 17.1695 9.02718 17.3062 9.0839C17.4429 9.14061 17.567 9.22373 17.6715 9.3285L21.375 13.0343L27.3285 7.0785C27.433 6.97373 27.5571 6.89061 27.6938 6.8339C27.8305 6.77718 27.977 6.74799 28.125 6.74799C28.273 6.74799 28.4195 6.77718 28.5562 6.8339C28.6929 6.89061 28.817 6.97373 28.9215 7.0785C29.0263 7.183 29.1094 7.30715 29.1661 7.44382C29.2228 7.5805 29.252 7.72702 29.252 7.875C29.252 8.02298 29.2228 8.1695 29.1661 8.30618C29.1094 8.44285 29.0263 8.567 28.9215 8.6715L22.1715 15.4215C22.0668 15.5259 21.9426 15.6087 21.8059 15.665C21.6693 15.7214 21.5228 15.7503 21.375 15.75C21.2272 15.7503 21.0807 15.7214 20.9441 15.665C20.8074 15.6087 20.6832 15.5259 20.5785 15.4215Z" fill="#23B53E"/>
</g>
<defs>
<clipPath id="clip0_3390_118">
<rect width="36" height="36" fill="white"/>
</clipPath>
</defs>
</svg>
