<svg width="67" height="67" viewBox="0 0 67 67" fill="none" xmlns="http://www.w3.org/2000/svg">
<path d="M31.3776 10.4088C31.3223 10.4566 31.2804 10.8294 31.2804 11.2523V11.9973H27.2219C23.7726 11.9973 23.122 12.0451 22.8585 12.2219C22.457 12.5038 22.4432 13.2622 22.8449 13.6278C23.1222 13.8811 23.4403 13.8954 27.2082 13.9384L31.2805 13.9958V15.3171V16.6379H26.1693C21.2243 16.6379 21.0581 16.6379 20.698 16.9342C20.2544 17.2878 20.213 17.89 20.6289 18.2689C20.9062 18.5222 21.2381 18.5365 26.1003 18.5795L31.2805 18.6273V19.9482V21.2833H25.9478C21.5154 21.2833 20.5317 21.3311 20.213 21.4936C19.5342 21.8472 19.5342 22.7442 20.1994 23.1098C20.3656 23.1958 22.4435 23.2484 25.8646 23.2484H31.2807V24.5697V25.9049L26.4605 25.9526C22.1248 26.0004 21.5984 26.0243 21.2665 26.2489C20.8091 26.5452 20.7677 27.2047 21.1693 27.6128C21.4322 27.8804 21.6266 27.8947 26.3633 27.8947H31.2807V29.3002V30.7056H26.5986C22.5954 30.7056 21.8751 30.7534 21.6122 30.9302C21.3211 31.1261 21.3073 31.2408 21.3073 32.9258C21.3073 36.496 21.9027 38.1122 23.4128 38.6741C25.1029 39.2925 26.3771 38.4925 27.9562 35.8351C28.8427 34.3456 30.0617 33.0238 30.7405 32.8551L31.2116 32.7308L31.2807 35.4714L31.3497 38.2259L33.8153 38.2737L36.2671 38.3215V35.5106V32.6993L36.7934 32.9095C37.6937 33.3014 38.2063 33.851 39.5777 35.9311C41.0458 38.1666 41.6279 38.7286 42.6525 38.8404C44.0791 39.0077 45.2567 38.2221 45.7831 36.7741C46.1155 35.8886 46.3785 33.9489 46.3785 32.4455C46.3785 31.5457 46.337 31.377 46.0322 31.0817L45.6997 30.728H40.9768H36.2671V29.3226V27.9167H41.2259H46.1984L46.4895 27.5918C46.8773 27.1712 46.8773 26.9031 46.4617 26.4109L46.1292 26.0191L41.1981 25.9713L36.2669 25.9235V24.5878V23.267H41.7521C45.3394 23.267 47.3206 23.2097 47.5007 23.1141C48.1519 22.7652 48.0823 21.7789 47.3897 21.4559C47.1682 21.3555 45.3256 21.3029 41.6693 21.3029H36.267V19.9682V18.6474L41.5444 18.5996L46.8219 18.5518L47.0848 18.2125C47.4449 17.7777 47.4173 17.4106 47.0019 17.0035L46.6694 16.6499H41.4616H36.2675V15.329V14.0082L40.3398 13.9508L44.4121 13.9031L44.7722 13.5638C45.2152 13.1432 45.2296 12.706 44.8137 12.3127C44.495 12.0021 44.4122 12.0021 40.3813 12.0021H36.2676V11.1586V10.3166H33.871C32.5416 10.3166 31.4193 10.3644 31.3779 10.417L31.3776 10.4088ZM5.65527 24.9979V45.1675H20.7398C32.6385 45.1675 35.852 45.2153 35.9486 45.3347C36.0176 45.4351 36.8489 47.4431 37.7906 49.8043C38.7185 52.1655 39.6608 54.3436 39.8822 54.6533C40.7825 55.9885 42.265 57.0847 43.7883 57.5626C44.3699 57.7298 44.7996 57.9544 44.9244 58.1528C45.0355 58.3057 45.368 59.1639 45.6723 60.0356C45.9766 60.9072 46.2953 61.7368 46.3787 61.8912C46.5173 62.1588 46.6974 62.1731 52.958 62.1731C58.5817 62.1731 59.3992 62.1253 59.3992 61.9628C59.3992 61.8482 58.7756 60.0939 58.014 58.0696C57.2523 56.0315 56.6287 54.2466 56.6287 54.0918C56.6287 53.9389 56.8226 53.5298 57.044 53.2063C58.083 51.646 58.3879 49.7632 57.8891 47.9501C57.7367 47.36 57.4462 46.5165 57.2517 46.0812C57.0579 45.632 56.9054 45.2516 56.9054 45.2234C56.9054 45.1756 58.0548 45.1661 59.4676 45.1661H62.031V24.9964V4.82727H33.8431H5.65528L5.65527 24.9979ZM60.3691 24.9979V43.4806H58.305H56.2548L55.8947 42.6797C55.7008 42.2305 54.6895 39.7135 53.6506 37.0857C52.5978 34.4574 51.7252 32.2787 51.6975 32.2506C51.6839 32.2028 51.3789 32.3509 51.0325 32.5182C50.0356 32.996 49.0657 33.9795 48.5808 34.9778C48.1792 35.8074 48.1516 35.9617 48.2068 36.9734C48.2483 37.9009 48.3869 38.3793 49.0381 40.0375C49.4672 41.1199 49.9384 42.3428 50.1046 42.7361L50.3957 43.4811H28.8568H7.31719V24.9983V6.51608H33.8431H60.3691L60.3691 24.9979Z" fill="white"/>
</svg>
