<svg width="71" height="66" viewBox="0 0 71 66" fill="none" xmlns="http://www.w3.org/2000/svg">
<path d="M31.5645 2.16211C37.2291 2.25652 41.8957 6.74895 42.2705 12.3457L42.293 12.8906C42.3898 19.1349 37.2693 24.1803 31.0264 23.9854H31.0234C25.4114 23.8203 20.8402 19.3318 20.5156 13.7568L20.498 13.2139C20.4495 7.05439 25.4041 2.06542 31.5645 2.16211ZM28.9805 5.25293C28.0957 5.59129 27.3295 6.0907 26.7305 6.75195C25.865 7.70744 25.4297 8.91238 25.4297 10.2031C25.4297 11.6251 25.9406 12.8028 26.8584 13.7256C27.7261 14.598 28.891 15.1773 30.1182 15.6113L30.1279 15.6143L30.1377 15.6182C30.5283 15.7505 30.8342 15.8627 31.0781 15.9639C31.0225 15.9672 30.9621 15.9697 30.8965 15.9697C29.8894 15.9697 28.88 15.6031 28.2109 15.2686L26.543 14.4346L26.0859 16.2422L25.4482 18.7666L25.1699 19.8662L26.1523 20.4326C26.8579 20.8396 27.9389 21.1689 29.0908 21.3301V23.3242H33.8105V21.001C34.7773 20.6381 35.5979 20.1096 36.2256 19.3994C37.1066 18.4026 37.499 17.1739 37.499 15.8887C37.499 14.6096 37.1309 13.4602 36.2949 12.501C35.5054 11.5952 34.3974 10.9748 33.1201 10.5039H33.1211C32.9508 10.4353 32.7947 10.3716 32.6504 10.3125C33.2581 10.4043 33.7443 10.6032 34.1074 10.7666L35.6914 11.4795L36.166 9.80859L36.8594 7.36816L37.1846 6.22461L36.1455 5.64746C35.4596 5.26639 34.6515 4.99859 33.6992 4.86426V2.82324H28.9805V5.25293ZM12.1777 54.8613L11.5508 54.4121C5.78826 50.2884 2.33217 44.6269 2.33203 38.5205C2.33203 31.054 7.48372 24.2676 15.7168 20.1914C18.4093 26.1095 24.3759 30.2578 31.3125 30.2578C38.6172 30.2576 44.8896 25.6549 47.3613 19.1729C48.3557 19.5704 49.3081 20.0052 50.2188 20.4873L51.6162 21.2275L52.2812 19.793C53.359 17.4685 57.2481 14.4726 63.1123 15.5713L58.6934 25.8926L58.3379 26.7227L58.9053 27.4258C60.6398 29.5745 61.8663 31.9615 62.502 34.4531L62.79 35.583H68.9453V48.9482C68.9453 48.9512 68.9444 48.9542 68.9443 48.957C68.8906 48.9664 68.8258 48.9736 68.7539 48.9736H59.4521L59.002 49.5498C57.4268 51.5639 55.39 53.3735 53 54.9668L52.332 55.4121V63.7588C52.3318 64.0396 52.0885 64.2832 51.8076 64.2832H44.4307C44.1498 64.2832 43.9065 64.0396 43.9062 63.7588V59.1719L42.0605 59.6084C39.1253 60.3022 35.9688 60.6777 32.6992 60.6777C29.1096 60.6777 25.6859 60.2219 22.5098 59.3945L20.6318 58.9053V63.7588C20.6316 64.0396 20.3883 64.2832 20.1074 64.2832H12.7021C12.4214 64.2831 12.1779 64.0395 12.1777 63.7588V54.8613Z" stroke="#23B53E" stroke-width="3"/>
</svg>
