<svg width="30" height="24" viewBox="0 0 30 24" fill="none" xmlns="http://www.w3.org/2000/svg">
<path fill-rule="evenodd" clip-rule="evenodd" d="M4.10375 1.09847L5.18908 0.265625H24.2949L25.3802 1.09847L29.2419 16.4318L28.1567 17.7894H15.8599V21.0751H20.3315V23.2656H9.15258V21.0751H13.6241V17.7894H1.32728L0.241943 16.4318L4.10375 1.09847ZM6.06466 2.4561L4.68545 7.93229H10.2078L11.587 2.4561H6.06466ZM2.75454 15.599L4.13377 10.1228H9.65616L8.27693 15.599H2.75454ZM10.5798 15.599L11.9589 10.1228H18.0331L19.4123 15.599H10.5798ZM16.1021 2.4561L17.4814 7.93229H12.5107L13.8899 2.4561H16.1021ZM18.405 2.4561L19.7841 7.93229H24.7986L23.4192 2.4561H18.405ZM21.7151 15.599L20.3359 10.1228H25.3502L26.7294 15.599H21.7151Z" fill="white"/>
</svg>
