<svg width="52" height="49" viewBox="0 0 52 49" fill="none" xmlns="http://www.w3.org/2000/svg">
<path d="M0.66334 37.2974C0.271618 37.2361 -0.0994865 36.746 0.024215 36.3376L7.65248 12.2406C7.81741 11.873 8.22975 11.7913 8.60086 11.7709L31.0527 11.8322C31.1764 11.8118 31.2176 11.1379 31.2589 10.9745C32.3928 6.17551 37.7944 3.66371 42.2271 6.05299C47.7318 9.01406 47.3401 16.9987 41.6292 19.4493L46.9071 36.2559C46.969 36.6235 47.0102 36.8686 46.7009 37.134C46.6597 37.1749 46.3711 37.3382 46.3505 37.3382H24.2697V44.1998H33.2793L40.2478 47.4672C40.7014 47.8756 40.5571 48.6107 39.9798 48.815H7.0752C6.37423 48.7129 6.25053 47.7735 6.8278 47.4059L13.652 44.1998H22.7235L22.6204 37.3382H0.66334V37.2974ZM32.9082 11.7709C34.805 11.7505 36.7223 11.7709 38.6191 11.7709C38.8665 11.7709 39.2789 12.0568 39.3613 12.3019L41.1344 17.8973C45.8144 15.8347 45.6495 9.0549 40.887 7.15573C37.2378 5.68541 33.3618 7.95216 32.7227 11.7301C32.8257 11.8934 32.867 11.7709 32.8876 11.7709H32.9082ZM13.1366 13.3842H8.91011L7.81741 16.8966H12.3738L13.116 13.3842H13.1366ZM14.7859 13.3842L14.0437 16.8966H18.9506L19.2186 13.3842H14.7859ZM26.2077 13.3842H20.8679L20.5587 16.8966H26.4757L26.2077 13.3842ZM32.2485 13.3842H27.754L28.022 16.8966H32.9288L32.2485 13.3842ZM39.1139 16.8966L38.0006 13.3842H33.8772L34.5576 16.8966H39.1139ZM12.0439 18.5099H7.28137L6.12683 22.492H11.1161L12.0439 18.5099ZM18.7856 18.5099H13.6932L12.8686 22.492H18.4145L18.7856 18.5099ZM20.4144 18.5099L20.0845 22.3287C20.0845 22.3287 20.1463 22.492 20.1876 22.492H26.8881L26.6201 18.5099H20.4144ZM33.3412 18.5099H28.1663L28.4962 22.492H34.0421L34.1246 22.3491L33.3412 18.5099ZM34.9081 18.5099L35.8358 22.492H40.9076L39.6912 18.5099H34.9081ZM10.8893 24.0236H5.6114L4.20945 28.2712H9.98219L10.8687 24.0236H10.8893ZM18.3733 24.0236H12.5593L11.6315 28.2712H18.0228L18.3527 24.0236H18.3733ZM19.9402 24.0236L19.6721 28.2712H27.3623L27.0324 24.0236H19.9402ZM34.4957 24.0236H28.6405L28.9085 28.2712H35.3616L34.4751 24.0236H34.4957ZM41.4436 24.0236H36.1451L37.0728 28.2712H42.7425L41.4436 24.0236ZM9.67294 29.8845H3.79711C3.63218 30.1296 3.57033 30.4359 3.46724 30.7014C2.99305 32.1308 2.53948 33.5807 2.10652 35.0102C2.04467 35.194 1.94159 35.4799 1.92097 35.6433C1.87974 35.8475 2.00344 35.6841 2.02406 35.6841H8.45654L9.67294 29.8845ZM11.2398 29.8845L10.0853 35.6841H17.5074L17.9197 29.8845H11.2398ZM27.486 29.8845H19.5278L19.0536 35.6841H27.8983L27.486 29.8845ZM29.0529 29.8845L29.527 35.6841H36.9491L35.7327 29.8845H29.0529ZM43.2785 29.8845H37.3615L38.6191 35.6841H44.9485C44.9485 35.6841 45.0104 35.8067 45.1134 35.6433L43.2785 29.8845ZM10.8893 47.2629H36.1245L33.1762 45.8335L14.0437 45.7722C13.0541 46.1806 12.0439 46.6095 11.0955 47.0792C11.013 47.12 10.91 47.1404 10.8893 47.2425V47.2629Z" fill="#FFBF00"/>
<path d="M50.8038 13.1594C50.6801 13.282 50.4327 13.3636 50.2472 13.3841C49.8142 13.4249 48.2679 13.4453 47.8762 13.3841C47.0721 13.2207 47.0515 11.9546 48.0205 11.7912C48.4535 11.7095 49.8348 11.7299 50.2884 11.7912C50.9481 11.9137 51.3398 12.6489 50.8038 13.1594Z" fill="#FFBF00"/>
<path d="M43.1136 19.9393C43.4023 19.878 43.7527 19.9393 43.9589 20.1639C44.1445 20.3477 44.9485 21.7772 45.0722 22.0835C45.1135 22.1856 45.1959 22.3286 45.2165 22.4307C45.3609 23.1454 44.4537 23.6764 43.8764 23.1454C43.6703 22.9616 42.8868 21.573 42.7425 21.2463C42.5982 20.9604 42.4951 20.8378 42.5776 20.5111C42.6394 20.2456 42.825 20.021 43.1136 19.9597V19.9393Z" fill="#FFBF00"/>
<path d="M46.2268 16.7125C46.4536 16.4879 46.7834 16.447 47.0721 16.5287C47.2989 16.59 49.0101 17.5702 49.1956 17.7336C49.8554 18.3258 49.2781 19.3469 48.3709 19.0814C48.2266 19.0405 46.3917 17.9786 46.268 17.8561C45.9381 17.5498 45.8969 17.0393 46.2268 16.7125Z" fill="#FFBF00"/>
<path d="M43.835 2.09099C44.4329 1.49877 45.4844 2.09099 45.1339 3.00994C45.0308 3.27542 44.1237 4.80701 43.9587 5.01122C43.299 5.72596 42.2269 5.05206 42.7011 4.031C42.8248 3.76552 43.6907 2.27478 43.8557 2.11141L43.835 2.09099Z" fill="#FFBF00"/>
<path d="M32.5782 1.8868C32.8668 1.82554 33.1967 1.8868 33.4235 2.11143C33.5678 2.25438 34.5368 3.9085 34.6193 4.15355C34.9698 5.03166 33.9595 5.66472 33.341 5.07251C32.9081 4.64366 32.5164 3.45923 32.0834 2.9487C31.9391 2.5607 32.1452 1.98891 32.5782 1.8868Z" fill="#FFBF00"/>
<path d="M48.5563 6.05278C49.0923 5.97109 49.5459 6.48162 49.4428 7.01257C49.4016 7.31889 49.0923 7.48226 48.8449 7.64563C48.5975 7.809 47.278 8.60542 47.0719 8.64627C46.0822 8.89132 45.5462 7.82942 46.4121 7.19636C46.6595 7.03299 48.3295 6.0732 48.5357 6.05278H48.5563Z" fill="#FFBF00"/>
<path d="M28.4342 6.05258C28.661 6.01174 28.8259 6.09342 29.0115 6.17511C29.2795 6.29763 30.8258 7.15532 30.9907 7.31869C31.5886 7.87006 31.0938 8.82986 30.1867 8.64607C30.0424 8.60523 28.1662 7.54332 28.0219 7.4208C27.5477 6.97153 27.7951 6.15468 28.4136 6.05258H28.4342Z" fill="#FFBF00"/>
<path d="M38.4128 0.334825C38.8045 0.253141 39.32 0.457353 39.3818 0.886198C39.4437 1.23336 39.4437 3.19379 39.3818 3.50011C39.2169 4.23527 37.9386 4.21485 37.8355 3.31632C37.7943 2.9079 37.7737 1.29462 37.8355 0.906619C37.8974 0.641143 38.1448 0.396089 38.4128 0.334825Z" fill="#FFBF00"/>
</svg>
