<svg width="17" height="16" viewBox="0 0 17 16" fill="none" xmlns="http://www.w3.org/2000/svg">
<path d="M0.877661 11.5327C0.758157 11.514 0.644942 11.3645 0.68268 11.2399L3.00987 3.88848C3.06019 3.77634 3.18598 3.75142 3.2992 3.74519L10.1487 3.76388C10.1864 3.75765 10.199 3.55206 10.2116 3.50222C10.5575 2.03817 12.2054 1.27188 13.5577 2.00079C15.2371 2.90414 15.1176 5.34007 13.3753 6.08766L14.9855 11.2149C15.0043 11.3271 15.0169 11.4018 14.9226 11.4828C14.91 11.4953 14.8219 11.5451 14.8157 11.5451H8.07938V13.6384H10.828L12.9539 14.6352C13.0923 14.7598 13.0482 14.9841 12.8721 15.0464H2.83376C2.61991 15.0152 2.58217 14.7287 2.75828 14.6165L4.84018 13.6384H7.60765L7.5762 11.5451H0.877661V11.5327ZM10.7148 3.74519C11.2934 3.73896 11.8784 3.74519 12.457 3.74519C12.5325 3.74519 12.6583 3.83241 12.6834 3.90717L13.2244 5.61419C14.6521 4.98496 14.6018 2.9166 13.1489 2.33721C12.0356 1.88865 10.8531 2.58018 10.6582 3.73273C10.6896 3.78257 10.7022 3.74519 10.7085 3.74519H10.7148ZM4.68293 4.23736H3.39354L3.06019 5.30892H4.45021L4.67664 4.23736H4.68293ZM6.53211 4.23736H5.18611L4.95968 5.30892H6.45663L6.5384 4.23736H6.53211ZM8.67061 4.23736H7.04157L6.94723 5.30892H8.75237L8.67061 4.23736ZM10.5135 4.23736H9.14234L9.2241 5.30892H10.7211L10.5135 4.23736ZM12.608 5.30892L12.2683 4.23736H11.0104L11.2179 5.30892H12.608ZM4.34958 5.80108H2.89666L2.54443 7.01593H4.06654L4.34958 5.80108ZM6.40631 5.80108H4.85276L4.60117 7.01593H6.2931L6.40631 5.80108ZM8.79011 5.80108H6.9032L6.80257 6.96609C6.80257 6.96609 6.82143 7.01593 6.83401 7.01593H8.87817L8.7964 5.80108H8.79011ZM10.8468 5.80108H9.26813L9.36876 7.01593H11.0607L11.0859 6.97232L10.8468 5.80108ZM12.7778 5.80108H11.3249L11.6079 7.01593H13.1552L12.7841 5.80108H12.7778ZM3.99736 7.48318H2.38719L1.95949 8.77902H3.72061L3.99107 7.48318H3.99736ZM6.28052 7.48318H4.50682L4.22379 8.77902H6.17359L6.27423 7.48318H6.28052ZM8.91591 7.48318H6.75854L6.67677 8.77902H9.02283L8.9222 7.48318H8.91591ZM11.1991 7.48318H9.41279L9.49456 8.77902H11.4632L11.1928 7.48318H11.1991ZM13.3187 7.48318H11.7022L11.9853 8.77902H13.715L13.3187 7.48318ZM3.62626 9.27119H1.8337C1.78338 9.34595 1.76451 9.4394 1.73306 9.52039C1.5884 9.95649 1.45002 10.3988 1.31794 10.8349C1.29907 10.891 1.26762 10.9782 1.26133 11.028C1.24875 11.0903 1.28649 11.0405 1.29278 11.0405H3.25517L3.62626 9.27119ZM6.13586 9.27119H4.10428L3.75206 11.0405H6.01635L6.14215 9.27119H6.13586ZM9.06057 9.27119H6.63274L6.48808 11.0405H9.18636L9.06057 9.27119ZM11.5702 9.27119H9.53859L9.68325 11.0405H11.9475L11.5765 9.27119H11.5702ZM13.8785 9.27119H12.0733L12.457 11.0405H14.388C14.388 11.0405 14.4068 11.0779 14.4383 11.028L13.8785 9.27119ZM3.99736 14.5729H11.696L10.7965 14.1368L4.95968 14.1181C4.65778 14.2427 4.34958 14.3736 4.06025 14.5168C4.03509 14.5293 4.00365 14.5355 3.99736 14.5667V14.5729Z" fill="#FFBF00"/>
<path d="M16.1742 4.16895C16.1365 4.20633 16.061 4.23125 16.0044 4.23748C15.8723 4.24994 15.4006 4.25617 15.2811 4.23748C15.0358 4.18764 15.0295 3.80138 15.3251 3.75154C15.4572 3.72662 15.8786 3.73285 16.0169 3.75154C16.2182 3.78892 16.3377 4.0132 16.1742 4.16895Z" fill="#FFBF00"/>
<path d="M13.8282 6.23729C13.9163 6.2186 14.0232 6.23729 14.0861 6.30582C14.1427 6.36189 14.388 6.79799 14.4258 6.89144C14.4383 6.92259 14.4635 6.9662 14.4698 6.99735C14.5138 7.2154 14.2371 7.37738 14.061 7.2154C13.9981 7.15933 13.7591 6.73569 13.715 6.63601C13.671 6.54879 13.6395 6.51141 13.6647 6.41173C13.6836 6.33074 13.7402 6.26221 13.8282 6.24352V6.23729Z" fill="#FFBF00"/>
<path d="M14.7779 5.25273C14.847 5.1842 14.9477 5.17174 15.0357 5.19666C15.1049 5.21535 15.627 5.51439 15.6836 5.56423C15.8848 5.7449 15.7087 6.0564 15.432 5.97541C15.388 5.96295 14.8282 5.63899 14.7904 5.60161C14.6898 5.50816 14.6772 5.35241 14.7779 5.25273Z" fill="#FFBF00"/>
<path d="M14.0483 0.79225C14.2307 0.61158 14.5514 0.792249 14.4445 1.0726C14.4131 1.15359 14.1363 1.62084 14.086 1.68314C13.8847 1.90119 13.5577 1.6956 13.7023 1.3841C13.7401 1.30311 14.0042 0.84832 14.0545 0.79848L14.0483 0.79225Z" fill="#FFBF00"/>
<path d="M10.6141 0.729726C10.7022 0.711036 10.8028 0.729726 10.872 0.798256C10.916 0.841866 11.2116 1.34649 11.2368 1.42125C11.3437 1.68914 11.0355 1.88227 10.8468 1.7016C10.7148 1.57077 10.5952 1.20944 10.4632 1.05369C10.4191 0.935316 10.482 0.760876 10.6141 0.729726Z" fill="#FFBF00"/>
<path d="M15.4885 2.00093C15.652 1.97601 15.7904 2.13176 15.759 2.29374C15.7464 2.38719 15.652 2.43703 15.5766 2.48687C15.5011 2.53671 15.0986 2.77968 15.0357 2.79214C14.7337 2.8669 14.5702 2.54294 14.8344 2.34981C14.9099 2.29997 15.4193 2.00716 15.4822 2.00093H15.4885Z" fill="#FFBF00"/>
<path d="M9.34974 2.00063C9.41893 1.98817 9.46925 2.01309 9.52586 2.03801C9.60762 2.07539 10.0794 2.33705 10.1297 2.38689C10.3121 2.5551 10.1611 2.84791 9.88437 2.79184C9.84034 2.77938 9.26798 2.45542 9.22395 2.41804C9.07929 2.28098 9.15476 2.03178 9.34345 2.00063H9.34974Z" fill="#FFBF00"/>
<path d="M12.394 0.256372C12.5135 0.231452 12.6707 0.293752 12.6896 0.424582C12.7084 0.530492 12.7084 1.12857 12.6896 1.22202C12.6393 1.4463 12.2493 1.44007 12.2178 1.16595C12.2053 1.04135 12.199 0.549182 12.2178 0.430812C12.2367 0.349822 12.3122 0.275062 12.394 0.256372Z" fill="#FFBF00"/>
</svg>
