<svg width="45" height="45" viewBox="0 0 45 45" fill="none" xmlns="http://www.w3.org/2000/svg">
<path fill-rule="evenodd" clip-rule="evenodd" d="M9.11742 9.50685L10.4827 8.4375H34.5169L35.8821 9.50685L40.74 29.1943L39.3748 30.9375H23.9061V35.1562H29.5311V37.9688H15.4686V35.1562H21.0936V30.9375H5.62476L4.25946 29.1943L9.11742 9.50685ZM11.5841 11.25L9.84917 18.2812H16.7961L18.531 11.25H11.5841ZM7.42019 28.125L9.15518 21.0938H16.1021L14.3671 28.125H7.42019ZM17.2639 28.125L18.9988 21.0938H26.6398L28.3748 28.125H17.2639ZM24.2108 11.25L25.9459 18.2812H19.693L21.4279 11.25H24.2108ZM27.1076 11.25L28.8426 18.2812H35.1505L33.4153 11.25H27.1076ZM31.2716 28.125L29.5367 21.0938H35.8444L37.5793 28.125H31.2716Z" fill="#FF0000"/>
</svg>
