<svg width="536" height="195" viewBox="0 0 536 195" fill="none" xmlns="http://www.w3.org/2000/svg">
<path d="M83.3852 18.1388L83.3852 182.861M89.0981 18.1388L89.0981 182.861M97.6675 18.1388L97.6675 182.861M101.928 33.8254H164.77M101.928 165.223H164.77M167.627 33.8254H230.469M167.627 165.223H230.469M233.325 33.8254H296.167M233.325 165.223H296.167M110.998 173.34V181.909M142.419 173.34V181.909M176.696 173.34V181.909M207.165 173.34V181.909M243.347 173.34V181.909M274.768 173.34V181.909M123.376 173.34V181.909M154.797 173.34V181.909M189.074 173.34V181.909M219.543 173.34V181.909M255.725 173.34V181.909M287.146 173.34V181.909M159.557 18.1388V27.6603M108.141 18.1388V27.6603M224.304 18.1388V27.6603M172.888 18.1388V27.6603M237.634 18.1388V27.6603M290.002 18.1388V27.6603M373.607 188.545V10.6C373.607 10.2522 373.327 9.97196 372.98 9.97196H310.386C309.803 9.97196 309.332 10.4441 309.332 11.0271V188.545M373.607 188.545C373.607 190.295 372.192 191.715 370.445 191.715H312.494C310.747 191.715 309.332 190.295 309.332 188.545M373.607 188.545V12.7118H378.109V193.712H304.886V12.7118H309.332V188.545M463.809 8.75342H395.26V187.831H463.809M463.809 8.75342V187.831M463.809 8.75342H528.855V187.831H463.809M398.129 31.4591H461.34V11.3029H398.129V31.4591ZM398.129 31.4591L461.303 31.4591V185.319H398.129V31.4591ZM465.205 193.852H457.228L457.228 187.831H461.759M465.205 193.852C463.289 193.777 461.759 192.197 461.759 190.258V187.831M465.205 193.852C465.253 193.853 465.301 193.855 465.349 193.855H526.376C527.337 193.855 528.21 193.477 528.855 192.86C529.54 192.205 529.966 191.281 529.966 190.258V187.831H461.759M1 11.4737H304.737V194.287H1V11.4737ZM10.5215 18.1388H299.976V182.861H10.5215V18.1388ZM18.1388 32.4211H76.2201V175.244H18.1388V32.4211ZM25.756 40.0383H68.6029V98.1196H25.756V40.0383ZM25.756 109.545H68.6029V167.627H25.756V109.545ZM105.737 40.0383H138.11V165.723H105.737V40.0383ZM109.545 45.7512H135.254V79.0766H109.545V45.7512ZM109.545 84.7895H135.254V118.115H109.545V84.7895ZM109.545 126.684H135.254V160.01H109.545V126.684ZM100.976 27.6603H164.77V173.34H100.976V27.6603ZM141.919 53.3684H160.01V58.1292H141.919V53.3684ZM161.914 95.2632V105.737H159.057V95.2632H161.914ZM151.44 74.7919C151.44 75.5807 150.801 76.2201 150.012 76.2201C149.223 76.2201 148.584 75.5807 148.584 74.7919C148.584 74.0031 149.223 73.3637 150.012 73.3637C150.801 73.3637 151.44 74.0031 151.44 74.7919ZM171.435 40.0383H203.809V165.723H171.435V40.0383ZM175.244 45.7512H200.952V79.0766H175.244V45.7512ZM175.244 84.7895H200.952V118.115H175.244V84.7895ZM175.244 126.684H200.952V160.01H175.244V126.684ZM166.675 27.6603H230.469V173.34H166.675V27.6603ZM207.617 53.3684H225.708V58.1292H207.617V53.3684ZM227.612 95.2632V105.737H224.756V95.2632H227.612ZM217.139 74.7919C217.139 75.5807 216.499 76.2201 215.711 76.2201C214.922 76.2201 214.282 75.5807 214.282 74.7919C214.282 74.0031 214.922 73.3637 215.711 73.3637C216.499 73.3637 217.139 74.0031 217.139 74.7919ZM237.134 40.0383H269.507V165.723H237.134V40.0383ZM240.943 45.7512H266.651V79.0766H240.943V45.7512ZM240.943 84.7895H266.651V118.115H240.943V84.7895ZM240.943 126.684H266.651V160.01H240.943V126.684ZM232.373 27.6603H296.167V173.34H232.373V27.6603ZM273.316 53.3684H291.407V58.1292H273.316V53.3684ZM293.311 95.2632V105.737H290.455V95.2632H293.311ZM282.837 74.7919C282.837 75.5807 282.198 76.2201 281.409 76.2201C280.62 76.2201 279.981 75.5807 279.981 74.7919C279.981 74.0031 280.62 73.3637 281.409 73.3637C282.198 73.3637 282.837 74.0031 282.837 74.7919ZM27.6603 18.1388H66.6986V30.5168H27.6603V18.1388ZM59.0813 100.976H71.4593V105.737H59.0813V100.976ZM317.433 21.7332H365.802C366.494 21.7332 367.055 22.2968 367.055 22.9892V32.7526C367.055 33.4465 366.493 34.0086 365.802 34.0086H317.433C316.558 34.0086 315.847 33.2966 315.847 32.4198V23.322C315.847 22.4452 316.558 21.7332 317.433 21.7332ZM341.561 42.1172H341.563C342.628 42.1172 343.492 42.9828 343.492 44.0507V179.109C343.492 180.177 342.628 181.043 341.563 181.043H341.561C340.496 181.043 339.632 180.177 339.632 179.109V44.0507C339.632 42.9828 340.496 42.1172 341.561 42.1172ZM402.345 13.5107H456.972V27.1754H402.345V13.5107ZM401.694 11.3029H457.997C458.521 11.3029 458.947 11.729 458.947 12.2547V27.8619C458.947 28.3875 458.521 28.8136 457.997 28.8136H401.694C401.17 28.8136 400.745 28.3875 400.745 27.8619V12.2547C400.745 11.729 401.17 11.3029 401.694 11.3029ZM421.358 31.4591H438.167V185.319H421.358V31.4591ZM438.167 173.328H461.303V176.011H438.167V173.328ZM398.109 173.328H421.358V176.011H398.109V173.328ZM398.166 134.103H421.358V136.729H398.166V134.103ZM438.167 101.442H461.131V103.783H438.167V101.442ZM398.129 68.5534H421.358V70.8946H398.129V68.5534ZM424.008 31.4591H435.604V185.319H424.008V31.4591ZM465.947 168.161H526.719V185.89H465.947V168.161ZM465.947 148.89H526.719V166.62H465.947V148.89ZM465.947 129.62H526.719V147.349H465.947V129.62ZM465.947 110.35H526.719V128.079H465.947V110.35ZM465.947 91.0792H526.719V108.809H465.947V91.0792ZM465.947 71.8088H526.719V89.5384H465.947V71.8088ZM465.947 52.5385H526.719V70.268H465.947V52.5385ZM465.947 33.2666H526.719V50.9962H465.947V33.2666ZM465.947 13.9963H526.719V31.7259H465.947V13.9963ZM462.1 1.1499H530.051V8.75342H462.1V1.1499ZM535.158 3.85648L534.122 193.689H527.457L529.273 192.383C530.015 191.733 529.697 189.776 529.697 188.76V186.352H528.493V8.5979H529.789V3.85648H535.158Z" stroke="#144C84" stroke-miterlimit="10"/>
</svg>
