<svg width="17" height="23" viewBox="0 0 17 23" fill="none" xmlns="http://www.w3.org/2000/svg">
<path d="M1.98457 0.534546C-0.260945 2.78006 -0.260945 6.41989 1.98457 8.66541L2.79766 7.85232C1.00125 6.05591 1.00125 3.14404 2.79766 1.34763L1.98457 0.534546ZM13.5654 0.534546L12.7523 1.34763C14.5488 3.14404 14.5488 6.05591 12.7523 7.85232L13.5654 8.66541C15.8109 6.41989 15.8109 2.78006 13.5654 0.534546ZM3.61074 2.16072C2.26343 3.50803 2.26343 5.69192 3.61074 7.03923L4.42383 6.22615C3.52562 5.32794 3.52562 3.87201 4.42383 2.9738L3.61074 2.16072ZM11.9393 2.16072L11.1262 2.9738C12.0244 3.87201 12.0244 5.32794 11.1262 6.22615L11.9393 7.03923C13.2866 5.69192 13.2866 3.50803 11.9393 2.16072ZM6.05 2.29998V11.8369L4.325 10.1119L2.29902 12.1379L2.454 12.7263L2.64492 13.3013L2.86953 13.8696L3.12559 14.4177L3.41309 14.9545L3.73203 15.4711L4.08242 15.9697L4.45977 16.4436L4.86631 16.8973L5.29531 17.3263L5.75127 17.7284L6.03877 17.9934L6.30156 18.2854L6.53291 18.5999L6.73281 18.9368L6.89902 19.2939L7.0293 19.6623L7.12363 20.0419L7.17979 20.4304L7.2 20.8213V23H15.25V18.9121L15.2657 18.5392L15.3196 18.1686L15.405 17.807L15.524 17.4521L15.6745 17.1107L15.852 16.7536L16.0182 16.3897L16.1552 16.0124L16.2607 15.6283L16.3371 15.2352L16.3843 14.8399L16.4 14.4401V10.5094L9.5 8.21169V2.29998H6.05ZM7.2 3.44998H8.35V9.0405L15.25 11.3405V14.4401L15.232 14.813L15.1804 15.1813L15.095 15.5452L14.976 15.9001L14.8232 16.2392L14.6458 16.5964L14.4818 16.9602L14.3448 17.3376L14.2393 17.7217L14.1606 18.1147L14.1135 18.5123L14.0978 18.9121V21.8522H8.35V20.8213L8.33203 20.3676L8.27139 19.9183L8.17256 19.4759L8.03555 19.0446L7.86035 18.6268L7.65146 18.2225L7.40664 17.8429L7.13037 17.4836L6.82266 17.1511L6.48574 16.8457L6.04551 16.4526L5.62998 16.0326L5.24365 15.5856L4.88652 15.1184L4.55859 14.6243L4.26211 14.1144L4.00156 13.5844L3.77471 13.0385L3.58154 12.4815L4.325 11.7381L7.2 14.6131V3.44998Z" fill="white"/>
</svg>
