<svg width="64" height="64" viewBox="0 0 64 64" fill="none" xmlns="http://www.w3.org/2000/svg">
<path d="M46.1002 12.125C46.5752 14.55 48.7002 16.325 51.1752 16.325C53.6502 16.325 55.7752 14.55 56.2502 12.125L56.8752 8.95001C57.0752 7.40001 56.6252 5.85001 55.6002 4.67501C54.5752 3.50001 53.1002 2.82501 51.5502 2.82501H50.8252C49.2752 2.82501 47.8002 3.50001 46.7752 4.67501C45.7502 5.85001 45.2752 7.40001 45.5002 9.02501L46.1002 12.125ZM48.6502 6.32501C49.2002 5.70001 50.0002 5.32501 50.8502 5.32501H51.5752C52.4252 5.32501 53.2002 5.67501 53.7752 6.32501C54.3252 6.95001 54.5752 7.80001 54.4752 8.55001L53.8752 11.65C53.6252 12.925 52.5252 13.825 51.2252 13.825C49.9252 13.825 48.8252 12.9 48.5752 11.65L47.9752 8.62501C47.8502 7.80001 48.1002 6.95001 48.6502 6.32501Z" fill="#23B53E"/>
<path d="M62.8248 28.6L61.3998 21.85C61.2248 21.025 60.6248 20.35 59.8498 20.075L54.9248 18.325L51.2248 22.025L47.5248 18.325L42.5998 20.075C41.8248 20.35 41.2248 21.025 41.0498 21.85L39.6248 28.6C39.4748 29.275 39.8998 29.925 40.5748 30.075C41.2498 30.225 41.8998 29.8 42.0498 29.125L43.4498 22.425L46.8998 21.2L51.2498 25.55L55.5998 21.2L58.9998 22.375L60.4248 29.125C60.5498 29.7 61.0748 30.1 61.6498 30.1C61.7248 30.1 61.8248 30.1 61.8998 30.075C62.5248 29.95 62.9498 29.275 62.8248 28.6Z" fill="#23B53E"/>
<path d="M7.72519 12.125C8.20019 14.55 10.3252 16.325 12.8002 16.325C15.2752 16.325 17.4002 14.55 17.8752 12.125L18.5002 8.95001C18.7002 7.40001 18.2502 5.85001 17.2252 4.67501C16.2002 3.50001 14.7252 2.82501 13.1752 2.82501H12.4502C10.9002 2.82501 9.42519 3.50001 8.40019 4.67501C7.37519 5.85001 6.90019 7.40001 7.12519 9.02501L7.72519 12.125ZM10.2752 6.32501C10.8252 5.70001 11.6252 5.32501 12.4752 5.32501H13.2002C14.0502 5.32501 14.8252 5.67501 15.4002 6.32501C15.9502 6.95001 16.2002 7.80001 16.1002 8.55001L15.5002 11.65C15.2502 12.925 14.1502 13.825 12.8502 13.825C11.5502 13.825 10.4502 12.9 10.2002 11.65L9.60019 8.62501C9.45019 7.80001 9.72519 6.95001 10.2752 6.32501Z" fill="#23B53E"/>
<path d="M17.175 21.2L20.575 22.375L22 29.125C22.125 29.7 22.65 30.1 23.225 30.1C23.3 30.1 23.4 30.1 23.475 30.075C24.15 29.925 24.575 29.275 24.425 28.6L23 21.85C22.825 21.025 22.225 20.35 21.45 20.075L16.525 18.325L12.8 22.05L9.10003 18.325L4.17503 20.075C3.40003 20.35 2.80003 21.025 2.62503 21.85L1.20003 28.6C1.05003 29.275 1.47503 29.925 2.15003 30.075C2.82503 30.225 3.47503 29.8 3.62503 29.125L5.00003 22.425L8.45003 21.2L12.8 25.55L17.175 21.2Z" fill="#23B53E"/>
<path d="M31.9999 47.375C34.4749 47.375 36.5999 45.6 37.0749 43.175L37.6999 40C37.8999 38.45 37.4499 36.9 36.4249 35.725C35.3999 34.55 33.9249 33.875 32.3749 33.875H31.6499C30.0999 33.875 28.6249 34.55 27.5999 35.725C26.5749 36.9 26.0999 38.45 26.3249 40.075L26.9249 43.175C27.3999 45.6 29.5249 47.375 31.9999 47.375ZM29.4499 37.375C29.9999 36.75 30.7999 36.375 31.6499 36.375H32.3749C33.2249 36.375 33.9999 36.725 34.5749 37.375C35.1249 38 35.3749 38.85 35.2749 39.6L34.6749 42.7C34.4249 43.975 33.3249 44.875 32.0249 44.875C30.7249 44.875 29.6249 43.95 29.3749 42.7L28.7749 39.675C28.6499 38.85 28.8999 38 29.4499 37.375Z" fill="#23B53E"/>
<path d="M42.2002 52.925C42.0252 52.1 41.4252 51.425 40.6502 51.15L35.7252 49.4L32.0002 53.1L28.3002 49.4L23.3752 51.15C22.6002 51.425 22.0002 52.1 21.8252 52.925L20.4002 59.675C20.2502 60.35 20.6752 61 21.3502 61.15C22.0252 61.3 22.6752 60.875 22.8252 60.2L24.2002 53.5L27.6502 52.275L32.0002 56.625L36.3502 52.275L39.7502 53.45L41.1752 60.2C41.3002 60.775 41.8252 61.175 42.4002 61.175C42.4752 61.175 42.5752 61.175 42.6502 61.15C43.3252 61 43.7502 60.35 43.6002 59.675L42.2002 52.925Z" fill="#23B53E"/>
<path d="M53.3498 33.375C52.6498 33.3 52.0498 33.8 51.9998 34.5C51.4998 39.675 49.0248 44.375 45.0748 47.75C44.5498 48.2 44.4998 48.975 44.9248 49.5C45.1748 49.8 45.5248 49.925 45.8748 49.925C46.1498 49.925 46.4498 49.825 46.6748 49.625C51.1248 45.825 53.8998 40.55 54.4748 34.725C54.5248 34.05 54.0248 33.45 53.3498 33.375Z" fill="#23B53E"/>
<path d="M12.0248 34.5C11.9498 33.825 11.3498 33.325 10.6748 33.375C9.99983 33.45 9.49983 34.05 9.54983 34.725C10.1248 40.55 12.8998 45.85 17.3498 49.625C17.5748 49.825 17.8748 49.925 18.1498 49.925C18.4998 49.925 18.8498 49.775 19.0998 49.475C19.5498 48.95 19.4748 48.175 18.9498 47.725C14.9998 44.375 12.5248 39.675 12.0248 34.5Z" fill="#23B53E"/>
<path d="M25.4248 13.525C29.5998 12.05 34.3998 12.05 38.5998 13.525C38.7248 13.575 38.8748 13.6 39.0248 13.6C39.5248 13.6 40.0248 13.275 40.1998 12.775C40.4248 12.125 40.0998 11.425 39.4498 11.2C34.7248 9.52504 29.3498 9.52504 24.6248 11.2C23.9748 11.425 23.6498 12.15 23.8748 12.775C24.0498 13.425 24.7748 13.75 25.4248 13.525Z" fill="#23B53E"/>
</svg>
