<svg width="108" height="125" viewBox="0 0 108 125" fill="none" xmlns="http://www.w3.org/2000/svg">
<path d="M5.38038 15.0153C4.85503 14.8616 4.20846 13.7047 4.87928 13.2193C9.12243 9.48974 13.0989 5.48515 17.342 1.74752C17.7623 1.37538 17.9562 0.679631 18.2876 0.428838C19.5161 -0.477253 34.5166 0.315576 37.1353 0.380297L50.8103 13.2193L51.1417 14.1982L50.6325 15.0153H37.2161V26.1796L50.8022 39.4231C51.4003 40.0541 51.2063 41.2191 50.3011 41.2191H37.5313L43.3505 70.6589C43.8111 71.2252 43.9243 70.6023 43.989 70.1654C44.2153 68.6283 44.9669 65.2386 44.9669 64.025V45.2641L45.4518 44.7787H70.9834C71.3956 44.7787 71.7513 45.79 71.8078 46.2188C72.511 51.4692 71.4118 58.5076 71.7755 64.0412C71.9371 66.5492 72.8423 69.0894 72.7534 71.6297L86.3315 71.9533V98.4808L88.2227 98.4322C88.441 97.9953 88.546 97.5099 88.5945 97.0245C89.3947 88.5138 87.9399 78.8704 88.6592 70.2382C89.1441 68.1105 91.989 67.609 92.3285 67.1155C92.4336 66.9698 92.2719 64.7532 92.7164 63.6286C93.1852 62.4475 94.5592 61.6223 94.7208 60.7809C94.9309 59.6968 94.5996 58.2164 94.7208 57.0676L92.5063 56.6954V55.1745C93.0397 54.8913 93.6297 54.8347 94.2197 54.7862C95.5614 54.6891 103.393 54.6405 103.959 55.0936C104.428 55.4657 104.516 56.1696 104.387 56.7116L102.156 57.0676C102.261 58.1516 102.003 59.438 102.14 60.4816C102.35 62.043 104.436 62.5769 104.743 65.6431C105.171 69.9389 105.284 81.5158 104.718 85.666C104.363 88.271 102.261 90.423 99.5782 90.3826V98.4727H107.66C107.555 98.7882 107.984 99.1765 107.984 99.2817V123.867C107.984 124.507 106.044 124.507 106.044 123.867V100.9L105.559 100.414H84.8767L84.3918 99.9289V73.8869H73.4L80.1486 118.738V124.636L79.106 124.943L78.411 124.353L78.2493 120.793H38.679C38.1617 120.866 39.1801 125.364 37.0949 124.968C35.2198 124.49 36.812 118.212 36.5129 116.627L27.663 113.051C19.799 116.562 11.5794 119.442 3.7801 123.099C2.76175 123.576 2.1475 124.774 0.975586 124.215L17.5036 41.2191H5.38038C5.01668 41.2191 4.13572 39.868 4.87928 39.4231L17.8269 27.1423V15.0072H5.38038V15.0153ZM32.6981 2.07113H22.353C22.7813 2.88823 27.1376 6.26179 27.6306 6.22134C29.0531 5.23435 30.8877 4.1341 32.1486 2.98531C32.4638 2.69406 32.8355 2.69406 32.6901 2.07113H32.6981ZM20.0899 3.36554V12.1028C20.9467 11.2291 25.5939 8.34095 25.5858 7.41868L20.0899 3.37363V3.36554ZM35.2844 11.7792V3.36554L29.4734 7.73419C30.0957 8.23578 34.8965 12.208 35.2844 11.7792ZM47.238 13.0737L37.8627 3.52734L37.2161 3.85095V12.5882L37.701 13.0737H47.238ZM17.8269 4.33635L8.93653 12.4184L8.78297 13.0656C9.22749 12.839 9.60736 13.0656 9.91448 13.0656H17.835V4.33635H17.8269ZM32.6981 13.0737L27.6953 9.19041C25.7475 10.2178 24.026 11.6579 22.353 13.0737H32.6981ZM33.0214 15.3389H22.353L27.6872 19.4648L33.0134 15.3389H33.0214ZM20.0899 25.047L25.5858 21.0019L25.0928 20.201L20.0899 16.6414V25.0551V25.047ZM35.2844 16.6333L30.0068 20.2496L29.4653 21.0019L35.2844 25.047V16.6333ZM22.353 26.3414H32.6981C32.8921 25.5809 32.5203 25.7994 32.286 25.5971C30.8635 24.3755 29.1743 23.3723 27.6872 22.2397C27.1295 22.2074 22.8541 25.5243 22.361 26.3414H22.353ZM32.6981 28.2749H22.353C23.6946 30.0062 25.804 30.9689 27.4124 32.4413C27.6953 32.4899 31.6475 29.626 32.1566 29.1891C32.4961 28.8979 32.8275 28.8736 32.6981 28.2749ZM20.0899 37.983L24.7695 34.7389L25.5858 33.6306L20.0899 29.5774V37.9911V37.983ZM35.2844 29.5693L29.4653 33.6144L30.0068 34.3668L35.2844 37.983V29.5693ZM47.238 38.9539L37.2161 29.5693V38.9539H47.238ZM17.8269 38.9539V30.2166L8.4516 38.9539H17.8269ZM22.353 39.2775H33.0214L27.6953 35.1515L22.361 39.2775H22.353ZM35.236 41.5831L19.9768 41.5265L18.7726 46.8498C21.4235 47.4404 24.8261 50.1586 27.1942 50.7735C27.7276 50.911 28.0105 50.9757 28.5762 50.8625C29.142 50.7492 35.8825 47.7235 36.0927 47.3675C36.6827 46.3967 35.4623 42.8209 35.236 41.5831ZM69.5367 46.7203H47.3996L46.9632 47.2543L46.9147 49.3092H69.5367V46.7203ZM25.2625 51.898L18.1583 48.9856L16.8652 56.1048C17.4875 55.7165 25.6667 52.44 25.2625 51.9061V51.898ZM38.1859 55.7812C37.9031 54.8023 37.3858 49.8593 36.7069 49.649C34.6379 50.2881 32.5365 51.1456 30.7584 52.3915L38.1859 55.7893V55.7812ZM69.5367 51.5744H46.9147V62.9005H69.5367V51.5744ZM18.4735 57.3993C18.3523 57.9898 18.6352 58.0384 19.0312 58.2892C21.3588 59.7616 25.2706 60.6191 27.7276 62.1643L37.5313 57.8847L28.0024 53.4998L18.4654 57.4074L18.4735 57.3993ZM100.249 57.0676H97.0162V60.6272H100.249V57.0676ZM25.2625 63.2241L15.8953 59.3328L14.2789 68.0701L25.2625 63.2241ZM40.7722 67.7465L39.1558 59.6645L30.7584 63.3859L40.7722 67.7465ZM96.9272 62.6497C95.6988 62.8763 94.6481 63.7338 94.446 65.0201C95.0845 71.3385 93.5166 79.6147 94.446 85.6822C95.0441 89.5655 101.971 89.3066 102.488 86.0058V65.012C102.092 62.4718 98.9478 62.2776 96.9272 62.6416V62.6497ZM39.8024 69.6962L28.0024 64.5428L15.8872 69.858L27.9782 75.1894C31.3323 73.45 35.3087 72.3174 38.6305 70.6185C38.8487 70.5052 40.0044 69.9551 39.8024 69.6962ZM69.8277 65.1981L46.5914 65.1577L38.8325 118.706L77.9422 118.536L69.8277 65.19V65.1981ZM97.3314 90.3907C94.7451 90.5929 92.1588 87.8504 92.1588 85.3748V69.3645C91.6981 69.4859 90.5423 70.8693 90.5423 71.1443V98.4808H97.3314V90.3907ZM24.9393 76.1602L13.7939 71.3061C13.4221 71.5003 13.4302 71.8077 13.3171 72.1313C12.323 75.0276 12.2664 79.2587 11.3612 82.3087L24.9312 76.1683L24.9393 76.1602ZM30.7584 76.1602L41.9118 81.6453C43.4232 80.5612 42.1543 71.8239 41.2491 71.6297L30.7584 76.1602ZM41.6936 83.6516L27.6872 77.584L12.0158 84.404L27.3639 91.3372L41.2329 85.5042C41.8795 85.1402 41.8714 84.3069 41.6936 83.6435V83.6516ZM24.616 92.3404L10.3994 86.5155L7.81311 99.7752L24.616 92.3404ZM39.8024 96.8627L41.0955 87.8018L30.4351 92.4941L39.8024 96.8546V96.8627ZM39.4549 98.8286L27.3801 93.9341L8.14448 102.202L27.6387 110.697L38.4607 106.183L39.4629 98.8286H39.4549ZM24.9393 111.748L7.00489 103.99L3.29517 120.801L24.9473 111.748H24.9393ZM37.8627 108.836L30.4351 112.064L37.2161 114.661L37.8627 108.836Z" fill="#133C6D"/>
<path d="M79.8013 16.3906C80.4641 17.0702 79.7286 21.091 79.47 22.1993C78.5324 26.1554 75.5986 29.4319 71.2908 29.537C66.983 29.6422 59.903 24.7234 57.5268 31.6081C57.0985 32.8459 57.1389 38.5979 55.3123 37.1903C54.0111 33.3717 55.8134 27.5064 60 26.3172C64.7442 24.9742 68.1387 27.8381 72.2687 27.2718C75.9785 26.7621 77.3443 22.9112 77.9182 19.6671C78.0394 18.9956 77.7808 14.3196 79.8094 16.3906H79.8013Z" fill="#133C6D"/>
<path d="M76.229 29.626C78.5567 28.9545 77.5383 31.5757 75.9785 32.6274C71.3797 35.7259 67.4679 31.1955 63.8633 33.1209C61.0749 34.6095 62.3681 38.2177 61.6326 39.3018C61.3174 39.7629 60.299 39.7629 59.9838 39.3018C58.8604 37.6676 60.5981 32.7326 62.3115 31.5757C66.587 28.6876 71.0726 33.0643 74.6772 31.0094C75.2511 30.6858 75.6713 29.7959 76.2209 29.6341L76.229 29.626Z" fill="#133C6D"/>
<path d="M60.1697 89.4199H68.2519L68.2842 90.8842L52.8392 105.883C52.0956 106.077 51.3359 105.293 51.4975 104.54L55.3285 95.2448H49.0244C48.8789 95.2448 47.9818 94.6299 47.909 94.3953L48.2 93.4488L62.7641 78.9109L64.0734 78.8866C64.4937 79.2425 64.4048 79.6632 64.3239 80.1244C63.9764 82.0903 61.0183 86.2405 60.3314 88.441C60.2263 88.7727 60.1212 89.0639 60.1859 89.4199H60.1697ZM57.5834 91.3615C56.759 89.1448 59.2968 87.3731 59.3615 85.213L51.7642 92.9795H57.4218C59.5878 92.9795 55.676 98.7801 56.1286 99.7752L64.6957 91.3696H57.5834V91.3615Z" fill="#133C6D"/>
</svg>
