<svg width="30" height="37" viewBox="0 0 30 37" fill="none" xmlns="http://www.w3.org/2000/svg">
<mask id="path-1-outside-1_3605_45" maskUnits="userSpaceOnUse" x="0" y="0" width="30" height="37" fill="black">
<rect fill="white" width="30" height="37"/>
<path d="M3.39377 36C3.31253 35.9052 3.26932 35.8251 3.25462 35.6963C3.1924 35.1194 3.20536 33.8881 3.25462 33.2982C3.26327 33.1938 3.26413 33.0598 3.31944 32.971C3.47415 32.7248 5.50173 32.9292 5.89497 32.8483L11.2664 20.3181V18.5752H2.64704C2.68853 18.8276 2.58309 19.267 2.65828 19.4863C2.68248 19.5567 3.10856 19.8465 3.21919 20.0144C3.61676 20.6149 3.39291 21.4676 2.75162 21.7896C1.51571 22.4108 0.322156 20.7602 1.45867 19.736C1.56238 19.6429 1.78104 19.6081 1.82167 19.4863C1.93488 19.1417 1.70585 18.1828 1.89513 17.92L11.2664 13.3473V11.6732H2.64704V12.6295C2.64704 12.6417 2.79829 12.6521 2.87348 12.706C4.24249 13.6919 2.80347 15.6463 1.52608 14.7483C0.889981 14.301 0.814792 13.3604 1.3878 12.8313C1.50621 12.7226 1.78969 12.6129 1.82167 12.5163C1.93143 12.1813 1.70931 11.1876 1.89426 10.9492L11.1999 6.44617C11.3917 6.22863 11.1679 5.05567 11.3018 4.70413L14.7244 1.11127C14.873 0.961607 15.1306 0.964217 15.2758 1.11127L18.6983 4.70413C18.8331 5.05567 18.6084 6.22863 18.8002 6.44617L28.0695 10.917C28.3141 11.1572 28.0618 12.1639 28.1776 12.5163C28.2096 12.6129 28.493 12.7226 28.6114 12.8313C29.187 13.363 29.1084 14.3019 28.4732 14.7483C27.2035 15.6411 25.7464 13.6998 27.1258 12.706C27.201 12.6521 27.3522 12.6417 27.3522 12.6295V11.6732H18.7328V13.3473L28.1041 17.92C28.2934 18.1828 28.0644 19.1417 28.1776 19.4863C28.2303 19.6472 28.8863 19.783 28.9753 20.4591C29.0531 21.0525 28.8405 21.552 28.2813 21.7983C27.1681 22.2882 26.1379 21.0612 26.7533 20.0545C26.8708 19.8622 27.3176 19.5559 27.3418 19.4854C27.4162 19.2652 27.3116 18.8267 27.3531 18.5743H18.7337V20.3173L24.1051 32.8474C24.4975 32.9292 26.526 32.7239 26.6807 32.9701C26.7368 33.0589 26.7368 33.1929 26.7455 33.2973C26.7965 33.9116 26.8025 35.0855 26.7455 35.6954C26.7334 35.8242 26.6867 35.9052 26.6063 35.9991H21.177L20.973 35.7607C21.062 34.9558 20.8468 33.8777 20.9903 33.1085C21.0067 33.0215 21.0301 32.9353 21.1251 32.9014L21.8554 32.7883L15.0294 29.9176L8.14639 32.7883L8.8767 32.9014C8.97177 32.9353 8.99511 33.0215 9.01153 33.1085C9.07635 33.4566 9.0798 35.4884 8.99943 35.8007C8.97436 35.8973 8.89917 35.9478 8.82484 36H3.39377ZM17.9187 6.27475V5.01042C17.9187 4.90426 16.6171 3.70868 16.4235 3.50854C16.2299 3.30841 15.1375 2.01362 14.975 2.04233L12.0814 5.00955V6.27388L17.9187 6.27475ZM17.5108 7.09444H12.4885L15.0338 9.6901L17.5108 7.09444ZM11.2673 7.36853L4.00481 10.8535H11.2673V7.36853ZM18.7328 7.36853V10.8535H25.9953L18.7328 7.36853ZM12.0814 12.6295L14.3916 10.2722L12.0814 7.91499V12.6295ZM17.9187 12.6295V7.91412L15.6085 10.2714L17.9187 12.6295ZM17.3077 13.2447L14.9681 10.8526L12.6925 13.2447H17.3077ZM2.4958 14.0487C2.86743 13.6745 2.23392 13.0036 1.89599 13.4796C1.59609 13.9016 2.19071 14.3558 2.4958 14.0487ZM27.5043 14.0487C27.8085 14.3558 28.404 13.9016 28.1041 13.4796C27.7662 13.0045 27.1327 13.6745 27.5043 14.0487ZM17.3751 14.0652H12.6242L15.0243 16.452L17.3751 14.0652ZM11.2673 14.3384L4.1405 17.7555H11.2673V14.3384ZM18.7328 14.3384V17.7555H25.8596L18.7328 14.3384ZM12.0814 19.3949L14.3838 17.0464L12.0814 14.7474V19.3949ZM17.9187 19.3949V14.7483L15.6163 17.0968L17.9187 19.3949ZM17.3077 20.0101L14.975 17.692L12.6916 20.0101H17.3077ZM2.08527 20.2955C1.64276 20.4252 1.80006 21.2457 2.3264 21.0908C2.7689 20.9612 2.61161 20.1406 2.08527 20.2955ZM27.6728 20.2955C27.2303 20.4252 27.3876 21.2457 27.914 21.0908C28.3565 20.9612 28.1992 20.1406 27.6728 20.2955ZM16.968 20.8298H13.0312C13.2974 21.0238 14.841 22.2003 15.0225 22.1829C15.6889 21.7626 16.3682 21.3423 16.968 20.8298ZM9.9095 25.613L14.2516 22.7093L11.81 21.0351L9.9095 25.613ZM20.0897 25.613L18.1892 21.0351L15.7476 22.7093L20.0897 25.613ZM14.9767 23.2349L9.84468 26.6746L9.84123 26.8095L14.7944 28.9291L15.0329 28.9666L20.2246 26.7407L14.9767 23.2349ZM13.9137 29.5078L9.13339 27.3925L6.92345 32.4463L13.9137 29.5078ZM23.0767 32.4454L20.8667 27.3907L16.0864 29.4739L23.0767 32.4454ZM8.21294 33.6767H4.07309V35.1803H8.21294V33.6767ZM25.927 33.6767H21.7872V35.1803H25.927V33.6767Z"/>
</mask>
<path d="M3.39377 36C3.31253 35.9052 3.26932 35.8251 3.25462 35.6963C3.1924 35.1194 3.20536 33.8881 3.25462 33.2982C3.26327 33.1938 3.26413 33.0598 3.31944 32.971C3.47415 32.7248 5.50173 32.9292 5.89497 32.8483L11.2664 20.3181V18.5752H2.64704C2.68853 18.8276 2.58309 19.267 2.65828 19.4863C2.68248 19.5567 3.10856 19.8465 3.21919 20.0144C3.61676 20.6149 3.39291 21.4676 2.75162 21.7896C1.51571 22.4108 0.322156 20.7602 1.45867 19.736C1.56238 19.6429 1.78104 19.6081 1.82167 19.4863C1.93488 19.1417 1.70585 18.1828 1.89513 17.92L11.2664 13.3473V11.6732H2.64704V12.6295C2.64704 12.6417 2.79829 12.6521 2.87348 12.706C4.24249 13.6919 2.80347 15.6463 1.52608 14.7483C0.889981 14.301 0.814792 13.3604 1.3878 12.8313C1.50621 12.7226 1.78969 12.6129 1.82167 12.5163C1.93143 12.1813 1.70931 11.1876 1.89426 10.9492L11.1999 6.44617C11.3917 6.22863 11.1679 5.05567 11.3018 4.70413L14.7244 1.11127C14.873 0.961607 15.1306 0.964217 15.2758 1.11127L18.6983 4.70413C18.8331 5.05567 18.6084 6.22863 18.8002 6.44617L28.0695 10.917C28.3141 11.1572 28.0618 12.1639 28.1776 12.5163C28.2096 12.6129 28.493 12.7226 28.6114 12.8313C29.187 13.363 29.1084 14.3019 28.4732 14.7483C27.2035 15.6411 25.7464 13.6998 27.1258 12.706C27.201 12.6521 27.3522 12.6417 27.3522 12.6295V11.6732H18.7328V13.3473L28.1041 17.92C28.2934 18.1828 28.0644 19.1417 28.1776 19.4863C28.2303 19.6472 28.8863 19.783 28.9753 20.4591C29.0531 21.0525 28.8405 21.552 28.2813 21.7983C27.1681 22.2882 26.1379 21.0612 26.7533 20.0545C26.8708 19.8622 27.3176 19.5559 27.3418 19.4854C27.4162 19.2652 27.3116 18.8267 27.3531 18.5743H18.7337V20.3173L24.1051 32.8474C24.4975 32.9292 26.526 32.7239 26.6807 32.9701C26.7368 33.0589 26.7368 33.1929 26.7455 33.2973C26.7965 33.9116 26.8025 35.0855 26.7455 35.6954C26.7334 35.8242 26.6867 35.9052 26.6063 35.9991H21.177L20.973 35.7607C21.062 34.9558 20.8468 33.8777 20.9903 33.1085C21.0067 33.0215 21.0301 32.9353 21.1251 32.9014L21.8554 32.7883L15.0294 29.9176L8.14639 32.7883L8.8767 32.9014C8.97177 32.9353 8.99511 33.0215 9.01153 33.1085C9.07635 33.4566 9.0798 35.4884 8.99943 35.8007C8.97436 35.8973 8.89917 35.9478 8.82484 36H3.39377ZM17.9187 6.27475V5.01042C17.9187 4.90426 16.6171 3.70868 16.4235 3.50854C16.2299 3.30841 15.1375 2.01362 14.975 2.04233L12.0814 5.00955V6.27388L17.9187 6.27475ZM17.5108 7.09444H12.4885L15.0338 9.6901L17.5108 7.09444ZM11.2673 7.36853L4.00481 10.8535H11.2673V7.36853ZM18.7328 7.36853V10.8535H25.9953L18.7328 7.36853ZM12.0814 12.6295L14.3916 10.2722L12.0814 7.91499V12.6295ZM17.9187 12.6295V7.91412L15.6085 10.2714L17.9187 12.6295ZM17.3077 13.2447L14.9681 10.8526L12.6925 13.2447H17.3077ZM2.4958 14.0487C2.86743 13.6745 2.23392 13.0036 1.89599 13.4796C1.59609 13.9016 2.19071 14.3558 2.4958 14.0487ZM27.5043 14.0487C27.8085 14.3558 28.404 13.9016 28.1041 13.4796C27.7662 13.0045 27.1327 13.6745 27.5043 14.0487ZM17.3751 14.0652H12.6242L15.0243 16.452L17.3751 14.0652ZM11.2673 14.3384L4.1405 17.7555H11.2673V14.3384ZM18.7328 14.3384V17.7555H25.8596L18.7328 14.3384ZM12.0814 19.3949L14.3838 17.0464L12.0814 14.7474V19.3949ZM17.9187 19.3949V14.7483L15.6163 17.0968L17.9187 19.3949ZM17.3077 20.0101L14.975 17.692L12.6916 20.0101H17.3077ZM2.08527 20.2955C1.64276 20.4252 1.80006 21.2457 2.3264 21.0908C2.7689 20.9612 2.61161 20.1406 2.08527 20.2955ZM27.6728 20.2955C27.2303 20.4252 27.3876 21.2457 27.914 21.0908C28.3565 20.9612 28.1992 20.1406 27.6728 20.2955ZM16.968 20.8298H13.0312C13.2974 21.0238 14.841 22.2003 15.0225 22.1829C15.6889 21.7626 16.3682 21.3423 16.968 20.8298ZM9.9095 25.613L14.2516 22.7093L11.81 21.0351L9.9095 25.613ZM20.0897 25.613L18.1892 21.0351L15.7476 22.7093L20.0897 25.613ZM14.9767 23.2349L9.84468 26.6746L9.84123 26.8095L14.7944 28.9291L15.0329 28.9666L20.2246 26.7407L14.9767 23.2349ZM13.9137 29.5078L9.13339 27.3925L6.92345 32.4463L13.9137 29.5078ZM23.0767 32.4454L20.8667 27.3907L16.0864 29.4739L23.0767 32.4454ZM8.21294 33.6767H4.07309V35.1803H8.21294V33.6767ZM25.927 33.6767H21.7872V35.1803H25.927V33.6767Z" fill="#17447A"/>
<path d="M3.39377 36C3.31253 35.9052 3.26932 35.8251 3.25462 35.6963C3.1924 35.1194 3.20536 33.8881 3.25462 33.2982C3.26327 33.1938 3.26413 33.0598 3.31944 32.971C3.47415 32.7248 5.50173 32.9292 5.89497 32.8483L11.2664 20.3181V18.5752H2.64704C2.68853 18.8276 2.58309 19.267 2.65828 19.4863C2.68248 19.5567 3.10856 19.8465 3.21919 20.0144C3.61676 20.6149 3.39291 21.4676 2.75162 21.7896C1.51571 22.4108 0.322156 20.7602 1.45867 19.736C1.56238 19.6429 1.78104 19.6081 1.82167 19.4863C1.93488 19.1417 1.70585 18.1828 1.89513 17.92L11.2664 13.3473V11.6732H2.64704V12.6295C2.64704 12.6417 2.79829 12.6521 2.87348 12.706C4.24249 13.6919 2.80347 15.6463 1.52608 14.7483C0.889981 14.301 0.814792 13.3604 1.3878 12.8313C1.50621 12.7226 1.78969 12.6129 1.82167 12.5163C1.93143 12.1813 1.70931 11.1876 1.89426 10.9492L11.1999 6.44617C11.3917 6.22863 11.1679 5.05567 11.3018 4.70413L14.7244 1.11127C14.873 0.961607 15.1306 0.964217 15.2758 1.11127L18.6983 4.70413C18.8331 5.05567 18.6084 6.22863 18.8002 6.44617L28.0695 10.917C28.3141 11.1572 28.0618 12.1639 28.1776 12.5163C28.2096 12.6129 28.493 12.7226 28.6114 12.8313C29.187 13.363 29.1084 14.3019 28.4732 14.7483C27.2035 15.6411 25.7464 13.6998 27.1258 12.706C27.201 12.6521 27.3522 12.6417 27.3522 12.6295V11.6732H18.7328V13.3473L28.1041 17.92C28.2934 18.1828 28.0644 19.1417 28.1776 19.4863C28.2303 19.6472 28.8863 19.783 28.9753 20.4591C29.0531 21.0525 28.8405 21.552 28.2813 21.7983C27.1681 22.2882 26.1379 21.0612 26.7533 20.0545C26.8708 19.8622 27.3176 19.5559 27.3418 19.4854C27.4162 19.2652 27.3116 18.8267 27.3531 18.5743H18.7337V20.3173L24.1051 32.8474C24.4975 32.9292 26.526 32.7239 26.6807 32.9701C26.7368 33.0589 26.7368 33.1929 26.7455 33.2973C26.7965 33.9116 26.8025 35.0855 26.7455 35.6954C26.7334 35.8242 26.6867 35.9052 26.6063 35.9991H21.177L20.973 35.7607C21.062 34.9558 20.8468 33.8777 20.9903 33.1085C21.0067 33.0215 21.0301 32.9353 21.1251 32.9014L21.8554 32.7883L15.0294 29.9176L8.14639 32.7883L8.8767 32.9014C8.97177 32.9353 8.99511 33.0215 9.01153 33.1085C9.07635 33.4566 9.0798 35.4884 8.99943 35.8007C8.97436 35.8973 8.89917 35.9478 8.82484 36H3.39377ZM17.9187 6.27475V5.01042C17.9187 4.90426 16.6171 3.70868 16.4235 3.50854C16.2299 3.30841 15.1375 2.01362 14.975 2.04233L12.0814 5.00955V6.27388L17.9187 6.27475ZM17.5108 7.09444H12.4885L15.0338 9.6901L17.5108 7.09444ZM11.2673 7.36853L4.00481 10.8535H11.2673V7.36853ZM18.7328 7.36853V10.8535H25.9953L18.7328 7.36853ZM12.0814 12.6295L14.3916 10.2722L12.0814 7.91499V12.6295ZM17.9187 12.6295V7.91412L15.6085 10.2714L17.9187 12.6295ZM17.3077 13.2447L14.9681 10.8526L12.6925 13.2447H17.3077ZM2.4958 14.0487C2.86743 13.6745 2.23392 13.0036 1.89599 13.4796C1.59609 13.9016 2.19071 14.3558 2.4958 14.0487ZM27.5043 14.0487C27.8085 14.3558 28.404 13.9016 28.1041 13.4796C27.7662 13.0045 27.1327 13.6745 27.5043 14.0487ZM17.3751 14.0652H12.6242L15.0243 16.452L17.3751 14.0652ZM11.2673 14.3384L4.1405 17.7555H11.2673V14.3384ZM18.7328 14.3384V17.7555H25.8596L18.7328 14.3384ZM12.0814 19.3949L14.3838 17.0464L12.0814 14.7474V19.3949ZM17.9187 19.3949V14.7483L15.6163 17.0968L17.9187 19.3949ZM17.3077 20.0101L14.975 17.692L12.6916 20.0101H17.3077ZM2.08527 20.2955C1.64276 20.4252 1.80006 21.2457 2.3264 21.0908C2.7689 20.9612 2.61161 20.1406 2.08527 20.2955ZM27.6728 20.2955C27.2303 20.4252 27.3876 21.2457 27.914 21.0908C28.3565 20.9612 28.1992 20.1406 27.6728 20.2955ZM16.968 20.8298H13.0312C13.2974 21.0238 14.841 22.2003 15.0225 22.1829C15.6889 21.7626 16.3682 21.3423 16.968 20.8298ZM9.9095 25.613L14.2516 22.7093L11.81 21.0351L9.9095 25.613ZM20.0897 25.613L18.1892 21.0351L15.7476 22.7093L20.0897 25.613ZM14.9767 23.2349L9.84468 26.6746L9.84123 26.8095L14.7944 28.9291L15.0329 28.9666L20.2246 26.7407L14.9767 23.2349ZM13.9137 29.5078L9.13339 27.3925L6.92345 32.4463L13.9137 29.5078ZM23.0767 32.4454L20.8667 27.3907L16.0864 29.4739L23.0767 32.4454ZM8.21294 33.6767H4.07309V35.1803H8.21294V33.6767ZM25.927 33.6767H21.7872V35.1803H25.927V33.6767Z" stroke="#17447A" stroke-width="0.2" mask="url(#path-1-outside-1_3605_45)"/>
</svg>
