<svg width="24" height="31" viewBox="0 0 24 31" fill="none" xmlns="http://www.w3.org/2000/svg">
<path d="M2.05163 30.0209C1.982 29.9395 1.94497 29.8709 1.93237 29.7604C1.87904 29.2656 1.89015 28.2095 1.93237 27.7034C1.93978 27.6139 1.94052 27.4989 1.98793 27.4228C2.12052 27.2116 3.8583 27.387 4.19534 27.3176L8.79904 16.5699V15.075H1.41163C1.44719 15.2914 1.35682 15.6683 1.42126 15.8564C1.442 15.9169 1.80719 16.1654 1.902 16.3094C2.24275 16.8244 2.05089 17.5559 1.50126 17.832C0.442004 18.3649 -0.58096 16.9491 0.393114 16.0706C0.482003 15.9907 0.669411 15.9609 0.704226 15.8564C0.801263 15.5608 0.604967 14.7383 0.767189 14.5129L8.79904 10.5908V9.1548H1.41163V9.97506C1.41163 9.9855 1.54126 9.99446 1.60571 10.0407C2.77904 10.8864 1.54571 12.5627 0.450891 11.7924C-0.0942939 11.4088 -0.158736 10.602 0.332375 10.1482C0.433856 10.0549 0.676818 9.96087 0.704226 9.87803C0.7983 9.59068 0.607929 8.73833 0.766448 8.53383L8.742 4.6714C8.90645 4.48481 8.7146 3.47871 8.82941 3.17718L11.7627 0.0954431C11.8902 -0.0329314 12.1109 -0.0306924 12.2353 0.0954431L15.1687 3.17718C15.2842 3.47871 15.0916 4.48481 15.2561 4.6714L23.2005 8.50621C23.4102 8.71221 23.1939 9.57575 23.2931 9.87803C23.3205 9.96087 23.5635 10.0549 23.665 10.1482C24.1583 10.6042 24.0909 11.4096 23.5464 11.7924C22.4583 12.5582 21.2094 10.8931 22.3916 10.0407C22.4561 9.99446 22.5857 9.9855 22.5857 9.97506V9.1548H15.1983V10.5908L23.2302 14.5129C23.3924 14.7383 23.1961 15.5608 23.2931 15.8564C23.3383 15.9945 23.9005 16.1109 23.9768 16.6908C24.0435 17.1999 23.8613 17.6283 23.382 17.8395C22.4279 18.2597 21.545 17.2073 22.0724 16.3438C22.1731 16.1788 22.5561 15.9161 22.5768 15.8557C22.6405 15.6668 22.5509 15.2907 22.5864 15.0742H15.199V16.5692L19.8027 27.3168C20.139 27.387 21.8776 27.2108 22.0102 27.422C22.0583 27.4982 22.0583 27.6131 22.0657 27.7027C22.1094 28.2296 22.1146 29.2365 22.0657 29.7597C22.0553 29.8701 22.0153 29.9395 21.9464 30.0201H17.2931L17.1183 29.8156C17.1946 29.1252 17.0102 28.2005 17.1331 27.5407C17.1472 27.4661 17.1672 27.3922 17.2487 27.3631L17.8746 27.2661L12.0242 24.8038L6.12497 27.2661L6.75089 27.3631C6.83237 27.3922 6.85237 27.4661 6.86645 27.5407C6.922 27.8393 6.92497 29.582 6.85608 29.85C6.8346 29.9328 6.77015 29.9761 6.70645 30.0209H2.05163ZM14.5005 4.52436V3.4399C14.5005 3.34884 13.385 2.32334 13.219 2.15167C13.0531 1.98001 12.1168 0.869422 11.9776 0.894052L9.49756 3.43915V4.52362L14.5005 4.52436ZM14.1509 5.22744H9.84645L12.0279 7.45384L14.1509 5.22744ZM8.79978 5.46254L2.57534 8.45173H8.79978V5.46254ZM15.1983 5.46254V8.45173H21.4227L15.1983 5.46254ZM9.49756 9.97506L11.4776 7.95316L9.49756 5.93126V9.97506ZM14.5005 9.97506V5.93051L12.5205 7.95241L14.5005 9.97506ZM13.9768 10.5027L11.9716 8.45098L10.0213 10.5027H13.9768ZM1.282 11.1924C1.60052 10.8714 1.05756 10.296 0.767931 10.7043C0.510894 11.0662 1.02052 11.4558 1.282 11.1924ZM22.7161 11.1924C22.9768 11.4558 23.4872 11.0662 23.2302 10.7043C22.9405 10.2967 22.3976 10.8714 22.7161 11.1924ZM14.0346 11.2066H9.96274L12.0198 13.2538L14.0346 11.2066ZM8.79978 11.4409L2.69163 14.3719H8.79978V11.4409ZM15.1983 11.4409V14.3719H21.3064L15.1983 11.4409ZM9.49756 15.778L11.4709 13.7636L9.49756 11.7917V15.778ZM14.5005 15.778V11.7924L12.5272 13.8069L14.5005 15.778ZM13.9768 16.3057L11.9776 14.3174L10.0205 16.3057H13.9768ZM0.930151 16.5505C0.550891 16.6617 0.685707 17.3655 1.13682 17.2327C1.51608 17.1215 1.38126 16.4177 0.930151 16.5505ZM22.8605 16.5505C22.4813 16.6617 22.6161 17.3655 23.0672 17.2327C23.4464 17.1215 23.3116 16.4177 22.8605 16.5505ZM13.6857 17.0088H10.3116C10.5398 17.1752 11.8627 18.1843 12.0183 18.1694C12.5894 17.8089 13.1716 17.4484 13.6857 17.0088ZM7.63608 21.1115L11.3576 18.6209L9.26497 17.1849L7.63608 21.1115ZM16.3613 21.1115L14.7324 17.1849L12.6398 18.6209L16.3613 21.1115ZM11.979 19.0717L7.58052 22.0221L7.57756 22.1378L11.8227 23.9559L12.0272 23.988L16.4768 22.0788L11.979 19.0717ZM11.0679 24.4523L6.97089 22.6379L5.07682 26.9727L11.0679 24.4523ZM18.9213 26.972L17.0272 22.6364L12.9302 24.4232L18.9213 26.972ZM6.182 28.0281H2.63385V29.3178H6.182V28.0281ZM21.3642 28.0281H17.8161V29.3178H21.3642V28.0281Z" fill="white"/>
</svg>
