<svg width="45" height="70" viewBox="0 0 45 70" fill="none" xmlns="http://www.w3.org/2000/svg">
<path d="M22.0713 35.7446C22.3165 36.0447 22.5947 36.3893 22.8994 36.7729C24.0843 38.2651 25.6622 40.34 27.2363 42.6763C28.8136 45.0171 30.3686 47.5923 31.5244 50.0874C32.6939 52.612 33.3877 54.916 33.3877 56.7524C33.3876 59.7996 32.1913 62.7183 30.0674 64.8677C27.9439 67.0164 25.0675 68.2201 22.0723 68.2202C19.0768 68.2202 16.1997 67.0165 14.0762 64.8677C11.9523 62.7183 10.7559 59.7995 10.7559 56.7524C10.7559 54.916 11.4496 52.612 12.6191 50.0874C13.775 47.5923 15.3309 45.0172 16.9082 42.6763C18.4823 40.3402 20.0593 38.265 21.2441 36.7729C21.5486 36.3895 21.8262 36.0446 22.0713 35.7446Z" stroke="white" stroke-width="3"/>
<path d="M36.1758 15.3691C36.9934 16.3866 38.0808 17.8004 39.165 19.3906C40.2526 20.9857 41.3175 22.7302 42.1055 24.4111C42.9074 26.1218 43.3544 27.6258 43.3545 28.7803C43.3545 30.7429 42.5753 32.6259 41.1875 34.0137C39.7998 35.4013 37.9175 36.1806 35.9551 36.1807C33.9925 36.1807 32.1094 35.4014 30.7217 34.0137C29.3339 32.6259 28.5547 30.7429 28.5547 28.7803C28.5548 27.6258 29.0018 26.1218 29.8037 24.4111C30.5917 22.7302 31.6566 20.9857 32.7441 19.3906C33.8284 17.8004 34.9158 16.3866 35.7334 15.3691C35.8093 15.2747 35.8832 15.184 35.9541 15.0967C36.0251 15.1841 36.0997 15.2745 36.1758 15.3691Z" stroke="white" stroke-width="3"/>
<path d="M9.12109 3.26514C9.9387 4.2826 11.0261 5.69641 12.1104 7.28662C13.1979 8.88167 14.2628 10.6262 15.0508 12.3071C15.8527 14.0178 16.2997 15.5218 16.2998 16.6763C16.2998 18.6389 15.5206 20.5219 14.1328 21.9097C12.7451 23.2973 10.8628 24.0766 8.90039 24.0767C6.93779 24.0767 5.05476 23.2974 3.66699 21.9097C2.27925 20.5219 1.5 18.6389 1.5 16.6763C1.50012 15.5218 1.94713 14.0178 2.74902 12.3071C3.53699 10.6262 4.6019 8.88169 5.68945 7.28662C6.77372 5.69637 7.86109 4.28262 8.67871 3.26514C8.75461 3.17068 8.82849 3.07999 8.89941 2.99268C8.97046 3.08014 9.04505 3.17051 9.12109 3.26514Z" stroke="white" stroke-width="3"/>
</svg>
