<svg width="57" height="57" viewBox="0 0 57 57" fill="none" xmlns="http://www.w3.org/2000/svg">
<path d="M20.3906 28.804L38.019 47.8965C38.6363 48.5784 39.3854 49.1281 40.221 49.5125C41.0567 49.8969 41.9615 50.108 42.881 50.133H43.057C43.9584 50.1321 44.8506 49.9513 45.6813 49.6012C46.512 49.2511 47.2645 48.7388 47.8947 48.0944C48.525 47.4499 49.0203 46.6861 49.3517 45.8478C49.6831 45.0095 49.8439 44.1135 49.8247 43.2122C49.8032 42.2912 49.5956 41.3841 49.2142 40.5455C48.8329 39.7069 48.2857 38.9542 47.6057 38.3327L28.5062 20.7078C29.2155 18.4195 29.242 15.974 28.5827 13.6709C27.9233 11.3677 26.6066 9.30681 24.7938 7.74055C22.9811 6.17428 20.7509 5.17064 18.3764 4.85251C16.0019 4.53437 13.5862 4.91557 11.4251 5.94941C11.1728 6.07215 10.9535 6.25344 10.7855 6.47817C10.6175 6.70289 10.5057 6.96453 10.4593 7.24126C10.413 7.51799 10.4335 7.80179 10.5192 8.06897C10.6049 8.33616 10.7532 8.57898 10.9517 8.7772L16.7428 14.5542L14.2529 17.0459L8.45653 11.2619C8.25745 11.0641 8.01396 10.9168 7.74637 10.8322C7.47877 10.7477 7.19485 10.7284 6.91827 10.7759C6.6417 10.8235 6.38051 10.9364 6.15649 11.1055C5.93247 11.2745 5.75212 11.4946 5.6305 11.7475C4.59755 13.9079 4.21738 16.3227 4.53659 18.696C4.8558 21.0692 5.86053 23.2978 7.4276 25.1084C8.99467 26.9191 11.056 28.2332 13.3589 28.8896C15.6618 29.5461 18.1044 29.5163 20.3906 28.804ZM8.02717 15.8071L13.0106 20.7782C13.3405 21.1075 13.7876 21.2925 14.2538 21.2925C14.7199 21.2925 15.1671 21.1075 15.497 20.7782L20.4769 15.7983C20.6405 15.6349 20.7703 15.4408 20.8588 15.2272C20.9474 15.0136 20.9929 14.7846 20.9929 14.5533C20.9929 14.3221 20.9474 14.0931 20.8588 13.8795C20.7703 13.6659 20.6405 13.4718 20.4769 13.3084L15.4847 8.33376C17.0313 8.1111 18.6094 8.30438 20.0566 8.89371C21.5038 9.48304 22.768 10.4472 23.7191 11.687C24.6702 12.9268 25.274 14.3975 25.4684 15.948C25.6628 17.4985 25.4407 19.0727 24.825 20.5089C24.6817 20.8433 24.6455 21.2139 24.7214 21.5696C24.7974 21.9254 24.9817 22.2489 25.2491 22.4956L45.2355 40.9299C45.5671 41.2289 45.8337 41.5927 46.019 41.9989C46.2042 42.4051 46.3041 42.845 46.3124 43.2914C46.3238 43.7311 46.245 44.1685 46.0806 44.5765C45.9163 44.9845 45.6699 45.3545 45.3569 45.6635C45.0435 45.9724 44.6713 46.2152 44.2623 46.3775C43.8534 46.5398 43.4159 46.6184 42.976 46.6084C42.5301 46.5983 42.091 46.4964 41.6862 46.309C41.2814 46.1215 40.9196 45.8527 40.6233 45.5192L22.1714 25.5539C21.9243 25.2861 21.6 25.1016 21.2435 25.026C20.887 24.9503 20.5159 24.9872 20.1812 25.1316C18.7468 25.7433 17.1755 25.9628 15.6283 25.7676C14.0812 25.5723 12.6137 24.9694 11.3762 24.0205C10.1387 23.0716 9.1756 21.8108 8.58559 20.3673C7.99557 18.9238 7.79982 17.3494 8.01837 15.8053L8.02717 15.8071Z" fill="white"/>
</svg>
