<svg width="42" height="42" viewBox="0 0 42 42" fill="none" xmlns="http://www.w3.org/2000/svg">
<g clip-path="url(#clip0_3578_178)">
<path d="M35.4373 41.1601H6.56234C6.30116 41.1601 6.08984 40.9488 6.08984 40.6876V22.3126C6.08984 22.0514 6.30116 21.8401 6.56234 21.8401H8.94847C10.828 19.3253 13.5238 17.4051 16.4967 16.4391C14.062 14.9022 12.5408 12.2103 12.5408 9.29259C12.5408 4.6319 16.3326 0.840088 20.9933 0.840088C25.654 0.840088 29.4458 4.6319 29.4458 9.29259C29.4458 12.2103 27.9259 14.9009 25.4899 16.4378C28.4706 17.4065 31.1717 19.3266 33.0512 21.8401H35.4373C35.6985 21.8401 35.9098 22.0514 35.9098 22.3126V40.6876C35.9098 40.9488 35.6985 41.1601 35.4373 41.1601ZM7.03484 40.2151H34.9648V22.7851H7.03484V40.2151ZM10.152 21.8401H31.849C29.8789 19.4723 27.1122 17.7425 24.1262 17.0363C23.9293 16.9904 23.7837 16.8224 23.7653 16.6216C23.7456 16.4208 23.8572 16.2291 24.0422 16.1465C26.7512 14.9337 28.5008 12.2431 28.5008 9.2939C28.5008 5.15427 25.1342 1.7864 20.9933 1.7864C16.8523 1.7864 13.4858 5.15427 13.4858 9.2939C13.4858 12.2431 15.2367 14.9337 17.9443 16.1465C18.1294 16.2291 18.241 16.4208 18.2213 16.6216C18.2016 16.8237 18.0572 16.9904 17.8603 17.0363C14.8849 17.7411 12.1221 19.471 10.152 21.8401ZM21.4723 38.0626H20.5273V35.9101H17.0623C16.599 35.9101 16.2223 36.2868 16.2223 36.7501V37.4063H15.2773V36.7501C15.2773 35.7657 16.078 34.9651 17.0623 34.9651H20.5273V31.9726H15.7498C15.2865 31.9726 14.9098 32.3493 14.9098 32.8126V33.4688H13.9648V32.8126C13.9648 31.8282 14.7655 31.0276 15.7498 31.0276H20.5273V28.0351H15.7498C15.2865 28.0351 14.9098 28.4118 14.9098 28.8751V29.5313H13.9648V28.8751C13.9648 27.8907 14.7655 27.0901 15.7498 27.0901H20.5273V24.9376H21.4723V27.0901H26.2498C27.2342 27.0901 28.0348 27.8907 28.0348 28.8751V29.5313H27.0898V28.8751C27.0898 28.4118 26.7132 28.0351 26.2498 28.0351H21.4723V31.0263H26.2498C27.2342 31.0263 28.0348 31.8269 28.0348 32.8113V33.4675H27.0898V32.8126C27.0898 32.3493 26.7132 31.9726 26.2498 31.9726H21.4723V34.9638H24.9373C25.9217 34.9638 26.7223 35.7644 26.7223 36.7488V37.405H25.7773V36.7501C25.7773 36.2868 25.4007 35.9101 24.9373 35.9101H21.4723V38.0626Z" fill="#FF0000"/>
</g>
<defs>
<clipPath id="clip0_3578_178">
<rect width="42" height="42" fill="white"/>
</clipPath>
</defs>
</svg>
