<svg width="30" height="31" viewBox="0 0 30 31" fill="none" xmlns="http://www.w3.org/2000/svg">
<path d="M16.469 26.4736C16.0603 26.5186 15.6437 26.5625 15.1848 26.5625C14.7716 26.5625 14.3184 26.5186 13.9026 26.4736L14.178 28.9033H16.2405L16.469 26.4736ZM23.9036 22.3848C23.3521 23.0649 22.7549 23.7033 22.0735 24.2217L23.9475 25.7295L25.4143 24.2627L23.9036 22.3848ZM5.05396 24.2129L6.52075 25.6797L8.39868 24.1689C7.7181 23.6141 7.11946 23.0156 6.5647 22.335L5.05396 24.2129ZM15.2346 5.63477C12.5224 5.63477 10.0559 6.76853 8.27954 8.54492L8.27856 8.5459C6.45412 10.321 5.36939 12.7867 5.36938 15.5C5.36938 18.0428 6.36591 20.3696 7.95435 22.1143L8.27954 22.4551L8.28052 22.4561C10.0557 24.2805 12.5213 25.3652 15.2346 25.3652C17.9468 25.3652 20.4133 24.2315 22.1897 22.4551L22.1907 22.4541C24.0151 20.679 25.0999 18.2133 25.0999 15.5C25.0999 12.7878 23.9661 10.3213 22.1897 8.54492L22.1887 8.54395C20.4136 6.7195 17.9479 5.63477 15.2346 5.63477ZM26.2581 14.2646C26.3031 14.6729 26.3469 15.086 26.3469 15.5C26.3469 15.958 26.303 16.4148 26.2581 16.8311L28.6379 16.5566V14.4941L26.2581 14.2646ZM1.8313 14.4424V16.5068L4.26099 16.7812C4.21568 16.3321 4.17212 15.9123 4.17212 15.4502C4.17212 15.2228 4.18509 14.9955 4.19751 14.7656C4.20807 14.5703 4.21605 14.3724 4.21899 14.167L1.8313 14.4424ZM22.1653 6.83203C22.8022 7.3821 23.4383 7.97914 23.9563 8.66016L25.4641 6.78613L23.9973 5.31934L22.1653 6.83203ZM5.05396 6.73633L6.5647 8.61426C7.11945 7.93367 7.7181 7.33503 8.39868 6.78027L6.52075 5.26953L5.05396 6.73633ZM13.9524 4.47559C14.3682 4.43059 14.8214 4.3877 15.2346 4.3877C15.6513 4.3877 16.1092 4.43119 16.5657 4.47656L16.2913 2.09668H14.2278L13.9524 4.47559ZM29.8342 17.583L29.7454 17.5928L25.9768 17.9834C25.6794 19.1898 25.1966 20.3022 24.5735 21.3213L26.9231 24.2568L26.9788 24.3271L24.012 27.2939L23.9417 27.2383L21.0071 24.8896C20.0318 25.512 18.9204 25.9474 17.718 26.2422L17.3274 30.0107L17.3176 30.0996H13.1018L13.092 30.0107L12.7004 26.2432C11.5402 25.9914 10.4295 25.5106 9.41235 24.8887L6.47778 27.2383L6.40747 27.2939L3.44067 24.3271L3.49634 24.2568L5.84399 21.3232C5.17427 20.3009 4.73675 19.1873 4.44165 17.9834L0.723877 17.5928L0.63501 17.583V13.4189L0.721924 13.4072L4.53833 12.918C4.78969 11.7103 5.27145 10.5973 5.8938 9.5791L3.54712 6.69336L3.49048 6.62402L3.55396 6.55957L6.3938 3.71973L6.45825 3.65625L6.52759 3.71289L9.41138 6.05859C10.4333 5.38921 11.5469 4.95228 12.7502 4.65723L13.1418 0.989258L13.1516 0.900391H17.3157L17.3274 0.987305L17.8167 4.75684C19.0229 5.0541 20.1355 5.53638 21.1545 6.15918L24.0413 3.8125L24.1106 3.75586L24.175 3.81934L27.0149 6.65918L27.0784 6.72363L27.0217 6.79297L24.6741 9.67871C25.2962 10.6994 25.7315 11.812 26.0266 13.0156L29.7454 13.4072L29.8342 13.417V17.583Z" fill="white" stroke="white" stroke-width="0.2"/>
<path d="M15.2344 6.33081C20.2501 6.33081 24.3533 10.4343 24.3535 15.45C24.3535 20.4658 20.2502 24.5691 15.2344 24.5691C10.2187 24.5689 6.11523 20.4657 6.11523 15.45C6.11541 10.4344 10.2188 6.33099 15.2344 6.33081ZM15.0361 23.2732H15.4834V16.198H15.0361V23.2732ZM15.1846 7.62769C13.034 7.62777 11.0784 8.50733 9.66016 9.92554C8.24194 11.3438 7.36239 13.2994 7.3623 15.45C7.3623 17.6005 8.24205 19.5561 9.66016 20.9744C9.82645 21.1407 10.0183 21.3062 10.2012 21.4587V16.7449H13.2422V23.0496C13.3914 23.0794 13.5403 23.1105 13.6895 23.1404V14.9021H16.7305V23.0896C16.8796 23.0598 17.0286 23.0296 17.1777 22.9998V13.0583H20.2178V21.5076C20.4123 21.3455 20.5854 21.1975 20.7588 21.0242C22.1767 19.6062 23.0566 17.6525 23.0078 15.4539V15.45C23.0077 13.2994 22.1272 11.3438 20.709 9.92554C19.2907 8.50744 17.3351 7.62769 15.1846 7.62769ZM11.5479 22.3777C11.6469 22.4215 11.7451 22.4695 11.8389 22.5164C11.892 22.5429 11.944 22.5688 11.9951 22.5935V18.0417H11.5479V22.3777ZM18.5234 22.5496C18.6754 22.4864 18.824 22.4206 18.9717 22.3376V14.3542H18.5234V22.5496Z" fill="white" stroke="white" stroke-width="0.3"/>
<path d="M18.3767 9.6803L18.9922 10.7061L10.1048 16.0385L9.48931 15.0127L18.3767 9.6803Z" fill="white" stroke="white" stroke-width="0.2"/>
</svg>
