<svg width="39" height="39" viewBox="0 0 39 39" fill="none" xmlns="http://www.w3.org/2000/svg">
<path d="M37.2328 21.9374V17.0624L32.6016 16.5749C32.236 15.0515 31.6875 13.6499 30.8953 12.3702L33.8203 8.7749L30.3469 5.30146L26.7516 8.22646C25.4719 7.43428 24.0703 6.8249 22.5469 6.45928L21.9375 1.76709H17.0625L16.575 6.3374C15.0516 6.70303 13.65 7.25146 12.3703 8.10459L8.77502 5.17959L5.30159 8.65303L8.22659 12.2483C7.4344 13.528 6.82502 14.9296 6.52034 16.453L1.76721 17.0624V21.9374L6.39846 22.4249C6.76409 23.9483 7.31252 25.3499 8.16565 26.6296L5.24065 30.2858L8.71409 33.7593L12.3703 30.8343C13.65 31.6265 15.0516 32.2358 16.5141 32.5405L17.0016 37.2327H21.9375L22.425 32.5405C23.9485 32.1749 25.35 31.6265 26.5688 30.8343L30.225 33.7593L33.6985 30.2858L30.7735 26.6296C31.5656 25.3499 32.175 23.9483 32.5406 22.4249L37.2328 21.9374ZM36.0141 18.1593V20.9015L32.8453 21.2671C32.9063 20.7187 32.9672 20.1093 32.9672 19.4999C32.9672 18.9515 32.9063 18.403 32.8453 17.8546L36.0141 18.1593ZM30.225 6.88584L32.175 8.83584L30.1641 11.3343C29.4938 10.4202 28.6406 9.62803 27.7875 8.89678L30.225 6.88584ZM18.1594 2.98584H20.9016L21.2672 6.15459C20.6578 6.09365 20.0485 6.03271 19.5 6.03271C18.9516 6.03271 18.3422 6.09365 17.7938 6.15459L18.1594 2.98584ZM6.88596 8.7749L8.83596 6.8249L11.3344 8.83584C10.4203 9.56709 9.62815 10.3593 8.8969 11.2733L6.88596 8.7749ZM2.98596 20.8405V18.0983L6.15471 17.7327C6.15471 18.3421 6.09377 18.8905 6.09377 19.439C6.09377 20.0483 6.15471 20.5968 6.21565 21.2062L2.98596 20.8405ZM8.83596 32.114L6.88596 30.164L8.8969 27.6655C9.62815 28.5796 10.4203 29.3718 11.3344 30.103L8.83596 32.114ZM20.8406 36.014H18.0985L17.7328 32.7843C18.2813 32.8452 18.8906 32.9061 19.4391 32.9061C20.0485 32.9061 20.5969 32.8452 21.1453 32.7843L20.8406 36.014ZM32.1141 30.2249L30.1641 32.1749L27.6656 30.164C28.5797 29.4936 29.3719 28.6405 30.1031 27.7265L32.1141 30.2249ZM28.0922 28.0921C25.8985 30.2858 22.8516 31.6874 19.5 31.6874C16.1485 31.6874 13.1016 30.3468 10.9078 28.0921C8.71409 25.8983 7.31252 22.8515 7.31252 19.4999C7.31252 16.1483 8.65315 13.1015 10.9078 10.9077C13.1016 8.71396 16.1485 7.3124 19.5 7.3124C22.8516 7.3124 25.8985 8.65303 28.0922 10.9077C30.286 13.1015 31.6875 16.1483 31.6875 19.4999C31.6875 22.8515 30.3469 25.8983 28.0922 28.0921Z" fill="#FF0000" stroke="#FF0000" stroke-width="0.1"/>
<path d="M19.5 8.47021C13.4672 8.47021 8.53125 13.4062 8.53125 19.439C8.53125 25.4718 13.4672 30.4077 19.5 30.4077C25.5328 30.4077 30.4688 25.4718 30.4688 19.439C30.4688 13.4062 25.5328 8.47021 19.5 8.47021ZM15.7219 28.4577C15.4172 28.3358 15.1125 28.153 14.8078 28.0312V22.4249H15.7219V28.4577ZM19.0734 29.189V20.1702H19.9875V29.189C19.8656 29.189 19.6828 29.189 19.5609 29.189C19.3172 29.189 19.1953 29.189 19.0734 29.189ZM24.2531 27.9702C23.9484 28.153 23.6437 28.2749 23.3391 28.3968V17.9155H24.2531V27.9702ZM26.3859 26.3858C26.0812 26.6905 25.7766 26.9343 25.4109 27.239V16.6968H22.0594V28.8233C21.7547 28.8843 21.45 28.9452 21.1453 29.0062V18.9515H17.7938V29.0671C17.4891 29.0062 17.1844 28.9452 16.8797 28.8843V21.2062H13.5281V27.178C13.2234 26.9343 12.8578 26.6296 12.5531 26.3249C10.7859 24.5577 9.68906 22.1202 9.68906 19.439C9.68906 16.7577 10.7859 14.3202 12.5531 12.553C14.3203 10.7858 16.7578 9.68896 19.4391 9.68896C22.1203 9.68896 24.5578 10.7858 26.325 12.553C28.0922 14.3202 29.1891 16.7577 29.1891 19.439C29.25 22.1812 28.1531 24.6187 26.3859 26.3858Z" fill="#FF0000" stroke="#FF0000" stroke-width="0.1"/>
<path d="M23.3009 12.5499L12.6411 18.9458L13.2682 19.9909L23.928 13.595L23.3009 12.5499Z" fill="#FF0000" stroke="#FF0000" stroke-width="0.1"/>
</svg>
