<svg width="27" height="32" viewBox="0 0 27 32" fill="none" xmlns="http://www.w3.org/2000/svg">
<g clip-path="url(#clip0_3960_16)">
<path d="M12.7721 0.0286952C16.8767 -0.366934 20.2142 3.38832 19.0568 7.59198C17.7678 12.2733 11.8784 13.4751 8.84787 9.77784C5.86572 6.13941 8.26842 0.462735 12.7721 0.0286952ZM14.2671 4.90997C14.375 4.41548 15.6098 2.62177 15.5826 2.28393C15.5785 2.23193 15.5288 2.1359 15.4939 2.1359H13.0974C13.061 2.1359 12.9364 2.24499 12.9055 2.29155C12.3188 3.49505 11.632 4.65274 11.0419 5.8531C10.9992 5.94003 10.7375 6.38559 10.9291 6.38559H12.4697C12.509 6.38559 12.5856 6.51495 12.5458 6.578L11.3677 9.55795C11.3063 9.78345 11.4655 9.85809 11.659 9.79811C11.7444 9.77163 12.3504 9.11115 12.4705 8.98345C13.5067 7.88165 14.623 6.6495 15.6088 5.50103C15.6629 5.43797 15.9726 5.08536 15.9787 5.05676C15.991 4.99921 15.9142 4.90997 15.8934 4.90997H14.2671Z" fill="white"/>
<path d="M10.2956 21.4927H6.92749V29.1011H10.2956V21.4927Z" fill="white"/>
<path d="M15.3615 18.0605H11.9934V29.9688H15.3615V18.0605Z" fill="white"/>
<path d="M20.4274 14.9766H17.0593V29.9686H20.4274V14.9766Z" fill="white"/>
<path d="M27 18.0382C27 21.7676 25.5955 25.2736 23.046 27.9103C20.4964 30.5471 17.1058 32.0002 13.4997 32.0002C9.89366 32.0002 6.50359 30.5477 3.95403 27.9103C1.40391 25.2736 0 21.7676 0 18.0382C0 14.3088 1.40391 10.8028 3.95403 8.16551C4.6757 7.41916 5.4648 6.76795 6.30703 6.2172C6.3196 7.04628 6.47387 7.8795 6.78757 8.67903C4.0226 10.8052 2.22843 14.209 2.22843 18.0382C2.22843 24.4658 7.28468 29.6955 13.4997 29.6955C19.7147 29.6955 24.7716 24.4658 24.7716 18.0382C24.7716 14.1274 22.8997 10.6598 20.0342 8.5443C20.1073 8.34515 20.173 8.13951 20.2313 7.92795C20.4021 7.30748 20.4918 6.69586 20.509 6.09961C21.4204 6.674 22.2717 7.36539 23.046 8.16551C25.5955 10.8028 27 14.3088 27 18.0382Z" fill="white"/>
</g>
<defs>
<clipPath id="clip0_3960_16">
<rect width="27" height="32" fill="white"/>
</clipPath>
</defs>
</svg>
